<svg width="762" height="214" viewBox="0 0 762 214" fill="none" xmlns="http://www.w3.org/2000/svg">
<rect x="21" y="41" width="96" height="79" rx="5" fill="#EFE3FF"/>
<path d="M44.9868 87.192C43.9841 87.192 43.1628 87.0107 42.5228 86.648C41.8828 86.2747 41.3548 85.8 40.9388 85.224L41.9148 84.424C42.3521 84.968 42.8108 85.3733 43.2908 85.64C43.7814 85.9067 44.3628 86.04 45.0348 86.04C45.8454 86.04 46.4641 85.8533 46.8908 85.48C47.3174 85.1067 47.5308 84.584 47.5308 83.912C47.5308 83.368 47.3761 82.9467 47.0668 82.648C46.7574 82.3387 46.2188 82.12 45.4508 81.992L44.2028 81.784C43.6588 81.688 43.2001 81.544 42.8268 81.352C42.4641 81.16 42.1708 80.9307 41.9468 80.664C41.7228 80.3867 41.5628 80.088 41.4668 79.768C41.3708 79.4373 41.3228 79.096 41.3228 78.744C41.3228 77.72 41.6588 76.9467 42.3307 76.424C43.0028 75.9013 43.9094 75.64 45.0508 75.64C45.9468 75.64 46.6988 75.7893 47.3068 76.088C47.9254 76.3867 48.4214 76.808 48.7948 77.352L47.8508 78.168C47.5414 77.7627 47.1681 77.432 46.7308 77.176C46.2934 76.92 45.7281 76.792 45.0348 76.792C44.2774 76.792 43.6961 76.952 43.2908 77.272C42.8854 77.592 42.6828 78.072 42.6828 78.712C42.6828 79.2133 42.8321 79.624 43.1308 79.944C43.4401 80.2533 43.9894 80.4773 44.7788 80.616L45.9788 80.824C46.5228 80.92 46.9814 81.064 47.3548 81.256C47.7281 81.448 48.0268 81.6773 48.2508 81.944C48.4854 82.2107 48.6508 82.5093 48.7468 82.84C48.8428 83.1707 48.8908 83.5173 48.8908 83.88C48.8908 84.9147 48.5494 85.7253 47.8668 86.312C47.1948 86.8987 46.2348 87.192 44.9868 87.192ZM54.7565 87.192C54.1592 87.192 53.6205 87.0907 53.1405 86.888C52.6712 86.6853 52.2658 86.3973 51.9245 86.024C51.5938 85.64 51.3378 85.1867 51.1565 84.664C50.9752 84.1307 50.8845 83.5387 50.8845 82.888C50.8845 82.2267 50.9752 81.6293 51.1565 81.096C51.3485 80.5627 51.6098 80.1093 51.9405 79.736C52.2712 79.352 52.6658 79.0587 53.1245 78.856C53.5938 78.6533 54.1112 78.552 54.6765 78.552C55.2312 78.552 55.7325 78.6533 56.1805 78.856C56.6392 79.0587 57.0285 79.3413 57.3485 79.704C57.6685 80.056 57.9138 80.4773 58.0845 80.968C58.2552 81.4587 58.3405 81.9973 58.3405 82.584V83.192H52.2285V83.576C52.2285 83.9387 52.2872 84.2747 52.4045 84.584C52.5218 84.8933 52.6872 85.16 52.9005 85.384C53.1245 85.608 53.3912 85.784 53.7005 85.912C54.0205 86.0293 54.3725 86.088 54.7565 86.088C55.3112 86.088 55.7912 85.96 56.1965 85.704C56.6018 85.448 56.9112 85.096 57.1245 84.648L58.0685 85.288C57.8232 85.8427 57.4125 86.3013 56.8365 86.664C56.2712 87.016 55.5778 87.192 54.7565 87.192ZM54.6765 79.608C54.3245 79.608 53.9992 79.672 53.7005 79.8C53.4018 79.928 53.1405 80.104 52.9165 80.328C52.7032 80.552 52.5325 80.8187 52.4045 81.128C52.2872 81.4267 52.2285 81.7573 52.2285 82.12V82.232H56.9645V82.056C56.9645 81.6933 56.9058 81.3627 56.7885 81.064C56.6818 80.7653 56.5272 80.5093 56.3245 80.296C56.1325 80.072 55.8925 79.9013 55.6045 79.784C55.3272 79.6667 55.0178 79.608 54.6765 79.608ZM60.9743 87V78.744H62.2543V80.088H62.3183C62.4036 79.8853 62.5103 79.6933 62.6383 79.512C62.7663 79.32 62.9209 79.1547 63.1023 79.016C63.2943 78.8773 63.5183 78.7653 63.7743 78.68C64.0303 78.5947 64.3289 78.552 64.6703 78.552C65.5343 78.552 66.2276 78.8293 66.7503 79.384C67.2729 79.928 67.5343 80.7013 67.5343 81.704V87H66.2543V81.928C66.2543 81.1707 66.0889 80.6107 65.7583 80.248C65.4276 79.8747 64.9423 79.688 64.3023 79.688C64.0463 79.688 63.7956 79.72 63.5503 79.784C63.3049 79.848 63.0863 79.944 62.8943 80.072C62.7023 80.2 62.5476 80.3653 62.4303 80.568C62.3129 80.7707 62.2543 81.0053 62.2543 81.272V87H60.9743ZM75.8 85.656H75.736C75.2027 86.68 74.3547 87.192 73.192 87.192C72.1787 87.192 71.384 86.8133 70.808 86.056C70.2427 85.2987 69.96 84.2373 69.96 82.872C69.96 81.5067 70.2427 80.4453 70.808 79.688C71.384 78.9307 72.1787 78.552 73.192 78.552C74.3547 78.552 75.2027 79.064 75.736 80.088H75.8V75.16H77.08V87H75.8V85.656ZM73.688 86.056C73.976 86.056 74.248 86.0187 74.504 85.944C74.76 85.8693 74.984 85.7627 75.176 85.624C75.368 85.4747 75.5173 85.2987 75.624 85.096C75.7413 84.8827 75.8 84.6373 75.8 84.36V81.384C75.8 81.1067 75.7413 80.8667 75.624 80.664C75.5173 80.4507 75.368 80.2747 75.176 80.136C74.984 79.9867 74.76 79.8747 74.504 79.8C74.248 79.7253 73.976 79.688 73.688 79.688C72.9413 79.688 72.36 79.9173 71.944 80.376C71.5387 80.824 71.336 81.4213 71.336 82.168V83.576C71.336 84.3227 71.5387 84.9253 71.944 85.384C72.36 85.832 72.9413 86.056 73.688 86.056ZM83.5378 87.192C82.9404 87.192 82.4018 87.0907 81.9218 86.888C81.4524 86.6853 81.0471 86.3973 80.7057 86.024C80.3751 85.64 80.1191 85.1867 79.9378 84.664C79.7564 84.1307 79.6658 83.5387 79.6658 82.888C79.6658 82.2267 79.7564 81.6293 79.9378 81.096C80.1298 80.5627 80.3911 80.1093 80.7218 79.736C81.0524 79.352 81.4471 79.0587 81.9058 78.856C82.3751 78.6533 82.8924 78.552 83.4578 78.552C84.0124 78.552 84.5138 78.6533 84.9618 78.856C85.4204 79.0587 85.8098 79.3413 86.1298 79.704C86.4498 80.056 86.6951 80.4773 86.8658 80.968C87.0364 81.4587 87.1218 81.9973 87.1218 82.584V83.192H81.0098V83.576C81.0098 83.9387 81.0684 84.2747 81.1858 84.584C81.3031 84.8933 81.4684 85.16 81.6818 85.384C81.9058 85.608 82.1724 85.784 82.4818 85.912C82.8018 86.0293 83.1538 86.088 83.5378 86.088C84.0924 86.088 84.5724 85.96 84.9778 85.704C85.3831 85.448 85.6924 85.096 85.9058 84.648L86.8498 85.288C86.6044 85.8427 86.1938 86.3013 85.6178 86.664C85.0524 87.016 84.3591 87.192 83.5378 87.192ZM83.4578 79.608C83.1058 79.608 82.7804 79.672 82.4818 79.8C82.1831 79.928 81.9218 80.104 81.6978 80.328C81.4844 80.552 81.3138 80.8187 81.1858 81.128C81.0684 81.4267 81.0098 81.7573 81.0098 82.12V82.232H85.7458V82.056C85.7458 81.6933 85.6871 81.3627 85.5698 81.064C85.4631 80.7653 85.3084 80.5093 85.1058 80.296C84.9138 80.072 84.6738 79.9013 84.3858 79.784C84.1084 79.6667 83.7991 79.608 83.4578 79.608ZM89.4195 85.912H91.8355V79.832H89.4195V78.744H93.1155V80.824H93.1955C93.3662 80.1733 93.6862 79.6667 94.1555 79.304C94.6355 78.9307 95.2435 78.744 95.9795 78.744H97.1315V80.024H95.5795C94.8435 80.024 94.2462 80.2373 93.7875 80.664C93.3395 81.0907 93.1155 81.6507 93.1155 82.344V85.912H96.3155V87H89.4195V85.912Z" fill="black"/>
<rect x="21" y="41" width="96" height="79" rx="5" stroke="#9747FF" stroke-width="2"/>
<rect x="134" y="41" width="96" height="79" rx="5" fill="#DCF3E7"/>
<path d="M155.827 77.544H155.715V87H154.499V75.832H156.403L160.211 85.192H160.323V75.832H161.539V87H159.635L155.827 77.544ZM167.613 87.192C167.037 87.192 166.514 87.0907 166.045 86.888C165.586 86.6853 165.191 86.3973 164.861 86.024C164.541 85.64 164.295 85.1867 164.125 84.664C163.954 84.1307 163.868 83.5333 163.868 82.872C163.868 82.2213 163.954 81.6293 164.125 81.096C164.295 80.5627 164.541 80.1093 164.861 79.736C165.191 79.352 165.586 79.0587 166.045 78.856C166.514 78.6533 167.037 78.552 167.613 78.552C168.189 78.552 168.706 78.6533 169.165 78.856C169.634 79.0587 170.029 79.352 170.349 79.736C170.679 80.1093 170.93 80.5627 171.101 81.096C171.271 81.6293 171.357 82.2213 171.357 82.872C171.357 83.5333 171.271 84.1307 171.101 84.664C170.93 85.1867 170.679 85.64 170.349 86.024C170.029 86.3973 169.634 86.6853 169.165 86.888C168.706 87.0907 168.189 87.192 167.613 87.192ZM167.613 86.088C168.327 86.088 168.903 85.8747 169.341 85.448C169.778 85.0213 169.997 84.36 169.997 83.464V82.28C169.997 81.384 169.778 80.7227 169.341 80.296C168.903 79.8693 168.327 79.656 167.613 79.656C166.898 79.656 166.322 79.8693 165.885 80.296C165.447 80.7227 165.229 81.384 165.229 82.28V83.464C165.229 84.36 165.447 85.0213 165.885 85.448C166.322 85.8747 166.898 86.088 167.613 86.088ZM179.206 85.656H179.142C178.609 86.68 177.761 87.192 176.598 87.192C175.585 87.192 174.79 86.8133 174.214 86.056C173.649 85.2987 173.366 84.2373 173.366 82.872C173.366 81.5067 173.649 80.4453 174.214 79.688C174.79 78.9307 175.585 78.552 176.598 78.552C177.761 78.552 178.609 79.064 179.142 80.088H179.206V75.16H180.486V87H179.206V85.656ZM177.094 86.056C177.382 86.056 177.654 86.0187 177.91 85.944C178.166 85.8693 178.39 85.7627 178.582 85.624C178.774 85.4747 178.924 85.2987 179.03 85.096C179.148 84.8827 179.206 84.6373 179.206 84.36V81.384C179.206 81.1067 179.148 80.8667 179.03 80.664C178.924 80.4507 178.774 80.2747 178.582 80.136C178.39 79.9867 178.166 79.8747 177.91 79.8C177.654 79.7253 177.382 79.688 177.094 79.688C176.348 79.688 175.766 79.9173 175.35 80.376C174.945 80.824 174.742 81.4213 174.742 82.168V83.576C174.742 84.3227 174.945 84.9253 175.35 85.384C175.766 85.832 176.348 86.056 177.094 86.056ZM186.944 87.192C186.347 87.192 185.808 87.0907 185.328 86.888C184.859 86.6853 184.453 86.3973 184.112 86.024C183.781 85.64 183.525 85.1867 183.344 84.664C183.163 84.1307 183.072 83.5387 183.072 82.888C183.072 82.2267 183.163 81.6293 183.344 81.096C183.536 80.5627 183.797 80.1093 184.128 79.736C184.459 79.352 184.853 79.0587 185.312 78.856C185.781 78.6533 186.299 78.552 186.864 78.552C187.419 78.552 187.92 78.6533 188.368 78.856C188.827 79.0587 189.216 79.3413 189.536 79.704C189.856 80.056 190.101 80.4773 190.272 80.968C190.443 81.4587 190.528 81.9973 190.528 82.584V83.192H184.416V83.576C184.416 83.9387 184.475 84.2747 184.592 84.584C184.709 84.8933 184.875 85.16 185.088 85.384C185.312 85.608 185.579 85.784 185.888 85.912C186.208 86.0293 186.56 86.088 186.944 86.088C187.499 86.088 187.979 85.96 188.384 85.704C188.789 85.448 189.099 85.096 189.312 84.648L190.256 85.288C190.011 85.8427 189.6 86.3013 189.024 86.664C188.459 87.016 187.765 87.192 186.944 87.192ZM186.864 79.608C186.512 79.608 186.187 79.672 185.888 79.8C185.589 79.928 185.328 80.104 185.104 80.328C184.891 80.552 184.72 80.8187 184.592 81.128C184.475 81.4267 184.416 81.7573 184.416 82.12V82.232H189.152V82.056C189.152 81.6933 189.093 81.3627 188.976 81.064C188.869 80.7653 188.715 80.5093 188.512 80.296C188.32 80.072 188.08 79.9013 187.792 79.784C187.515 79.6667 187.205 79.608 186.864 79.608ZM202.548 87V85.832H205.748V76.824H205.636L202.82 79.448L202.036 78.6L204.996 75.832H207.092V85.832H210.036V87H202.548Z" fill="black"/>
<rect x="134" y="41" width="96" height="79" rx="5" stroke="#14AE5C" stroke-width="2"/>
<rect x="247" y="41" width="96" height="79" rx="5" fill="#DCF3E7"/>
<path d="M268.827 77.544H268.715V87H267.499V75.832H269.403L273.211 85.192H273.323V75.832H274.539V87H272.635L268.827 77.544ZM280.613 87.192C280.037 87.192 279.514 87.0907 279.045 86.888C278.586 86.6853 278.191 86.3973 277.861 86.024C277.541 85.64 277.295 85.1867 277.125 84.664C276.954 84.1307 276.868 83.5333 276.868 82.872C276.868 82.2213 276.954 81.6293 277.125 81.096C277.295 80.5627 277.541 80.1093 277.861 79.736C278.191 79.352 278.586 79.0587 279.045 78.856C279.514 78.6533 280.037 78.552 280.613 78.552C281.189 78.552 281.706 78.6533 282.165 78.856C282.634 79.0587 283.029 79.352 283.349 79.736C283.679 80.1093 283.93 80.5627 284.101 81.096C284.271 81.6293 284.357 82.2213 284.357 82.872C284.357 83.5333 284.271 84.1307 284.101 84.664C283.93 85.1867 283.679 85.64 283.349 86.024C283.029 86.3973 282.634 86.6853 282.165 86.888C281.706 87.0907 281.189 87.192 280.613 87.192ZM280.613 86.088C281.327 86.088 281.903 85.8747 282.341 85.448C282.778 85.0213 282.997 84.36 282.997 83.464V82.28C282.997 81.384 282.778 80.7227 282.341 80.296C281.903 79.8693 281.327 79.656 280.613 79.656C279.898 79.656 279.322 79.8693 278.885 80.296C278.447 80.7227 278.229 81.384 278.229 82.28V83.464C278.229 84.36 278.447 85.0213 278.885 85.448C279.322 85.8747 279.898 86.088 280.613 86.088ZM292.206 85.656H292.142C291.609 86.68 290.761 87.192 289.598 87.192C288.585 87.192 287.79 86.8133 287.214 86.056C286.649 85.2987 286.366 84.2373 286.366 82.872C286.366 81.5067 286.649 80.4453 287.214 79.688C287.79 78.9307 288.585 78.552 289.598 78.552C290.761 78.552 291.609 79.064 292.142 80.088H292.206V75.16H293.486V87H292.206V85.656ZM290.094 86.056C290.382 86.056 290.654 86.0187 290.91 85.944C291.166 85.8693 291.39 85.7627 291.582 85.624C291.774 85.4747 291.924 85.2987 292.03 85.096C292.148 84.8827 292.206 84.6373 292.206 84.36V81.384C292.206 81.1067 292.148 80.8667 292.03 80.664C291.924 80.4507 291.774 80.2747 291.582 80.136C291.39 79.9867 291.166 79.8747 290.91 79.8C290.654 79.7253 290.382 79.688 290.094 79.688C289.348 79.688 288.766 79.9173 288.35 80.376C287.945 80.824 287.742 81.4213 287.742 82.168V83.576C287.742 84.3227 287.945 84.9253 288.35 85.384C288.766 85.832 289.348 86.056 290.094 86.056ZM299.944 87.192C299.347 87.192 298.808 87.0907 298.328 86.888C297.859 86.6853 297.453 86.3973 297.112 86.024C296.781 85.64 296.525 85.1867 296.344 84.664C296.163 84.1307 296.072 83.5387 296.072 82.888C296.072 82.2267 296.163 81.6293 296.344 81.096C296.536 80.5627 296.797 80.1093 297.128 79.736C297.459 79.352 297.853 79.0587 298.312 78.856C298.781 78.6533 299.299 78.552 299.864 78.552C300.419 78.552 300.92 78.6533 301.368 78.856C301.827 79.0587 302.216 79.3413 302.536 79.704C302.856 80.056 303.101 80.4773 303.272 80.968C303.443 81.4587 303.528 81.9973 303.528 82.584V83.192H297.416V83.576C297.416 83.9387 297.475 84.2747 297.592 84.584C297.709 84.8933 297.875 85.16 298.088 85.384C298.312 85.608 298.579 85.784 298.888 85.912C299.208 86.0293 299.56 86.088 299.944 86.088C300.499 86.088 300.979 85.96 301.384 85.704C301.789 85.448 302.099 85.096 302.312 84.648L303.256 85.288C303.011 85.8427 302.6 86.3013 302.024 86.664C301.459 87.016 300.765 87.192 299.944 87.192ZM299.864 79.608C299.512 79.608 299.187 79.672 298.888 79.8C298.589 79.928 298.328 80.104 298.104 80.328C297.891 80.552 297.72 80.8187 297.592 81.128C297.475 81.4267 297.416 81.7573 297.416 82.12V82.232H302.152V82.056C302.152 81.6933 302.093 81.3627 301.976 81.064C301.869 80.7653 301.715 80.5093 301.512 80.296C301.32 80.072 301.08 79.9013 300.792 79.784C300.515 79.6667 300.205 79.608 299.864 79.608ZM322.78 87H315.324V85.624L319.052 82.264C319.596 81.7733 320.044 81.272 320.396 80.76C320.748 80.2373 320.924 79.688 320.924 79.112V78.92C320.924 78.248 320.748 77.7307 320.396 77.368C320.044 76.9947 319.521 76.808 318.828 76.808C318.145 76.808 317.617 76.984 317.244 77.336C316.881 77.6773 316.609 78.136 316.428 78.712L315.228 78.264C315.334 77.9333 315.478 77.6133 315.66 77.304C315.852 76.984 316.092 76.7013 316.38 76.456C316.668 76.2107 317.014 76.0133 317.42 75.864C317.836 75.7147 318.316 75.64 318.86 75.64C319.414 75.64 319.905 75.72 320.332 75.88C320.769 76.04 321.132 76.264 321.42 76.552C321.718 76.84 321.942 77.1813 322.092 77.576C322.252 77.9707 322.332 78.4027 322.332 78.872C322.332 79.2987 322.268 79.6987 322.14 80.072C322.022 80.4453 321.852 80.8027 321.628 81.144C321.414 81.4853 321.153 81.8213 320.844 82.152C320.545 82.472 320.209 82.792 319.836 83.112L316.716 85.832H322.78V87Z" fill="black"/>
<rect x="247" y="41" width="96" height="79" rx="5" stroke="#14AE5C" stroke-width="2"/>
<rect x="360" y="41" width="96" height="79" rx="5" fill="#DCF3E7"/>
<path d="M381.827 77.544H381.715V87H380.499V75.832H382.403L386.211 85.192H386.323V75.832H387.539V87H385.635L381.827 77.544ZM393.613 87.192C393.037 87.192 392.514 87.0907 392.045 86.888C391.586 86.6853 391.191 86.3973 390.861 86.024C390.541 85.64 390.295 85.1867 390.125 84.664C389.954 84.1307 389.868 83.5333 389.868 82.872C389.868 82.2213 389.954 81.6293 390.125 81.096C390.295 80.5627 390.541 80.1093 390.861 79.736C391.191 79.352 391.586 79.0587 392.045 78.856C392.514 78.6533 393.037 78.552 393.613 78.552C394.189 78.552 394.706 78.6533 395.165 78.856C395.634 79.0587 396.029 79.352 396.349 79.736C396.679 80.1093 396.93 80.5627 397.101 81.096C397.271 81.6293 397.357 82.2213 397.357 82.872C397.357 83.5333 397.271 84.1307 397.101 84.664C396.93 85.1867 396.679 85.64 396.349 86.024C396.029 86.3973 395.634 86.6853 395.165 86.888C394.706 87.0907 394.189 87.192 393.613 87.192ZM393.613 86.088C394.327 86.088 394.903 85.8747 395.341 85.448C395.778 85.0213 395.997 84.36 395.997 83.464V82.28C395.997 81.384 395.778 80.7227 395.341 80.296C394.903 79.8693 394.327 79.656 393.613 79.656C392.898 79.656 392.322 79.8693 391.885 80.296C391.447 80.7227 391.229 81.384 391.229 82.28V83.464C391.229 84.36 391.447 85.0213 391.885 85.448C392.322 85.8747 392.898 86.088 393.613 86.088ZM405.206 85.656H405.142C404.609 86.68 403.761 87.192 402.598 87.192C401.585 87.192 400.79 86.8133 400.214 86.056C399.649 85.2987 399.366 84.2373 399.366 82.872C399.366 81.5067 399.649 80.4453 400.214 79.688C400.79 78.9307 401.585 78.552 402.598 78.552C403.761 78.552 404.609 79.064 405.142 80.088H405.206V75.16H406.486V87H405.206V85.656ZM403.094 86.056C403.382 86.056 403.654 86.0187 403.91 85.944C404.166 85.8693 404.39 85.7627 404.582 85.624C404.774 85.4747 404.924 85.2987 405.03 85.096C405.148 84.8827 405.206 84.6373 405.206 84.36V81.384C405.206 81.1067 405.148 80.8667 405.03 80.664C404.924 80.4507 404.774 80.2747 404.582 80.136C404.39 79.9867 404.166 79.8747 403.91 79.8C403.654 79.7253 403.382 79.688 403.094 79.688C402.348 79.688 401.766 79.9173 401.35 80.376C400.945 80.824 400.742 81.4213 400.742 82.168V83.576C400.742 84.3227 400.945 84.9253 401.35 85.384C401.766 85.832 402.348 86.056 403.094 86.056ZM412.944 87.192C412.347 87.192 411.808 87.0907 411.328 86.888C410.859 86.6853 410.453 86.3973 410.112 86.024C409.781 85.64 409.525 85.1867 409.344 84.664C409.163 84.1307 409.072 83.5387 409.072 82.888C409.072 82.2267 409.163 81.6293 409.344 81.096C409.536 80.5627 409.797 80.1093 410.128 79.736C410.459 79.352 410.853 79.0587 411.312 78.856C411.781 78.6533 412.299 78.552 412.864 78.552C413.419 78.552 413.92 78.6533 414.368 78.856C414.827 79.0587 415.216 79.3413 415.536 79.704C415.856 80.056 416.101 80.4773 416.272 80.968C416.443 81.4587 416.528 81.9973 416.528 82.584V83.192H410.416V83.576C410.416 83.9387 410.475 84.2747 410.592 84.584C410.709 84.8933 410.875 85.16 411.088 85.384C411.312 85.608 411.579 85.784 411.888 85.912C412.208 86.0293 412.56 86.088 412.944 86.088C413.499 86.088 413.979 85.96 414.384 85.704C414.789 85.448 415.099 85.096 415.312 84.648L416.256 85.288C416.011 85.8427 415.6 86.3013 415.024 86.664C414.459 87.016 413.765 87.192 412.944 87.192ZM412.864 79.608C412.512 79.608 412.187 79.672 411.888 79.8C411.589 79.928 411.328 80.104 411.104 80.328C410.891 80.552 410.72 80.8187 410.592 81.128C410.475 81.4267 410.416 81.7573 410.416 82.12V82.232H415.152V82.056C415.152 81.6933 415.093 81.3627 414.976 81.064C414.869 80.7653 414.715 80.5093 414.512 80.296C414.32 80.072 414.08 79.9013 413.792 79.784C413.515 79.6667 413.205 79.608 412.864 79.608ZM431.508 80.568C432.286 80.568 432.868 80.3973 433.252 80.056C433.646 79.704 433.844 79.256 433.844 78.712V78.6C433.844 78.0027 433.652 77.5547 433.268 77.256C432.894 76.9573 432.404 76.808 431.796 76.808C431.198 76.808 430.713 76.9413 430.34 77.208C429.977 77.464 429.678 77.8053 429.444 78.232L428.436 77.464C428.574 77.24 428.745 77.0213 428.948 76.808C429.15 76.584 429.385 76.3867 429.652 76.216C429.929 76.0453 430.244 75.9067 430.596 75.8C430.958 75.6933 431.369 75.64 431.828 75.64C432.308 75.64 432.756 75.704 433.172 75.832C433.588 75.9493 433.95 76.1307 434.26 76.376C434.569 76.6107 434.809 76.904 434.98 77.256C435.161 77.608 435.252 78.008 435.252 78.456C435.252 78.8187 435.193 79.144 435.076 79.432C434.969 79.72 434.814 79.9707 434.612 80.184C434.42 80.3973 434.19 80.5787 433.924 80.728C433.657 80.8773 433.374 80.9893 433.076 81.064V81.128C433.385 81.192 433.684 81.2987 433.972 81.448C434.26 81.5867 434.516 81.7733 434.74 82.008C434.964 82.232 435.14 82.5093 435.267 82.84C435.406 83.16 435.476 83.528 435.476 83.944C435.476 84.424 435.38 84.8667 435.188 85.272C435.006 85.6667 434.745 86.008 434.404 86.296C434.073 86.5733 433.668 86.792 433.188 86.952C432.718 87.112 432.196 87.192 431.62 87.192C431.129 87.192 430.692 87.1387 430.308 87.032C429.934 86.9253 429.598 86.7813 429.299 86.6C429.012 86.4187 428.756 86.216 428.532 85.992C428.318 85.768 428.126 85.5333 427.956 85.288L428.964 84.52C429.113 84.744 429.268 84.9467 429.428 85.128C429.588 85.3093 429.769 85.4693 429.972 85.608C430.185 85.736 430.425 85.8373 430.692 85.912C430.958 85.9867 431.268 86.024 431.62 86.024C432.409 86.024 433.012 85.8427 433.428 85.48C433.854 85.1173 434.068 84.6 434.068 83.928V83.8C434.068 83.1387 433.86 82.6267 433.444 82.264C433.038 81.9013 432.425 81.72 431.604 81.72H430.276V80.568H431.508Z" fill="black"/>
<rect x="360" y="41" width="96" height="79" rx="5" stroke="#14AE5C" stroke-width="2"/>
<rect x="493" y="41" width="96" height="79" rx="5" fill="#DCF3E7"/>
<path d="M514.827 77.544H514.715V87H513.499V75.832H515.403L519.211 85.192H519.323V75.832H520.539V87H518.635L514.827 77.544ZM526.613 87.192C526.037 87.192 525.514 87.0907 525.045 86.888C524.586 86.6853 524.191 86.3973 523.861 86.024C523.541 85.64 523.295 85.1867 523.125 84.664C522.954 84.1307 522.868 83.5333 522.868 82.872C522.868 82.2213 522.954 81.6293 523.125 81.096C523.295 80.5627 523.541 80.1093 523.861 79.736C524.191 79.352 524.586 79.0587 525.045 78.856C525.514 78.6533 526.037 78.552 526.613 78.552C527.189 78.552 527.706 78.6533 528.165 78.856C528.634 79.0587 529.029 79.352 529.349 79.736C529.679 80.1093 529.93 80.5627 530.101 81.096C530.271 81.6293 530.357 82.2213 530.357 82.872C530.357 83.5333 530.271 84.1307 530.101 84.664C529.93 85.1867 529.679 85.64 529.349 86.024C529.029 86.3973 528.634 86.6853 528.165 86.888C527.706 87.0907 527.189 87.192 526.613 87.192ZM526.613 86.088C527.327 86.088 527.903 85.8747 528.341 85.448C528.778 85.0213 528.997 84.36 528.997 83.464V82.28C528.997 81.384 528.778 80.7227 528.341 80.296C527.903 79.8693 527.327 79.656 526.613 79.656C525.898 79.656 525.322 79.8693 524.885 80.296C524.447 80.7227 524.229 81.384 524.229 82.28V83.464C524.229 84.36 524.447 85.0213 524.885 85.448C525.322 85.8747 525.898 86.088 526.613 86.088ZM538.206 85.656H538.142C537.609 86.68 536.761 87.192 535.598 87.192C534.585 87.192 533.79 86.8133 533.214 86.056C532.649 85.2987 532.366 84.2373 532.366 82.872C532.366 81.5067 532.649 80.4453 533.214 79.688C533.79 78.9307 534.585 78.552 535.598 78.552C536.761 78.552 537.609 79.064 538.142 80.088H538.206V75.16H539.486V87H538.206V85.656ZM536.094 86.056C536.382 86.056 536.654 86.0187 536.91 85.944C537.166 85.8693 537.39 85.7627 537.582 85.624C537.774 85.4747 537.924 85.2987 538.03 85.096C538.148 84.8827 538.206 84.6373 538.206 84.36V81.384C538.206 81.1067 538.148 80.8667 538.03 80.664C537.924 80.4507 537.774 80.2747 537.582 80.136C537.39 79.9867 537.166 79.8747 536.91 79.8C536.654 79.7253 536.382 79.688 536.094 79.688C535.348 79.688 534.766 79.9173 534.35 80.376C533.945 80.824 533.742 81.4213 533.742 82.168V83.576C533.742 84.3227 533.945 84.9253 534.35 85.384C534.766 85.832 535.348 86.056 536.094 86.056ZM545.944 87.192C545.347 87.192 544.808 87.0907 544.328 86.888C543.859 86.6853 543.453 86.3973 543.112 86.024C542.781 85.64 542.525 85.1867 542.344 84.664C542.163 84.1307 542.072 83.5387 542.072 82.888C542.072 82.2267 542.163 81.6293 542.344 81.096C542.536 80.5627 542.797 80.1093 543.128 79.736C543.459 79.352 543.853 79.0587 544.312 78.856C544.781 78.6533 545.299 78.552 545.864 78.552C546.419 78.552 546.92 78.6533 547.368 78.856C547.827 79.0587 548.216 79.3413 548.536 79.704C548.856 80.056 549.101 80.4773 549.272 80.968C549.443 81.4587 549.528 81.9973 549.528 82.584V83.192H543.416V83.576C543.416 83.9387 543.475 84.2747 543.592 84.584C543.709 84.8933 543.875 85.16 544.088 85.384C544.312 85.608 544.579 85.784 544.888 85.912C545.208 86.0293 545.56 86.088 545.944 86.088C546.499 86.088 546.979 85.96 547.384 85.704C547.789 85.448 548.099 85.096 548.312 84.648L549.256 85.288C549.011 85.8427 548.6 86.3013 548.024 86.664C547.459 87.016 546.765 87.192 545.944 87.192ZM545.864 79.608C545.512 79.608 545.187 79.672 544.888 79.8C544.589 79.928 544.328 80.104 544.104 80.328C543.891 80.552 543.72 80.8187 543.592 81.128C543.475 81.4267 543.416 81.7573 543.416 82.12V82.232H548.152V82.056C548.152 81.6933 548.093 81.3627 547.976 81.064C547.869 80.7653 547.715 80.5093 547.512 80.296C547.32 80.072 547.08 79.9013 546.792 79.784C546.515 79.6667 546.205 79.608 545.864 79.608ZM566.236 87V84.808H560.732V83.624L565.564 75.832H567.516V83.704H569.18V84.808H567.516V87H566.236ZM561.932 83.704H566.236V76.872H566.172L561.932 83.704Z" fill="black"/>
<rect x="493" y="41" width="96" height="79" rx="5" stroke="#14AE5C" stroke-width="2"/>
<rect x="606" y="41" width="115" height="79" rx="5" fill="#FFF8DF"/>
<path d="M627.909 87H626.565V75.832H630.629C631.664 75.832 632.453 76.1147 632.997 76.68C633.541 77.2453 633.813 78.0347 633.813 79.048C633.813 79.9547 633.578 80.68 633.109 81.224C632.64 81.768 631.957 82.0827 631.061 82.168L633.909 87H632.405L629.685 82.232H627.909V87ZM630.597 81.096C631.162 81.096 631.6 80.9573 631.909 80.68C632.229 80.392 632.389 79.9867 632.389 79.464V78.632C632.389 78.1093 632.229 77.7093 631.909 77.432C631.6 77.144 631.162 77 630.597 77H627.909V81.096H630.597ZM639.663 87.192C639.065 87.192 638.527 87.0907 638.047 86.888C637.577 86.6853 637.172 86.3973 636.831 86.024C636.5 85.64 636.244 85.1867 636.063 84.664C635.881 84.1307 635.791 83.5387 635.791 82.888C635.791 82.2267 635.881 81.6293 636.063 81.096C636.255 80.5627 636.516 80.1093 636.847 79.736C637.177 79.352 637.572 79.0587 638.031 78.856C638.5 78.6533 639.017 78.552 639.583 78.552C640.137 78.552 640.639 78.6533 641.087 78.856C641.545 79.0587 641.935 79.3413 642.255 79.704C642.575 80.056 642.82 80.4773 642.991 80.968C643.161 81.4587 643.247 81.9973 643.247 82.584V83.192H637.135V83.576C637.135 83.9387 637.193 84.2747 637.311 84.584C637.428 84.8933 637.593 85.16 637.807 85.384C638.031 85.608 638.297 85.784 638.607 85.912C638.927 86.0293 639.279 86.088 639.663 86.088C640.217 86.088 640.697 85.96 641.103 85.704C641.508 85.448 641.817 85.096 642.031 84.648L642.975 85.288C642.729 85.8427 642.319 86.3013 641.743 86.664C641.177 87.016 640.484 87.192 639.663 87.192ZM639.583 79.608C639.231 79.608 638.905 79.672 638.607 79.8C638.308 79.928 638.047 80.104 637.823 80.328C637.609 80.552 637.439 80.8187 637.311 81.128C637.193 81.4267 637.135 81.7573 637.135 82.12V82.232H641.871V82.056C641.871 81.6933 641.812 81.3627 641.695 81.064C641.588 80.7653 641.433 80.5093 641.231 80.296C641.039 80.072 640.799 79.9013 640.511 79.784C640.233 79.6667 639.924 79.608 639.583 79.608ZM649.401 87.192C648.803 87.192 648.27 87.0907 647.801 86.888C647.342 86.6747 646.953 86.3813 646.633 86.008C646.313 85.6347 646.067 85.1813 645.897 84.648C645.737 84.1147 645.657 83.5227 645.657 82.872C645.657 82.2213 645.742 81.6293 645.913 81.096C646.083 80.5627 646.329 80.1093 646.649 79.736C646.969 79.352 647.358 79.0587 647.817 78.856C648.275 78.6533 648.798 78.552 649.385 78.552C650.185 78.552 650.835 78.728 651.337 79.08C651.838 79.432 652.206 79.8907 652.441 80.456L651.417 81C651.267 80.5733 651.017 80.2427 650.665 80.008C650.323 79.7733 649.897 79.656 649.385 79.656C649.011 79.656 648.675 79.72 648.377 79.848C648.089 79.9653 647.843 80.136 647.641 80.36C647.438 80.584 647.283 80.8507 647.177 81.16C647.081 81.4693 647.033 81.8053 647.033 82.168V83.576C647.033 83.9387 647.081 84.2747 647.177 84.584C647.283 84.8933 647.438 85.16 647.641 85.384C647.843 85.608 648.094 85.784 648.393 85.912C648.691 86.0293 649.033 86.088 649.417 86.088C649.971 86.088 650.43 85.96 650.793 85.704C651.155 85.448 651.443 85.096 651.657 84.648L652.569 85.272C652.323 85.8267 651.939 86.2853 651.417 86.648C650.905 87.0107 650.233 87.192 649.401 87.192ZM658.85 87.192C658.253 87.192 657.714 87.0907 657.234 86.888C656.765 86.6853 656.36 86.3973 656.018 86.024C655.688 85.64 655.432 85.1867 655.25 84.664C655.069 84.1307 654.978 83.5387 654.978 82.888C654.978 82.2267 655.069 81.6293 655.25 81.096C655.442 80.5627 655.704 80.1093 656.034 79.736C656.365 79.352 656.76 79.0587 657.218 78.856C657.688 78.6533 658.205 78.552 658.77 78.552C659.325 78.552 659.826 78.6533 660.274 78.856C660.733 79.0587 661.122 79.3413 661.442 79.704C661.762 80.056 662.008 80.4773 662.178 80.968C662.349 81.4587 662.434 81.9973 662.434 82.584V83.192H656.322V83.576C656.322 83.9387 656.381 84.2747 656.498 84.584C656.616 84.8933 656.781 85.16 656.994 85.384C657.218 85.608 657.485 85.784 657.794 85.912C658.114 86.0293 658.466 86.088 658.85 86.088C659.405 86.088 659.885 85.96 660.29 85.704C660.696 85.448 661.005 85.096 661.218 84.648L662.162 85.288C661.917 85.8427 661.506 86.3013 660.93 86.664C660.365 87.016 659.672 87.192 658.85 87.192ZM658.77 79.608C658.418 79.608 658.093 79.672 657.794 79.8C657.496 79.928 657.234 80.104 657.01 80.328C656.797 80.552 656.626 80.8187 656.498 81.128C656.381 81.4267 656.322 81.7573 656.322 82.12V82.232H661.058V82.056C661.058 81.6933 661 81.3627 660.882 81.064C660.776 80.7653 660.621 80.5093 660.418 80.296C660.226 80.072 659.986 79.9013 659.698 79.784C659.421 79.6667 659.112 79.608 658.77 79.608ZM668.812 76.92C668.439 76.92 668.177 76.8453 668.028 76.696C667.879 76.536 667.804 76.3387 667.804 76.104V75.848C667.804 75.6133 667.879 75.4213 668.028 75.272C668.177 75.112 668.439 75.032 668.812 75.032C669.185 75.032 669.447 75.112 669.596 75.272C669.745 75.4213 669.82 75.6133 669.82 75.848V76.104C669.82 76.3387 669.745 76.536 669.596 76.696C669.447 76.8453 669.185 76.92 668.812 76.92ZM665.196 85.912H668.172V79.832H665.196V78.744H669.452V85.912H672.236V87H665.196V85.912ZM677.078 87L674.118 78.744H675.414L676.598 82.2L677.878 85.928H677.942L679.222 82.2L680.406 78.744H681.67L678.71 87H677.078ZM687.632 87.192C687.034 87.192 686.496 87.0907 686.016 86.888C685.546 86.6853 685.141 86.3973 684.799 86.024C684.469 85.64 684.213 85.1867 684.032 84.664C683.85 84.1307 683.76 83.5387 683.76 82.888C683.76 82.2267 683.85 81.6293 684.032 81.096C684.224 80.5627 684.485 80.1093 684.816 79.736C685.146 79.352 685.541 79.0587 686 78.856C686.469 78.6533 686.986 78.552 687.552 78.552C688.106 78.552 688.608 78.6533 689.056 78.856C689.514 79.0587 689.904 79.3413 690.224 79.704C690.544 80.056 690.789 80.4773 690.96 80.968C691.13 81.4587 691.216 81.9973 691.216 82.584V83.192H685.104V83.576C685.104 83.9387 685.162 84.2747 685.28 84.584C685.397 84.8933 685.562 85.16 685.776 85.384C686 85.608 686.266 85.784 686.576 85.912C686.896 86.0293 687.248 86.088 687.632 86.088C688.186 86.088 688.666 85.96 689.072 85.704C689.477 85.448 689.786 85.096 690 84.648L690.944 85.288C690.698 85.8427 690.288 86.3013 689.712 86.664C689.146 87.016 688.453 87.192 687.632 87.192ZM687.552 79.608C687.2 79.608 686.874 79.672 686.576 79.8C686.277 79.928 686.016 80.104 685.792 80.328C685.578 80.552 685.408 80.8187 685.28 81.128C685.162 81.4267 685.104 81.7573 685.104 82.12V82.232H689.84V82.056C689.84 81.6933 689.781 81.3627 689.664 81.064C689.557 80.7653 689.402 80.5093 689.2 80.296C689.008 80.072 688.768 79.9013 688.48 79.784C688.202 79.6667 687.893 79.608 687.552 79.608ZM693.513 85.912H695.929V79.832H693.513V78.744H697.209V80.824H697.289C697.46 80.1733 697.78 79.6667 698.249 79.304C698.729 78.9307 699.337 78.744 700.073 78.744H701.225V80.024H699.673C698.937 80.024 698.34 80.2373 697.881 80.664C697.433 81.0907 697.209 81.6507 697.209 82.344V85.912H700.409V87H693.513V85.912Z" fill="black"/>
<rect x="606" y="41" width="115" height="79" rx="5" stroke="#FFA629" stroke-width="2"/>
<rect x="473" y="21" width="268" height="119" stroke="#FFA629" stroke-width="2"/>
<rect x="1" y="1" width="760" height="159" stroke="#9747FF" stroke-width="2"/>
<path d="M177 123V162C177 175.255 187.745 186 201 186H254.318M453.318 186H514C527.255 186 538 175.255 538 162V124" stroke="#888888" stroke-width="3" stroke-miterlimit="0" stroke-linecap="round" stroke-linejoin="bevel"/>
<path d="M281.066 181.169C280.28 181.166 279.609 180.959 279.052 180.548C278.495 180.137 278.07 179.538 277.775 178.753C277.48 177.967 277.332 177.021 277.332 175.914C277.332 174.81 277.48 173.867 277.775 173.085C278.073 172.303 278.5 171.706 279.057 171.295C279.617 170.884 280.287 170.679 281.066 170.679C281.845 170.679 282.513 170.886 283.069 171.3C283.626 171.711 284.052 172.308 284.347 173.09C284.645 173.869 284.794 174.81 284.794 175.914C284.794 177.024 284.647 177.972 284.352 178.758C284.057 179.54 283.631 180.138 283.074 180.553C282.518 180.964 281.848 181.169 281.066 181.169ZM281.066 179.842C281.755 179.842 282.294 179.505 282.682 178.832C283.073 178.16 283.268 177.187 283.268 175.914C283.268 175.069 283.179 174.355 283 173.771C282.824 173.185 282.571 172.741 282.239 172.439C281.911 172.134 281.52 171.982 281.066 171.982C280.38 171.982 279.841 172.32 279.45 172.996C279.059 173.672 278.862 174.645 278.858 175.914C278.858 176.763 278.946 177.48 279.122 178.067C279.301 178.65 279.554 179.093 279.883 179.394C280.211 179.692 280.605 179.842 281.066 179.842ZM290.811 176.053V177.341H286.297V176.053H290.811ZM294.013 176.466V181H292.527V173.364H293.953V174.607H294.048C294.223 174.202 294.499 173.877 294.873 173.632C295.251 173.387 295.727 173.264 296.3 173.264C296.82 173.264 297.276 173.374 297.667 173.592C298.058 173.808 298.362 174.129 298.577 174.557C298.792 174.984 298.9 175.513 298.9 176.143V181H297.414V176.322C297.414 175.768 297.269 175.336 296.981 175.024C296.693 174.709 296.297 174.552 295.793 174.552C295.448 174.552 295.142 174.626 294.873 174.776C294.608 174.925 294.398 175.143 294.242 175.432C294.089 175.717 294.013 176.062 294.013 176.466ZM305.553 176.466V181H304.067V170.818H305.533V174.607H305.628C305.807 174.196 306.08 173.869 306.448 173.627C306.816 173.385 307.297 173.264 307.89 173.264C308.414 173.264 308.871 173.372 309.262 173.587C309.657 173.803 309.961 174.124 310.177 174.552C310.396 174.976 310.505 175.506 310.505 176.143V181H309.018V176.322C309.018 175.762 308.874 175.327 308.586 175.019C308.298 174.708 307.897 174.552 307.383 174.552C307.032 174.552 306.717 174.626 306.438 174.776C306.163 174.925 305.946 175.143 305.787 175.432C305.631 175.717 305.553 176.062 305.553 176.466ZM315.439 181.154C314.723 181.154 314.099 180.99 313.565 180.662C313.031 180.334 312.617 179.875 312.322 179.285C312.027 178.695 311.88 178.005 311.88 177.217C311.88 176.424 312.027 175.732 312.322 175.138C312.617 174.545 313.031 174.085 313.565 173.756C314.099 173.428 314.723 173.264 315.439 173.264C316.155 173.264 316.78 173.428 317.314 173.756C317.847 174.085 318.261 174.545 318.556 175.138C318.851 175.732 318.999 176.424 318.999 177.217C318.999 178.005 318.851 178.695 318.556 179.285C318.261 179.875 317.847 180.334 317.314 180.662C316.78 180.99 316.155 181.154 315.439 181.154ZM315.444 179.906C315.908 179.906 316.293 179.784 316.598 179.538C316.903 179.293 317.128 178.967 317.274 178.559C317.423 178.151 317.498 177.702 317.498 177.212C317.498 176.724 317.423 176.277 317.274 175.869C317.128 175.458 316.903 175.129 316.598 174.88C316.293 174.631 315.908 174.507 315.444 174.507C314.977 174.507 314.589 174.631 314.281 174.88C313.976 175.129 313.749 175.458 313.6 175.869C313.454 176.277 313.381 176.724 313.381 177.212C313.381 177.702 313.454 178.151 313.6 178.559C313.749 178.967 313.976 179.293 314.281 179.538C314.589 179.784 314.977 179.906 315.444 179.906ZM320.392 183.864V173.364H321.844V174.602H321.968C322.054 174.442 322.179 174.259 322.341 174.05C322.503 173.841 322.729 173.659 323.017 173.503C323.306 173.344 323.687 173.264 324.161 173.264C324.777 173.264 325.327 173.42 325.811 173.732C326.295 174.043 326.675 174.492 326.95 175.079C327.228 175.665 327.367 176.371 327.367 177.197C327.367 178.022 327.23 178.73 326.955 179.32C326.68 179.906 326.302 180.359 325.821 180.677C325.341 180.992 324.792 181.149 324.176 181.149C323.712 181.149 323.332 181.071 323.037 180.915C322.745 180.76 322.517 180.577 322.351 180.369C322.185 180.16 322.058 179.974 321.968 179.812H321.879V183.864H320.392ZM321.849 177.182C321.849 177.719 321.927 178.189 322.083 178.594C322.238 178.998 322.464 179.315 322.759 179.543C323.054 179.769 323.415 179.881 323.842 179.881C324.287 179.881 324.658 179.764 324.956 179.528C325.254 179.29 325.48 178.967 325.632 178.559C325.788 178.151 325.866 177.692 325.866 177.182C325.866 176.678 325.79 176.226 325.637 175.825C325.488 175.424 325.263 175.107 324.961 174.875C324.663 174.643 324.29 174.527 323.842 174.527C323.412 174.527 323.047 174.638 322.749 174.86C322.454 175.082 322.23 175.392 322.078 175.79C321.925 176.187 321.849 176.652 321.849 177.182ZM334.489 175.228L333.142 175.467C333.085 175.294 332.996 175.13 332.873 174.974C332.754 174.819 332.592 174.691 332.386 174.592C332.181 174.492 331.924 174.442 331.616 174.442C331.195 174.442 330.843 174.537 330.562 174.726C330.28 174.911 330.139 175.152 330.139 175.447C330.139 175.702 330.233 175.907 330.422 176.063C330.611 176.219 330.916 176.347 331.337 176.446L332.55 176.724C333.253 176.887 333.777 177.137 334.121 177.475C334.466 177.813 334.638 178.252 334.638 178.793C334.638 179.25 334.506 179.658 334.241 180.016C333.979 180.37 333.612 180.649 333.142 180.851C332.675 181.053 332.133 181.154 331.516 181.154C330.661 181.154 329.963 180.972 329.423 180.607C328.883 180.239 328.551 179.717 328.429 179.041L329.866 178.822C329.955 179.197 330.139 179.48 330.417 179.673C330.696 179.862 331.059 179.956 331.506 179.956C331.993 179.956 332.383 179.855 332.675 179.653C332.966 179.447 333.112 179.197 333.112 178.902C333.112 178.663 333.023 178.463 332.844 178.3C332.668 178.138 332.398 178.015 332.033 177.933L330.741 177.649C330.028 177.487 329.501 177.228 329.16 176.874C328.822 176.519 328.652 176.07 328.652 175.526C328.652 175.076 328.778 174.681 329.03 174.343C329.282 174.005 329.63 173.741 330.074 173.553C330.518 173.36 331.027 173.264 331.601 173.264C332.426 173.264 333.076 173.443 333.55 173.801C334.023 174.156 334.337 174.631 334.489 175.228ZM337.941 179.608L337.866 180.15C337.816 180.548 337.732 180.962 337.613 181.393C337.497 181.827 337.376 182.23 337.25 182.601C337.127 182.972 337.026 183.267 336.946 183.486H335.892C335.935 183.28 335.995 183.002 336.071 182.651C336.148 182.303 336.222 181.913 336.295 181.482C336.368 181.051 336.423 180.612 336.459 180.165L336.509 179.608H337.941ZM345.908 181.149C345.291 181.149 344.741 180.992 344.257 180.677C343.776 180.359 343.399 179.906 343.123 179.32C342.852 178.73 342.716 178.022 342.716 177.197C342.716 176.371 342.853 175.665 343.128 175.079C343.407 174.492 343.788 174.043 344.272 173.732C344.756 173.42 345.304 173.264 345.918 173.264C346.391 173.264 346.773 173.344 347.061 173.503C347.353 173.659 347.578 173.841 347.737 174.05C347.9 174.259 348.025 174.442 348.115 174.602H348.204V170.818H349.691V181H348.239V179.812H348.115C348.025 179.974 347.896 180.16 347.727 180.369C347.561 180.577 347.333 180.76 347.041 180.915C346.749 181.071 346.372 181.149 345.908 181.149ZM346.236 179.881C346.663 179.881 347.025 179.769 347.32 179.543C347.618 179.315 347.843 178.998 347.996 178.594C348.151 178.189 348.229 177.719 348.229 177.182C348.229 176.652 348.153 176.187 348.001 175.79C347.848 175.392 347.624 175.082 347.329 174.86C347.034 174.638 346.67 174.527 346.236 174.527C345.788 174.527 345.415 174.643 345.117 174.875C344.819 175.107 344.593 175.424 344.441 175.825C344.292 176.226 344.217 176.678 344.217 177.182C344.217 177.692 344.293 178.151 344.446 178.559C344.598 178.967 344.824 179.29 345.122 179.528C345.424 179.764 345.795 179.881 346.236 179.881ZM354.838 181.154C354.085 181.154 353.437 180.993 352.894 180.672C352.354 180.347 351.936 179.891 351.641 179.305C351.349 178.715 351.204 178.024 351.204 177.232C351.204 176.449 351.349 175.76 351.641 175.163C351.936 174.567 352.347 174.101 352.874 173.766C353.404 173.432 354.024 173.264 354.733 173.264C355.164 173.264 355.582 173.335 355.986 173.478C356.391 173.621 356.753 173.844 357.075 174.149C357.396 174.454 357.65 174.85 357.836 175.337C358.021 175.821 358.114 176.41 358.114 177.102V177.629H352.044V176.516H356.657C356.657 176.125 356.578 175.778 356.419 175.477C356.26 175.172 356.036 174.931 355.748 174.756C355.463 174.58 355.128 174.492 354.743 174.492C354.326 174.492 353.961 174.595 353.65 174.8C353.341 175.003 353.103 175.268 352.934 175.596C352.768 175.921 352.685 176.274 352.685 176.655V177.525C352.685 178.035 352.775 178.469 352.954 178.827C353.136 179.185 353.389 179.459 353.714 179.648C354.039 179.833 354.419 179.926 354.853 179.926C355.134 179.926 355.391 179.886 355.623 179.807C355.855 179.724 356.056 179.601 356.225 179.439C356.394 179.277 356.523 179.076 356.613 178.837L358.02 179.091C357.907 179.505 357.705 179.868 357.413 180.18C357.125 180.488 356.762 180.728 356.324 180.901C355.89 181.07 355.395 181.154 354.838 181.154ZM359.497 183.864V173.364H360.949V174.602H361.073C361.16 174.442 361.284 174.259 361.446 174.05C361.609 173.841 361.834 173.659 362.122 173.503C362.411 173.344 362.792 173.264 363.266 173.264C363.882 173.264 364.433 173.42 364.916 173.732C365.4 174.043 365.78 174.492 366.055 175.079C366.333 175.665 366.473 176.371 366.473 177.197C366.473 178.022 366.335 178.73 366.06 179.32C365.785 179.906 365.407 180.359 364.926 180.677C364.446 180.992 363.897 181.149 363.281 181.149C362.817 181.149 362.437 181.071 362.142 180.915C361.851 180.76 361.622 180.577 361.456 180.369C361.29 180.16 361.163 179.974 361.073 179.812H360.984V183.864H359.497ZM360.954 177.182C360.954 177.719 361.032 178.189 361.188 178.594C361.343 178.998 361.569 179.315 361.864 179.543C362.159 179.769 362.52 179.881 362.948 179.881C363.392 179.881 363.763 179.764 364.061 179.528C364.36 179.29 364.585 178.967 364.737 178.559C364.893 178.151 364.971 177.692 364.971 177.182C364.971 176.678 364.895 176.226 364.742 175.825C364.593 175.424 364.368 175.107 364.066 174.875C363.768 174.643 363.395 174.527 362.948 174.527C362.517 174.527 362.152 174.638 361.854 174.86C361.559 175.082 361.335 175.392 361.183 175.79C361.03 176.187 360.954 176.652 360.954 177.182ZM371.163 181.154C370.411 181.154 369.763 180.993 369.219 180.672C368.679 180.347 368.261 179.891 367.966 179.305C367.675 178.715 367.529 178.024 367.529 177.232C367.529 176.449 367.675 175.76 367.966 175.163C368.261 174.567 368.672 174.101 369.199 173.766C369.73 173.432 370.35 173.264 371.059 173.264C371.49 173.264 371.907 173.335 372.312 173.478C372.716 173.621 373.079 173.844 373.4 174.149C373.722 174.454 373.975 174.85 374.161 175.337C374.347 175.821 374.439 176.41 374.439 177.102V177.629H368.369V176.516H372.983C372.983 176.125 372.903 175.778 372.744 175.477C372.585 175.172 372.361 174.931 372.073 174.756C371.788 174.58 371.453 174.492 371.069 174.492C370.651 174.492 370.287 174.595 369.975 174.8C369.667 175.003 369.428 175.268 369.259 175.596C369.093 175.921 369.011 176.274 369.011 176.655V177.525C369.011 178.035 369.1 178.469 369.279 178.827C369.461 179.185 369.715 179.459 370.04 179.648C370.364 179.833 370.744 179.926 371.178 179.926C371.46 179.926 371.717 179.886 371.949 179.807C372.181 179.724 372.381 179.601 372.55 179.439C372.719 179.277 372.849 179.076 372.938 178.837L374.345 179.091C374.232 179.505 374.03 179.868 373.738 180.18C373.45 180.488 373.087 180.728 372.65 180.901C372.216 181.07 371.72 181.154 371.163 181.154ZM377.309 176.466V181H375.823V173.364H377.25V174.607H377.344C377.52 174.202 377.795 173.877 378.169 173.632C378.547 173.387 379.023 173.264 379.596 173.264C380.117 173.264 380.572 173.374 380.963 173.592C381.355 173.808 381.658 174.129 381.873 174.557C382.089 174.984 382.196 175.513 382.196 176.143V181H380.71V176.322C380.71 175.768 380.566 175.336 380.277 175.024C379.989 174.709 379.593 174.552 379.089 174.552C378.744 174.552 378.438 174.626 378.169 174.776C377.904 174.925 377.694 175.143 377.538 175.432C377.386 175.717 377.309 176.062 377.309 176.466ZM386.783 181.149C386.166 181.149 385.616 180.992 385.132 180.677C384.652 180.359 384.274 179.906 383.999 179.32C383.727 178.73 383.591 178.022 383.591 177.197C383.591 176.371 383.728 175.665 384.004 175.079C384.282 174.492 384.663 174.043 385.147 173.732C385.631 173.42 386.179 173.264 386.793 173.264C387.267 173.264 387.648 173.344 387.936 173.503C388.228 173.659 388.453 173.841 388.612 174.05C388.775 174.259 388.901 174.442 388.99 174.602H389.08V170.818H390.566V181H389.114V179.812H388.99C388.901 179.974 388.771 180.16 388.602 180.369C388.437 180.577 388.208 180.76 387.916 180.915C387.625 181.071 387.247 181.149 386.783 181.149ZM387.111 179.881C387.538 179.881 387.9 179.769 388.195 179.543C388.493 179.315 388.718 178.998 388.871 178.594C389.027 178.189 389.104 177.719 389.104 177.182C389.104 176.652 389.028 176.187 388.876 175.79C388.723 175.392 388.5 175.082 388.205 174.86C387.91 174.638 387.545 174.527 387.111 174.527C386.663 174.527 386.29 174.643 385.992 174.875C385.694 175.107 385.469 175.424 385.316 175.825C385.167 176.226 385.092 176.678 385.092 177.182C385.092 177.692 385.169 178.151 385.321 178.559C385.473 178.967 385.699 179.29 385.997 179.528C386.299 179.764 386.67 179.881 387.111 179.881ZM392.422 181V173.364H393.908V181H392.422ZM393.172 172.185C392.914 172.185 392.692 172.099 392.506 171.927C392.324 171.751 392.233 171.542 392.233 171.3C392.233 171.055 392.324 170.846 392.506 170.674C392.692 170.498 392.914 170.411 393.172 170.411C393.431 170.411 393.651 170.498 393.834 170.674C394.019 170.846 394.112 171.055 394.112 171.3C394.112 171.542 394.019 171.751 393.834 171.927C393.651 172.099 393.431 172.185 393.172 172.185ZM397.128 176.466V181H395.642V173.364H397.069V174.607H397.163C397.339 174.202 397.614 173.877 397.989 173.632C398.366 173.387 398.842 173.264 399.415 173.264C399.936 173.264 400.392 173.374 400.783 173.592C401.174 173.808 401.477 174.129 401.692 174.557C401.908 174.984 402.016 175.513 402.016 176.143V181H400.529V176.322C400.529 175.768 400.385 175.336 400.097 175.024C399.808 174.709 399.412 174.552 398.908 174.552C398.564 174.552 398.257 174.626 397.989 174.776C397.723 174.925 397.513 175.143 397.357 175.432C397.205 175.717 397.128 176.062 397.128 176.466ZM406.945 184.023C406.338 184.023 405.816 183.943 405.379 183.784C404.945 183.625 404.59 183.415 404.315 183.153C404.04 182.891 403.834 182.604 403.698 182.293L404.976 181.766C405.066 181.911 405.185 182.066 405.334 182.228C405.487 182.394 405.692 182.535 405.951 182.651C406.212 182.767 406.549 182.825 406.96 182.825C407.523 182.825 407.989 182.687 408.357 182.412C408.725 182.14 408.909 181.706 408.909 181.109V179.608H408.814C408.725 179.77 408.595 179.951 408.426 180.15C408.261 180.349 408.032 180.521 407.74 180.667C407.449 180.813 407.069 180.886 406.602 180.886C405.999 180.886 405.455 180.745 404.971 180.463C404.491 180.178 404.109 179.759 403.828 179.205C403.549 178.648 403.41 177.964 403.41 177.152C403.41 176.34 403.548 175.644 403.823 175.064C404.101 174.484 404.482 174.04 404.966 173.732C405.45 173.42 405.999 173.264 406.612 173.264C407.086 173.264 407.469 173.344 407.76 173.503C408.052 173.659 408.279 173.841 408.441 174.05C408.607 174.259 408.735 174.442 408.824 174.602H408.934V173.364H410.39V181.169C410.39 181.825 410.238 182.364 409.933 182.785C409.628 183.206 409.215 183.517 408.695 183.719C408.178 183.922 407.595 184.023 406.945 184.023ZM406.93 179.653C407.358 179.653 407.719 179.553 408.014 179.354C408.312 179.152 408.537 178.864 408.69 178.489C408.846 178.112 408.924 177.659 408.924 177.132C408.924 176.618 408.847 176.166 408.695 175.775C408.542 175.384 408.319 175.079 408.024 174.86C407.729 174.638 407.364 174.527 406.93 174.527C406.483 174.527 406.11 174.643 405.811 174.875C405.513 175.104 405.288 175.415 405.135 175.81C404.986 176.204 404.912 176.645 404.912 177.132C404.912 177.633 404.988 178.072 405.14 178.45C405.293 178.827 405.518 179.122 405.816 179.335C406.118 179.547 406.489 179.653 406.93 179.653ZM418.773 181.154C418.058 181.154 417.433 180.99 416.899 180.662C416.366 180.334 415.951 179.875 415.656 179.285C415.361 178.695 415.214 178.005 415.214 177.217C415.214 176.424 415.361 175.732 415.656 175.138C415.951 174.545 416.366 174.085 416.899 173.756C417.433 173.428 418.058 173.264 418.773 173.264C419.489 173.264 420.114 173.428 420.648 173.756C421.181 174.085 421.596 174.545 421.891 175.138C422.186 175.732 422.333 176.424 422.333 177.217C422.333 178.005 422.186 178.695 421.891 179.285C421.596 179.875 421.181 180.334 420.648 180.662C420.114 180.99 419.489 181.154 418.773 181.154ZM418.778 179.906C419.242 179.906 419.627 179.784 419.932 179.538C420.237 179.293 420.462 178.967 420.608 178.559C420.757 178.151 420.832 177.702 420.832 177.212C420.832 176.724 420.757 176.277 420.608 175.869C420.462 175.458 420.237 175.129 419.932 174.88C419.627 174.631 419.242 174.507 418.778 174.507C418.311 174.507 417.923 174.631 417.615 174.88C417.31 175.129 417.083 175.458 416.934 175.869C416.788 176.277 416.715 176.724 416.715 177.212C416.715 177.702 416.788 178.151 416.934 178.559C417.083 178.967 417.31 179.293 417.615 179.538C417.923 179.784 418.311 179.906 418.778 179.906ZM425.213 176.466V181H423.726V173.364H425.153V174.607H425.248C425.423 174.202 425.698 173.877 426.073 173.632C426.451 173.387 426.926 173.264 427.5 173.264C428.02 173.264 428.476 173.374 428.867 173.592C429.258 173.808 429.561 174.129 429.777 174.557C429.992 174.984 430.1 175.513 430.1 176.143V181H428.614V176.322C428.614 175.768 428.469 175.336 428.181 175.024C427.893 174.709 427.497 174.552 426.993 174.552C426.648 174.552 426.341 174.626 426.073 174.776C425.808 174.925 425.597 175.143 425.442 175.432C425.289 175.717 425.213 176.062 425.213 176.466ZM268.116 196.228L266.769 196.467C266.712 196.294 266.623 196.13 266.5 195.974C266.381 195.819 266.219 195.691 266.013 195.592C265.808 195.492 265.551 195.442 265.243 195.442C264.822 195.442 264.47 195.537 264.189 195.726C263.907 195.911 263.766 196.152 263.766 196.447C263.766 196.702 263.86 196.907 264.049 197.063C264.238 197.219 264.543 197.347 264.964 197.446L266.177 197.724C266.88 197.887 267.404 198.137 267.748 198.475C268.093 198.813 268.265 199.252 268.265 199.793C268.265 200.25 268.133 200.658 267.868 201.016C267.606 201.37 267.239 201.649 266.769 201.851C266.301 202.053 265.76 202.154 265.143 202.154C264.288 202.154 263.59 201.972 263.05 201.607C262.51 201.239 262.178 200.717 262.056 200.041L263.493 199.822C263.582 200.197 263.766 200.48 264.044 200.673C264.323 200.862 264.686 200.956 265.133 200.956C265.62 200.956 266.01 200.855 266.301 200.653C266.593 200.447 266.739 200.197 266.739 199.902C266.739 199.663 266.65 199.463 266.471 199.3C266.295 199.138 266.025 199.015 265.66 198.933L264.368 198.649C263.655 198.487 263.128 198.228 262.787 197.874C262.449 197.519 262.279 197.07 262.279 196.526C262.279 196.076 262.405 195.681 262.657 195.343C262.909 195.005 263.257 194.741 263.701 194.553C264.145 194.36 264.654 194.264 265.228 194.264C266.053 194.264 266.703 194.443 267.176 194.801C267.65 195.156 267.964 195.631 268.116 196.228ZM272.925 202.154C272.173 202.154 271.525 201.993 270.981 201.672C270.441 201.347 270.023 200.891 269.728 200.305C269.436 199.715 269.291 199.024 269.291 198.232C269.291 197.449 269.436 196.76 269.728 196.163C270.023 195.567 270.434 195.101 270.961 194.766C271.491 194.432 272.111 194.264 272.82 194.264C273.251 194.264 273.669 194.335 274.073 194.478C274.478 194.621 274.841 194.844 275.162 195.149C275.484 195.454 275.737 195.85 275.923 196.337C276.108 196.821 276.201 197.41 276.201 198.102V198.629H270.131V197.516H274.744C274.744 197.125 274.665 196.778 274.506 196.477C274.347 196.172 274.123 195.931 273.835 195.756C273.55 195.58 273.215 195.492 272.83 195.492C272.413 195.492 272.048 195.595 271.737 195.8C271.428 196.003 271.19 196.268 271.021 196.596C270.855 196.921 270.772 197.274 270.772 197.655V198.525C270.772 199.035 270.862 199.469 271.041 199.827C271.223 200.185 271.476 200.459 271.801 200.648C272.126 200.833 272.506 200.926 272.94 200.926C273.222 200.926 273.478 200.886 273.71 200.807C273.942 200.724 274.143 200.601 274.312 200.439C274.481 200.277 274.61 200.076 274.7 199.837L276.107 200.091C275.994 200.505 275.792 200.868 275.5 201.18C275.212 201.488 274.849 201.728 274.411 201.901C273.977 202.07 273.482 202.154 272.925 202.154ZM279.071 197.466V202H277.584V194.364H279.011V195.607H279.106C279.281 195.202 279.557 194.877 279.931 194.632C280.309 194.387 280.785 194.264 281.358 194.264C281.878 194.264 282.334 194.374 282.725 194.592C283.116 194.808 283.419 195.129 283.635 195.557C283.85 195.984 283.958 196.513 283.958 197.143V202H282.472V197.322C282.472 196.768 282.327 196.336 282.039 196.024C281.751 195.709 281.355 195.552 280.851 195.552C280.506 195.552 280.2 195.626 279.931 195.776C279.666 195.925 279.455 196.143 279.3 196.432C279.147 196.717 279.071 197.062 279.071 197.466ZM288.544 202.149C287.928 202.149 287.378 201.992 286.894 201.677C286.413 201.359 286.035 200.906 285.76 200.32C285.488 199.73 285.353 199.022 285.353 198.197C285.353 197.371 285.49 196.665 285.765 196.079C286.044 195.492 286.425 195.043 286.909 194.732C287.393 194.42 287.941 194.264 288.554 194.264C289.028 194.264 289.409 194.344 289.698 194.503C289.989 194.659 290.215 194.841 290.374 195.05C290.536 195.259 290.662 195.442 290.752 195.602H290.841V191.818H292.328V202H290.876V200.812H290.752C290.662 200.974 290.533 201.16 290.364 201.369C290.198 201.577 289.97 201.76 289.678 201.915C289.386 202.071 289.008 202.149 288.544 202.149ZM288.872 200.881C289.3 200.881 289.661 200.769 289.956 200.543C290.255 200.315 290.48 199.998 290.632 199.594C290.788 199.189 290.866 198.719 290.866 198.182C290.866 197.652 290.79 197.187 290.637 196.79C290.485 196.392 290.261 196.082 289.966 195.86C289.671 195.638 289.307 195.527 288.872 195.527C288.425 195.527 288.052 195.643 287.754 195.875C287.456 196.107 287.23 196.424 287.078 196.825C286.929 197.226 286.854 197.678 286.854 198.182C286.854 198.692 286.93 199.151 287.083 199.559C287.235 199.967 287.461 200.29 287.759 200.528C288.06 200.764 288.432 200.881 288.872 200.881ZM297.475 202.154C296.722 202.154 296.074 201.993 295.531 201.672C294.99 201.347 294.573 200.891 294.278 200.305C293.986 199.715 293.84 199.024 293.84 198.232C293.84 197.449 293.986 196.76 294.278 196.163C294.573 195.567 294.984 195.101 295.511 194.766C296.041 194.432 296.661 194.264 297.37 194.264C297.801 194.264 298.219 194.335 298.623 194.478C299.027 194.621 299.39 194.844 299.712 195.149C300.033 195.454 300.287 195.85 300.472 196.337C300.658 196.821 300.751 197.41 300.751 198.102V198.629H294.68V197.516H299.294C299.294 197.125 299.215 196.778 299.055 196.477C298.896 196.172 298.673 195.931 298.384 195.756C298.099 195.58 297.765 195.492 297.38 195.492C296.962 195.492 296.598 195.595 296.286 195.8C295.978 196.003 295.739 196.268 295.57 196.596C295.405 196.921 295.322 197.274 295.322 197.655V198.525C295.322 199.035 295.411 199.469 295.59 199.827C295.773 200.185 296.026 200.459 296.351 200.648C296.676 200.833 297.055 200.926 297.489 200.926C297.771 200.926 298.028 200.886 298.26 200.807C298.492 200.724 298.693 200.601 298.862 200.439C299.031 200.277 299.16 200.076 299.249 199.837L300.656 200.091C300.544 200.505 300.341 200.868 300.05 201.18C299.761 201.488 299.399 201.728 298.961 201.901C298.527 202.07 298.031 202.154 297.475 202.154ZM302.134 202V194.364H303.571V195.577H303.65C303.79 195.166 304.035 194.843 304.386 194.607C304.741 194.369 305.142 194.249 305.589 194.249C305.682 194.249 305.792 194.253 305.918 194.259C306.047 194.266 306.148 194.274 306.221 194.284V195.706C306.161 195.689 306.055 195.671 305.903 195.651C305.75 195.628 305.598 195.616 305.445 195.616C305.094 195.616 304.781 195.691 304.506 195.84C304.234 195.986 304.018 196.19 303.859 196.452C303.7 196.71 303.621 197.005 303.621 197.337V202H302.134ZM308.751 191.818V192.773C308.751 193.054 308.698 193.351 308.592 193.663C308.489 193.971 308.344 194.268 308.155 194.553C307.966 194.838 307.744 195.083 307.489 195.288L306.753 194.761C306.948 194.476 307.117 194.173 307.26 193.852C307.406 193.53 307.479 193.175 307.479 192.788V191.818H308.751ZM314.68 196.228L313.333 196.467C313.276 196.294 313.187 196.13 313.064 195.974C312.945 195.819 312.782 195.691 312.577 195.592C312.371 195.492 312.115 195.442 311.806 195.442C311.385 195.442 311.034 195.537 310.752 195.726C310.471 195.911 310.33 196.152 310.33 196.447C310.33 196.702 310.424 196.907 310.613 197.063C310.802 197.219 311.107 197.347 311.528 197.446L312.741 197.724C313.444 197.887 313.967 198.137 314.312 198.475C314.657 198.813 314.829 199.252 314.829 199.793C314.829 200.25 314.696 200.658 314.431 201.016C314.169 201.37 313.803 201.649 313.333 201.851C312.865 202.053 312.323 202.154 311.707 202.154C310.852 202.154 310.154 201.972 309.614 201.607C309.074 201.239 308.742 200.717 308.62 200.041L310.056 199.822C310.146 200.197 310.33 200.48 310.608 200.673C310.887 200.862 311.25 200.956 311.697 200.956C312.184 200.956 312.574 200.855 312.865 200.653C313.157 200.447 313.303 200.197 313.303 199.902C313.303 199.663 313.213 199.463 313.034 199.3C312.859 199.138 312.589 199.015 312.224 198.933L310.931 198.649C310.219 198.487 309.692 198.228 309.35 197.874C309.012 197.519 308.843 197.07 308.843 196.526C308.843 196.076 308.969 195.681 309.221 195.343C309.473 195.005 309.821 194.741 310.265 194.553C310.709 194.36 311.218 194.264 311.791 194.264C312.617 194.264 313.266 194.443 313.74 194.801C314.214 195.156 314.527 195.631 314.68 196.228ZM322.495 202.149C321.879 202.149 321.329 201.992 320.845 201.677C320.364 201.359 319.986 200.906 319.711 200.32C319.439 199.73 319.303 199.022 319.303 198.197C319.303 197.371 319.441 196.665 319.716 196.079C319.994 195.492 320.376 195.043 320.86 194.732C321.343 194.42 321.892 194.264 322.505 194.264C322.979 194.264 323.36 194.344 323.649 194.503C323.94 194.659 324.166 194.841 324.325 195.05C324.487 195.259 324.613 195.442 324.703 195.602H324.792V191.818H326.279V202H324.827V200.812H324.703C324.613 200.974 324.484 201.16 324.315 201.369C324.149 201.577 323.92 201.76 323.629 201.915C323.337 202.071 322.959 202.149 322.495 202.149ZM322.823 200.881C323.251 200.881 323.612 200.769 323.907 200.543C324.205 200.315 324.431 199.998 324.583 199.594C324.739 199.189 324.817 198.719 324.817 198.182C324.817 197.652 324.741 197.187 324.588 196.79C324.436 196.392 324.212 196.082 323.917 195.86C323.622 195.638 323.258 195.527 322.823 195.527C322.376 195.527 322.003 195.643 321.705 195.875C321.406 196.107 321.181 196.424 321.029 196.825C320.879 197.226 320.805 197.678 320.805 198.182C320.805 198.692 320.881 199.151 321.034 199.559C321.186 199.967 321.411 200.29 321.71 200.528C322.011 200.764 322.383 200.881 322.823 200.881ZM328.134 202V194.364H329.621V202H328.134ZM328.885 193.185C328.626 193.185 328.404 193.099 328.219 192.927C328.036 192.751 327.945 192.542 327.945 192.3C327.945 192.055 328.036 191.846 328.219 191.674C328.404 191.498 328.626 191.411 328.885 191.411C329.143 191.411 329.364 191.498 329.546 191.674C329.732 191.846 329.825 192.055 329.825 192.3C329.825 192.542 329.732 192.751 329.546 192.927C329.364 193.099 329.143 193.185 328.885 193.185ZM337.077 196.228L335.73 196.467C335.673 196.294 335.584 196.13 335.461 195.974C335.342 195.819 335.179 195.691 334.974 195.592C334.768 195.492 334.511 195.442 334.203 195.442C333.782 195.442 333.431 195.537 333.149 195.726C332.868 195.911 332.727 196.152 332.727 196.447C332.727 196.702 332.821 196.907 333.01 197.063C333.199 197.219 333.504 197.347 333.925 197.446L335.138 197.724C335.841 197.887 336.364 198.137 336.709 198.475C337.054 198.813 337.226 199.252 337.226 199.793C337.226 200.25 337.093 200.658 336.828 201.016C336.566 201.37 336.2 201.649 335.73 201.851C335.262 202.053 334.72 202.154 334.104 202.154C333.249 202.154 332.551 201.972 332.011 201.607C331.471 201.239 331.139 200.717 331.016 200.041L332.453 199.822C332.543 200.197 332.727 200.48 333.005 200.673C333.284 200.862 333.646 200.956 334.094 200.956C334.581 200.956 334.971 200.855 335.262 200.653C335.554 200.447 335.7 200.197 335.7 199.902C335.7 199.663 335.61 199.463 335.431 199.3C335.256 199.138 334.985 199.015 334.621 198.933L333.328 198.649C332.616 198.487 332.089 198.228 331.747 197.874C331.409 197.519 331.24 197.07 331.24 196.526C331.24 196.076 331.366 195.681 331.618 195.343C331.87 195.005 332.218 194.741 332.662 194.553C333.106 194.36 333.615 194.264 334.188 194.264C335.014 194.264 335.663 194.443 336.137 194.801C336.611 195.156 336.924 195.631 337.077 196.228ZM342.159 194.364V195.557H337.988V194.364H342.159ZM339.106 192.534H340.593V199.758C340.593 200.046 340.636 200.263 340.722 200.409C340.808 200.552 340.919 200.649 341.055 200.702C341.195 200.752 341.345 200.777 341.508 200.777C341.627 200.777 341.731 200.769 341.821 200.752C341.91 200.736 341.98 200.722 342.03 200.712L342.298 201.94C342.212 201.973 342.089 202.007 341.93 202.04C341.771 202.076 341.572 202.096 341.334 202.099C340.943 202.106 340.578 202.036 340.24 201.891C339.902 201.745 339.628 201.519 339.42 201.214C339.211 200.91 339.106 200.527 339.106 200.066V192.534ZM345.76 202.169C345.276 202.169 344.838 202.08 344.447 201.901C344.056 201.718 343.746 201.455 343.517 201.11C343.292 200.765 343.179 200.343 343.179 199.842C343.179 199.411 343.262 199.057 343.428 198.778C343.594 198.5 343.817 198.28 344.099 198.117C344.381 197.955 344.696 197.832 345.044 197.749C345.392 197.666 345.746 197.603 346.108 197.56C346.565 197.507 346.936 197.464 347.221 197.431C347.506 197.395 347.714 197.337 347.843 197.257C347.972 197.178 348.037 197.048 348.037 196.869V196.835C348.037 196.4 347.914 196.064 347.669 195.825C347.427 195.587 347.066 195.467 346.585 195.467C346.084 195.467 345.69 195.578 345.402 195.8C345.117 196.019 344.919 196.263 344.81 196.531L343.413 196.213C343.579 195.749 343.821 195.375 344.139 195.089C344.46 194.801 344.83 194.592 345.248 194.463C345.665 194.33 346.104 194.264 346.565 194.264C346.87 194.264 347.193 194.301 347.535 194.374C347.879 194.443 348.201 194.572 348.499 194.761C348.801 194.95 349.048 195.22 349.24 195.572C349.432 195.92 349.528 196.372 349.528 196.929V202H348.076V200.956H348.017C347.921 201.148 347.776 201.337 347.584 201.523C347.392 201.708 347.145 201.862 346.843 201.985C346.542 202.108 346.181 202.169 345.76 202.169ZM346.083 200.976C346.494 200.976 346.845 200.895 347.137 200.732C347.432 200.57 347.656 200.358 347.808 200.096C347.964 199.831 348.042 199.547 348.042 199.246V198.261C347.989 198.314 347.886 198.364 347.733 198.411C347.584 198.454 347.414 198.492 347.221 198.525C347.029 198.555 346.842 198.583 346.66 198.609C346.477 198.633 346.325 198.652 346.202 198.669C345.914 198.705 345.65 198.767 345.412 198.853C345.176 198.939 344.987 199.063 344.845 199.226C344.706 199.385 344.636 199.597 344.636 199.862C344.636 200.23 344.772 200.509 345.044 200.697C345.316 200.883 345.662 200.976 346.083 200.976ZM352.729 197.466V202H351.242V194.364H352.669V195.607H352.763C352.939 195.202 353.214 194.877 353.589 194.632C353.967 194.387 354.442 194.264 355.016 194.264C355.536 194.264 355.992 194.374 356.383 194.592C356.774 194.808 357.077 195.129 357.293 195.557C357.508 195.984 357.616 196.513 357.616 197.143V202H356.129V197.322C356.129 196.768 355.985 196.336 355.697 196.024C355.408 195.709 355.012 195.552 354.508 195.552C354.164 195.552 353.857 195.626 353.589 195.776C353.324 195.925 353.113 196.143 352.957 196.432C352.805 196.717 352.729 197.062 352.729 197.466ZM362.56 202.154C361.821 202.154 361.184 201.987 360.651 201.652C360.121 201.314 359.713 200.848 359.428 200.255C359.143 199.662 359 198.982 359 198.217C359 197.441 359.146 196.757 359.438 196.163C359.729 195.567 360.14 195.101 360.671 194.766C361.201 194.432 361.826 194.264 362.545 194.264C363.125 194.264 363.642 194.372 364.096 194.587C364.55 194.799 364.916 195.098 365.195 195.482C365.477 195.867 365.644 196.316 365.697 196.83H364.25C364.171 196.472 363.988 196.163 363.703 195.905C363.422 195.646 363.044 195.517 362.57 195.517C362.156 195.517 361.793 195.626 361.481 195.845C361.173 196.061 360.933 196.369 360.76 196.77C360.588 197.168 360.502 197.638 360.502 198.182C360.502 198.739 360.586 199.219 360.755 199.624C360.924 200.028 361.163 200.341 361.471 200.563C361.783 200.785 362.149 200.896 362.57 200.896C362.852 200.896 363.107 200.845 363.335 200.742C363.567 200.636 363.761 200.485 363.917 200.29C364.076 200.094 364.187 199.859 364.25 199.584H365.697C365.644 200.078 365.483 200.518 365.215 200.906C364.946 201.294 364.587 201.599 364.136 201.821C363.688 202.043 363.163 202.154 362.56 202.154ZM370.312 202.154C369.559 202.154 368.911 201.993 368.368 201.672C367.828 201.347 367.41 200.891 367.115 200.305C366.823 199.715 366.678 199.024 366.678 198.232C366.678 197.449 366.823 196.76 367.115 196.163C367.41 195.567 367.821 195.101 368.348 194.766C368.878 194.432 369.498 194.264 370.207 194.264C370.638 194.264 371.056 194.335 371.46 194.478C371.865 194.621 372.228 194.844 372.549 195.149C372.871 195.454 373.124 195.85 373.31 196.337C373.495 196.821 373.588 197.41 373.588 198.102V198.629H367.518V197.516H372.131C372.131 197.125 372.052 196.778 371.893 196.477C371.734 196.172 371.51 195.931 371.222 195.756C370.937 195.58 370.602 195.492 370.217 195.492C369.8 195.492 369.435 195.595 369.124 195.8C368.815 196.003 368.577 196.268 368.408 196.596C368.242 196.921 368.159 197.274 368.159 197.655V198.525C368.159 199.035 368.249 199.469 368.428 199.827C368.61 200.185 368.863 200.459 369.188 200.648C369.513 200.833 369.893 200.926 370.327 200.926C370.608 200.926 370.865 200.886 371.097 200.807C371.329 200.724 371.53 200.601 371.699 200.439C371.868 200.277 371.997 200.076 372.087 199.837L373.494 200.091C373.381 200.505 373.179 200.868 372.887 201.18C372.599 201.488 372.236 201.728 371.798 201.901C371.364 202.07 370.869 202.154 370.312 202.154ZM381.975 194.364V195.557H377.804V194.364H381.975ZM378.923 192.534H380.409V199.758C380.409 200.046 380.452 200.263 380.538 200.409C380.625 200.552 380.736 200.649 380.871 200.702C381.011 200.752 381.161 200.777 381.324 200.777C381.443 200.777 381.548 200.769 381.637 200.752C381.727 200.736 381.796 200.722 381.846 200.712L382.114 201.94C382.028 201.973 381.906 202.007 381.746 202.04C381.587 202.076 381.388 202.096 381.15 202.099C380.759 202.106 380.394 202.036 380.056 201.891C379.718 201.745 379.445 201.519 379.236 201.214C379.027 200.91 378.923 200.527 378.923 200.066V192.534ZM386.488 202.154C385.772 202.154 385.147 201.99 384.614 201.662C384.08 201.334 383.666 200.875 383.371 200.285C383.076 199.695 382.928 199.005 382.928 198.217C382.928 197.424 383.076 196.732 383.371 196.138C383.666 195.545 384.08 195.085 384.614 194.756C385.147 194.428 385.772 194.264 386.488 194.264C387.204 194.264 387.829 194.428 388.362 194.756C388.896 195.085 389.31 195.545 389.605 196.138C389.9 196.732 390.048 197.424 390.048 198.217C390.048 199.005 389.9 199.695 389.605 200.285C389.31 200.875 388.896 201.334 388.362 201.662C387.829 201.99 387.204 202.154 386.488 202.154ZM386.493 200.906C386.957 200.906 387.342 200.784 387.646 200.538C387.951 200.293 388.177 199.967 388.323 199.559C388.472 199.151 388.546 198.702 388.546 198.212C388.546 197.724 388.472 197.277 388.323 196.869C388.177 196.458 387.951 196.129 387.646 195.88C387.342 195.631 386.957 195.507 386.493 195.507C386.026 195.507 385.638 195.631 385.33 195.88C385.025 196.129 384.798 196.458 384.649 196.869C384.503 197.277 384.43 197.724 384.43 198.212C384.43 198.702 384.503 199.151 384.649 199.559C384.798 199.967 385.025 200.293 385.33 200.538C385.638 200.784 386.026 200.906 386.493 200.906ZM394.88 202V194.364H396.317V195.577H396.396C396.536 195.166 396.781 194.843 397.132 194.607C397.487 194.369 397.888 194.249 398.335 194.249C398.428 194.249 398.538 194.253 398.663 194.259C398.793 194.266 398.894 194.274 398.967 194.284V195.706C398.907 195.689 398.801 195.671 398.649 195.651C398.496 195.628 398.344 195.616 398.191 195.616C397.84 195.616 397.527 195.691 397.252 195.84C396.98 195.986 396.764 196.19 396.605 196.452C396.446 196.71 396.367 197.005 396.367 197.337V202H394.88ZM403.005 202.154C402.253 202.154 401.605 201.993 401.061 201.672C400.521 201.347 400.103 200.891 399.808 200.305C399.516 199.715 399.371 199.024 399.371 198.232C399.371 197.449 399.516 196.76 399.808 196.163C400.103 195.567 400.514 195.101 401.041 194.766C401.571 194.432 402.191 194.264 402.9 194.264C403.331 194.264 403.749 194.335 404.153 194.478C404.558 194.621 404.921 194.844 405.242 195.149C405.564 195.454 405.817 195.85 406.003 196.337C406.188 196.821 406.281 197.41 406.281 198.102V198.629H400.211V197.516H404.824C404.824 197.125 404.745 196.778 404.586 196.477C404.427 196.172 404.203 195.931 403.915 195.756C403.63 195.58 403.295 195.492 402.91 195.492C402.493 195.492 402.128 195.595 401.817 195.8C401.508 196.003 401.27 196.268 401.101 196.596C400.935 196.921 400.852 197.274 400.852 197.655V198.525C400.852 199.035 400.942 199.469 401.121 199.827C401.303 200.185 401.556 200.459 401.881 200.648C402.206 200.833 402.586 200.926 403.02 200.926C403.302 200.926 403.558 200.886 403.79 200.807C404.022 200.724 404.223 200.601 404.392 200.439C404.561 200.277 404.69 200.076 404.78 199.837L406.187 200.091C406.074 200.505 405.872 200.868 405.58 201.18C405.292 201.488 404.929 201.728 404.491 201.901C404.057 202.07 403.562 202.154 403.005 202.154ZM410.881 202.154C410.142 202.154 409.506 201.987 408.972 201.652C408.442 201.314 408.034 200.848 407.749 200.255C407.464 199.662 407.321 198.982 407.321 198.217C407.321 197.441 407.467 196.757 407.759 196.163C408.051 195.567 408.462 195.101 408.992 194.766C409.522 194.432 410.147 194.264 410.866 194.264C411.446 194.264 411.963 194.372 412.417 194.587C412.871 194.799 413.238 195.098 413.516 195.482C413.798 195.867 413.965 196.316 414.018 196.83H412.571C412.492 196.472 412.31 196.163 412.025 195.905C411.743 195.646 411.365 195.517 410.891 195.517C410.477 195.517 410.114 195.626 409.802 195.845C409.494 196.061 409.254 196.369 409.081 196.77C408.909 197.168 408.823 197.638 408.823 198.182C408.823 198.739 408.907 199.219 409.076 199.624C409.245 200.028 409.484 200.341 409.792 200.563C410.104 200.785 410.47 200.896 410.891 200.896C411.173 200.896 411.428 200.845 411.657 200.742C411.889 200.636 412.083 200.485 412.238 200.29C412.397 200.094 412.508 199.859 412.571 199.584H414.018C413.965 200.078 413.804 200.518 413.536 200.906C413.267 201.294 412.908 201.599 412.457 201.821C412.01 202.043 411.484 202.154 410.881 202.154ZM418.633 202.154C417.881 202.154 417.233 201.993 416.689 201.672C416.149 201.347 415.731 200.891 415.436 200.305C415.145 199.715 414.999 199.024 414.999 198.232C414.999 197.449 415.145 196.76 415.436 196.163C415.731 195.567 416.142 195.101 416.669 194.766C417.2 194.432 417.819 194.264 418.529 194.264C418.96 194.264 419.377 194.335 419.781 194.478C420.186 194.621 420.549 194.844 420.87 195.149C421.192 195.454 421.445 195.85 421.631 196.337C421.817 196.821 421.909 197.41 421.909 198.102V198.629H415.839V197.516H420.453C420.453 197.125 420.373 196.778 420.214 196.477C420.055 196.172 419.831 195.931 419.543 195.756C419.258 195.58 418.923 195.492 418.539 195.492C418.121 195.492 417.756 195.595 417.445 195.8C417.137 196.003 416.898 196.268 416.729 196.596C416.563 196.921 416.48 197.274 416.48 197.655V198.525C416.48 199.035 416.57 199.469 416.749 199.827C416.931 200.185 417.185 200.459 417.509 200.648C417.834 200.833 418.214 200.926 418.648 200.926C418.93 200.926 419.187 200.886 419.419 200.807C419.651 200.724 419.851 200.601 420.02 200.439C420.189 200.277 420.318 200.076 420.408 199.837L421.815 200.091C421.702 200.505 421.5 200.868 421.208 201.18C420.92 201.488 420.557 201.728 420.12 201.901C419.685 202.07 419.19 202.154 418.633 202.154ZM423.293 202V194.364H424.779V202H423.293ZM424.043 193.185C423.785 193.185 423.563 193.099 423.377 192.927C423.195 192.751 423.104 192.542 423.104 192.3C423.104 192.055 423.195 191.846 423.377 191.674C423.563 191.498 423.785 191.411 424.043 191.411C424.302 191.411 424.522 191.498 424.705 191.674C424.89 191.846 424.983 192.055 424.983 192.3C424.983 192.542 424.89 192.751 424.705 192.927C424.522 193.099 424.302 193.185 424.043 193.185ZM433.046 194.364L430.276 202H428.686L425.911 194.364H427.507L429.441 200.24H429.521L431.45 194.364H433.046ZM437.208 202.154C436.456 202.154 435.808 201.993 435.264 201.672C434.724 201.347 434.306 200.891 434.011 200.305C433.72 199.715 433.574 199.024 433.574 198.232C433.574 197.449 433.72 196.76 434.011 196.163C434.306 195.567 434.717 195.101 435.244 194.766C435.775 194.432 436.394 194.264 437.104 194.264C437.535 194.264 437.952 194.335 438.357 194.478C438.761 194.621 439.124 194.844 439.445 195.149C439.767 195.454 440.02 195.85 440.206 196.337C440.392 196.821 440.484 197.41 440.484 198.102V198.629H434.414V197.516H439.028C439.028 197.125 438.948 196.778 438.789 196.477C438.63 196.172 438.406 195.931 438.118 195.756C437.833 195.58 437.498 195.492 437.114 195.492C436.696 195.492 436.331 195.595 436.02 195.8C435.712 196.003 435.473 196.268 435.304 196.596C435.138 196.921 435.055 197.274 435.055 197.655V198.525C435.055 199.035 435.145 199.469 435.324 199.827C435.506 200.185 435.76 200.459 436.085 200.648C436.409 200.833 436.789 200.926 437.223 200.926C437.505 200.926 437.762 200.886 437.994 200.807C438.226 200.724 438.426 200.601 438.595 200.439C438.764 200.277 438.893 200.076 438.983 199.837L440.39 200.091C440.277 200.505 440.075 200.868 439.783 201.18C439.495 201.488 439.132 201.728 438.695 201.901C438.26 202.07 437.765 202.154 437.208 202.154ZM441.868 202V194.364H443.304V195.577H443.384C443.523 195.166 443.769 194.843 444.12 194.607C444.474 194.369 444.876 194.249 445.323 194.249C445.416 194.249 445.525 194.253 445.651 194.259C445.78 194.266 445.881 194.274 445.954 194.284V195.706C445.895 195.689 445.789 195.671 445.636 195.651C445.484 195.628 445.331 195.616 445.179 195.616C444.827 195.616 444.514 195.691 444.239 195.84C443.967 195.986 443.752 196.19 443.593 196.452C443.434 196.71 443.354 197.005 443.354 197.337V202H441.868Z" fill="#888888"/>
</svg>
