<svg width="579" height="137" viewBox="0 0 579 137" fill="none" xmlns="http://www.w3.org/2000/svg">
<rect x="1" y="1" width="195" height="36" fill="white"/>
<path d="M11.6174 24L10.8474 14.228H11.8974L12.3034 19.828L12.5134 22.782H12.6254L13.9134 16.776H15.2294L16.5174 22.782H16.6294L16.8394 19.828L17.2454 14.228H18.2674L17.4974 24H15.8034L14.6134 18.162H14.5014L13.3114 24H11.6174ZM20.124 13.64H21.244V17.952H21.3C21.3746 17.7747 21.468 17.6067 21.58 17.448C21.692 17.28 21.8273 17.1353 21.986 17.014C22.154 16.8927 22.35 16.7947 22.574 16.72C22.798 16.6453 23.0593 16.608 23.358 16.608C24.114 16.608 24.7206 16.8507 25.178 17.336C25.6353 17.812 25.864 18.4887 25.864 19.366V24H24.744V19.562C24.744 18.8993 24.5993 18.4093 24.31 18.092C24.0206 17.7653 23.596 17.602 23.036 17.602C22.812 17.602 22.5926 17.63 22.378 17.686C22.1633 17.742 21.972 17.826 21.804 17.938C21.636 18.05 21.5006 18.1947 21.398 18.372C21.2953 18.5493 21.244 18.7547 21.244 18.988V24H20.124V13.64ZM34.0765 24C33.6378 24 33.3252 23.888 33.1385 23.664C32.9518 23.44 32.8352 23.16 32.7885 22.824H32.7185C32.5598 23.244 32.3032 23.5753 31.9485 23.818C31.6032 24.0513 31.1365 24.168 30.5485 24.168C29.7925 24.168 29.1905 23.972 28.7425 23.58C28.2945 23.188 28.0705 22.6513 28.0705 21.97C28.0705 21.298 28.3132 20.78 28.7985 20.416C29.2932 20.052 30.0865 19.87 31.1785 19.87H32.7185V19.156C32.7185 18.624 32.5692 18.2273 32.2705 17.966C31.9718 17.6953 31.5472 17.56 30.9965 17.56C30.5112 17.56 30.1145 17.658 29.8065 17.854C29.4985 18.0407 29.2512 18.2973 29.0645 18.624L28.3085 18.064C28.4018 17.8773 28.5278 17.6953 28.6865 17.518C28.8452 17.3407 29.0412 17.1867 29.2745 17.056C29.5078 16.916 29.7738 16.8087 30.0725 16.734C30.3712 16.65 30.7025 16.608 31.0665 16.608C31.9158 16.608 32.5878 16.8227 33.0825 17.252C33.5865 17.6813 33.8385 18.2787 33.8385 19.044V23.02H34.8465V24H34.0765ZM30.7445 23.23C31.0338 23.23 31.2952 23.1973 31.5285 23.132C31.7712 23.0573 31.9812 22.964 32.1585 22.852C32.3358 22.7307 32.4712 22.5907 32.5645 22.432C32.6672 22.264 32.7185 22.0867 32.7185 21.9V20.71H31.1785C30.5065 20.71 30.0165 20.8033 29.7085 20.99C29.4005 21.1767 29.2465 21.4473 29.2465 21.802V22.096C29.2465 22.4693 29.3772 22.754 29.6385 22.95C29.9092 23.1367 30.2778 23.23 30.7445 23.23ZM40.091 24C39.5403 24 39.1343 23.846 38.873 23.538C38.621 23.23 38.495 22.8333 38.495 22.348V17.728H36.087V16.776H37.879C38.1217 16.776 38.2897 16.7293 38.383 16.636C38.4857 16.5333 38.537 16.3607 38.537 16.118V14.228H39.615V16.776H42.905V17.728H39.615V23.048H42.905V24H40.091ZM56.8801 24C56.3294 24 55.9234 23.846 55.6621 23.538C55.4101 23.23 55.2841 22.8333 55.2841 22.348V17.728H52.8761V16.776H54.6681C54.9107 16.776 55.0787 16.7293 55.1721 16.636C55.2747 16.5333 55.3261 16.3607 55.3261 16.118V14.228H56.4041V16.776H59.6941V17.728H56.4041V23.048H59.6941V24H56.8801ZM62.0966 13.64H63.2166V17.952H63.2726C63.3473 17.7747 63.4406 17.6067 63.5526 17.448C63.6646 17.28 63.7999 17.1353 63.9586 17.014C64.1266 16.8927 64.3226 16.7947 64.5466 16.72C64.7706 16.6453 65.0319 16.608 65.3306 16.608C66.0866 16.608 66.6933 16.8507 67.1506 17.336C67.6079 17.812 67.8366 18.4887 67.8366 19.366V24H66.7166V19.562C66.7166 18.8993 66.5719 18.4093 66.2826 18.092C65.9933 17.7653 65.5686 17.602 65.0086 17.602C64.7846 17.602 64.5653 17.63 64.3506 17.686C64.1359 17.742 63.9446 17.826 63.7766 17.938C63.6086 18.05 63.4733 18.1947 63.3706 18.372C63.2679 18.5493 63.2166 18.7547 63.2166 18.988V24H62.0966V13.64ZM73.4451 24.168C72.9225 24.168 72.4511 24.0793 72.0311 23.902C71.6205 23.7247 71.2658 23.4727 70.9671 23.146C70.6778 22.81 70.4538 22.4133 70.2951 21.956C70.1365 21.4893 70.0571 20.9713 70.0571 20.402C70.0571 19.8233 70.1365 19.3007 70.2951 18.834C70.4631 18.3673 70.6918 17.9707 70.9811 17.644C71.2705 17.308 71.6158 17.0513 72.0171 16.874C72.4278 16.6967 72.8805 16.608 73.3751 16.608C73.8605 16.608 74.2991 16.6967 74.6911 16.874C75.0925 17.0513 75.4331 17.2987 75.7131 17.616C75.9931 17.924 76.2078 18.2927 76.3571 18.722C76.5065 19.1513 76.5811 19.6227 76.5811 20.136V20.668H71.2331V21.004C71.2331 21.3213 71.2845 21.6153 71.3871 21.886C71.4898 22.1567 71.6345 22.39 71.8211 22.586C72.0171 22.782 72.2505 22.936 72.5211 23.048C72.8011 23.1507 73.1091 23.202 73.4451 23.202C73.9305 23.202 74.3505 23.09 74.7051 22.866C75.0598 22.642 75.3305 22.334 75.5171 21.942L76.3431 22.502C76.1285 22.9873 75.7691 23.3887 75.2651 23.706C74.7705 24.014 74.1638 24.168 73.4451 24.168ZM73.3751 17.532C73.0671 17.532 72.7825 17.588 72.5211 17.7C72.2598 17.812 72.0311 17.966 71.8351 18.162C71.6485 18.358 71.4991 18.5913 71.3871 18.862C71.2845 19.1233 71.2331 19.4127 71.2331 19.73V19.828H75.3771V19.674C75.3771 19.3567 75.3258 19.0673 75.2231 18.806C75.1298 18.5447 74.9945 18.3207 74.8171 18.134C74.6491 17.938 74.4391 17.7887 74.1871 17.686C73.9445 17.5833 73.6738 17.532 73.3751 17.532ZM90.1922 24.168C89.4362 24.168 88.7829 24.042 88.2322 23.79C87.6909 23.5287 87.2289 23.1833 86.8462 22.754L87.6022 22.096C87.9475 22.46 88.3255 22.74 88.7362 22.936C89.1469 23.132 89.6415 23.23 90.2202 23.23C90.7802 23.23 91.2375 23.132 91.5922 22.936C91.9562 22.7307 92.1382 22.4133 92.1382 21.984C92.1382 21.7973 92.1009 21.6433 92.0262 21.522C91.9609 21.3913 91.8675 21.2887 91.7462 21.214C91.6249 21.1393 91.4895 21.0833 91.3402 21.046C91.1909 20.9993 91.0322 20.962 90.8642 20.934L89.7302 20.766C89.4782 20.7287 89.2029 20.6773 88.9042 20.612C88.6149 20.5467 88.3489 20.444 88.1062 20.304C87.8635 20.1547 87.6582 19.9587 87.4902 19.716C87.3315 19.4733 87.2522 19.156 87.2522 18.764C87.2522 18.4 87.3222 18.0873 87.4622 17.826C87.6115 17.5553 87.8169 17.3313 88.0782 17.154C88.3395 16.9673 88.6475 16.832 89.0022 16.748C89.3569 16.6547 89.7442 16.608 90.1642 16.608C90.8175 16.608 91.3822 16.7107 91.8582 16.916C92.3435 17.1213 92.7589 17.406 93.1042 17.77L92.3762 18.456C92.2922 18.3533 92.1849 18.2507 92.0542 18.148C91.9329 18.036 91.7789 17.938 91.5922 17.854C91.4149 17.7607 91.2049 17.686 90.9622 17.63C90.7195 17.574 90.4395 17.546 90.1222 17.546C89.5529 17.546 89.1142 17.644 88.8062 17.84C88.5075 18.036 88.3582 18.3207 88.3582 18.694C88.3582 18.8807 88.3909 19.0393 88.4562 19.17C88.5309 19.2913 88.6289 19.3893 88.7502 19.464C88.8715 19.5387 89.0069 19.5993 89.1562 19.646C89.3149 19.6833 89.4735 19.716 89.6322 19.744L90.7662 19.912C91.0275 19.9493 91.3029 20.0007 91.5922 20.066C91.8815 20.1313 92.1475 20.2387 92.3902 20.388C92.6329 20.528 92.8335 20.7193 92.9922 20.962C93.1602 21.2047 93.2442 21.522 93.2442 21.914C93.2442 22.6327 92.9642 23.188 92.4042 23.58C91.8535 23.972 91.1162 24.168 90.1922 24.168ZM98.6287 24.168C98.1061 24.168 97.6347 24.0793 97.2147 23.902C96.8041 23.7247 96.4494 23.4727 96.1507 23.146C95.8614 22.81 95.6374 22.4133 95.4787 21.956C95.3201 21.4893 95.2407 20.9713 95.2407 20.402C95.2407 19.8233 95.3201 19.3007 95.4787 18.834C95.6467 18.3673 95.8754 17.9707 96.1647 17.644C96.4541 17.308 96.7994 17.0513 97.2007 16.874C97.6114 16.6967 98.0641 16.608 98.5587 16.608C99.0441 16.608 99.4827 16.6967 99.8747 16.874C100.276 17.0513 100.617 17.2987 100.897 17.616C101.177 17.924 101.391 18.2927 101.541 18.722C101.69 19.1513 101.765 19.6227 101.765 20.136V20.668H96.4167V21.004C96.4167 21.3213 96.4681 21.6153 96.5707 21.886C96.6734 22.1567 96.8181 22.39 97.0047 22.586C97.2007 22.782 97.4341 22.936 97.7047 23.048C97.9847 23.1507 98.2927 23.202 98.6287 23.202C99.1141 23.202 99.5341 23.09 99.8887 22.866C100.243 22.642 100.514 22.334 100.701 21.942L101.527 22.502C101.312 22.9873 100.953 23.3887 100.449 23.706C99.9541 24.014 99.3474 24.168 98.6287 24.168ZM98.5587 17.532C98.2507 17.532 97.9661 17.588 97.7047 17.7C97.4434 17.812 97.2147 17.966 97.0187 18.162C96.8321 18.358 96.6827 18.5913 96.5707 18.862C96.4681 19.1233 96.4167 19.4127 96.4167 19.73V19.828H100.561V19.674C100.561 19.3567 100.509 19.0673 100.407 18.806C100.313 18.5447 100.178 18.3207 100.001 18.134C99.8327 17.938 99.6227 17.7887 99.3707 17.686C99.1281 17.5833 98.8574 17.532 98.5587 17.532ZM104.069 24V16.776H105.189V17.952H105.245C105.32 17.7747 105.413 17.6067 105.525 17.448C105.637 17.28 105.773 17.1353 105.931 17.014C106.099 16.8927 106.295 16.7947 106.519 16.72C106.743 16.6453 107.005 16.608 107.303 16.608C108.059 16.608 108.666 16.8507 109.123 17.336C109.581 17.812 109.809 18.4887 109.809 19.366V24H108.689V19.562C108.689 18.8993 108.545 18.4093 108.255 18.092C107.966 17.7653 107.541 17.602 106.981 17.602C106.757 17.602 106.538 17.63 106.323 17.686C106.109 17.742 105.917 17.826 105.749 17.938C105.581 18.05 105.446 18.1947 105.343 18.372C105.241 18.5493 105.189 18.7547 105.189 18.988V24H104.069ZM117.042 22.824H116.986C116.519 23.72 115.777 24.168 114.76 24.168C113.873 24.168 113.178 23.8367 112.674 23.174C112.179 22.5113 111.932 21.5827 111.932 20.388C111.932 19.1933 112.179 18.2647 112.674 17.602C113.178 16.9393 113.873 16.608 114.76 16.608C115.777 16.608 116.519 17.056 116.986 17.952H117.042V13.64H118.162V24H117.042V22.824ZM115.194 23.174C115.446 23.174 115.684 23.1413 115.908 23.076C116.132 23.0107 116.328 22.9173 116.496 22.796C116.664 22.6653 116.794 22.5113 116.888 22.334C116.99 22.1473 117.042 21.9327 117.042 21.69V19.086C117.042 18.8433 116.99 18.6333 116.888 18.456C116.794 18.2693 116.664 18.1153 116.496 17.994C116.328 17.8633 116.132 17.7653 115.908 17.7C115.684 17.6347 115.446 17.602 115.194 17.602C114.54 17.602 114.032 17.8027 113.668 18.204C113.313 18.596 113.136 19.1187 113.136 19.772V21.004C113.136 21.6573 113.313 22.1847 113.668 22.586C114.032 22.978 114.54 23.174 115.194 23.174ZM123.812 24.168C123.29 24.168 122.818 24.0793 122.398 23.902C121.988 23.7247 121.633 23.4727 121.334 23.146C121.045 22.81 120.821 22.4133 120.662 21.956C120.504 21.4893 120.424 20.9713 120.424 20.402C120.424 19.8233 120.504 19.3007 120.662 18.834C120.83 18.3673 121.059 17.9707 121.348 17.644C121.638 17.308 121.983 17.0513 122.384 16.874C122.795 16.6967 123.248 16.608 123.742 16.608C124.228 16.608 124.666 16.6967 125.058 16.874C125.46 17.0513 125.8 17.2987 126.08 17.616C126.36 17.924 126.575 18.2927 126.724 18.722C126.874 19.1513 126.948 19.6227 126.948 20.136V20.668H121.6V21.004C121.6 21.3213 121.652 21.6153 121.754 21.886C121.857 22.1567 122.002 22.39 122.188 22.586C122.384 22.782 122.618 22.936 122.888 23.048C123.168 23.1507 123.476 23.202 123.812 23.202C124.298 23.202 124.718 23.09 125.072 22.866C125.427 22.642 125.698 22.334 125.884 21.942L126.71 22.502C126.496 22.9873 126.136 23.3887 125.632 23.706C125.138 24.014 124.531 24.168 123.812 24.168ZM123.742 17.532C123.434 17.532 123.15 17.588 122.888 17.7C122.627 17.812 122.398 17.966 122.202 18.162C122.016 18.358 121.866 18.5913 121.754 18.862C121.652 19.1233 121.6 19.4127 121.6 19.73V19.828H125.744V19.674C125.744 19.3567 125.693 19.0673 125.59 18.806C125.497 18.5447 125.362 18.3207 125.184 18.134C125.016 17.938 124.806 17.7887 124.554 17.686C124.312 17.5833 124.041 17.532 123.742 17.532ZM128.959 23.048H131.073V17.728H128.959V16.776H132.193V18.596H132.263C132.412 18.0267 132.692 17.5833 133.103 17.266C133.523 16.9393 134.055 16.776 134.699 16.776H135.707V17.896H134.349C133.705 17.896 133.182 18.0827 132.781 18.456C132.389 18.8293 132.193 19.3193 132.193 19.926V23.048H134.993V24H128.959V23.048ZM146.14 13.64H147.26V20.178H147.316L148.576 18.988L150.984 16.776H152.356L149.36 19.604L152.706 24H151.32L148.506 20.248L147.26 21.382V24H146.14V13.64ZM154.436 24V16.776H155.556V17.952H155.612C155.687 17.7747 155.78 17.6067 155.892 17.448C156.004 17.28 156.14 17.1353 156.298 17.014C156.466 16.8927 156.662 16.7947 156.886 16.72C157.11 16.6453 157.372 16.608 157.67 16.608C158.426 16.608 159.033 16.8507 159.49 17.336C159.948 17.812 160.176 18.4887 160.176 19.366V24H159.056V19.562C159.056 18.8993 158.912 18.4093 158.622 18.092C158.333 17.7653 157.908 17.602 157.348 17.602C157.124 17.602 156.905 17.63 156.69 17.686C156.476 17.742 156.284 17.826 156.116 17.938C155.948 18.05 155.813 18.1947 155.71 18.372C155.608 18.5493 155.556 18.7547 155.556 18.988V24H154.436ZM165.659 24.168C165.155 24.168 164.698 24.0793 164.287 23.902C163.886 23.7247 163.54 23.4727 163.251 23.146C162.971 22.81 162.756 22.4133 162.607 21.956C162.458 21.4893 162.383 20.9667 162.383 20.388C162.383 19.8187 162.458 19.3007 162.607 18.834C162.756 18.3673 162.971 17.9707 163.251 17.644C163.54 17.308 163.886 17.0513 164.287 16.874C164.698 16.6967 165.155 16.608 165.659 16.608C166.163 16.608 166.616 16.6967 167.017 16.874C167.428 17.0513 167.773 17.308 168.053 17.644C168.342 17.9707 168.562 18.3673 168.711 18.834C168.86 19.3007 168.935 19.8187 168.935 20.388C168.935 20.9667 168.86 21.4893 168.711 21.956C168.562 22.4133 168.342 22.81 168.053 23.146C167.773 23.4727 167.428 23.7247 167.017 23.902C166.616 24.0793 166.163 24.168 165.659 24.168ZM165.659 23.202C166.284 23.202 166.788 23.0153 167.171 22.642C167.554 22.2687 167.745 21.69 167.745 20.906V19.87C167.745 19.086 167.554 18.5073 167.171 18.134C166.788 17.7607 166.284 17.574 165.659 17.574C165.034 17.574 164.53 17.7607 164.147 18.134C163.764 18.5073 163.573 19.086 163.573 19.87V20.906C163.573 21.69 163.764 22.2687 164.147 22.642C164.53 23.0153 165.034 23.202 165.659 23.202ZM170.274 16.776H171.268L172.094 23.02H172.22L173.452 16.776H174.684L175.916 23.02H176.042L176.868 16.776H177.834L176.728 24H175.272L174.124 17.952H174.012L172.836 24H171.38L170.274 16.776ZM182.532 24.168C181.776 24.168 181.123 24.042 180.572 23.79C180.031 23.5287 179.569 23.1833 179.186 22.754L179.942 22.096C180.287 22.46 180.665 22.74 181.076 22.936C181.487 23.132 181.981 23.23 182.56 23.23C183.12 23.23 183.577 23.132 183.932 22.936C184.296 22.7307 184.478 22.4133 184.478 21.984C184.478 21.7973 184.441 21.6433 184.366 21.522C184.301 21.3913 184.207 21.2887 184.086 21.214C183.965 21.1393 183.829 21.0833 183.68 21.046C183.531 20.9993 183.372 20.962 183.204 20.934L182.07 20.766C181.818 20.7287 181.543 20.6773 181.244 20.612C180.955 20.5467 180.689 20.444 180.446 20.304C180.203 20.1547 179.998 19.9587 179.83 19.716C179.671 19.4733 179.592 19.156 179.592 18.764C179.592 18.4 179.662 18.0873 179.802 17.826C179.951 17.5553 180.157 17.3313 180.418 17.154C180.679 16.9673 180.987 16.832 181.342 16.748C181.697 16.6547 182.084 16.608 182.504 16.608C183.157 16.608 183.722 16.7107 184.198 16.916C184.683 17.1213 185.099 17.406 185.444 17.77L184.716 18.456C184.632 18.3533 184.525 18.2507 184.394 18.148C184.273 18.036 184.119 17.938 183.932 17.854C183.755 17.7607 183.545 17.686 183.302 17.63C183.059 17.574 182.779 17.546 182.462 17.546C181.893 17.546 181.454 17.644 181.146 17.84C180.847 18.036 180.698 18.3207 180.698 18.694C180.698 18.8807 180.731 19.0393 180.796 19.17C180.871 19.2913 180.969 19.3893 181.09 19.464C181.211 19.5387 181.347 19.5993 181.496 19.646C181.655 19.6833 181.813 19.716 181.972 19.744L183.106 19.912C183.367 19.9493 183.643 20.0007 183.932 20.066C184.221 20.1313 184.487 20.2387 184.73 20.388C184.973 20.528 185.173 20.7193 185.332 20.962C185.5 21.2047 185.584 21.522 185.584 21.914C185.584 22.6327 185.304 23.188 184.744 23.58C184.193 23.972 183.456 24.168 182.532 24.168Z" fill="black"/>
<rect x="1" y="1" width="195" height="36" stroke="#9747FF" stroke-width="2"/>
<rect x="1" y="47" width="212" height="36" fill="white"/>
<path d="M11.7229 70L10.9529 60.228H12.0029L12.4089 65.828L12.6189 68.782H12.7309L14.0189 62.776H15.3349L16.6229 68.782H16.7349L16.9449 65.828L17.3509 60.228H18.3729L17.6029 70H15.9089L14.7189 64.162H14.6069L13.4169 70H11.7229ZM20.2294 59.64H21.3494V63.952H21.4054C21.4801 63.7747 21.5734 63.6067 21.6854 63.448C21.7974 63.28 21.9328 63.1353 22.0914 63.014C22.2594 62.8927 22.4554 62.7947 22.6794 62.72C22.9034 62.6453 23.1648 62.608 23.4634 62.608C24.2194 62.608 24.8261 62.8507 25.2834 63.336C25.7408 63.812 25.9694 64.4887 25.9694 65.366V70H24.8494V65.562C24.8494 64.8993 24.7048 64.4093 24.4154 64.092C24.1261 63.7653 23.7014 63.602 23.1414 63.602C22.9174 63.602 22.6981 63.63 22.4834 63.686C22.2688 63.742 22.0774 63.826 21.9094 63.938C21.7414 64.05 21.6061 64.1947 21.5034 64.372C21.4008 64.5493 21.3494 64.7547 21.3494 64.988V70H20.2294V59.64ZM34.182 70C33.7433 70 33.4306 69.888 33.244 69.664C33.0573 69.44 32.9406 69.16 32.894 68.824H32.824C32.6653 69.244 32.4086 69.5753 32.054 69.818C31.7086 70.0513 31.242 70.168 30.654 70.168C29.898 70.168 29.296 69.972 28.848 69.58C28.4 69.188 28.176 68.6513 28.176 67.97C28.176 67.298 28.4186 66.78 28.904 66.416C29.3986 66.052 30.192 65.87 31.284 65.87H32.824V65.156C32.824 64.624 32.6746 64.2273 32.376 63.966C32.0773 63.6953 31.6526 63.56 31.102 63.56C30.6166 63.56 30.22 63.658 29.912 63.854C29.604 64.0407 29.3566 64.2973 29.17 64.624L28.414 64.064C28.5073 63.8773 28.6333 63.6953 28.792 63.518C28.9506 63.3407 29.1466 63.1867 29.38 63.056C29.6133 62.916 29.8793 62.8087 30.178 62.734C30.4766 62.65 30.808 62.608 31.172 62.608C32.0213 62.608 32.6933 62.8227 33.188 63.252C33.692 63.6813 33.944 64.2787 33.944 65.044V69.02H34.952V70H34.182ZM30.85 69.23C31.1393 69.23 31.4006 69.1973 31.634 69.132C31.8766 69.0573 32.0866 68.964 32.264 68.852C32.4413 68.7307 32.5766 68.5907 32.67 68.432C32.7726 68.264 32.824 68.0867 32.824 67.9V66.71H31.284C30.612 66.71 30.122 66.8033 29.814 66.99C29.506 67.1767 29.352 67.4473 29.352 67.802V68.096C29.352 68.4693 29.4826 68.754 29.744 68.95C30.0146 69.1367 30.3833 69.23 30.85 69.23ZM40.1965 70C39.6458 70 39.2398 69.846 38.9785 69.538C38.7265 69.23 38.6005 68.8333 38.6005 68.348V63.728H36.1925V62.776H37.9845C38.2272 62.776 38.3952 62.7293 38.4885 62.636C38.5912 62.5333 38.6425 62.3607 38.6425 62.118V60.228H39.7205V62.776H43.0105V63.728H39.7205V69.048H43.0105V70H40.1965ZM56.9855 70C56.4349 70 56.0289 69.846 55.7675 69.538C55.5155 69.23 55.3895 68.8333 55.3895 68.348V63.728H52.9815V62.776H54.7735C55.0162 62.776 55.1842 62.7293 55.2775 62.636C55.3802 62.5333 55.4315 62.3607 55.4315 62.118V60.228H56.5095V62.776H59.7995V63.728H56.5095V69.048H59.7995V70H56.9855ZM62.2021 59.64H63.3221V63.952H63.3781C63.4527 63.7747 63.5461 63.6067 63.6581 63.448C63.7701 63.28 63.9054 63.1353 64.0641 63.014C64.2321 62.8927 64.4281 62.7947 64.6521 62.72C64.8761 62.6453 65.1374 62.608 65.4361 62.608C66.1921 62.608 66.7987 62.8507 67.2561 63.336C67.7134 63.812 67.9421 64.4887 67.9421 65.366V70H66.8221V65.562C66.8221 64.8993 66.6774 64.4093 66.3881 64.092C66.0987 63.7653 65.6741 63.602 65.1141 63.602C64.8901 63.602 64.6707 63.63 64.4561 63.686C64.2414 63.742 64.0501 63.826 63.8821 63.938C63.7141 64.05 63.5787 64.1947 63.4761 64.372C63.3734 64.5493 63.3221 64.7547 63.3221 64.988V70H62.2021V59.64ZM73.5506 70.168C73.0279 70.168 72.5566 70.0793 72.1366 69.902C71.7259 69.7247 71.3713 69.4727 71.0726 69.146C70.7833 68.81 70.5593 68.4133 70.4006 67.956C70.2419 67.4893 70.1626 66.9713 70.1626 66.402C70.1626 65.8233 70.2419 65.3007 70.4006 64.834C70.5686 64.3673 70.7973 63.9707 71.0866 63.644C71.3759 63.308 71.7213 63.0513 72.1226 62.874C72.5333 62.6967 72.9859 62.608 73.4806 62.608C73.9659 62.608 74.4046 62.6967 74.7966 62.874C75.1979 63.0513 75.5386 63.2987 75.8186 63.616C76.0986 63.924 76.3133 64.2927 76.4626 64.722C76.6119 65.1513 76.6866 65.6227 76.6866 66.136V66.668H71.3386V67.004C71.3386 67.3213 71.3899 67.6153 71.4926 67.886C71.5953 68.1567 71.7399 68.39 71.9266 68.586C72.1226 68.782 72.3559 68.936 72.6266 69.048C72.9066 69.1507 73.2146 69.202 73.5506 69.202C74.0359 69.202 74.4559 69.09 74.8106 68.866C75.1653 68.642 75.4359 68.334 75.6226 67.942L76.4486 68.502C76.2339 68.9873 75.8746 69.3887 75.3706 69.706C74.8759 70.014 74.2693 70.168 73.5506 70.168ZM73.4806 63.532C73.1726 63.532 72.8879 63.588 72.6266 63.7C72.3653 63.812 72.1366 63.966 71.9406 64.162C71.7539 64.358 71.6046 64.5913 71.4926 64.862C71.3899 65.1233 71.3386 65.4127 71.3386 65.73V65.828H75.4826V65.674C75.4826 65.3567 75.4313 65.0673 75.3286 64.806C75.2353 64.5447 75.0999 64.3207 74.9226 64.134C74.7546 63.938 74.5446 63.7887 74.2926 63.686C74.0499 63.5833 73.7793 63.532 73.4806 63.532ZM87.0917 69.048H89.2057V63.728H87.0917V62.776H90.3257V64.596H90.3957C90.545 64.0267 90.825 63.5833 91.2357 63.266C91.6557 62.9393 92.1877 62.776 92.8317 62.776H93.8397V63.896H92.4817C91.8377 63.896 91.315 64.0827 90.9137 64.456C90.5217 64.8293 90.3257 65.3193 90.3257 65.926V69.048H93.1257V70H87.0917V69.048ZM98.7342 70.168C98.2115 70.168 97.7402 70.0793 97.3202 69.902C96.9095 69.7247 96.5549 69.4727 96.2562 69.146C95.9669 68.81 95.7429 68.4133 95.5842 67.956C95.4255 67.4893 95.3462 66.9713 95.3462 66.402C95.3462 65.8233 95.4255 65.3007 95.5842 64.834C95.7522 64.3673 95.9809 63.9707 96.2702 63.644C96.5595 63.308 96.9049 63.0513 97.3062 62.874C97.7169 62.6967 98.1695 62.608 98.6642 62.608C99.1495 62.608 99.5882 62.6967 99.9802 62.874C100.382 63.0513 100.722 63.2987 101.002 63.616C101.282 63.924 101.497 64.2927 101.646 64.722C101.796 65.1513 101.87 65.6227 101.87 66.136V66.668H96.5222V67.004C96.5222 67.3213 96.5735 67.6153 96.6762 67.886C96.7789 68.1567 96.9235 68.39 97.1102 68.586C97.3062 68.782 97.5395 68.936 97.8102 69.048C98.0902 69.1507 98.3982 69.202 98.7342 69.202C99.2195 69.202 99.6395 69.09 99.9942 68.866C100.349 68.642 100.62 68.334 100.806 67.942L101.632 68.502C101.418 68.9873 101.058 69.3887 100.554 69.706C100.06 70.014 99.4529 70.168 98.7342 70.168ZM98.6642 63.532C98.3562 63.532 98.0715 63.588 97.8102 63.7C97.5489 63.812 97.3202 63.966 97.1242 64.162C96.9375 64.358 96.7882 64.5913 96.6762 64.862C96.5735 65.1233 96.5222 65.4127 96.5222 65.73V65.828H100.666V65.674C100.666 65.3567 100.615 65.0673 100.512 64.806C100.419 64.5447 100.284 64.3207 100.106 64.134C99.9382 63.938 99.7282 63.7887 99.4762 63.686C99.2335 63.5833 98.9629 63.532 98.6642 63.532ZM107.255 70.168C106.732 70.168 106.265 70.0793 105.855 69.902C105.453 69.7153 105.113 69.4587 104.833 69.132C104.553 68.8053 104.338 68.4087 104.189 67.942C104.049 67.4753 103.979 66.9573 103.979 66.388C103.979 65.8187 104.053 65.3007 104.203 64.834C104.352 64.3673 104.567 63.9707 104.847 63.644C105.127 63.308 105.467 63.0513 105.869 62.874C106.27 62.6967 106.727 62.608 107.241 62.608C107.941 62.608 108.51 62.762 108.949 63.07C109.387 63.378 109.709 63.7793 109.915 64.274L109.019 64.75C108.888 64.3767 108.669 64.0873 108.361 63.882C108.062 63.6767 107.689 63.574 107.241 63.574C106.914 63.574 106.62 63.63 106.359 63.742C106.107 63.8447 105.892 63.994 105.715 64.19C105.537 64.386 105.402 64.6193 105.309 64.89C105.225 65.1607 105.183 65.4547 105.183 65.772V67.004C105.183 67.3213 105.225 67.6153 105.309 67.886C105.402 68.1567 105.537 68.39 105.715 68.586C105.892 68.782 106.111 68.936 106.373 69.048C106.634 69.1507 106.933 69.202 107.269 69.202C107.754 69.202 108.155 69.09 108.473 68.866C108.79 68.642 109.042 68.334 109.229 67.942L110.027 68.488C109.812 68.9733 109.476 69.3747 109.019 69.692C108.571 70.0093 107.983 70.168 107.255 70.168ZM115.523 70.168C115.001 70.168 114.529 70.0793 114.109 69.902C113.699 69.7247 113.344 69.4727 113.045 69.146C112.756 68.81 112.532 68.4133 112.373 67.956C112.215 67.4893 112.135 66.9713 112.135 66.402C112.135 65.8233 112.215 65.3007 112.373 64.834C112.541 64.3673 112.77 63.9707 113.059 63.644C113.349 63.308 113.694 63.0513 114.095 62.874C114.506 62.6967 114.959 62.608 115.453 62.608C115.939 62.608 116.377 62.6967 116.769 62.874C117.171 63.0513 117.511 63.2987 117.791 63.616C118.071 63.924 118.286 64.2927 118.435 64.722C118.585 65.1513 118.659 65.6227 118.659 66.136V66.668H113.311V67.004C113.311 67.3213 113.363 67.6153 113.465 67.886C113.568 68.1567 113.713 68.39 113.899 68.586C114.095 68.782 114.329 68.936 114.599 69.048C114.879 69.1507 115.187 69.202 115.523 69.202C116.009 69.202 116.429 69.09 116.783 68.866C117.138 68.642 117.409 68.334 117.595 67.942L118.421 68.502C118.207 68.9873 117.847 69.3887 117.343 69.706C116.849 70.014 116.242 70.168 115.523 70.168ZM115.453 63.532C115.145 63.532 114.861 63.588 114.599 63.7C114.338 63.812 114.109 63.966 113.913 64.162C113.727 64.358 113.577 64.5913 113.465 64.862C113.363 65.1233 113.311 65.4127 113.311 65.73V65.828H117.455V65.674C117.455 65.3567 117.404 65.0673 117.301 64.806C117.208 64.5447 117.073 64.3207 116.895 64.134C116.727 63.938 116.517 63.7887 116.265 63.686C116.023 63.5833 115.752 63.532 115.453 63.532ZM124.24 61.18C123.913 61.18 123.684 61.1147 123.554 60.984C123.423 60.844 123.358 60.6713 123.358 60.466V60.242C123.358 60.0367 123.423 59.8687 123.554 59.738C123.684 59.598 123.913 59.528 124.24 59.528C124.566 59.528 124.795 59.598 124.926 59.738C125.056 59.8687 125.122 60.0367 125.122 60.242V60.466C125.122 60.6713 125.056 60.844 124.926 60.984C124.795 61.1147 124.566 61.18 124.24 61.18ZM121.076 69.048H123.68V63.728H121.076V62.776H124.8V69.048H127.236V70H121.076V69.048ZM131.472 70L128.882 62.776H130.016L131.052 65.8L132.172 69.062H132.228L133.348 65.8L134.384 62.776H135.49L132.9 70H131.472ZM140.707 70.168C140.184 70.168 139.713 70.0793 139.293 69.902C138.882 69.7247 138.528 69.4727 138.229 69.146C137.94 68.81 137.716 68.4133 137.557 67.956C137.398 67.4893 137.319 66.9713 137.319 66.402C137.319 65.8233 137.398 65.3007 137.557 64.834C137.725 64.3673 137.954 63.9707 138.243 63.644C138.532 63.308 138.878 63.0513 139.279 62.874C139.69 62.6967 140.142 62.608 140.637 62.608C141.122 62.608 141.561 62.6967 141.953 62.874C142.354 63.0513 142.695 63.2987 142.975 63.616C143.255 63.924 143.47 64.2927 143.619 64.722C143.768 65.1513 143.843 65.6227 143.843 66.136V66.668H138.495V67.004C138.495 67.3213 138.546 67.6153 138.649 67.886C138.752 68.1567 138.896 68.39 139.083 68.586C139.279 68.782 139.512 68.936 139.783 69.048C140.063 69.1507 140.371 69.202 140.707 69.202C141.192 69.202 141.612 69.09 141.967 68.866C142.322 68.642 142.592 68.334 142.779 67.942L143.605 68.502C143.39 68.9873 143.031 69.3887 142.527 69.706C142.032 70.014 141.426 70.168 140.707 70.168ZM140.637 63.532C140.329 63.532 140.044 63.588 139.783 63.7C139.522 63.812 139.293 63.966 139.097 64.162C138.91 64.358 138.761 64.5913 138.649 64.862C138.546 65.1233 138.495 65.4127 138.495 65.73V65.828H142.639V65.674C142.639 65.3567 142.588 65.0673 142.485 64.806C142.392 64.5447 142.256 64.3207 142.079 64.134C141.911 63.938 141.701 63.7887 141.449 63.686C141.206 63.5833 140.936 63.532 140.637 63.532ZM145.853 69.048H147.967V63.728H145.853V62.776H149.087V64.596H149.157C149.307 64.0267 149.587 63.5833 149.997 63.266C150.417 62.9393 150.949 62.776 151.593 62.776H152.601V63.896H151.243C150.599 63.896 150.077 64.0827 149.675 64.456C149.283 64.8293 149.087 65.3193 149.087 65.926V69.048H151.887V70H145.853V69.048ZM163.034 59.64H164.154V66.178H164.21L165.47 64.988L167.878 62.776H169.25L166.254 65.604L169.6 70H168.214L165.4 66.248L164.154 67.382V70H163.034V59.64ZM171.331 70V62.776H172.451V63.952H172.507C172.582 63.7747 172.675 63.6067 172.787 63.448C172.899 63.28 173.034 63.1353 173.193 63.014C173.361 62.8927 173.557 62.7947 173.781 62.72C174.005 62.6453 174.266 62.608 174.565 62.608C175.321 62.608 175.928 62.8507 176.385 63.336C176.842 63.812 177.071 64.4887 177.071 65.366V70H175.951V65.562C175.951 64.8993 175.806 64.4093 175.517 64.092C175.228 63.7653 174.803 63.602 174.243 63.602C174.019 63.602 173.8 63.63 173.585 63.686C173.37 63.742 173.179 63.826 173.011 63.938C172.843 64.05 172.708 64.1947 172.605 64.372C172.502 64.5493 172.451 64.7547 172.451 64.988V70H171.331ZM182.554 70.168C182.05 70.168 181.592 70.0793 181.182 69.902C180.78 69.7247 180.435 69.4727 180.146 69.146C179.866 68.81 179.651 68.4133 179.502 67.956C179.352 67.4893 179.278 66.9667 179.278 66.388C179.278 65.8187 179.352 65.3007 179.502 64.834C179.651 64.3673 179.866 63.9707 180.146 63.644C180.435 63.308 180.78 63.0513 181.182 62.874C181.592 62.6967 182.05 62.608 182.554 62.608C183.058 62.608 183.51 62.6967 183.912 62.874C184.322 63.0513 184.668 63.308 184.948 63.644C185.237 63.9707 185.456 64.3673 185.606 64.834C185.755 65.3007 185.83 65.8187 185.83 66.388C185.83 66.9667 185.755 67.4893 185.606 67.956C185.456 68.4133 185.237 68.81 184.948 69.146C184.668 69.4727 184.322 69.7247 183.912 69.902C183.51 70.0793 183.058 70.168 182.554 70.168ZM182.554 69.202C183.179 69.202 183.683 69.0153 184.066 68.642C184.448 68.2687 184.64 67.69 184.64 66.906V65.87C184.64 65.086 184.448 64.5073 184.066 64.134C183.683 63.7607 183.179 63.574 182.554 63.574C181.928 63.574 181.424 63.7607 181.042 64.134C180.659 64.5073 180.468 65.086 180.468 65.87V66.906C180.468 67.69 180.659 68.2687 181.042 68.642C181.424 69.0153 181.928 69.202 182.554 69.202ZM187.168 62.776H188.162L188.988 69.02H189.114L190.346 62.776H191.578L192.81 69.02H192.936L193.762 62.776H194.728L193.622 70H192.166L191.018 63.952H190.906L189.73 70H188.274L187.168 62.776ZM199.427 70.168C198.671 70.168 198.017 70.042 197.467 69.79C196.925 69.5287 196.463 69.1833 196.081 68.754L196.837 68.096C197.182 68.46 197.56 68.74 197.971 68.936C198.381 69.132 198.876 69.23 199.455 69.23C200.015 69.23 200.472 69.132 200.827 68.936C201.191 68.7307 201.373 68.4133 201.373 67.984C201.373 67.7973 201.335 67.6433 201.261 67.522C201.195 67.3913 201.102 67.2887 200.981 67.214C200.859 67.1393 200.724 67.0833 200.575 67.046C200.425 66.9993 200.267 66.962 200.099 66.934L198.965 66.766C198.713 66.7287 198.437 66.6773 198.139 66.612C197.849 66.5467 197.583 66.444 197.341 66.304C197.098 66.1547 196.893 65.9587 196.725 65.716C196.566 65.4733 196.487 65.156 196.487 64.764C196.487 64.4 196.557 64.0873 196.697 63.826C196.846 63.5553 197.051 63.3313 197.313 63.154C197.574 62.9673 197.882 62.832 198.237 62.748C198.591 62.6547 198.979 62.608 199.399 62.608C200.052 62.608 200.617 62.7107 201.093 62.916C201.578 63.1213 201.993 63.406 202.339 63.77L201.611 64.456C201.527 64.3533 201.419 64.2507 201.289 64.148C201.167 64.036 201.013 63.938 200.827 63.854C200.649 63.7607 200.439 63.686 200.197 63.63C199.954 63.574 199.674 63.546 199.357 63.546C198.787 63.546 198.349 63.644 198.041 63.84C197.742 64.036 197.593 64.3207 197.593 64.694C197.593 64.8807 197.625 65.0393 197.691 65.17C197.765 65.2913 197.863 65.3893 197.985 65.464C198.106 65.5387 198.241 65.5993 198.391 65.646C198.549 65.6833 198.708 65.716 198.867 65.744L200.001 65.912C200.262 65.9493 200.537 66.0007 200.827 66.066C201.116 66.1313 201.382 66.2387 201.625 66.388C201.867 66.528 202.068 66.7193 202.227 66.962C202.395 67.2047 202.479 67.522 202.479 67.914C202.479 68.6327 202.199 69.188 201.639 69.58C201.088 69.972 200.351 70.168 199.427 70.168Z" fill="black"/>
<rect x="1" y="47" width="212" height="36" stroke="#FFA629" stroke-width="2"/>
<path d="M250.717 8.4929C250.664 8.02225 250.446 7.65767 250.061 7.39915C249.677 7.13731 249.193 7.00639 248.61 7.00639C248.192 7.00639 247.831 7.07268 247.526 7.20526C247.221 7.33452 246.984 7.51349 246.815 7.74219C246.649 7.96757 246.566 8.22443 246.566 8.51278C246.566 8.75473 246.623 8.96354 246.735 9.1392C246.851 9.31487 247.002 9.46236 247.188 9.58168C247.377 9.69768 247.579 9.79545 247.794 9.875C248.01 9.95123 248.217 10.0142 248.416 10.0639L249.41 10.3224C249.735 10.402 250.068 10.5097 250.409 10.6456C250.751 10.7815 251.067 10.9605 251.359 11.1825C251.65 11.4046 251.886 11.6797 252.065 12.0078C252.247 12.3359 252.338 12.7287 252.338 13.1861C252.338 13.7628 252.189 14.2749 251.891 14.7223C251.596 15.1697 251.167 15.5227 250.603 15.7812C250.043 16.0398 249.365 16.169 248.57 16.169C247.807 16.169 247.148 16.0481 246.591 15.8061C246.034 15.5642 245.598 15.2211 245.284 14.777C244.969 14.3295 244.795 13.7992 244.762 13.1861H246.303C246.333 13.554 246.452 13.8606 246.661 14.1058C246.873 14.3478 247.143 14.5284 247.471 14.6477C247.802 14.7637 248.165 14.8217 248.56 14.8217C248.994 14.8217 249.38 14.7538 249.718 14.6179C250.06 14.4787 250.328 14.2865 250.524 14.0412C250.719 13.7926 250.817 13.5026 250.817 13.1712C250.817 12.8696 250.731 12.6226 250.558 12.4304C250.389 12.2382 250.159 12.0791 249.867 11.9531C249.579 11.8272 249.253 11.7161 248.888 11.62L247.685 11.2919C246.869 11.0698 246.223 10.7434 245.746 10.3125C245.272 9.88163 245.035 9.31155 245.035 8.60227C245.035 8.01562 245.194 7.50355 245.512 7.06605C245.83 6.62855 246.261 6.28883 246.805 6.04688C247.348 5.80161 247.962 5.67898 248.644 5.67898C249.334 5.67898 249.942 5.79995 250.469 6.0419C250.999 6.28385 251.417 6.61695 251.722 7.04119C252.027 7.46212 252.186 7.94602 252.199 8.4929H250.717ZM257.08 16.1541C256.327 16.1541 255.68 15.9934 255.136 15.6719C254.596 15.3471 254.178 14.8913 253.883 14.3047C253.591 13.7147 253.446 13.0237 253.446 12.2315C253.446 11.4493 253.591 10.7599 253.883 10.1634C254.178 9.56676 254.589 9.10109 255.116 8.76633C255.646 8.43158 256.266 8.2642 256.975 8.2642C257.406 8.2642 257.824 8.33546 258.228 8.47798C258.633 8.6205 258.996 8.84422 259.317 9.14915C259.639 9.45407 259.892 9.85014 260.078 10.3374C260.263 10.8213 260.356 11.4096 260.356 12.1023V12.6293H254.286V11.5156H258.899C258.899 11.1245 258.82 10.7782 258.661 10.4766C258.502 10.1716 258.278 9.93134 257.99 9.75568C257.705 9.58002 257.37 9.49219 256.985 9.49219C256.568 9.49219 256.203 9.59493 255.892 9.80043C255.583 10.0026 255.345 10.2678 255.176 10.5959C255.01 10.9207 254.927 11.2737 254.927 11.6548V12.5249C254.927 13.0353 255.017 13.4695 255.196 13.8274C255.378 14.1854 255.631 14.4588 255.956 14.6477C256.281 14.8333 256.661 14.9261 257.095 14.9261C257.376 14.9261 257.633 14.8864 257.865 14.8068C258.097 14.724 258.298 14.6013 258.467 14.4389C258.636 14.2765 258.765 14.076 258.855 13.8374L260.262 14.0909C260.149 14.5052 259.947 14.8681 259.655 15.1797C259.367 15.4879 259.004 15.7282 258.566 15.9006C258.132 16.0696 257.637 16.1541 257.08 16.1541ZM263.226 11.4659V16H261.739V8.36364H263.166V9.60653H263.261C263.436 9.20218 263.712 8.87737 264.086 8.6321C264.464 8.38684 264.939 8.2642 265.513 8.2642C266.033 8.2642 266.489 8.37358 266.88 8.59233C267.271 8.80777 267.574 9.12926 267.79 9.55682C268.005 9.98437 268.113 10.513 268.113 11.1428V16H266.627V11.3217C266.627 10.7682 266.482 10.3357 266.194 10.0241C265.906 9.70928 265.51 9.55185 265.006 9.55185C264.661 9.55185 264.355 9.62642 264.086 9.77557C263.821 9.92472 263.61 10.1435 263.455 10.4318C263.302 10.7169 263.226 11.0616 263.226 11.4659ZM272.699 16.1491C272.083 16.1491 271.533 15.9917 271.049 15.6768C270.568 15.3587 270.19 14.9062 269.915 14.3196C269.643 13.7296 269.508 13.022 269.508 12.1967C269.508 11.3714 269.645 10.6655 269.92 10.0788C270.199 9.49219 270.58 9.04309 271.064 8.73153C271.548 8.41998 272.096 8.2642 272.709 8.2642C273.183 8.2642 273.564 8.34375 273.853 8.50284C274.144 8.65862 274.37 8.84091 274.529 9.04972C274.691 9.25852 274.817 9.44247 274.907 9.60156H274.996V5.81818H276.483V16H275.031V14.8118H274.907C274.817 14.9742 274.688 15.1598 274.519 15.3686C274.353 15.5774 274.124 15.7597 273.833 15.9155C273.541 16.0713 273.163 16.1491 272.699 16.1491ZM273.027 14.8814C273.455 14.8814 273.816 14.7687 274.111 14.5433C274.41 14.3146 274.635 13.9981 274.787 13.5938C274.943 13.1894 275.021 12.7187 275.021 12.1818C275.021 11.6515 274.945 11.1875 274.792 10.7898C274.64 10.392 274.416 10.0821 274.121 9.86009C273.826 9.63802 273.462 9.52699 273.027 9.52699C272.58 9.52699 272.207 9.64299 271.909 9.875C271.611 10.107 271.385 10.4235 271.233 10.8246C271.084 11.2256 271.009 11.678 271.009 12.1818C271.009 12.6922 271.085 13.1513 271.238 13.5589C271.39 13.9666 271.615 14.2898 271.914 14.5284C272.215 14.7637 272.587 14.8814 273.027 14.8814ZM281.629 16.1541C280.877 16.1541 280.229 15.9934 279.686 15.6719C279.145 15.3471 278.728 14.8913 278.433 14.3047C278.141 13.7147 277.995 13.0237 277.995 12.2315C277.995 11.4493 278.141 10.7599 278.433 10.1634C278.728 9.56676 279.139 9.10109 279.666 8.76633C280.196 8.43158 280.816 8.2642 281.525 8.2642C281.956 8.2642 282.374 8.33546 282.778 8.47798C283.182 8.6205 283.545 8.84422 283.867 9.14915C284.188 9.45407 284.442 9.85014 284.627 10.3374C284.813 10.8213 284.906 11.4096 284.906 12.1023V12.6293H278.835V11.5156H283.449C283.449 11.1245 283.37 10.7782 283.21 10.4766C283.051 10.1716 282.828 9.93134 282.539 9.75568C282.254 9.58002 281.92 9.49219 281.535 9.49219C281.117 9.49219 280.753 9.59493 280.441 9.80043C280.133 10.0026 279.894 10.2678 279.725 10.5959C279.56 10.9207 279.477 11.2737 279.477 11.6548V12.5249C279.477 13.0353 279.566 13.4695 279.745 13.8274C279.928 14.1854 280.181 14.4588 280.506 14.6477C280.831 14.8333 281.21 14.9261 281.644 14.9261C281.926 14.9261 282.183 14.8864 282.415 14.8068C282.647 14.724 282.848 14.6013 283.017 14.4389C283.186 14.2765 283.315 14.076 283.404 13.8374L284.811 14.0909C284.699 14.5052 284.496 14.8681 284.205 15.1797C283.916 15.4879 283.554 15.7282 283.116 15.9006C282.682 16.0696 282.186 16.1541 281.629 16.1541ZM286.289 16V8.36364H287.726V9.5767H287.805C287.945 9.16572 288.19 8.84257 288.541 8.60724C288.896 8.36861 289.297 8.24929 289.744 8.24929C289.837 8.24929 289.947 8.2526 290.072 8.25923C290.202 8.26586 290.303 8.27415 290.376 8.28409V9.70597C290.316 9.68939 290.21 9.67116 290.058 9.65128C289.905 9.62808 289.753 9.61648 289.6 9.61648C289.249 9.61648 288.936 9.69105 288.661 9.8402C288.389 9.98603 288.173 10.1899 288.014 10.4517C287.855 10.7102 287.776 11.0052 287.776 11.3366V16H286.289ZM300.508 8.4929C300.455 8.02225 300.236 7.65767 299.852 7.39915C299.467 7.13731 298.983 7.00639 298.4 7.00639C297.982 7.00639 297.621 7.07268 297.316 7.20526C297.011 7.33452 296.774 7.51349 296.605 7.74219C296.439 7.96757 296.357 8.22443 296.357 8.51278C296.357 8.75473 296.413 8.96354 296.526 9.1392C296.642 9.31487 296.792 9.46236 296.978 9.58168C297.167 9.69768 297.369 9.79545 297.585 9.875C297.8 9.95123 298.007 10.0142 298.206 10.0639L299.2 10.3224C299.525 10.402 299.858 10.5097 300.2 10.6456C300.541 10.7815 300.857 10.9605 301.149 11.1825C301.441 11.4046 301.676 11.6797 301.855 12.0078C302.037 12.3359 302.129 12.7287 302.129 13.1861C302.129 13.7628 301.979 14.2749 301.681 14.7223C301.386 15.1697 300.957 15.5227 300.393 15.7812C299.833 16.0398 299.156 16.169 298.36 16.169C297.598 16.169 296.938 16.0481 296.381 15.8061C295.825 15.5642 295.389 15.2211 295.074 14.777C294.759 14.3295 294.585 13.7992 294.552 13.1861H296.093C296.123 13.554 296.242 13.8606 296.451 14.1058C296.663 14.3478 296.933 14.5284 297.261 14.6477C297.593 14.7637 297.956 14.8217 298.35 14.8217C298.784 14.8217 299.17 14.7538 299.509 14.6179C299.85 14.4787 300.118 14.2865 300.314 14.0412C300.509 13.7926 300.607 13.5026 300.607 13.1712C300.607 12.8696 300.521 12.6226 300.349 12.4304C300.18 12.2382 299.949 12.0791 299.658 11.9531C299.369 11.8272 299.043 11.7161 298.678 11.62L297.475 11.2919C296.66 11.0698 296.013 10.7434 295.536 10.3125C295.062 9.88163 294.825 9.31155 294.825 8.60227C294.825 8.01562 294.984 7.50355 295.303 7.06605C295.621 6.62855 296.052 6.28883 296.595 6.04688C297.139 5.80161 297.752 5.67898 298.435 5.67898C299.124 5.67898 299.732 5.79995 300.259 6.0419C300.79 6.28385 301.207 6.61695 301.512 7.04119C301.817 7.46212 301.976 7.94602 301.989 8.4929H300.508ZM306.87 16.1541C306.118 16.1541 305.47 15.9934 304.926 15.6719C304.386 15.3471 303.968 14.8913 303.673 14.3047C303.382 13.7147 303.236 13.0237 303.236 12.2315C303.236 11.4493 303.382 10.7599 303.673 10.1634C303.968 9.56676 304.379 9.10109 304.906 8.76633C305.437 8.43158 306.057 8.2642 306.766 8.2642C307.197 8.2642 307.614 8.33546 308.019 8.47798C308.423 8.6205 308.786 8.84422 309.107 9.14915C309.429 9.45407 309.682 9.85014 309.868 10.3374C310.054 10.8213 310.146 11.4096 310.146 12.1023V12.6293H304.076V11.5156H308.69C308.69 11.1245 308.61 10.7782 308.451 10.4766C308.292 10.1716 308.068 9.93134 307.78 9.75568C307.495 9.58002 307.16 9.49219 306.776 9.49219C306.358 9.49219 305.994 9.59493 305.682 9.80043C305.374 10.0026 305.135 10.2678 304.966 10.5959C304.8 10.9207 304.717 11.2737 304.717 11.6548V12.5249C304.717 13.0353 304.807 13.4695 304.986 13.8274C305.168 14.1854 305.422 14.4588 305.747 14.6477C306.071 14.8333 306.451 14.9261 306.885 14.9261C307.167 14.9261 307.424 14.8864 307.656 14.8068C307.888 14.724 308.088 14.6013 308.257 14.4389C308.426 14.2765 308.556 14.076 308.645 13.8374L310.052 14.0909C309.939 14.5052 309.737 14.8681 309.445 15.1797C309.157 15.4879 308.794 15.7282 308.357 15.9006C307.923 16.0696 307.427 16.1541 306.87 16.1541ZM313.016 5.81818V16H311.53V5.81818H313.016ZM318.041 16.1541C317.289 16.1541 316.641 15.9934 316.097 15.6719C315.557 15.3471 315.14 14.8913 314.845 14.3047C314.553 13.7147 314.407 13.0237 314.407 12.2315C314.407 11.4493 314.553 10.7599 314.845 10.1634C315.14 9.56676 315.551 9.10109 316.078 8.76633C316.608 8.43158 317.228 8.2642 317.937 8.2642C318.368 8.2642 318.785 8.33546 319.19 8.47798C319.594 8.6205 319.957 8.84422 320.279 9.14915C320.6 9.45407 320.854 9.85014 321.039 10.3374C321.225 10.8213 321.318 11.4096 321.318 12.1023V12.6293H315.247V11.5156H319.861C319.861 11.1245 319.781 10.7782 319.622 10.4766C319.463 10.1716 319.239 9.93134 318.951 9.75568C318.666 9.58002 318.331 9.49219 317.947 9.49219C317.529 9.49219 317.165 9.59493 316.853 9.80043C316.545 10.0026 316.306 10.2678 316.137 10.5959C315.971 10.9207 315.889 11.2737 315.889 11.6548V12.5249C315.889 13.0353 315.978 13.4695 316.157 13.8274C316.339 14.1854 316.593 14.4588 316.918 14.6477C317.243 14.8333 317.622 14.9261 318.056 14.9261C318.338 14.9261 318.595 14.8864 318.827 14.8068C319.059 14.724 319.259 14.6013 319.428 14.4389C319.597 14.2765 319.727 14.076 319.816 13.8374L321.223 14.0909C321.11 14.5052 320.908 14.8681 320.617 15.1797C320.328 15.4879 319.965 15.7282 319.528 15.9006C319.094 16.0696 318.598 16.1541 318.041 16.1541ZM325.918 16.1541C325.178 16.1541 324.542 15.9867 324.008 15.652C323.478 15.3139 323.07 14.8482 322.785 14.255C322.5 13.6617 322.358 12.9822 322.358 12.2166C322.358 11.4411 322.504 10.7566 322.795 10.1634C323.087 9.56676 323.498 9.10109 324.028 8.76633C324.559 8.43158 325.183 8.2642 325.903 8.2642C326.483 8.2642 327 8.37192 327.454 8.58736C327.908 8.79948 328.274 9.09777 328.552 9.48224C328.834 9.86671 329.002 10.3158 329.055 10.8295H327.608C327.528 10.4716 327.346 10.1634 327.061 9.90483C326.779 9.64631 326.401 9.51705 325.927 9.51705C325.513 9.51705 325.15 9.62642 324.839 9.84517C324.53 10.0606 324.29 10.3688 324.118 10.7699C323.945 11.1676 323.859 11.6383 323.859 12.1818C323.859 12.7386 323.944 13.2192 324.113 13.6236C324.282 14.0279 324.521 14.3411 324.829 14.5632C325.14 14.7853 325.507 14.8963 325.927 14.8963C326.209 14.8963 326.464 14.8449 326.693 14.7422C326.925 14.6361 327.119 14.4853 327.275 14.2898C327.434 14.0942 327.545 13.8589 327.608 13.5838H329.055C329.002 14.0777 328.841 14.5185 328.572 14.9062C328.304 15.294 327.944 15.599 327.494 15.821C327.046 16.0431 326.521 16.1541 325.918 16.1541ZM333.943 8.36364V9.55682H329.772V8.36364H333.943ZM330.89 6.53409H332.377V13.7578C332.377 14.0462 332.42 14.2633 332.506 14.4091C332.592 14.5516 332.703 14.6494 332.839 14.7024C332.978 14.7521 333.129 14.777 333.292 14.777C333.411 14.777 333.515 14.7687 333.605 14.7521C333.694 14.7356 333.764 14.7223 333.814 14.7124L334.082 15.9403C333.996 15.9735 333.873 16.0066 333.714 16.0398C333.555 16.0762 333.356 16.0961 333.118 16.0994C332.727 16.1061 332.362 16.0365 332.024 15.8906C331.686 15.7448 331.412 15.5194 331.204 15.2145C330.995 14.9096 330.89 14.5268 330.89 14.0661V6.53409ZM338.53 16.1541C337.778 16.1541 337.13 15.9934 336.587 15.6719C336.046 15.3471 335.629 14.8913 335.334 14.3047C335.042 13.7147 334.896 13.0237 334.896 12.2315C334.896 11.4493 335.042 10.7599 335.334 10.1634C335.629 9.56676 336.04 9.10109 336.567 8.76633C337.097 8.43158 337.717 8.2642 338.426 8.2642C338.857 8.2642 339.275 8.33546 339.679 8.47798C340.083 8.6205 340.446 8.84422 340.768 9.14915C341.089 9.45407 341.343 9.85014 341.528 10.3374C341.714 10.8213 341.807 11.4096 341.807 12.1023V12.6293H335.736V11.5156H340.35C340.35 11.1245 340.27 10.7782 340.111 10.4766C339.952 10.1716 339.729 9.93134 339.44 9.75568C339.155 9.58002 338.82 9.49219 338.436 9.49219C338.018 9.49219 337.654 9.59493 337.342 9.80043C337.034 10.0026 336.795 10.2678 336.626 10.5959C336.461 10.9207 336.378 11.2737 336.378 11.6548V12.5249C336.378 13.0353 336.467 13.4695 336.646 13.8274C336.828 14.1854 337.082 14.4588 337.407 14.6477C337.732 14.8333 338.111 14.9261 338.545 14.9261C338.827 14.9261 339.084 14.8864 339.316 14.8068C339.548 14.724 339.748 14.6013 339.917 14.4389C340.087 14.2765 340.216 14.076 340.305 13.8374L341.712 14.0909C341.6 14.5052 341.397 14.8681 341.106 15.1797C340.817 15.4879 340.454 15.7282 340.017 15.9006C339.583 16.0696 339.087 16.1541 338.53 16.1541ZM346.049 16.1491C345.432 16.1491 344.882 15.9917 344.398 15.6768C343.918 15.3587 343.54 14.9062 343.265 14.3196C342.993 13.7296 342.857 13.022 342.857 12.1967C342.857 11.3714 342.994 10.6655 343.27 10.0788C343.548 9.49219 343.929 9.04309 344.413 8.73153C344.897 8.41998 345.445 8.2642 346.059 8.2642C346.533 8.2642 346.914 8.34375 347.202 8.50284C347.494 8.65862 347.719 8.84091 347.878 9.04972C348.041 9.25852 348.167 9.44247 348.256 9.60156H348.346V5.81818H349.832V16H348.38V14.8118H348.256C348.167 14.9742 348.037 15.1598 347.868 15.3686C347.703 15.5774 347.474 15.7597 347.182 15.9155C346.891 16.0713 346.513 16.1491 346.049 16.1491ZM346.377 14.8814C346.804 14.8814 347.166 14.7687 347.461 14.5433C347.759 14.3146 347.984 13.9981 348.137 13.5938C348.293 13.1894 348.37 12.7187 348.37 12.1818C348.37 11.6515 348.294 11.1875 348.142 10.7898C347.989 10.392 347.766 10.0821 347.471 9.86009C347.176 9.63802 346.811 9.52699 346.377 9.52699C345.929 9.52699 345.557 9.64299 345.258 9.875C344.96 10.107 344.735 10.4235 344.582 10.8246C344.433 11.2256 344.358 11.678 344.358 12.1818C344.358 12.6922 344.435 13.1513 344.587 13.5589C344.74 13.9666 344.965 14.2898 345.263 14.5284C345.565 14.7637 345.936 14.8814 346.377 14.8814Z" fill="#888888"/>
<rect x="245" y="32" width="121" height="46" rx="5" fill="#DCF3E7"/>
<path d="M261.766 60H260.59V50.228H264.146C265.051 50.228 265.742 50.4753 266.218 50.97C266.694 51.4647 266.932 52.1553 266.932 53.042C266.932 53.8353 266.727 54.47 266.316 54.946C265.905 55.422 265.308 55.6973 264.524 55.772L267.016 60H265.7L263.32 55.828H261.766V60ZM264.118 54.834C264.613 54.834 264.995 54.7127 265.266 54.47C265.546 54.218 265.686 53.8633 265.686 53.406V52.678C265.686 52.2207 265.546 51.8707 265.266 51.628C264.995 51.376 264.613 51.25 264.118 51.25H261.766V54.834H264.118ZM272.051 60.168C271.528 60.168 271.057 60.0793 270.637 59.902C270.226 59.7247 269.871 59.4727 269.573 59.146C269.283 58.81 269.059 58.4133 268.901 57.956C268.742 57.4893 268.663 56.9713 268.663 56.402C268.663 55.8233 268.742 55.3007 268.901 54.834C269.069 54.3673 269.297 53.9707 269.587 53.644C269.876 53.308 270.221 53.0513 270.623 52.874C271.033 52.6967 271.486 52.608 271.981 52.608C272.466 52.608 272.905 52.6967 273.297 52.874C273.698 53.0513 274.039 53.2987 274.319 53.616C274.599 53.924 274.813 54.2927 274.963 54.722C275.112 55.1513 275.187 55.6227 275.187 56.136V56.668H269.839V57.004C269.839 57.3213 269.89 57.6153 269.993 57.886C270.095 58.1567 270.24 58.39 270.427 58.586C270.623 58.782 270.856 58.936 271.127 59.048C271.407 59.1507 271.715 59.202 272.051 59.202C272.536 59.202 272.956 59.09 273.311 58.866C273.665 58.642 273.936 58.334 274.123 57.942L274.949 58.502C274.734 58.9873 274.375 59.3887 273.871 59.706C273.376 60.014 272.769 60.168 272.051 60.168ZM271.981 53.532C271.673 53.532 271.388 53.588 271.127 53.7C270.865 53.812 270.637 53.966 270.441 54.162C270.254 54.358 270.105 54.5913 269.993 54.862C269.89 55.1233 269.839 55.4127 269.839 55.73V55.828H273.983V55.674C273.983 55.3567 273.931 55.0673 273.829 54.806C273.735 54.5447 273.6 54.3207 273.423 54.134C273.255 53.938 273.045 53.7887 272.793 53.686C272.55 53.5833 272.279 53.532 271.981 53.532ZM283.973 60.826C283.973 61.554 283.67 62.0907 283.063 62.436C282.456 62.7907 281.546 62.968 280.333 62.968C279.166 62.968 278.326 62.814 277.813 62.506C277.309 62.198 277.057 61.7547 277.057 61.176C277.057 60.784 277.16 60.4807 277.365 60.266C277.57 60.0513 277.86 59.8927 278.233 59.79V59.622C278.028 59.5193 277.869 59.3887 277.757 59.23C277.645 59.0713 277.589 58.8707 277.589 58.628C277.589 58.2547 277.71 57.9747 277.953 57.788C278.205 57.6013 278.518 57.4613 278.891 57.368V57.312C278.443 57.116 278.093 56.8267 277.841 56.444C277.598 56.0613 277.477 55.6133 277.477 55.1C277.477 54.736 277.542 54.4 277.673 54.092C277.804 53.784 277.99 53.5227 278.233 53.308C278.485 53.084 278.784 52.9113 279.129 52.79C279.474 52.6687 279.857 52.608 280.277 52.608C280.818 52.608 281.294 52.706 281.705 52.902V52.776C281.705 52.496 281.77 52.2627 281.901 52.076C282.032 51.8893 282.256 51.796 282.573 51.796H283.903V52.776H282.279V53.266C282.54 53.49 282.741 53.756 282.881 54.064C283.021 54.372 283.091 54.7173 283.091 55.1C283.091 55.464 283.021 55.8 282.881 56.108C282.75 56.416 282.564 56.682 282.321 56.906C282.078 57.1207 281.78 57.2887 281.425 57.41C281.08 57.5313 280.697 57.592 280.277 57.592C280.156 57.592 280.039 57.5873 279.927 57.578C279.815 57.5687 279.703 57.5547 279.591 57.536C279.479 57.5547 279.362 57.5873 279.241 57.634C279.12 57.6713 279.008 57.7273 278.905 57.802C278.802 57.8673 278.718 57.9467 278.653 58.04C278.588 58.1333 278.555 58.2407 278.555 58.362C278.555 58.5767 278.662 58.7213 278.877 58.796C279.092 58.8613 279.372 58.894 279.717 58.894H281.313C282.246 58.894 282.923 59.0713 283.343 59.426C283.763 59.7713 283.973 60.238 283.973 60.826ZM282.923 60.882C282.923 60.5927 282.806 60.3593 282.573 60.182C282.34 60.014 281.934 59.93 281.355 59.93H278.849C278.364 60.126 278.121 60.4527 278.121 60.91C278.121 61.2273 278.247 61.498 278.499 61.722C278.751 61.9553 279.171 62.072 279.759 62.072H280.851C281.504 62.072 282.013 61.9693 282.377 61.764C282.741 61.568 282.923 61.274 282.923 60.882ZM280.277 56.724C280.837 56.724 281.248 56.5933 281.509 56.332C281.78 56.0707 281.915 55.7253 281.915 55.296V54.89C281.915 54.4607 281.78 54.12 281.509 53.868C281.248 53.6067 280.837 53.476 280.277 53.476C279.717 53.476 279.306 53.6067 279.045 53.868C278.784 54.12 278.653 54.4607 278.653 54.89V55.296C278.653 55.7253 278.784 56.0707 279.045 56.332C279.306 56.5933 279.717 56.724 280.277 56.724ZM290.422 58.824H290.366C290.291 59.0013 290.198 59.174 290.086 59.342C289.974 59.5007 289.834 59.6407 289.666 59.762C289.507 59.8833 289.316 59.9813 289.092 60.056C288.868 60.1307 288.606 60.168 288.308 60.168C287.552 60.168 286.945 59.93 286.488 59.454C286.03 58.9687 285.802 58.2873 285.802 57.41V52.776H286.922V57.214C286.922 57.8767 287.066 58.3713 287.356 58.698C287.645 59.0153 288.07 59.174 288.63 59.174C288.854 59.174 289.073 59.146 289.288 59.09C289.502 59.034 289.694 58.95 289.862 58.838C290.03 58.726 290.165 58.586 290.268 58.418C290.37 58.2407 290.422 58.0307 290.422 57.788V52.776H291.542V60H290.422V58.824ZM294.028 59.048H296.548V50.592H294.028V49.64H297.668V59.048H300.188V60H294.028V59.048ZM308.233 60C307.794 60 307.481 59.888 307.295 59.664C307.108 59.44 306.991 59.16 306.945 58.824H306.875C306.716 59.244 306.459 59.5753 306.105 59.818C305.759 60.0513 305.293 60.168 304.705 60.168C303.949 60.168 303.347 59.972 302.899 59.58C302.451 59.188 302.227 58.6513 302.227 57.97C302.227 57.298 302.469 56.78 302.955 56.416C303.449 56.052 304.243 55.87 305.335 55.87H306.875V55.156C306.875 54.624 306.725 54.2273 306.427 53.966C306.128 53.6953 305.703 53.56 305.153 53.56C304.667 53.56 304.271 53.658 303.963 53.854C303.655 54.0407 303.407 54.2973 303.221 54.624L302.465 54.064C302.558 53.8773 302.684 53.6953 302.843 53.518C303.001 53.3407 303.197 53.1867 303.431 53.056C303.664 52.916 303.93 52.8087 304.229 52.734C304.527 52.65 304.859 52.608 305.223 52.608C306.072 52.608 306.744 52.8227 307.239 53.252C307.743 53.6813 307.995 54.2787 307.995 55.044V59.02H309.003V60H308.233ZM304.901 59.23C305.19 59.23 305.451 59.1973 305.685 59.132C305.927 59.0573 306.137 58.964 306.315 58.852C306.492 58.7307 306.627 58.5907 306.721 58.432C306.823 58.264 306.875 58.0867 306.875 57.9V56.71H305.335C304.663 56.71 304.173 56.8033 303.865 56.99C303.557 57.1767 303.403 57.4473 303.403 57.802V58.096C303.403 58.4693 303.533 58.754 303.795 58.95C304.065 59.1367 304.434 59.23 304.901 59.23ZM310.775 59.048H312.889V53.728H310.775V52.776H314.009V54.596H314.079C314.229 54.0267 314.509 53.5833 314.919 53.266C315.339 52.9393 315.871 52.776 316.515 52.776H317.523V53.896H316.165C315.521 53.896 314.999 54.0827 314.597 54.456C314.205 54.8293 314.009 55.3193 314.009 55.926V59.048H316.809V60H310.775V59.048ZM327.858 49.64H328.978V53.952H329.034C329.109 53.7747 329.202 53.6067 329.314 53.448C329.426 53.28 329.562 53.1353 329.72 53.014C329.888 52.8927 330.084 52.7947 330.308 52.72C330.532 52.6453 330.794 52.608 331.092 52.608C331.848 52.608 332.455 52.8507 332.912 53.336C333.37 53.812 333.598 54.4887 333.598 55.366V60H332.478V55.562C332.478 54.8993 332.334 54.4093 332.044 54.092C331.755 53.7653 331.33 53.602 330.77 53.602C330.546 53.602 330.327 53.63 330.112 53.686C329.898 53.742 329.706 53.826 329.538 53.938C329.37 54.05 329.235 54.1947 329.132 54.372C329.03 54.5493 328.978 54.7547 328.978 54.988V60H327.858V49.64ZM339.081 60.168C338.577 60.168 338.12 60.0793 337.709 59.902C337.308 59.7247 336.962 59.4727 336.673 59.146C336.393 58.81 336.178 58.4133 336.029 57.956C335.88 57.4893 335.805 56.9667 335.805 56.388C335.805 55.8187 335.88 55.3007 336.029 54.834C336.178 54.3673 336.393 53.9707 336.673 53.644C336.962 53.308 337.308 53.0513 337.709 52.874C338.12 52.6967 338.577 52.608 339.081 52.608C339.585 52.608 340.038 52.6967 340.439 52.874C340.85 53.0513 341.195 53.308 341.475 53.644C341.764 53.9707 341.984 54.3673 342.133 54.834C342.282 55.3007 342.357 55.8187 342.357 56.388C342.357 56.9667 342.282 57.4893 342.133 57.956C341.984 58.4133 341.764 58.81 341.475 59.146C341.195 59.4727 340.85 59.7247 340.439 59.902C340.038 60.0793 339.585 60.168 339.081 60.168ZM339.081 59.202C339.706 59.202 340.21 59.0153 340.593 58.642C340.976 58.2687 341.167 57.69 341.167 56.906V55.87C341.167 55.086 340.976 54.5073 340.593 54.134C340.21 53.7607 339.706 53.574 339.081 53.574C338.456 53.574 337.952 53.7607 337.569 54.134C337.186 54.5073 336.995 55.086 336.995 55.87V56.906C336.995 57.69 337.186 58.2687 337.569 58.642C337.952 59.0153 338.456 59.202 339.081 59.202ZM344.605 52.776H345.725V53.952H345.781C346.248 53.056 346.99 52.608 348.007 52.608C348.894 52.608 349.585 52.9393 350.079 53.602C350.583 54.2647 350.835 55.1933 350.835 56.388C350.835 57.5827 350.583 58.5113 350.079 59.174C349.585 59.8367 348.894 60.168 348.007 60.168C346.99 60.168 346.248 59.72 345.781 58.824H345.725V62.8H344.605V52.776ZM347.573 59.174C348.227 59.174 348.731 58.978 349.085 58.586C349.449 58.1847 349.631 57.6573 349.631 57.004V55.772C349.631 55.1187 349.449 54.596 349.085 54.204C348.731 53.8027 348.227 53.602 347.573 53.602C347.321 53.602 347.083 53.6347 346.859 53.7C346.635 53.7653 346.439 53.8633 346.271 53.994C346.103 54.1153 345.968 54.2693 345.865 54.456C345.772 54.6333 345.725 54.8433 345.725 55.086V57.69C345.725 57.9327 345.772 58.1473 345.865 58.334C345.968 58.5113 346.103 58.6653 346.271 58.796C346.439 58.9173 346.635 59.0107 346.859 59.076C347.083 59.1413 347.321 59.174 347.573 59.174Z" fill="black"/>
<rect x="245" y="32" width="121" height="46" rx="5" stroke="#14AE5C" stroke-width="2"/>
<path d="M398.378 16V5.81818H402.008C402.797 5.81818 403.451 5.95407 403.971 6.22585C404.495 6.49763 404.886 6.87382 405.145 7.3544C405.403 7.83168 405.533 8.38352 405.533 9.00994C405.533 9.63305 405.402 10.1816 405.14 10.6555C404.881 11.1262 404.49 11.4924 403.967 11.7543C403.446 12.0161 402.792 12.147 402.003 12.147H399.253V10.8246H401.864C402.361 10.8246 402.765 10.7533 403.077 10.6108C403.391 10.4683 403.622 10.2611 403.768 9.98935C403.913 9.71757 403.986 9.3911 403.986 9.00994C403.986 8.62547 403.912 8.29238 403.763 8.01065C403.617 7.72893 403.386 7.51349 403.072 7.36435C402.76 7.21188 402.351 7.13565 401.844 7.13565H399.915V16H398.378ZM403.405 11.4062L405.92 16H404.17L401.704 11.4062H403.405ZM410.212 16.1541C409.46 16.1541 408.812 15.9934 408.268 15.6719C407.728 15.3471 407.31 14.8913 407.015 14.3047C406.724 13.7147 406.578 13.0237 406.578 12.2315C406.578 11.4493 406.724 10.7599 407.015 10.1634C407.31 9.56676 407.721 9.10109 408.248 8.76633C408.779 8.43158 409.398 8.2642 410.108 8.2642C410.539 8.2642 410.956 8.33546 411.36 8.47798C411.765 8.6205 412.128 8.84422 412.449 9.14915C412.771 9.45407 413.024 9.85014 413.21 10.3374C413.396 10.8213 413.488 11.4096 413.488 12.1023V12.6293H407.418V11.5156H412.032C412.032 11.1245 411.952 10.7782 411.793 10.4766C411.634 10.1716 411.41 9.93134 411.122 9.75568C410.837 9.58002 410.502 9.49219 410.118 9.49219C409.7 9.49219 409.335 9.59493 409.024 9.80043C408.716 10.0026 408.477 10.2678 408.308 10.5959C408.142 10.9207 408.059 11.2737 408.059 11.6548V12.5249C408.059 13.0353 408.149 13.4695 408.328 13.8274C408.51 14.1854 408.764 14.4588 409.088 14.6477C409.413 14.8333 409.793 14.9261 410.227 14.9261C410.509 14.9261 410.766 14.8864 410.998 14.8068C411.23 14.724 411.43 14.6013 411.599 14.4389C411.768 14.2765 411.897 14.076 411.987 13.8374L413.394 14.0909C413.281 14.5052 413.079 14.8681 412.787 15.1797C412.499 15.4879 412.136 15.7282 411.699 15.9006C411.264 16.0696 410.769 16.1541 410.212 16.1541ZM418.088 16.1541C417.349 16.1541 416.713 15.9867 416.179 15.652C415.649 15.3139 415.241 14.8482 414.956 14.255C414.671 13.6617 414.529 12.9822 414.529 12.2166C414.529 11.4411 414.674 10.7566 414.966 10.1634C415.258 9.56676 415.669 9.10109 416.199 8.76633C416.729 8.43158 417.354 8.2642 418.073 8.2642C418.653 8.2642 419.17 8.37192 419.624 8.58736C420.079 8.79948 420.445 9.09777 420.723 9.48224C421.005 9.86671 421.172 10.3158 421.225 10.8295H419.779C419.699 10.4716 419.517 10.1634 419.232 9.90483C418.95 9.64631 418.572 9.51705 418.098 9.51705C417.684 9.51705 417.321 9.62642 417.009 9.84517C416.701 10.0606 416.461 10.3688 416.289 10.7699C416.116 11.1676 416.03 11.6383 416.03 12.1818C416.03 12.7386 416.115 13.2192 416.284 13.6236C416.453 14.0279 416.691 14.3411 416.999 14.5632C417.311 14.7853 417.677 14.8963 418.098 14.8963C418.38 14.8963 418.635 14.8449 418.864 14.7422C419.096 14.6361 419.29 14.4853 419.446 14.2898C419.605 14.0942 419.716 13.8589 419.779 13.5838H421.225C421.172 14.0777 421.012 14.5185 420.743 14.9062C420.475 15.294 420.115 15.599 419.664 15.821C419.217 16.0431 418.691 16.1541 418.088 16.1541ZM425.84 16.1541C425.088 16.1541 424.44 15.9934 423.896 15.6719C423.356 15.3471 422.938 14.8913 422.643 14.3047C422.352 13.7147 422.206 13.0237 422.206 12.2315C422.206 11.4493 422.352 10.7599 422.643 10.1634C422.938 9.56676 423.349 9.10109 423.876 8.76633C424.407 8.43158 425.027 8.2642 425.736 8.2642C426.167 8.2642 426.584 8.33546 426.989 8.47798C427.393 8.6205 427.756 8.84422 428.077 9.14915C428.399 9.45407 428.652 9.85014 428.838 10.3374C429.024 10.8213 429.116 11.4096 429.116 12.1023V12.6293H423.046V11.5156H427.66C427.66 11.1245 427.58 10.7782 427.421 10.4766C427.262 10.1716 427.038 9.93134 426.75 9.75568C426.465 9.58002 426.13 9.49219 425.746 9.49219C425.328 9.49219 424.964 9.59493 424.652 9.80043C424.344 10.0026 424.105 10.2678 423.936 10.5959C423.77 10.9207 423.688 11.2737 423.688 11.6548V12.5249C423.688 13.0353 423.777 13.4695 423.956 13.8274C424.138 14.1854 424.392 14.4588 424.717 14.6477C425.041 14.8333 425.421 14.9261 425.855 14.9261C426.137 14.9261 426.394 14.8864 426.626 14.8068C426.858 14.724 427.058 14.6013 427.227 14.4389C427.396 14.2765 427.526 14.076 427.615 13.8374L429.022 14.0909C428.909 14.5052 428.707 14.8681 428.415 15.1797C428.127 15.4879 427.764 15.7282 427.327 15.9006C426.893 16.0696 426.397 16.1541 425.84 16.1541ZM430.5 16V8.36364H431.986V16H430.5ZM431.251 7.18537C430.992 7.18537 430.77 7.09919 430.584 6.92685C430.402 6.75118 430.311 6.54238 430.311 6.30043C430.311 6.05516 430.402 5.84635 430.584 5.67401C430.77 5.49834 430.992 5.41051 431.251 5.41051C431.509 5.41051 431.729 5.49834 431.912 5.67401C432.097 5.84635 432.19 6.05516 432.19 6.30043C432.19 6.54238 432.097 6.75118 431.912 6.92685C431.729 7.09919 431.509 7.18537 431.251 7.18537ZM440.253 8.36364L437.484 16H435.893L433.119 8.36364H434.714L436.648 14.2401H436.728L438.657 8.36364H440.253ZM444.415 16.1541C443.663 16.1541 443.015 15.9934 442.471 15.6719C441.931 15.3471 441.514 14.8913 441.219 14.3047C440.927 13.7147 440.781 13.0237 440.781 12.2315C440.781 11.4493 440.927 10.7599 441.219 10.1634C441.514 9.56676 441.924 9.10109 442.451 8.76633C442.982 8.43158 443.602 8.2642 444.311 8.2642C444.742 8.2642 445.159 8.33546 445.564 8.47798C445.968 8.6205 446.331 8.84422 446.652 9.14915C446.974 9.45407 447.228 9.85014 447.413 10.3374C447.599 10.8213 447.692 11.4096 447.692 12.1023V12.6293H441.621V11.5156H446.235C446.235 11.1245 446.155 10.7782 445.996 10.4766C445.837 10.1716 445.613 9.93134 445.325 9.75568C445.04 9.58002 444.705 9.49219 444.321 9.49219C443.903 9.49219 443.539 9.59493 443.227 9.80043C442.919 10.0026 442.68 10.2678 442.511 10.5959C442.345 10.9207 442.263 11.2737 442.263 11.6548V12.5249C442.263 13.0353 442.352 13.4695 442.531 13.8274C442.713 14.1854 442.967 14.4588 443.292 14.6477C443.616 14.8333 443.996 14.9261 444.43 14.9261C444.712 14.9261 444.969 14.8864 445.201 14.8068C445.433 14.724 445.633 14.6013 445.802 14.4389C445.971 14.2765 446.101 14.076 446.19 13.8374L447.597 14.0909C447.484 14.5052 447.282 14.8681 446.991 15.1797C446.702 15.4879 446.339 15.7282 445.902 15.9006C445.468 16.0696 444.972 16.1541 444.415 16.1541ZM449.075 16V8.36364H450.512V9.5767H450.591C450.73 9.16572 450.976 8.84257 451.327 8.60724C451.682 8.36861 452.083 8.24929 452.53 8.24929C452.623 8.24929 452.732 8.2526 452.858 8.25923C452.988 8.26586 453.089 8.27415 453.162 8.28409V9.70597C453.102 9.68939 452.996 9.67116 452.843 9.65128C452.691 9.62808 452.538 9.61648 452.386 9.61648C452.035 9.61648 451.721 9.69105 451.446 9.8402C451.175 9.98603 450.959 10.1899 450.8 10.4517C450.641 10.7102 450.561 11.0052 450.561 11.3366V16H449.075ZM463.294 8.4929C463.241 8.02225 463.022 7.65767 462.637 7.39915C462.253 7.13731 461.769 7.00639 461.186 7.00639C460.768 7.00639 460.407 7.07268 460.102 7.20526C459.797 7.33452 459.56 7.51349 459.391 7.74219C459.225 7.96757 459.142 8.22443 459.142 8.51278C459.142 8.75473 459.199 8.96354 459.311 9.1392C459.427 9.31487 459.578 9.46236 459.764 9.58168C459.953 9.69768 460.155 9.79545 460.37 9.875C460.586 9.95123 460.793 10.0142 460.992 10.0639L461.986 10.3224C462.311 10.402 462.644 10.5097 462.985 10.6456C463.327 10.7815 463.643 10.9605 463.935 11.1825C464.227 11.4046 464.462 11.6797 464.641 12.0078C464.823 12.3359 464.914 12.7287 464.914 13.1861C464.914 13.7628 464.765 14.2749 464.467 14.7223C464.172 15.1697 463.743 15.5227 463.179 15.7812C462.619 16.0398 461.941 16.169 461.146 16.169C460.384 16.169 459.724 16.0481 459.167 15.8061C458.61 15.5642 458.174 15.2211 457.86 14.777C457.545 14.3295 457.371 13.7992 457.338 13.1861H458.879C458.909 13.554 459.028 13.8606 459.237 14.1058C459.449 14.3478 459.719 14.5284 460.047 14.6477C460.379 14.7637 460.741 14.8217 461.136 14.8217C461.57 14.8217 461.956 14.7538 462.294 14.6179C462.636 14.4787 462.904 14.2865 463.1 14.0412C463.295 13.7926 463.393 13.5026 463.393 13.1712C463.393 12.8696 463.307 12.6226 463.134 12.4304C462.965 12.2382 462.735 12.0791 462.443 11.9531C462.155 11.8272 461.829 11.7161 461.464 11.62L460.261 11.2919C459.446 11.0698 458.799 10.7434 458.322 10.3125C457.848 9.88163 457.611 9.31155 457.611 8.60227C457.611 8.01562 457.77 7.50355 458.088 7.06605C458.406 6.62855 458.837 6.28883 459.381 6.04688C459.924 5.80161 460.538 5.67898 461.22 5.67898C461.91 5.67898 462.518 5.79995 463.045 6.0419C463.575 6.28385 463.993 6.61695 464.298 7.04119C464.603 7.46212 464.762 7.94602 464.775 8.4929H463.294ZM469.656 16.1541C468.904 16.1541 468.256 15.9934 467.712 15.6719C467.172 15.3471 466.754 14.8913 466.459 14.3047C466.168 13.7147 466.022 13.0237 466.022 12.2315C466.022 11.4493 466.168 10.7599 466.459 10.1634C466.754 9.56676 467.165 9.10109 467.692 8.76633C468.222 8.43158 468.842 8.2642 469.552 8.2642C469.982 8.2642 470.4 8.33546 470.804 8.47798C471.209 8.6205 471.572 8.84422 471.893 9.14915C472.215 9.45407 472.468 9.85014 472.654 10.3374C472.839 10.8213 472.932 11.4096 472.932 12.1023V12.6293H466.862V11.5156H471.476C471.476 11.1245 471.396 10.7782 471.237 10.4766C471.078 10.1716 470.854 9.93134 470.566 9.75568C470.281 9.58002 469.946 9.49219 469.561 9.49219C469.144 9.49219 468.779 9.59493 468.468 9.80043C468.159 10.0026 467.921 10.2678 467.752 10.5959C467.586 10.9207 467.503 11.2737 467.503 11.6548V12.5249C467.503 13.0353 467.593 13.4695 467.772 13.8274C467.954 14.1854 468.208 14.4588 468.532 14.6477C468.857 14.8333 469.237 14.9261 469.671 14.9261C469.953 14.9261 470.209 14.8864 470.441 14.8068C470.673 14.724 470.874 14.6013 471.043 14.4389C471.212 14.2765 471.341 14.076 471.431 13.8374L472.838 14.0909C472.725 14.5052 472.523 14.8681 472.231 15.1797C471.943 15.4879 471.58 15.7282 471.142 15.9006C470.708 16.0696 470.213 16.1541 469.656 16.1541ZM475.802 5.81818V16H474.316V5.81818H475.802ZM480.827 16.1541C480.075 16.1541 479.427 15.9934 478.883 15.6719C478.343 15.3471 477.925 14.8913 477.63 14.3047C477.339 13.7147 477.193 13.0237 477.193 12.2315C477.193 11.4493 477.339 10.7599 477.63 10.1634C477.925 9.56676 478.336 9.10109 478.863 8.76633C479.394 8.43158 480.013 8.2642 480.723 8.2642C481.154 8.2642 481.571 8.33546 481.976 8.47798C482.38 8.6205 482.743 8.84422 483.064 9.14915C483.386 9.45407 483.639 9.85014 483.825 10.3374C484.011 10.8213 484.103 11.4096 484.103 12.1023V12.6293H478.033V11.5156H482.647C482.647 11.1245 482.567 10.7782 482.408 10.4766C482.249 10.1716 482.025 9.93134 481.737 9.75568C481.452 9.58002 481.117 9.49219 480.733 9.49219C480.315 9.49219 479.95 9.59493 479.639 9.80043C479.331 10.0026 479.092 10.2678 478.923 10.5959C478.757 10.9207 478.674 11.2737 478.674 11.6548V12.5249C478.674 13.0353 478.764 13.4695 478.943 13.8274C479.125 14.1854 479.379 14.4588 479.703 14.6477C480.028 14.8333 480.408 14.9261 480.842 14.9261C481.124 14.9261 481.381 14.8864 481.613 14.8068C481.845 14.724 482.045 14.6013 482.214 14.4389C482.383 14.2765 482.512 14.076 482.602 13.8374L484.009 14.0909C483.896 14.5052 483.694 14.8681 483.402 15.1797C483.114 15.4879 482.751 15.7282 482.314 15.9006C481.879 16.0696 481.384 16.1541 480.827 16.1541ZM488.703 16.1541C487.964 16.1541 487.328 15.9867 486.794 15.652C486.264 15.3139 485.856 14.8482 485.571 14.255C485.286 13.6617 485.144 12.9822 485.144 12.2166C485.144 11.4411 485.289 10.7566 485.581 10.1634C485.873 9.56676 486.284 9.10109 486.814 8.76633C487.344 8.43158 487.969 8.2642 488.688 8.2642C489.268 8.2642 489.785 8.37192 490.24 8.58736C490.694 8.79948 491.06 9.09777 491.338 9.48224C491.62 9.86671 491.787 10.3158 491.84 10.8295H490.394C490.314 10.4716 490.132 10.1634 489.847 9.90483C489.565 9.64631 489.187 9.51705 488.713 9.51705C488.299 9.51705 487.936 9.62642 487.624 9.84517C487.316 10.0606 487.076 10.3688 486.904 10.7699C486.731 11.1676 486.645 11.6383 486.645 12.1818C486.645 12.7386 486.73 13.2192 486.899 13.6236C487.068 14.0279 487.306 14.3411 487.615 14.5632C487.926 14.7853 488.292 14.8963 488.713 14.8963C488.995 14.8963 489.25 14.8449 489.479 14.7422C489.711 14.6361 489.905 14.4853 490.061 14.2898C490.22 14.0942 490.331 13.8589 490.394 13.5838H491.84C491.787 14.0777 491.627 14.5185 491.358 14.9062C491.09 15.294 490.73 15.599 490.279 15.821C489.832 16.0431 489.307 16.1541 488.703 16.1541ZM496.729 8.36364V9.55682H492.557V8.36364H496.729ZM493.676 6.53409H495.163V13.7578C495.163 14.0462 495.206 14.2633 495.292 14.4091C495.378 14.5516 495.489 14.6494 495.625 14.7024C495.764 14.7521 495.915 14.777 496.077 14.777C496.197 14.777 496.301 14.7687 496.391 14.7521C496.48 14.7356 496.55 14.7223 496.599 14.7124L496.868 15.9403C496.782 15.9735 496.659 16.0066 496.5 16.0398C496.341 16.0762 496.142 16.0961 495.903 16.0994C495.512 16.1061 495.148 16.0365 494.81 15.8906C494.472 15.7448 494.198 15.5194 493.989 15.2145C493.781 14.9096 493.676 14.5268 493.676 14.0661V6.53409ZM501.316 16.1541C500.564 16.1541 499.916 15.9934 499.372 15.6719C498.832 15.3471 498.414 14.8913 498.119 14.3047C497.828 13.7147 497.682 13.0237 497.682 12.2315C497.682 11.4493 497.828 10.7599 498.119 10.1634C498.414 9.56676 498.825 9.10109 499.352 8.76633C499.883 8.43158 500.502 8.2642 501.212 8.2642C501.643 8.2642 502.06 8.33546 502.465 8.47798C502.869 8.6205 503.232 8.84422 503.553 9.14915C503.875 9.45407 504.128 9.85014 504.314 10.3374C504.5 10.8213 504.592 11.4096 504.592 12.1023V12.6293H498.522V11.5156H503.136C503.136 11.1245 503.056 10.7782 502.897 10.4766C502.738 10.1716 502.514 9.93134 502.226 9.75568C501.941 9.58002 501.606 9.49219 501.222 9.49219C500.804 9.49219 500.44 9.59493 500.128 9.80043C499.82 10.0026 499.581 10.2678 499.412 10.5959C499.246 10.9207 499.163 11.2737 499.163 11.6548V12.5249C499.163 13.0353 499.253 13.4695 499.432 13.8274C499.614 14.1854 499.868 14.4588 500.193 14.6477C500.517 14.8333 500.897 14.9261 501.331 14.9261C501.613 14.9261 501.87 14.8864 502.102 14.8068C502.334 14.724 502.534 14.6013 502.703 14.4389C502.872 14.2765 503.002 14.076 503.091 13.8374L504.498 14.0909C504.385 14.5052 504.183 14.8681 503.891 15.1797C503.603 15.4879 503.24 15.7282 502.803 15.9006C502.368 16.0696 501.873 16.1541 501.316 16.1541ZM508.834 16.1491C508.218 16.1491 507.668 15.9917 507.184 15.6768C506.703 15.3587 506.325 14.9062 506.05 14.3196C505.779 13.7296 505.643 13.022 505.643 12.1967C505.643 11.3714 505.78 10.6655 506.055 10.0788C506.334 9.49219 506.715 9.04309 507.199 8.73153C507.683 8.41998 508.231 8.2642 508.844 8.2642C509.318 8.2642 509.7 8.34375 509.988 8.50284C510.28 8.65862 510.505 8.84091 510.664 9.04972C510.826 9.25852 510.952 9.44247 511.042 9.60156H511.131V5.81818H512.618V16H511.166V14.8118H511.042C510.952 14.9742 510.823 15.1598 510.654 15.3686C510.488 15.5774 510.26 15.7597 509.968 15.9155C509.676 16.0713 509.298 16.1491 508.834 16.1491ZM509.163 14.8814C509.59 14.8814 509.951 14.7687 510.246 14.5433C510.545 14.3146 510.77 13.9981 510.923 13.5938C511.078 13.1894 511.156 12.7187 511.156 12.1818C511.156 11.6515 511.08 11.1875 510.927 10.7898C510.775 10.392 510.551 10.0821 510.256 9.86009C509.961 9.63802 509.597 9.52699 509.163 9.52699C508.715 9.52699 508.342 9.64299 508.044 9.875C507.746 10.107 507.52 10.4235 507.368 10.8246C507.219 11.2256 507.144 11.678 507.144 12.1818C507.144 12.6922 507.22 13.1513 507.373 13.5589C507.525 13.9666 507.751 14.2898 508.049 14.5284C508.351 14.7637 508.722 14.8814 509.163 14.8814Z" fill="#888888"/>
<rect x="398" y="32" width="180" height="46" rx="5" fill="#DBF0FF"/>
<path d="M413.625 60V59.062H416.061V51.166H413.625V50.228H419.673V51.166H417.237V59.062H419.673V60H413.625ZM422.216 60V52.776H423.336V53.952H423.392C423.466 53.7747 423.56 53.6067 423.672 53.448C423.784 53.28 423.919 53.1353 424.078 53.014C424.246 52.8927 424.442 52.7947 424.666 52.72C424.89 52.6453 425.151 52.608 425.45 52.608C426.206 52.608 426.812 52.8507 427.27 53.336C427.727 53.812 427.956 54.4887 427.956 55.366V60H426.836V55.562C426.836 54.8993 426.691 54.4093 426.402 54.092C426.112 53.7653 425.688 53.602 425.128 53.602C424.904 53.602 424.684 53.63 424.47 53.686C424.255 53.742 424.064 53.826 423.896 53.938C423.728 54.05 423.592 54.1947 423.49 54.372C423.387 54.5493 423.336 54.7547 423.336 54.988V60H422.216ZM433.788 60C433.238 60 432.832 59.846 432.57 59.538C432.318 59.23 432.192 58.8333 432.192 58.348V53.728H429.784V52.776H431.576C431.819 52.776 431.987 52.7293 432.08 52.636C432.183 52.5333 432.234 52.3607 432.234 52.118V50.228H433.312V52.776H436.602V53.728H433.312V59.048H436.602V60H433.788ZM438.711 59.048H440.825V53.728H438.711V52.776H441.945V54.596H442.015C442.164 54.0267 442.444 53.5833 442.855 53.266C443.275 52.9393 443.807 52.776 444.451 52.776H445.459V53.896H444.101C443.457 53.896 442.934 54.0827 442.533 54.456C442.141 54.8293 441.945 55.3193 441.945 55.926V59.048H444.745V60H438.711V59.048ZM450.227 60.168C449.723 60.168 449.266 60.0793 448.855 59.902C448.454 59.7247 448.109 59.4727 447.819 59.146C447.539 58.81 447.325 58.4133 447.175 57.956C447.026 57.4893 446.951 56.9667 446.951 56.388C446.951 55.8187 447.026 55.3007 447.175 54.834C447.325 54.3673 447.539 53.9707 447.819 53.644C448.109 53.308 448.454 53.0513 448.855 52.874C449.266 52.6967 449.723 52.608 450.227 52.608C450.731 52.608 451.184 52.6967 451.585 52.874C451.996 53.0513 452.341 53.308 452.621 53.644C452.911 53.9707 453.13 54.3673 453.279 54.834C453.429 55.3007 453.503 55.8187 453.503 56.388C453.503 56.9667 453.429 57.4893 453.279 57.956C453.13 58.4133 452.911 58.81 452.621 59.146C452.341 59.4727 451.996 59.7247 451.585 59.902C451.184 60.0793 450.731 60.168 450.227 60.168ZM450.227 59.202C450.853 59.202 451.357 59.0153 451.739 58.642C452.122 58.2687 452.313 57.69 452.313 56.906V55.87C452.313 55.086 452.122 54.5073 451.739 54.134C451.357 53.7607 450.853 53.574 450.227 53.574C449.602 53.574 449.098 53.7607 448.715 54.134C448.333 54.5073 448.141 55.086 448.141 55.87V56.906C448.141 57.69 448.333 58.2687 448.715 58.642C449.098 59.0153 449.602 59.202 450.227 59.202ZM460.372 58.824H460.316C459.849 59.72 459.107 60.168 458.09 60.168C457.203 60.168 456.508 59.8367 456.004 59.174C455.509 58.5113 455.262 57.5827 455.262 56.388C455.262 55.1933 455.509 54.2647 456.004 53.602C456.508 52.9393 457.203 52.608 458.09 52.608C459.107 52.608 459.849 53.056 460.316 53.952H460.372V49.64H461.492V60H460.372V58.824ZM458.524 59.174C458.776 59.174 459.014 59.1413 459.238 59.076C459.462 59.0107 459.658 58.9173 459.826 58.796C459.994 58.6653 460.125 58.5113 460.218 58.334C460.321 58.1473 460.372 57.9327 460.372 57.69V55.086C460.372 54.8433 460.321 54.6333 460.218 54.456C460.125 54.2693 459.994 54.1153 459.826 53.994C459.658 53.8633 459.462 53.7653 459.238 53.7C459.014 53.6347 458.776 53.602 458.524 53.602C457.871 53.602 457.362 53.8027 456.998 54.204C456.643 54.596 456.466 55.1187 456.466 55.772V57.004C456.466 57.6573 456.643 58.1847 456.998 58.586C457.362 58.978 457.871 59.174 458.524 59.174ZM468.724 58.824H468.668C468.594 59.0013 468.5 59.174 468.388 59.342C468.276 59.5007 468.136 59.6407 467.968 59.762C467.81 59.8833 467.618 59.9813 467.394 60.056C467.17 60.1307 466.909 60.168 466.61 60.168C465.854 60.168 465.248 59.93 464.79 59.454C464.333 58.9687 464.104 58.2873 464.104 57.41V52.776H465.224V57.214C465.224 57.8767 465.369 58.3713 465.658 58.698C465.948 59.0153 466.372 59.174 466.932 59.174C467.156 59.174 467.376 59.146 467.59 59.09C467.805 59.034 467.996 58.95 468.164 58.838C468.332 58.726 468.468 58.586 468.57 58.418C468.673 58.2407 468.724 58.0307 468.724 57.788V52.776H469.844V60H468.724V58.824ZM475.663 60.168C475.14 60.168 474.674 60.0793 474.263 59.902C473.862 59.7153 473.521 59.4587 473.241 59.132C472.961 58.8053 472.746 58.4087 472.597 57.942C472.457 57.4753 472.387 56.9573 472.387 56.388C472.387 55.8187 472.462 55.3007 472.611 54.834C472.76 54.3673 472.975 53.9707 473.255 53.644C473.535 53.308 473.876 53.0513 474.277 52.874C474.678 52.6967 475.136 52.608 475.649 52.608C476.349 52.608 476.918 52.762 477.357 53.07C477.796 53.378 478.118 53.7793 478.323 54.274L477.427 54.75C477.296 54.3767 477.077 54.0873 476.769 53.882C476.47 53.6767 476.097 53.574 475.649 53.574C475.322 53.574 475.028 53.63 474.767 53.742C474.515 53.8447 474.3 53.994 474.123 54.19C473.946 54.386 473.81 54.6193 473.717 54.89C473.633 55.1607 473.591 55.4547 473.591 55.772V57.004C473.591 57.3213 473.633 57.6153 473.717 57.886C473.81 58.1567 473.946 58.39 474.123 58.586C474.3 58.782 474.52 58.936 474.781 59.048C475.042 59.1507 475.341 59.202 475.677 59.202C476.162 59.202 476.564 59.09 476.881 58.866C477.198 58.642 477.45 58.334 477.637 57.942L478.435 58.488C478.22 58.9733 477.884 59.3747 477.427 59.692C476.979 60.0093 476.391 60.168 475.663 60.168ZM484.155 60C483.605 60 483.199 59.846 482.937 59.538C482.685 59.23 482.559 58.8333 482.559 58.348V53.728H480.151V52.776H481.943C482.186 52.776 482.354 52.7293 482.447 52.636C482.55 52.5333 482.601 52.3607 482.601 52.118V50.228H483.679V52.776H486.969V53.728H483.679V59.048H486.969V60H484.155ZM492.648 51.18C492.321 51.18 492.093 51.1147 491.962 50.984C491.831 50.844 491.766 50.6713 491.766 50.466V50.242C491.766 50.0367 491.831 49.8687 491.962 49.738C492.093 49.598 492.321 49.528 492.648 49.528C492.975 49.528 493.203 49.598 493.334 49.738C493.465 49.8687 493.53 50.0367 493.53 50.242V50.466C493.53 50.6713 493.465 50.844 493.334 50.984C493.203 51.1147 492.975 51.18 492.648 51.18ZM489.484 59.048H492.088V53.728H489.484V52.776H493.208V59.048H495.644V60H489.484V59.048ZM500.595 60.168C500.091 60.168 499.633 60.0793 499.223 59.902C498.821 59.7247 498.476 59.4727 498.187 59.146C497.907 58.81 497.692 58.4133 497.543 57.956C497.393 57.4893 497.319 56.9667 497.319 56.388C497.319 55.8187 497.393 55.3007 497.543 54.834C497.692 54.3673 497.907 53.9707 498.187 53.644C498.476 53.308 498.821 53.0513 499.223 52.874C499.633 52.6967 500.091 52.608 500.595 52.608C501.099 52.608 501.551 52.6967 501.953 52.874C502.363 53.0513 502.709 53.308 502.989 53.644C503.278 53.9707 503.497 54.3673 503.647 54.834C503.796 55.3007 503.871 55.8187 503.871 56.388C503.871 56.9667 503.796 57.4893 503.647 57.956C503.497 58.4133 503.278 58.81 502.989 59.146C502.709 59.4727 502.363 59.7247 501.953 59.902C501.551 60.0793 501.099 60.168 500.595 60.168ZM500.595 59.202C501.22 59.202 501.724 59.0153 502.107 58.642C502.489 58.2687 502.681 57.69 502.681 56.906V55.87C502.681 55.086 502.489 54.5073 502.107 54.134C501.724 53.7607 501.22 53.574 500.595 53.574C499.969 53.574 499.465 53.7607 499.083 54.134C498.7 54.5073 498.509 55.086 498.509 55.87V56.906C498.509 57.69 498.7 58.2687 499.083 58.642C499.465 59.0153 499.969 59.202 500.595 59.202ZM506.161 60V52.776H507.281V53.952H507.337C507.412 53.7747 507.505 53.6067 507.617 53.448C507.729 53.28 507.864 53.1353 508.023 53.014C508.191 52.8927 508.387 52.7947 508.611 52.72C508.835 52.6453 509.096 52.608 509.395 52.608C510.151 52.608 510.758 52.8507 511.215 53.336C511.672 53.812 511.901 54.4887 511.901 55.366V60H510.781V55.562C510.781 54.8993 510.636 54.4093 510.347 54.092C510.058 53.7653 509.633 53.602 509.073 53.602C508.849 53.602 508.63 53.63 508.415 53.686C508.2 53.742 508.009 53.826 507.841 53.938C507.673 54.05 507.538 54.1947 507.435 54.372C507.332 54.5493 507.281 54.7547 507.281 54.988V60H506.161ZM522.908 52.776H524.028V53.952H524.084C524.551 53.056 525.293 52.608 526.31 52.608C527.197 52.608 527.887 52.9393 528.382 53.602C528.886 54.2647 529.138 55.1933 529.138 56.388C529.138 57.5827 528.886 58.5113 528.382 59.174C527.887 59.8367 527.197 60.168 526.31 60.168C525.293 60.168 524.551 59.72 524.084 58.824H524.028V62.8H522.908V52.776ZM525.876 59.174C526.529 59.174 527.033 58.978 527.388 58.586C527.752 58.1847 527.934 57.6573 527.934 57.004V55.772C527.934 55.1187 527.752 54.596 527.388 54.204C527.033 53.8027 526.529 53.602 525.876 53.602C525.624 53.602 525.386 53.6347 525.162 53.7C524.938 53.7653 524.742 53.8633 524.574 53.994C524.406 54.1153 524.271 54.2693 524.168 54.456C524.075 54.6333 524.028 54.8433 524.028 55.086V57.69C524.028 57.9327 524.075 58.1473 524.168 58.334C524.271 58.5113 524.406 58.6653 524.574 58.796C524.742 58.9173 524.938 59.0107 525.162 59.076C525.386 59.1413 525.624 59.174 525.876 59.174ZM534.173 60.168C533.669 60.168 533.211 60.0793 532.801 59.902C532.399 59.7247 532.054 59.4727 531.765 59.146C531.485 58.81 531.27 58.4133 531.121 57.956C530.971 57.4893 530.897 56.9667 530.897 56.388C530.897 55.8187 530.971 55.3007 531.121 54.834C531.27 54.3673 531.485 53.9707 531.765 53.644C532.054 53.308 532.399 53.0513 532.801 52.874C533.211 52.6967 533.669 52.608 534.173 52.608C534.677 52.608 535.129 52.6967 535.531 52.874C535.941 53.0513 536.287 53.308 536.567 53.644C536.856 53.9707 537.075 54.3673 537.225 54.834C537.374 55.3007 537.449 55.8187 537.449 56.388C537.449 56.9667 537.374 57.4893 537.225 57.956C537.075 58.4133 536.856 58.81 536.567 59.146C536.287 59.4727 535.941 59.7247 535.531 59.902C535.129 60.0793 534.677 60.168 534.173 60.168ZM534.173 59.202C534.798 59.202 535.302 59.0153 535.685 58.642C536.067 58.2687 536.259 57.69 536.259 56.906V55.87C536.259 55.086 536.067 54.5073 535.685 54.134C535.302 53.7607 534.798 53.574 534.173 53.574C533.547 53.574 533.043 53.7607 532.661 54.134C532.278 54.5073 532.087 55.086 532.087 55.87V56.906C532.087 57.69 532.278 58.2687 532.661 58.642C533.043 59.0153 533.547 59.202 534.173 59.202ZM543.015 51.18C542.689 51.18 542.46 51.1147 542.329 50.984C542.199 50.844 542.133 50.6713 542.133 50.466V50.242C542.133 50.0367 542.199 49.8687 542.329 49.738C542.46 49.598 542.689 49.528 543.015 49.528C543.342 49.528 543.571 49.598 543.701 49.738C543.832 49.8687 543.897 50.0367 543.897 50.242V50.466C543.897 50.6713 543.832 50.844 543.701 50.984C543.571 51.1147 543.342 51.18 543.015 51.18ZM539.851 59.048H542.455V53.728H539.851V52.776H543.575V59.048H546.011V60H539.851V59.048ZM548.134 60V52.776H549.254V53.952H549.31C549.384 53.7747 549.478 53.6067 549.59 53.448C549.702 53.28 549.837 53.1353 549.996 53.014C550.164 52.8927 550.36 52.7947 550.584 52.72C550.808 52.6453 551.069 52.608 551.368 52.608C552.124 52.608 552.73 52.8507 553.188 53.336C553.645 53.812 553.874 54.4887 553.874 55.366V60H552.754V55.562C552.754 54.8993 552.609 54.4093 552.32 54.092C552.03 53.7653 551.606 53.602 551.046 53.602C550.822 53.602 550.602 53.63 550.388 53.686C550.173 53.742 549.982 53.826 549.814 53.938C549.646 54.05 549.51 54.1947 549.408 54.372C549.305 54.5493 549.254 54.7547 549.254 54.988V60H548.134ZM559.706 60C559.156 60 558.75 59.846 558.488 59.538C558.236 59.23 558.11 58.8333 558.11 58.348V53.728H555.702V52.776H557.494C557.737 52.776 557.905 52.7293 557.998 52.636C558.101 52.5333 558.152 52.3607 558.152 52.118V50.228H559.23V52.776H562.52V53.728H559.23V59.048H562.52V60H559.706Z" fill="black"/>
<rect x="398" y="32" width="180" height="46" rx="5" stroke="#0D99FF" stroke-width="2"/>
<rect x="398" y="90" width="121" height="46" rx="5" fill="#E5E5E5"/>
<path d="M414.766 118H413.59V108.228H417.146C418.051 108.228 418.742 108.475 419.218 108.97C419.694 109.465 419.932 110.155 419.932 111.042C419.932 111.835 419.727 112.47 419.316 112.946C418.905 113.422 418.308 113.697 417.524 113.772L420.016 118H418.7L416.32 113.828H414.766V118ZM417.118 112.834C417.613 112.834 417.995 112.713 418.266 112.47C418.546 112.218 418.686 111.863 418.686 111.406V110.678C418.686 110.221 418.546 109.871 418.266 109.628C417.995 109.376 417.613 109.25 417.118 109.25H414.766V112.834H417.118ZM425.051 118.168C424.528 118.168 424.057 118.079 423.637 117.902C423.226 117.725 422.871 117.473 422.573 117.146C422.283 116.81 422.059 116.413 421.901 115.956C421.742 115.489 421.663 114.971 421.663 114.402C421.663 113.823 421.742 113.301 421.901 112.834C422.069 112.367 422.297 111.971 422.587 111.644C422.876 111.308 423.221 111.051 423.623 110.874C424.033 110.697 424.486 110.608 424.981 110.608C425.466 110.608 425.905 110.697 426.297 110.874C426.698 111.051 427.039 111.299 427.319 111.616C427.599 111.924 427.813 112.293 427.963 112.722C428.112 113.151 428.187 113.623 428.187 114.136V114.668H422.839V115.004C422.839 115.321 422.89 115.615 422.993 115.886C423.095 116.157 423.24 116.39 423.427 116.586C423.623 116.782 423.856 116.936 424.127 117.048C424.407 117.151 424.715 117.202 425.051 117.202C425.536 117.202 425.956 117.09 426.311 116.866C426.665 116.642 426.936 116.334 427.123 115.942L427.949 116.502C427.734 116.987 427.375 117.389 426.871 117.706C426.376 118.014 425.769 118.168 425.051 118.168ZM424.981 111.532C424.673 111.532 424.388 111.588 424.127 111.7C423.865 111.812 423.637 111.966 423.441 112.162C423.254 112.358 423.105 112.591 422.993 112.862C422.89 113.123 422.839 113.413 422.839 113.73V113.828H426.983V113.674C426.983 113.357 426.931 113.067 426.829 112.806C426.735 112.545 426.6 112.321 426.423 112.134C426.255 111.938 426.045 111.789 425.793 111.686C425.55 111.583 425.279 111.532 424.981 111.532ZM436.973 118.826C436.973 119.554 436.67 120.091 436.063 120.436C435.456 120.791 434.546 120.968 433.333 120.968C432.166 120.968 431.326 120.814 430.813 120.506C430.309 120.198 430.057 119.755 430.057 119.176C430.057 118.784 430.16 118.481 430.365 118.266C430.57 118.051 430.86 117.893 431.233 117.79V117.622C431.028 117.519 430.869 117.389 430.757 117.23C430.645 117.071 430.589 116.871 430.589 116.628C430.589 116.255 430.71 115.975 430.953 115.788C431.205 115.601 431.518 115.461 431.891 115.368V115.312C431.443 115.116 431.093 114.827 430.841 114.444C430.598 114.061 430.477 113.613 430.477 113.1C430.477 112.736 430.542 112.4 430.673 112.092C430.804 111.784 430.99 111.523 431.233 111.308C431.485 111.084 431.784 110.911 432.129 110.79C432.474 110.669 432.857 110.608 433.277 110.608C433.818 110.608 434.294 110.706 434.705 110.902V110.776C434.705 110.496 434.77 110.263 434.901 110.076C435.032 109.889 435.256 109.796 435.573 109.796H436.903V110.776H435.279V111.266C435.54 111.49 435.741 111.756 435.881 112.064C436.021 112.372 436.091 112.717 436.091 113.1C436.091 113.464 436.021 113.8 435.881 114.108C435.75 114.416 435.564 114.682 435.321 114.906C435.078 115.121 434.78 115.289 434.425 115.41C434.08 115.531 433.697 115.592 433.277 115.592C433.156 115.592 433.039 115.587 432.927 115.578C432.815 115.569 432.703 115.555 432.591 115.536C432.479 115.555 432.362 115.587 432.241 115.634C432.12 115.671 432.008 115.727 431.905 115.802C431.802 115.867 431.718 115.947 431.653 116.04C431.588 116.133 431.555 116.241 431.555 116.362C431.555 116.577 431.662 116.721 431.877 116.796C432.092 116.861 432.372 116.894 432.717 116.894H434.313C435.246 116.894 435.923 117.071 436.343 117.426C436.763 117.771 436.973 118.238 436.973 118.826ZM435.923 118.882C435.923 118.593 435.806 118.359 435.573 118.182C435.34 118.014 434.934 117.93 434.355 117.93H431.849C431.364 118.126 431.121 118.453 431.121 118.91C431.121 119.227 431.247 119.498 431.499 119.722C431.751 119.955 432.171 120.072 432.759 120.072H433.851C434.504 120.072 435.013 119.969 435.377 119.764C435.741 119.568 435.923 119.274 435.923 118.882ZM433.277 114.724C433.837 114.724 434.248 114.593 434.509 114.332C434.78 114.071 434.915 113.725 434.915 113.296V112.89C434.915 112.461 434.78 112.12 434.509 111.868C434.248 111.607 433.837 111.476 433.277 111.476C432.717 111.476 432.306 111.607 432.045 111.868C431.784 112.12 431.653 112.461 431.653 112.89V113.296C431.653 113.725 431.784 114.071 432.045 114.332C432.306 114.593 432.717 114.724 433.277 114.724ZM443.422 116.824H443.366C443.291 117.001 443.198 117.174 443.086 117.342C442.974 117.501 442.834 117.641 442.666 117.762C442.507 117.883 442.316 117.981 442.092 118.056C441.868 118.131 441.606 118.168 441.308 118.168C440.552 118.168 439.945 117.93 439.488 117.454C439.03 116.969 438.802 116.287 438.802 115.41V110.776H439.922V115.214C439.922 115.877 440.066 116.371 440.356 116.698C440.645 117.015 441.07 117.174 441.63 117.174C441.854 117.174 442.073 117.146 442.288 117.09C442.502 117.034 442.694 116.95 442.862 116.838C443.03 116.726 443.165 116.586 443.268 116.418C443.37 116.241 443.422 116.031 443.422 115.788V110.776H444.542V118H443.422V116.824ZM447.028 117.048H449.548V108.592H447.028V107.64H450.668V117.048H453.188V118H447.028V117.048ZM461.233 118C460.794 118 460.481 117.888 460.295 117.664C460.108 117.44 459.991 117.16 459.945 116.824H459.875C459.716 117.244 459.459 117.575 459.105 117.818C458.759 118.051 458.293 118.168 457.705 118.168C456.949 118.168 456.347 117.972 455.899 117.58C455.451 117.188 455.227 116.651 455.227 115.97C455.227 115.298 455.469 114.78 455.955 114.416C456.449 114.052 457.243 113.87 458.335 113.87H459.875V113.156C459.875 112.624 459.725 112.227 459.427 111.966C459.128 111.695 458.703 111.56 458.153 111.56C457.667 111.56 457.271 111.658 456.963 111.854C456.655 112.041 456.407 112.297 456.221 112.624L455.465 112.064C455.558 111.877 455.684 111.695 455.843 111.518C456.001 111.341 456.197 111.187 456.431 111.056C456.664 110.916 456.93 110.809 457.229 110.734C457.527 110.65 457.859 110.608 458.223 110.608C459.072 110.608 459.744 110.823 460.239 111.252C460.743 111.681 460.995 112.279 460.995 113.044V117.02H462.003V118H461.233ZM457.901 117.23C458.19 117.23 458.451 117.197 458.685 117.132C458.927 117.057 459.137 116.964 459.315 116.852C459.492 116.731 459.627 116.591 459.721 116.432C459.823 116.264 459.875 116.087 459.875 115.9V114.71H458.335C457.663 114.71 457.173 114.803 456.865 114.99C456.557 115.177 456.403 115.447 456.403 115.802V116.096C456.403 116.469 456.533 116.754 456.795 116.95C457.065 117.137 457.434 117.23 457.901 117.23ZM463.775 117.048H465.889V111.728H463.775V110.776H467.009V112.596H467.079C467.229 112.027 467.509 111.583 467.919 111.266C468.339 110.939 468.871 110.776 469.515 110.776H470.523V111.896H469.165C468.521 111.896 467.999 112.083 467.597 112.456C467.205 112.829 467.009 113.319 467.009 113.926V117.048H469.809V118H463.775V117.048ZM480.858 107.64H481.978V111.952H482.034C482.109 111.775 482.202 111.607 482.314 111.448C482.426 111.28 482.562 111.135 482.72 111.014C482.888 110.893 483.084 110.795 483.308 110.72C483.532 110.645 483.794 110.608 484.092 110.608C484.848 110.608 485.455 110.851 485.912 111.336C486.37 111.812 486.598 112.489 486.598 113.366V118H485.478V113.562C485.478 112.899 485.334 112.409 485.044 112.092C484.755 111.765 484.33 111.602 483.77 111.602C483.546 111.602 483.327 111.63 483.112 111.686C482.898 111.742 482.706 111.826 482.538 111.938C482.37 112.05 482.235 112.195 482.132 112.372C482.03 112.549 481.978 112.755 481.978 112.988V118H480.858V107.64ZM492.081 118.168C491.577 118.168 491.12 118.079 490.709 117.902C490.308 117.725 489.962 117.473 489.673 117.146C489.393 116.81 489.178 116.413 489.029 115.956C488.88 115.489 488.805 114.967 488.805 114.388C488.805 113.819 488.88 113.301 489.029 112.834C489.178 112.367 489.393 111.971 489.673 111.644C489.962 111.308 490.308 111.051 490.709 110.874C491.12 110.697 491.577 110.608 492.081 110.608C492.585 110.608 493.038 110.697 493.439 110.874C493.85 111.051 494.195 111.308 494.475 111.644C494.764 111.971 494.984 112.367 495.133 112.834C495.282 113.301 495.357 113.819 495.357 114.388C495.357 114.967 495.282 115.489 495.133 115.956C494.984 116.413 494.764 116.81 494.475 117.146C494.195 117.473 493.85 117.725 493.439 117.902C493.038 118.079 492.585 118.168 492.081 118.168ZM492.081 117.202C492.706 117.202 493.21 117.015 493.593 116.642C493.976 116.269 494.167 115.69 494.167 114.906V113.87C494.167 113.086 493.976 112.507 493.593 112.134C493.21 111.761 492.706 111.574 492.081 111.574C491.456 111.574 490.952 111.761 490.569 112.134C490.186 112.507 489.995 113.086 489.995 113.87V114.906C489.995 115.69 490.186 116.269 490.569 116.642C490.952 117.015 491.456 117.202 492.081 117.202ZM497.605 110.776H498.725V111.952H498.781C499.248 111.056 499.99 110.608 501.007 110.608C501.894 110.608 502.585 110.939 503.079 111.602C503.583 112.265 503.835 113.193 503.835 114.388C503.835 115.583 503.583 116.511 503.079 117.174C502.585 117.837 501.894 118.168 501.007 118.168C499.99 118.168 499.248 117.72 498.781 116.824H498.725V120.8H497.605V110.776ZM500.573 117.174C501.227 117.174 501.731 116.978 502.085 116.586C502.449 116.185 502.631 115.657 502.631 115.004V113.772C502.631 113.119 502.449 112.596 502.085 112.204C501.731 111.803 501.227 111.602 500.573 111.602C500.321 111.602 500.083 111.635 499.859 111.7C499.635 111.765 499.439 111.863 499.271 111.994C499.103 112.115 498.968 112.269 498.865 112.456C498.772 112.633 498.725 112.843 498.725 113.086V115.69C498.725 115.933 498.772 116.147 498.865 116.334C498.968 116.511 499.103 116.665 499.271 116.796C499.439 116.917 499.635 117.011 499.859 117.076C500.083 117.141 500.321 117.174 500.573 117.174Z" fill="black"/>
<rect x="398" y="90" width="121" height="46" rx="5" stroke="black" stroke-width="2"/>
</svg>
