<svg width="742" height="151" viewBox="0 0 742 151" fill="none" xmlns="http://www.w3.org/2000/svg">
<rect x="21" y="36" width="96" height="79" rx="5" fill="#EFE3FF"/>
<path d="M44.9868 82.192C43.9841 82.192 43.1628 82.0107 42.5228 81.648C41.8828 81.2747 41.3548 80.8 40.9388 80.224L41.9148 79.424C42.3521 79.968 42.8108 80.3733 43.2908 80.64C43.7814 80.9067 44.3628 81.04 45.0348 81.04C45.8454 81.04 46.4641 80.8533 46.8908 80.48C47.3174 80.1067 47.5308 79.584 47.5308 78.912C47.5308 78.368 47.3761 77.9467 47.0668 77.648C46.7574 77.3387 46.2188 77.12 45.4508 76.992L44.2028 76.784C43.6588 76.688 43.2001 76.544 42.8268 76.352C42.4641 76.16 42.1708 75.9307 41.9468 75.664C41.7228 75.3867 41.5628 75.088 41.4668 74.768C41.3708 74.4373 41.3228 74.096 41.3228 73.744C41.3228 72.72 41.6588 71.9467 42.3307 71.424C43.0028 70.9013 43.9094 70.64 45.0508 70.64C45.9468 70.64 46.6988 70.7893 47.3068 71.088C47.9254 71.3867 48.4214 71.808 48.7948 72.352L47.8508 73.168C47.5414 72.7627 47.1681 72.432 46.7308 72.176C46.2934 71.92 45.7281 71.792 45.0348 71.792C44.2774 71.792 43.6961 71.952 43.2908 72.272C42.8854 72.592 42.6828 73.072 42.6828 73.712C42.6828 74.2133 42.8321 74.624 43.1308 74.944C43.4401 75.2533 43.9894 75.4773 44.7788 75.616L45.9788 75.824C46.5228 75.92 46.9814 76.064 47.3548 76.256C47.7281 76.448 48.0268 76.6773 48.2508 76.944C48.4854 77.2107 48.6508 77.5093 48.7468 77.84C48.8428 78.1707 48.8908 78.5173 48.8908 78.88C48.8908 79.9147 48.5494 80.7253 47.8668 81.312C47.1948 81.8987 46.2348 82.192 44.9868 82.192ZM54.7565 82.192C54.1592 82.192 53.6205 82.0907 53.1405 81.888C52.6712 81.6853 52.2658 81.3973 51.9245 81.024C51.5938 80.64 51.3378 80.1867 51.1565 79.664C50.9752 79.1307 50.8845 78.5387 50.8845 77.888C50.8845 77.2267 50.9752 76.6293 51.1565 76.096C51.3485 75.5627 51.6098 75.1093 51.9405 74.736C52.2712 74.352 52.6658 74.0587 53.1245 73.856C53.5938 73.6533 54.1112 73.552 54.6765 73.552C55.2312 73.552 55.7325 73.6533 56.1805 73.856C56.6392 74.0587 57.0285 74.3413 57.3485 74.704C57.6685 75.056 57.9138 75.4773 58.0845 75.968C58.2552 76.4587 58.3405 76.9973 58.3405 77.584V78.192H52.2285V78.576C52.2285 78.9387 52.2872 79.2747 52.4045 79.584C52.5218 79.8933 52.6872 80.16 52.9005 80.384C53.1245 80.608 53.3912 80.784 53.7005 80.912C54.0205 81.0293 54.3725 81.088 54.7565 81.088C55.3112 81.088 55.7912 80.96 56.1965 80.704C56.6018 80.448 56.9112 80.096 57.1245 79.648L58.0685 80.288C57.8232 80.8427 57.4125 81.3013 56.8365 81.664C56.2712 82.016 55.5778 82.192 54.7565 82.192ZM54.6765 74.608C54.3245 74.608 53.9992 74.672 53.7005 74.8C53.4018 74.928 53.1405 75.104 52.9165 75.328C52.7032 75.552 52.5325 75.8187 52.4045 76.128C52.2872 76.4267 52.2285 76.7573 52.2285 77.12V77.232H56.9645V77.056C56.9645 76.6933 56.9058 76.3627 56.7885 76.064C56.6818 75.7653 56.5272 75.5093 56.3245 75.296C56.1325 75.072 55.8925 74.9013 55.6045 74.784C55.3272 74.6667 55.0178 74.608 54.6765 74.608ZM60.9743 82V73.744H62.2543V75.088H62.3183C62.4036 74.8853 62.5103 74.6933 62.6383 74.512C62.7663 74.32 62.9209 74.1547 63.1023 74.016C63.2943 73.8773 63.5183 73.7653 63.7743 73.68C64.0303 73.5947 64.3289 73.552 64.6703 73.552C65.5343 73.552 66.2276 73.8293 66.7503 74.384C67.2729 74.928 67.5343 75.7013 67.5343 76.704V82H66.2543V76.928C66.2543 76.1707 66.0889 75.6107 65.7583 75.248C65.4276 74.8747 64.9423 74.688 64.3023 74.688C64.0463 74.688 63.7956 74.72 63.5503 74.784C63.3049 74.848 63.0863 74.944 62.8943 75.072C62.7023 75.2 62.5476 75.3653 62.4303 75.568C62.3129 75.7707 62.2543 76.0053 62.2543 76.272V82H60.9743ZM75.8 80.656H75.736C75.2027 81.68 74.3547 82.192 73.192 82.192C72.1787 82.192 71.384 81.8133 70.808 81.056C70.2427 80.2987 69.96 79.2373 69.96 77.872C69.96 76.5067 70.2427 75.4453 70.808 74.688C71.384 73.9307 72.1787 73.552 73.192 73.552C74.3547 73.552 75.2027 74.064 75.736 75.088H75.8V70.16H77.08V82H75.8V80.656ZM73.688 81.056C73.976 81.056 74.248 81.0187 74.504 80.944C74.76 80.8693 74.984 80.7627 75.176 80.624C75.368 80.4747 75.5173 80.2987 75.624 80.096C75.7413 79.8827 75.8 79.6373 75.8 79.36V76.384C75.8 76.1067 75.7413 75.8667 75.624 75.664C75.5173 75.4507 75.368 75.2747 75.176 75.136C74.984 74.9867 74.76 74.8747 74.504 74.8C74.248 74.7253 73.976 74.688 73.688 74.688C72.9413 74.688 72.36 74.9173 71.944 75.376C71.5387 75.824 71.336 76.4213 71.336 77.168V78.576C71.336 79.3227 71.5387 79.9253 71.944 80.384C72.36 80.832 72.9413 81.056 73.688 81.056ZM83.5378 82.192C82.9404 82.192 82.4018 82.0907 81.9218 81.888C81.4524 81.6853 81.0471 81.3973 80.7057 81.024C80.3751 80.64 80.1191 80.1867 79.9378 79.664C79.7564 79.1307 79.6658 78.5387 79.6658 77.888C79.6658 77.2267 79.7564 76.6293 79.9378 76.096C80.1298 75.5627 80.3911 75.1093 80.7218 74.736C81.0524 74.352 81.4471 74.0587 81.9058 73.856C82.3751 73.6533 82.8924 73.552 83.4578 73.552C84.0124 73.552 84.5138 73.6533 84.9618 73.856C85.4204 74.0587 85.8098 74.3413 86.1298 74.704C86.4498 75.056 86.6951 75.4773 86.8658 75.968C87.0364 76.4587 87.1218 76.9973 87.1218 77.584V78.192H81.0098V78.576C81.0098 78.9387 81.0684 79.2747 81.1858 79.584C81.3031 79.8933 81.4684 80.16 81.6818 80.384C81.9058 80.608 82.1724 80.784 82.4818 80.912C82.8018 81.0293 83.1538 81.088 83.5378 81.088C84.0924 81.088 84.5724 80.96 84.9778 80.704C85.3831 80.448 85.6924 80.096 85.9058 79.648L86.8498 80.288C86.6044 80.8427 86.1938 81.3013 85.6178 81.664C85.0524 82.016 84.3591 82.192 83.5378 82.192ZM83.4578 74.608C83.1058 74.608 82.7804 74.672 82.4818 74.8C82.1831 74.928 81.9218 75.104 81.6978 75.328C81.4844 75.552 81.3138 75.8187 81.1858 76.128C81.0684 76.4267 81.0098 76.7573 81.0098 77.12V77.232H85.7458V77.056C85.7458 76.6933 85.6871 76.3627 85.5698 76.064C85.4631 75.7653 85.3084 75.5093 85.1058 75.296C84.9138 75.072 84.6738 74.9013 84.3858 74.784C84.1084 74.6667 83.7991 74.608 83.4578 74.608ZM89.4195 80.912H91.8355V74.832H89.4195V73.744H93.1155V75.824H93.1955C93.3662 75.1733 93.6862 74.6667 94.1555 74.304C94.6355 73.9307 95.2435 73.744 95.9795 73.744H97.1315V75.024H95.5795C94.8435 75.024 94.2462 75.2373 93.7875 75.664C93.3395 76.0907 93.1155 76.6507 93.1155 77.344V80.912H96.3155V82H89.4195V80.912Z" fill="black"/>
<rect x="21" y="36" width="96" height="79" rx="5" stroke="#9747FF" stroke-width="2"/>
<rect x="134" y="36" width="96" height="79" rx="5" fill="#DCF3E7"/>
<path d="M155.827 72.544H155.715V82H154.499V70.832H156.403L160.211 80.192H160.323V70.832H161.539V82H159.635L155.827 72.544ZM167.613 82.192C167.037 82.192 166.514 82.0907 166.045 81.888C165.586 81.6853 165.191 81.3973 164.861 81.024C164.541 80.64 164.295 80.1867 164.125 79.664C163.954 79.1307 163.868 78.5333 163.868 77.872C163.868 77.2213 163.954 76.6293 164.125 76.096C164.295 75.5627 164.541 75.1093 164.861 74.736C165.191 74.352 165.586 74.0587 166.045 73.856C166.514 73.6533 167.037 73.552 167.613 73.552C168.189 73.552 168.706 73.6533 169.165 73.856C169.634 74.0587 170.029 74.352 170.349 74.736C170.679 75.1093 170.93 75.5627 171.101 76.096C171.271 76.6293 171.357 77.2213 171.357 77.872C171.357 78.5333 171.271 79.1307 171.101 79.664C170.93 80.1867 170.679 80.64 170.349 81.024C170.029 81.3973 169.634 81.6853 169.165 81.888C168.706 82.0907 168.189 82.192 167.613 82.192ZM167.613 81.088C168.327 81.088 168.903 80.8747 169.341 80.448C169.778 80.0213 169.997 79.36 169.997 78.464V77.28C169.997 76.384 169.778 75.7227 169.341 75.296C168.903 74.8693 168.327 74.656 167.613 74.656C166.898 74.656 166.322 74.8693 165.885 75.296C165.447 75.7227 165.229 76.384 165.229 77.28V78.464C165.229 79.36 165.447 80.0213 165.885 80.448C166.322 80.8747 166.898 81.088 167.613 81.088ZM179.206 80.656H179.142C178.609 81.68 177.761 82.192 176.598 82.192C175.585 82.192 174.79 81.8133 174.214 81.056C173.649 80.2987 173.366 79.2373 173.366 77.872C173.366 76.5067 173.649 75.4453 174.214 74.688C174.79 73.9307 175.585 73.552 176.598 73.552C177.761 73.552 178.609 74.064 179.142 75.088H179.206V70.16H180.486V82H179.206V80.656ZM177.094 81.056C177.382 81.056 177.654 81.0187 177.91 80.944C178.166 80.8693 178.39 80.7627 178.582 80.624C178.774 80.4747 178.924 80.2987 179.03 80.096C179.148 79.8827 179.206 79.6373 179.206 79.36V76.384C179.206 76.1067 179.148 75.8667 179.03 75.664C178.924 75.4507 178.774 75.2747 178.582 75.136C178.39 74.9867 178.166 74.8747 177.91 74.8C177.654 74.7253 177.382 74.688 177.094 74.688C176.348 74.688 175.766 74.9173 175.35 75.376C174.945 75.824 174.742 76.4213 174.742 77.168V78.576C174.742 79.3227 174.945 79.9253 175.35 80.384C175.766 80.832 176.348 81.056 177.094 81.056ZM186.944 82.192C186.347 82.192 185.808 82.0907 185.328 81.888C184.859 81.6853 184.453 81.3973 184.112 81.024C183.781 80.64 183.525 80.1867 183.344 79.664C183.163 79.1307 183.072 78.5387 183.072 77.888C183.072 77.2267 183.163 76.6293 183.344 76.096C183.536 75.5627 183.797 75.1093 184.128 74.736C184.459 74.352 184.853 74.0587 185.312 73.856C185.781 73.6533 186.299 73.552 186.864 73.552C187.419 73.552 187.92 73.6533 188.368 73.856C188.827 74.0587 189.216 74.3413 189.536 74.704C189.856 75.056 190.101 75.4773 190.272 75.968C190.443 76.4587 190.528 76.9973 190.528 77.584V78.192H184.416V78.576C184.416 78.9387 184.475 79.2747 184.592 79.584C184.709 79.8933 184.875 80.16 185.088 80.384C185.312 80.608 185.579 80.784 185.888 80.912C186.208 81.0293 186.56 81.088 186.944 81.088C187.499 81.088 187.979 80.96 188.384 80.704C188.789 80.448 189.099 80.096 189.312 79.648L190.256 80.288C190.011 80.8427 189.6 81.3013 189.024 81.664C188.459 82.016 187.765 82.192 186.944 82.192ZM186.864 74.608C186.512 74.608 186.187 74.672 185.888 74.8C185.589 74.928 185.328 75.104 185.104 75.328C184.891 75.552 184.72 75.8187 184.592 76.128C184.475 76.4267 184.416 76.7573 184.416 77.12V77.232H189.152V77.056C189.152 76.6933 189.093 76.3627 188.976 76.064C188.869 75.7653 188.715 75.5093 188.512 75.296C188.32 75.072 188.08 74.9013 187.792 74.784C187.515 74.6667 187.205 74.608 186.864 74.608ZM202.548 82V80.832H205.748V71.824H205.636L202.82 74.448L202.036 73.6L204.996 70.832H207.092V80.832H210.036V82H202.548Z" fill="black"/>
<rect x="134" y="36" width="96" height="79" rx="5" stroke="#14AE5C" stroke-width="2"/>
<rect x="267" y="36" width="96" height="79" rx="5" fill="#DBF0FF"/>
<path d="M288.827 72.544H288.715V82H287.499V70.832H289.403L293.211 80.192H293.323V70.832H294.539V82H292.635L288.827 72.544ZM300.613 82.192C300.037 82.192 299.514 82.0907 299.045 81.888C298.586 81.6853 298.191 81.3973 297.861 81.024C297.541 80.64 297.295 80.1867 297.125 79.664C296.954 79.1307 296.868 78.5333 296.868 77.872C296.868 77.2213 296.954 76.6293 297.125 76.096C297.295 75.5627 297.541 75.1093 297.861 74.736C298.191 74.352 298.586 74.0587 299.045 73.856C299.514 73.6533 300.037 73.552 300.613 73.552C301.189 73.552 301.706 73.6533 302.165 73.856C302.634 74.0587 303.029 74.352 303.349 74.736C303.679 75.1093 303.93 75.5627 304.101 76.096C304.271 76.6293 304.357 77.2213 304.357 77.872C304.357 78.5333 304.271 79.1307 304.101 79.664C303.93 80.1867 303.679 80.64 303.349 81.024C303.029 81.3973 302.634 81.6853 302.165 81.888C301.706 82.0907 301.189 82.192 300.613 82.192ZM300.613 81.088C301.327 81.088 301.903 80.8747 302.341 80.448C302.778 80.0213 302.997 79.36 302.997 78.464V77.28C302.997 76.384 302.778 75.7227 302.341 75.296C301.903 74.8693 301.327 74.656 300.613 74.656C299.898 74.656 299.322 74.8693 298.885 75.296C298.447 75.7227 298.229 76.384 298.229 77.28V78.464C298.229 79.36 298.447 80.0213 298.885 80.448C299.322 80.8747 299.898 81.088 300.613 81.088ZM312.206 80.656H312.142C311.609 81.68 310.761 82.192 309.598 82.192C308.585 82.192 307.79 81.8133 307.214 81.056C306.649 80.2987 306.366 79.2373 306.366 77.872C306.366 76.5067 306.649 75.4453 307.214 74.688C307.79 73.9307 308.585 73.552 309.598 73.552C310.761 73.552 311.609 74.064 312.142 75.088H312.206V70.16H313.486V82H312.206V80.656ZM310.094 81.056C310.382 81.056 310.654 81.0187 310.91 80.944C311.166 80.8693 311.39 80.7627 311.582 80.624C311.774 80.4747 311.924 80.2987 312.03 80.096C312.148 79.8827 312.206 79.6373 312.206 79.36V76.384C312.206 76.1067 312.148 75.8667 312.03 75.664C311.924 75.4507 311.774 75.2747 311.582 75.136C311.39 74.9867 311.166 74.8747 310.91 74.8C310.654 74.7253 310.382 74.688 310.094 74.688C309.348 74.688 308.766 74.9173 308.35 75.376C307.945 75.824 307.742 76.4213 307.742 77.168V78.576C307.742 79.3227 307.945 79.9253 308.35 80.384C308.766 80.832 309.348 81.056 310.094 81.056ZM319.944 82.192C319.347 82.192 318.808 82.0907 318.328 81.888C317.859 81.6853 317.453 81.3973 317.112 81.024C316.781 80.64 316.525 80.1867 316.344 79.664C316.163 79.1307 316.072 78.5387 316.072 77.888C316.072 77.2267 316.163 76.6293 316.344 76.096C316.536 75.5627 316.797 75.1093 317.128 74.736C317.459 74.352 317.853 74.0587 318.312 73.856C318.781 73.6533 319.299 73.552 319.864 73.552C320.419 73.552 320.92 73.6533 321.368 73.856C321.827 74.0587 322.216 74.3413 322.536 74.704C322.856 75.056 323.101 75.4773 323.272 75.968C323.443 76.4587 323.528 76.9973 323.528 77.584V78.192H317.416V78.576C317.416 78.9387 317.475 79.2747 317.592 79.584C317.709 79.8933 317.875 80.16 318.088 80.384C318.312 80.608 318.579 80.784 318.888 80.912C319.208 81.0293 319.56 81.088 319.944 81.088C320.499 81.088 320.979 80.96 321.384 80.704C321.789 80.448 322.099 80.096 322.312 79.648L323.256 80.288C323.011 80.8427 322.6 81.3013 322.024 81.664C321.459 82.016 320.765 82.192 319.944 82.192ZM319.864 74.608C319.512 74.608 319.187 74.672 318.888 74.8C318.589 74.928 318.328 75.104 318.104 75.328C317.891 75.552 317.72 75.8187 317.592 76.128C317.475 76.4267 317.416 76.7573 317.416 77.12V77.232H322.152V77.056C322.152 76.6933 322.093 76.3627 321.976 76.064C321.869 75.7653 321.715 75.5093 321.512 75.296C321.32 75.072 321.08 74.9013 320.792 74.784C320.515 74.6667 320.205 74.608 319.864 74.608ZM342.78 82H335.324V80.624L339.052 77.264C339.596 76.7733 340.044 76.272 340.396 75.76C340.748 75.2373 340.924 74.688 340.924 74.112V73.92C340.924 73.248 340.748 72.7307 340.396 72.368C340.044 71.9947 339.521 71.808 338.828 71.808C338.145 71.808 337.617 71.984 337.244 72.336C336.881 72.6773 336.609 73.136 336.428 73.712L335.228 73.264C335.334 72.9333 335.478 72.6133 335.66 72.304C335.852 71.984 336.092 71.7013 336.38 71.456C336.668 71.2107 337.014 71.0133 337.42 70.864C337.836 70.7147 338.316 70.64 338.86 70.64C339.414 70.64 339.905 70.72 340.332 70.88C340.769 71.04 341.132 71.264 341.42 71.552C341.718 71.84 341.942 72.1813 342.092 72.576C342.252 72.9707 342.332 73.4027 342.332 73.872C342.332 74.2987 342.268 74.6987 342.14 75.072C342.022 75.4453 341.852 75.8027 341.628 76.144C341.414 76.4853 341.153 76.8213 340.844 77.152C340.545 77.472 340.209 77.792 339.836 78.112L336.716 80.832H342.78V82Z" fill="black"/>
<rect x="267" y="36" width="96" height="79" rx="5" stroke="#0D99FF" stroke-width="2"/>
<rect x="380" y="36" width="96" height="79" rx="5" fill="#E5E5E5"/>
<path d="M401.827 72.544H401.715V82H400.499V70.832H402.403L406.211 80.192H406.323V70.832H407.539V82H405.635L401.827 72.544ZM413.613 82.192C413.037 82.192 412.514 82.0907 412.045 81.888C411.586 81.6853 411.191 81.3973 410.861 81.024C410.541 80.64 410.295 80.1867 410.125 79.664C409.954 79.1307 409.868 78.5333 409.868 77.872C409.868 77.2213 409.954 76.6293 410.125 76.096C410.295 75.5627 410.541 75.1093 410.861 74.736C411.191 74.352 411.586 74.0587 412.045 73.856C412.514 73.6533 413.037 73.552 413.613 73.552C414.189 73.552 414.706 73.6533 415.165 73.856C415.634 74.0587 416.029 74.352 416.349 74.736C416.679 75.1093 416.93 75.5627 417.101 76.096C417.271 76.6293 417.357 77.2213 417.357 77.872C417.357 78.5333 417.271 79.1307 417.101 79.664C416.93 80.1867 416.679 80.64 416.349 81.024C416.029 81.3973 415.634 81.6853 415.165 81.888C414.706 82.0907 414.189 82.192 413.613 82.192ZM413.613 81.088C414.327 81.088 414.903 80.8747 415.341 80.448C415.778 80.0213 415.997 79.36 415.997 78.464V77.28C415.997 76.384 415.778 75.7227 415.341 75.296C414.903 74.8693 414.327 74.656 413.613 74.656C412.898 74.656 412.322 74.8693 411.885 75.296C411.447 75.7227 411.229 76.384 411.229 77.28V78.464C411.229 79.36 411.447 80.0213 411.885 80.448C412.322 80.8747 412.898 81.088 413.613 81.088ZM425.206 80.656H425.142C424.609 81.68 423.761 82.192 422.598 82.192C421.585 82.192 420.79 81.8133 420.214 81.056C419.649 80.2987 419.366 79.2373 419.366 77.872C419.366 76.5067 419.649 75.4453 420.214 74.688C420.79 73.9307 421.585 73.552 422.598 73.552C423.761 73.552 424.609 74.064 425.142 75.088H425.206V70.16H426.486V82H425.206V80.656ZM423.094 81.056C423.382 81.056 423.654 81.0187 423.91 80.944C424.166 80.8693 424.39 80.7627 424.582 80.624C424.774 80.4747 424.924 80.2987 425.03 80.096C425.148 79.8827 425.206 79.6373 425.206 79.36V76.384C425.206 76.1067 425.148 75.8667 425.03 75.664C424.924 75.4507 424.774 75.2747 424.582 75.136C424.39 74.9867 424.166 74.8747 423.91 74.8C423.654 74.7253 423.382 74.688 423.094 74.688C422.348 74.688 421.766 74.9173 421.35 75.376C420.945 75.824 420.742 76.4213 420.742 77.168V78.576C420.742 79.3227 420.945 79.9253 421.35 80.384C421.766 80.832 422.348 81.056 423.094 81.056ZM432.944 82.192C432.347 82.192 431.808 82.0907 431.328 81.888C430.859 81.6853 430.453 81.3973 430.112 81.024C429.781 80.64 429.525 80.1867 429.344 79.664C429.163 79.1307 429.072 78.5387 429.072 77.888C429.072 77.2267 429.163 76.6293 429.344 76.096C429.536 75.5627 429.797 75.1093 430.128 74.736C430.459 74.352 430.853 74.0587 431.312 73.856C431.781 73.6533 432.299 73.552 432.864 73.552C433.419 73.552 433.92 73.6533 434.368 73.856C434.827 74.0587 435.216 74.3413 435.536 74.704C435.856 75.056 436.101 75.4773 436.272 75.968C436.443 76.4587 436.528 76.9973 436.528 77.584V78.192H430.416V78.576C430.416 78.9387 430.475 79.2747 430.592 79.584C430.709 79.8933 430.875 80.16 431.088 80.384C431.312 80.608 431.579 80.784 431.888 80.912C432.208 81.0293 432.56 81.088 432.944 81.088C433.499 81.088 433.979 80.96 434.384 80.704C434.789 80.448 435.099 80.096 435.312 79.648L436.256 80.288C436.011 80.8427 435.6 81.3013 435.024 81.664C434.459 82.016 433.765 82.192 432.944 82.192ZM432.864 74.608C432.512 74.608 432.187 74.672 431.888 74.8C431.589 74.928 431.328 75.104 431.104 75.328C430.891 75.552 430.72 75.8187 430.592 76.128C430.475 76.4267 430.416 76.7573 430.416 77.12V77.232H435.152V77.056C435.152 76.6933 435.093 76.3627 434.976 76.064C434.869 75.7653 434.715 75.5093 434.512 75.296C434.32 75.072 434.08 74.9013 433.792 74.784C433.515 74.6667 433.205 74.608 432.864 74.608ZM451.508 75.568C452.286 75.568 452.868 75.3973 453.252 75.056C453.646 74.704 453.844 74.256 453.844 73.712V73.6C453.844 73.0027 453.652 72.5547 453.268 72.256C452.894 71.9573 452.404 71.808 451.796 71.808C451.198 71.808 450.713 71.9413 450.34 72.208C449.977 72.464 449.678 72.8053 449.444 73.232L448.436 72.464C448.574 72.24 448.745 72.0213 448.948 71.808C449.15 71.584 449.385 71.3867 449.652 71.216C449.929 71.0453 450.244 70.9067 450.596 70.8C450.958 70.6933 451.369 70.64 451.828 70.64C452.308 70.64 452.756 70.704 453.172 70.832C453.588 70.9493 453.95 71.1307 454.26 71.376C454.569 71.6107 454.809 71.904 454.98 72.256C455.161 72.608 455.252 73.008 455.252 73.456C455.252 73.8187 455.193 74.144 455.076 74.432C454.969 74.72 454.814 74.9707 454.612 75.184C454.42 75.3973 454.19 75.5787 453.924 75.728C453.657 75.8773 453.374 75.9893 453.076 76.064V76.128C453.385 76.192 453.684 76.2987 453.972 76.448C454.26 76.5867 454.516 76.7733 454.74 77.008C454.964 77.232 455.14 77.5093 455.267 77.84C455.406 78.16 455.476 78.528 455.476 78.944C455.476 79.424 455.38 79.8667 455.188 80.272C455.006 80.6667 454.745 81.008 454.404 81.296C454.073 81.5733 453.668 81.792 453.188 81.952C452.718 82.112 452.196 82.192 451.62 82.192C451.129 82.192 450.692 82.1387 450.308 82.032C449.934 81.9253 449.598 81.7813 449.299 81.6C449.012 81.4187 448.756 81.216 448.532 80.992C448.318 80.768 448.126 80.5333 447.956 80.288L448.964 79.52C449.113 79.744 449.268 79.9467 449.428 80.128C449.588 80.3093 449.769 80.4693 449.972 80.608C450.185 80.736 450.425 80.8373 450.692 80.912C450.958 80.9867 451.268 81.024 451.62 81.024C452.409 81.024 453.012 80.8427 453.428 80.48C453.854 80.1173 454.068 79.6 454.068 78.928V78.8C454.068 78.1387 453.86 77.6267 453.444 77.264C453.038 76.9013 452.425 76.72 451.604 76.72H450.276V75.568H451.508Z" fill="black"/>
<rect x="380" y="36" width="96" height="79" rx="5" stroke="black" stroke-width="2"/>
<rect x="493" y="36" width="96" height="79" rx="5" fill="#E5E5E5"/>
<path d="M514.827 72.544H514.715V82H513.499V70.832H515.403L519.211 80.192H519.323V70.832H520.539V82H518.635L514.827 72.544ZM526.613 82.192C526.037 82.192 525.514 82.0907 525.045 81.888C524.586 81.6853 524.191 81.3973 523.861 81.024C523.541 80.64 523.295 80.1867 523.125 79.664C522.954 79.1307 522.868 78.5333 522.868 77.872C522.868 77.2213 522.954 76.6293 523.125 76.096C523.295 75.5627 523.541 75.1093 523.861 74.736C524.191 74.352 524.586 74.0587 525.045 73.856C525.514 73.6533 526.037 73.552 526.613 73.552C527.189 73.552 527.706 73.6533 528.165 73.856C528.634 74.0587 529.029 74.352 529.349 74.736C529.679 75.1093 529.93 75.5627 530.101 76.096C530.271 76.6293 530.357 77.2213 530.357 77.872C530.357 78.5333 530.271 79.1307 530.101 79.664C529.93 80.1867 529.679 80.64 529.349 81.024C529.029 81.3973 528.634 81.6853 528.165 81.888C527.706 82.0907 527.189 82.192 526.613 82.192ZM526.613 81.088C527.327 81.088 527.903 80.8747 528.341 80.448C528.778 80.0213 528.997 79.36 528.997 78.464V77.28C528.997 76.384 528.778 75.7227 528.341 75.296C527.903 74.8693 527.327 74.656 526.613 74.656C525.898 74.656 525.322 74.8693 524.885 75.296C524.447 75.7227 524.229 76.384 524.229 77.28V78.464C524.229 79.36 524.447 80.0213 524.885 80.448C525.322 80.8747 525.898 81.088 526.613 81.088ZM538.206 80.656H538.142C537.609 81.68 536.761 82.192 535.598 82.192C534.585 82.192 533.79 81.8133 533.214 81.056C532.649 80.2987 532.366 79.2373 532.366 77.872C532.366 76.5067 532.649 75.4453 533.214 74.688C533.79 73.9307 534.585 73.552 535.598 73.552C536.761 73.552 537.609 74.064 538.142 75.088H538.206V70.16H539.486V82H538.206V80.656ZM536.094 81.056C536.382 81.056 536.654 81.0187 536.91 80.944C537.166 80.8693 537.39 80.7627 537.582 80.624C537.774 80.4747 537.924 80.2987 538.03 80.096C538.148 79.8827 538.206 79.6373 538.206 79.36V76.384C538.206 76.1067 538.148 75.8667 538.03 75.664C537.924 75.4507 537.774 75.2747 537.582 75.136C537.39 74.9867 537.166 74.8747 536.91 74.8C536.654 74.7253 536.382 74.688 536.094 74.688C535.348 74.688 534.766 74.9173 534.35 75.376C533.945 75.824 533.742 76.4213 533.742 77.168V78.576C533.742 79.3227 533.945 79.9253 534.35 80.384C534.766 80.832 535.348 81.056 536.094 81.056ZM545.944 82.192C545.347 82.192 544.808 82.0907 544.328 81.888C543.859 81.6853 543.453 81.3973 543.112 81.024C542.781 80.64 542.525 80.1867 542.344 79.664C542.163 79.1307 542.072 78.5387 542.072 77.888C542.072 77.2267 542.163 76.6293 542.344 76.096C542.536 75.5627 542.797 75.1093 543.128 74.736C543.459 74.352 543.853 74.0587 544.312 73.856C544.781 73.6533 545.299 73.552 545.864 73.552C546.419 73.552 546.92 73.6533 547.368 73.856C547.827 74.0587 548.216 74.3413 548.536 74.704C548.856 75.056 549.101 75.4773 549.272 75.968C549.443 76.4587 549.528 76.9973 549.528 77.584V78.192H543.416V78.576C543.416 78.9387 543.475 79.2747 543.592 79.584C543.709 79.8933 543.875 80.16 544.088 80.384C544.312 80.608 544.579 80.784 544.888 80.912C545.208 81.0293 545.56 81.088 545.944 81.088C546.499 81.088 546.979 80.96 547.384 80.704C547.789 80.448 548.099 80.096 548.312 79.648L549.256 80.288C549.011 80.8427 548.6 81.3013 548.024 81.664C547.459 82.016 546.765 82.192 545.944 82.192ZM545.864 74.608C545.512 74.608 545.187 74.672 544.888 74.8C544.589 74.928 544.328 75.104 544.104 75.328C543.891 75.552 543.72 75.8187 543.592 76.128C543.475 76.4267 543.416 76.7573 543.416 77.12V77.232H548.152V77.056C548.152 76.6933 548.093 76.3627 547.976 76.064C547.869 75.7653 547.715 75.5093 547.512 75.296C547.32 75.072 547.08 74.9013 546.792 74.784C546.515 74.6667 546.205 74.608 545.864 74.608ZM566.236 82V79.808H560.732V78.624L565.564 70.832H567.516V78.704H569.18V79.808H567.516V82H566.236ZM561.932 78.704H566.236V71.872H566.172L561.932 78.704Z" fill="black"/>
<rect x="493" y="36" width="96" height="79" rx="5" stroke="black" stroke-width="2"/>
<rect x="606" y="36" width="115" height="79" rx="5" fill="#FFF8DF"/>
<path d="M627.909 82H626.565V70.832H630.629C631.664 70.832 632.453 71.1147 632.997 71.68C633.541 72.2453 633.813 73.0347 633.813 74.048C633.813 74.9547 633.578 75.68 633.109 76.224C632.64 76.768 631.957 77.0827 631.061 77.168L633.909 82H632.405L629.685 77.232H627.909V82ZM630.597 76.096C631.162 76.096 631.6 75.9573 631.909 75.68C632.229 75.392 632.389 74.9867 632.389 74.464V73.632C632.389 73.1093 632.229 72.7093 631.909 72.432C631.6 72.144 631.162 72 630.597 72H627.909V76.096H630.597ZM639.663 82.192C639.065 82.192 638.527 82.0907 638.047 81.888C637.577 81.6853 637.172 81.3973 636.831 81.024C636.5 80.64 636.244 80.1867 636.063 79.664C635.881 79.1307 635.791 78.5387 635.791 77.888C635.791 77.2267 635.881 76.6293 636.063 76.096C636.255 75.5627 636.516 75.1093 636.847 74.736C637.177 74.352 637.572 74.0587 638.031 73.856C638.5 73.6533 639.017 73.552 639.583 73.552C640.137 73.552 640.639 73.6533 641.087 73.856C641.545 74.0587 641.935 74.3413 642.255 74.704C642.575 75.056 642.82 75.4773 642.991 75.968C643.161 76.4587 643.247 76.9973 643.247 77.584V78.192H637.135V78.576C637.135 78.9387 637.193 79.2747 637.311 79.584C637.428 79.8933 637.593 80.16 637.807 80.384C638.031 80.608 638.297 80.784 638.607 80.912C638.927 81.0293 639.279 81.088 639.663 81.088C640.217 81.088 640.697 80.96 641.103 80.704C641.508 80.448 641.817 80.096 642.031 79.648L642.975 80.288C642.729 80.8427 642.319 81.3013 641.743 81.664C641.177 82.016 640.484 82.192 639.663 82.192ZM639.583 74.608C639.231 74.608 638.905 74.672 638.607 74.8C638.308 74.928 638.047 75.104 637.823 75.328C637.609 75.552 637.439 75.8187 637.311 76.128C637.193 76.4267 637.135 76.7573 637.135 77.12V77.232H641.871V77.056C641.871 76.6933 641.812 76.3627 641.695 76.064C641.588 75.7653 641.433 75.5093 641.231 75.296C641.039 75.072 640.799 74.9013 640.511 74.784C640.233 74.6667 639.924 74.608 639.583 74.608ZM649.401 82.192C648.803 82.192 648.27 82.0907 647.801 81.888C647.342 81.6747 646.953 81.3813 646.633 81.008C646.313 80.6347 646.067 80.1813 645.897 79.648C645.737 79.1147 645.657 78.5227 645.657 77.872C645.657 77.2213 645.742 76.6293 645.913 76.096C646.083 75.5627 646.329 75.1093 646.649 74.736C646.969 74.352 647.358 74.0587 647.817 73.856C648.275 73.6533 648.798 73.552 649.385 73.552C650.185 73.552 650.835 73.728 651.337 74.08C651.838 74.432 652.206 74.8907 652.441 75.456L651.417 76C651.267 75.5733 651.017 75.2427 650.665 75.008C650.323 74.7733 649.897 74.656 649.385 74.656C649.011 74.656 648.675 74.72 648.377 74.848C648.089 74.9653 647.843 75.136 647.641 75.36C647.438 75.584 647.283 75.8507 647.177 76.16C647.081 76.4693 647.033 76.8053 647.033 77.168V78.576C647.033 78.9387 647.081 79.2747 647.177 79.584C647.283 79.8933 647.438 80.16 647.641 80.384C647.843 80.608 648.094 80.784 648.393 80.912C648.691 81.0293 649.033 81.088 649.417 81.088C649.971 81.088 650.43 80.96 650.793 80.704C651.155 80.448 651.443 80.096 651.657 79.648L652.569 80.272C652.323 80.8267 651.939 81.2853 651.417 81.648C650.905 82.0107 650.233 82.192 649.401 82.192ZM658.85 82.192C658.253 82.192 657.714 82.0907 657.234 81.888C656.765 81.6853 656.36 81.3973 656.018 81.024C655.688 80.64 655.432 80.1867 655.25 79.664C655.069 79.1307 654.978 78.5387 654.978 77.888C654.978 77.2267 655.069 76.6293 655.25 76.096C655.442 75.5627 655.704 75.1093 656.034 74.736C656.365 74.352 656.76 74.0587 657.218 73.856C657.688 73.6533 658.205 73.552 658.77 73.552C659.325 73.552 659.826 73.6533 660.274 73.856C660.733 74.0587 661.122 74.3413 661.442 74.704C661.762 75.056 662.008 75.4773 662.178 75.968C662.349 76.4587 662.434 76.9973 662.434 77.584V78.192H656.322V78.576C656.322 78.9387 656.381 79.2747 656.498 79.584C656.616 79.8933 656.781 80.16 656.994 80.384C657.218 80.608 657.485 80.784 657.794 80.912C658.114 81.0293 658.466 81.088 658.85 81.088C659.405 81.088 659.885 80.96 660.29 80.704C660.696 80.448 661.005 80.096 661.218 79.648L662.162 80.288C661.917 80.8427 661.506 81.3013 660.93 81.664C660.365 82.016 659.672 82.192 658.85 82.192ZM658.77 74.608C658.418 74.608 658.093 74.672 657.794 74.8C657.496 74.928 657.234 75.104 657.01 75.328C656.797 75.552 656.626 75.8187 656.498 76.128C656.381 76.4267 656.322 76.7573 656.322 77.12V77.232H661.058V77.056C661.058 76.6933 661 76.3627 660.882 76.064C660.776 75.7653 660.621 75.5093 660.418 75.296C660.226 75.072 659.986 74.9013 659.698 74.784C659.421 74.6667 659.112 74.608 658.77 74.608ZM668.812 71.92C668.439 71.92 668.177 71.8453 668.028 71.696C667.879 71.536 667.804 71.3387 667.804 71.104V70.848C667.804 70.6133 667.879 70.4213 668.028 70.272C668.177 70.112 668.439 70.032 668.812 70.032C669.185 70.032 669.447 70.112 669.596 70.272C669.745 70.4213 669.82 70.6133 669.82 70.848V71.104C669.82 71.3387 669.745 71.536 669.596 71.696C669.447 71.8453 669.185 71.92 668.812 71.92ZM665.196 80.912H668.172V74.832H665.196V73.744H669.452V80.912H672.236V82H665.196V80.912ZM677.078 82L674.118 73.744H675.414L676.598 77.2L677.878 80.928H677.942L679.222 77.2L680.406 73.744H681.67L678.71 82H677.078ZM687.632 82.192C687.034 82.192 686.496 82.0907 686.016 81.888C685.546 81.6853 685.141 81.3973 684.799 81.024C684.469 80.64 684.213 80.1867 684.032 79.664C683.85 79.1307 683.76 78.5387 683.76 77.888C683.76 77.2267 683.85 76.6293 684.032 76.096C684.224 75.5627 684.485 75.1093 684.816 74.736C685.146 74.352 685.541 74.0587 686 73.856C686.469 73.6533 686.986 73.552 687.552 73.552C688.106 73.552 688.608 73.6533 689.056 73.856C689.514 74.0587 689.904 74.3413 690.224 74.704C690.544 75.056 690.789 75.4773 690.96 75.968C691.13 76.4587 691.216 76.9973 691.216 77.584V78.192H685.104V78.576C685.104 78.9387 685.162 79.2747 685.28 79.584C685.397 79.8933 685.562 80.16 685.776 80.384C686 80.608 686.266 80.784 686.576 80.912C686.896 81.0293 687.248 81.088 687.632 81.088C688.186 81.088 688.666 80.96 689.072 80.704C689.477 80.448 689.786 80.096 690 79.648L690.944 80.288C690.698 80.8427 690.288 81.3013 689.712 81.664C689.146 82.016 688.453 82.192 687.632 82.192ZM687.552 74.608C687.2 74.608 686.874 74.672 686.576 74.8C686.277 74.928 686.016 75.104 685.792 75.328C685.578 75.552 685.408 75.8187 685.28 76.128C685.162 76.4267 685.104 76.7573 685.104 77.12V77.232H689.84V77.056C689.84 76.6933 689.781 76.3627 689.664 76.064C689.557 75.7653 689.402 75.5093 689.2 75.296C689.008 75.072 688.768 74.9013 688.48 74.784C688.202 74.6667 687.893 74.608 687.552 74.608ZM693.513 80.912H695.929V74.832H693.513V73.744H697.209V75.824H697.289C697.46 75.1733 697.78 74.6667 698.249 74.304C698.729 73.9307 699.337 73.744 700.073 73.744H701.225V75.024H699.673C698.937 75.024 698.34 75.2373 697.881 75.664C697.433 76.0907 697.209 76.6507 697.209 77.344V80.912H700.409V82H693.513V80.912Z" fill="black"/>
<rect x="606" y="36" width="115" height="79" rx="5" stroke="#FFA629" stroke-width="2"/>
<rect x="247" y="16" width="494" height="119" stroke="#FFA629" stroke-width="2"/>
<rect x="1" y="1" width="370" height="149" stroke="#9747FF" stroke-width="2"/>
</svg>
