<svg width="70" height="70" fill="none" xmlns="http://www.w3.org/2000/svg"><path d="M35 14C12.037 14 0 30.912 0 33.6c0 2.681 12.037 19.6 35 19.6 22.96 0 35-16.919 35-19.6C70 30.912 57.96 14 35 14Zm0 34.675c-8.593 0-15.558-6.748-15.558-15.075 0-8.327 6.965-15.082 15.558-15.082S50.554 25.273 50.554 33.6c0 8.326-6.962 15.075-15.554 15.075Z" fill="#000"/><path d="M32.646 24.471a.677.677 0 0 1 .19-.34.46.46 0 0 1 .314-.131h4.2c.083 0 .165.025.239.072a.578.578 0 0 1 .186.2.813.813 0 0 1 .072.59l-1.868 7.013h3.996a.45.45 0 0 1 .278.099c.083.065.15.158.194.268a.8.8 0 0 1-.058.692l-7.35 11.812a.528.528 0 0 1-.302.239.433.433 0 0 1-.355-.059.624.624 0 0 1-.242-.33.81.81 0 0 1-.017-.446l1.891-7.682h-3.489a.441.441 0 0 1-.235-.07.573.573 0 0 1-.185-.193.746.746 0 0 1-.097-.277.816.816 0 0 1 .013-.301l2.625-11.156Z" fill="#000"/>
	<style>
    @media (prefers-color-scheme:dark){:root{filter:invert(100%)}}
  </style>
</svg>