<svg width="727" height="143" viewBox="0 0 727 143" fill="none" xmlns="http://www.w3.org/2000/svg">
<rect x="11" y="11" width="154" height="79" rx="5" fill="#E5E5E5"/>
<path d="M34.7415 51.528L33.1415 53.416V57H31.7975V45.832H33.1415V51.656H33.1895L34.6615 49.8L37.9575 45.832H39.5735L35.6535 50.536L39.6855 57H38.1175L34.7415 51.528ZM44.1593 57V52.616L40.3033 45.832H41.8393L43.4393 48.744L44.7993 51.288H44.8633L46.2553 48.744L47.8553 45.832H49.3593L45.5033 52.616V57H44.1593ZM54.793 57.192C53.4277 57.192 52.409 56.696 51.737 55.704C51.0757 54.712 50.745 53.2827 50.745 51.416C50.745 49.5493 51.0757 48.12 51.737 47.128C52.409 46.136 53.4277 45.64 54.793 45.64C55.305 45.64 55.7477 45.7093 56.121 45.848C56.4943 45.9867 56.8143 46.1733 57.081 46.408C57.3477 46.6427 57.5717 46.9093 57.753 47.208C57.9343 47.496 58.0943 47.7893 58.233 48.088L57.081 48.616C56.985 48.3707 56.873 48.1413 56.745 47.928C56.617 47.704 56.4623 47.512 56.281 47.352C56.1103 47.1813 55.9023 47.048 55.657 46.952C55.4223 46.856 55.1343 46.808 54.793 46.808C53.9077 46.808 53.2463 47.144 52.809 47.816C52.3823 48.488 52.169 49.384 52.169 50.504V52.328C52.169 53.448 52.3823 54.344 52.809 55.016C53.2463 55.688 53.9077 56.024 54.793 56.024C55.1343 56.024 55.4223 55.976 55.657 55.88C55.9023 55.784 56.1103 55.656 56.281 55.496C56.4623 55.3253 56.617 55.1333 56.745 54.92C56.873 54.696 56.985 54.4613 57.081 54.216L58.233 54.744C58.0943 55.0533 57.9343 55.352 57.753 55.64C57.5717 55.928 57.3477 56.1893 57.081 56.424C56.8143 56.6587 56.4943 56.8453 56.121 56.984C55.7477 57.1227 55.305 57.192 54.793 57.192ZM70.2525 57V45.832H77.1325V47H71.5965V50.76H76.9405V51.928H71.5965V55.832H77.1325V57H70.2525ZM79.3823 57L82.4543 52.808L79.4622 48.744H80.9983L82.2463 50.488L83.2383 51.864H83.3023L84.2623 50.488L85.4943 48.744H86.9663L83.9423 52.792L87.0463 57H85.5103L84.1183 55.064L83.1743 53.752H83.1102L82.1983 55.064L80.8543 57H79.3823ZM93.088 57.192C92.4907 57.192 91.9573 57.0907 91.488 56.888C91.0293 56.6747 90.64 56.3813 90.32 56.008C90 55.6347 89.7547 55.1813 89.584 54.648C89.424 54.1147 89.344 53.5227 89.344 52.872C89.344 52.2213 89.4293 51.6293 89.6 51.096C89.7707 50.5627 90.016 50.1093 90.336 49.736C90.656 49.352 91.0453 49.0587 91.504 48.856C91.9627 48.6533 92.4853 48.552 93.072 48.552C93.872 48.552 94.5227 48.728 95.024 49.08C95.5253 49.432 95.8933 49.8907 96.128 50.456L95.104 51C94.9547 50.5733 94.704 50.2427 94.352 50.008C94.0107 49.7733 93.584 49.656 93.072 49.656C92.6987 49.656 92.3627 49.72 92.064 49.848C91.776 49.9653 91.5307 50.136 91.328 50.36C91.1253 50.584 90.9707 50.8507 90.864 51.16C90.768 51.4693 90.72 51.8053 90.72 52.168V53.576C90.72 53.9387 90.768 54.2747 90.864 54.584C90.9707 54.8933 91.1253 55.16 91.328 55.384C91.5307 55.608 91.7813 55.784 92.08 55.912C92.3787 56.0293 92.72 56.088 93.104 56.088C93.6587 56.088 94.1173 55.96 94.48 55.704C94.8427 55.448 95.1307 55.096 95.344 54.648L96.256 55.272C96.0107 55.8267 95.6267 56.2853 95.104 56.648C94.592 57.0107 93.92 57.192 93.088 57.192ZM99.1618 45.16H100.442V50.088H100.506C100.591 49.8853 100.698 49.6933 100.826 49.512C100.954 49.32 101.108 49.1547 101.29 49.016C101.482 48.8773 101.706 48.7653 101.962 48.68C102.218 48.5947 102.516 48.552 102.858 48.552C103.722 48.552 104.415 48.8293 104.938 49.384C105.46 49.928 105.722 50.7013 105.722 51.704V57H104.442V51.928C104.442 51.1707 104.276 50.6107 103.946 50.248C103.615 49.8747 103.13 49.688 102.49 49.688C102.234 49.688 101.983 49.72 101.738 49.784C101.492 49.848 101.274 49.944 101.082 50.072C100.89 50.2 100.735 50.3653 100.618 50.568C100.5 50.7707 100.442 51.0053 100.442 51.272V57H99.1618V45.16ZM115.108 57C114.606 57 114.249 56.872 114.036 56.616C113.822 56.36 113.689 56.04 113.636 55.656H113.556C113.374 56.136 113.081 56.5147 112.676 56.792C112.281 57.0587 111.748 57.192 111.076 57.192C110.212 57.192 109.524 56.968 109.012 56.52C108.5 56.072 108.243 55.4587 108.243 54.68C108.243 53.912 108.521 53.32 109.076 52.904C109.641 52.488 110.548 52.28 111.796 52.28H113.556V51.464C113.556 50.856 113.385 50.4027 113.044 50.104C112.702 49.7947 112.217 49.64 111.588 49.64C111.033 49.64 110.58 49.752 110.228 49.976C109.876 50.1893 109.593 50.4827 109.38 50.856L108.516 50.216C108.622 50.0027 108.766 49.7947 108.948 49.592C109.129 49.3893 109.353 49.2133 109.62 49.064C109.886 48.904 110.19 48.7813 110.532 48.696C110.873 48.6 111.252 48.552 111.668 48.552C112.638 48.552 113.406 48.7973 113.972 49.288C114.548 49.7787 114.836 50.4613 114.836 51.336V55.88H115.988V57H115.108ZM111.299 56.12C111.63 56.12 111.929 56.0827 112.196 56.008C112.473 55.9227 112.713 55.816 112.916 55.688C113.118 55.5493 113.273 55.3893 113.38 55.208C113.497 55.016 113.556 54.8133 113.556 54.6V53.24H111.796C111.028 53.24 110.468 53.3467 110.116 53.56C109.764 53.7733 109.588 54.0827 109.588 54.488V54.824C109.588 55.2507 109.737 55.576 110.036 55.8C110.345 56.0133 110.766 56.12 111.299 56.12ZM118.349 57V48.744H119.629V50.088H119.693C119.779 49.8853 119.885 49.6933 120.013 49.512C120.141 49.32 120.296 49.1547 120.477 49.016C120.669 48.8773 120.893 48.7653 121.149 48.68C121.405 48.5947 121.704 48.552 122.045 48.552C122.909 48.552 123.603 48.8293 124.125 49.384C124.648 49.928 124.909 50.7013 124.909 51.704V57H123.629V51.928C123.629 51.1707 123.464 50.6107 123.133 50.248C122.803 49.8747 122.317 49.688 121.677 49.688C121.421 49.688 121.171 49.72 120.925 49.784C120.68 49.848 120.461 49.944 120.269 50.072C120.077 50.2 119.923 50.3653 119.805 50.568C119.688 50.7707 119.629 51.0053 119.629 51.272V57H118.349ZM135.351 57.944C135.351 58.776 135.004 59.3893 134.311 59.784C133.618 60.1893 132.578 60.392 131.191 60.392C129.858 60.392 128.898 60.216 128.311 59.864C127.735 59.512 127.447 59.0053 127.447 58.344C127.447 57.896 127.564 57.5493 127.799 57.304C128.034 57.0587 128.364 56.8773 128.791 56.76V56.568C128.556 56.4507 128.375 56.3013 128.247 56.12C128.119 55.9387 128.055 55.7093 128.055 55.432C128.055 55.0053 128.194 54.6853 128.471 54.472C128.759 54.2587 129.116 54.0987 129.543 53.992V53.928C129.031 53.704 128.631 53.3733 128.343 52.936C128.066 52.4987 127.927 51.9867 127.927 51.4C127.927 50.984 128.002 50.6 128.151 50.248C128.3 49.896 128.514 49.5973 128.791 49.352C129.079 49.096 129.42 48.8987 129.815 48.76C130.21 48.6213 130.647 48.552 131.127 48.552C131.746 48.552 132.29 48.664 132.759 48.888V48.744C132.759 48.424 132.834 48.1573 132.983 47.944C133.132 47.7307 133.388 47.624 133.751 47.624H135.271V48.744H133.415V49.304C133.714 49.56 133.943 49.864 134.103 50.216C134.263 50.568 134.343 50.9627 134.343 51.4C134.343 51.816 134.263 52.2 134.103 52.552C133.954 52.904 133.74 53.208 133.463 53.464C133.186 53.7093 132.844 53.9013 132.439 54.04C132.044 54.1787 131.607 54.248 131.127 54.248C130.988 54.248 130.855 54.2427 130.727 54.232C130.599 54.2213 130.471 54.2053 130.343 54.184C130.215 54.2053 130.082 54.2427 129.943 54.296C129.804 54.3387 129.676 54.4027 129.559 54.488C129.442 54.5627 129.346 54.6533 129.271 54.76C129.196 54.8667 129.159 54.9893 129.159 55.128C129.159 55.3733 129.282 55.5387 129.527 55.624C129.772 55.6987 130.092 55.736 130.487 55.736H132.311C133.378 55.736 134.151 55.9387 134.631 56.344C135.111 56.7387 135.351 57.272 135.351 57.944ZM134.151 58.008C134.151 57.6773 134.018 57.4107 133.751 57.208C133.484 57.016 133.02 56.92 132.359 56.92H129.495C128.94 57.144 128.663 57.5173 128.663 58.04C128.663 58.4027 128.807 58.712 129.095 58.968C129.383 59.2347 129.863 59.368 130.535 59.368H131.783C132.53 59.368 133.111 59.2507 133.527 59.016C133.943 58.792 134.151 58.456 134.151 58.008ZM131.127 53.256C131.767 53.256 132.236 53.1067 132.535 52.808C132.844 52.5093 132.999 52.1147 132.999 51.624V51.16C132.999 50.6693 132.844 50.28 132.535 49.992C132.236 49.6933 131.767 49.544 131.127 49.544C130.487 49.544 130.018 49.6933 129.719 49.992C129.42 50.28 129.271 50.6693 129.271 51.16V51.624C129.271 52.1147 129.42 52.5093 129.719 52.808C130.018 53.1067 130.487 53.256 131.127 53.256ZM140.913 57.192C140.315 57.192 139.777 57.0907 139.297 56.888C138.827 56.6853 138.422 56.3973 138.081 56.024C137.75 55.64 137.494 55.1867 137.313 54.664C137.131 54.1307 137.041 53.5387 137.041 52.888C137.041 52.2267 137.131 51.6293 137.313 51.096C137.505 50.5627 137.766 50.1093 138.097 49.736C138.427 49.352 138.822 49.0587 139.281 48.856C139.75 48.6533 140.267 48.552 140.833 48.552C141.387 48.552 141.889 48.6533 142.337 48.856C142.795 49.0587 143.185 49.3413 143.505 49.704C143.825 50.056 144.07 50.4773 144.241 50.968C144.411 51.4587 144.497 51.9973 144.497 52.584V53.192H138.385V53.576C138.385 53.9387 138.443 54.2747 138.561 54.584C138.678 54.8933 138.843 55.16 139.057 55.384C139.281 55.608 139.547 55.784 139.857 55.912C140.177 56.0293 140.529 56.088 140.913 56.088C141.467 56.088 141.947 55.96 142.353 55.704C142.758 55.448 143.067 55.096 143.281 54.648L144.225 55.288C143.979 55.8427 143.569 56.3013 142.993 56.664C142.427 57.016 141.734 57.192 140.913 57.192ZM140.833 49.608C140.481 49.608 140.155 49.672 139.857 49.8C139.558 49.928 139.297 50.104 139.073 50.328C138.859 50.552 138.689 50.8187 138.561 51.128C138.443 51.4267 138.385 51.7573 138.385 52.12V52.232H143.121V52.056C143.121 51.6933 143.062 51.3627 142.945 51.064C142.838 50.7653 142.683 50.5093 142.481 50.296C142.289 50.072 142.049 49.9013 141.761 49.784C141.483 49.6667 141.174 49.608 140.833 49.608Z" fill="black"/>
<rect x="11" y="11" width="154" height="79" rx="5" stroke="black" stroke-width="2"/>
<path d="M214.707 51.2071C215.098 50.8166 215.098 50.1834 214.707 49.7929L208.343 43.4289C207.953 43.0384 207.319 43.0384 206.929 43.4289C206.538 43.8195 206.538 44.4526 206.929 44.8431L212.586 50.5L206.929 56.1569C206.538 56.5474 206.538 57.1805 206.929 57.5711C207.319 57.9616 207.953 57.9616 208.343 57.5711L214.707 51.2071ZM168 51.5H214V49.5H168V51.5Z" fill="#888888"/>
<rect x="219" y="11" width="193" height="79" rx="5" fill="#E5E5E5"/>
<path d="M273.688 57V55.832H276.888V46.824H276.776L273.96 49.448L273.176 48.6L276.136 45.832H278.232V55.832H281.176V57H273.688ZM283.33 45.832H287.122C288.082 45.832 288.834 46.0933 289.378 46.616C289.922 47.1387 290.194 47.8373 290.194 48.712C290.194 49.384 290.029 49.912 289.698 50.296C289.378 50.68 288.962 50.952 288.45 51.112V51.16C289.079 51.3093 289.597 51.592 290.002 52.008C290.407 52.4133 290.61 53.0053 290.61 53.784C290.61 54.232 290.535 54.6533 290.386 55.048C290.237 55.4427 290.023 55.784 289.746 56.072C289.479 56.36 289.159 56.5893 288.786 56.76C288.423 56.92 288.029 57 287.602 57H283.33V45.832ZM287.202 55.832C287.821 55.832 288.306 55.6933 288.658 55.416C289.01 55.1387 289.186 54.712 289.186 54.136V53.48C289.186 52.9147 289.01 52.4933 288.658 52.216C288.306 51.928 287.821 51.784 287.202 51.784H284.674V55.832H287.202ZM286.978 50.68C287.543 50.68 287.986 50.5573 288.306 50.312C288.626 50.056 288.786 49.672 288.786 49.16V48.536C288.786 48.024 288.626 47.64 288.306 47.384C287.986 47.128 287.543 47 286.978 47H284.674V50.68H286.978ZM296.988 47V57H295.644V47H291.916V45.832H300.716V47H296.988ZM306.277 57.192C304.912 57.192 303.893 56.696 303.221 55.704C302.56 54.712 302.229 53.2827 302.229 51.416C302.229 49.5493 302.56 48.12 303.221 47.128C303.893 46.136 304.912 45.64 306.277 45.64C306.789 45.64 307.232 45.7093 307.605 45.848C307.979 45.9867 308.299 46.1733 308.565 46.408C308.832 46.6427 309.056 46.9093 309.237 47.208C309.419 47.496 309.579 47.7893 309.717 48.088L308.565 48.616C308.469 48.3707 308.357 48.1413 308.229 47.928C308.101 47.704 307.947 47.512 307.765 47.352C307.595 47.1813 307.387 47.048 307.141 46.952C306.907 46.856 306.619 46.808 306.277 46.808C305.392 46.808 304.731 47.144 304.293 47.816C303.867 48.488 303.653 49.384 303.653 50.504V52.328C303.653 53.448 303.867 54.344 304.293 55.016C304.731 55.688 305.392 56.024 306.277 56.024C306.619 56.024 306.907 55.976 307.141 55.88C307.387 55.784 307.595 55.656 307.765 55.496C307.947 55.3253 308.101 55.1333 308.229 54.92C308.357 54.696 308.469 54.4613 308.565 54.216L309.717 54.744C309.579 55.0533 309.419 55.352 309.237 55.64C309.056 55.928 308.832 56.1893 308.565 56.424C308.299 56.6587 307.979 56.8453 307.605 56.984C307.232 57.1227 306.789 57.192 306.277 57.192ZM322.921 45.832V52.536C322.921 53.08 322.937 53.5653 322.969 53.992C323.001 54.4187 323.086 54.7867 323.225 55.096C323.364 55.3947 323.577 55.624 323.865 55.784C324.164 55.944 324.574 56.024 325.097 56.024C325.62 56.024 326.025 55.944 326.313 55.784C326.612 55.624 326.83 55.3947 326.969 55.096C327.108 54.7867 327.193 54.4187 327.225 53.992C327.257 53.5653 327.273 53.08 327.273 52.536V45.832H328.617V52.216C328.617 53.048 328.574 53.7733 328.489 54.392C328.414 55.0107 328.249 55.528 327.993 55.944C327.748 56.36 327.39 56.6747 326.921 56.888C326.462 57.0907 325.854 57.192 325.097 57.192C324.34 57.192 323.726 57.0907 323.257 56.888C322.798 56.6747 322.441 56.36 322.185 55.944C321.94 55.528 321.774 55.0107 321.689 54.392C321.614 53.7733 321.577 53.048 321.577 52.216V45.832H322.921ZM335.363 47V57H334.019V47H330.291V45.832H339.091V47H335.363ZM348.684 57H347.164L345.836 54.776L344.364 52.344H344.3L342.78 54.776L341.372 57H339.9L343.548 51.304L340.108 45.832H341.628L342.924 47.992L344.316 50.248H344.38L345.756 47.992L347.1 45.832H348.572L345.116 51.288L348.684 57ZM353.878 57.192C353.195 57.192 352.609 57.064 352.118 56.808C351.627 56.5413 351.222 56.1627 350.902 55.672C350.582 55.1813 350.347 54.5787 350.198 53.864C350.049 53.1493 349.974 52.3333 349.974 51.416C349.974 50.5093 350.049 49.6987 350.198 48.984C350.347 48.2587 350.582 47.6507 350.902 47.16C351.222 46.6693 351.627 46.296 352.118 46.04C352.609 45.7733 353.195 45.64 353.878 45.64C354.561 45.64 355.147 45.7733 355.638 46.04C356.129 46.296 356.534 46.6693 356.854 47.16C357.174 47.6507 357.409 48.2587 357.558 48.984C357.707 49.6987 357.782 50.5093 357.782 51.416C357.782 52.3333 357.707 53.1493 357.558 53.864C357.409 54.5787 357.174 55.1813 356.854 55.672C356.534 56.1627 356.129 56.5413 355.638 56.808C355.147 57.064 354.561 57.192 353.878 57.192ZM353.878 56.024C354.326 56.024 354.705 55.9387 355.014 55.768C355.323 55.5867 355.579 55.336 355.782 55.016C355.985 54.696 356.129 54.312 356.214 53.864C356.31 53.4053 356.358 52.8933 356.358 52.328V50.504C356.358 49.9493 356.31 49.4427 356.214 48.984C356.129 48.5253 355.985 48.136 355.782 47.816C355.579 47.496 355.323 47.2507 355.014 47.08C354.705 46.8987 354.326 46.808 353.878 46.808C353.43 46.808 353.051 46.8987 352.742 47.08C352.433 47.2507 352.177 47.496 351.974 47.816C351.771 48.136 351.622 48.5253 351.526 48.984C351.441 49.4427 351.398 49.9493 351.398 50.504V52.328C351.398 52.8933 351.441 53.4053 351.526 53.864C351.622 54.312 351.771 54.696 351.974 55.016C352.177 55.336 352.433 55.5867 352.742 55.768C353.051 55.9387 353.43 56.024 353.878 56.024Z" fill="black"/>
<rect x="219" y="11" width="193" height="79" rx="5" stroke="black" stroke-width="2"/>
<path d="M461.707 51.2071C462.098 50.8166 462.098 50.1834 461.707 49.7929L455.343 43.4289C454.953 43.0384 454.319 43.0384 453.929 43.4289C453.538 43.8195 453.538 44.4526 453.929 44.8431L459.586 50.5L453.929 56.1569C453.538 56.5474 453.538 57.1805 453.929 57.5711C454.319 57.9616 454.953 57.9616 455.343 57.5711L461.707 51.2071ZM415 51.5H461V49.5H415V51.5Z" fill="#888888"/>
<rect x="466" y="11" width="250" height="79" rx="5" fill="#E5E5E5"/>
<path d="M486.829 57V55.832H490.029V46.824H489.917L487.101 49.448L486.317 48.6L489.277 45.832H491.373V55.832H494.317V57H486.829ZM496.471 45.832H500.263C501.223 45.832 501.975 46.0933 502.519 46.616C503.063 47.1387 503.335 47.8373 503.335 48.712C503.335 49.384 503.169 49.912 502.839 50.296C502.519 50.68 502.103 50.952 501.591 51.112V51.16C502.22 51.3093 502.737 51.592 503.142 52.008C503.548 52.4133 503.751 53.0053 503.751 53.784C503.751 54.232 503.676 54.6533 503.527 55.048C503.377 55.4427 503.164 55.784 502.887 56.072C502.62 56.36 502.3 56.5893 501.927 56.76C501.564 56.92 501.169 57 500.743 57H496.471V45.832ZM500.343 55.832C500.961 55.832 501.447 55.6933 501.799 55.416C502.151 55.1387 502.327 54.712 502.327 54.136V53.48C502.327 52.9147 502.151 52.4933 501.799 52.216C501.447 51.928 500.961 51.784 500.343 51.784H497.815V55.832H500.343ZM500.119 50.68C500.684 50.68 501.127 50.5573 501.447 50.312C501.767 50.056 501.927 49.672 501.927 49.16V48.536C501.927 48.024 501.767 47.64 501.447 47.384C501.127 47.128 500.684 47 500.119 47H497.815V50.68H500.119ZM510.128 47V57H508.784V47H505.056V45.832H513.856V47H510.128ZM519.418 57.192C518.053 57.192 517.034 56.696 516.362 55.704C515.701 54.712 515.37 53.2827 515.37 51.416C515.37 49.5493 515.701 48.12 516.362 47.128C517.034 46.136 518.053 45.64 519.418 45.64C519.93 45.64 520.373 45.7093 520.746 45.848C521.119 45.9867 521.439 46.1733 521.706 46.408C521.973 46.6427 522.197 46.9093 522.378 47.208C522.559 47.496 522.719 47.7893 522.858 48.088L521.706 48.616C521.61 48.3707 521.498 48.1413 521.37 47.928C521.242 47.704 521.087 47.512 520.906 47.352C520.735 47.1813 520.527 47.048 520.282 46.952C520.047 46.856 519.759 46.808 519.418 46.808C518.533 46.808 517.871 47.144 517.434 47.816C517.007 48.488 516.794 49.384 516.794 50.504V52.328C516.794 53.448 517.007 54.344 517.434 55.016C517.871 55.688 518.533 56.024 519.418 56.024C519.759 56.024 520.047 55.976 520.282 55.88C520.527 55.784 520.735 55.656 520.906 55.496C521.087 55.3253 521.242 55.1333 521.37 54.92C521.498 54.696 521.61 54.4613 521.706 54.216L522.858 54.744C522.719 55.0533 522.559 55.352 522.378 55.64C522.197 55.928 521.973 56.1893 521.706 56.424C521.439 56.6587 521.119 56.8453 520.746 56.984C520.373 57.1227 519.93 57.192 519.418 57.192ZM535.358 57V45.832H536.702V55.832H541.998V57H535.358ZM548.343 46.92C547.97 46.92 547.709 46.8453 547.559 46.696C547.41 46.536 547.335 46.3387 547.335 46.104V45.848C547.335 45.6133 547.41 45.4213 547.559 45.272C547.709 45.112 547.97 45.032 548.343 45.032C548.717 45.032 548.978 45.112 549.127 45.272C549.277 45.4213 549.351 45.6133 549.351 45.848V46.104C549.351 46.3387 549.277 46.536 549.127 46.696C548.978 46.8453 548.717 46.92 548.343 46.92ZM544.727 55.912H547.703V49.832H544.727V48.744H548.983V55.912H551.767V57H544.727V55.912ZM561.601 57.944C561.601 58.776 561.254 59.3893 560.561 59.784C559.868 60.1893 558.828 60.392 557.441 60.392C556.108 60.392 555.148 60.216 554.561 59.864C553.985 59.512 553.697 59.0053 553.697 58.344C553.697 57.896 553.814 57.5493 554.049 57.304C554.284 57.0587 554.614 56.8773 555.041 56.76V56.568C554.806 56.4507 554.625 56.3013 554.497 56.12C554.369 55.9387 554.305 55.7093 554.305 55.432C554.305 55.0053 554.444 54.6853 554.721 54.472C555.009 54.2587 555.366 54.0987 555.793 53.992V53.928C555.281 53.704 554.881 53.3733 554.593 52.936C554.316 52.4987 554.177 51.9867 554.177 51.4C554.177 50.984 554.252 50.6 554.401 50.248C554.55 49.896 554.764 49.5973 555.041 49.352C555.329 49.096 555.67 48.8987 556.065 48.76C556.46 48.6213 556.897 48.552 557.377 48.552C557.996 48.552 558.54 48.664 559.009 48.888V48.744C559.009 48.424 559.084 48.1573 559.233 47.944C559.382 47.7307 559.638 47.624 560.001 47.624H561.521V48.744H559.665V49.304C559.964 49.56 560.193 49.864 560.353 50.216C560.513 50.568 560.593 50.9627 560.593 51.4C560.593 51.816 560.513 52.2 560.353 52.552C560.204 52.904 559.99 53.208 559.713 53.464C559.436 53.7093 559.094 53.9013 558.689 54.04C558.294 54.1787 557.857 54.248 557.377 54.248C557.238 54.248 557.105 54.2427 556.977 54.232C556.849 54.2213 556.721 54.2053 556.593 54.184C556.465 54.2053 556.332 54.2427 556.193 54.296C556.054 54.3387 555.926 54.4027 555.809 54.488C555.692 54.5627 555.596 54.6533 555.521 54.76C555.446 54.8667 555.409 54.9893 555.409 55.128C555.409 55.3733 555.532 55.5387 555.777 55.624C556.022 55.6987 556.342 55.736 556.737 55.736H558.561C559.628 55.736 560.401 55.9387 560.881 56.344C561.361 56.7387 561.601 57.272 561.601 57.944ZM560.401 58.008C560.401 57.6773 560.268 57.4107 560.001 57.208C559.734 57.016 559.27 56.92 558.609 56.92H555.745C555.19 57.144 554.913 57.5173 554.913 58.04C554.913 58.4027 555.057 58.712 555.345 58.968C555.633 59.2347 556.113 59.368 556.785 59.368H558.033C558.78 59.368 559.361 59.2507 559.777 59.016C560.193 58.792 560.401 58.456 560.401 58.008ZM557.377 53.256C558.017 53.256 558.486 53.1067 558.785 52.808C559.094 52.5093 559.249 52.1147 559.249 51.624V51.16C559.249 50.6693 559.094 50.28 558.785 49.992C558.486 49.6933 558.017 49.544 557.377 49.544C556.737 49.544 556.268 49.6933 555.969 49.992C555.67 50.28 555.521 50.6693 555.521 51.16V51.624C555.521 52.1147 555.67 52.5093 555.969 52.808C556.268 53.1067 556.737 53.256 557.377 53.256ZM563.787 45.16H565.067V50.088H565.131C565.216 49.8853 565.323 49.6933 565.451 49.512C565.579 49.32 565.733 49.1547 565.915 49.016C566.107 48.8773 566.331 48.7653 566.587 48.68C566.843 48.5947 567.141 48.552 567.483 48.552C568.347 48.552 569.04 48.8293 569.563 49.384C570.085 49.928 570.347 50.7013 570.347 51.704V57H569.067V51.928C569.067 51.1707 568.901 50.6107 568.571 50.248C568.24 49.8747 567.755 49.688 567.115 49.688C566.859 49.688 566.608 49.72 566.363 49.784C566.117 49.848 565.899 49.944 565.707 50.072C565.515 50.2 565.36 50.3653 565.243 50.568C565.125 50.7707 565.067 51.0053 565.067 51.272V57H563.787V45.16ZM577.013 57C576.383 57 575.919 56.824 575.621 56.472C575.333 56.12 575.189 55.6667 575.189 55.112V49.832H572.437V48.744H574.485C574.762 48.744 574.954 48.6907 575.061 48.584C575.178 48.4667 575.237 48.2693 575.237 47.992V45.832H576.469V48.744H580.229V49.832H576.469V55.912H580.229V57H577.013ZM582.974 57V48.744H584.254V50.088H584.318C584.404 49.8853 584.51 49.6933 584.638 49.512C584.766 49.32 584.921 49.1547 585.102 49.016C585.294 48.8773 585.518 48.7653 585.774 48.68C586.03 48.5947 586.329 48.552 586.67 48.552C587.534 48.552 588.228 48.8293 588.75 49.384C589.273 49.928 589.534 50.7013 589.534 51.704V57H588.254V51.928C588.254 51.1707 588.089 50.6107 587.758 50.248C587.428 49.8747 586.942 49.688 586.302 49.688C586.046 49.688 585.796 49.72 585.55 49.784C585.305 49.848 585.086 49.944 584.894 50.072C584.702 50.2 584.548 50.3653 584.43 50.568C584.313 50.7707 584.254 51.0053 584.254 51.272V57H582.974ZM596.312 46.92C595.939 46.92 595.677 46.8453 595.528 46.696C595.379 46.536 595.304 46.3387 595.304 46.104V45.848C595.304 45.6133 595.379 45.4213 595.528 45.272C595.677 45.112 595.939 45.032 596.312 45.032C596.685 45.032 596.947 45.112 597.096 45.272C597.245 45.4213 597.32 45.6133 597.32 45.848V46.104C597.32 46.3387 597.245 46.536 597.096 46.696C596.947 46.8453 596.685 46.92 596.312 46.92ZM592.696 55.912H595.672V49.832H592.696V48.744H596.952V55.912H599.736V57H592.696V55.912ZM602.162 57V48.744H603.442V50.088H603.506C603.591 49.8853 603.698 49.6933 603.826 49.512C603.954 49.32 604.108 49.1547 604.29 49.016C604.482 48.8773 604.706 48.7653 604.962 48.68C605.218 48.5947 605.516 48.552 605.858 48.552C606.722 48.552 607.415 48.8293 607.938 49.384C608.46 49.928 608.722 50.7013 608.722 51.704V57H607.442V51.928C607.442 51.1707 607.276 50.6107 606.946 50.248C606.615 49.8747 606.13 49.688 605.49 49.688C605.234 49.688 604.983 49.72 604.738 49.784C604.492 49.848 604.274 49.944 604.082 50.072C603.89 50.2 603.735 50.3653 603.618 50.568C603.5 50.7707 603.442 51.0053 603.442 51.272V57H602.162ZM619.164 57.944C619.164 58.776 618.817 59.3893 618.124 59.784C617.43 60.1893 616.39 60.392 615.004 60.392C613.67 60.392 612.71 60.216 612.124 59.864C611.548 59.512 611.26 59.0053 611.26 58.344C611.26 57.896 611.377 57.5493 611.612 57.304C611.846 57.0587 612.177 56.8773 612.604 56.76V56.568C612.369 56.4507 612.188 56.3013 612.06 56.12C611.932 55.9387 611.868 55.7093 611.868 55.432C611.868 55.0053 612.006 54.6853 612.284 54.472C612.572 54.2587 612.929 54.0987 613.356 53.992V53.928C612.844 53.704 612.444 53.3733 612.156 52.936C611.878 52.4987 611.74 51.9867 611.74 51.4C611.74 50.984 611.814 50.6 611.964 50.248C612.113 49.896 612.326 49.5973 612.604 49.352C612.892 49.096 613.233 48.8987 613.628 48.76C614.022 48.6213 614.46 48.552 614.94 48.552C615.558 48.552 616.102 48.664 616.572 48.888V48.744C616.572 48.424 616.646 48.1573 616.796 47.944C616.945 47.7307 617.201 47.624 617.564 47.624H619.084V48.744H617.228V49.304C617.526 49.56 617.756 49.864 617.916 50.216C618.076 50.568 618.156 50.9627 618.156 51.4C618.156 51.816 618.076 52.2 617.916 52.552C617.766 52.904 617.553 53.208 617.276 53.464C616.998 53.7093 616.657 53.9013 616.252 54.04C615.857 54.1787 615.42 54.248 614.94 54.248C614.801 54.248 614.668 54.2427 614.54 54.232C614.412 54.2213 614.284 54.2053 614.156 54.184C614.028 54.2053 613.894 54.2427 613.756 54.296C613.617 54.3387 613.489 54.4027 613.372 54.488C613.254 54.5627 613.158 54.6533 613.084 54.76C613.009 54.8667 612.972 54.9893 612.972 55.128C612.972 55.3733 613.094 55.5387 613.34 55.624C613.585 55.6987 613.905 55.736 614.299 55.736H616.124C617.19 55.736 617.964 55.9387 618.444 56.344C618.924 56.7387 619.164 57.272 619.164 57.944ZM617.964 58.008C617.964 57.6773 617.83 57.4107 617.564 57.208C617.297 57.016 616.833 56.92 616.172 56.92H613.308C612.753 57.144 612.476 57.5173 612.476 58.04C612.476 58.4027 612.62 58.712 612.908 58.968C613.196 59.2347 613.676 59.368 614.348 59.368H615.596C616.342 59.368 616.924 59.2507 617.34 59.016C617.756 58.792 617.964 58.456 617.964 58.008ZM614.94 53.256C615.58 53.256 616.049 53.1067 616.348 52.808C616.657 52.5093 616.812 52.1147 616.812 51.624V51.16C616.812 50.6693 616.657 50.28 616.348 49.992C616.049 49.6933 615.58 49.544 614.94 49.544C614.3 49.544 613.83 49.6933 613.532 49.992C613.233 50.28 613.084 50.6693 613.084 51.16V51.624C613.084 52.1147 613.233 52.5093 613.532 52.808C613.83 53.1067 614.3 53.256 614.94 53.256ZM634.543 57.192C633.178 57.192 632.159 56.696 631.487 55.704C630.826 54.712 630.495 53.2827 630.495 51.416C630.495 49.5493 630.826 48.12 631.487 47.128C632.159 46.136 633.178 45.64 634.543 45.64C635.055 45.64 635.498 45.7093 635.871 45.848C636.244 45.9867 636.564 46.1733 636.831 46.408C637.098 46.6427 637.322 46.9093 637.503 47.208C637.684 47.496 637.844 47.7893 637.983 48.088L636.831 48.616C636.735 48.3707 636.623 48.1413 636.495 47.928C636.367 47.704 636.212 47.512 636.031 47.352C635.86 47.1813 635.652 47.048 635.407 46.952C635.172 46.856 634.884 46.808 634.543 46.808C633.658 46.808 632.996 47.144 632.559 47.816C632.132 48.488 631.919 49.384 631.919 50.504V52.328C631.919 53.448 632.132 54.344 632.559 55.016C632.996 55.688 633.658 56.024 634.543 56.024C634.884 56.024 635.172 55.976 635.407 55.88C635.652 55.784 635.86 55.656 636.031 55.496C636.212 55.3253 636.367 55.1333 636.495 54.92C636.623 54.696 636.735 54.4613 636.831 54.216L637.983 54.744C637.844 55.0533 637.684 55.352 637.503 55.64C637.322 55.928 637.098 56.1893 636.831 56.424C636.564 56.6587 636.244 56.8453 635.871 56.984C635.498 57.1227 635.055 57.192 634.543 57.192ZM640.537 45.16H641.817V50.088H641.881C641.966 49.8853 642.073 49.6933 642.201 49.512C642.329 49.32 642.483 49.1547 642.665 49.016C642.857 48.8773 643.081 48.7653 643.337 48.68C643.593 48.5947 643.891 48.552 644.233 48.552C645.097 48.552 645.79 48.8293 646.313 49.384C646.835 49.928 647.097 50.7013 647.097 51.704V57H645.817V51.928C645.817 51.1707 645.651 50.6107 645.321 50.248C644.99 49.8747 644.505 49.688 643.865 49.688C643.609 49.688 643.358 49.72 643.113 49.784C642.867 49.848 642.649 49.944 642.457 50.072C642.265 50.2 642.11 50.3653 641.993 50.568C641.875 50.7707 641.817 51.0053 641.817 51.272V57H640.537V45.16ZM656.483 57C655.981 57 655.624 56.872 655.411 56.616C655.197 56.36 655.064 56.04 655.011 55.656H654.931C654.749 56.136 654.456 56.5147 654.051 56.792C653.656 57.0587 653.123 57.192 652.451 57.192C651.587 57.192 650.899 56.968 650.387 56.52C649.875 56.072 649.618 55.4587 649.618 54.68C649.618 53.912 649.896 53.32 650.451 52.904C651.016 52.488 651.923 52.28 653.171 52.28H654.931V51.464C654.931 50.856 654.76 50.4027 654.419 50.104C654.077 49.7947 653.592 49.64 652.963 49.64C652.408 49.64 651.955 49.752 651.603 49.976C651.251 50.1893 650.968 50.4827 650.755 50.856L649.891 50.216C649.997 50.0027 650.141 49.7947 650.323 49.592C650.504 49.3893 650.728 49.2133 650.995 49.064C651.261 48.904 651.565 48.7813 651.907 48.696C652.248 48.6 652.627 48.552 653.043 48.552C654.013 48.552 654.781 48.7973 655.347 49.288C655.923 49.7787 656.211 50.4613 656.211 51.336V55.88H657.363V57H656.483ZM652.674 56.12C653.005 56.12 653.304 56.0827 653.571 56.008C653.848 55.9227 654.088 55.816 654.291 55.688C654.493 55.5493 654.648 55.3893 654.755 55.208C654.872 55.016 654.931 54.8133 654.931 54.6V53.24H653.171C652.403 53.24 651.843 53.3467 651.491 53.56C651.139 53.7733 650.963 54.0827 650.963 54.488V54.824C650.963 55.2507 651.112 55.576 651.411 55.8C651.72 56.0133 652.141 56.12 652.674 56.12ZM659.724 57V48.744H661.004V50.088H661.068C661.154 49.8853 661.26 49.6933 661.388 49.512C661.516 49.32 661.671 49.1547 661.852 49.016C662.044 48.8773 662.268 48.7653 662.524 48.68C662.78 48.5947 663.079 48.552 663.42 48.552C664.284 48.552 664.978 48.8293 665.5 49.384C666.023 49.928 666.284 50.7013 666.284 51.704V57H665.004V51.928C665.004 51.1707 664.839 50.6107 664.508 50.248C664.178 49.8747 663.692 49.688 663.052 49.688C662.796 49.688 662.546 49.72 662.3 49.784C662.055 49.848 661.836 49.944 661.644 50.072C661.452 50.2 661.298 50.3653 661.18 50.568C661.063 50.7707 661.004 51.0053 661.004 51.272V57H659.724ZM669.318 57V48.744H670.598V50.088H670.662C670.747 49.8853 670.854 49.6933 670.982 49.512C671.11 49.32 671.265 49.1547 671.446 49.016C671.638 48.8773 671.862 48.7653 672.118 48.68C672.374 48.5947 672.673 48.552 673.014 48.552C673.878 48.552 674.571 48.8293 675.094 49.384C675.617 49.928 675.878 50.7013 675.878 51.704V57H674.598V51.928C674.598 51.1707 674.433 50.6107 674.102 50.248C673.771 49.8747 673.286 49.688 672.646 49.688C672.39 49.688 672.139 49.72 671.894 49.784C671.649 49.848 671.43 49.944 671.238 50.072C671.046 50.2 670.891 50.3653 670.774 50.568C670.657 50.7707 670.598 51.0053 670.598 51.272V57H669.318ZM682.288 57.192C681.69 57.192 681.152 57.0907 680.672 56.888C680.202 56.6853 679.797 56.3973 679.456 56.024C679.125 55.64 678.869 55.1867 678.688 54.664C678.506 54.1307 678.416 53.5387 678.416 52.888C678.416 52.2267 678.506 51.6293 678.688 51.096C678.88 50.5627 679.141 50.1093 679.472 49.736C679.802 49.352 680.197 49.0587 680.656 48.856C681.125 48.6533 681.642 48.552 682.208 48.552C682.762 48.552 683.264 48.6533 683.712 48.856C684.17 49.0587 684.56 49.3413 684.88 49.704C685.2 50.056 685.445 50.4773 685.616 50.968C685.786 51.4587 685.872 51.9973 685.872 52.584V53.192H679.76V53.576C679.76 53.9387 679.818 54.2747 679.936 54.584C680.053 54.8933 680.218 55.16 680.432 55.384C680.656 55.608 680.922 55.784 681.232 55.912C681.552 56.0293 681.904 56.088 682.288 56.088C682.842 56.088 683.322 55.96 683.728 55.704C684.133 55.448 684.442 55.096 684.656 54.648L685.6 55.288C685.354 55.8427 684.944 56.3013 684.368 56.664C683.802 57.016 683.109 57.192 682.288 57.192ZM682.208 49.608C681.856 49.608 681.53 49.672 681.232 49.8C680.933 49.928 680.672 50.104 680.448 50.328C680.234 50.552 680.064 50.8187 679.936 51.128C679.818 51.4267 679.76 51.7573 679.76 52.12V52.232H684.496V52.056C684.496 51.6933 684.437 51.3627 684.32 51.064C684.213 50.7653 684.058 50.5093 683.856 50.296C683.664 50.072 683.424 49.9013 683.136 49.784C682.858 49.6667 682.549 49.608 682.208 49.608ZM688.218 55.912H691.098V46.248H688.218V45.16H692.378V55.912H695.258V57H688.218V55.912Z" fill="black"/>
<rect x="466" y="11" width="250" height="79" rx="5" stroke="black" stroke-width="2"/>
<path d="M41.2948 117H39.6641L43.3282 106.818H45.103L48.7671 117H47.1364L44.2579 108.668H44.1783L41.2948 117ZM41.5682 113.013H46.858V114.305H41.5682V113.013ZM51.3386 106.818V117H49.8521V106.818H51.3386ZM53.0725 117V109.364H54.559V117H53.0725ZM53.8232 108.185C53.5646 108.185 53.3426 108.099 53.157 107.927C52.9747 107.751 52.8835 107.542 52.8835 107.3C52.8835 107.055 52.9747 106.846 53.157 106.674C53.3426 106.498 53.5646 106.411 53.8232 106.411C54.0817 106.411 54.3021 106.498 54.4844 106.674C54.67 106.846 54.7628 107.055 54.7628 107.3C54.7628 107.542 54.67 107.751 54.4844 107.927C54.3021 108.099 54.0817 108.185 53.8232 108.185ZM59.5094 117.154C58.7703 117.154 58.1339 116.987 57.6003 116.652C57.07 116.314 56.6623 115.848 56.3773 115.255C56.0923 114.662 55.9497 113.982 55.9497 113.217C55.9497 112.441 56.0956 111.757 56.3872 111.163C56.6789 110.567 57.0899 110.101 57.6202 109.766C58.1505 109.432 58.7753 109.264 59.4945 109.264C60.0745 109.264 60.5916 109.372 61.0456 109.587C61.4997 109.799 61.8659 110.098 62.1443 110.482C62.4261 110.867 62.5934 111.316 62.6465 111.83H61.1997C61.1202 111.472 60.9379 111.163 60.6529 110.905C60.3711 110.646 59.9933 110.517 59.5193 110.517C59.105 110.517 58.7421 110.626 58.4306 110.845C58.1223 111.061 57.882 111.369 57.7097 111.77C57.5373 112.168 57.4512 112.638 57.4512 113.182C57.4512 113.739 57.5357 114.219 57.7047 114.624C57.8737 115.028 58.1124 115.341 58.4206 115.563C58.7322 115.785 59.0984 115.896 59.5193 115.896C59.8011 115.896 60.0563 115.845 60.285 115.742C60.517 115.636 60.7109 115.485 60.8666 115.29C61.0257 115.094 61.1368 114.859 61.1997 114.584H62.6465C62.5934 115.078 62.4327 115.518 62.1642 115.906C61.8958 116.294 61.5362 116.599 61.0854 116.821C60.638 117.043 60.1126 117.154 59.5094 117.154ZM67.2613 117.154C66.509 117.154 65.861 116.993 65.3174 116.672C64.7772 116.347 64.3596 115.891 64.0646 115.305C63.7729 114.715 63.6271 114.024 63.6271 113.232C63.6271 112.449 63.7729 111.76 64.0646 111.163C64.3596 110.567 64.7706 110.101 65.2976 109.766C65.8279 109.432 66.4477 109.264 67.1569 109.264C67.5878 109.264 68.0054 109.335 68.4098 109.478C68.8141 109.621 69.1771 109.844 69.4986 110.149C69.82 110.454 70.0736 110.85 70.2592 111.337C70.4448 111.821 70.5376 112.41 70.5376 113.102V113.629H64.4673V112.516H69.0809C69.0809 112.125 69.0014 111.778 68.8423 111.477C68.6832 111.172 68.4595 110.931 68.1711 110.756C67.8861 110.58 67.5513 110.492 67.1669 110.492C66.7493 110.492 66.3847 110.595 66.0731 110.8C65.7649 111.003 65.5262 111.268 65.3572 111.596C65.1915 111.921 65.1086 112.274 65.1086 112.655V113.525C65.1086 114.035 65.1981 114.469 65.3771 114.827C65.5594 115.185 65.8129 115.459 66.1378 115.648C66.4626 115.833 66.8421 115.926 67.2762 115.926C67.558 115.926 67.8148 115.886 68.0468 115.807C68.2789 115.724 68.4794 115.601 68.6484 115.439C68.8174 115.277 68.9467 115.076 69.0362 114.837L70.4432 115.091C70.3305 115.505 70.1283 115.868 69.8366 116.18C69.5483 116.488 69.1853 116.728 68.7478 116.901C68.3137 117.07 67.8182 117.154 67.2613 117.154ZM73.1986 106.818V107.773C73.1986 108.054 73.1456 108.351 73.0395 108.663C72.9368 108.971 72.791 109.268 72.602 109.553C72.4131 109.838 72.1911 110.083 71.9359 110.288L71.2001 109.761C71.3956 109.476 71.5646 109.173 71.7072 108.852C71.853 108.53 71.9259 108.175 71.9259 107.788V106.818H73.1986ZM79.1272 111.228L77.7799 111.467C77.7236 111.294 77.6341 111.13 77.5115 110.974C77.3922 110.819 77.2297 110.691 77.0243 110.592C76.8188 110.492 76.5619 110.442 76.2537 110.442C75.8327 110.442 75.4814 110.537 75.1997 110.726C74.918 110.911 74.7771 111.152 74.7771 111.447C74.7771 111.702 74.8716 111.907 75.0605 112.063C75.2494 112.219 75.5543 112.347 75.9752 112.446L77.1883 112.724C77.891 112.887 78.4146 113.137 78.7593 113.475C79.104 113.813 79.2764 114.252 79.2764 114.793C79.2764 115.25 79.1438 115.658 78.8787 116.016C78.6168 116.37 78.2506 116.649 77.7799 116.851C77.3126 117.053 76.7707 117.154 76.1542 117.154C75.2991 117.154 74.6014 116.972 74.0612 116.607C73.5209 116.239 73.1895 115.717 73.0669 115.041L74.5037 114.822C74.5931 115.197 74.7771 115.48 75.0555 115.673C75.3339 115.862 75.6968 115.956 76.1443 115.956C76.6315 115.956 77.0209 115.855 77.3126 115.653C77.6043 115.447 77.7501 115.197 77.7501 114.902C77.7501 114.663 77.6606 114.463 77.4816 114.3C77.306 114.138 77.0359 114.015 76.6713 113.933L75.3787 113.649C74.6661 113.487 74.1391 113.228 73.7977 112.874C73.4596 112.519 73.2906 112.07 73.2906 111.526C73.2906 111.076 73.4165 110.681 73.6684 110.343C73.9203 110.005 74.2683 109.741 74.7125 109.553C75.1566 109.36 75.6654 109.264 76.2387 109.264C77.064 109.264 77.7136 109.443 78.1876 109.801C78.6616 110.156 78.9748 110.631 79.1272 111.228ZM86.3062 117.169C85.8223 117.169 85.3848 117.08 84.9937 116.901C84.6026 116.718 84.2927 116.455 84.064 116.11C83.8386 115.765 83.7259 115.343 83.7259 114.842C83.7259 114.411 83.8088 114.057 83.9745 113.778C84.1402 113.5 84.3639 113.28 84.6457 113.117C84.9274 112.955 85.2423 112.832 85.5903 112.749C85.9383 112.666 86.2929 112.603 86.6542 112.56C87.1116 112.507 87.4828 112.464 87.7678 112.431C88.0529 112.395 88.26 112.337 88.3893 112.257C88.5185 112.178 88.5832 112.048 88.5832 111.869V111.835C88.5832 111.4 88.4605 111.064 88.2153 110.825C87.9733 110.587 87.612 110.467 87.1315 110.467C86.631 110.467 86.2366 110.578 85.9482 110.8C85.6632 111.019 85.466 111.263 85.3566 111.531L83.9596 111.213C84.1253 110.749 84.3673 110.375 84.6854 110.089C85.0069 109.801 85.3765 109.592 85.7941 109.463C86.2117 109.33 86.6509 109.264 87.1116 109.264C87.4165 109.264 87.7397 109.301 88.081 109.374C88.4257 109.443 88.7472 109.572 89.0455 109.761C89.3471 109.95 89.5941 110.22 89.7863 110.572C89.9785 110.92 90.0746 111.372 90.0746 111.929V117H88.6229V115.956H88.5633C88.4672 116.148 88.323 116.337 88.1308 116.523C87.9385 116.708 87.6916 116.862 87.39 116.985C87.0884 117.108 86.7271 117.169 86.3062 117.169ZM86.6293 115.976C87.0403 115.976 87.3916 115.895 87.6833 115.732C87.9783 115.57 88.202 115.358 88.3545 115.096C88.5103 114.831 88.5881 114.547 88.5881 114.246V113.261C88.5351 113.314 88.4324 113.364 88.2799 113.411C88.1308 113.454 87.9601 113.492 87.7678 113.525C87.5756 113.555 87.3883 113.583 87.206 113.609C87.0237 113.633 86.8713 113.652 86.7486 113.669C86.4603 113.705 86.1968 113.767 85.9582 113.853C85.7228 113.939 85.5339 114.063 85.3914 114.226C85.2522 114.385 85.1826 114.597 85.1826 114.862C85.1826 115.23 85.3185 115.509 85.5903 115.697C85.862 115.883 86.2084 115.976 86.6293 115.976ZM95.0052 117.154C94.2661 117.154 93.6297 116.987 93.0961 116.652C92.5658 116.314 92.1581 115.848 91.8731 115.255C91.5881 114.662 91.4455 113.982 91.4455 113.217C91.4455 112.441 91.5914 111.757 91.883 111.163C92.1747 110.567 92.5857 110.101 93.116 109.766C93.6463 109.432 94.2711 109.264 94.9903 109.264C95.5703 109.264 96.0873 109.372 96.5414 109.587C96.9955 109.799 97.3617 110.098 97.6401 110.482C97.9219 110.867 98.0892 111.316 98.1423 111.83H96.6955C96.616 111.472 96.4337 111.163 96.1487 110.905C95.8669 110.646 95.4891 110.517 95.0151 110.517C94.6008 110.517 94.2379 110.626 93.9264 110.845C93.6181 111.061 93.3778 111.369 93.2055 111.77C93.0331 112.168 92.947 112.638 92.947 113.182C92.947 113.739 93.0315 114.219 93.2005 114.624C93.3695 115.028 93.6082 115.341 93.9164 115.563C94.228 115.785 94.5942 115.896 95.0151 115.896C95.2969 115.896 95.5521 115.845 95.7808 115.742C96.0128 115.636 96.2067 115.485 96.3624 115.29C96.5215 115.094 96.6326 114.859 96.6955 114.584H98.1423C98.0892 115.078 97.9285 115.518 97.66 115.906C97.3916 116.294 97.0319 116.599 96.5812 116.821C96.1337 117.043 95.6084 117.154 95.0052 117.154ZM102.683 117.154C101.943 117.154 101.307 116.987 100.773 116.652C100.243 116.314 99.8355 115.848 99.5505 115.255C99.2654 114.662 99.1229 113.982 99.1229 113.217C99.1229 112.441 99.2687 111.757 99.5604 111.163C99.8521 110.567 100.263 110.101 100.793 109.766C101.324 109.432 101.948 109.264 102.668 109.264C103.248 109.264 103.765 109.372 104.219 109.587C104.673 109.799 105.039 110.098 105.318 110.482C105.599 110.867 105.767 111.316 105.82 111.83H104.373C104.293 111.472 104.111 111.163 103.826 110.905C103.544 110.646 103.166 110.517 102.693 110.517C102.278 110.517 101.915 110.626 101.604 110.845C101.295 111.061 101.055 111.369 100.883 111.77C100.71 112.168 100.624 112.638 100.624 113.182C100.624 113.739 100.709 114.219 100.878 114.624C101.047 115.028 101.286 115.341 101.594 115.563C101.905 115.785 102.272 115.896 102.693 115.896C102.974 115.896 103.229 115.845 103.458 115.742C103.69 115.636 103.884 115.485 104.04 115.29C104.199 115.094 104.31 114.859 104.373 114.584H105.82C105.767 115.078 105.606 115.518 105.337 115.906C105.069 116.294 104.709 116.599 104.259 116.821C103.811 117.043 103.286 117.154 102.683 117.154ZM110.36 117.154C109.644 117.154 109.019 116.99 108.486 116.662C107.952 116.334 107.538 115.875 107.243 115.285C106.948 114.695 106.8 114.005 106.8 113.217C106.8 112.424 106.948 111.732 107.243 111.138C107.538 110.545 107.952 110.085 108.486 109.756C109.019 109.428 109.644 109.264 110.36 109.264C111.076 109.264 111.701 109.428 112.234 109.756C112.768 110.085 113.182 110.545 113.477 111.138C113.772 111.732 113.92 112.424 113.92 113.217C113.92 114.005 113.772 114.695 113.477 115.285C113.182 115.875 112.768 116.334 112.234 116.662C111.701 116.99 111.076 117.154 110.36 117.154ZM110.365 115.906C110.829 115.906 111.213 115.784 111.518 115.538C111.823 115.293 112.049 114.967 112.194 114.559C112.344 114.151 112.418 113.702 112.418 113.212C112.418 112.724 112.344 112.277 112.194 111.869C112.049 111.458 111.823 111.129 111.518 110.88C111.213 110.631 110.829 110.507 110.365 110.507C109.898 110.507 109.51 110.631 109.202 110.88C108.897 111.129 108.67 111.458 108.52 111.869C108.375 112.277 108.302 112.724 108.302 113.212C108.302 113.702 108.375 114.151 108.52 114.559C108.67 114.967 108.897 115.293 109.202 115.538C109.51 115.784 109.898 115.906 110.365 115.906ZM120.15 113.833V109.364H121.642V117H120.18V115.678H120.1C119.925 116.085 119.643 116.425 119.255 116.697C118.871 116.965 118.392 117.099 117.819 117.099C117.328 117.099 116.894 116.992 116.516 116.776C116.141 116.558 115.846 116.234 115.631 115.807C115.419 115.379 115.313 114.851 115.313 114.221V109.364H116.799V114.042C116.799 114.562 116.944 114.977 117.232 115.285C117.52 115.593 117.895 115.747 118.355 115.747C118.634 115.747 118.911 115.678 119.186 115.538C119.464 115.399 119.694 115.189 119.877 114.907C120.062 114.625 120.154 114.267 120.15 113.833ZM124.86 112.466V117H123.373V109.364H124.8V110.607H124.894C125.07 110.202 125.345 109.877 125.72 109.632C126.097 109.387 126.573 109.264 127.146 109.264C127.667 109.264 128.123 109.374 128.514 109.592C128.905 109.808 129.208 110.129 129.423 110.557C129.639 110.984 129.747 111.513 129.747 112.143V117H128.26V112.322C128.26 111.768 128.116 111.336 127.828 111.024C127.539 110.709 127.143 110.552 126.639 110.552C126.295 110.552 125.988 110.626 125.72 110.776C125.454 110.925 125.244 111.143 125.088 111.432C124.936 111.717 124.86 112.062 124.86 112.466ZM135.039 109.364V110.557H130.868V109.364H135.039ZM131.986 107.534H133.473V114.758C133.473 115.046 133.516 115.263 133.602 115.409C133.688 115.552 133.799 115.649 133.935 115.702C134.074 115.752 134.225 115.777 134.388 115.777C134.507 115.777 134.611 115.769 134.701 115.752C134.79 115.736 134.86 115.722 134.91 115.712L135.178 116.94C135.092 116.973 134.969 117.007 134.81 117.04C134.651 117.076 134.452 117.096 134.214 117.099C133.822 117.106 133.458 117.036 133.12 116.891C132.782 116.745 132.508 116.519 132.299 116.214C132.091 115.91 131.986 115.527 131.986 115.066V107.534Z" fill="#888888"/>
<path d="M235.822 117V106.818H237.358V115.678H241.971V117H235.822ZM246.555 117.154C245.839 117.154 245.215 116.99 244.681 116.662C244.147 116.334 243.733 115.875 243.438 115.285C243.143 114.695 242.996 114.005 242.996 113.217C242.996 112.424 243.143 111.732 243.438 111.138C243.733 110.545 244.147 110.085 244.681 109.756C245.215 109.428 245.839 109.264 246.555 109.264C247.271 109.264 247.896 109.428 248.429 109.756C248.963 110.085 249.377 110.545 249.672 111.138C249.967 111.732 250.115 112.424 250.115 113.217C250.115 114.005 249.967 114.695 249.672 115.285C249.377 115.875 248.963 116.334 248.429 116.662C247.896 116.99 247.271 117.154 246.555 117.154ZM246.56 115.906C247.024 115.906 247.409 115.784 247.714 115.538C248.018 115.293 248.244 114.967 248.39 114.559C248.539 114.151 248.613 113.702 248.613 113.212C248.613 112.724 248.539 112.277 248.39 111.869C248.244 111.458 248.018 111.129 247.714 110.88C247.409 110.631 247.024 110.507 246.56 110.507C246.093 110.507 245.705 110.631 245.397 110.88C245.092 111.129 244.865 111.458 244.716 111.869C244.57 112.277 244.497 112.724 244.497 113.212C244.497 113.702 244.57 114.151 244.716 114.559C244.865 114.967 245.092 115.293 245.397 115.538C245.705 115.784 246.093 115.906 246.56 115.906ZM254.725 117.154C254.009 117.154 253.384 116.99 252.85 116.662C252.317 116.334 251.903 115.875 251.608 115.285C251.313 114.695 251.165 114.005 251.165 113.217C251.165 112.424 251.313 111.732 251.608 111.138C251.903 110.545 252.317 110.085 252.85 109.756C253.384 109.428 254.009 109.264 254.725 109.264C255.441 109.264 256.065 109.428 256.599 109.756C257.133 110.085 257.547 110.545 257.842 111.138C258.137 111.732 258.284 112.424 258.284 113.217C258.284 114.005 258.137 114.695 257.842 115.285C257.547 115.875 257.133 116.334 256.599 116.662C256.065 116.99 255.441 117.154 254.725 117.154ZM254.73 115.906C255.194 115.906 255.578 115.784 255.883 115.538C256.188 115.293 256.413 114.967 256.559 114.559C256.708 114.151 256.783 113.702 256.783 113.212C256.783 112.724 256.708 112.277 256.559 111.869C256.413 111.458 256.188 111.129 255.883 110.88C255.578 110.631 255.194 110.507 254.73 110.507C254.262 110.507 253.875 110.631 253.566 110.88C253.261 111.129 253.034 111.458 252.885 111.869C252.739 112.277 252.666 112.724 252.666 113.212C252.666 113.702 252.739 114.151 252.885 114.559C253.034 114.967 253.261 115.293 253.566 115.538C253.875 115.784 254.262 115.906 254.73 115.906ZM261.045 114.41L261.035 112.595H261.293L264.336 109.364H266.116L262.646 113.043H262.412L261.045 114.41ZM259.678 117V106.818H261.164V117H259.678ZM264.5 117L261.766 113.371L262.79 112.332L266.325 117H264.5ZM272.927 111.228L271.58 111.467C271.523 111.294 271.434 111.13 271.311 110.974C271.192 110.819 271.029 110.691 270.824 110.592C270.618 110.492 270.362 110.442 270.053 110.442C269.632 110.442 269.281 110.537 268.999 110.726C268.718 110.911 268.577 111.152 268.577 111.447C268.577 111.702 268.671 111.907 268.86 112.063C269.049 112.219 269.354 112.347 269.775 112.446L270.988 112.724C271.691 112.887 272.214 113.137 272.559 113.475C272.904 113.813 273.076 114.252 273.076 114.793C273.076 115.25 272.943 115.658 272.678 116.016C272.417 116.37 272.05 116.649 271.58 116.851C271.112 117.053 270.57 117.154 269.954 117.154C269.099 117.154 268.401 116.972 267.861 116.607C267.321 116.239 266.989 115.717 266.867 115.041L268.303 114.822C268.393 115.197 268.577 115.48 268.855 115.673C269.134 115.862 269.497 115.956 269.944 115.956C270.431 115.956 270.821 115.855 271.112 115.653C271.404 115.447 271.55 115.197 271.55 114.902C271.55 114.663 271.46 114.463 271.281 114.3C271.106 114.138 270.836 114.015 270.471 113.933L269.178 113.649C268.466 113.487 267.939 113.228 267.597 112.874C267.259 112.519 267.09 112.07 267.09 111.526C267.09 111.076 267.216 110.681 267.468 110.343C267.72 110.005 268.068 109.741 268.512 109.553C268.956 109.36 269.465 109.264 270.038 109.264C270.864 109.264 271.513 109.443 271.987 109.801C272.461 110.156 272.774 110.631 272.927 111.228ZM279.37 106.818V117H277.884V106.818H279.37ZM281.104 117V109.364H282.59V117H281.104ZM281.855 108.185C281.596 108.185 281.374 108.099 281.188 107.927C281.006 107.751 280.915 107.542 280.915 107.3C280.915 107.055 281.006 106.846 281.188 106.674C281.374 106.498 281.596 106.411 281.855 106.411C282.113 106.411 282.334 106.498 282.516 106.674C282.701 106.846 282.794 107.055 282.794 107.3C282.794 107.542 282.701 107.751 282.516 107.927C282.334 108.099 282.113 108.185 281.855 108.185ZM285.691 114.41L285.681 112.595H285.94L288.983 109.364H290.762L287.292 113.043H287.059L285.691 114.41ZM284.324 117V106.818H285.811V117H284.324ZM289.147 117L286.412 113.371L287.436 112.332L290.971 117H289.147ZM294.828 117.154C294.076 117.154 293.428 116.993 292.884 116.672C292.344 116.347 291.926 115.891 291.631 115.305C291.34 114.715 291.194 114.024 291.194 113.232C291.194 112.449 291.34 111.76 291.631 111.163C291.926 110.567 292.337 110.101 292.864 109.766C293.394 109.432 294.014 109.264 294.724 109.264C295.154 109.264 295.572 109.335 295.976 109.478C296.381 109.621 296.744 109.844 297.065 110.149C297.387 110.454 297.64 110.85 297.826 111.337C298.011 111.821 298.104 112.41 298.104 113.102V113.629H292.034V112.516H296.648C296.648 112.125 296.568 111.778 296.409 111.477C296.25 111.172 296.026 110.931 295.738 110.756C295.453 110.58 295.118 110.492 294.733 110.492C294.316 110.492 293.951 110.595 293.64 110.8C293.331 111.003 293.093 111.268 292.924 111.596C292.758 111.921 292.675 112.274 292.675 112.655V113.525C292.675 114.035 292.765 114.469 292.944 114.827C293.126 115.185 293.38 115.459 293.704 115.648C294.029 115.833 294.409 115.926 294.843 115.926C295.125 115.926 295.381 115.886 295.613 115.807C295.845 115.724 296.046 115.601 296.215 115.439C296.384 115.277 296.513 115.076 296.603 114.837L298.01 115.091C297.897 115.505 297.695 115.868 297.403 116.18C297.115 116.488 296.752 116.728 296.314 116.901C295.88 117.07 295.385 117.154 294.828 117.154ZM303.906 117H302.275L305.939 106.818H307.714L311.378 117H309.748L306.869 108.668H306.79L303.906 117ZM304.179 113.013H309.469V114.305H304.179V113.013ZM313.95 106.818V117H312.463V106.818H313.95ZM315.684 117V109.364H317.17V117H315.684ZM316.434 108.185C316.176 108.185 315.954 108.099 315.768 107.927C315.586 107.751 315.495 107.542 315.495 107.3C315.495 107.055 315.586 106.846 315.768 106.674C315.954 106.498 316.176 106.411 316.434 106.411C316.693 106.411 316.913 106.498 317.096 106.674C317.281 106.846 317.374 107.055 317.374 107.3C317.374 107.542 317.281 107.751 317.096 107.927C316.913 108.099 316.693 108.185 316.434 108.185ZM322.121 117.154C321.382 117.154 320.745 116.987 320.212 116.652C319.681 116.314 319.274 115.848 318.989 115.255C318.703 114.662 318.561 113.982 318.561 113.217C318.561 112.441 318.707 111.757 318.998 111.163C319.29 110.567 319.701 110.101 320.231 109.766C320.762 109.432 321.386 109.264 322.106 109.264C322.686 109.264 323.203 109.372 323.657 109.587C324.111 109.799 324.477 110.098 324.756 110.482C325.037 110.867 325.205 111.316 325.258 111.83H323.811C323.731 111.472 323.549 111.163 323.264 110.905C322.982 110.646 322.605 110.517 322.131 110.517C321.716 110.517 321.353 110.626 321.042 110.845C320.734 111.061 320.493 111.369 320.321 111.77C320.149 112.168 320.062 112.638 320.062 113.182C320.062 113.739 320.147 114.219 320.316 114.624C320.485 115.028 320.724 115.341 321.032 115.563C321.343 115.785 321.71 115.896 322.131 115.896C322.412 115.896 322.667 115.845 322.896 115.742C323.128 115.636 323.322 115.485 323.478 115.29C323.637 115.094 323.748 114.859 323.811 114.584H325.258C325.205 115.078 325.044 115.518 324.775 115.906C324.507 116.294 324.147 116.599 323.697 116.821C323.249 117.043 322.724 117.154 322.121 117.154ZM329.873 117.154C329.12 117.154 328.472 116.993 327.929 116.672C327.388 116.347 326.971 115.891 326.676 115.305C326.384 114.715 326.238 114.024 326.238 113.232C326.238 112.449 326.384 111.76 326.676 111.163C326.971 110.567 327.382 110.101 327.909 109.766C328.439 109.432 329.059 109.264 329.768 109.264C330.199 109.264 330.617 109.335 331.021 109.478C331.425 109.621 331.788 109.844 332.11 110.149C332.431 110.454 332.685 110.85 332.87 111.337C333.056 111.821 333.149 112.41 333.149 113.102V113.629H327.079V112.516H331.692C331.692 112.125 331.613 111.778 331.454 111.477C331.294 111.172 331.071 110.931 330.782 110.756C330.497 110.58 330.163 110.492 329.778 110.492C329.36 110.492 328.996 110.595 328.684 110.8C328.376 111.003 328.137 111.268 327.968 111.596C327.803 111.921 327.72 112.274 327.72 112.655V113.525C327.72 114.035 327.809 114.469 327.988 114.827C328.171 115.185 328.424 115.459 328.749 115.648C329.074 115.833 329.453 115.926 329.887 115.926C330.169 115.926 330.426 115.886 330.658 115.807C330.89 115.724 331.091 115.601 331.26 115.439C331.429 115.277 331.558 115.076 331.647 114.837L333.054 115.091C332.942 115.505 332.74 115.868 332.448 116.18C332.159 116.488 331.797 116.728 331.359 116.901C330.925 117.07 330.429 117.154 329.873 117.154ZM339.627 117L337.38 109.364H338.916L340.412 114.972H340.487L341.988 109.364H343.524L345.016 114.947H345.091L346.577 109.364H348.113L345.871 117H344.355L342.804 111.487H342.689L341.138 117H339.627ZM349.258 117V109.364H350.744V117H349.258ZM350.009 108.185C349.75 108.185 349.528 108.099 349.342 107.927C349.16 107.751 349.069 107.542 349.069 107.3C349.069 107.055 349.16 106.846 349.342 106.674C349.528 106.498 349.75 106.411 350.009 106.411C350.267 106.411 350.488 106.498 350.67 106.674C350.856 106.846 350.948 107.055 350.948 107.3C350.948 107.542 350.856 107.751 350.67 107.927C350.488 108.099 350.267 108.185 350.009 108.185ZM356.043 109.364V110.557H351.872V109.364H356.043ZM352.99 107.534H354.477V114.758C354.477 115.046 354.52 115.263 354.606 115.409C354.692 115.552 354.803 115.649 354.939 115.702C355.078 115.752 355.229 115.777 355.392 115.777C355.511 115.777 355.615 115.769 355.705 115.752C355.794 115.736 355.864 115.722 355.914 115.712L356.182 116.94C356.096 116.973 355.973 117.007 355.814 117.04C355.655 117.076 355.456 117.096 355.218 117.099C354.827 117.106 354.462 117.036 354.124 116.891C353.786 116.745 353.512 116.519 353.304 116.214C353.095 115.91 352.99 115.527 352.99 115.066V107.534ZM359.072 112.466V117H357.585V106.818H359.052V110.607H359.146C359.325 110.196 359.599 109.869 359.967 109.627C360.335 109.385 360.815 109.264 361.408 109.264C361.932 109.264 362.39 109.372 362.781 109.587C363.175 109.803 363.48 110.124 363.695 110.552C363.914 110.976 364.024 111.506 364.024 112.143V117H362.537V112.322C362.537 111.762 362.393 111.327 362.105 111.019C361.816 110.708 361.415 110.552 360.901 110.552C360.55 110.552 360.235 110.626 359.957 110.776C359.682 110.925 359.465 111.143 359.306 111.432C359.15 111.717 359.072 112.062 359.072 112.466ZM368.6 117.149C367.983 117.149 367.433 116.992 366.949 116.677C366.469 116.359 366.091 115.906 365.816 115.32C365.544 114.73 365.408 114.022 365.408 113.197C365.408 112.371 365.546 111.665 365.821 111.079C366.099 110.492 366.48 110.043 366.964 109.732C367.448 109.42 367.997 109.264 368.61 109.264C369.084 109.264 369.465 109.344 369.753 109.503C370.045 109.659 370.27 109.841 370.429 110.05C370.592 110.259 370.718 110.442 370.807 110.602H370.897V106.818H372.383V117H370.932V115.812H370.807C370.718 115.974 370.589 116.16 370.419 116.369C370.254 116.577 370.025 116.76 369.733 116.915C369.442 117.071 369.064 117.149 368.6 117.149ZM368.928 115.881C369.356 115.881 369.717 115.769 370.012 115.543C370.31 115.315 370.535 114.998 370.688 114.594C370.844 114.189 370.922 113.719 370.922 113.182C370.922 112.652 370.845 112.187 370.693 111.79C370.54 111.392 370.317 111.082 370.022 110.86C369.727 110.638 369.362 110.527 368.928 110.527C368.481 110.527 368.108 110.643 367.809 110.875C367.511 111.107 367.286 111.424 367.133 111.825C366.984 112.226 366.91 112.678 366.91 113.182C366.91 113.692 366.986 114.151 367.138 114.559C367.291 114.967 367.516 115.29 367.814 115.528C368.116 115.764 368.487 115.881 368.928 115.881ZM374.239 117V109.364H375.676V110.577H375.755C375.894 110.166 376.14 109.843 376.491 109.607C376.846 109.369 377.247 109.249 377.694 109.249C377.787 109.249 377.896 109.253 378.022 109.259C378.152 109.266 378.253 109.274 378.326 109.284V110.706C378.266 110.689 378.16 110.671 378.007 110.651C377.855 110.628 377.702 110.616 377.55 110.616C377.199 110.616 376.885 110.691 376.61 110.84C376.339 110.986 376.123 111.19 375.964 111.452C375.805 111.71 375.725 112.005 375.725 112.337V117H374.239ZM382.364 117.154C381.611 117.154 380.963 116.993 380.42 116.672C379.88 116.347 379.462 115.891 379.167 115.305C378.875 114.715 378.729 114.024 378.729 113.232C378.729 112.449 378.875 111.76 379.167 111.163C379.462 110.567 379.873 110.101 380.4 109.766C380.93 109.432 381.55 109.264 382.259 109.264C382.69 109.264 383.108 109.335 383.512 109.478C383.916 109.621 384.279 109.844 384.601 110.149C384.922 110.454 385.176 110.85 385.362 111.337C385.547 111.821 385.64 112.41 385.64 113.102V113.629H379.57V112.516H384.183C384.183 112.125 384.104 111.778 383.945 111.477C383.786 111.172 383.562 110.931 383.273 110.756C382.988 110.58 382.654 110.492 382.269 110.492C381.852 110.492 381.487 110.595 381.175 110.8C380.867 111.003 380.629 111.268 380.46 111.596C380.294 111.921 380.211 112.274 380.211 112.655V113.525C380.211 114.035 380.3 114.469 380.479 114.827C380.662 115.185 380.915 115.459 381.24 115.648C381.565 115.833 381.944 115.926 382.379 115.926C382.66 115.926 382.917 115.886 383.149 115.807C383.381 115.724 383.582 115.601 383.751 115.439C383.92 115.277 384.049 115.076 384.139 114.837L385.546 115.091C385.433 115.505 385.231 115.868 384.939 116.18C384.651 116.488 384.288 116.728 383.85 116.901C383.416 117.07 382.921 117.154 382.364 117.154ZM388.665 117L386.418 109.364H387.954L389.451 114.972H389.525L391.027 109.364H392.563L394.054 114.947H394.129L395.615 109.364H397.152L394.909 117H393.393L391.842 111.487H391.728L390.177 117H388.665ZM265.325 130.364V131.557H261.154V130.364H265.325ZM262.272 128.534H263.759V135.758C263.759 136.046 263.802 136.263 263.888 136.409C263.974 136.552 264.085 136.649 264.221 136.702C264.36 136.752 264.511 136.777 264.673 136.777C264.793 136.777 264.897 136.769 264.987 136.752C265.076 136.736 265.146 136.722 265.195 136.712L265.464 137.94C265.378 137.973 265.255 138.007 265.096 138.04C264.937 138.076 264.738 138.096 264.499 138.099C264.108 138.106 263.744 138.036 263.406 137.891C263.068 137.745 262.794 137.519 262.585 137.214C262.377 136.91 262.272 136.527 262.272 136.066V128.534ZM269.838 138.154C269.122 138.154 268.497 137.99 267.963 137.662C267.43 137.334 267.015 136.875 266.72 136.285C266.426 135.695 266.278 135.005 266.278 134.217C266.278 133.424 266.426 132.732 266.72 132.138C267.015 131.545 267.43 131.085 267.963 130.756C268.497 130.428 269.122 130.264 269.838 130.264C270.554 130.264 271.178 130.428 271.712 130.756C272.246 131.085 272.66 131.545 272.955 132.138C273.25 132.732 273.397 133.424 273.397 134.217C273.397 135.005 273.25 135.695 272.955 136.285C272.66 136.875 272.246 137.334 271.712 137.662C271.178 137.99 270.554 138.154 269.838 138.154ZM269.843 136.906C270.307 136.906 270.691 136.784 270.996 136.538C271.301 136.293 271.526 135.967 271.672 135.559C271.821 135.151 271.896 134.702 271.896 134.212C271.896 133.724 271.821 133.277 271.672 132.869C271.526 132.458 271.301 132.129 270.996 131.88C270.691 131.631 270.307 131.507 269.843 131.507C269.375 131.507 268.988 131.631 268.679 131.88C268.374 132.129 268.147 132.458 267.998 132.869C267.852 133.277 267.779 133.724 267.779 134.212C267.779 134.702 267.852 135.151 267.998 135.559C268.147 135.967 268.374 136.293 268.679 136.538C268.988 136.784 269.375 136.906 269.843 136.906ZM279.716 133.466V138H278.23V127.818H279.696V131.607H279.791C279.97 131.196 280.243 130.869 280.611 130.627C280.979 130.385 281.46 130.264 282.053 130.264C282.577 130.264 283.034 130.372 283.425 130.587C283.819 130.803 284.124 131.124 284.34 131.552C284.559 131.976 284.668 132.506 284.668 133.143V138H283.181V133.322C283.181 132.762 283.037 132.327 282.749 132.019C282.461 131.708 282.059 131.552 281.546 131.552C281.194 131.552 280.88 131.626 280.601 131.776C280.326 131.925 280.109 132.143 279.95 132.432C279.794 132.717 279.716 133.062 279.716 133.466ZM289.677 138.154C288.924 138.154 288.276 137.993 287.733 137.672C287.193 137.347 286.775 136.891 286.48 136.305C286.188 135.715 286.043 135.024 286.043 134.232C286.043 133.449 286.188 132.76 286.48 132.163C286.775 131.567 287.186 131.101 287.713 130.766C288.243 130.432 288.863 130.264 289.572 130.264C290.003 130.264 290.421 130.335 290.825 130.478C291.23 130.621 291.592 130.844 291.914 131.149C292.235 131.454 292.489 131.85 292.675 132.337C292.86 132.821 292.953 133.41 292.953 134.102V134.629H286.883V133.516H291.496C291.496 133.125 291.417 132.778 291.258 132.477C291.099 132.172 290.875 131.931 290.587 131.756C290.302 131.58 289.967 131.492 289.582 131.492C289.165 131.492 288.8 131.595 288.489 131.8C288.18 132.003 287.942 132.268 287.773 132.596C287.607 132.921 287.524 133.274 287.524 133.655V134.525C287.524 135.035 287.614 135.469 287.793 135.827C287.975 136.185 288.228 136.459 288.553 136.648C288.878 136.833 289.257 136.926 289.692 136.926C289.973 136.926 290.23 136.886 290.462 136.807C290.694 136.724 290.895 136.601 291.064 136.439C291.233 136.277 291.362 136.076 291.452 135.837L292.859 136.091C292.746 136.505 292.544 136.868 292.252 137.18C291.964 137.488 291.601 137.728 291.163 137.901C290.729 138.07 290.234 138.154 289.677 138.154ZM294.336 138V130.364H295.773V131.577H295.853C295.992 131.166 296.237 130.843 296.588 130.607C296.943 130.369 297.344 130.249 297.792 130.249C297.884 130.249 297.994 130.253 298.12 130.259C298.249 130.266 298.35 130.274 298.423 130.284V131.706C298.363 131.689 298.257 131.671 298.105 131.651C297.952 131.628 297.8 131.616 297.647 131.616C297.296 131.616 296.983 131.691 296.708 131.84C296.436 131.986 296.221 132.19 296.061 132.452C295.902 132.71 295.823 133.005 295.823 133.337V138H294.336ZM306.099 138.154C305.383 138.154 304.758 137.99 304.225 137.662C303.691 137.334 303.277 136.875 302.982 136.285C302.687 135.695 302.539 135.005 302.539 134.217C302.539 133.424 302.687 132.732 302.982 132.138C303.277 131.545 303.691 131.085 304.225 130.756C304.758 130.428 305.383 130.264 306.099 130.264C306.815 130.264 307.44 130.428 307.973 130.756C308.507 131.085 308.921 131.545 309.216 132.138C309.511 132.732 309.659 133.424 309.659 134.217C309.659 135.005 309.511 135.695 309.216 136.285C308.921 136.875 308.507 137.334 307.973 137.662C307.44 137.99 306.815 138.154 306.099 138.154ZM306.104 136.906C306.568 136.906 306.953 136.784 307.257 136.538C307.562 136.293 307.788 135.967 307.934 135.559C308.083 135.151 308.157 134.702 308.157 134.212C308.157 133.724 308.083 133.277 307.934 132.869C307.788 132.458 307.562 132.129 307.257 131.88C306.953 131.631 306.568 131.507 306.104 131.507C305.637 131.507 305.249 131.631 304.941 131.88C304.636 132.129 304.409 132.458 304.26 132.869C304.114 133.277 304.041 133.724 304.041 134.212C304.041 134.702 304.114 135.151 304.26 135.559C304.409 135.967 304.636 136.293 304.941 136.538C305.249 136.784 305.637 136.906 306.104 136.906ZM312.475 138L310.228 130.364H311.764L313.261 135.972H313.335L314.837 130.364H316.373L317.864 135.947H317.939L319.425 130.364H320.962L318.719 138H317.203L315.652 132.487H315.538L313.987 138H312.475ZM323.593 133.466V138H322.106V130.364H323.533V131.607H323.628C323.803 131.202 324.078 130.877 324.453 130.632C324.831 130.387 325.306 130.264 325.88 130.264C326.4 130.264 326.856 130.374 327.247 130.592C327.638 130.808 327.941 131.129 328.157 131.557C328.372 131.984 328.48 132.513 328.48 133.143V138H326.993V133.322C326.993 132.768 326.849 132.336 326.561 132.024C326.273 131.709 325.876 131.552 325.373 131.552C325.028 131.552 324.721 131.626 324.453 131.776C324.188 131.925 323.977 132.143 323.822 132.432C323.669 132.717 323.593 133.062 323.593 133.466ZM335.302 138L333.055 130.364H334.591L336.088 135.972H336.162L337.664 130.364H339.2L340.691 135.947H340.766L342.252 130.364H343.789L341.546 138H340.03L338.479 132.487H338.365L336.814 138H335.302ZM347.156 138.169C346.672 138.169 346.234 138.08 345.843 137.901C345.452 137.718 345.142 137.455 344.913 137.11C344.688 136.765 344.575 136.343 344.575 135.842C344.575 135.411 344.658 135.057 344.824 134.778C344.99 134.5 345.213 134.28 345.495 134.117C345.777 133.955 346.092 133.832 346.44 133.749C346.788 133.666 347.142 133.603 347.504 133.56C347.961 133.507 348.332 133.464 348.617 133.431C348.902 133.395 349.109 133.337 349.239 133.257C349.368 133.178 349.433 133.048 349.433 132.869V132.835C349.433 132.4 349.31 132.064 349.065 131.825C348.823 131.587 348.462 131.467 347.981 131.467C347.48 131.467 347.086 131.578 346.798 131.8C346.513 132.019 346.315 132.263 346.206 132.531L344.809 132.213C344.975 131.749 345.217 131.375 345.535 131.089C345.856 130.801 346.226 130.592 346.644 130.463C347.061 130.33 347.5 130.264 347.961 130.264C348.266 130.264 348.589 130.301 348.93 130.374C349.275 130.443 349.597 130.572 349.895 130.761C350.197 130.95 350.444 131.22 350.636 131.572C350.828 131.92 350.924 132.372 350.924 132.929V138H349.472V136.956H349.413C349.317 137.148 349.172 137.337 348.98 137.523C348.788 137.708 348.541 137.862 348.239 137.985C347.938 138.108 347.577 138.169 347.156 138.169ZM347.479 136.976C347.89 136.976 348.241 136.895 348.533 136.732C348.828 136.57 349.051 136.358 349.204 136.096C349.36 135.831 349.438 135.547 349.438 135.246V134.261C349.385 134.314 349.282 134.364 349.129 134.411C348.98 134.454 348.81 134.492 348.617 134.525C348.425 134.555 348.238 134.583 348.055 134.609C347.873 134.633 347.721 134.652 347.598 134.669C347.31 134.705 347.046 134.767 346.808 134.853C346.572 134.939 346.383 135.063 346.241 135.226C346.102 135.385 346.032 135.597 346.032 135.862C346.032 136.23 346.168 136.509 346.44 136.697C346.712 136.883 347.058 136.976 347.479 136.976ZM354.125 127.818V138H352.638V127.818H354.125ZM357.345 127.818V138H355.858V127.818H357.345ZM362.37 138.154C361.618 138.154 360.97 137.993 360.426 137.672C359.886 137.347 359.468 136.891 359.173 136.305C358.881 135.715 358.736 135.024 358.736 134.232C358.736 133.449 358.881 132.76 359.173 132.163C359.468 131.567 359.879 131.101 360.406 130.766C360.936 130.432 361.556 130.264 362.265 130.264C362.696 130.264 363.114 130.335 363.518 130.478C363.923 130.621 364.286 130.844 364.607 131.149C364.929 131.454 365.182 131.85 365.368 132.337C365.553 132.821 365.646 133.41 365.646 134.102V134.629H359.576V133.516H364.189C364.189 133.125 364.11 132.778 363.951 132.477C363.792 132.172 363.568 131.931 363.28 131.756C362.995 131.58 362.66 131.492 362.275 131.492C361.858 131.492 361.493 131.595 361.182 131.8C360.873 132.003 360.635 132.268 360.466 132.596C360.3 132.921 360.217 133.274 360.217 133.655V134.525C360.217 135.035 360.307 135.469 360.486 135.827C360.668 136.185 360.921 136.459 361.246 136.648C361.571 136.833 361.951 136.926 362.385 136.926C362.667 136.926 362.923 136.886 363.155 136.807C363.387 136.724 363.588 136.601 363.757 136.439C363.926 136.277 364.055 136.076 364.145 135.837L365.552 136.091C365.439 136.505 365.237 136.868 364.945 137.18C364.657 137.488 364.294 137.728 363.856 137.901C363.422 138.07 362.927 138.154 362.37 138.154ZM370.594 130.364V131.557H366.423V130.364H370.594ZM367.542 128.534H369.028V135.758C369.028 136.046 369.071 136.263 369.157 136.409C369.244 136.552 369.355 136.649 369.49 136.702C369.63 136.752 369.78 136.777 369.943 136.777C370.062 136.777 370.167 136.769 370.256 136.752C370.346 136.736 370.415 136.722 370.465 136.712L370.733 137.94C370.647 137.973 370.525 138.007 370.365 138.04C370.206 138.076 370.007 138.096 369.769 138.099C369.378 138.106 369.013 138.036 368.675 137.891C368.337 137.745 368.064 137.519 367.855 137.214C367.646 136.91 367.542 136.527 367.542 136.066V128.534Z" fill="#888888"/>
<path d="M484.599 117V106.818H486.135V115.678H490.749V117H484.599ZM495.333 117.154C494.617 117.154 493.992 116.99 493.459 116.662C492.925 116.334 492.511 115.875 492.216 115.285C491.921 114.695 491.773 114.005 491.773 113.217C491.773 112.424 491.921 111.732 492.216 111.138C492.511 110.545 492.925 110.085 493.459 109.756C493.992 109.428 494.617 109.264 495.333 109.264C496.049 109.264 496.674 109.428 497.207 109.756C497.741 110.085 498.155 110.545 498.45 111.138C498.745 111.732 498.893 112.424 498.893 113.217C498.893 114.005 498.745 114.695 498.45 115.285C498.155 115.875 497.741 116.334 497.207 116.662C496.674 116.99 496.049 117.154 495.333 117.154ZM495.338 115.906C495.802 115.906 496.186 115.784 496.491 115.538C496.796 115.293 497.022 114.967 497.167 114.559C497.317 114.151 497.391 113.702 497.391 113.212C497.391 112.724 497.317 112.277 497.167 111.869C497.022 111.458 496.796 111.129 496.491 110.88C496.186 110.631 495.802 110.507 495.338 110.507C494.871 110.507 494.483 110.631 494.174 110.88C493.87 111.129 493.643 111.458 493.493 111.869C493.348 112.277 493.275 112.724 493.275 113.212C493.275 113.702 493.348 114.151 493.493 114.559C493.643 114.967 493.87 115.293 494.174 115.538C494.483 115.784 494.871 115.906 495.338 115.906ZM503.502 117.154C502.786 117.154 502.162 116.99 501.628 116.662C501.094 116.334 500.68 115.875 500.385 115.285C500.09 114.695 499.943 114.005 499.943 113.217C499.943 112.424 500.09 111.732 500.385 111.138C500.68 110.545 501.094 110.085 501.628 109.756C502.162 109.428 502.786 109.264 503.502 109.264C504.218 109.264 504.843 109.428 505.377 109.756C505.91 110.085 506.325 110.545 506.62 111.138C506.915 111.732 507.062 112.424 507.062 113.217C507.062 114.005 506.915 114.695 506.62 115.285C506.325 115.875 505.91 116.334 505.377 116.662C504.843 116.99 504.218 117.154 503.502 117.154ZM503.507 115.906C503.971 115.906 504.356 115.784 504.661 115.538C504.966 115.293 505.191 114.967 505.337 114.559C505.486 114.151 505.561 113.702 505.561 113.212C505.561 112.724 505.486 112.277 505.337 111.869C505.191 111.458 504.966 111.129 504.661 110.88C504.356 110.631 503.971 110.507 503.507 110.507C503.04 110.507 502.652 110.631 502.344 110.88C502.039 111.129 501.812 111.458 501.663 111.869C501.517 112.277 501.444 112.724 501.444 113.212C501.444 113.702 501.517 114.151 501.663 114.559C501.812 114.967 502.039 115.293 502.344 115.538C502.652 115.784 503.04 115.906 503.507 115.906ZM509.823 114.41L509.813 112.595H510.071L513.114 109.364H514.894L511.423 113.043H511.19L509.823 114.41ZM508.455 117V106.818H509.942V117H508.455ZM513.278 117L510.543 113.371L511.568 112.332L515.102 117H513.278ZM521.705 111.228L520.357 111.467C520.301 111.294 520.211 111.13 520.089 110.974C519.97 110.819 519.807 110.691 519.602 110.592C519.396 110.492 519.139 110.442 518.831 110.442C518.41 110.442 518.059 110.537 517.777 110.726C517.495 110.911 517.354 111.152 517.354 111.447C517.354 111.702 517.449 111.907 517.638 112.063C517.827 112.219 518.132 112.347 518.553 112.446L519.766 112.724C520.468 112.887 520.992 113.137 521.337 113.475C521.681 113.813 521.854 114.252 521.854 114.793C521.854 115.25 521.721 115.658 521.456 116.016C521.194 116.37 520.828 116.649 520.357 116.851C519.89 117.053 519.348 117.154 518.732 117.154C517.876 117.154 517.179 116.972 516.639 116.607C516.098 116.239 515.767 115.717 515.644 115.041L517.081 114.822C517.171 115.197 517.354 115.48 517.633 115.673C517.911 115.862 518.274 115.956 518.722 115.956C519.209 115.956 519.598 115.855 519.89 115.653C520.182 115.447 520.327 115.197 520.327 114.902C520.327 114.663 520.238 114.463 520.059 114.3C519.883 114.138 519.613 114.015 519.249 113.933L517.956 113.649C517.243 113.487 516.716 113.228 516.375 112.874C516.037 112.519 515.868 112.07 515.868 111.526C515.868 111.076 515.994 110.681 516.246 110.343C516.498 110.005 516.846 109.741 517.29 109.553C517.734 109.36 518.243 109.264 518.816 109.264C519.641 109.264 520.291 109.443 520.765 109.801C521.239 110.156 521.552 110.631 521.705 111.228ZM528.148 106.818V117H526.661V106.818H528.148ZM529.882 117V109.364H531.368V117H529.882ZM530.632 108.185C530.374 108.185 530.152 108.099 529.966 107.927C529.784 107.751 529.693 107.542 529.693 107.3C529.693 107.055 529.784 106.846 529.966 106.674C530.152 106.498 530.374 106.411 530.632 106.411C530.891 106.411 531.111 106.498 531.294 106.674C531.479 106.846 531.572 107.055 531.572 107.3C531.572 107.542 531.479 107.751 531.294 107.927C531.111 108.099 530.891 108.185 530.632 108.185ZM534.469 114.41L534.459 112.595H534.718L537.76 109.364H539.54L536.07 113.043H535.836L534.469 114.41ZM533.102 117V106.818H534.588V117H533.102ZM537.924 117L535.19 113.371L536.214 112.332L539.749 117H537.924ZM543.606 117.154C542.853 117.154 542.205 116.993 541.662 116.672C541.121 116.347 540.704 115.891 540.409 115.305C540.117 114.715 539.971 114.024 539.971 113.232C539.971 112.449 540.117 111.76 540.409 111.163C540.704 110.567 541.115 110.101 541.642 109.766C542.172 109.432 542.792 109.264 543.501 109.264C543.932 109.264 544.35 109.335 544.754 109.478C545.158 109.621 545.521 109.844 545.843 110.149C546.164 110.454 546.418 110.85 546.603 111.337C546.789 111.821 546.882 112.41 546.882 113.102V113.629H540.812V112.516H545.425C545.425 112.125 545.346 111.778 545.187 111.477C545.027 111.172 544.804 110.931 544.515 110.756C544.23 110.58 543.896 110.492 543.511 110.492C543.094 110.492 542.729 110.595 542.417 110.8C542.109 111.003 541.871 111.268 541.701 111.596C541.536 111.921 541.453 112.274 541.453 112.655V113.525C541.453 114.035 541.542 114.469 541.721 114.827C541.904 115.185 542.157 115.459 542.482 115.648C542.807 115.833 543.186 115.926 543.621 115.926C543.902 115.926 544.159 115.886 544.391 115.807C544.623 115.724 544.824 115.601 544.993 115.439C545.162 115.277 545.291 115.076 545.38 114.837L546.787 115.091C546.675 115.505 546.473 115.868 546.181 116.18C545.893 116.488 545.53 116.728 545.092 116.901C544.658 117.07 544.162 117.154 543.606 117.154ZM552.684 117H551.053L554.717 106.818H556.492L560.156 117H558.525L555.647 108.668H555.567L552.684 117ZM552.957 113.013H558.247V114.305H552.957V113.013ZM562.728 106.818V117H561.241V106.818H562.728ZM564.461 117V109.364H565.948V117H564.461ZM565.212 108.185C564.954 108.185 564.731 108.099 564.546 107.927C564.364 107.751 564.272 107.542 564.272 107.3C564.272 107.055 564.364 106.846 564.546 106.674C564.731 106.498 564.954 106.411 565.212 106.411C565.471 106.411 565.691 106.498 565.873 106.674C566.059 106.846 566.152 107.055 566.152 107.3C566.152 107.542 566.059 107.751 565.873 107.927C565.691 108.099 565.471 108.185 565.212 108.185ZM570.898 117.154C570.159 117.154 569.523 116.987 568.989 116.652C568.459 116.314 568.051 115.848 567.766 115.255C567.481 114.662 567.339 113.982 567.339 113.217C567.339 112.441 567.484 111.757 567.776 111.163C568.068 110.567 568.479 110.101 569.009 109.766C569.539 109.432 570.164 109.264 570.883 109.264C571.463 109.264 571.98 109.372 572.435 109.587C572.889 109.799 573.255 110.098 573.533 110.482C573.815 110.867 573.982 111.316 574.035 111.83H572.589C572.509 111.472 572.327 111.163 572.042 110.905C571.76 110.646 571.382 110.517 570.908 110.517C570.494 110.517 570.131 110.626 569.819 110.845C569.511 111.061 569.271 111.369 569.099 111.77C568.926 112.168 568.84 112.638 568.84 113.182C568.84 113.739 568.925 114.219 569.094 114.624C569.263 115.028 569.501 115.341 569.81 115.563C570.121 115.785 570.487 115.896 570.908 115.896C571.19 115.896 571.445 115.845 571.674 115.742C571.906 115.636 572.1 115.485 572.256 115.29C572.415 115.094 572.526 114.859 572.589 114.584H574.035C573.982 115.078 573.822 115.518 573.553 115.906C573.285 116.294 572.925 116.599 572.474 116.821C572.027 117.043 571.502 117.154 570.898 117.154ZM578.65 117.154C577.898 117.154 577.25 116.993 576.706 116.672C576.166 116.347 575.748 115.891 575.453 115.305C575.162 114.715 575.016 114.024 575.016 113.232C575.016 112.449 575.162 111.76 575.453 111.163C575.748 110.567 576.159 110.101 576.686 109.766C577.217 109.432 577.837 109.264 578.546 109.264C578.977 109.264 579.394 109.335 579.799 109.478C580.203 109.621 580.566 109.844 580.887 110.149C581.209 110.454 581.462 110.85 581.648 111.337C581.834 111.821 581.927 112.41 581.927 113.102V113.629H575.856V112.516H580.47C580.47 112.125 580.39 111.778 580.231 111.477C580.072 111.172 579.848 110.931 579.56 110.756C579.275 110.58 578.94 110.492 578.556 110.492C578.138 110.492 577.774 110.595 577.462 110.8C577.154 111.003 576.915 111.268 576.746 111.596C576.58 111.921 576.498 112.274 576.498 112.655V113.525C576.498 114.035 576.587 114.469 576.766 114.827C576.948 115.185 577.202 115.459 577.527 115.648C577.851 115.833 578.231 115.926 578.665 115.926C578.947 115.926 579.204 115.886 579.436 115.807C579.668 115.724 579.868 115.601 580.037 115.439C580.206 115.277 580.336 115.076 580.425 114.837L581.832 115.091C581.719 115.505 581.517 115.868 581.226 116.18C580.937 116.488 580.574 116.728 580.137 116.901C579.703 117.07 579.207 117.154 578.65 117.154ZM590.383 109.364V110.557H586.068V109.364H590.383ZM587.251 117V108.479C587.251 108.001 587.355 107.605 587.564 107.29C587.773 106.972 588.05 106.735 588.395 106.58C588.739 106.42 589.114 106.341 589.518 106.341C589.816 106.341 590.072 106.366 590.284 106.415C590.496 106.462 590.653 106.505 590.756 106.545L590.408 107.748C590.338 107.728 590.249 107.705 590.14 107.678C590.03 107.648 589.898 107.634 589.742 107.634C589.381 107.634 589.122 107.723 588.966 107.902C588.814 108.081 588.738 108.339 588.738 108.678V117H587.251ZM596.488 113.833V109.364H597.98V117H596.518V115.678H596.439C596.263 116.085 595.981 116.425 595.593 116.697C595.209 116.965 594.73 117.099 594.157 117.099C593.666 117.099 593.232 116.992 592.854 116.776C592.479 116.558 592.184 116.234 591.969 115.807C591.757 115.379 591.651 114.851 591.651 114.221V109.364H593.137V114.042C593.137 114.562 593.282 114.977 593.57 115.285C593.858 115.593 594.233 115.747 594.693 115.747C594.972 115.747 595.249 115.678 595.524 115.538C595.802 115.399 596.033 115.189 596.215 114.907C596.4 114.625 596.492 114.267 596.488 113.833ZM601.198 112.466V117H599.711V109.364H601.138V110.607H601.232C601.408 110.202 601.683 109.877 602.058 109.632C602.435 109.387 602.911 109.264 603.484 109.264C604.005 109.264 604.461 109.374 604.852 109.592C605.243 109.808 605.546 110.129 605.761 110.557C605.977 110.984 606.085 111.513 606.085 112.143V117H604.598V112.322C604.598 111.768 604.454 111.336 604.166 111.024C603.877 110.709 603.481 110.552 602.977 110.552C602.633 110.552 602.326 110.626 602.058 110.776C601.792 110.925 601.582 111.143 601.426 111.432C601.274 111.717 601.198 112.062 601.198 112.466ZM610.671 117.149C610.054 117.149 609.504 116.992 609.02 116.677C608.54 116.359 608.162 115.906 607.887 115.32C607.615 114.73 607.479 114.022 607.479 113.197C607.479 112.371 607.617 111.665 607.892 111.079C608.17 110.492 608.551 110.043 609.035 109.732C609.519 109.42 610.068 109.264 610.681 109.264C611.155 109.264 611.536 109.344 611.824 109.503C612.116 109.659 612.341 109.841 612.5 110.05C612.663 110.259 612.789 110.442 612.878 110.602H612.968V106.818H614.454V117H613.003V115.812H612.878C612.789 115.974 612.66 116.16 612.491 116.369C612.325 116.577 612.096 116.76 611.804 116.915C611.513 117.071 611.135 117.149 610.671 117.149ZM610.999 115.881C611.427 115.881 611.788 115.769 612.083 115.543C612.381 115.315 612.607 114.998 612.759 114.594C612.915 114.189 612.993 113.719 612.993 113.182C612.993 112.652 612.916 112.187 612.764 111.79C612.611 111.392 612.388 111.082 612.093 110.86C611.798 110.638 611.433 110.527 610.999 110.527C610.552 110.527 610.179 110.643 609.88 110.875C609.582 111.107 609.357 111.424 609.204 111.825C609.055 112.226 608.981 112.678 608.981 113.182C608.981 113.692 609.057 114.151 609.209 114.559C609.362 114.967 609.587 115.29 609.885 115.528C610.187 115.764 610.558 115.881 610.999 115.881ZM619.601 117.154C618.849 117.154 618.201 116.993 617.657 116.672C617.117 116.347 616.699 115.891 616.404 115.305C616.113 114.715 615.967 114.024 615.967 113.232C615.967 112.449 616.113 111.76 616.404 111.163C616.699 110.567 617.11 110.101 617.637 109.766C618.168 109.432 618.787 109.264 619.497 109.264C619.928 109.264 620.345 109.335 620.75 109.478C621.154 109.621 621.517 109.844 621.838 110.149C622.16 110.454 622.413 110.85 622.599 111.337C622.785 111.821 622.877 112.41 622.877 113.102V113.629H616.807V112.516H621.421C621.421 112.125 621.341 111.778 621.182 111.477C621.023 111.172 620.799 110.931 620.511 110.756C620.226 110.58 619.891 110.492 619.507 110.492C619.089 110.492 618.724 110.595 618.413 110.8C618.105 111.003 617.866 111.268 617.697 111.596C617.531 111.921 617.448 112.274 617.448 112.655V113.525C617.448 114.035 617.538 114.469 617.717 114.827C617.899 115.185 618.153 115.459 618.478 115.648C618.802 115.833 619.182 115.926 619.616 115.926C619.898 115.926 620.155 115.886 620.387 115.807C620.619 115.724 620.819 115.601 620.988 115.439C621.157 115.277 621.286 115.076 621.376 114.837L622.783 115.091C622.67 115.505 622.468 115.868 622.176 116.18C621.888 116.488 621.525 116.728 621.088 116.901C620.653 117.07 620.158 117.154 619.601 117.154ZM627.119 117.149C626.503 117.149 625.953 116.992 625.469 116.677C624.988 116.359 624.61 115.906 624.335 115.32C624.063 114.73 623.928 114.022 623.928 113.197C623.928 112.371 624.065 111.665 624.34 111.079C624.619 110.492 625 110.043 625.484 109.732C625.968 109.42 626.516 109.264 627.129 109.264C627.603 109.264 627.984 109.344 628.273 109.503C628.564 109.659 628.79 109.841 628.949 110.05C629.111 110.259 629.237 110.442 629.327 110.602H629.416V106.818H630.903V117H629.451V115.812H629.327C629.237 115.974 629.108 116.16 628.939 116.369C628.773 116.577 628.545 116.76 628.253 116.915C627.961 117.071 627.583 117.149 627.119 117.149ZM627.447 115.881C627.875 115.881 628.236 115.769 628.531 115.543C628.83 115.315 629.055 114.998 629.207 114.594C629.363 114.189 629.441 113.719 629.441 113.182C629.441 112.652 629.365 112.187 629.212 111.79C629.06 111.392 628.836 111.082 628.541 110.86C628.246 110.638 627.882 110.527 627.447 110.527C627 110.527 626.627 110.643 626.329 110.875C626.031 111.107 625.805 111.424 625.653 111.825C625.504 112.226 625.429 112.678 625.429 113.182C625.429 113.692 625.505 114.151 625.658 114.559C625.81 114.967 626.036 115.29 626.334 115.528C626.635 115.764 627.007 115.881 627.447 115.881ZM638.42 117.169C637.936 117.169 637.498 117.08 637.107 116.901C636.716 116.718 636.406 116.455 636.178 116.11C635.952 115.765 635.84 115.343 635.84 114.842C635.84 114.411 635.922 114.057 636.088 113.778C636.254 113.5 636.478 113.28 636.759 113.117C637.041 112.955 637.356 112.832 637.704 112.749C638.052 112.666 638.406 112.603 638.768 112.56C639.225 112.507 639.596 112.464 639.881 112.431C640.166 112.395 640.374 112.337 640.503 112.257C640.632 112.178 640.697 112.048 640.697 111.869V111.835C640.697 111.4 640.574 111.064 640.329 110.825C640.087 110.587 639.726 110.467 639.245 110.467C638.745 110.467 638.35 110.578 638.062 110.8C637.777 111.019 637.58 111.263 637.47 111.531L636.073 111.213C636.239 110.749 636.481 110.375 636.799 110.089C637.121 109.801 637.49 109.592 637.908 109.463C638.325 109.33 638.764 109.264 639.225 109.264C639.53 109.264 639.853 109.301 640.195 109.374C640.539 109.443 640.861 109.572 641.159 109.761C641.461 109.95 641.708 110.22 641.9 110.572C642.092 110.92 642.188 111.372 642.188 111.929V117H640.737V115.956H640.677C640.581 116.148 640.437 116.337 640.244 116.523C640.052 116.708 639.805 116.862 639.504 116.985C639.202 117.108 638.841 117.169 638.42 117.169ZM638.743 115.976C639.154 115.976 639.505 115.895 639.797 115.732C640.092 115.57 640.316 115.358 640.468 115.096C640.624 114.831 640.702 114.547 640.702 114.246V113.261C640.649 113.314 640.546 113.364 640.393 113.411C640.244 113.454 640.074 113.492 639.881 113.525C639.689 113.555 639.502 113.583 639.32 113.609C639.137 113.633 638.985 113.652 638.862 113.669C638.574 113.705 638.31 113.767 638.072 113.853C637.836 113.939 637.648 114.063 637.505 114.226C637.366 114.385 637.296 114.597 637.296 114.862C637.296 115.23 637.432 115.509 637.704 115.697C637.976 115.883 638.322 115.976 638.743 115.976ZM650.558 117.154C649.819 117.154 649.182 116.987 648.649 116.652C648.118 116.314 647.711 115.848 647.426 115.255C647.141 114.662 646.998 113.982 646.998 113.217C646.998 112.441 647.144 111.757 647.436 111.163C647.727 110.567 648.138 110.101 648.669 109.766C649.199 109.432 649.824 109.264 650.543 109.264C651.123 109.264 651.64 109.372 652.094 109.587C652.548 109.799 652.914 110.098 653.193 110.482C653.475 110.867 653.642 111.316 653.695 111.83H652.248C652.169 111.472 651.986 111.163 651.701 110.905C651.42 110.646 651.042 110.517 650.568 110.517C650.154 110.517 649.791 110.626 649.479 110.845C649.171 111.061 648.93 111.369 648.758 111.77C648.586 112.168 648.5 112.638 648.5 113.182C648.5 113.739 648.584 114.219 648.753 114.624C648.922 115.028 649.161 115.341 649.469 115.563C649.781 115.785 650.147 115.896 650.568 115.896C650.85 115.896 651.105 115.845 651.333 115.742C651.565 115.636 651.759 115.485 651.915 115.29C652.074 115.094 652.185 114.859 652.248 114.584H653.695C653.642 115.078 653.481 115.518 653.213 115.906C652.944 116.294 652.585 116.599 652.134 116.821C651.686 117.043 651.161 117.154 650.558 117.154ZM656.505 112.466V117H655.019V106.818H656.485V110.607H656.58C656.759 110.196 657.032 109.869 657.4 109.627C657.768 109.385 658.248 109.264 658.842 109.264C659.365 109.264 659.823 109.372 660.214 109.587C660.608 109.803 660.913 110.124 661.129 110.552C661.347 110.976 661.457 111.506 661.457 112.143V117H659.97V112.322C659.97 111.762 659.826 111.327 659.538 111.019C659.249 110.708 658.848 110.552 658.335 110.552C657.983 110.552 657.668 110.626 657.39 110.776C657.115 110.925 656.898 111.143 656.739 111.432C656.583 111.717 656.505 112.062 656.505 112.466ZM665.397 117.169C664.913 117.169 664.475 117.08 664.084 116.901C663.693 116.718 663.383 116.455 663.155 116.11C662.929 115.765 662.817 115.343 662.817 114.842C662.817 114.411 662.899 114.057 663.065 113.778C663.231 113.5 663.455 113.28 663.736 113.117C664.018 112.955 664.333 112.832 664.681 112.749C665.029 112.666 665.384 112.603 665.745 112.56C666.202 112.507 666.573 112.464 666.858 112.431C667.143 112.395 667.351 112.337 667.48 112.257C667.609 112.178 667.674 112.048 667.674 111.869V111.835C667.674 111.4 667.551 111.064 667.306 110.825C667.064 110.587 666.703 110.467 666.222 110.467C665.722 110.467 665.327 110.578 665.039 110.8C664.754 111.019 664.557 111.263 664.447 111.531L663.05 111.213C663.216 110.749 663.458 110.375 663.776 110.089C664.098 109.801 664.467 109.592 664.885 109.463C665.302 109.33 665.741 109.264 666.202 109.264C666.507 109.264 666.83 109.301 667.172 109.374C667.516 109.443 667.838 109.572 668.136 109.761C668.438 109.95 668.685 110.22 668.877 110.572C669.069 110.92 669.165 111.372 669.165 111.929V117H667.714V115.956H667.654C667.558 116.148 667.414 116.337 667.221 116.523C667.029 116.708 666.782 116.862 666.481 116.985C666.179 117.108 665.818 117.169 665.397 117.169ZM665.72 115.976C666.131 115.976 666.482 115.895 666.774 115.732C667.069 115.57 667.293 115.358 667.445 115.096C667.601 114.831 667.679 114.547 667.679 114.246V113.261C667.626 113.314 667.523 113.364 667.37 113.411C667.221 113.454 667.051 113.492 666.858 113.525C666.666 113.555 666.479 113.583 666.297 113.609C666.114 113.633 665.962 113.652 665.839 113.669C665.551 113.705 665.287 113.767 665.049 113.853C664.813 113.939 664.625 114.063 664.482 114.226C664.343 114.385 664.273 114.597 664.273 114.862C664.273 115.23 664.409 115.509 664.681 115.697C664.953 115.883 665.299 115.976 665.72 115.976ZM672.366 112.466V117H670.879V109.364H672.306V110.607H672.4C672.576 110.202 672.851 109.877 673.226 109.632C673.604 109.387 674.079 109.264 674.653 109.264C675.173 109.264 675.629 109.374 676.02 109.592C676.411 109.808 676.714 110.129 676.93 110.557C677.145 110.984 677.253 111.513 677.253 112.143V117H675.766V112.322C675.766 111.768 675.622 111.336 675.334 111.024C675.045 110.709 674.649 110.552 674.146 110.552C673.801 110.552 673.494 110.626 673.226 110.776C672.961 110.925 672.75 111.143 672.594 111.432C672.442 111.717 672.366 112.062 672.366 112.466ZM680.467 112.466V117H678.98V109.364H680.407V110.607H680.502C680.677 110.202 680.952 109.877 681.327 109.632C681.705 109.387 682.18 109.264 682.754 109.264C683.274 109.264 683.73 109.374 684.121 109.592C684.512 109.808 684.815 110.129 685.031 110.557C685.246 110.984 685.354 111.513 685.354 112.143V117H683.867V112.322C683.867 111.768 683.723 111.336 683.435 111.024C683.147 110.709 682.75 110.552 682.247 110.552C681.902 110.552 681.595 110.626 681.327 110.776C681.062 110.925 680.851 111.143 680.696 111.432C680.543 111.717 680.467 112.062 680.467 112.466ZM690.373 117.154C689.62 117.154 688.972 116.993 688.429 116.672C687.889 116.347 687.471 115.891 687.176 115.305C686.884 114.715 686.739 114.024 686.739 113.232C686.739 112.449 686.884 111.76 687.176 111.163C687.471 110.567 687.882 110.101 688.409 109.766C688.939 109.432 689.559 109.264 690.268 109.264C690.699 109.264 691.117 109.335 691.521 109.478C691.926 109.621 692.288 109.844 692.61 110.149C692.931 110.454 693.185 110.85 693.371 111.337C693.556 111.821 693.649 112.41 693.649 113.102V113.629H687.579V112.516H692.192C692.192 112.125 692.113 111.778 691.954 111.477C691.795 111.172 691.571 110.931 691.283 110.756C690.998 110.58 690.663 110.492 690.278 110.492C689.861 110.492 689.496 110.595 689.185 110.8C688.876 111.003 688.638 111.268 688.469 111.596C688.303 111.921 688.22 112.274 688.22 112.655V113.525C688.22 114.035 688.31 114.469 688.489 114.827C688.671 115.185 688.924 115.459 689.249 115.648C689.574 115.833 689.953 115.926 690.388 115.926C690.669 115.926 690.926 115.886 691.158 115.807C691.39 115.724 691.591 115.601 691.76 115.439C691.929 115.277 692.058 115.076 692.148 114.837L693.555 115.091C693.442 115.505 693.24 115.868 692.948 116.18C692.66 116.488 692.297 116.728 691.859 116.901C691.425 117.07 690.93 117.154 690.373 117.154ZM696.519 106.818V117H695.032V106.818H696.519ZM530.615 138L528.368 130.364H529.904L531.4 135.972H531.475L532.976 130.364H534.513L536.004 135.947H536.079L537.565 130.364H539.101L536.859 138H535.343L533.792 132.487H533.677L532.126 138H530.615ZM540.246 138V130.364H541.733V138H540.246ZM540.997 129.185C540.738 129.185 540.516 129.099 540.331 128.927C540.148 128.751 540.057 128.542 540.057 128.3C540.057 128.055 540.148 127.846 540.331 127.674C540.516 127.498 540.738 127.411 540.997 127.411C541.255 127.411 541.476 127.498 541.658 127.674C541.844 127.846 541.936 128.055 541.936 128.3C541.936 128.542 541.844 128.751 541.658 128.927C541.476 129.099 541.255 129.185 540.997 129.185ZM547.031 130.364V131.557H542.86V130.364H547.031ZM543.978 128.534H545.465V135.758C545.465 136.046 545.508 136.263 545.594 136.409C545.68 136.552 545.791 136.649 545.927 136.702C546.067 136.752 546.217 136.777 546.38 136.777C546.499 136.777 546.603 136.769 546.693 136.752C546.782 136.736 546.852 136.722 546.902 136.712L547.17 137.94C547.084 137.973 546.961 138.007 546.802 138.04C546.643 138.076 546.444 138.096 546.206 138.099C545.815 138.106 545.45 138.036 545.112 137.891C544.774 137.745 544.5 137.519 544.292 137.214C544.083 136.91 543.978 136.527 543.978 136.066V128.534ZM550.06 133.466V138H548.573V127.818H550.04V131.607H550.135C550.313 131.196 550.587 130.869 550.955 130.627C551.323 130.385 551.803 130.264 552.397 130.264C552.92 130.264 553.378 130.372 553.769 130.587C554.163 130.803 554.468 131.124 554.684 131.552C554.902 131.976 555.012 132.506 555.012 133.143V138H553.525V133.322C553.525 132.762 553.381 132.327 553.093 132.019C552.804 131.708 552.403 131.552 551.889 131.552C551.538 131.552 551.223 131.626 550.945 131.776C550.67 131.925 550.453 132.143 550.294 132.432C550.138 132.717 550.06 133.062 550.06 133.466ZM561.655 133.466V138H560.168V127.818H561.635V131.607H561.729C561.908 131.196 562.182 130.869 562.55 130.627C562.918 130.385 563.398 130.264 563.992 130.264C564.515 130.264 564.973 130.372 565.364 130.587C565.758 130.803 566.063 131.124 566.278 131.552C566.497 131.976 566.607 132.506 566.607 133.143V138H565.12V133.322C565.12 132.762 564.976 132.327 564.688 132.019C564.399 131.708 563.998 131.552 563.484 131.552C563.133 131.552 562.818 131.626 562.54 131.776C562.265 131.925 562.048 132.143 561.889 132.432C561.733 132.717 561.655 133.062 561.655 133.466ZM571.615 138.154C570.863 138.154 570.215 137.993 569.672 137.672C569.131 137.347 568.714 136.891 568.419 136.305C568.127 135.715 567.981 135.024 567.981 134.232C567.981 133.449 568.127 132.76 568.419 132.163C568.714 131.567 569.125 131.101 569.652 130.766C570.182 130.432 570.802 130.264 571.511 130.264C571.942 130.264 572.36 130.335 572.764 130.478C573.168 130.621 573.531 130.844 573.853 131.149C574.174 131.454 574.428 131.85 574.613 132.337C574.799 132.821 574.892 133.41 574.892 134.102V134.629H568.821V133.516H573.435C573.435 133.125 573.356 132.778 573.196 132.477C573.037 132.172 572.814 131.931 572.525 131.756C572.24 131.58 571.905 131.492 571.521 131.492C571.103 131.492 570.739 131.595 570.427 131.8C570.119 132.003 569.88 132.268 569.711 132.596C569.546 132.921 569.463 133.274 569.463 133.655V134.525C569.463 135.035 569.552 135.469 569.731 135.827C569.914 136.185 570.167 136.459 570.492 136.648C570.817 136.833 571.196 136.926 571.63 136.926C571.912 136.926 572.169 136.886 572.401 136.807C572.633 136.724 572.833 136.601 573.003 136.439C573.172 136.277 573.301 136.076 573.39 135.837L574.797 136.091C574.685 136.505 574.482 136.868 574.191 137.18C573.902 137.488 573.539 137.728 573.102 137.901C572.668 138.07 572.172 138.154 571.615 138.154ZM576.275 138V130.364H577.712V131.577H577.791C577.931 131.166 578.176 130.843 578.527 130.607C578.882 130.369 579.283 130.249 579.73 130.249C579.823 130.249 579.932 130.253 580.058 130.259C580.188 130.266 580.289 130.274 580.362 130.284V131.706C580.302 131.689 580.196 131.671 580.044 131.651C579.891 131.628 579.739 131.616 579.586 131.616C579.235 131.616 578.922 131.691 578.647 131.84C578.375 131.986 578.159 132.19 578 132.452C577.841 132.71 577.762 133.005 577.762 133.337V138H576.275ZM588.038 138.154C587.322 138.154 586.697 137.99 586.164 137.662C585.63 137.334 585.216 136.875 584.921 136.285C584.626 135.695 584.478 135.005 584.478 134.217C584.478 133.424 584.626 132.732 584.921 132.138C585.216 131.545 585.63 131.085 586.164 130.756C586.697 130.428 587.322 130.264 588.038 130.264C588.754 130.264 589.378 130.428 589.912 130.756C590.446 131.085 590.86 131.545 591.155 132.138C591.45 132.732 591.597 133.424 591.597 134.217C591.597 135.005 591.45 135.695 591.155 136.285C590.86 136.875 590.446 137.334 589.912 137.662C589.378 137.99 588.754 138.154 588.038 138.154ZM588.043 136.906C588.507 136.906 588.891 136.784 589.196 136.538C589.501 136.293 589.726 135.967 589.872 135.559C590.021 135.151 590.096 134.702 590.096 134.212C590.096 133.724 590.021 133.277 589.872 132.869C589.726 132.458 589.501 132.129 589.196 131.88C588.891 131.631 588.507 131.507 588.043 131.507C587.575 131.507 587.188 131.631 586.879 131.88C586.574 132.129 586.347 132.458 586.198 132.869C586.052 133.277 585.98 133.724 585.98 134.212C585.98 134.702 586.052 135.151 586.198 135.559C586.347 135.967 586.574 136.293 586.879 136.538C587.188 136.784 587.575 136.906 588.043 136.906ZM594.414 138L592.167 130.364H593.703L595.199 135.972H595.274L596.775 130.364H598.312L599.803 135.947H599.878L601.364 130.364H602.9L600.658 138H599.142L597.591 132.487H597.476L595.925 138H594.414ZM605.532 133.466V138H604.045V130.364H605.472V131.607H605.566C605.742 131.202 606.017 130.877 606.392 130.632C606.769 130.387 607.245 130.264 607.818 130.264C608.339 130.264 608.795 130.374 609.186 130.592C609.577 130.808 609.88 131.129 610.095 131.557C610.311 131.984 610.419 132.513 610.419 133.143V138H608.932V133.322C608.932 132.768 608.788 132.336 608.5 132.024C608.211 131.709 607.815 131.552 607.311 131.552C606.967 131.552 606.66 131.626 606.392 131.776C606.126 131.925 605.916 132.143 605.76 132.432C605.608 132.717 605.532 133.062 605.532 133.466ZM622.252 127.818H623.793V134.515C623.793 135.228 623.626 135.859 623.291 136.409C622.957 136.956 622.486 137.387 621.879 137.702C621.273 138.013 620.562 138.169 619.747 138.169C618.934 138.169 618.225 138.013 617.619 137.702C617.012 137.387 616.542 136.956 616.207 136.409C615.872 135.859 615.705 135.228 615.705 134.515V127.818H617.241V134.391C617.241 134.851 617.342 135.261 617.544 135.619C617.75 135.977 618.04 136.258 618.414 136.464C618.789 136.666 619.233 136.767 619.747 136.767C620.264 136.767 620.709 136.666 621.084 136.464C621.462 136.258 621.75 135.977 621.949 135.619C622.151 135.261 622.252 134.851 622.252 134.391V127.818ZM625.259 129.141V127.818H633.139V129.141H629.962V138H628.431V129.141H625.259ZM635.683 127.818L638.119 131.8H638.199L640.635 127.818H642.414L639.243 132.909L642.434 138H640.645L638.199 134.072H638.119L635.673 138H633.883L637.13 132.909L633.903 127.818H635.683ZM652.243 132.909C652.243 133.996 652.044 134.931 651.647 135.713C651.249 136.492 650.704 137.092 650.011 137.513C649.322 137.93 648.538 138.139 647.659 138.139C646.778 138.139 645.991 137.93 645.298 137.513C644.609 137.092 644.065 136.49 643.667 135.708C643.27 134.926 643.071 133.993 643.071 132.909C643.071 131.822 643.27 130.889 643.667 130.11C644.065 129.328 644.609 128.728 645.298 128.31C645.991 127.889 646.778 127.679 647.659 127.679C648.538 127.679 649.322 127.889 650.011 128.31C650.704 128.728 651.249 129.328 651.647 130.11C652.044 130.889 652.243 131.822 652.243 132.909ZM650.722 132.909C650.722 132.08 650.588 131.383 650.319 130.816C650.054 130.246 649.69 129.815 649.226 129.523C648.765 129.228 648.243 129.081 647.659 129.081C647.073 129.081 646.549 129.228 646.088 129.523C645.628 129.815 645.263 130.246 644.995 130.816C644.73 131.383 644.597 132.08 644.597 132.909C644.597 133.738 644.73 134.437 644.995 135.007C645.263 135.574 645.628 136.005 646.088 136.3C646.549 136.591 647.073 136.737 647.659 136.737C648.243 136.737 648.765 136.591 649.226 136.3C649.69 136.005 650.054 135.574 650.319 135.007C650.588 134.437 650.722 133.738 650.722 132.909Z" fill="#888888"/>
</svg>
