<svg width="657" height="125" viewBox="0 0 657 125" fill="none" xmlns="http://www.w3.org/2000/svg">
<rect x="10" y="45.5" width="43" height="34" rx="6" fill="white" fill-opacity="0.9"/>
<path d="M24.631 56.647H22.183V59.5H21.427V53.218H22.183V55.99H24.631V53.218H25.387V59.5H24.631V56.647ZM29.1815 53.875V59.5H28.4255V53.875H26.3285V53.218H31.2785V53.875H29.1815ZM32.58 59.5V53.218H33.336V58.843H36.315V59.5H32.58ZM39.8035 59.608C39.0355 59.608 38.4625 59.329 38.0845 58.771C37.7125 58.213 37.5265 57.409 37.5265 56.359C37.5265 55.309 37.7125 54.505 38.0845 53.947C38.4625 53.389 39.0355 53.11 39.8035 53.11C40.0915 53.11 40.3405 53.149 40.5505 53.227C40.7605 53.305 40.9405 53.41 41.0905 53.542C41.2405 53.674 41.3665 53.824 41.4685 53.992C41.5705 54.154 41.6605 54.319 41.7385 54.487L41.0905 54.784C41.0365 54.646 40.9735 54.517 40.9015 54.397C40.8295 54.271 40.7425 54.163 40.6405 54.073C40.5445 53.977 40.4275 53.902 40.2895 53.848C40.1575 53.794 39.9955 53.767 39.8035 53.767C39.3055 53.767 38.9335 53.956 38.6875 54.334C38.4475 54.712 38.3275 55.216 38.3275 55.846V56.872C38.3275 57.502 38.4475 58.006 38.6875 58.384C38.9335 58.762 39.3055 58.951 39.8035 58.951C39.9955 58.951 40.1575 58.924 40.2895 58.87C40.4275 58.816 40.5445 58.744 40.6405 58.654C40.7425 58.558 40.8295 58.45 40.9015 58.33C40.9735 58.204 41.0365 58.072 41.0905 57.934L41.7385 58.231C41.6605 58.405 41.5705 58.573 41.4685 58.735C41.3665 58.897 41.2405 59.044 41.0905 59.176C40.9405 59.308 40.7605 59.413 40.5505 59.491C40.3405 59.569 40.0915 59.608 39.8035 59.608ZM19.7655 71.5C19.4835 71.5 19.2825 71.428 19.1625 71.284C19.0425 71.14 18.9675 70.96 18.9375 70.744H18.8925C18.7905 71.014 18.6255 71.227 18.3975 71.383C18.1755 71.533 17.8755 71.608 17.4975 71.608C17.0115 71.608 16.6245 71.482 16.3365 71.23C16.0485 70.978 15.9045 70.633 15.9045 70.195C15.9045 69.763 16.0605 69.43 16.3725 69.196C16.6905 68.962 17.2005 68.845 17.9025 68.845H18.8925V68.386C18.8925 68.044 18.7965 67.789 18.6045 67.621C18.4125 67.447 18.1395 67.36 17.7855 67.36C17.4735 67.36 17.2185 67.423 17.0205 67.549C16.8225 67.669 16.6635 67.834 16.5435 68.044L16.0575 67.684C16.1175 67.564 16.1985 67.447 16.3005 67.333C16.4025 67.219 16.5285 67.12 16.6785 67.036C16.8285 66.946 16.9995 66.877 17.1915 66.829C17.3835 66.775 17.5965 66.748 17.8305 66.748C18.3765 66.748 18.8085 66.886 19.1265 67.162C19.4505 67.438 19.6125 67.822 19.6125 68.314V70.87H20.2605V71.5H19.7655ZM17.6235 71.005C17.8095 71.005 17.9775 70.984 18.1275 70.942C18.2835 70.894 18.4185 70.834 18.5325 70.762C18.6465 70.684 18.7335 70.594 18.7935 70.492C18.8595 70.384 18.8925 70.27 18.8925 70.15V69.385H17.9025C17.4705 69.385 17.1555 69.445 16.9575 69.565C16.7595 69.685 16.6605 69.859 16.6605 70.087V70.276C16.6605 70.516 16.7445 70.699 16.9125 70.825C17.0865 70.945 17.3235 71.005 17.6235 71.005ZM21.562 64.84H22.282V67.612H22.318C22.618 67.036 23.095 66.748 23.749 66.748C24.319 66.748 24.763 66.961 25.081 67.387C25.405 67.813 25.567 68.41 25.567 69.178C25.567 69.946 25.405 70.543 25.081 70.969C24.763 71.395 24.319 71.608 23.749 71.608C23.095 71.608 22.618 71.32 22.318 70.744H22.282V71.5H21.562V64.84ZM23.47 70.969C23.89 70.969 24.214 70.843 24.442 70.591C24.676 70.333 24.793 69.994 24.793 69.574V68.782C24.793 68.362 24.676 68.026 24.442 67.774C24.214 67.516 23.89 67.387 23.47 67.387C23.308 67.387 23.155 67.408 23.011 67.45C22.867 67.492 22.741 67.555 22.633 67.639C22.525 67.717 22.438 67.816 22.372 67.936C22.312 68.05 22.282 68.185 22.282 68.341V70.015C22.282 70.171 22.312 70.309 22.372 70.429C22.438 70.543 22.525 70.642 22.633 70.726C22.741 70.804 22.867 70.864 23.011 70.906C23.155 70.948 23.308 70.969 23.47 70.969ZM28.9655 71.608C28.6295 71.608 28.3295 71.551 28.0655 71.437C27.8075 71.317 27.5885 71.152 27.4085 70.942C27.2285 70.732 27.0905 70.477 26.9945 70.177C26.9045 69.877 26.8595 69.544 26.8595 69.178C26.8595 68.812 26.9075 68.479 27.0035 68.179C27.0995 67.879 27.2375 67.624 27.4175 67.414C27.5975 67.198 27.8165 67.033 28.0745 66.919C28.3325 66.805 28.6265 66.748 28.9565 66.748C29.4065 66.748 29.7725 66.847 30.0545 67.045C30.3365 67.243 30.5435 67.501 30.6755 67.819L30.0995 68.125C30.0155 67.885 29.8745 67.699 29.6765 67.567C29.4845 67.435 29.2445 67.369 28.9565 67.369C28.7465 67.369 28.5575 67.405 28.3895 67.477C28.2275 67.543 28.0895 67.639 27.9755 67.765C27.8615 67.891 27.7745 68.041 27.7145 68.215C27.6605 68.389 27.6335 68.578 27.6335 68.782V69.574C27.6335 69.778 27.6605 69.967 27.7145 70.141C27.7745 70.315 27.8615 70.465 27.9755 70.591C28.0895 70.717 28.2305 70.816 28.3985 70.888C28.5665 70.954 28.7585 70.987 28.9745 70.987C29.2865 70.987 29.5445 70.915 29.7485 70.771C29.9525 70.627 30.1145 70.429 30.2345 70.177L30.7475 70.528C30.6095 70.84 30.3935 71.098 30.0995 71.302C29.8115 71.506 29.4335 71.608 28.9655 71.608ZM32.265 71.5V70.843H34.065V65.776H34.002L32.418 67.252L31.977 66.775L33.642 65.218H34.821V70.843H36.477V71.5H32.265ZM41.7295 71.5H37.5355V70.726L39.6325 68.836C39.9385 68.56 40.1905 68.278 40.3885 67.99C40.5865 67.696 40.6855 67.387 40.6855 67.063V66.955C40.6855 66.577 40.5865 66.286 40.3885 66.082C40.1905 65.872 39.8965 65.767 39.5065 65.767C39.1225 65.767 38.8255 65.866 38.6155 66.064C38.4115 66.256 38.2585 66.514 38.1565 66.838L37.4815 66.586C37.5415 66.4 37.6225 66.22 37.7245 66.046C37.8325 65.866 37.9675 65.707 38.1295 65.569C38.2915 65.431 38.4865 65.32 38.7145 65.236C38.9485 65.152 39.2185 65.11 39.5245 65.11C39.8365 65.11 40.1125 65.155 40.3525 65.245C40.5985 65.335 40.8025 65.461 40.9645 65.623C41.1325 65.785 41.2585 65.977 41.3425 66.199C41.4325 66.421 41.4775 66.664 41.4775 66.928C41.4775 67.168 41.4415 67.393 41.3695 67.603C41.3035 67.813 41.2075 68.014 41.0815 68.206C40.9615 68.398 40.8145 68.587 40.6405 68.773C40.4725 68.953 40.2835 69.133 40.0735 69.313L38.3185 70.843H41.7295V71.5ZM44.723 67.882C45.161 67.882 45.488 67.786 45.704 67.594C45.926 67.396 46.037 67.144 46.037 66.838V66.775C46.037 66.439 45.929 66.187 45.713 66.019C45.503 65.851 45.227 65.767 44.885 65.767C44.549 65.767 44.276 65.842 44.066 65.992C43.862 66.136 43.694 66.328 43.562 66.568L42.995 66.136C43.073 66.01 43.169 65.887 43.283 65.767C43.397 65.641 43.529 65.53 43.679 65.434C43.835 65.338 44.012 65.26 44.21 65.2C44.414 65.14 44.645 65.11 44.903 65.11C45.173 65.11 45.425 65.146 45.659 65.218C45.893 65.284 46.097 65.386 46.271 65.524C46.445 65.656 46.58 65.821 46.676 66.019C46.778 66.217 46.829 66.442 46.829 66.694C46.829 66.898 46.796 67.081 46.73 67.243C46.67 67.405 46.583 67.546 46.469 67.666C46.361 67.786 46.232 67.888 46.082 67.972C45.932 68.056 45.773 68.119 45.605 68.161V68.197C45.779 68.233 45.947 68.293 46.109 68.377C46.271 68.455 46.415 68.56 46.541 68.692C46.667 68.818 46.766 68.974 46.838 69.16C46.916 69.34 46.955 69.547 46.955 69.781C46.955 70.051 46.901 70.3 46.793 70.528C46.691 70.75 46.544 70.942 46.352 71.104C46.166 71.26 45.938 71.383 45.668 71.473C45.404 71.563 45.11 71.608 44.786 71.608C44.51 71.608 44.264 71.578 44.048 71.518C43.838 71.458 43.649 71.377 43.481 71.275C43.319 71.173 43.175 71.059 43.049 70.933C42.929 70.807 42.821 70.675 42.725 70.537L43.292 70.105C43.376 70.231 43.463 70.345 43.553 70.447C43.643 70.549 43.745 70.639 43.859 70.717C43.979 70.789 44.114 70.846 44.264 70.888C44.414 70.93 44.588 70.951 44.786 70.951C45.23 70.951 45.569 70.849 45.803 70.645C46.043 70.441 46.163 70.15 46.163 69.772V69.7C46.163 69.328 46.046 69.04 45.812 68.836C45.584 68.632 45.239 68.53 44.777 68.53H44.03V67.882H44.723Z" fill="black"/>
<g clip-path="url(#clip0_8_431)">
<path d="M74.8738 63.2071C75.2643 62.8166 75.2643 62.1834 74.8738 61.7929L68.5098 55.4289C68.1193 55.0384 67.4861 55.0384 67.0956 55.4289C66.7051 55.8195 66.7051 56.4526 67.0956 56.8431L72.7525 62.5L67.0956 68.1569C66.7051 68.5474 66.7051 69.1805 67.0956 69.5711C67.4861 69.9616 68.1193 69.9616 68.5098 69.5711L74.8738 63.2071ZM55 63.5H74.1667V61.5H55V63.5Z" fill="#ADADAD"/>
</g>
<rect x="78" y="11" width="106" height="103" rx="5" fill="#FDE4DE"/>
<path d="M98.8299 35.832H102.622C103.582 35.832 104.334 36.0933 104.878 36.616C105.422 37.1387 105.694 37.8373 105.694 38.712C105.694 39.384 105.529 39.912 105.198 40.296C104.878 40.68 104.462 40.952 103.95 41.112V41.16C104.579 41.3093 105.097 41.592 105.502 42.008C105.907 42.4133 106.11 43.0053 106.11 43.784C106.11 44.232 106.035 44.6533 105.886 45.048C105.737 45.4427 105.523 45.784 105.246 46.072C104.979 46.36 104.659 46.5893 104.286 46.76C103.923 46.92 103.529 47 103.102 47H98.8299V35.832ZM102.702 45.832C103.321 45.832 103.806 45.6933 104.158 45.416C104.51 45.1387 104.686 44.712 104.686 44.136V43.48C104.686 42.9147 104.51 42.4933 104.158 42.216C103.806 41.928 103.321 41.784 102.702 41.784H100.174V45.832H102.702ZM102.478 40.68C103.043 40.68 103.486 40.5573 103.806 40.312C104.126 40.056 104.286 39.672 104.286 39.16V38.536C104.286 38.024 104.126 37.64 103.806 37.384C103.486 37.128 103.043 37 102.478 37H100.174V40.68H102.478ZM114.936 47C114.434 47 114.077 46.872 113.864 46.616C113.65 46.36 113.517 46.04 113.464 45.656H113.384C113.202 46.136 112.909 46.5147 112.504 46.792C112.109 47.0587 111.576 47.192 110.904 47.192C110.04 47.192 109.352 46.968 108.84 46.52C108.328 46.072 108.072 45.4587 108.072 44.68C108.072 43.912 108.349 43.32 108.904 42.904C109.469 42.488 110.376 42.28 111.624 42.28H113.384V41.464C113.384 40.856 113.213 40.4027 112.872 40.104C112.53 39.7947 112.045 39.64 111.416 39.64C110.861 39.64 110.408 39.752 110.056 39.976C109.704 40.1893 109.421 40.4827 109.208 40.856L108.344 40.216C108.45 40.0027 108.594 39.7947 108.776 39.592C108.957 39.3893 109.181 39.2133 109.448 39.064C109.714 38.904 110.018 38.7813 110.36 38.696C110.701 38.6 111.08 38.552 111.496 38.552C112.466 38.552 113.234 38.7973 113.8 39.288C114.376 39.7787 114.664 40.4613 114.664 41.336V45.88H115.816V47H114.936ZM111.128 46.12C111.458 46.12 111.757 46.0827 112.024 46.008C112.301 45.9227 112.541 45.816 112.744 45.688C112.946 45.5493 113.101 45.3893 113.208 45.208C113.325 45.016 113.384 44.8133 113.384 44.6V43.24H111.624C110.856 43.24 110.296 43.3467 109.944 43.56C109.592 43.7733 109.416 44.0827 109.416 44.488V44.824C109.416 45.2507 109.565 45.576 109.864 45.8C110.173 46.0133 110.594 46.12 111.128 46.12ZM123.409 45.656H123.345C122.812 46.68 121.964 47.192 120.801 47.192C119.788 47.192 118.993 46.8133 118.417 46.056C117.852 45.2987 117.569 44.2373 117.569 42.872C117.569 41.5067 117.852 40.4453 118.417 39.688C118.993 38.9307 119.788 38.552 120.801 38.552C121.964 38.552 122.812 39.064 123.345 40.088H123.409V35.16H124.689V47H123.409V45.656ZM121.297 46.056C121.585 46.056 121.857 46.0187 122.113 45.944C122.369 45.8693 122.593 45.7627 122.785 45.624C122.977 45.4747 123.127 45.2987 123.233 45.096C123.351 44.8827 123.409 44.6373 123.409 44.36V41.384C123.409 41.1067 123.351 40.8667 123.233 40.664C123.127 40.4507 122.977 40.2747 122.785 40.136C122.593 39.9867 122.369 39.8747 122.113 39.8C121.857 39.7253 121.585 39.688 121.297 39.688C120.551 39.688 119.969 39.9173 119.553 40.376C119.148 40.824 118.945 41.4213 118.945 42.168V43.576C118.945 44.3227 119.148 44.9253 119.553 45.384C119.969 45.832 120.551 46.056 121.297 46.056ZM144.773 47.944C144.773 48.776 144.426 49.3893 143.733 49.784C143.04 50.1893 142 50.392 140.613 50.392C139.28 50.392 138.32 50.216 137.733 49.864C137.157 49.512 136.869 49.0053 136.869 48.344C136.869 47.896 136.986 47.5493 137.221 47.304C137.456 47.0587 137.786 46.8773 138.213 46.76V46.568C137.978 46.4507 137.797 46.3013 137.669 46.12C137.541 45.9387 137.477 45.7093 137.477 45.432C137.477 45.0053 137.616 44.6853 137.893 44.472C138.181 44.2587 138.538 44.0987 138.965 43.992V43.928C138.453 43.704 138.053 43.3733 137.765 42.936C137.488 42.4987 137.349 41.9867 137.349 41.4C137.349 40.984 137.424 40.6 137.573 40.248C137.722 39.896 137.936 39.5973 138.213 39.352C138.501 39.096 138.842 38.8987 139.237 38.76C139.632 38.6213 140.069 38.552 140.549 38.552C141.168 38.552 141.712 38.664 142.181 38.888V38.744C142.181 38.424 142.256 38.1573 142.405 37.944C142.554 37.7307 142.81 37.624 143.173 37.624H144.693V38.744H142.837V39.304C143.136 39.56 143.365 39.864 143.525 40.216C143.685 40.568 143.765 40.9627 143.765 41.4C143.765 41.816 143.685 42.2 143.525 42.552C143.376 42.904 143.162 43.208 142.885 43.464C142.608 43.7093 142.266 43.9013 141.861 44.04C141.466 44.1787 141.029 44.248 140.549 44.248C140.41 44.248 140.277 44.2427 140.149 44.232C140.021 44.2213 139.893 44.2053 139.765 44.184C139.637 44.2053 139.504 44.2427 139.365 44.296C139.226 44.3387 139.098 44.4027 138.981 44.488C138.864 44.5627 138.768 44.6533 138.693 44.76C138.618 44.8667 138.581 44.9893 138.581 45.128C138.581 45.3733 138.704 45.5387 138.949 45.624C139.194 45.6987 139.514 45.736 139.909 45.736H141.733C142.8 45.736 143.573 45.9387 144.053 46.344C144.533 46.7387 144.773 47.272 144.773 47.944ZM143.573 48.008C143.573 47.6773 143.44 47.4107 143.173 47.208C142.906 47.016 142.442 46.92 141.781 46.92H138.917C138.362 47.144 138.085 47.5173 138.085 48.04C138.085 48.4027 138.229 48.712 138.517 48.968C138.805 49.2347 139.285 49.368 139.957 49.368H141.205C141.952 49.368 142.533 49.2507 142.949 49.016C143.365 48.792 143.573 48.456 143.573 48.008ZM140.549 43.256C141.189 43.256 141.658 43.1067 141.957 42.808C142.266 42.5093 142.421 42.1147 142.421 41.624V41.16C142.421 40.6693 142.266 40.28 141.957 39.992C141.658 39.6933 141.189 39.544 140.549 39.544C139.909 39.544 139.44 39.6933 139.141 39.992C138.842 40.28 138.693 40.6693 138.693 41.16V41.624C138.693 42.1147 138.842 42.5093 139.141 42.808C139.44 43.1067 139.909 43.256 140.549 43.256ZM152.143 45.656H152.079C151.993 45.8587 151.887 46.056 151.759 46.248C151.631 46.4293 151.471 46.5893 151.279 46.728C151.097 46.8667 150.879 46.9787 150.623 47.064C150.367 47.1493 150.068 47.192 149.727 47.192C148.863 47.192 148.169 46.92 147.647 46.376C147.124 45.8213 146.863 45.0427 146.863 44.04V38.744H148.143V43.816C148.143 44.5733 148.308 45.1387 148.639 45.512C148.969 45.8747 149.455 46.056 150.095 46.056C150.351 46.056 150.601 46.024 150.847 45.96C151.092 45.896 151.311 45.8 151.503 45.672C151.695 45.544 151.849 45.384 151.967 45.192C152.084 44.9893 152.143 44.7493 152.143 44.472V38.744H153.423V47H152.143V45.656ZM162.456 38.744H163.736L159.64 48.808C159.544 49.0427 159.438 49.2453 159.32 49.416C159.203 49.5973 159.064 49.7413 158.904 49.848C158.744 49.9653 158.552 50.0507 158.328 50.104C158.104 50.168 157.838 50.2 157.528 50.2H156.312V49.112H158.232L159.16 46.84L155.832 38.744H157.144L158.536 42.2L159.768 45.336H159.832L161.064 42.2L162.456 38.744Z" fill="black"/>
<rect x="109.5" y="61" width="43" height="34" rx="6" fill="white" fill-opacity="0.9"/>
<path d="M124.131 72.147H121.683V75H120.927V68.718H121.683V71.49H124.131V68.718H124.887V75H124.131V72.147ZM128.682 69.375V75H127.926V69.375H125.829V68.718H130.779V69.375H128.682ZM132.08 75V68.718H132.836V74.343H135.815V75H132.08ZM139.303 75.108C138.535 75.108 137.962 74.829 137.584 74.271C137.212 73.713 137.026 72.909 137.026 71.859C137.026 70.809 137.212 70.005 137.584 69.447C137.962 68.889 138.535 68.61 139.303 68.61C139.591 68.61 139.84 68.649 140.05 68.727C140.26 68.805 140.44 68.91 140.59 69.042C140.74 69.174 140.866 69.324 140.968 69.492C141.07 69.654 141.16 69.819 141.238 69.987L140.59 70.284C140.536 70.146 140.473 70.017 140.401 69.897C140.329 69.771 140.242 69.663 140.14 69.573C140.044 69.477 139.927 69.402 139.789 69.348C139.657 69.294 139.495 69.267 139.303 69.267C138.805 69.267 138.433 69.456 138.187 69.834C137.947 70.212 137.827 70.716 137.827 71.346V72.372C137.827 73.002 137.947 73.506 138.187 73.884C138.433 74.262 138.805 74.451 139.303 74.451C139.495 74.451 139.657 74.424 139.789 74.37C139.927 74.316 140.044 74.244 140.14 74.154C140.242 74.058 140.329 73.95 140.401 73.83C140.473 73.704 140.536 73.572 140.59 73.434L141.238 73.731C141.16 73.905 141.07 74.073 140.968 74.235C140.866 74.397 140.74 74.544 140.59 74.676C140.44 74.808 140.26 74.913 140.05 74.991C139.84 75.069 139.591 75.108 139.303 75.108ZM119.266 87C118.984 87 118.783 86.928 118.663 86.784C118.543 86.64 118.468 86.46 118.438 86.244H118.393C118.291 86.514 118.126 86.727 117.898 86.883C117.676 87.033 117.376 87.108 116.998 87.108C116.512 87.108 116.125 86.982 115.837 86.73C115.549 86.478 115.405 86.133 115.405 85.695C115.405 85.263 115.561 84.93 115.873 84.696C116.191 84.462 116.701 84.345 117.403 84.345H118.393V83.886C118.393 83.544 118.297 83.289 118.105 83.121C117.913 82.947 117.64 82.86 117.286 82.86C116.974 82.86 116.719 82.923 116.521 83.049C116.323 83.169 116.164 83.334 116.044 83.544L115.558 83.184C115.618 83.064 115.699 82.947 115.801 82.833C115.903 82.719 116.029 82.62 116.179 82.536C116.329 82.446 116.5 82.377 116.692 82.329C116.884 82.275 117.097 82.248 117.331 82.248C117.877 82.248 118.309 82.386 118.627 82.662C118.951 82.938 119.113 83.322 119.113 83.814V86.37H119.761V87H119.266ZM117.124 86.505C117.31 86.505 117.478 86.484 117.628 86.442C117.784 86.394 117.919 86.334 118.033 86.262C118.147 86.184 118.234 86.094 118.294 85.992C118.36 85.884 118.393 85.77 118.393 85.65V84.885H117.403C116.971 84.885 116.656 84.945 116.458 85.065C116.26 85.185 116.161 85.359 116.161 85.587V85.776C116.161 86.016 116.245 86.199 116.413 86.325C116.587 86.445 116.824 86.505 117.124 86.505ZM121.062 80.34H121.782V83.112H121.818C122.118 82.536 122.595 82.248 123.249 82.248C123.819 82.248 124.263 82.461 124.581 82.887C124.905 83.313 125.067 83.91 125.067 84.678C125.067 85.446 124.905 86.043 124.581 86.469C124.263 86.895 123.819 87.108 123.249 87.108C122.595 87.108 122.118 86.82 121.818 86.244H121.782V87H121.062V80.34ZM122.97 86.469C123.39 86.469 123.714 86.343 123.942 86.091C124.176 85.833 124.293 85.494 124.293 85.074V84.282C124.293 83.862 124.176 83.526 123.942 83.274C123.714 83.016 123.39 82.887 122.97 82.887C122.808 82.887 122.655 82.908 122.511 82.95C122.367 82.992 122.241 83.055 122.133 83.139C122.025 83.217 121.938 83.316 121.872 83.436C121.812 83.55 121.782 83.685 121.782 83.841V85.515C121.782 85.671 121.812 85.809 121.872 85.929C121.938 86.043 122.025 86.142 122.133 86.226C122.241 86.304 122.367 86.364 122.511 86.406C122.655 86.448 122.808 86.469 122.97 86.469ZM128.466 87.108C128.13 87.108 127.83 87.051 127.566 86.937C127.308 86.817 127.089 86.652 126.909 86.442C126.729 86.232 126.591 85.977 126.495 85.677C126.405 85.377 126.36 85.044 126.36 84.678C126.36 84.312 126.408 83.979 126.504 83.679C126.6 83.379 126.738 83.124 126.918 82.914C127.098 82.698 127.317 82.533 127.575 82.419C127.833 82.305 128.127 82.248 128.457 82.248C128.907 82.248 129.273 82.347 129.555 82.545C129.837 82.743 130.044 83.001 130.176 83.319L129.6 83.625C129.516 83.385 129.375 83.199 129.177 83.067C128.985 82.935 128.745 82.869 128.457 82.869C128.247 82.869 128.058 82.905 127.89 82.977C127.728 83.043 127.59 83.139 127.476 83.265C127.362 83.391 127.275 83.541 127.215 83.715C127.161 83.889 127.134 84.078 127.134 84.282V85.074C127.134 85.278 127.161 85.467 127.215 85.641C127.275 85.815 127.362 85.965 127.476 86.091C127.59 86.217 127.731 86.316 127.899 86.388C128.067 86.454 128.259 86.487 128.475 86.487C128.787 86.487 129.045 86.415 129.249 86.271C129.453 86.127 129.615 85.929 129.735 85.677L130.248 86.028C130.11 86.34 129.894 86.598 129.6 86.802C129.312 87.006 128.934 87.108 128.466 87.108ZM131.765 87V86.343H133.565V81.276H133.502L131.918 82.752L131.477 82.275L133.142 80.718H134.321V86.343H135.977V87H131.765ZM141.229 87H137.035V86.226L139.132 84.336C139.438 84.06 139.69 83.778 139.888 83.49C140.086 83.196 140.185 82.887 140.185 82.563V82.455C140.185 82.077 140.086 81.786 139.888 81.582C139.69 81.372 139.396 81.267 139.006 81.267C138.622 81.267 138.325 81.366 138.115 81.564C137.911 81.756 137.758 82.014 137.656 82.338L136.981 82.086C137.041 81.9 137.122 81.72 137.224 81.546C137.332 81.366 137.467 81.207 137.629 81.069C137.791 80.931 137.986 80.82 138.214 80.736C138.448 80.652 138.718 80.61 139.024 80.61C139.336 80.61 139.612 80.655 139.852 80.745C140.098 80.835 140.302 80.961 140.464 81.123C140.632 81.285 140.758 81.477 140.842 81.699C140.932 81.921 140.977 82.164 140.977 82.428C140.977 82.668 140.941 82.893 140.869 83.103C140.803 83.313 140.707 83.514 140.581 83.706C140.461 83.898 140.314 84.087 140.14 84.273C139.972 84.453 139.783 84.633 139.573 84.813L137.818 86.343H141.229V87ZM144.223 83.382C144.661 83.382 144.988 83.286 145.204 83.094C145.426 82.896 145.537 82.644 145.537 82.338V82.275C145.537 81.939 145.429 81.687 145.213 81.519C145.003 81.351 144.727 81.267 144.385 81.267C144.049 81.267 143.776 81.342 143.566 81.492C143.362 81.636 143.194 81.828 143.062 82.068L142.495 81.636C142.573 81.51 142.669 81.387 142.783 81.267C142.897 81.141 143.029 81.03 143.179 80.934C143.335 80.838 143.512 80.76 143.71 80.7C143.914 80.64 144.145 80.61 144.403 80.61C144.673 80.61 144.925 80.646 145.159 80.718C145.393 80.784 145.597 80.886 145.771 81.024C145.945 81.156 146.08 81.321 146.176 81.519C146.278 81.717 146.329 81.942 146.329 82.194C146.329 82.398 146.296 82.581 146.23 82.743C146.17 82.905 146.083 83.046 145.969 83.166C145.861 83.286 145.732 83.388 145.582 83.472C145.432 83.556 145.273 83.619 145.105 83.661V83.697C145.279 83.733 145.447 83.793 145.609 83.877C145.771 83.955 145.915 84.06 146.041 84.192C146.167 84.318 146.266 84.474 146.338 84.66C146.416 84.84 146.455 85.047 146.455 85.281C146.455 85.551 146.401 85.8 146.293 86.028C146.191 86.25 146.044 86.442 145.852 86.604C145.666 86.76 145.438 86.883 145.168 86.973C144.904 87.063 144.61 87.108 144.286 87.108C144.01 87.108 143.764 87.078 143.548 87.018C143.338 86.958 143.149 86.877 142.981 86.775C142.819 86.673 142.675 86.559 142.549 86.433C142.429 86.307 142.321 86.175 142.225 86.037L142.792 85.605C142.876 85.731 142.963 85.845 143.053 85.947C143.143 86.049 143.245 86.139 143.359 86.217C143.479 86.289 143.614 86.346 143.764 86.388C143.914 86.43 144.088 86.451 144.286 86.451C144.73 86.451 145.069 86.349 145.303 86.145C145.543 85.941 145.663 85.65 145.663 85.272V85.2C145.663 84.828 145.546 84.54 145.312 84.336C145.084 84.132 144.739 84.03 144.277 84.03H143.53V83.382H144.223Z" fill="black"/>
<rect x="78" y="11" width="106" height="103" rx="5" stroke="#FF0000" stroke-width="2"/>
<g clip-path="url(#clip1_8_431)">
<path d="M206.874 63.2071C207.264 62.8166 207.264 62.1834 206.874 61.7929L200.51 55.4289C200.119 55.0384 199.486 55.0384 199.096 55.4289C198.705 55.8195 198.705 56.4526 199.096 56.8431L204.752 62.5L199.096 68.1569C198.705 68.5474 198.705 69.1805 199.096 69.5711C199.486 69.9616 200.119 69.9616 200.51 69.5711L206.874 63.2071ZM187 63.5H206.167V61.5H187V63.5Z" fill="#ADADAD"/>
</g>
<rect x="210" y="11" width="134" height="103" rx="5" fill="#E5E5E5"/>
<path d="M231.639 37.544H231.527V47H230.311V35.832H232.215L236.023 45.192H236.135V35.832H237.351V47H235.447L231.639 37.544ZM243.425 47.192C242.849 47.192 242.326 47.0907 241.857 46.888C241.398 46.6853 241.004 46.3973 240.673 46.024C240.353 45.64 240.108 45.1867 239.937 44.664C239.766 44.1307 239.681 43.5333 239.681 42.872C239.681 42.2213 239.766 41.6293 239.937 41.096C240.108 40.5627 240.353 40.1093 240.673 39.736C241.004 39.352 241.398 39.0587 241.857 38.856C242.326 38.6533 242.849 38.552 243.425 38.552C244.001 38.552 244.518 38.6533 244.977 38.856C245.446 39.0587 245.841 39.352 246.161 39.736C246.492 40.1093 246.742 40.5627 246.913 41.096C247.084 41.6293 247.169 42.2213 247.169 42.872C247.169 43.5333 247.084 44.1307 246.913 44.664C246.742 45.1867 246.492 45.64 246.161 46.024C245.841 46.3973 245.446 46.6853 244.977 46.888C244.518 47.0907 244.001 47.192 243.425 47.192ZM243.425 46.088C244.14 46.088 244.716 45.8747 245.153 45.448C245.59 45.0213 245.809 44.36 245.809 43.464V42.28C245.809 41.384 245.59 40.7227 245.153 40.296C244.716 39.8693 244.14 39.656 243.425 39.656C242.71 39.656 242.134 39.8693 241.697 40.296C241.26 40.7227 241.041 41.384 241.041 42.28V43.464C241.041 44.36 241.26 45.0213 241.697 45.448C242.134 45.8747 242.71 46.088 243.425 46.088ZM249.451 45.912H251.867V39.832H249.451V38.744H253.147V40.824H253.227C253.397 40.1733 253.717 39.6667 254.187 39.304C254.667 38.9307 255.275 38.744 256.011 38.744H257.163V40.024H255.611C254.875 40.024 254.277 40.2373 253.819 40.664C253.371 41.0907 253.147 41.6507 253.147 42.344V45.912H256.347V47H249.451V45.912ZM258.677 47V38.744H259.861V39.704H259.924C260.053 39.384 260.234 39.112 260.469 38.888C260.703 38.664 261.05 38.552 261.509 38.552C261.989 38.552 262.346 38.6747 262.581 38.92C262.815 39.1547 262.959 39.464 263.013 39.848H263.061C263.21 39.4747 263.423 39.1653 263.701 38.92C263.978 38.6747 264.362 38.552 264.853 38.552C265.525 38.552 265.973 38.7867 266.197 39.256C266.431 39.7253 266.549 40.3973 266.549 41.272V47H265.365V41.48C265.365 40.776 265.29 40.2907 265.141 40.024C265.002 39.7467 264.741 39.608 264.357 39.608C264.015 39.608 263.738 39.72 263.525 39.944C263.311 40.1573 263.205 40.488 263.205 40.936V47H262.021V41.48C262.021 40.776 261.946 40.2907 261.797 40.024C261.658 39.7467 261.402 39.608 261.029 39.608C260.687 39.608 260.405 39.72 260.181 39.944C259.967 40.1573 259.861 40.488 259.861 40.936V47H258.677ZM275.326 47C274.825 47 274.468 46.872 274.254 46.616C274.041 46.36 273.908 46.04 273.854 45.656H273.774C273.593 46.136 273.3 46.5147 272.894 46.792C272.5 47.0587 271.966 47.192 271.294 47.192C270.43 47.192 269.742 46.968 269.23 46.52C268.718 46.072 268.462 45.4587 268.462 44.68C268.462 43.912 268.74 43.32 269.294 42.904C269.86 42.488 270.766 42.28 272.014 42.28H273.774V41.464C273.774 40.856 273.604 40.4027 273.262 40.104C272.921 39.7947 272.436 39.64 271.806 39.64C271.252 39.64 270.798 39.752 270.446 39.976C270.094 40.1893 269.812 40.4827 269.598 40.856L268.734 40.216C268.841 40.0027 268.985 39.7947 269.166 39.592C269.348 39.3893 269.572 39.2133 269.838 39.064C270.105 38.904 270.409 38.7813 270.75 38.696C271.092 38.6 271.47 38.552 271.886 38.552C272.857 38.552 273.625 38.7973 274.19 39.288C274.766 39.7787 275.054 40.4613 275.054 41.336V45.88H276.206V47H275.326ZM271.518 46.12C271.849 46.12 272.148 46.0827 272.414 46.008C272.692 45.9227 272.932 45.816 273.134 45.688C273.337 45.5493 273.492 45.3893 273.598 45.208C273.716 45.016 273.774 44.8133 273.774 44.6V43.24H272.014C271.246 43.24 270.686 43.3467 270.334 43.56C269.982 43.7733 269.806 44.0827 269.806 44.488V44.824C269.806 45.2507 269.956 45.576 270.254 45.8C270.564 46.0133 270.985 46.12 271.518 46.12ZM278.28 45.912H281.16V36.248H278.28V35.16H282.44V45.912H285.32V47H278.28V45.912ZM297.756 35.16H299.036V40.088H299.1C299.185 39.8853 299.292 39.6933 299.42 39.512C299.548 39.32 299.702 39.1547 299.884 39.016C300.076 38.8773 300.3 38.7653 300.556 38.68C300.812 38.5947 301.11 38.552 301.452 38.552C302.316 38.552 303.009 38.8293 303.532 39.384C304.054 39.928 304.316 40.7013 304.316 41.704V47H303.036V41.928C303.036 41.1707 302.87 40.6107 302.54 40.248C302.209 39.8747 301.724 39.688 301.084 39.688C300.828 39.688 300.577 39.72 300.332 39.784C300.086 39.848 299.868 39.944 299.676 40.072C299.484 40.2 299.329 40.3653 299.212 40.568C299.094 40.7707 299.036 41.0053 299.036 41.272V47H297.756V35.16ZM310.581 47.192C310.005 47.192 309.483 47.0907 309.013 46.888C308.555 46.6853 308.16 46.3973 307.829 46.024C307.509 45.64 307.264 45.1867 307.093 44.664C306.923 44.1307 306.837 43.5333 306.837 42.872C306.837 42.2213 306.923 41.6293 307.093 41.096C307.264 40.5627 307.509 40.1093 307.829 39.736C308.16 39.352 308.555 39.0587 309.013 38.856C309.483 38.6533 310.005 38.552 310.581 38.552C311.157 38.552 311.675 38.6533 312.133 38.856C312.603 39.0587 312.997 39.352 313.317 39.736C313.648 40.1093 313.899 40.5627 314.069 41.096C314.24 41.6293 314.325 42.2213 314.325 42.872C314.325 43.5333 314.24 44.1307 314.069 44.664C313.899 45.1867 313.648 45.64 313.317 46.024C312.997 46.3973 312.603 46.6853 312.133 46.888C311.675 47.0907 311.157 47.192 310.581 47.192ZM310.581 46.088C311.296 46.088 311.872 45.8747 312.309 45.448C312.747 45.0213 312.965 44.36 312.965 43.464V42.28C312.965 41.384 312.747 40.7227 312.309 40.296C311.872 39.8693 311.296 39.656 310.581 39.656C309.867 39.656 309.291 39.8693 308.853 40.296C308.416 40.7227 308.197 41.384 308.197 42.28V43.464C308.197 44.36 308.416 45.0213 308.853 45.448C309.291 45.8747 309.867 46.088 310.581 46.088ZM316.895 38.744H318.175V40.088H318.239C318.772 39.064 319.62 38.552 320.783 38.552C321.796 38.552 322.586 38.9307 323.151 39.688C323.727 40.4453 324.015 41.5067 324.015 42.872C324.015 44.2373 323.727 45.2987 323.151 46.056C322.586 46.8133 321.796 47.192 320.783 47.192C319.62 47.192 318.772 46.68 318.239 45.656H318.175V50.2H316.895V38.744ZM320.287 46.056C321.034 46.056 321.61 45.832 322.015 45.384C322.431 44.9253 322.639 44.3227 322.639 43.576V42.168C322.639 41.4213 322.431 40.824 322.015 40.376C321.61 39.9173 321.034 39.688 320.287 39.688C319.999 39.688 319.727 39.7253 319.471 39.8C319.215 39.8747 318.991 39.9867 318.799 40.136C318.607 40.2747 318.452 40.4507 318.335 40.664C318.228 40.8667 318.175 41.1067 318.175 41.384V44.36C318.175 44.6373 318.228 44.8827 318.335 45.096C318.452 45.2987 318.607 45.4747 318.799 45.624C318.991 45.7627 319.215 45.8693 319.471 45.944C319.727 46.0187 319.999 46.056 320.287 46.056Z" fill="black"/>
<rect x="255.5" y="61" width="43" height="34" rx="6" fill="white" fill-opacity="0.9"/>
<path d="M270.131 72.147H267.683V75H266.927V68.718H267.683V71.49H270.131V68.718H270.887V75H270.131V72.147ZM274.682 69.375V75H273.926V69.375H271.829V68.718H276.779V69.375H274.682ZM278.08 75V68.718H278.836V74.343H281.815V75H278.08ZM285.303 75.108C284.535 75.108 283.962 74.829 283.584 74.271C283.212 73.713 283.026 72.909 283.026 71.859C283.026 70.809 283.212 70.005 283.584 69.447C283.962 68.889 284.535 68.61 285.303 68.61C285.591 68.61 285.84 68.649 286.05 68.727C286.26 68.805 286.44 68.91 286.59 69.042C286.74 69.174 286.866 69.324 286.968 69.492C287.07 69.654 287.16 69.819 287.238 69.987L286.59 70.284C286.536 70.146 286.473 70.017 286.401 69.897C286.329 69.771 286.242 69.663 286.14 69.573C286.044 69.477 285.927 69.402 285.789 69.348C285.657 69.294 285.495 69.267 285.303 69.267C284.805 69.267 284.433 69.456 284.187 69.834C283.947 70.212 283.827 70.716 283.827 71.346V72.372C283.827 73.002 283.947 73.506 284.187 73.884C284.433 74.262 284.805 74.451 285.303 74.451C285.495 74.451 285.657 74.424 285.789 74.37C285.927 74.316 286.044 74.244 286.14 74.154C286.242 74.058 286.329 73.95 286.401 73.83C286.473 73.704 286.536 73.572 286.59 73.434L287.238 73.731C287.16 73.905 287.07 74.073 286.968 74.235C286.866 74.397 286.74 74.544 286.59 74.676C286.44 74.808 286.26 74.913 286.05 74.991C285.84 75.069 285.591 75.108 285.303 75.108ZM265.266 87C264.984 87 264.783 86.928 264.663 86.784C264.543 86.64 264.468 86.46 264.438 86.244H264.393C264.291 86.514 264.126 86.727 263.898 86.883C263.676 87.033 263.376 87.108 262.998 87.108C262.512 87.108 262.125 86.982 261.837 86.73C261.549 86.478 261.405 86.133 261.405 85.695C261.405 85.263 261.561 84.93 261.873 84.696C262.191 84.462 262.701 84.345 263.403 84.345H264.393V83.886C264.393 83.544 264.297 83.289 264.105 83.121C263.913 82.947 263.64 82.86 263.286 82.86C262.974 82.86 262.719 82.923 262.521 83.049C262.323 83.169 262.164 83.334 262.044 83.544L261.558 83.184C261.618 83.064 261.699 82.947 261.801 82.833C261.903 82.719 262.029 82.62 262.179 82.536C262.329 82.446 262.5 82.377 262.692 82.329C262.884 82.275 263.097 82.248 263.331 82.248C263.877 82.248 264.309 82.386 264.627 82.662C264.951 82.938 265.113 83.322 265.113 83.814V86.37H265.761V87H265.266ZM263.124 86.505C263.31 86.505 263.478 86.484 263.628 86.442C263.784 86.394 263.919 86.334 264.033 86.262C264.147 86.184 264.234 86.094 264.294 85.992C264.36 85.884 264.393 85.77 264.393 85.65V84.885H263.403C262.971 84.885 262.656 84.945 262.458 85.065C262.26 85.185 262.161 85.359 262.161 85.587V85.776C262.161 86.016 262.245 86.199 262.413 86.325C262.587 86.445 262.824 86.505 263.124 86.505ZM267.062 80.34H267.782V83.112H267.818C268.118 82.536 268.595 82.248 269.249 82.248C269.819 82.248 270.263 82.461 270.581 82.887C270.905 83.313 271.067 83.91 271.067 84.678C271.067 85.446 270.905 86.043 270.581 86.469C270.263 86.895 269.819 87.108 269.249 87.108C268.595 87.108 268.118 86.82 267.818 86.244H267.782V87H267.062V80.34ZM268.97 86.469C269.39 86.469 269.714 86.343 269.942 86.091C270.176 85.833 270.293 85.494 270.293 85.074V84.282C270.293 83.862 270.176 83.526 269.942 83.274C269.714 83.016 269.39 82.887 268.97 82.887C268.808 82.887 268.655 82.908 268.511 82.95C268.367 82.992 268.241 83.055 268.133 83.139C268.025 83.217 267.938 83.316 267.872 83.436C267.812 83.55 267.782 83.685 267.782 83.841V85.515C267.782 85.671 267.812 85.809 267.872 85.929C267.938 86.043 268.025 86.142 268.133 86.226C268.241 86.304 268.367 86.364 268.511 86.406C268.655 86.448 268.808 86.469 268.97 86.469ZM274.466 87.108C274.13 87.108 273.83 87.051 273.566 86.937C273.308 86.817 273.089 86.652 272.909 86.442C272.729 86.232 272.591 85.977 272.495 85.677C272.405 85.377 272.36 85.044 272.36 84.678C272.36 84.312 272.408 83.979 272.504 83.679C272.6 83.379 272.738 83.124 272.918 82.914C273.098 82.698 273.317 82.533 273.575 82.419C273.833 82.305 274.127 82.248 274.457 82.248C274.907 82.248 275.273 82.347 275.555 82.545C275.837 82.743 276.044 83.001 276.176 83.319L275.6 83.625C275.516 83.385 275.375 83.199 275.177 83.067C274.985 82.935 274.745 82.869 274.457 82.869C274.247 82.869 274.058 82.905 273.89 82.977C273.728 83.043 273.59 83.139 273.476 83.265C273.362 83.391 273.275 83.541 273.215 83.715C273.161 83.889 273.134 84.078 273.134 84.282V85.074C273.134 85.278 273.161 85.467 273.215 85.641C273.275 85.815 273.362 85.965 273.476 86.091C273.59 86.217 273.731 86.316 273.899 86.388C274.067 86.454 274.259 86.487 274.475 86.487C274.787 86.487 275.045 86.415 275.249 86.271C275.453 86.127 275.615 85.929 275.735 85.677L276.248 86.028C276.11 86.34 275.894 86.598 275.6 86.802C275.312 87.006 274.934 87.108 274.466 87.108ZM277.765 87V86.343H279.565V81.276H279.502L277.918 82.752L277.477 82.275L279.142 80.718H280.321V86.343H281.977V87H277.765ZM287.229 87H283.035V86.226L285.132 84.336C285.438 84.06 285.69 83.778 285.888 83.49C286.086 83.196 286.185 82.887 286.185 82.563V82.455C286.185 82.077 286.086 81.786 285.888 81.582C285.69 81.372 285.396 81.267 285.006 81.267C284.622 81.267 284.325 81.366 284.115 81.564C283.911 81.756 283.758 82.014 283.656 82.338L282.981 82.086C283.041 81.9 283.122 81.72 283.224 81.546C283.332 81.366 283.467 81.207 283.629 81.069C283.791 80.931 283.986 80.82 284.214 80.736C284.448 80.652 284.718 80.61 285.024 80.61C285.336 80.61 285.612 80.655 285.852 80.745C286.098 80.835 286.302 80.961 286.464 81.123C286.632 81.285 286.758 81.477 286.842 81.699C286.932 81.921 286.977 82.164 286.977 82.428C286.977 82.668 286.941 82.893 286.869 83.103C286.803 83.313 286.707 83.514 286.581 83.706C286.461 83.898 286.314 84.087 286.14 84.273C285.972 84.453 285.783 84.633 285.573 84.813L283.818 86.343H287.229V87ZM290.223 83.382C290.661 83.382 290.988 83.286 291.204 83.094C291.426 82.896 291.537 82.644 291.537 82.338V82.275C291.537 81.939 291.429 81.687 291.213 81.519C291.003 81.351 290.727 81.267 290.385 81.267C290.049 81.267 289.776 81.342 289.566 81.492C289.362 81.636 289.194 81.828 289.062 82.068L288.495 81.636C288.573 81.51 288.669 81.387 288.783 81.267C288.897 81.141 289.029 81.03 289.179 80.934C289.335 80.838 289.512 80.76 289.71 80.7C289.914 80.64 290.145 80.61 290.403 80.61C290.673 80.61 290.925 80.646 291.159 80.718C291.393 80.784 291.597 80.886 291.771 81.024C291.945 81.156 292.08 81.321 292.176 81.519C292.278 81.717 292.329 81.942 292.329 82.194C292.329 82.398 292.296 82.581 292.23 82.743C292.17 82.905 292.083 83.046 291.969 83.166C291.861 83.286 291.732 83.388 291.582 83.472C291.432 83.556 291.273 83.619 291.105 83.661V83.697C291.279 83.733 291.447 83.793 291.609 83.877C291.771 83.955 291.915 84.06 292.041 84.192C292.167 84.318 292.266 84.474 292.338 84.66C292.416 84.84 292.455 85.047 292.455 85.281C292.455 85.551 292.401 85.8 292.293 86.028C292.191 86.25 292.044 86.442 291.852 86.604C291.666 86.76 291.438 86.883 291.168 86.973C290.904 87.063 290.61 87.108 290.286 87.108C290.01 87.108 289.764 87.078 289.548 87.018C289.338 86.958 289.149 86.877 288.981 86.775C288.819 86.673 288.675 86.559 288.549 86.433C288.429 86.307 288.321 86.175 288.225 86.037L288.792 85.605C288.876 85.731 288.963 85.845 289.053 85.947C289.143 86.049 289.245 86.139 289.359 86.217C289.479 86.289 289.614 86.346 289.764 86.388C289.914 86.43 290.088 86.451 290.286 86.451C290.73 86.451 291.069 86.349 291.303 86.145C291.543 85.941 291.663 85.65 291.663 85.272V85.2C291.663 84.828 291.546 84.54 291.312 84.336C291.084 84.132 290.739 84.03 290.277 84.03H289.53V83.382H290.223Z" fill="black"/>
<rect x="210" y="11" width="134" height="103" rx="5" stroke="black" stroke-width="2"/>
<g clip-path="url(#clip2_8_431)">
<path d="M366.874 63.2071C367.264 62.8166 367.264 62.1834 366.874 61.7929L360.51 55.4289C360.119 55.0384 359.486 55.0384 359.096 55.4289C358.705 55.8195 358.705 56.4526 359.096 56.8431L364.752 62.5L359.096 68.1569C358.705 68.5474 358.705 69.1805 359.096 69.5711C359.486 69.9616 360.119 69.9616 360.51 69.5711L366.874 63.2071ZM347 63.5H366.167V61.5H347V63.5Z" fill="#ADADAD"/>
</g>
<rect x="370" y="11" width="106" height="103" rx="5" fill="#FDE4DE"/>
<path d="M390.83 35.832H394.622C395.582 35.832 396.334 36.0933 396.878 36.616C397.422 37.1387 397.694 37.8373 397.694 38.712C397.694 39.384 397.529 39.912 397.198 40.296C396.878 40.68 396.462 40.952 395.95 41.112V41.16C396.579 41.3093 397.097 41.592 397.502 42.008C397.907 42.4133 398.11 43.0053 398.11 43.784C398.11 44.232 398.035 44.6533 397.886 45.048C397.737 45.4427 397.523 45.784 397.246 46.072C396.979 46.36 396.659 46.5893 396.286 46.76C395.923 46.92 395.529 47 395.102 47H390.83V35.832ZM394.702 45.832C395.321 45.832 395.806 45.6933 396.158 45.416C396.51 45.1387 396.686 44.712 396.686 44.136V43.48C396.686 42.9147 396.51 42.4933 396.158 42.216C395.806 41.928 395.321 41.784 394.702 41.784H392.174V45.832H394.702ZM394.478 40.68C395.043 40.68 395.486 40.5573 395.806 40.312C396.126 40.056 396.286 39.672 396.286 39.16V38.536C396.286 38.024 396.126 37.64 395.806 37.384C395.486 37.128 395.043 37 394.478 37H392.174V40.68H394.478ZM406.936 47C406.434 47 406.077 46.872 405.864 46.616C405.65 46.36 405.517 46.04 405.464 45.656H405.384C405.202 46.136 404.909 46.5147 404.504 46.792C404.109 47.0587 403.576 47.192 402.904 47.192C402.04 47.192 401.352 46.968 400.84 46.52C400.328 46.072 400.072 45.4587 400.072 44.68C400.072 43.912 400.349 43.32 400.904 42.904C401.469 42.488 402.376 42.28 403.624 42.28H405.384V41.464C405.384 40.856 405.213 40.4027 404.872 40.104C404.53 39.7947 404.045 39.64 403.416 39.64C402.861 39.64 402.408 39.752 402.056 39.976C401.704 40.1893 401.421 40.4827 401.208 40.856L400.344 40.216C400.45 40.0027 400.594 39.7947 400.776 39.592C400.957 39.3893 401.181 39.2133 401.448 39.064C401.714 38.904 402.018 38.7813 402.36 38.696C402.701 38.6 403.08 38.552 403.496 38.552C404.466 38.552 405.234 38.7973 405.8 39.288C406.376 39.7787 406.664 40.4613 406.664 41.336V45.88H407.816V47H406.936ZM403.128 46.12C403.458 46.12 403.757 46.0827 404.024 46.008C404.301 45.9227 404.541 45.816 404.744 45.688C404.946 45.5493 405.101 45.3893 405.208 45.208C405.325 45.016 405.384 44.8133 405.384 44.6V43.24H403.624C402.856 43.24 402.296 43.3467 401.944 43.56C401.592 43.7733 401.416 44.0827 401.416 44.488V44.824C401.416 45.2507 401.565 45.576 401.864 45.8C402.173 46.0133 402.594 46.12 403.128 46.12ZM415.409 45.656H415.345C414.812 46.68 413.964 47.192 412.801 47.192C411.788 47.192 410.993 46.8133 410.417 46.056C409.852 45.2987 409.569 44.2373 409.569 42.872C409.569 41.5067 409.852 40.4453 410.417 39.688C410.993 38.9307 411.788 38.552 412.801 38.552C413.964 38.552 414.812 39.064 415.345 40.088H415.409V35.16H416.689V47H415.409V45.656ZM413.297 46.056C413.585 46.056 413.857 46.0187 414.113 45.944C414.369 45.8693 414.593 45.7627 414.785 45.624C414.977 45.4747 415.127 45.2987 415.233 45.096C415.351 44.8827 415.409 44.6373 415.409 44.36V41.384C415.409 41.1067 415.351 40.8667 415.233 40.664C415.127 40.4507 414.977 40.2747 414.785 40.136C414.593 39.9867 414.369 39.8747 414.113 39.8C413.857 39.7253 413.585 39.688 413.297 39.688C412.551 39.688 411.969 39.9173 411.553 40.376C411.148 40.824 410.945 41.4213 410.945 42.168V43.576C410.945 44.3227 411.148 44.9253 411.553 45.384C411.969 45.832 412.551 46.056 413.297 46.056ZM436.773 47.944C436.773 48.776 436.426 49.3893 435.733 49.784C435.04 50.1893 434 50.392 432.613 50.392C431.28 50.392 430.32 50.216 429.733 49.864C429.157 49.512 428.869 49.0053 428.869 48.344C428.869 47.896 428.986 47.5493 429.221 47.304C429.456 47.0587 429.786 46.8773 430.213 46.76V46.568C429.978 46.4507 429.797 46.3013 429.669 46.12C429.541 45.9387 429.477 45.7093 429.477 45.432C429.477 45.0053 429.616 44.6853 429.893 44.472C430.181 44.2587 430.538 44.0987 430.965 43.992V43.928C430.453 43.704 430.053 43.3733 429.765 42.936C429.488 42.4987 429.349 41.9867 429.349 41.4C429.349 40.984 429.424 40.6 429.573 40.248C429.722 39.896 429.936 39.5973 430.213 39.352C430.501 39.096 430.842 38.8987 431.237 38.76C431.632 38.6213 432.069 38.552 432.549 38.552C433.168 38.552 433.712 38.664 434.181 38.888V38.744C434.181 38.424 434.256 38.1573 434.405 37.944C434.554 37.7307 434.81 37.624 435.173 37.624H436.693V38.744H434.837V39.304C435.136 39.56 435.365 39.864 435.525 40.216C435.685 40.568 435.765 40.9627 435.765 41.4C435.765 41.816 435.685 42.2 435.525 42.552C435.376 42.904 435.162 43.208 434.885 43.464C434.608 43.7093 434.266 43.9013 433.861 44.04C433.466 44.1787 433.029 44.248 432.549 44.248C432.41 44.248 432.277 44.2427 432.149 44.232C432.021 44.2213 431.893 44.2053 431.765 44.184C431.637 44.2053 431.504 44.2427 431.365 44.296C431.226 44.3387 431.098 44.4027 430.981 44.488C430.864 44.5627 430.768 44.6533 430.693 44.76C430.618 44.8667 430.581 44.9893 430.581 45.128C430.581 45.3733 430.704 45.5387 430.949 45.624C431.194 45.6987 431.514 45.736 431.909 45.736H433.733C434.8 45.736 435.573 45.9387 436.053 46.344C436.533 46.7387 436.773 47.272 436.773 47.944ZM435.573 48.008C435.573 47.6773 435.44 47.4107 435.173 47.208C434.906 47.016 434.442 46.92 433.781 46.92H430.917C430.362 47.144 430.085 47.5173 430.085 48.04C430.085 48.4027 430.229 48.712 430.517 48.968C430.805 49.2347 431.285 49.368 431.957 49.368H433.205C433.952 49.368 434.533 49.2507 434.949 49.016C435.365 48.792 435.573 48.456 435.573 48.008ZM432.549 43.256C433.189 43.256 433.658 43.1067 433.957 42.808C434.266 42.5093 434.421 42.1147 434.421 41.624V41.16C434.421 40.6693 434.266 40.28 433.957 39.992C433.658 39.6933 433.189 39.544 432.549 39.544C431.909 39.544 431.44 39.6933 431.141 39.992C430.842 40.28 430.693 40.6693 430.693 41.16V41.624C430.693 42.1147 430.842 42.5093 431.141 42.808C431.44 43.1067 431.909 43.256 432.549 43.256ZM444.143 45.656H444.079C443.993 45.8587 443.887 46.056 443.759 46.248C443.631 46.4293 443.471 46.5893 443.279 46.728C443.097 46.8667 442.879 46.9787 442.623 47.064C442.367 47.1493 442.068 47.192 441.727 47.192C440.863 47.192 440.169 46.92 439.647 46.376C439.124 45.8213 438.863 45.0427 438.863 44.04V38.744H440.143V43.816C440.143 44.5733 440.308 45.1387 440.639 45.512C440.969 45.8747 441.455 46.056 442.095 46.056C442.351 46.056 442.601 46.024 442.847 45.96C443.092 45.896 443.311 45.8 443.503 45.672C443.695 45.544 443.849 45.384 443.967 45.192C444.084 44.9893 444.143 44.7493 444.143 44.472V38.744H445.423V47H444.143V45.656ZM454.456 38.744H455.736L451.64 48.808C451.544 49.0427 451.438 49.2453 451.32 49.416C451.203 49.5973 451.064 49.7413 450.904 49.848C450.744 49.9653 450.552 50.0507 450.328 50.104C450.104 50.168 449.838 50.2 449.528 50.2H448.312V49.112H450.232L451.16 46.84L447.832 38.744H449.144L450.536 42.2L451.768 45.336H451.832L453.064 42.2L454.456 38.744Z" fill="black"/>
<rect x="401.5" y="61" width="43" height="34" rx="6" fill="white" fill-opacity="0.9"/>
<path d="M416.131 72.147H413.683V75H412.927V68.718H413.683V71.49H416.131V68.718H416.887V75H416.131V72.147ZM420.682 69.375V75H419.926V69.375H417.829V68.718H422.779V69.375H420.682ZM424.08 75V68.718H424.836V74.343H427.815V75H424.08ZM431.303 75.108C430.535 75.108 429.962 74.829 429.584 74.271C429.212 73.713 429.026 72.909 429.026 71.859C429.026 70.809 429.212 70.005 429.584 69.447C429.962 68.889 430.535 68.61 431.303 68.61C431.591 68.61 431.84 68.649 432.05 68.727C432.26 68.805 432.44 68.91 432.59 69.042C432.74 69.174 432.866 69.324 432.968 69.492C433.07 69.654 433.16 69.819 433.238 69.987L432.59 70.284C432.536 70.146 432.473 70.017 432.401 69.897C432.329 69.771 432.242 69.663 432.14 69.573C432.044 69.477 431.927 69.402 431.789 69.348C431.657 69.294 431.495 69.267 431.303 69.267C430.805 69.267 430.433 69.456 430.187 69.834C429.947 70.212 429.827 70.716 429.827 71.346V72.372C429.827 73.002 429.947 73.506 430.187 73.884C430.433 74.262 430.805 74.451 431.303 74.451C431.495 74.451 431.657 74.424 431.789 74.37C431.927 74.316 432.044 74.244 432.14 74.154C432.242 74.058 432.329 73.95 432.401 73.83C432.473 73.704 432.536 73.572 432.59 73.434L433.238 73.731C433.16 73.905 433.07 74.073 432.968 74.235C432.866 74.397 432.74 74.544 432.59 74.676C432.44 74.808 432.26 74.913 432.05 74.991C431.84 75.069 431.591 75.108 431.303 75.108ZM411.266 87C410.984 87 410.783 86.928 410.663 86.784C410.543 86.64 410.468 86.46 410.438 86.244H410.393C410.291 86.514 410.126 86.727 409.898 86.883C409.676 87.033 409.376 87.108 408.998 87.108C408.512 87.108 408.125 86.982 407.837 86.73C407.549 86.478 407.405 86.133 407.405 85.695C407.405 85.263 407.561 84.93 407.873 84.696C408.191 84.462 408.701 84.345 409.403 84.345H410.393V83.886C410.393 83.544 410.297 83.289 410.105 83.121C409.913 82.947 409.64 82.86 409.286 82.86C408.974 82.86 408.719 82.923 408.521 83.049C408.323 83.169 408.164 83.334 408.044 83.544L407.558 83.184C407.618 83.064 407.699 82.947 407.801 82.833C407.903 82.719 408.029 82.62 408.179 82.536C408.329 82.446 408.5 82.377 408.692 82.329C408.884 82.275 409.097 82.248 409.331 82.248C409.877 82.248 410.309 82.386 410.627 82.662C410.951 82.938 411.113 83.322 411.113 83.814V86.37H411.761V87H411.266ZM409.124 86.505C409.31 86.505 409.478 86.484 409.628 86.442C409.784 86.394 409.919 86.334 410.033 86.262C410.147 86.184 410.234 86.094 410.294 85.992C410.36 85.884 410.393 85.77 410.393 85.65V84.885H409.403C408.971 84.885 408.656 84.945 408.458 85.065C408.26 85.185 408.161 85.359 408.161 85.587V85.776C408.161 86.016 408.245 86.199 408.413 86.325C408.587 86.445 408.824 86.505 409.124 86.505ZM413.062 80.34H413.782V83.112H413.818C414.118 82.536 414.595 82.248 415.249 82.248C415.819 82.248 416.263 82.461 416.581 82.887C416.905 83.313 417.067 83.91 417.067 84.678C417.067 85.446 416.905 86.043 416.581 86.469C416.263 86.895 415.819 87.108 415.249 87.108C414.595 87.108 414.118 86.82 413.818 86.244H413.782V87H413.062V80.34ZM414.97 86.469C415.39 86.469 415.714 86.343 415.942 86.091C416.176 85.833 416.293 85.494 416.293 85.074V84.282C416.293 83.862 416.176 83.526 415.942 83.274C415.714 83.016 415.39 82.887 414.97 82.887C414.808 82.887 414.655 82.908 414.511 82.95C414.367 82.992 414.241 83.055 414.133 83.139C414.025 83.217 413.938 83.316 413.872 83.436C413.812 83.55 413.782 83.685 413.782 83.841V85.515C413.782 85.671 413.812 85.809 413.872 85.929C413.938 86.043 414.025 86.142 414.133 86.226C414.241 86.304 414.367 86.364 414.511 86.406C414.655 86.448 414.808 86.469 414.97 86.469ZM420.466 87.108C420.13 87.108 419.83 87.051 419.566 86.937C419.308 86.817 419.089 86.652 418.909 86.442C418.729 86.232 418.591 85.977 418.495 85.677C418.405 85.377 418.36 85.044 418.36 84.678C418.36 84.312 418.408 83.979 418.504 83.679C418.6 83.379 418.738 83.124 418.918 82.914C419.098 82.698 419.317 82.533 419.575 82.419C419.833 82.305 420.127 82.248 420.457 82.248C420.907 82.248 421.273 82.347 421.555 82.545C421.837 82.743 422.044 83.001 422.176 83.319L421.6 83.625C421.516 83.385 421.375 83.199 421.177 83.067C420.985 82.935 420.745 82.869 420.457 82.869C420.247 82.869 420.058 82.905 419.89 82.977C419.728 83.043 419.59 83.139 419.476 83.265C419.362 83.391 419.275 83.541 419.215 83.715C419.161 83.889 419.134 84.078 419.134 84.282V85.074C419.134 85.278 419.161 85.467 419.215 85.641C419.275 85.815 419.362 85.965 419.476 86.091C419.59 86.217 419.731 86.316 419.899 86.388C420.067 86.454 420.259 86.487 420.475 86.487C420.787 86.487 421.045 86.415 421.249 86.271C421.453 86.127 421.615 85.929 421.735 85.677L422.248 86.028C422.11 86.34 421.894 86.598 421.6 86.802C421.312 87.006 420.934 87.108 420.466 87.108ZM423.765 87V86.343H425.565V81.276H425.502L423.918 82.752L423.477 82.275L425.142 80.718H426.321V86.343H427.977V87H423.765ZM433.229 87H429.035V86.226L431.132 84.336C431.438 84.06 431.69 83.778 431.888 83.49C432.086 83.196 432.185 82.887 432.185 82.563V82.455C432.185 82.077 432.086 81.786 431.888 81.582C431.69 81.372 431.396 81.267 431.006 81.267C430.622 81.267 430.325 81.366 430.115 81.564C429.911 81.756 429.758 82.014 429.656 82.338L428.981 82.086C429.041 81.9 429.122 81.72 429.224 81.546C429.332 81.366 429.467 81.207 429.629 81.069C429.791 80.931 429.986 80.82 430.214 80.736C430.448 80.652 430.718 80.61 431.024 80.61C431.336 80.61 431.612 80.655 431.852 80.745C432.098 80.835 432.302 80.961 432.464 81.123C432.632 81.285 432.758 81.477 432.842 81.699C432.932 81.921 432.977 82.164 432.977 82.428C432.977 82.668 432.941 82.893 432.869 83.103C432.803 83.313 432.707 83.514 432.581 83.706C432.461 83.898 432.314 84.087 432.14 84.273C431.972 84.453 431.783 84.633 431.573 84.813L429.818 86.343H433.229V87ZM436.223 83.382C436.661 83.382 436.988 83.286 437.204 83.094C437.426 82.896 437.537 82.644 437.537 82.338V82.275C437.537 81.939 437.429 81.687 437.213 81.519C437.003 81.351 436.727 81.267 436.385 81.267C436.049 81.267 435.776 81.342 435.566 81.492C435.362 81.636 435.194 81.828 435.062 82.068L434.495 81.636C434.573 81.51 434.669 81.387 434.783 81.267C434.897 81.141 435.029 81.03 435.179 80.934C435.335 80.838 435.512 80.76 435.71 80.7C435.914 80.64 436.145 80.61 436.403 80.61C436.673 80.61 436.925 80.646 437.159 80.718C437.393 80.784 437.597 80.886 437.771 81.024C437.945 81.156 438.08 81.321 438.176 81.519C438.278 81.717 438.329 81.942 438.329 82.194C438.329 82.398 438.296 82.581 438.23 82.743C438.17 82.905 438.083 83.046 437.969 83.166C437.861 83.286 437.732 83.388 437.582 83.472C437.432 83.556 437.273 83.619 437.105 83.661V83.697C437.279 83.733 437.447 83.793 437.609 83.877C437.771 83.955 437.915 84.06 438.041 84.192C438.167 84.318 438.266 84.474 438.338 84.66C438.416 84.84 438.455 85.047 438.455 85.281C438.455 85.551 438.401 85.8 438.293 86.028C438.191 86.25 438.044 86.442 437.852 86.604C437.666 86.76 437.438 86.883 437.168 86.973C436.904 87.063 436.61 87.108 436.286 87.108C436.01 87.108 435.764 87.078 435.548 87.018C435.338 86.958 435.149 86.877 434.981 86.775C434.819 86.673 434.675 86.559 434.549 86.433C434.429 86.307 434.321 86.175 434.225 86.037L434.792 85.605C434.876 85.731 434.963 85.845 435.053 85.947C435.143 86.049 435.245 86.139 435.359 86.217C435.479 86.289 435.614 86.346 435.764 86.388C435.914 86.43 436.088 86.451 436.286 86.451C436.73 86.451 437.069 86.349 437.303 86.145C437.543 85.941 437.663 85.65 437.663 85.272V85.2C437.663 84.828 437.546 84.54 437.312 84.336C437.084 84.132 436.739 84.03 436.277 84.03H435.53V83.382H436.223Z" fill="black"/>
<rect x="370" y="11" width="106" height="103" rx="5" stroke="#FF0000" stroke-width="2"/>
<g clip-path="url(#clip3_8_431)">
<path d="M498.874 63.2071C499.264 62.8166 499.264 62.1834 498.874 61.7929L492.51 55.4289C492.119 55.0384 491.486 55.0384 491.096 55.4289C490.705 55.8195 490.705 56.4526 491.096 56.8431L496.752 62.5L491.096 68.1569C490.705 68.5474 490.705 69.1805 491.096 69.5711C491.486 69.9616 492.119 69.9616 492.51 69.5711L498.874 63.2071ZM479 63.5H498.167V61.5H479V63.5Z" fill="#ADADAD"/>
</g>
<rect x="502" y="11" width="144" height="103" rx="5" fill="#FFF2DF"/>
<path d="M522.754 35.832H525.874C527.24 35.832 528.258 36.3013 528.93 37.24C529.602 38.1787 529.938 39.5707 529.938 41.416C529.938 43.2613 529.602 44.6533 528.93 45.592C528.258 46.5307 527.24 47 525.874 47H522.754V35.832ZM525.81 45.832C526.706 45.832 527.378 45.5227 527.826 44.904C528.285 44.2853 528.514 43.4107 528.514 42.28V40.552C528.514 39.4213 528.285 38.5467 527.826 37.928C527.378 37.3093 526.706 37 525.81 37H524.098V45.832H525.81ZM535.772 47.192C535.175 47.192 534.636 47.0907 534.156 46.888C533.687 46.6853 533.281 46.3973 532.94 46.024C532.609 45.64 532.353 45.1867 532.172 44.664C531.991 44.1307 531.9 43.5387 531.9 42.888C531.9 42.2267 531.991 41.6293 532.172 41.096C532.364 40.5627 532.625 40.1093 532.956 39.736C533.287 39.352 533.681 39.0587 534.14 38.856C534.609 38.6533 535.127 38.552 535.692 38.552C536.247 38.552 536.748 38.6533 537.196 38.856C537.655 39.0587 538.044 39.3413 538.364 39.704C538.684 40.056 538.929 40.4773 539.1 40.968C539.271 41.4587 539.356 41.9973 539.356 42.584V43.192H533.244V43.576C533.244 43.9387 533.303 44.2747 533.42 44.584C533.537 44.8933 533.703 45.16 533.916 45.384C534.14 45.608 534.407 45.784 534.716 45.912C535.036 46.0293 535.388 46.088 535.772 46.088C536.327 46.088 536.807 45.96 537.212 45.704C537.617 45.448 537.927 45.096 538.14 44.648L539.084 45.288C538.839 45.8427 538.428 46.3013 537.852 46.664C537.287 47.016 536.593 47.192 535.772 47.192ZM535.692 39.608C535.34 39.608 535.015 39.672 534.716 39.8C534.417 39.928 534.156 40.104 533.932 40.328C533.719 40.552 533.548 40.8187 533.42 41.128C533.303 41.4267 533.244 41.7573 533.244 42.12V42.232H537.98V42.056C537.98 41.6933 537.921 41.3627 537.804 41.064C537.697 40.7653 537.543 40.5093 537.34 40.296C537.148 40.072 536.908 39.9013 536.62 39.784C536.343 39.6667 536.033 39.608 535.692 39.608ZM545.318 47.192C544.454 47.192 543.707 47.048 543.078 46.76C542.459 46.4613 541.931 46.0667 541.494 45.576L542.358 44.824C542.753 45.24 543.185 45.56 543.654 45.784C544.123 46.008 544.689 46.12 545.35 46.12C545.99 46.12 546.513 46.008 546.918 45.784C547.334 45.5493 547.542 45.1867 547.542 44.696C547.542 44.4827 547.499 44.3067 547.414 44.168C547.339 44.0187 547.233 43.9013 547.094 43.816C546.955 43.7307 546.801 43.6667 546.63 43.624C546.459 43.5707 546.278 43.528 546.086 43.496L544.79 43.304C544.502 43.2613 544.187 43.2027 543.846 43.128C543.515 43.0533 543.211 42.936 542.934 42.776C542.657 42.6053 542.422 42.3813 542.23 42.104C542.049 41.8267 541.958 41.464 541.958 41.016C541.958 40.6 542.038 40.2427 542.198 39.944C542.369 39.6347 542.603 39.3787 542.902 39.176C543.201 38.9627 543.553 38.808 543.958 38.712C544.363 38.6053 544.806 38.552 545.286 38.552C546.033 38.552 546.678 38.6693 547.222 38.904C547.777 39.1387 548.251 39.464 548.646 39.88L547.814 40.664C547.718 40.5467 547.595 40.4293 547.446 40.312C547.307 40.184 547.131 40.072 546.918 39.976C546.715 39.8693 546.475 39.784 546.198 39.72C545.921 39.656 545.601 39.624 545.238 39.624C544.587 39.624 544.086 39.736 543.734 39.96C543.393 40.184 543.222 40.5093 543.222 40.936C543.222 41.1493 543.259 41.3307 543.334 41.48C543.419 41.6187 543.531 41.7307 543.67 41.816C543.809 41.9013 543.963 41.9707 544.134 42.024C544.315 42.0667 544.497 42.104 544.678 42.136L545.974 42.328C546.273 42.3707 546.587 42.4293 546.918 42.504C547.249 42.5787 547.553 42.7013 547.83 42.872C548.107 43.032 548.337 43.2507 548.518 43.528C548.71 43.8053 548.806 44.168 548.806 44.616C548.806 45.4373 548.486 46.072 547.846 46.52C547.217 46.968 546.374 47.192 545.318 47.192ZM555.216 47C554.586 47 554.122 46.824 553.824 46.472C553.536 46.12 553.392 45.6667 553.392 45.112V39.832H550.64V38.744H552.688C552.965 38.744 553.157 38.6907 553.264 38.584C553.381 38.4667 553.44 38.2693 553.44 37.992V35.832H554.672V38.744H558.432V39.832H554.672V45.912H558.432V47H555.216ZM564.921 36.92C564.548 36.92 564.287 36.8453 564.137 36.696C563.988 36.536 563.913 36.3387 563.913 36.104V35.848C563.913 35.6133 563.988 35.4213 564.137 35.272C564.287 35.112 564.548 35.032 564.921 35.032C565.295 35.032 565.556 35.112 565.705 35.272C565.855 35.4213 565.929 35.6133 565.929 35.848V36.104C565.929 36.3387 565.855 36.536 565.705 36.696C565.556 36.8453 565.295 36.92 564.921 36.92ZM561.305 45.912H564.281V39.832H561.305V38.744H565.561V45.912H568.345V47H561.305V45.912ZM570.771 47V38.744H572.051V40.088H572.115C572.2 39.8853 572.307 39.6933 572.435 39.512C572.563 39.32 572.718 39.1547 572.899 39.016C573.091 38.8773 573.315 38.7653 573.571 38.68C573.827 38.5947 574.126 38.552 574.467 38.552C575.331 38.552 576.024 38.8293 576.547 39.384C577.07 39.928 577.331 40.7013 577.331 41.704V47H576.051V41.928C576.051 41.1707 575.886 40.6107 575.555 40.248C575.224 39.8747 574.739 39.688 574.099 39.688C573.843 39.688 573.592 39.72 573.347 39.784C573.102 39.848 572.883 39.944 572.691 40.072C572.499 40.2 572.344 40.3653 572.227 40.568C572.11 40.7707 572.051 41.0053 572.051 41.272V47H570.771ZM586.717 47C586.216 47 585.858 46.872 585.645 46.616C585.432 46.36 585.298 46.04 585.245 45.656H585.165C584.984 46.136 584.69 46.5147 584.285 46.792C583.89 47.0587 583.357 47.192 582.685 47.192C581.821 47.192 581.133 46.968 580.621 46.52C580.109 46.072 579.853 45.4587 579.853 44.68C579.853 43.912 580.13 43.32 580.685 42.904C581.25 42.488 582.157 42.28 583.405 42.28H585.165V41.464C585.165 40.856 584.994 40.4027 584.653 40.104C584.312 39.7947 583.826 39.64 583.197 39.64C582.642 39.64 582.189 39.752 581.837 39.976C581.485 40.1893 581.202 40.4827 580.989 40.856L580.125 40.216C580.232 40.0027 580.376 39.7947 580.557 39.592C580.738 39.3893 580.962 39.2133 581.229 39.064C581.496 38.904 581.8 38.7813 582.141 38.696C582.482 38.6 582.861 38.552 583.277 38.552C584.248 38.552 585.016 38.7973 585.581 39.288C586.157 39.7787 586.445 40.4613 586.445 41.336V45.88H587.597V47H586.717ZM582.909 46.12C583.24 46.12 583.538 46.0827 583.805 46.008C584.082 45.9227 584.322 45.816 584.525 45.688C584.728 45.5493 584.882 45.3893 584.989 45.208C585.106 45.016 585.165 44.8133 585.165 44.6V43.24H583.405C582.637 43.24 582.077 43.3467 581.725 43.56C581.373 43.7733 581.197 44.0827 581.197 44.488V44.824C581.197 45.2507 581.346 45.576 581.645 45.8C581.954 46.0133 582.376 46.12 582.909 46.12ZM593.591 47C592.961 47 592.497 46.824 592.199 46.472C591.911 46.12 591.767 45.6667 591.767 45.112V39.832H589.015V38.744H591.063C591.34 38.744 591.532 38.6907 591.639 38.584C591.756 38.4667 591.815 38.2693 591.815 37.992V35.832H593.047V38.744H596.807V39.832H593.047V45.912H596.807V47H593.591ZM603.296 36.92C602.923 36.92 602.662 36.8453 602.512 36.696C602.363 36.536 602.288 36.3387 602.288 36.104V35.848C602.288 35.6133 602.363 35.4213 602.512 35.272C602.662 35.112 602.923 35.032 603.296 35.032C603.67 35.032 603.931 35.112 604.08 35.272C604.23 35.4213 604.304 35.6133 604.304 35.848V36.104C604.304 36.3387 604.23 36.536 604.08 36.696C603.931 36.8453 603.67 36.92 603.296 36.92ZM599.68 45.912H602.656V39.832H599.68V38.744H603.936V45.912H606.72V47H599.68V45.912ZM612.378 47.192C611.802 47.192 611.279 47.0907 610.81 46.888C610.351 46.6853 609.957 46.3973 609.626 46.024C609.306 45.64 609.061 45.1867 608.89 44.664C608.719 44.1307 608.634 43.5333 608.634 42.872C608.634 42.2213 608.719 41.6293 608.89 41.096C609.061 40.5627 609.306 40.1093 609.626 39.736C609.957 39.352 610.351 39.0587 610.81 38.856C611.279 38.6533 611.802 38.552 612.378 38.552C612.954 38.552 613.471 38.6533 613.93 38.856C614.399 39.0587 614.794 39.352 615.114 39.736C615.445 40.1093 615.695 40.5627 615.866 41.096C616.037 41.6293 616.122 42.2213 616.122 42.872C616.122 43.5333 616.037 44.1307 615.866 44.664C615.695 45.1867 615.445 45.64 615.114 46.024C614.794 46.3973 614.399 46.6853 613.93 46.888C613.471 47.0907 612.954 47.192 612.378 47.192ZM612.378 46.088C613.093 46.088 613.669 45.8747 614.106 45.448C614.543 45.0213 614.762 44.36 614.762 43.464V42.28C614.762 41.384 614.543 40.7227 614.106 40.296C613.669 39.8693 613.093 39.656 612.378 39.656C611.663 39.656 611.087 39.8693 610.65 40.296C610.213 40.7227 609.994 41.384 609.994 42.28V43.464C609.994 44.36 610.213 45.0213 610.65 45.448C611.087 45.8747 611.663 46.088 612.378 46.088ZM618.74 47V38.744H620.02V40.088H620.084C620.169 39.8853 620.276 39.6933 620.404 39.512C620.532 39.32 620.687 39.1547 620.868 39.016C621.06 38.8773 621.284 38.7653 621.54 38.68C621.796 38.5947 622.095 38.552 622.436 38.552C623.3 38.552 623.993 38.8293 624.516 39.384C625.039 39.928 625.3 40.7013 625.3 41.704V47H624.02V41.928C624.02 41.1707 623.855 40.6107 623.524 40.248C623.193 39.8747 622.708 39.688 622.068 39.688C621.812 39.688 621.561 39.72 621.316 39.784C621.071 39.848 620.852 39.944 620.66 40.072C620.468 40.2 620.313 40.3653 620.196 40.568C620.079 40.7707 620.02 41.0053 620.02 41.272V47H618.74Z" fill="black"/>
<rect x="552.5" y="61" width="43" height="34" rx="6" fill="white" fill-opacity="0.9"/>
<path d="M567.131 72.147H564.683V75H563.927V68.718H564.683V71.49H567.131V68.718H567.887V75H567.131V72.147ZM571.682 69.375V75H570.926V69.375H568.829V68.718H573.779V69.375H571.682ZM575.08 75V68.718H575.836V74.343H578.815V75H575.08ZM582.303 75.108C581.535 75.108 580.962 74.829 580.584 74.271C580.212 73.713 580.026 72.909 580.026 71.859C580.026 70.809 580.212 70.005 580.584 69.447C580.962 68.889 581.535 68.61 582.303 68.61C582.591 68.61 582.84 68.649 583.05 68.727C583.26 68.805 583.44 68.91 583.59 69.042C583.74 69.174 583.866 69.324 583.968 69.492C584.07 69.654 584.16 69.819 584.238 69.987L583.59 70.284C583.536 70.146 583.473 70.017 583.401 69.897C583.329 69.771 583.242 69.663 583.14 69.573C583.044 69.477 582.927 69.402 582.789 69.348C582.657 69.294 582.495 69.267 582.303 69.267C581.805 69.267 581.433 69.456 581.187 69.834C580.947 70.212 580.827 70.716 580.827 71.346V72.372C580.827 73.002 580.947 73.506 581.187 73.884C581.433 74.262 581.805 74.451 582.303 74.451C582.495 74.451 582.657 74.424 582.789 74.37C582.927 74.316 583.044 74.244 583.14 74.154C583.242 74.058 583.329 73.95 583.401 73.83C583.473 73.704 583.536 73.572 583.59 73.434L584.238 73.731C584.16 73.905 584.07 74.073 583.968 74.235C583.866 74.397 583.74 74.544 583.59 74.676C583.44 74.808 583.26 74.913 583.05 74.991C582.84 75.069 582.591 75.108 582.303 75.108ZM562.266 87C561.984 87 561.783 86.928 561.663 86.784C561.543 86.64 561.468 86.46 561.438 86.244H561.393C561.291 86.514 561.126 86.727 560.898 86.883C560.676 87.033 560.376 87.108 559.998 87.108C559.512 87.108 559.125 86.982 558.837 86.73C558.549 86.478 558.405 86.133 558.405 85.695C558.405 85.263 558.561 84.93 558.873 84.696C559.191 84.462 559.701 84.345 560.403 84.345H561.393V83.886C561.393 83.544 561.297 83.289 561.105 83.121C560.913 82.947 560.64 82.86 560.286 82.86C559.974 82.86 559.719 82.923 559.521 83.049C559.323 83.169 559.164 83.334 559.044 83.544L558.558 83.184C558.618 83.064 558.699 82.947 558.801 82.833C558.903 82.719 559.029 82.62 559.179 82.536C559.329 82.446 559.5 82.377 559.692 82.329C559.884 82.275 560.097 82.248 560.331 82.248C560.877 82.248 561.309 82.386 561.627 82.662C561.951 82.938 562.113 83.322 562.113 83.814V86.37H562.761V87H562.266ZM560.124 86.505C560.31 86.505 560.478 86.484 560.628 86.442C560.784 86.394 560.919 86.334 561.033 86.262C561.147 86.184 561.234 86.094 561.294 85.992C561.36 85.884 561.393 85.77 561.393 85.65V84.885H560.403C559.971 84.885 559.656 84.945 559.458 85.065C559.26 85.185 559.161 85.359 559.161 85.587V85.776C559.161 86.016 559.245 86.199 559.413 86.325C559.587 86.445 559.824 86.505 560.124 86.505ZM564.062 80.34H564.782V83.112H564.818C565.118 82.536 565.595 82.248 566.249 82.248C566.819 82.248 567.263 82.461 567.581 82.887C567.905 83.313 568.067 83.91 568.067 84.678C568.067 85.446 567.905 86.043 567.581 86.469C567.263 86.895 566.819 87.108 566.249 87.108C565.595 87.108 565.118 86.82 564.818 86.244H564.782V87H564.062V80.34ZM565.97 86.469C566.39 86.469 566.714 86.343 566.942 86.091C567.176 85.833 567.293 85.494 567.293 85.074V84.282C567.293 83.862 567.176 83.526 566.942 83.274C566.714 83.016 566.39 82.887 565.97 82.887C565.808 82.887 565.655 82.908 565.511 82.95C565.367 82.992 565.241 83.055 565.133 83.139C565.025 83.217 564.938 83.316 564.872 83.436C564.812 83.55 564.782 83.685 564.782 83.841V85.515C564.782 85.671 564.812 85.809 564.872 85.929C564.938 86.043 565.025 86.142 565.133 86.226C565.241 86.304 565.367 86.364 565.511 86.406C565.655 86.448 565.808 86.469 565.97 86.469ZM571.466 87.108C571.13 87.108 570.83 87.051 570.566 86.937C570.308 86.817 570.089 86.652 569.909 86.442C569.729 86.232 569.591 85.977 569.495 85.677C569.405 85.377 569.36 85.044 569.36 84.678C569.36 84.312 569.408 83.979 569.504 83.679C569.6 83.379 569.738 83.124 569.918 82.914C570.098 82.698 570.317 82.533 570.575 82.419C570.833 82.305 571.127 82.248 571.457 82.248C571.907 82.248 572.273 82.347 572.555 82.545C572.837 82.743 573.044 83.001 573.176 83.319L572.6 83.625C572.516 83.385 572.375 83.199 572.177 83.067C571.985 82.935 571.745 82.869 571.457 82.869C571.247 82.869 571.058 82.905 570.89 82.977C570.728 83.043 570.59 83.139 570.476 83.265C570.362 83.391 570.275 83.541 570.215 83.715C570.161 83.889 570.134 84.078 570.134 84.282V85.074C570.134 85.278 570.161 85.467 570.215 85.641C570.275 85.815 570.362 85.965 570.476 86.091C570.59 86.217 570.731 86.316 570.899 86.388C571.067 86.454 571.259 86.487 571.475 86.487C571.787 86.487 572.045 86.415 572.249 86.271C572.453 86.127 572.615 85.929 572.735 85.677L573.248 86.028C573.11 86.34 572.894 86.598 572.6 86.802C572.312 87.006 571.934 87.108 571.466 87.108ZM574.765 87V86.343H576.565V81.276H576.502L574.918 82.752L574.477 82.275L576.142 80.718H577.321V86.343H578.977V87H574.765ZM584.229 87H580.035V86.226L582.132 84.336C582.438 84.06 582.69 83.778 582.888 83.49C583.086 83.196 583.185 82.887 583.185 82.563V82.455C583.185 82.077 583.086 81.786 582.888 81.582C582.69 81.372 582.396 81.267 582.006 81.267C581.622 81.267 581.325 81.366 581.115 81.564C580.911 81.756 580.758 82.014 580.656 82.338L579.981 82.086C580.041 81.9 580.122 81.72 580.224 81.546C580.332 81.366 580.467 81.207 580.629 81.069C580.791 80.931 580.986 80.82 581.214 80.736C581.448 80.652 581.718 80.61 582.024 80.61C582.336 80.61 582.612 80.655 582.852 80.745C583.098 80.835 583.302 80.961 583.464 81.123C583.632 81.285 583.758 81.477 583.842 81.699C583.932 81.921 583.977 82.164 583.977 82.428C583.977 82.668 583.941 82.893 583.869 83.103C583.803 83.313 583.707 83.514 583.581 83.706C583.461 83.898 583.314 84.087 583.14 84.273C582.972 84.453 582.783 84.633 582.573 84.813L580.818 86.343H584.229V87ZM587.223 83.382C587.661 83.382 587.988 83.286 588.204 83.094C588.426 82.896 588.537 82.644 588.537 82.338V82.275C588.537 81.939 588.429 81.687 588.213 81.519C588.003 81.351 587.727 81.267 587.385 81.267C587.049 81.267 586.776 81.342 586.566 81.492C586.362 81.636 586.194 81.828 586.062 82.068L585.495 81.636C585.573 81.51 585.669 81.387 585.783 81.267C585.897 81.141 586.029 81.03 586.179 80.934C586.335 80.838 586.512 80.76 586.71 80.7C586.914 80.64 587.145 80.61 587.403 80.61C587.673 80.61 587.925 80.646 588.159 80.718C588.393 80.784 588.597 80.886 588.771 81.024C588.945 81.156 589.08 81.321 589.176 81.519C589.278 81.717 589.329 81.942 589.329 82.194C589.329 82.398 589.296 82.581 589.23 82.743C589.17 82.905 589.083 83.046 588.969 83.166C588.861 83.286 588.732 83.388 588.582 83.472C588.432 83.556 588.273 83.619 588.105 83.661V83.697C588.279 83.733 588.447 83.793 588.609 83.877C588.771 83.955 588.915 84.06 589.041 84.192C589.167 84.318 589.266 84.474 589.338 84.66C589.416 84.84 589.455 85.047 589.455 85.281C589.455 85.551 589.401 85.8 589.293 86.028C589.191 86.25 589.044 86.442 588.852 86.604C588.666 86.76 588.438 86.883 588.168 86.973C587.904 87.063 587.61 87.108 587.286 87.108C587.01 87.108 586.764 87.078 586.548 87.018C586.338 86.958 586.149 86.877 585.981 86.775C585.819 86.673 585.675 86.559 585.549 86.433C585.429 86.307 585.321 86.175 585.225 86.037L585.792 85.605C585.876 85.731 585.963 85.845 586.053 85.947C586.143 86.049 586.245 86.139 586.359 86.217C586.479 86.289 586.614 86.346 586.764 86.388C586.914 86.43 587.088 86.451 587.286 86.451C587.73 86.451 588.069 86.349 588.303 86.145C588.543 85.941 588.663 85.65 588.663 85.272V85.2C588.663 84.828 588.546 84.54 588.312 84.336C588.084 84.132 587.739 84.03 587.277 84.03H586.53V83.382H587.223Z" fill="black"/>
<rect x="502" y="11" width="144" height="103" rx="5" stroke="#FFA629" stroke-width="2"/>
<defs>
<clipPath id="clip0_8_431">
<rect width="20" height="16" fill="white" transform="translate(55 54.5)"/>
</clipPath>
<clipPath id="clip1_8_431">
<rect width="20" height="16" fill="white" transform="translate(187 54.5)"/>
</clipPath>
<clipPath id="clip2_8_431">
<rect width="20" height="16" fill="white" transform="translate(347 54.5)"/>
</clipPath>
<clipPath id="clip3_8_431">
<rect width="20" height="16" fill="white" transform="translate(479 54.5)"/>
</clipPath>
</defs>
</svg>
