<svg width="675" height="137" viewBox="0 0 675 137" fill="none" xmlns="http://www.w3.org/2000/svg">
<rect x="10" y="51.5" width="43" height="34" rx="6" fill="white" fill-opacity="0.9"/>
<path d="M21.517 65.5V59.218H23.803C24.385 59.218 24.829 59.377 25.135 59.695C25.441 60.013 25.594 60.457 25.594 61.027C25.594 61.597 25.441 62.041 25.135 62.359C24.829 62.677 24.385 62.836 23.803 62.836H22.273V65.5H21.517ZM22.273 62.179H23.785C24.103 62.179 24.349 62.101 24.523 61.945C24.703 61.783 24.793 61.555 24.793 61.261V60.793C24.793 60.499 24.703 60.274 24.523 60.118C24.349 59.956 24.103 59.875 23.785 59.875H22.273V62.179ZM29.1815 59.875V65.5H28.4255V59.875H26.3285V59.218H31.2785V59.875H29.1815ZM32.58 65.5V59.218H33.336V64.843H36.315V65.5H32.58ZM39.8035 65.608C39.0355 65.608 38.4625 65.329 38.0845 64.771C37.7125 64.213 37.5265 63.409 37.5265 62.359C37.5265 61.309 37.7125 60.505 38.0845 59.947C38.4625 59.389 39.0355 59.11 39.8035 59.11C40.0915 59.11 40.3405 59.149 40.5505 59.227C40.7605 59.305 40.9405 59.41 41.0905 59.542C41.2405 59.674 41.3665 59.824 41.4685 59.992C41.5705 60.154 41.6605 60.319 41.7385 60.487L41.0905 60.784C41.0365 60.646 40.9735 60.517 40.9015 60.397C40.8295 60.271 40.7425 60.163 40.6405 60.073C40.5445 59.977 40.4275 59.902 40.2895 59.848C40.1575 59.794 39.9955 59.767 39.8035 59.767C39.3055 59.767 38.9335 59.956 38.6875 60.334C38.4475 60.712 38.3275 61.216 38.3275 61.846V62.872C38.3275 63.502 38.4475 64.006 38.6875 64.384C38.9335 64.762 39.3055 64.951 39.8035 64.951C39.9955 64.951 40.1575 64.924 40.2895 64.87C40.4275 64.816 40.5445 64.744 40.6405 64.654C40.7425 64.558 40.8295 64.45 40.9015 64.33C40.9735 64.204 41.0365 64.072 41.0905 63.934L41.7385 64.231C41.6605 64.405 41.5705 64.573 41.4685 64.735C41.3665 64.897 41.2405 65.044 41.0905 65.176C40.9405 65.308 40.7605 65.413 40.5505 65.491C40.3405 65.569 40.0915 65.608 39.8035 65.608ZM19.7655 77.5C19.4835 77.5 19.2825 77.428 19.1625 77.284C19.0425 77.14 18.9675 76.96 18.9375 76.744H18.8925C18.7905 77.014 18.6255 77.227 18.3975 77.383C18.1755 77.533 17.8755 77.608 17.4975 77.608C17.0115 77.608 16.6245 77.482 16.3365 77.23C16.0485 76.978 15.9045 76.633 15.9045 76.195C15.9045 75.763 16.0605 75.43 16.3725 75.196C16.6905 74.962 17.2005 74.845 17.9025 74.845H18.8925V74.386C18.8925 74.044 18.7965 73.789 18.6045 73.621C18.4125 73.447 18.1395 73.36 17.7855 73.36C17.4735 73.36 17.2185 73.423 17.0205 73.549C16.8225 73.669 16.6635 73.834 16.5435 74.044L16.0575 73.684C16.1175 73.564 16.1985 73.447 16.3005 73.333C16.4025 73.219 16.5285 73.12 16.6785 73.036C16.8285 72.946 16.9995 72.877 17.1915 72.829C17.3835 72.775 17.5965 72.748 17.8305 72.748C18.3765 72.748 18.8085 72.886 19.1265 73.162C19.4505 73.438 19.6125 73.822 19.6125 74.314V76.87H20.2605V77.5H19.7655ZM17.6235 77.005C17.8095 77.005 17.9775 76.984 18.1275 76.942C18.2835 76.894 18.4185 76.834 18.5325 76.762C18.6465 76.684 18.7335 76.594 18.7935 76.492C18.8595 76.384 18.8925 76.27 18.8925 76.15V75.385H17.9025C17.4705 75.385 17.1555 75.445 16.9575 75.565C16.7595 75.685 16.6605 75.859 16.6605 76.087V76.276C16.6605 76.516 16.7445 76.699 16.9125 76.825C17.0865 76.945 17.3235 77.005 17.6235 77.005ZM21.562 70.84H22.282V73.612H22.318C22.618 73.036 23.095 72.748 23.749 72.748C24.319 72.748 24.763 72.961 25.081 73.387C25.405 73.813 25.567 74.41 25.567 75.178C25.567 75.946 25.405 76.543 25.081 76.969C24.763 77.395 24.319 77.608 23.749 77.608C23.095 77.608 22.618 77.32 22.318 76.744H22.282V77.5H21.562V70.84ZM23.47 76.969C23.89 76.969 24.214 76.843 24.442 76.591C24.676 76.333 24.793 75.994 24.793 75.574V74.782C24.793 74.362 24.676 74.026 24.442 73.774C24.214 73.516 23.89 73.387 23.47 73.387C23.308 73.387 23.155 73.408 23.011 73.45C22.867 73.492 22.741 73.555 22.633 73.639C22.525 73.717 22.438 73.816 22.372 73.936C22.312 74.05 22.282 74.185 22.282 74.341V76.015C22.282 76.171 22.312 76.309 22.372 76.429C22.438 76.543 22.525 76.642 22.633 76.726C22.741 76.804 22.867 76.864 23.011 76.906C23.155 76.948 23.308 76.969 23.47 76.969ZM28.9655 77.608C28.6295 77.608 28.3295 77.551 28.0655 77.437C27.8075 77.317 27.5885 77.152 27.4085 76.942C27.2285 76.732 27.0905 76.477 26.9945 76.177C26.9045 75.877 26.8595 75.544 26.8595 75.178C26.8595 74.812 26.9075 74.479 27.0035 74.179C27.0995 73.879 27.2375 73.624 27.4175 73.414C27.5975 73.198 27.8165 73.033 28.0745 72.919C28.3325 72.805 28.6265 72.748 28.9565 72.748C29.4065 72.748 29.7725 72.847 30.0545 73.045C30.3365 73.243 30.5435 73.501 30.6755 73.819L30.0995 74.125C30.0155 73.885 29.8745 73.699 29.6765 73.567C29.4845 73.435 29.2445 73.369 28.9565 73.369C28.7465 73.369 28.5575 73.405 28.3895 73.477C28.2275 73.543 28.0895 73.639 27.9755 73.765C27.8615 73.891 27.7745 74.041 27.7145 74.215C27.6605 74.389 27.6335 74.578 27.6335 74.782V75.574C27.6335 75.778 27.6605 75.967 27.7145 76.141C27.7745 76.315 27.8615 76.465 27.9755 76.591C28.0895 76.717 28.2305 76.816 28.3985 76.888C28.5665 76.954 28.7585 76.987 28.9745 76.987C29.2865 76.987 29.5445 76.915 29.7485 76.771C29.9525 76.627 30.1145 76.429 30.2345 76.177L30.7475 76.528C30.6095 76.84 30.3935 77.098 30.0995 77.302C29.8115 77.506 29.4335 77.608 28.9655 77.608ZM32.265 77.5V76.843H34.065V71.776H34.002L32.418 73.252L31.977 72.775L33.642 71.218H34.821V76.843H36.477V77.5H32.265ZM41.7295 77.5H37.5355V76.726L39.6325 74.836C39.9385 74.56 40.1905 74.278 40.3885 73.99C40.5865 73.696 40.6855 73.387 40.6855 73.063V72.955C40.6855 72.577 40.5865 72.286 40.3885 72.082C40.1905 71.872 39.8965 71.767 39.5065 71.767C39.1225 71.767 38.8255 71.866 38.6155 72.064C38.4115 72.256 38.2585 72.514 38.1565 72.838L37.4815 72.586C37.5415 72.4 37.6225 72.22 37.7245 72.046C37.8325 71.866 37.9675 71.707 38.1295 71.569C38.2915 71.431 38.4865 71.32 38.7145 71.236C38.9485 71.152 39.2185 71.11 39.5245 71.11C39.8365 71.11 40.1125 71.155 40.3525 71.245C40.5985 71.335 40.8025 71.461 40.9645 71.623C41.1325 71.785 41.2585 71.977 41.3425 72.199C41.4325 72.421 41.4775 72.664 41.4775 72.928C41.4775 73.168 41.4415 73.393 41.3695 73.603C41.3035 73.813 41.2075 74.014 41.0815 74.206C40.9615 74.398 40.8145 74.587 40.6405 74.773C40.4725 74.953 40.2835 75.133 40.0735 75.313L38.3185 76.843H41.7295V77.5ZM44.723 73.882C45.161 73.882 45.488 73.786 45.704 73.594C45.926 73.396 46.037 73.144 46.037 72.838V72.775C46.037 72.439 45.929 72.187 45.713 72.019C45.503 71.851 45.227 71.767 44.885 71.767C44.549 71.767 44.276 71.842 44.066 71.992C43.862 72.136 43.694 72.328 43.562 72.568L42.995 72.136C43.073 72.01 43.169 71.887 43.283 71.767C43.397 71.641 43.529 71.53 43.679 71.434C43.835 71.338 44.012 71.26 44.21 71.2C44.414 71.14 44.645 71.11 44.903 71.11C45.173 71.11 45.425 71.146 45.659 71.218C45.893 71.284 46.097 71.386 46.271 71.524C46.445 71.656 46.58 71.821 46.676 72.019C46.778 72.217 46.829 72.442 46.829 72.694C46.829 72.898 46.796 73.081 46.73 73.243C46.67 73.405 46.583 73.546 46.469 73.666C46.361 73.786 46.232 73.888 46.082 73.972C45.932 74.056 45.773 74.119 45.605 74.161V74.197C45.779 74.233 45.947 74.293 46.109 74.377C46.271 74.455 46.415 74.56 46.541 74.692C46.667 74.818 46.766 74.974 46.838 75.16C46.916 75.34 46.955 75.547 46.955 75.781C46.955 76.051 46.901 76.3 46.793 76.528C46.691 76.75 46.544 76.942 46.352 77.104C46.166 77.26 45.938 77.383 45.668 77.473C45.404 77.563 45.11 77.608 44.786 77.608C44.51 77.608 44.264 77.578 44.048 77.518C43.838 77.458 43.649 77.377 43.481 77.275C43.319 77.173 43.175 77.059 43.049 76.933C42.929 76.807 42.821 76.675 42.725 76.537L43.292 76.105C43.376 76.231 43.463 76.345 43.553 76.447C43.643 76.549 43.745 76.639 43.859 76.717C43.979 76.789 44.114 76.846 44.264 76.888C44.414 76.93 44.588 76.951 44.786 76.951C45.23 76.951 45.569 76.849 45.803 76.645C46.043 76.441 46.163 76.15 46.163 75.772V75.7C46.163 75.328 46.046 75.04 45.812 74.836C45.584 74.632 45.239 74.53 44.777 74.53H44.03V73.882H44.723Z" fill="black"/>
<g clip-path="url(#clip0_8_523)">
<path d="M74.8738 69.2071C75.2643 68.8166 75.2643 68.1834 74.8738 67.7929L68.5098 61.4289C68.1193 61.0384 67.4861 61.0384 67.0956 61.4289C66.7051 61.8195 66.7051 62.4526 67.0956 62.8431L72.7525 68.5L67.0956 74.1569C66.7051 74.5474 66.7051 75.1805 67.0956 75.5711C67.4861 75.9616 68.1193 75.9616 68.5098 75.5711L74.8738 69.2071ZM55 69.5H74.1667V67.5H55V69.5Z" fill="#ADADAD"/>
</g>
<rect x="78" y="17" width="106" height="103" rx="5" fill="#FDE4DE"/>
<path d="M98.8299 41.832H102.622C103.582 41.832 104.334 42.0933 104.878 42.616C105.422 43.1387 105.694 43.8373 105.694 44.712C105.694 45.384 105.529 45.912 105.198 46.296C104.878 46.68 104.462 46.952 103.95 47.112V47.16C104.579 47.3093 105.097 47.592 105.502 48.008C105.907 48.4133 106.11 49.0053 106.11 49.784C106.11 50.232 106.035 50.6533 105.886 51.048C105.737 51.4427 105.523 51.784 105.246 52.072C104.979 52.36 104.659 52.5893 104.286 52.76C103.923 52.92 103.529 53 103.102 53H98.8299V41.832ZM102.702 51.832C103.321 51.832 103.806 51.6933 104.158 51.416C104.51 51.1387 104.686 50.712 104.686 50.136V49.48C104.686 48.9147 104.51 48.4933 104.158 48.216C103.806 47.928 103.321 47.784 102.702 47.784H100.174V51.832H102.702ZM102.478 46.68C103.043 46.68 103.486 46.5573 103.806 46.312C104.126 46.056 104.286 45.672 104.286 45.16V44.536C104.286 44.024 104.126 43.64 103.806 43.384C103.486 43.128 103.043 43 102.478 43H100.174V46.68H102.478ZM114.936 53C114.434 53 114.077 52.872 113.864 52.616C113.65 52.36 113.517 52.04 113.464 51.656H113.384C113.202 52.136 112.909 52.5147 112.504 52.792C112.109 53.0587 111.576 53.192 110.904 53.192C110.04 53.192 109.352 52.968 108.84 52.52C108.328 52.072 108.072 51.4587 108.072 50.68C108.072 49.912 108.349 49.32 108.904 48.904C109.469 48.488 110.376 48.28 111.624 48.28H113.384V47.464C113.384 46.856 113.213 46.4027 112.872 46.104C112.53 45.7947 112.045 45.64 111.416 45.64C110.861 45.64 110.408 45.752 110.056 45.976C109.704 46.1893 109.421 46.4827 109.208 46.856L108.344 46.216C108.45 46.0027 108.594 45.7947 108.776 45.592C108.957 45.3893 109.181 45.2133 109.448 45.064C109.714 44.904 110.018 44.7813 110.36 44.696C110.701 44.6 111.08 44.552 111.496 44.552C112.466 44.552 113.234 44.7973 113.8 45.288C114.376 45.7787 114.664 46.4613 114.664 47.336V51.88H115.816V53H114.936ZM111.128 52.12C111.458 52.12 111.757 52.0827 112.024 52.008C112.301 51.9227 112.541 51.816 112.744 51.688C112.946 51.5493 113.101 51.3893 113.208 51.208C113.325 51.016 113.384 50.8133 113.384 50.6V49.24H111.624C110.856 49.24 110.296 49.3467 109.944 49.56C109.592 49.7733 109.416 50.0827 109.416 50.488V50.824C109.416 51.2507 109.565 51.576 109.864 51.8C110.173 52.0133 110.594 52.12 111.128 52.12ZM123.409 51.656H123.345C122.812 52.68 121.964 53.192 120.801 53.192C119.788 53.192 118.993 52.8133 118.417 52.056C117.852 51.2987 117.569 50.2373 117.569 48.872C117.569 47.5067 117.852 46.4453 118.417 45.688C118.993 44.9307 119.788 44.552 120.801 44.552C121.964 44.552 122.812 45.064 123.345 46.088H123.409V41.16H124.689V53H123.409V51.656ZM121.297 52.056C121.585 52.056 121.857 52.0187 122.113 51.944C122.369 51.8693 122.593 51.7627 122.785 51.624C122.977 51.4747 123.127 51.2987 123.233 51.096C123.351 50.8827 123.409 50.6373 123.409 50.36V47.384C123.409 47.1067 123.351 46.8667 123.233 46.664C123.127 46.4507 122.977 46.2747 122.785 46.136C122.593 45.9867 122.369 45.8747 122.113 45.8C121.857 45.7253 121.585 45.688 121.297 45.688C120.551 45.688 119.969 45.9173 119.553 46.376C119.148 46.824 118.945 47.4213 118.945 48.168V49.576C118.945 50.3227 119.148 50.9253 119.553 51.384C119.969 51.832 120.551 52.056 121.297 52.056ZM144.773 53.944C144.773 54.776 144.426 55.3893 143.733 55.784C143.04 56.1893 142 56.392 140.613 56.392C139.28 56.392 138.32 56.216 137.733 55.864C137.157 55.512 136.869 55.0053 136.869 54.344C136.869 53.896 136.986 53.5493 137.221 53.304C137.456 53.0587 137.786 52.8773 138.213 52.76V52.568C137.978 52.4507 137.797 52.3013 137.669 52.12C137.541 51.9387 137.477 51.7093 137.477 51.432C137.477 51.0053 137.616 50.6853 137.893 50.472C138.181 50.2587 138.538 50.0987 138.965 49.992V49.928C138.453 49.704 138.053 49.3733 137.765 48.936C137.488 48.4987 137.349 47.9867 137.349 47.4C137.349 46.984 137.424 46.6 137.573 46.248C137.722 45.896 137.936 45.5973 138.213 45.352C138.501 45.096 138.842 44.8987 139.237 44.76C139.632 44.6213 140.069 44.552 140.549 44.552C141.168 44.552 141.712 44.664 142.181 44.888V44.744C142.181 44.424 142.256 44.1573 142.405 43.944C142.554 43.7307 142.81 43.624 143.173 43.624H144.693V44.744H142.837V45.304C143.136 45.56 143.365 45.864 143.525 46.216C143.685 46.568 143.765 46.9627 143.765 47.4C143.765 47.816 143.685 48.2 143.525 48.552C143.376 48.904 143.162 49.208 142.885 49.464C142.608 49.7093 142.266 49.9013 141.861 50.04C141.466 50.1787 141.029 50.248 140.549 50.248C140.41 50.248 140.277 50.2427 140.149 50.232C140.021 50.2213 139.893 50.2053 139.765 50.184C139.637 50.2053 139.504 50.2427 139.365 50.296C139.226 50.3387 139.098 50.4027 138.981 50.488C138.864 50.5627 138.768 50.6533 138.693 50.76C138.618 50.8667 138.581 50.9893 138.581 51.128C138.581 51.3733 138.704 51.5387 138.949 51.624C139.194 51.6987 139.514 51.736 139.909 51.736H141.733C142.8 51.736 143.573 51.9387 144.053 52.344C144.533 52.7387 144.773 53.272 144.773 53.944ZM143.573 54.008C143.573 53.6773 143.44 53.4107 143.173 53.208C142.906 53.016 142.442 52.92 141.781 52.92H138.917C138.362 53.144 138.085 53.5173 138.085 54.04C138.085 54.4027 138.229 54.712 138.517 54.968C138.805 55.2347 139.285 55.368 139.957 55.368H141.205C141.952 55.368 142.533 55.2507 142.949 55.016C143.365 54.792 143.573 54.456 143.573 54.008ZM140.549 49.256C141.189 49.256 141.658 49.1067 141.957 48.808C142.266 48.5093 142.421 48.1147 142.421 47.624V47.16C142.421 46.6693 142.266 46.28 141.957 45.992C141.658 45.6933 141.189 45.544 140.549 45.544C139.909 45.544 139.44 45.6933 139.141 45.992C138.842 46.28 138.693 46.6693 138.693 47.16V47.624C138.693 48.1147 138.842 48.5093 139.141 48.808C139.44 49.1067 139.909 49.256 140.549 49.256ZM152.143 51.656H152.079C151.993 51.8587 151.887 52.056 151.759 52.248C151.631 52.4293 151.471 52.5893 151.279 52.728C151.097 52.8667 150.879 52.9787 150.623 53.064C150.367 53.1493 150.068 53.192 149.727 53.192C148.863 53.192 148.169 52.92 147.647 52.376C147.124 51.8213 146.863 51.0427 146.863 50.04V44.744H148.143V49.816C148.143 50.5733 148.308 51.1387 148.639 51.512C148.969 51.8747 149.455 52.056 150.095 52.056C150.351 52.056 150.601 52.024 150.847 51.96C151.092 51.896 151.311 51.8 151.503 51.672C151.695 51.544 151.849 51.384 151.967 51.192C152.084 50.9893 152.143 50.7493 152.143 50.472V44.744H153.423V53H152.143V51.656ZM162.456 44.744H163.736L159.64 54.808C159.544 55.0427 159.438 55.2453 159.32 55.416C159.203 55.5973 159.064 55.7413 158.904 55.848C158.744 55.9653 158.552 56.0507 158.328 56.104C158.104 56.168 157.838 56.2 157.528 56.2H156.312V55.112H158.232L159.16 52.84L155.832 44.744H157.144L158.536 48.2L159.768 51.336H159.832L161.064 48.2L162.456 44.744Z" fill="black"/>
<rect x="109.5" y="67" width="43" height="34" rx="6" fill="url(#paint0_linear_8_523)" fill-opacity="0.9"/>
<rect x="109.5" y="67" width="43" height="34" rx="6" fill="white" fill-opacity="0.9"/>
<path d="M121.017 81V74.718H123.303C123.885 74.718 124.329 74.877 124.635 75.195C124.941 75.513 125.094 75.957 125.094 76.527C125.094 77.097 124.941 77.541 124.635 77.859C124.329 78.177 123.885 78.336 123.303 78.336H121.773V81H121.017ZM121.773 77.679H123.285C123.603 77.679 123.849 77.601 124.023 77.445C124.203 77.283 124.293 77.055 124.293 76.761V76.293C124.293 75.999 124.203 75.774 124.023 75.618C123.849 75.456 123.603 75.375 123.285 75.375H121.773V77.679ZM128.682 75.375V81H127.926V75.375H125.829V74.718H130.779V75.375H128.682ZM132.08 81V74.718H132.836V80.343H135.815V81H132.08ZM139.303 81.108C138.535 81.108 137.962 80.829 137.584 80.271C137.212 79.713 137.026 78.909 137.026 77.859C137.026 76.809 137.212 76.005 137.584 75.447C137.962 74.889 138.535 74.61 139.303 74.61C139.591 74.61 139.84 74.649 140.05 74.727C140.26 74.805 140.44 74.91 140.59 75.042C140.74 75.174 140.866 75.324 140.968 75.492C141.07 75.654 141.16 75.819 141.238 75.987L140.59 76.284C140.536 76.146 140.473 76.017 140.401 75.897C140.329 75.771 140.242 75.663 140.14 75.573C140.044 75.477 139.927 75.402 139.789 75.348C139.657 75.294 139.495 75.267 139.303 75.267C138.805 75.267 138.433 75.456 138.187 75.834C137.947 76.212 137.827 76.716 137.827 77.346V78.372C137.827 79.002 137.947 79.506 138.187 79.884C138.433 80.262 138.805 80.451 139.303 80.451C139.495 80.451 139.657 80.424 139.789 80.37C139.927 80.316 140.044 80.244 140.14 80.154C140.242 80.058 140.329 79.95 140.401 79.83C140.473 79.704 140.536 79.572 140.59 79.434L141.238 79.731C141.16 79.905 141.07 80.073 140.968 80.235C140.866 80.397 140.74 80.544 140.59 80.676C140.44 80.808 140.26 80.913 140.05 80.991C139.84 81.069 139.591 81.108 139.303 81.108ZM117.592 93.108C117.256 93.108 116.953 93.051 116.683 92.937C116.419 92.823 116.191 92.661 115.999 92.451C115.813 92.235 115.669 91.98 115.567 91.686C115.465 91.386 115.414 91.053 115.414 90.687C115.414 90.315 115.465 89.979 115.567 89.679C115.675 89.379 115.822 89.124 116.008 88.914C116.194 88.698 116.416 88.533 116.674 88.419C116.938 88.305 117.229 88.248 117.547 88.248C117.859 88.248 118.141 88.305 118.393 88.419C118.651 88.533 118.87 88.692 119.05 88.896C119.23 89.094 119.368 89.331 119.464 89.607C119.56 89.883 119.608 90.186 119.608 90.516V90.858H116.17V91.074C116.17 91.278 116.203 91.467 116.269 91.641C116.335 91.815 116.428 91.965 116.548 92.091C116.674 92.217 116.824 92.316 116.998 92.388C117.178 92.454 117.376 92.487 117.592 92.487C117.904 92.487 118.174 92.415 118.402 92.271C118.63 92.127 118.804 91.929 118.924 91.677L119.455 92.037C119.317 92.349 119.086 92.607 118.762 92.811C118.444 93.009 118.054 93.108 117.592 93.108ZM117.547 88.842C117.349 88.842 117.166 88.878 116.998 88.95C116.83 89.022 116.683 89.121 116.557 89.247C116.437 89.373 116.341 89.523 116.269 89.697C116.203 89.865 116.17 90.051 116.17 90.255V90.318H118.834V90.219C118.834 90.015 118.801 89.829 118.735 89.661C118.675 89.493 118.588 89.349 118.474 89.229C118.366 89.103 118.231 89.007 118.069 88.941C117.913 88.875 117.739 88.842 117.547 88.842ZM122.988 93.108C122.652 93.108 122.349 93.051 122.079 92.937C121.815 92.823 121.587 92.661 121.395 92.451C121.209 92.235 121.065 91.98 120.963 91.686C120.861 91.386 120.81 91.053 120.81 90.687C120.81 90.315 120.861 89.979 120.963 89.679C121.071 89.379 121.218 89.124 121.404 88.914C121.59 88.698 121.812 88.533 122.07 88.419C122.334 88.305 122.625 88.248 122.943 88.248C123.255 88.248 123.537 88.305 123.789 88.419C124.047 88.533 124.266 88.692 124.446 88.896C124.626 89.094 124.764 89.331 124.86 89.607C124.956 89.883 125.004 90.186 125.004 90.516V90.858H121.566V91.074C121.566 91.278 121.599 91.467 121.665 91.641C121.731 91.815 121.824 91.965 121.944 92.091C122.07 92.217 122.22 92.316 122.394 92.388C122.574 92.454 122.772 92.487 122.988 92.487C123.3 92.487 123.57 92.415 123.798 92.271C124.026 92.127 124.2 91.929 124.32 91.677L124.851 92.037C124.713 92.349 124.482 92.607 124.158 92.811C123.84 93.009 123.45 93.108 122.988 93.108ZM122.943 88.842C122.745 88.842 122.562 88.878 122.394 88.95C122.226 89.022 122.079 89.121 121.953 89.247C121.833 89.373 121.737 89.523 121.665 89.697C121.599 89.865 121.566 90.051 121.566 90.255V90.318H124.23V90.219C124.23 90.015 124.197 89.829 124.131 89.661C124.071 89.493 123.984 89.349 123.87 89.229C123.762 89.103 123.627 89.007 123.465 88.941C123.309 88.875 123.135 88.842 122.943 88.842ZM129.807 88.356H130.527L128.223 94.017C128.169 94.149 128.109 94.263 128.043 94.359C127.977 94.461 127.899 94.542 127.809 94.602C127.719 94.668 127.611 94.716 127.485 94.746C127.359 94.782 127.209 94.8 127.035 94.8H126.351V94.188H127.431L127.953 92.91L126.081 88.356H126.819L127.602 90.3L128.295 92.064H128.331L129.024 90.3L129.807 88.356ZM131.765 93V92.343H133.565V87.276H133.502L131.918 88.752L131.477 88.275L133.142 86.718H134.321V92.343H135.977V93H131.765ZM140.221 92.244H140.185C139.885 92.82 139.408 93.108 138.754 93.108C138.184 93.108 137.737 92.895 137.413 92.469C137.095 92.043 136.936 91.446 136.936 90.678C136.936 89.91 137.095 89.313 137.413 88.887C137.737 88.461 138.184 88.248 138.754 88.248C139.408 88.248 139.885 88.536 140.185 89.112H140.221V88.356H140.941V94.8H140.221V92.244ZM139.033 92.469C139.195 92.469 139.348 92.448 139.492 92.406C139.636 92.364 139.762 92.304 139.87 92.226C139.978 92.142 140.062 92.043 140.122 91.929C140.188 91.809 140.221 91.671 140.221 91.515V89.841C140.221 89.685 140.188 89.55 140.122 89.436C140.062 89.316 139.978 89.217 139.87 89.139C139.762 89.055 139.636 88.992 139.492 88.95C139.348 88.908 139.195 88.887 139.033 88.887C138.613 88.887 138.286 89.016 138.052 89.274C137.824 89.526 137.71 89.862 137.71 90.282V91.074C137.71 91.494 137.824 91.833 138.052 92.091C138.286 92.343 138.613 92.469 139.033 92.469ZM142.558 93V92.343H144.358V87.276H144.295L142.711 88.752L142.27 88.275L143.935 86.718H145.114V92.343H146.77V93H142.558Z" fill="black"/>
<rect x="78" y="17" width="106" height="103" rx="5" stroke="#FF0000" stroke-width="2"/>
<g clip-path="url(#clip1_8_523)">
<path d="M206.874 69.2071C207.264 68.8166 207.264 68.1834 206.874 67.7929L200.51 61.4289C200.119 61.0384 199.486 61.0384 199.096 61.4289C198.705 61.8195 198.705 62.4526 199.096 62.8431L204.752 68.5L199.096 74.1569C198.705 74.5474 198.705 75.1805 199.096 75.5711C199.486 75.9616 200.119 75.9616 200.51 75.5711L206.874 69.2071ZM187 69.5H206.167V67.5H187V69.5Z" fill="#ADADAD"/>
</g>
<rect x="210" y="17" width="134" height="103" rx="5" fill="#E5E5E5"/>
<path d="M231.639 43.544H231.527V53H230.311V41.832H232.215L236.023 51.192H236.135V41.832H237.351V53H235.447L231.639 43.544ZM243.425 53.192C242.849 53.192 242.326 53.0907 241.857 52.888C241.398 52.6853 241.004 52.3973 240.673 52.024C240.353 51.64 240.108 51.1867 239.937 50.664C239.766 50.1307 239.681 49.5333 239.681 48.872C239.681 48.2213 239.766 47.6293 239.937 47.096C240.108 46.5627 240.353 46.1093 240.673 45.736C241.004 45.352 241.398 45.0587 241.857 44.856C242.326 44.6533 242.849 44.552 243.425 44.552C244.001 44.552 244.518 44.6533 244.977 44.856C245.446 45.0587 245.841 45.352 246.161 45.736C246.492 46.1093 246.742 46.5627 246.913 47.096C247.084 47.6293 247.169 48.2213 247.169 48.872C247.169 49.5333 247.084 50.1307 246.913 50.664C246.742 51.1867 246.492 51.64 246.161 52.024C245.841 52.3973 245.446 52.6853 244.977 52.888C244.518 53.0907 244.001 53.192 243.425 53.192ZM243.425 52.088C244.14 52.088 244.716 51.8747 245.153 51.448C245.59 51.0213 245.809 50.36 245.809 49.464V48.28C245.809 47.384 245.59 46.7227 245.153 46.296C244.716 45.8693 244.14 45.656 243.425 45.656C242.71 45.656 242.134 45.8693 241.697 46.296C241.26 46.7227 241.041 47.384 241.041 48.28V49.464C241.041 50.36 241.26 51.0213 241.697 51.448C242.134 51.8747 242.71 52.088 243.425 52.088ZM249.451 51.912H251.867V45.832H249.451V44.744H253.147V46.824H253.227C253.397 46.1733 253.717 45.6667 254.187 45.304C254.667 44.9307 255.275 44.744 256.011 44.744H257.163V46.024H255.611C254.875 46.024 254.277 46.2373 253.819 46.664C253.371 47.0907 253.147 47.6507 253.147 48.344V51.912H256.347V53H249.451V51.912ZM258.677 53V44.744H259.861V45.704H259.924C260.053 45.384 260.234 45.112 260.469 44.888C260.703 44.664 261.05 44.552 261.509 44.552C261.989 44.552 262.346 44.6747 262.581 44.92C262.815 45.1547 262.959 45.464 263.013 45.848H263.061C263.21 45.4747 263.423 45.1653 263.701 44.92C263.978 44.6747 264.362 44.552 264.853 44.552C265.525 44.552 265.973 44.7867 266.197 45.256C266.431 45.7253 266.549 46.3973 266.549 47.272V53H265.365V47.48C265.365 46.776 265.29 46.2907 265.141 46.024C265.002 45.7467 264.741 45.608 264.357 45.608C264.015 45.608 263.738 45.72 263.525 45.944C263.311 46.1573 263.205 46.488 263.205 46.936V53H262.021V47.48C262.021 46.776 261.946 46.2907 261.797 46.024C261.658 45.7467 261.402 45.608 261.029 45.608C260.687 45.608 260.405 45.72 260.181 45.944C259.967 46.1573 259.861 46.488 259.861 46.936V53H258.677ZM275.326 53C274.825 53 274.468 52.872 274.254 52.616C274.041 52.36 273.908 52.04 273.854 51.656H273.774C273.593 52.136 273.3 52.5147 272.894 52.792C272.5 53.0587 271.966 53.192 271.294 53.192C270.43 53.192 269.742 52.968 269.23 52.52C268.718 52.072 268.462 51.4587 268.462 50.68C268.462 49.912 268.74 49.32 269.294 48.904C269.86 48.488 270.766 48.28 272.014 48.28H273.774V47.464C273.774 46.856 273.604 46.4027 273.262 46.104C272.921 45.7947 272.436 45.64 271.806 45.64C271.252 45.64 270.798 45.752 270.446 45.976C270.094 46.1893 269.812 46.4827 269.598 46.856L268.734 46.216C268.841 46.0027 268.985 45.7947 269.166 45.592C269.348 45.3893 269.572 45.2133 269.838 45.064C270.105 44.904 270.409 44.7813 270.75 44.696C271.092 44.6 271.47 44.552 271.886 44.552C272.857 44.552 273.625 44.7973 274.19 45.288C274.766 45.7787 275.054 46.4613 275.054 47.336V51.88H276.206V53H275.326ZM271.518 52.12C271.849 52.12 272.148 52.0827 272.414 52.008C272.692 51.9227 272.932 51.816 273.134 51.688C273.337 51.5493 273.492 51.3893 273.598 51.208C273.716 51.016 273.774 50.8133 273.774 50.6V49.24H272.014C271.246 49.24 270.686 49.3467 270.334 49.56C269.982 49.7733 269.806 50.0827 269.806 50.488V50.824C269.806 51.2507 269.956 51.576 270.254 51.8C270.564 52.0133 270.985 52.12 271.518 52.12ZM278.28 51.912H281.16V42.248H278.28V41.16H282.44V51.912H285.32V53H278.28V51.912ZM297.756 41.16H299.036V46.088H299.1C299.185 45.8853 299.292 45.6933 299.42 45.512C299.548 45.32 299.702 45.1547 299.884 45.016C300.076 44.8773 300.3 44.7653 300.556 44.68C300.812 44.5947 301.11 44.552 301.452 44.552C302.316 44.552 303.009 44.8293 303.532 45.384C304.054 45.928 304.316 46.7013 304.316 47.704V53H303.036V47.928C303.036 47.1707 302.87 46.6107 302.54 46.248C302.209 45.8747 301.724 45.688 301.084 45.688C300.828 45.688 300.577 45.72 300.332 45.784C300.086 45.848 299.868 45.944 299.676 46.072C299.484 46.2 299.329 46.3653 299.212 46.568C299.094 46.7707 299.036 47.0053 299.036 47.272V53H297.756V41.16ZM310.581 53.192C310.005 53.192 309.483 53.0907 309.013 52.888C308.555 52.6853 308.16 52.3973 307.829 52.024C307.509 51.64 307.264 51.1867 307.093 50.664C306.923 50.1307 306.837 49.5333 306.837 48.872C306.837 48.2213 306.923 47.6293 307.093 47.096C307.264 46.5627 307.509 46.1093 307.829 45.736C308.16 45.352 308.555 45.0587 309.013 44.856C309.483 44.6533 310.005 44.552 310.581 44.552C311.157 44.552 311.675 44.6533 312.133 44.856C312.603 45.0587 312.997 45.352 313.317 45.736C313.648 46.1093 313.899 46.5627 314.069 47.096C314.24 47.6293 314.325 48.2213 314.325 48.872C314.325 49.5333 314.24 50.1307 314.069 50.664C313.899 51.1867 313.648 51.64 313.317 52.024C312.997 52.3973 312.603 52.6853 312.133 52.888C311.675 53.0907 311.157 53.192 310.581 53.192ZM310.581 52.088C311.296 52.088 311.872 51.8747 312.309 51.448C312.747 51.0213 312.965 50.36 312.965 49.464V48.28C312.965 47.384 312.747 46.7227 312.309 46.296C311.872 45.8693 311.296 45.656 310.581 45.656C309.867 45.656 309.291 45.8693 308.853 46.296C308.416 46.7227 308.197 47.384 308.197 48.28V49.464C308.197 50.36 308.416 51.0213 308.853 51.448C309.291 51.8747 309.867 52.088 310.581 52.088ZM316.895 44.744H318.175V46.088H318.239C318.772 45.064 319.62 44.552 320.783 44.552C321.796 44.552 322.586 44.9307 323.151 45.688C323.727 46.4453 324.015 47.5067 324.015 48.872C324.015 50.2373 323.727 51.2987 323.151 52.056C322.586 52.8133 321.796 53.192 320.783 53.192C319.62 53.192 318.772 52.68 318.239 51.656H318.175V56.2H316.895V44.744ZM320.287 52.056C321.034 52.056 321.61 51.832 322.015 51.384C322.431 50.9253 322.639 50.3227 322.639 49.576V48.168C322.639 47.4213 322.431 46.824 322.015 46.376C321.61 45.9173 321.034 45.688 320.287 45.688C319.999 45.688 319.727 45.7253 319.471 45.8C319.215 45.8747 318.991 45.9867 318.799 46.136C318.607 46.2747 318.452 46.4507 318.335 46.664C318.228 46.8667 318.175 47.1067 318.175 47.384V50.36C318.175 50.6373 318.228 50.8827 318.335 51.096C318.452 51.2987 318.607 51.4747 318.799 51.624C318.991 51.7627 319.215 51.8693 319.471 51.944C319.727 52.0187 319.999 52.056 320.287 52.056Z" fill="black"/>
<rect x="255.5" y="67" width="43" height="34" rx="6" fill="white" fill-opacity="0.9"/>
<path d="M267.017 81V74.718H269.303C269.885 74.718 270.329 74.877 270.635 75.195C270.941 75.513 271.094 75.957 271.094 76.527C271.094 77.097 270.941 77.541 270.635 77.859C270.329 78.177 269.885 78.336 269.303 78.336H267.773V81H267.017ZM267.773 77.679H269.285C269.603 77.679 269.849 77.601 270.023 77.445C270.203 77.283 270.293 77.055 270.293 76.761V76.293C270.293 75.999 270.203 75.774 270.023 75.618C269.849 75.456 269.603 75.375 269.285 75.375H267.773V77.679ZM274.682 75.375V81H273.926V75.375H271.829V74.718H276.779V75.375H274.682ZM278.08 81V74.718H278.836V80.343H281.815V81H278.08ZM285.303 81.108C284.535 81.108 283.962 80.829 283.584 80.271C283.212 79.713 283.026 78.909 283.026 77.859C283.026 76.809 283.212 76.005 283.584 75.447C283.962 74.889 284.535 74.61 285.303 74.61C285.591 74.61 285.84 74.649 286.05 74.727C286.26 74.805 286.44 74.91 286.59 75.042C286.74 75.174 286.866 75.324 286.968 75.492C287.07 75.654 287.16 75.819 287.238 75.987L286.59 76.284C286.536 76.146 286.473 76.017 286.401 75.897C286.329 75.771 286.242 75.663 286.14 75.573C286.044 75.477 285.927 75.402 285.789 75.348C285.657 75.294 285.495 75.267 285.303 75.267C284.805 75.267 284.433 75.456 284.187 75.834C283.947 76.212 283.827 76.716 283.827 77.346V78.372C283.827 79.002 283.947 79.506 284.187 79.884C284.433 80.262 284.805 80.451 285.303 80.451C285.495 80.451 285.657 80.424 285.789 80.37C285.927 80.316 286.044 80.244 286.14 80.154C286.242 80.058 286.329 79.95 286.401 79.83C286.473 79.704 286.536 79.572 286.59 79.434L287.238 79.731C287.16 79.905 287.07 80.073 286.968 80.235C286.866 80.397 286.74 80.544 286.59 80.676C286.44 80.808 286.26 80.913 286.05 80.991C285.84 81.069 285.591 81.108 285.303 81.108ZM261.081 88.356H261.72L262.251 92.37H262.332L263.124 88.356H263.916L264.708 92.37H264.789L265.32 88.356H265.941L265.23 93H264.294L263.556 89.112H263.484L262.728 93H261.792L261.081 88.356ZM268.907 93.108C268.541 93.108 268.22 93.063 267.944 92.973C267.668 92.877 267.437 92.748 267.251 92.586C267.071 92.424 266.933 92.232 266.837 92.01C266.747 91.788 266.702 91.548 266.702 91.29C266.702 90.858 266.819 90.516 267.053 90.264C267.287 90.012 267.596 89.835 267.98 89.733V89.661C267.644 89.547 267.377 89.364 267.179 89.112C266.987 88.854 266.891 88.545 266.891 88.185C266.891 87.705 267.068 87.324 267.422 87.042C267.776 86.754 268.271 86.61 268.907 86.61C269.543 86.61 270.038 86.754 270.392 87.042C270.746 87.324 270.923 87.705 270.923 88.185C270.923 88.545 270.824 88.854 270.626 89.112C270.434 89.364 270.17 89.547 269.834 89.661V89.733C270.218 89.835 270.527 90.012 270.761 90.264C270.995 90.516 271.112 90.858 271.112 91.29C271.112 91.548 271.064 91.788 270.968 92.01C270.878 92.232 270.74 92.424 270.554 92.586C270.368 92.748 270.137 92.877 269.861 92.973C269.591 93.063 269.273 93.108 268.907 93.108ZM268.907 92.469C269.351 92.469 269.699 92.37 269.951 92.172C270.203 91.974 270.329 91.695 270.329 91.335V91.137C270.329 90.777 270.203 90.498 269.951 90.3C269.705 90.102 269.357 90.003 268.907 90.003C268.457 90.003 268.106 90.102 267.854 90.3C267.608 90.498 267.485 90.777 267.485 91.137V91.335C267.485 91.695 267.611 91.974 267.863 92.172C268.115 92.37 268.463 92.469 268.907 92.469ZM268.907 89.391C269.315 89.391 269.624 89.304 269.834 89.13C270.05 88.956 270.158 88.707 270.158 88.383V88.257C270.158 87.933 270.047 87.684 269.825 87.51C269.609 87.336 269.303 87.249 268.907 87.249C268.511 87.249 268.202 87.336 267.98 87.51C267.764 87.684 267.656 87.933 267.656 88.257V88.383C267.656 88.707 267.761 88.956 267.971 89.13C268.187 89.304 268.499 89.391 268.907 89.391ZM275.807 88.356H276.527L274.223 94.017C274.169 94.149 274.109 94.263 274.043 94.359C273.977 94.461 273.899 94.542 273.809 94.602C273.719 94.668 273.611 94.716 273.485 94.746C273.359 94.782 273.209 94.8 273.035 94.8H272.351V94.188H273.431L273.953 92.91L272.081 88.356H272.819L273.602 90.3L274.295 92.064H274.331L275.024 90.3L275.807 88.356ZM281.203 88.356H281.923L279.619 94.017C279.565 94.149 279.505 94.263 279.439 94.359C279.373 94.461 279.295 94.542 279.205 94.602C279.115 94.668 279.007 94.716 278.881 94.746C278.755 94.782 278.605 94.8 278.431 94.8H277.747V94.188H278.827L279.349 92.91L277.477 88.356H278.215L278.998 90.3L279.691 92.064H279.727L280.42 90.3L281.203 88.356ZM284.637 93L282.972 88.356H283.701L284.367 90.3L285.087 92.397H285.123L285.843 90.3L286.509 88.356H287.22L285.555 93H284.637ZM288.648 86.34H289.368V89.112H289.404C289.704 88.536 290.181 88.248 290.835 88.248C291.405 88.248 291.849 88.461 292.167 88.887C292.491 89.313 292.653 89.91 292.653 90.678C292.653 91.446 292.491 92.043 292.167 92.469C291.849 92.895 291.405 93.108 290.835 93.108C290.181 93.108 289.704 92.82 289.404 92.244H289.368V93H288.648V86.34ZM290.556 92.469C290.976 92.469 291.3 92.343 291.528 92.091C291.762 91.833 291.879 91.494 291.879 91.074V90.282C291.879 89.862 291.762 89.526 291.528 89.274C291.3 89.016 290.976 88.887 290.556 88.887C290.394 88.887 290.241 88.908 290.097 88.95C289.953 88.992 289.827 89.055 289.719 89.139C289.611 89.217 289.524 89.316 289.458 89.436C289.398 89.55 289.368 89.685 289.368 89.841V91.515C289.368 91.671 289.398 91.809 289.458 91.929C289.524 92.043 289.611 92.142 289.719 92.226C289.827 92.304 289.953 92.364 290.097 92.406C290.241 92.448 290.394 92.469 290.556 92.469Z" fill="black"/>
<rect x="210" y="17" width="134" height="103" rx="5" stroke="black" stroke-width="2"/>
<g clip-path="url(#clip2_8_523)">
<path d="M366.874 69.2071C367.264 68.8166 367.264 68.1834 366.874 67.7929L360.51 61.4289C360.119 61.0384 359.486 61.0384 359.096 61.4289C358.705 61.8195 358.705 62.4526 359.096 62.8431L364.752 68.5L359.096 74.1569C358.705 74.5474 358.705 75.1805 359.096 75.5711C359.486 75.9616 360.119 75.9616 360.51 75.5711L366.874 69.2071ZM347 69.5H366.167V67.5H347V69.5Z" fill="#ADADAD"/>
</g>
<rect x="370" y="17" width="106" height="103" rx="5" fill="#FDE4DE"/>
<path d="M390.83 41.832H394.622C395.582 41.832 396.334 42.0933 396.878 42.616C397.422 43.1387 397.694 43.8373 397.694 44.712C397.694 45.384 397.529 45.912 397.198 46.296C396.878 46.68 396.462 46.952 395.95 47.112V47.16C396.579 47.3093 397.097 47.592 397.502 48.008C397.907 48.4133 398.11 49.0053 398.11 49.784C398.11 50.232 398.035 50.6533 397.886 51.048C397.737 51.4427 397.523 51.784 397.246 52.072C396.979 52.36 396.659 52.5893 396.286 52.76C395.923 52.92 395.529 53 395.102 53H390.83V41.832ZM394.702 51.832C395.321 51.832 395.806 51.6933 396.158 51.416C396.51 51.1387 396.686 50.712 396.686 50.136V49.48C396.686 48.9147 396.51 48.4933 396.158 48.216C395.806 47.928 395.321 47.784 394.702 47.784H392.174V51.832H394.702ZM394.478 46.68C395.043 46.68 395.486 46.5573 395.806 46.312C396.126 46.056 396.286 45.672 396.286 45.16V44.536C396.286 44.024 396.126 43.64 395.806 43.384C395.486 43.128 395.043 43 394.478 43H392.174V46.68H394.478ZM406.936 53C406.434 53 406.077 52.872 405.864 52.616C405.65 52.36 405.517 52.04 405.464 51.656H405.384C405.202 52.136 404.909 52.5147 404.504 52.792C404.109 53.0587 403.576 53.192 402.904 53.192C402.04 53.192 401.352 52.968 400.84 52.52C400.328 52.072 400.072 51.4587 400.072 50.68C400.072 49.912 400.349 49.32 400.904 48.904C401.469 48.488 402.376 48.28 403.624 48.28H405.384V47.464C405.384 46.856 405.213 46.4027 404.872 46.104C404.53 45.7947 404.045 45.64 403.416 45.64C402.861 45.64 402.408 45.752 402.056 45.976C401.704 46.1893 401.421 46.4827 401.208 46.856L400.344 46.216C400.45 46.0027 400.594 45.7947 400.776 45.592C400.957 45.3893 401.181 45.2133 401.448 45.064C401.714 44.904 402.018 44.7813 402.36 44.696C402.701 44.6 403.08 44.552 403.496 44.552C404.466 44.552 405.234 44.7973 405.8 45.288C406.376 45.7787 406.664 46.4613 406.664 47.336V51.88H407.816V53H406.936ZM403.128 52.12C403.458 52.12 403.757 52.0827 404.024 52.008C404.301 51.9227 404.541 51.816 404.744 51.688C404.946 51.5493 405.101 51.3893 405.208 51.208C405.325 51.016 405.384 50.8133 405.384 50.6V49.24H403.624C402.856 49.24 402.296 49.3467 401.944 49.56C401.592 49.7733 401.416 50.0827 401.416 50.488V50.824C401.416 51.2507 401.565 51.576 401.864 51.8C402.173 52.0133 402.594 52.12 403.128 52.12ZM415.409 51.656H415.345C414.812 52.68 413.964 53.192 412.801 53.192C411.788 53.192 410.993 52.8133 410.417 52.056C409.852 51.2987 409.569 50.2373 409.569 48.872C409.569 47.5067 409.852 46.4453 410.417 45.688C410.993 44.9307 411.788 44.552 412.801 44.552C413.964 44.552 414.812 45.064 415.345 46.088H415.409V41.16H416.689V53H415.409V51.656ZM413.297 52.056C413.585 52.056 413.857 52.0187 414.113 51.944C414.369 51.8693 414.593 51.7627 414.785 51.624C414.977 51.4747 415.127 51.2987 415.233 51.096C415.351 50.8827 415.409 50.6373 415.409 50.36V47.384C415.409 47.1067 415.351 46.8667 415.233 46.664C415.127 46.4507 414.977 46.2747 414.785 46.136C414.593 45.9867 414.369 45.8747 414.113 45.8C413.857 45.7253 413.585 45.688 413.297 45.688C412.551 45.688 411.969 45.9173 411.553 46.376C411.148 46.824 410.945 47.4213 410.945 48.168V49.576C410.945 50.3227 411.148 50.9253 411.553 51.384C411.969 51.832 412.551 52.056 413.297 52.056ZM436.773 53.944C436.773 54.776 436.426 55.3893 435.733 55.784C435.04 56.1893 434 56.392 432.613 56.392C431.28 56.392 430.32 56.216 429.733 55.864C429.157 55.512 428.869 55.0053 428.869 54.344C428.869 53.896 428.986 53.5493 429.221 53.304C429.456 53.0587 429.786 52.8773 430.213 52.76V52.568C429.978 52.4507 429.797 52.3013 429.669 52.12C429.541 51.9387 429.477 51.7093 429.477 51.432C429.477 51.0053 429.616 50.6853 429.893 50.472C430.181 50.2587 430.538 50.0987 430.965 49.992V49.928C430.453 49.704 430.053 49.3733 429.765 48.936C429.488 48.4987 429.349 47.9867 429.349 47.4C429.349 46.984 429.424 46.6 429.573 46.248C429.722 45.896 429.936 45.5973 430.213 45.352C430.501 45.096 430.842 44.8987 431.237 44.76C431.632 44.6213 432.069 44.552 432.549 44.552C433.168 44.552 433.712 44.664 434.181 44.888V44.744C434.181 44.424 434.256 44.1573 434.405 43.944C434.554 43.7307 434.81 43.624 435.173 43.624H436.693V44.744H434.837V45.304C435.136 45.56 435.365 45.864 435.525 46.216C435.685 46.568 435.765 46.9627 435.765 47.4C435.765 47.816 435.685 48.2 435.525 48.552C435.376 48.904 435.162 49.208 434.885 49.464C434.608 49.7093 434.266 49.9013 433.861 50.04C433.466 50.1787 433.029 50.248 432.549 50.248C432.41 50.248 432.277 50.2427 432.149 50.232C432.021 50.2213 431.893 50.2053 431.765 50.184C431.637 50.2053 431.504 50.2427 431.365 50.296C431.226 50.3387 431.098 50.4027 430.981 50.488C430.864 50.5627 430.768 50.6533 430.693 50.76C430.618 50.8667 430.581 50.9893 430.581 51.128C430.581 51.3733 430.704 51.5387 430.949 51.624C431.194 51.6987 431.514 51.736 431.909 51.736H433.733C434.8 51.736 435.573 51.9387 436.053 52.344C436.533 52.7387 436.773 53.272 436.773 53.944ZM435.573 54.008C435.573 53.6773 435.44 53.4107 435.173 53.208C434.906 53.016 434.442 52.92 433.781 52.92H430.917C430.362 53.144 430.085 53.5173 430.085 54.04C430.085 54.4027 430.229 54.712 430.517 54.968C430.805 55.2347 431.285 55.368 431.957 55.368H433.205C433.952 55.368 434.533 55.2507 434.949 55.016C435.365 54.792 435.573 54.456 435.573 54.008ZM432.549 49.256C433.189 49.256 433.658 49.1067 433.957 48.808C434.266 48.5093 434.421 48.1147 434.421 47.624V47.16C434.421 46.6693 434.266 46.28 433.957 45.992C433.658 45.6933 433.189 45.544 432.549 45.544C431.909 45.544 431.44 45.6933 431.141 45.992C430.842 46.28 430.693 46.6693 430.693 47.16V47.624C430.693 48.1147 430.842 48.5093 431.141 48.808C431.44 49.1067 431.909 49.256 432.549 49.256ZM444.143 51.656H444.079C443.993 51.8587 443.887 52.056 443.759 52.248C443.631 52.4293 443.471 52.5893 443.279 52.728C443.097 52.8667 442.879 52.9787 442.623 53.064C442.367 53.1493 442.068 53.192 441.727 53.192C440.863 53.192 440.169 52.92 439.647 52.376C439.124 51.8213 438.863 51.0427 438.863 50.04V44.744H440.143V49.816C440.143 50.5733 440.308 51.1387 440.639 51.512C440.969 51.8747 441.455 52.056 442.095 52.056C442.351 52.056 442.601 52.024 442.847 51.96C443.092 51.896 443.311 51.8 443.503 51.672C443.695 51.544 443.849 51.384 443.967 51.192C444.084 50.9893 444.143 50.7493 444.143 50.472V44.744H445.423V53H444.143V51.656ZM454.456 44.744H455.736L451.64 54.808C451.544 55.0427 451.438 55.2453 451.32 55.416C451.203 55.5973 451.064 55.7413 450.904 55.848C450.744 55.9653 450.552 56.0507 450.328 56.104C450.104 56.168 449.838 56.2 449.528 56.2H448.312V55.112H450.232L451.16 52.84L447.832 44.744H449.144L450.536 48.2L451.768 51.336H451.832L453.064 48.2L454.456 44.744Z" fill="black"/>
<rect x="401.5" y="67" width="43" height="34" rx="6" fill="white" fill-opacity="0.9"/>
<path d="M413.017 81V74.718H415.303C415.885 74.718 416.329 74.877 416.635 75.195C416.941 75.513 417.094 75.957 417.094 76.527C417.094 77.097 416.941 77.541 416.635 77.859C416.329 78.177 415.885 78.336 415.303 78.336H413.773V81H413.017ZM413.773 77.679H415.285C415.603 77.679 415.849 77.601 416.023 77.445C416.203 77.283 416.293 77.055 416.293 76.761V76.293C416.293 75.999 416.203 75.774 416.023 75.618C415.849 75.456 415.603 75.375 415.285 75.375H413.773V77.679ZM420.682 75.375V81H419.926V75.375H417.829V74.718H422.779V75.375H420.682ZM424.08 81V74.718H424.836V80.343H427.815V81H424.08ZM431.303 81.108C430.535 81.108 429.962 80.829 429.584 80.271C429.212 79.713 429.026 78.909 429.026 77.859C429.026 76.809 429.212 76.005 429.584 75.447C429.962 74.889 430.535 74.61 431.303 74.61C431.591 74.61 431.84 74.649 432.05 74.727C432.26 74.805 432.44 74.91 432.59 75.042C432.74 75.174 432.866 75.324 432.968 75.492C433.07 75.654 433.16 75.819 433.238 75.987L432.59 76.284C432.536 76.146 432.473 76.017 432.401 75.897C432.329 75.771 432.242 75.663 432.14 75.573C432.044 75.477 431.927 75.402 431.789 75.348C431.657 75.294 431.495 75.267 431.303 75.267C430.805 75.267 430.433 75.456 430.187 75.834C429.947 76.212 429.827 76.716 429.827 77.346V78.372C429.827 79.002 429.947 79.506 430.187 79.884C430.433 80.262 430.805 80.451 431.303 80.451C431.495 80.451 431.657 80.424 431.789 80.37C431.927 80.316 432.044 80.244 432.14 80.154C432.242 80.058 432.329 79.95 432.401 79.83C432.473 79.704 432.536 79.572 432.59 79.434L433.238 79.731C433.16 79.905 433.07 80.073 432.968 80.235C432.866 80.397 432.74 80.544 432.59 80.676C432.44 80.808 432.26 80.913 432.05 80.991C431.84 81.069 431.591 81.108 431.303 81.108ZM407.558 92.388H409.124V88.968H407.468V88.356H409.124V87.402C409.124 87.09 409.205 86.835 409.367 86.637C409.535 86.439 409.796 86.34 410.15 86.34H411.707V86.952H409.844V88.356H411.707V88.968H409.844V92.388H411.5V93H407.558V92.388ZM415.132 93C414.778 93 414.517 92.901 414.349 92.703C414.187 92.505 414.106 92.25 414.106 91.938V88.968H412.558V88.356H413.71C413.866 88.356 413.974 88.326 414.034 88.266C414.1 88.2 414.133 88.089 414.133 87.933V86.718H414.826V88.356H416.941V88.968H414.826V92.388H416.941V93H415.132ZM422.113 87.375H419.305L419.125 89.778H419.188C419.344 89.568 419.518 89.403 419.71 89.283C419.902 89.157 420.166 89.094 420.502 89.094C420.778 89.094 421.03 89.139 421.258 89.229C421.492 89.313 421.693 89.439 421.861 89.607C422.029 89.775 422.161 89.979 422.257 90.219C422.353 90.453 422.401 90.723 422.401 91.029C422.401 91.335 422.353 91.617 422.257 91.875C422.161 92.127 422.02 92.346 421.834 92.532C421.648 92.712 421.423 92.853 421.159 92.955C420.895 93.057 420.595 93.108 420.259 93.108C419.995 93.108 419.758 93.078 419.548 93.018C419.344 92.958 419.161 92.877 418.999 92.775C418.843 92.673 418.705 92.559 418.585 92.433C418.465 92.307 418.357 92.175 418.261 92.037L418.828 91.605C418.912 91.731 418.996 91.845 419.08 91.947C419.17 92.049 419.272 92.139 419.386 92.217C419.5 92.289 419.629 92.346 419.773 92.388C419.917 92.43 420.085 92.451 420.277 92.451C420.709 92.451 421.039 92.334 421.267 92.1C421.501 91.866 421.618 91.542 421.618 91.128V91.056C421.618 90.642 421.501 90.318 421.267 90.084C421.033 89.85 420.697 89.733 420.259 89.733C419.959 89.733 419.725 89.784 419.557 89.886C419.395 89.988 419.245 90.114 419.107 90.264L418.468 90.174L418.693 86.718H422.113V87.375ZM423.693 92.388H425.052V88.968H423.693V88.356H425.772V89.526H425.817C425.913 89.16 426.093 88.875 426.357 88.671C426.627 88.461 426.969 88.356 427.383 88.356H428.031V89.076H427.158C426.744 89.076 426.408 89.196 426.15 89.436C425.898 89.676 425.772 89.991 425.772 90.381V92.388H427.572V93H423.693V92.388ZM429.143 92.388H430.709V88.968H429.053V88.356H430.709V87.402C430.709 87.09 430.79 86.835 430.952 86.637C431.12 86.439 431.381 86.34 431.735 86.34H433.292V86.952H431.429V88.356H433.292V88.968H431.429V92.388H433.085V93H429.143V92.388ZM434.648 88.356H435.368V89.112H435.404C435.704 88.536 436.181 88.248 436.835 88.248C437.405 88.248 437.849 88.461 438.167 88.887C438.491 89.313 438.653 89.91 438.653 90.678C438.653 91.446 438.491 92.043 438.167 92.469C437.849 92.895 437.405 93.108 436.835 93.108C436.181 93.108 435.704 92.82 435.404 92.244H435.368V94.8H434.648V88.356ZM436.556 92.469C436.976 92.469 437.3 92.343 437.528 92.091C437.762 91.833 437.879 91.494 437.879 91.074V90.282C437.879 89.862 437.762 89.526 437.528 89.274C437.3 89.016 436.976 88.887 436.556 88.887C436.394 88.887 436.241 88.908 436.097 88.95C435.953 88.992 435.827 89.055 435.719 89.139C435.611 89.217 435.524 89.316 435.458 89.436C435.398 89.55 435.368 89.685 435.368 89.841V91.515C435.368 91.671 435.398 91.809 435.458 91.929C435.524 92.043 435.611 92.142 435.719 92.226C435.827 92.304 435.953 92.364 436.097 92.406C436.241 92.448 436.394 92.469 436.556 92.469Z" fill="black"/>
<rect x="370" y="17" width="106" height="103" rx="5" stroke="#FF0000" stroke-width="2"/>
<g clip-path="url(#clip3_8_523)">
<path d="M498.874 69.2071C499.264 68.8166 499.264 68.1834 498.874 67.7929L492.51 61.4289C492.119 61.0384 491.486 61.0384 491.096 61.4289C490.705 61.8195 490.705 62.4526 491.096 62.8431L496.752 68.5L491.096 74.1569C490.705 74.5474 490.705 75.1805 491.096 75.5711C491.486 75.9616 492.119 75.9616 492.51 75.5711L498.874 69.2071ZM479 69.5H498.167V67.5H479V69.5Z" fill="#ADADAD"/>
</g>
<rect x="502" y="11" width="146" height="115" rx="5" fill="#FFF2DF"/>
<path d="M523.754 35.832H526.874C528.24 35.832 529.258 36.3013 529.93 37.24C530.602 38.1787 530.938 39.5707 530.938 41.416C530.938 43.2613 530.602 44.6533 529.93 45.592C529.258 46.5307 528.24 47 526.874 47H523.754V35.832ZM526.81 45.832C527.706 45.832 528.378 45.5227 528.826 44.904C529.285 44.2853 529.514 43.4107 529.514 42.28V40.552C529.514 39.4213 529.285 38.5467 528.826 37.928C528.378 37.3093 527.706 37 526.81 37H525.098V45.832H526.81ZM536.772 47.192C536.175 47.192 535.636 47.0907 535.156 46.888C534.687 46.6853 534.281 46.3973 533.94 46.024C533.609 45.64 533.353 45.1867 533.172 44.664C532.991 44.1307 532.9 43.5387 532.9 42.888C532.9 42.2267 532.991 41.6293 533.172 41.096C533.364 40.5627 533.625 40.1093 533.956 39.736C534.287 39.352 534.681 39.0587 535.14 38.856C535.609 38.6533 536.127 38.552 536.692 38.552C537.247 38.552 537.748 38.6533 538.196 38.856C538.655 39.0587 539.044 39.3413 539.364 39.704C539.684 40.056 539.929 40.4773 540.1 40.968C540.271 41.4587 540.356 41.9973 540.356 42.584V43.192H534.244V43.576C534.244 43.9387 534.303 44.2747 534.42 44.584C534.537 44.8933 534.703 45.16 534.916 45.384C535.14 45.608 535.407 45.784 535.716 45.912C536.036 46.0293 536.388 46.088 536.772 46.088C537.327 46.088 537.807 45.96 538.212 45.704C538.617 45.448 538.927 45.096 539.14 44.648L540.084 45.288C539.839 45.8427 539.428 46.3013 538.852 46.664C538.287 47.016 537.593 47.192 536.772 47.192ZM536.692 39.608C536.34 39.608 536.015 39.672 535.716 39.8C535.417 39.928 535.156 40.104 534.932 40.328C534.719 40.552 534.548 40.8187 534.42 41.128C534.303 41.4267 534.244 41.7573 534.244 42.12V42.232H538.98V42.056C538.98 41.6933 538.921 41.3627 538.804 41.064C538.697 40.7653 538.543 40.5093 538.34 40.296C538.148 40.072 537.908 39.9013 537.62 39.784C537.343 39.6667 537.033 39.608 536.692 39.608ZM546.318 47.192C545.454 47.192 544.707 47.048 544.078 46.76C543.459 46.4613 542.931 46.0667 542.494 45.576L543.358 44.824C543.753 45.24 544.185 45.56 544.654 45.784C545.123 46.008 545.689 46.12 546.35 46.12C546.99 46.12 547.513 46.008 547.918 45.784C548.334 45.5493 548.542 45.1867 548.542 44.696C548.542 44.4827 548.499 44.3067 548.414 44.168C548.339 44.0187 548.233 43.9013 548.094 43.816C547.955 43.7307 547.801 43.6667 547.63 43.624C547.459 43.5707 547.278 43.528 547.086 43.496L545.79 43.304C545.502 43.2613 545.187 43.2027 544.846 43.128C544.515 43.0533 544.211 42.936 543.934 42.776C543.657 42.6053 543.422 42.3813 543.23 42.104C543.049 41.8267 542.958 41.464 542.958 41.016C542.958 40.6 543.038 40.2427 543.198 39.944C543.369 39.6347 543.603 39.3787 543.902 39.176C544.201 38.9627 544.553 38.808 544.958 38.712C545.363 38.6053 545.806 38.552 546.286 38.552C547.033 38.552 547.678 38.6693 548.222 38.904C548.777 39.1387 549.251 39.464 549.646 39.88L548.814 40.664C548.718 40.5467 548.595 40.4293 548.446 40.312C548.307 40.184 548.131 40.072 547.918 39.976C547.715 39.8693 547.475 39.784 547.198 39.72C546.921 39.656 546.601 39.624 546.238 39.624C545.587 39.624 545.086 39.736 544.734 39.96C544.393 40.184 544.222 40.5093 544.222 40.936C544.222 41.1493 544.259 41.3307 544.334 41.48C544.419 41.6187 544.531 41.7307 544.67 41.816C544.809 41.9013 544.963 41.9707 545.134 42.024C545.315 42.0667 545.497 42.104 545.678 42.136L546.974 42.328C547.273 42.3707 547.587 42.4293 547.918 42.504C548.249 42.5787 548.553 42.7013 548.83 42.872C549.107 43.032 549.337 43.2507 549.518 43.528C549.71 43.8053 549.806 44.168 549.806 44.616C549.806 45.4373 549.486 46.072 548.846 46.52C548.217 46.968 547.374 47.192 546.318 47.192ZM556.216 47C555.586 47 555.122 46.824 554.824 46.472C554.536 46.12 554.392 45.6667 554.392 45.112V39.832H551.64V38.744H553.688C553.965 38.744 554.157 38.6907 554.264 38.584C554.381 38.4667 554.44 38.2693 554.44 37.992V35.832H555.672V38.744H559.432V39.832H555.672V45.912H559.432V47H556.216ZM565.921 36.92C565.548 36.92 565.287 36.8453 565.137 36.696C564.988 36.536 564.913 36.3387 564.913 36.104V35.848C564.913 35.6133 564.988 35.4213 565.137 35.272C565.287 35.112 565.548 35.032 565.921 35.032C566.295 35.032 566.556 35.112 566.705 35.272C566.855 35.4213 566.929 35.6133 566.929 35.848V36.104C566.929 36.3387 566.855 36.536 566.705 36.696C566.556 36.8453 566.295 36.92 565.921 36.92ZM562.305 45.912H565.281V39.832H562.305V38.744H566.561V45.912H569.345V47H562.305V45.912ZM571.771 47V38.744H573.051V40.088H573.115C573.2 39.8853 573.307 39.6933 573.435 39.512C573.563 39.32 573.718 39.1547 573.899 39.016C574.091 38.8773 574.315 38.7653 574.571 38.68C574.827 38.5947 575.126 38.552 575.467 38.552C576.331 38.552 577.024 38.8293 577.547 39.384C578.07 39.928 578.331 40.7013 578.331 41.704V47H577.051V41.928C577.051 41.1707 576.886 40.6107 576.555 40.248C576.224 39.8747 575.739 39.688 575.099 39.688C574.843 39.688 574.592 39.72 574.347 39.784C574.102 39.848 573.883 39.944 573.691 40.072C573.499 40.2 573.344 40.3653 573.227 40.568C573.11 40.7707 573.051 41.0053 573.051 41.272V47H571.771ZM587.717 47C587.216 47 586.858 46.872 586.645 46.616C586.432 46.36 586.298 46.04 586.245 45.656H586.165C585.984 46.136 585.69 46.5147 585.285 46.792C584.89 47.0587 584.357 47.192 583.685 47.192C582.821 47.192 582.133 46.968 581.621 46.52C581.109 46.072 580.853 45.4587 580.853 44.68C580.853 43.912 581.13 43.32 581.685 42.904C582.25 42.488 583.157 42.28 584.405 42.28H586.165V41.464C586.165 40.856 585.994 40.4027 585.653 40.104C585.312 39.7947 584.826 39.64 584.197 39.64C583.642 39.64 583.189 39.752 582.837 39.976C582.485 40.1893 582.202 40.4827 581.989 40.856L581.125 40.216C581.232 40.0027 581.376 39.7947 581.557 39.592C581.738 39.3893 581.962 39.2133 582.229 39.064C582.496 38.904 582.8 38.7813 583.141 38.696C583.482 38.6 583.861 38.552 584.277 38.552C585.248 38.552 586.016 38.7973 586.581 39.288C587.157 39.7787 587.445 40.4613 587.445 41.336V45.88H588.597V47H587.717ZM583.909 46.12C584.24 46.12 584.538 46.0827 584.805 46.008C585.082 45.9227 585.322 45.816 585.525 45.688C585.728 45.5493 585.882 45.3893 585.989 45.208C586.106 45.016 586.165 44.8133 586.165 44.6V43.24H584.405C583.637 43.24 583.077 43.3467 582.725 43.56C582.373 43.7733 582.197 44.0827 582.197 44.488V44.824C582.197 45.2507 582.346 45.576 582.645 45.8C582.954 46.0133 583.376 46.12 583.909 46.12ZM594.591 47C593.961 47 593.497 46.824 593.199 46.472C592.911 46.12 592.767 45.6667 592.767 45.112V39.832H590.015V38.744H592.063C592.34 38.744 592.532 38.6907 592.639 38.584C592.756 38.4667 592.815 38.2693 592.815 37.992V35.832H594.047V38.744H597.807V39.832H594.047V45.912H597.807V47H594.591ZM604.296 36.92C603.923 36.92 603.662 36.8453 603.512 36.696C603.363 36.536 603.288 36.3387 603.288 36.104V35.848C603.288 35.6133 603.363 35.4213 603.512 35.272C603.662 35.112 603.923 35.032 604.296 35.032C604.67 35.032 604.931 35.112 605.08 35.272C605.23 35.4213 605.304 35.6133 605.304 35.848V36.104C605.304 36.3387 605.23 36.536 605.08 36.696C604.931 36.8453 604.67 36.92 604.296 36.92ZM600.68 45.912H603.656V39.832H600.68V38.744H604.936V45.912H607.72V47H600.68V45.912ZM613.378 47.192C612.802 47.192 612.279 47.0907 611.81 46.888C611.351 46.6853 610.957 46.3973 610.626 46.024C610.306 45.64 610.061 45.1867 609.89 44.664C609.719 44.1307 609.634 43.5333 609.634 42.872C609.634 42.2213 609.719 41.6293 609.89 41.096C610.061 40.5627 610.306 40.1093 610.626 39.736C610.957 39.352 611.351 39.0587 611.81 38.856C612.279 38.6533 612.802 38.552 613.378 38.552C613.954 38.552 614.471 38.6533 614.93 38.856C615.399 39.0587 615.794 39.352 616.114 39.736C616.445 40.1093 616.695 40.5627 616.866 41.096C617.037 41.6293 617.122 42.2213 617.122 42.872C617.122 43.5333 617.037 44.1307 616.866 44.664C616.695 45.1867 616.445 45.64 616.114 46.024C615.794 46.3973 615.399 46.6853 614.93 46.888C614.471 47.0907 613.954 47.192 613.378 47.192ZM613.378 46.088C614.093 46.088 614.669 45.8747 615.106 45.448C615.543 45.0213 615.762 44.36 615.762 43.464V42.28C615.762 41.384 615.543 40.7227 615.106 40.296C614.669 39.8693 614.093 39.656 613.378 39.656C612.663 39.656 612.087 39.8693 611.65 40.296C611.213 40.7227 610.994 41.384 610.994 42.28V43.464C610.994 44.36 611.213 45.0213 611.65 45.448C612.087 45.8747 612.663 46.088 613.378 46.088ZM619.74 47V38.744H621.02V40.088H621.084C621.169 39.8853 621.276 39.6933 621.404 39.512C621.532 39.32 621.687 39.1547 621.868 39.016C622.06 38.8773 622.284 38.7653 622.54 38.68C622.796 38.5947 623.095 38.552 623.436 38.552C624.3 38.552 624.993 38.8293 625.516 39.384C626.039 39.928 626.3 40.7013 626.3 41.704V47H625.02V41.928C625.02 41.1707 624.855 40.6107 624.524 40.248C624.193 39.8747 623.708 39.688 623.068 39.688C622.812 39.688 622.561 39.72 622.316 39.784C622.071 39.848 621.852 39.944 621.66 40.072C621.468 40.2 621.313 40.3653 621.196 40.568C621.079 40.7707 621.02 41.0053 621.02 41.272V47H619.74Z" fill="black"/>
<rect x="521" y="61" width="108" height="46" rx="6" fill="white" fill-opacity="0.9"/>
<path d="M565.017 75V68.718H567.303C567.885 68.718 568.329 68.877 568.635 69.195C568.941 69.513 569.094 69.957 569.094 70.527C569.094 71.097 568.941 71.541 568.635 71.859C568.329 72.177 567.885 72.336 567.303 72.336H565.773V75H565.017ZM565.773 71.679H567.285C567.603 71.679 567.849 71.601 568.023 71.445C568.203 71.283 568.293 71.055 568.293 70.761V70.293C568.293 69.999 568.203 69.774 568.023 69.618C567.849 69.456 567.603 69.375 567.285 69.375H565.773V71.679ZM572.682 69.375V75H571.926V69.375H569.829V68.718H574.779V69.375H572.682ZM576.08 75V68.718H576.836V74.343H579.815V75H576.08ZM583.303 75.108C582.535 75.108 581.962 74.829 581.584 74.271C581.212 73.713 581.026 72.909 581.026 71.859C581.026 70.809 581.212 70.005 581.584 69.447C581.962 68.889 582.535 68.61 583.303 68.61C583.591 68.61 583.84 68.649 584.05 68.727C584.26 68.805 584.44 68.91 584.59 69.042C584.74 69.174 584.866 69.324 584.968 69.492C585.07 69.654 585.16 69.819 585.238 69.987L584.59 70.284C584.536 70.146 584.473 70.017 584.401 69.897C584.329 69.771 584.242 69.663 584.14 69.573C584.044 69.477 583.927 69.402 583.789 69.348C583.657 69.294 583.495 69.267 583.303 69.267C582.805 69.267 582.433 69.456 582.187 69.834C581.947 70.212 581.827 70.716 581.827 71.346V72.372C581.827 73.002 581.947 73.506 582.187 73.884C582.433 74.262 582.805 74.451 583.303 74.451C583.495 74.451 583.657 74.424 583.789 74.37C583.927 74.316 584.044 74.244 584.14 74.154C584.242 74.058 584.329 73.95 584.401 73.83C584.473 73.704 584.536 73.572 584.59 73.434L585.238 73.731C585.16 73.905 585.07 74.073 584.968 74.235C584.866 74.397 584.74 74.544 584.59 74.676C584.44 74.808 584.26 74.913 584.05 74.991C583.84 75.069 583.591 75.108 583.303 75.108ZM540.213 81.33C540.003 81.33 539.856 81.288 539.772 81.204C539.688 81.114 539.646 81.003 539.646 80.871V80.727C539.646 80.595 539.688 80.487 539.772 80.403C539.856 80.313 540.003 80.268 540.213 80.268C540.423 80.268 540.57 80.313 540.654 80.403C540.738 80.487 540.78 80.595 540.78 80.727V80.871C540.78 81.003 540.738 81.114 540.654 81.204C540.57 81.288 540.423 81.33 540.213 81.33ZM538.179 86.388H539.853V82.968H538.179V82.356H540.573V86.388H542.139V87H538.179V86.388ZM545.546 87C545.192 87 544.931 86.901 544.763 86.703C544.601 86.505 544.52 86.25 544.52 85.938V82.968H542.972V82.356H544.124C544.28 82.356 544.388 82.326 544.448 82.266C544.514 82.2 544.547 82.089 544.547 81.933V80.718H545.24V82.356H547.355V82.968H545.24V86.388H547.355V87H545.546ZM553.9 87V82.356H554.566V82.896H554.602C554.674 82.716 554.776 82.563 554.908 82.437C555.04 82.311 555.235 82.248 555.493 82.248C555.763 82.248 555.964 82.317 556.096 82.455C556.228 82.587 556.309 82.761 556.339 82.977H556.366C556.45 82.767 556.57 82.593 556.726 82.455C556.882 82.317 557.098 82.248 557.374 82.248C557.752 82.248 558.004 82.38 558.13 82.644C558.262 82.908 558.328 83.286 558.328 83.778V87H557.662V83.895C557.662 83.499 557.62 83.226 557.536 83.076C557.458 82.92 557.311 82.842 557.095 82.842C556.903 82.842 556.747 82.905 556.627 83.031C556.507 83.151 556.447 83.337 556.447 83.589V87H555.781V83.895C555.781 83.499 555.739 83.226 555.655 83.076C555.577 82.92 555.433 82.842 555.223 82.842C555.031 82.842 554.872 82.905 554.746 83.031C554.626 83.151 554.566 83.337 554.566 83.589V87H553.9ZM563.266 87C562.984 87 562.783 86.928 562.663 86.784C562.543 86.64 562.468 86.46 562.438 86.244H562.393C562.291 86.514 562.126 86.727 561.898 86.883C561.676 87.033 561.376 87.108 560.998 87.108C560.512 87.108 560.125 86.982 559.837 86.73C559.549 86.478 559.405 86.133 559.405 85.695C559.405 85.263 559.561 84.93 559.873 84.696C560.191 84.462 560.701 84.345 561.403 84.345H562.393V83.886C562.393 83.544 562.297 83.289 562.105 83.121C561.913 82.947 561.64 82.86 561.286 82.86C560.974 82.86 560.719 82.923 560.521 83.049C560.323 83.169 560.164 83.334 560.044 83.544L559.558 83.184C559.618 83.064 559.699 82.947 559.801 82.833C559.903 82.719 560.029 82.62 560.179 82.536C560.329 82.446 560.5 82.377 560.692 82.329C560.884 82.275 561.097 82.248 561.331 82.248C561.877 82.248 562.309 82.386 562.627 82.662C562.951 82.938 563.113 83.322 563.113 83.814V86.37H563.761V87H563.266ZM561.124 86.505C561.31 86.505 561.478 86.484 561.628 86.442C561.784 86.394 561.919 86.334 562.033 86.262C562.147 86.184 562.234 86.094 562.294 85.992C562.36 85.884 562.393 85.77 562.393 85.65V84.885H561.403C560.971 84.885 560.656 84.945 560.458 85.065C560.26 85.185 560.161 85.359 560.161 85.587V85.776C560.161 86.016 560.245 86.199 560.413 86.325C560.587 86.445 560.824 86.505 561.124 86.505ZM565.152 80.34H565.872V84.543H565.908L566.718 83.778L568.266 82.356H569.148L567.222 84.174L569.373 87H568.482L566.673 84.588L565.872 85.317V87H565.152V80.34ZM572.385 87.108C572.049 87.108 571.746 87.051 571.476 86.937C571.212 86.823 570.984 86.661 570.792 86.451C570.606 86.235 570.462 85.98 570.36 85.686C570.258 85.386 570.207 85.053 570.207 84.687C570.207 84.315 570.258 83.979 570.36 83.679C570.468 83.379 570.615 83.124 570.801 82.914C570.987 82.698 571.209 82.533 571.467 82.419C571.731 82.305 572.022 82.248 572.34 82.248C572.652 82.248 572.934 82.305 573.186 82.419C573.444 82.533 573.663 82.692 573.843 82.896C574.023 83.094 574.161 83.331 574.257 83.607C574.353 83.883 574.401 84.186 574.401 84.516V84.858H570.963V85.074C570.963 85.278 570.996 85.467 571.062 85.641C571.128 85.815 571.221 85.965 571.341 86.091C571.467 86.217 571.617 86.316 571.791 86.388C571.971 86.454 572.169 86.487 572.385 86.487C572.697 86.487 572.967 86.415 573.195 86.271C573.423 86.127 573.597 85.929 573.717 85.677L574.248 86.037C574.11 86.349 573.879 86.607 573.555 86.811C573.237 87.009 572.847 87.108 572.385 87.108ZM572.34 82.842C572.142 82.842 571.959 82.878 571.791 82.95C571.623 83.022 571.476 83.121 571.35 83.247C571.23 83.373 571.134 83.523 571.062 83.697C570.996 83.865 570.963 84.051 570.963 84.255V84.318H573.627V84.219C573.627 84.015 573.594 83.829 573.528 83.661C573.468 83.493 573.381 83.349 573.267 83.229C573.159 83.103 573.024 83.007 572.862 82.941C572.706 82.875 572.532 82.842 572.34 82.842ZM577.754 87.108C577.268 87.108 576.848 87.027 576.494 86.865C576.146 86.697 575.849 86.475 575.603 86.199L576.089 85.776C576.311 86.01 576.554 86.19 576.818 86.316C577.082 86.442 577.4 86.505 577.772 86.505C578.132 86.505 578.426 86.442 578.654 86.316C578.888 86.184 579.005 85.98 579.005 85.704C579.005 85.584 578.981 85.485 578.933 85.407C578.891 85.323 578.831 85.257 578.753 85.209C578.675 85.161 578.588 85.125 578.492 85.101C578.396 85.071 578.294 85.047 578.186 85.029L577.457 84.921C577.295 84.897 577.118 84.864 576.926 84.822C576.74 84.78 576.569 84.714 576.413 84.624C576.257 84.528 576.125 84.402 576.017 84.246C575.915 84.09 575.864 83.886 575.864 83.634C575.864 83.4 575.909 83.199 575.999 83.031C576.095 82.857 576.227 82.713 576.395 82.599C576.563 82.479 576.761 82.392 576.989 82.338C577.217 82.278 577.466 82.248 577.736 82.248C578.156 82.248 578.519 82.314 578.825 82.446C579.137 82.578 579.404 82.761 579.626 82.995L579.158 83.436C579.104 83.37 579.035 83.304 578.951 83.238C578.873 83.166 578.774 83.103 578.654 83.049C578.54 82.989 578.405 82.941 578.249 82.905C578.093 82.869 577.913 82.851 577.709 82.851C577.343 82.851 577.061 82.914 576.863 83.04C576.671 83.166 576.575 83.349 576.575 83.589C576.575 83.709 576.596 83.811 576.638 83.895C576.686 83.973 576.749 84.036 576.827 84.084C576.905 84.132 576.992 84.171 577.088 84.201C577.19 84.225 577.292 84.246 577.394 84.264L578.123 84.372C578.291 84.396 578.468 84.429 578.654 84.471C578.84 84.513 579.011 84.582 579.167 84.678C579.323 84.768 579.452 84.891 579.554 85.047C579.662 85.203 579.716 85.407 579.716 85.659C579.716 86.121 579.536 86.478 579.176 86.73C578.822 86.982 578.348 87.108 577.754 87.108ZM588.547 87.108C588.061 87.108 587.641 87.027 587.287 86.865C586.939 86.697 586.642 86.475 586.396 86.199L586.882 85.776C587.104 86.01 587.347 86.19 587.611 86.316C587.875 86.442 588.193 86.505 588.565 86.505C588.925 86.505 589.219 86.442 589.447 86.316C589.681 86.184 589.798 85.98 589.798 85.704C589.798 85.584 589.774 85.485 589.726 85.407C589.684 85.323 589.624 85.257 589.546 85.209C589.468 85.161 589.381 85.125 589.285 85.101C589.189 85.071 589.087 85.047 588.979 85.029L588.25 84.921C588.088 84.897 587.911 84.864 587.719 84.822C587.533 84.78 587.362 84.714 587.206 84.624C587.05 84.528 586.918 84.402 586.81 84.246C586.708 84.09 586.657 83.886 586.657 83.634C586.657 83.4 586.702 83.199 586.792 83.031C586.888 82.857 587.02 82.713 587.188 82.599C587.356 82.479 587.554 82.392 587.782 82.338C588.01 82.278 588.259 82.248 588.529 82.248C588.949 82.248 589.312 82.314 589.618 82.446C589.93 82.578 590.197 82.761 590.419 82.995L589.951 83.436C589.897 83.37 589.828 83.304 589.744 83.238C589.666 83.166 589.567 83.103 589.447 83.049C589.333 82.989 589.198 82.941 589.042 82.905C588.886 82.869 588.706 82.851 588.502 82.851C588.136 82.851 587.854 82.914 587.656 83.04C587.464 83.166 587.368 83.349 587.368 83.589C587.368 83.709 587.389 83.811 587.431 83.895C587.479 83.973 587.542 84.036 587.62 84.084C587.698 84.132 587.785 84.171 587.881 84.201C587.983 84.225 588.085 84.246 588.187 84.264L588.916 84.372C589.084 84.396 589.261 84.429 589.447 84.471C589.633 84.513 589.804 84.582 589.96 84.678C590.116 84.768 590.245 84.891 590.347 85.047C590.455 85.203 590.509 85.407 590.509 85.659C590.509 86.121 590.329 86.478 589.969 86.73C589.615 86.982 589.141 87.108 588.547 87.108ZM593.97 87.108C593.634 87.108 593.331 87.051 593.061 86.937C592.797 86.823 592.569 86.661 592.377 86.451C592.191 86.235 592.047 85.98 591.945 85.686C591.843 85.386 591.792 85.053 591.792 84.687C591.792 84.315 591.843 83.979 591.945 83.679C592.053 83.379 592.2 83.124 592.386 82.914C592.572 82.698 592.794 82.533 593.052 82.419C593.316 82.305 593.607 82.248 593.925 82.248C594.237 82.248 594.519 82.305 594.771 82.419C595.029 82.533 595.248 82.692 595.428 82.896C595.608 83.094 595.746 83.331 595.842 83.607C595.938 83.883 595.986 84.186 595.986 84.516V84.858H592.548V85.074C592.548 85.278 592.581 85.467 592.647 85.641C592.713 85.815 592.806 85.965 592.926 86.091C593.052 86.217 593.202 86.316 593.376 86.388C593.556 86.454 593.754 86.487 593.97 86.487C594.282 86.487 594.552 86.415 594.78 86.271C595.008 86.127 595.182 85.929 595.302 85.677L595.833 86.037C595.695 86.349 595.464 86.607 595.14 86.811C594.822 87.009 594.432 87.108 593.97 87.108ZM593.925 82.842C593.727 82.842 593.544 82.878 593.376 82.95C593.208 83.022 593.061 83.121 592.935 83.247C592.815 83.373 592.719 83.523 592.647 83.697C592.581 83.865 592.548 84.051 592.548 84.255V84.318H595.212V84.219C595.212 84.015 595.179 83.829 595.113 83.661C595.053 83.493 594.966 83.349 594.852 83.229C594.744 83.103 594.609 83.007 594.447 82.941C594.291 82.875 594.117 82.842 593.925 82.842ZM597.468 87V82.356H598.188V83.112H598.224C598.272 82.998 598.332 82.89 598.404 82.788C598.476 82.68 598.563 82.587 598.665 82.509C598.773 82.431 598.899 82.368 599.043 82.32C599.187 82.272 599.355 82.248 599.547 82.248C600.033 82.248 600.423 82.404 600.717 82.716C601.011 83.022 601.158 83.457 601.158 84.021V87H600.438V84.147C600.438 83.721 600.345 83.406 600.159 83.202C599.973 82.992 599.7 82.887 599.34 82.887C599.196 82.887 599.055 82.905 598.917 82.941C598.779 82.977 598.656 83.031 598.548 83.103C598.44 83.175 598.353 83.268 598.287 83.382C598.221 83.496 598.188 83.628 598.188 83.778V87H597.468ZM604.736 87.108C604.25 87.108 603.83 87.027 603.476 86.865C603.128 86.697 602.831 86.475 602.585 86.199L603.071 85.776C603.293 86.01 603.536 86.19 603.8 86.316C604.064 86.442 604.382 86.505 604.754 86.505C605.114 86.505 605.408 86.442 605.636 86.316C605.87 86.184 605.987 85.98 605.987 85.704C605.987 85.584 605.963 85.485 605.915 85.407C605.873 85.323 605.813 85.257 605.735 85.209C605.657 85.161 605.57 85.125 605.474 85.101C605.378 85.071 605.276 85.047 605.168 85.029L604.439 84.921C604.277 84.897 604.1 84.864 603.908 84.822C603.722 84.78 603.551 84.714 603.395 84.624C603.239 84.528 603.107 84.402 602.999 84.246C602.897 84.09 602.846 83.886 602.846 83.634C602.846 83.4 602.891 83.199 602.981 83.031C603.077 82.857 603.209 82.713 603.377 82.599C603.545 82.479 603.743 82.392 603.971 82.338C604.199 82.278 604.448 82.248 604.718 82.248C605.138 82.248 605.501 82.314 605.807 82.446C606.119 82.578 606.386 82.761 606.608 82.995L606.14 83.436C606.086 83.37 606.017 83.304 605.933 83.238C605.855 83.166 605.756 83.103 605.636 83.049C605.522 82.989 605.387 82.941 605.231 82.905C605.075 82.869 604.895 82.851 604.691 82.851C604.325 82.851 604.043 82.914 603.845 83.04C603.653 83.166 603.557 83.349 603.557 83.589C603.557 83.709 603.578 83.811 603.62 83.895C603.668 83.973 603.731 84.036 603.809 84.084C603.887 84.132 603.974 84.171 604.07 84.201C604.172 84.225 604.274 84.246 604.376 84.264L605.105 84.372C605.273 84.396 605.45 84.429 605.636 84.471C605.822 84.513 605.993 84.582 606.149 84.678C606.305 84.768 606.434 84.891 606.536 85.047C606.644 85.203 606.698 85.407 606.698 85.659C606.698 86.121 606.518 86.478 606.158 86.73C605.804 86.982 605.33 87.108 604.736 87.108ZM610.16 87.108C609.824 87.108 609.521 87.051 609.251 86.937C608.987 86.823 608.759 86.661 608.567 86.451C608.381 86.235 608.237 85.98 608.135 85.686C608.033 85.386 607.982 85.053 607.982 84.687C607.982 84.315 608.033 83.979 608.135 83.679C608.243 83.379 608.39 83.124 608.576 82.914C608.762 82.698 608.984 82.533 609.242 82.419C609.506 82.305 609.797 82.248 610.115 82.248C610.427 82.248 610.709 82.305 610.961 82.419C611.219 82.533 611.438 82.692 611.618 82.896C611.798 83.094 611.936 83.331 612.032 83.607C612.128 83.883 612.176 84.186 612.176 84.516V84.858H608.738V85.074C608.738 85.278 608.771 85.467 608.837 85.641C608.903 85.815 608.996 85.965 609.116 86.091C609.242 86.217 609.392 86.316 609.566 86.388C609.746 86.454 609.944 86.487 610.16 86.487C610.472 86.487 610.742 86.415 610.97 86.271C611.198 86.127 611.372 85.929 611.492 85.677L612.023 86.037C611.885 86.349 611.654 86.607 611.33 86.811C611.012 87.009 610.622 87.108 610.16 87.108ZM610.115 82.842C609.917 82.842 609.734 82.878 609.566 82.95C609.398 83.022 609.251 83.121 609.125 83.247C609.005 83.373 608.909 83.523 608.837 83.697C608.771 83.865 608.738 84.051 608.738 84.255V84.318H611.402V84.219C611.402 84.015 611.369 83.829 611.303 83.661C611.243 83.493 611.156 83.349 611.042 83.229C610.934 83.103 610.799 83.007 610.637 82.941C610.481 82.875 610.307 82.842 610.115 82.842ZM526.702 94.356H527.341L527.872 98.37H527.953L528.745 94.356H529.537L530.329 98.37H530.41L530.941 94.356H531.562L530.851 99H529.915L529.177 95.112H529.105L528.349 99H527.413L526.702 94.356ZM534.816 93.33C534.606 93.33 534.459 93.288 534.375 93.204C534.291 93.114 534.249 93.003 534.249 92.871V92.727C534.249 92.595 534.291 92.487 534.375 92.403C534.459 92.313 534.606 92.268 534.816 92.268C535.026 92.268 535.173 92.313 535.257 92.403C535.341 92.487 535.383 92.595 535.383 92.727V92.871C535.383 93.003 535.341 93.114 535.257 93.204C535.173 93.288 535.026 93.33 534.816 93.33ZM532.782 98.388H534.456V94.968H532.782V94.356H535.176V98.388H536.742V99H532.782V98.388ZM540.15 99C539.796 99 539.535 98.901 539.367 98.703C539.205 98.505 539.124 98.25 539.124 97.938V94.968H537.576V94.356H538.728C538.884 94.356 538.992 94.326 539.052 94.266C539.118 94.2 539.151 94.089 539.151 93.933V92.718H539.844V94.356H541.959V94.968H539.844V98.388H541.959V99H540.15ZM543.503 92.34H544.223V95.112H544.259C544.307 94.998 544.367 94.89 544.439 94.788C544.511 94.68 544.598 94.587 544.7 94.509C544.808 94.431 544.934 94.368 545.078 94.32C545.222 94.272 545.39 94.248 545.582 94.248C546.068 94.248 546.458 94.404 546.752 94.716C547.046 95.022 547.193 95.457 547.193 96.021V99H546.473V96.147C546.473 95.721 546.38 95.406 546.194 95.202C546.008 94.992 545.735 94.887 545.375 94.887C545.231 94.887 545.09 94.905 544.952 94.941C544.814 94.977 544.691 95.031 544.583 95.103C544.475 95.175 544.388 95.268 544.322 95.382C544.256 95.496 544.223 95.628 544.223 95.778V99H543.503V92.34ZM556.276 99.108C555.94 99.108 555.64 99.051 555.376 98.937C555.118 98.817 554.899 98.652 554.719 98.442C554.539 98.232 554.401 97.977 554.305 97.677C554.215 97.377 554.17 97.044 554.17 96.678C554.17 96.312 554.218 95.979 554.314 95.679C554.41 95.379 554.548 95.124 554.728 94.914C554.908 94.698 555.127 94.533 555.385 94.419C555.643 94.305 555.937 94.248 556.267 94.248C556.717 94.248 557.083 94.347 557.365 94.545C557.647 94.743 557.854 95.001 557.986 95.319L557.41 95.625C557.326 95.385 557.185 95.199 556.987 95.067C556.795 94.935 556.555 94.869 556.267 94.869C556.057 94.869 555.868 94.905 555.7 94.977C555.538 95.043 555.4 95.139 555.286 95.265C555.172 95.391 555.085 95.541 555.025 95.715C554.971 95.889 554.944 96.078 554.944 96.282V97.074C554.944 97.278 554.971 97.467 555.025 97.641C555.085 97.815 555.172 97.965 555.286 98.091C555.4 98.217 555.541 98.316 555.709 98.388C555.877 98.454 556.069 98.487 556.285 98.487C556.597 98.487 556.855 98.415 557.059 98.271C557.263 98.127 557.425 97.929 557.545 97.677L558.058 98.028C557.92 98.34 557.704 98.598 557.41 98.802C557.122 99.006 556.744 99.108 556.276 99.108ZM559.504 98.388H560.863V94.968H559.504V94.356H561.583V95.526H561.628C561.724 95.16 561.904 94.875 562.168 94.671C562.438 94.461 562.78 94.356 563.194 94.356H563.842V95.076H562.969C562.555 95.076 562.219 95.196 561.961 95.436C561.709 95.676 561.583 95.991 561.583 96.381V98.388H563.383V99H559.504V98.388ZM568.41 94.356H569.13L566.826 100.017C566.772 100.149 566.712 100.263 566.646 100.359C566.58 100.461 566.502 100.542 566.412 100.602C566.322 100.668 566.214 100.716 566.088 100.746C565.962 100.782 565.812 100.8 565.638 100.8H564.954V100.188H566.034L566.556 98.91L564.684 94.356H565.422L566.205 96.3L566.898 98.064H566.934L567.627 96.3L568.41 94.356ZM570.459 94.356H571.179V95.112H571.215C571.515 94.536 571.992 94.248 572.646 94.248C573.216 94.248 573.66 94.461 573.978 94.887C574.302 95.313 574.464 95.91 574.464 96.678C574.464 97.446 574.302 98.043 573.978 98.469C573.66 98.895 573.216 99.108 572.646 99.108C571.992 99.108 571.515 98.82 571.215 98.244H571.179V100.8H570.459V94.356ZM572.367 98.469C572.787 98.469 573.111 98.343 573.339 98.091C573.573 97.833 573.69 97.494 573.69 97.074V96.282C573.69 95.862 573.573 95.526 573.339 95.274C573.111 95.016 572.787 94.887 572.367 94.887C572.205 94.887 572.052 94.908 571.908 94.95C571.764 94.992 571.638 95.055 571.53 95.139C571.422 95.217 571.335 95.316 571.269 95.436C571.209 95.55 571.179 95.685 571.179 95.841V97.515C571.179 97.671 571.209 97.809 571.269 97.929C571.335 98.043 571.422 98.142 571.53 98.226C571.638 98.304 571.764 98.364 571.908 98.406C572.052 98.448 572.205 98.469 572.367 98.469ZM577.925 99C577.571 99 577.31 98.901 577.142 98.703C576.98 98.505 576.899 98.25 576.899 97.938V94.968H575.351V94.356H576.503C576.659 94.356 576.767 94.326 576.827 94.266C576.893 94.2 576.926 94.089 576.926 93.933V92.718H577.619V94.356H579.734V94.968H577.619V98.388H579.734V99H577.925ZM583.096 99.108C582.772 99.108 582.478 99.051 582.214 98.937C581.956 98.823 581.734 98.661 581.548 98.451C581.368 98.235 581.23 97.98 581.134 97.686C581.038 97.386 580.99 97.05 580.99 96.678C580.99 96.312 581.038 95.979 581.134 95.679C581.23 95.379 581.368 95.124 581.548 94.914C581.734 94.698 581.956 94.533 582.214 94.419C582.478 94.305 582.772 94.248 583.096 94.248C583.42 94.248 583.711 94.305 583.969 94.419C584.233 94.533 584.455 94.698 584.635 94.914C584.821 95.124 584.962 95.379 585.058 95.679C585.154 95.979 585.202 96.312 585.202 96.678C585.202 97.05 585.154 97.386 585.058 97.686C584.962 97.98 584.821 98.235 584.635 98.451C584.455 98.661 584.233 98.823 583.969 98.937C583.711 99.051 583.42 99.108 583.096 99.108ZM583.096 98.487C583.498 98.487 583.822 98.367 584.068 98.127C584.314 97.887 584.437 97.515 584.437 97.011V96.345C584.437 95.841 584.314 95.469 584.068 95.229C583.822 94.989 583.498 94.869 583.096 94.869C582.694 94.869 582.37 94.989 582.124 95.229C581.878 95.469 581.755 95.841 581.755 96.345V97.011C581.755 97.515 581.878 97.887 582.124 98.127C582.37 98.367 582.694 98.487 583.096 98.487ZM590.842 99.531C590.842 99.999 590.647 100.344 590.257 100.566C589.867 100.794 589.282 100.908 588.502 100.908C587.752 100.908 587.212 100.809 586.882 100.611C586.558 100.413 586.396 100.128 586.396 99.756C586.396 99.504 586.462 99.309 586.594 99.171C586.726 99.033 586.912 98.931 587.152 98.865V98.757C587.02 98.691 586.918 98.607 586.846 98.505C586.774 98.403 586.738 98.274 586.738 98.118C586.738 97.878 586.816 97.698 586.972 97.578C587.134 97.458 587.335 97.368 587.575 97.308V97.272C587.287 97.146 587.062 96.96 586.9 96.714C586.744 96.468 586.666 96.18 586.666 95.85C586.666 95.616 586.708 95.4 586.792 95.202C586.876 95.004 586.996 94.836 587.152 94.698C587.314 94.554 587.506 94.443 587.728 94.365C587.95 94.287 588.196 94.248 588.466 94.248C588.814 94.248 589.12 94.311 589.384 94.437V94.356C589.384 94.176 589.426 94.026 589.51 93.906C589.594 93.786 589.738 93.726 589.942 93.726H590.797V94.356H589.753V94.671C589.921 94.815 590.05 94.986 590.14 95.184C590.23 95.382 590.275 95.604 590.275 95.85C590.275 96.084 590.23 96.3 590.14 96.498C590.056 96.696 589.936 96.867 589.78 97.011C589.624 97.149 589.432 97.257 589.204 97.335C588.982 97.413 588.736 97.452 588.466 97.452C588.388 97.452 588.313 97.449 588.241 97.443C588.169 97.437 588.097 97.428 588.025 97.416C587.953 97.428 587.878 97.449 587.8 97.479C587.722 97.503 587.65 97.539 587.584 97.587C587.518 97.629 587.464 97.68 587.422 97.74C587.38 97.8 587.359 97.869 587.359 97.947C587.359 98.085 587.428 98.178 587.566 98.226C587.704 98.268 587.884 98.289 588.106 98.289H589.132C589.732 98.289 590.167 98.403 590.437 98.631C590.707 98.853 590.842 99.153 590.842 99.531ZM590.167 99.567C590.167 99.381 590.092 99.231 589.942 99.117C589.792 99.009 589.531 98.955 589.159 98.955H587.548C587.236 99.081 587.08 99.291 587.08 99.585C587.08 99.789 587.161 99.963 587.323 100.107C587.485 100.257 587.755 100.332 588.133 100.332H588.835C589.255 100.332 589.582 100.266 589.816 100.134C590.05 100.008 590.167 99.819 590.167 99.567ZM588.466 96.894C588.826 96.894 589.09 96.81 589.258 96.642C589.432 96.474 589.519 96.252 589.519 95.976V95.715C589.519 95.439 589.432 95.22 589.258 95.058C589.09 94.89 588.826 94.806 588.466 94.806C588.106 94.806 587.842 94.89 587.674 95.058C587.506 95.22 587.422 95.439 587.422 95.715V95.976C587.422 96.252 587.506 96.474 587.674 96.642C587.842 96.81 588.106 96.894 588.466 96.894ZM591.882 98.388H593.241V94.968H591.882V94.356H593.961V95.526H594.006C594.102 95.16 594.282 94.875 594.546 94.671C594.816 94.461 595.158 94.356 595.572 94.356H596.22V95.076H595.347C594.933 95.076 594.597 95.196 594.339 95.436C594.087 95.676 593.961 95.991 593.961 96.381V98.388H595.761V99H591.882V98.388ZM601.041 99C600.759 99 600.558 98.928 600.438 98.784C600.318 98.64 600.243 98.46 600.213 98.244H600.168C600.066 98.514 599.901 98.727 599.673 98.883C599.451 99.033 599.151 99.108 598.773 99.108C598.287 99.108 597.9 98.982 597.612 98.73C597.324 98.478 597.18 98.133 597.18 97.695C597.18 97.263 597.336 96.93 597.648 96.696C597.966 96.462 598.476 96.345 599.178 96.345H600.168V95.886C600.168 95.544 600.072 95.289 599.88 95.121C599.688 94.947 599.415 94.86 599.061 94.86C598.749 94.86 598.494 94.923 598.296 95.049C598.098 95.169 597.939 95.334 597.819 95.544L597.333 95.184C597.393 95.064 597.474 94.947 597.576 94.833C597.678 94.719 597.804 94.62 597.954 94.536C598.104 94.446 598.275 94.377 598.467 94.329C598.659 94.275 598.872 94.248 599.106 94.248C599.652 94.248 600.084 94.386 600.402 94.662C600.726 94.938 600.888 95.322 600.888 95.814V98.37H601.536V99H601.041ZM598.899 98.505C599.085 98.505 599.253 98.484 599.403 98.442C599.559 98.394 599.694 98.334 599.808 98.262C599.922 98.184 600.009 98.094 600.069 97.992C600.135 97.884 600.168 97.77 600.168 97.65V96.885H599.178C598.746 96.885 598.431 96.945 598.233 97.065C598.035 97.185 597.936 97.359 597.936 97.587V97.776C597.936 98.016 598.02 98.199 598.188 98.325C598.362 98.445 598.599 98.505 598.899 98.505ZM602.837 94.356H603.557V95.112H603.593C603.893 94.536 604.37 94.248 605.024 94.248C605.594 94.248 606.038 94.461 606.356 94.887C606.68 95.313 606.842 95.91 606.842 96.678C606.842 97.446 606.68 98.043 606.356 98.469C606.038 98.895 605.594 99.108 605.024 99.108C604.37 99.108 603.893 98.82 603.593 98.244H603.557V100.8H602.837V94.356ZM604.745 98.469C605.165 98.469 605.489 98.343 605.717 98.091C605.951 97.833 606.068 97.494 606.068 97.074V96.282C606.068 95.862 605.951 95.526 605.717 95.274C605.489 95.016 605.165 94.887 604.745 94.887C604.583 94.887 604.43 94.908 604.286 94.95C604.142 94.992 604.016 95.055 603.908 95.139C603.8 95.217 603.713 95.316 603.647 95.436C603.587 95.55 603.557 95.685 603.557 95.841V97.515C603.557 97.671 603.587 97.809 603.647 97.929C603.713 98.043 603.8 98.142 603.908 98.226C604.016 98.304 604.142 98.364 604.286 98.406C604.43 98.448 604.583 98.469 604.745 98.469ZM608.261 92.34H608.981V95.112H609.017C609.065 94.998 609.125 94.89 609.197 94.788C609.269 94.68 609.356 94.587 609.458 94.509C609.566 94.431 609.692 94.368 609.836 94.32C609.98 94.272 610.148 94.248 610.34 94.248C610.826 94.248 611.216 94.404 611.51 94.716C611.804 95.022 611.951 95.457 611.951 96.021V99H611.231V96.147C611.231 95.721 611.138 95.406 610.952 95.202C610.766 94.992 610.493 94.887 610.133 94.887C609.989 94.887 609.848 94.905 609.71 94.941C609.572 94.977 609.449 95.031 609.341 95.103C609.233 95.175 609.146 95.268 609.08 95.382C609.014 95.496 608.981 95.628 608.981 95.778V99H608.261V92.34ZM616.978 94.356H617.698L615.394 100.017C615.34 100.149 615.28 100.263 615.214 100.359C615.148 100.461 615.07 100.542 614.98 100.602C614.89 100.668 614.782 100.716 614.656 100.746C614.53 100.782 614.38 100.8 614.206 100.8H613.522V100.188H614.602L615.124 98.91L613.252 94.356H613.99L614.773 96.3L615.466 98.064H615.502L616.195 96.3L616.978 94.356ZM620.728 96.903L620.476 94.545V92.718H621.268V94.545L621.016 96.903H620.728ZM620.872 99.081C620.626 99.081 620.452 99.03 620.35 98.928C620.254 98.826 620.206 98.697 620.206 98.541V98.379C620.206 98.223 620.254 98.094 620.35 97.992C620.452 97.89 620.626 97.839 620.872 97.839C621.118 97.839 621.289 97.89 621.385 97.992C621.487 98.094 621.538 98.223 621.538 98.379V98.541C621.538 98.697 621.487 98.826 621.385 98.928C621.289 99.03 621.118 99.081 620.872 99.081Z" fill="black"/>
<rect x="502" y="11" width="146" height="115" rx="5" stroke="#FFA629" stroke-width="2"/>
<defs>
<linearGradient id="paint0_linear_8_523" x1="131" y1="67" x2="131" y2="101" gradientUnits="userSpaceOnUse">
<stop stop-color="white"/>
<stop offset="1" stop-color="white" stop-opacity="0"/>
</linearGradient>
<clipPath id="clip0_8_523">
<rect width="20" height="16" fill="white" transform="translate(55 60.5)"/>
</clipPath>
<clipPath id="clip1_8_523">
<rect width="20" height="16" fill="white" transform="translate(187 60.5)"/>
</clipPath>
<clipPath id="clip2_8_523">
<rect width="20" height="16" fill="white" transform="translate(347 60.5)"/>
</clipPath>
<clipPath id="clip3_8_523">
<rect width="20" height="16" fill="white" transform="translate(479 60.5)"/>
</clipPath>
</defs>
</svg>
