<svg width="723" height="97" viewBox="0 0 723 97" fill="none" xmlns="http://www.w3.org/2000/svg">
<path d="M38 33H688" stroke="#888888" stroke-width="2"/>
<circle cx="38" cy="33" r="32" fill="#DCF3E7" stroke="#14AE5C" stroke-width="2"/>
<circle cx="104" cy="33" r="32" fill="#DCF3E7" stroke="#14AE5C" stroke-width="2"/>
<circle cx="688" cy="33" r="32" fill="#DCF3E7" stroke="#14AE5C" stroke-width="2"/>
<circle cx="622" cy="33" r="32" fill="#DCF3E7" stroke="#14AE5C" stroke-width="2"/>
<path d="M2.41525 92H0.784565L4.44863 81.8182H6.22349L9.88755 92H8.25687L5.37832 83.6676H5.29877L2.41525 92ZM2.68868 88.0128H7.97846V89.3054H2.68868V88.0128ZM12.4591 81.8182V92H10.9726V81.8182H12.4591ZM14.1929 92V84.3636H15.6794V92H14.1929ZM14.9436 83.1854C14.6851 83.1854 14.463 83.0992 14.2774 82.9268C14.0951 82.7512 14.004 82.5424 14.004 82.3004C14.004 82.0552 14.0951 81.8464 14.2774 81.674C14.463 81.4983 14.6851 81.4105 14.9436 81.4105C15.2021 81.4105 15.4225 81.4983 15.6048 81.674C15.7904 81.8464 15.8832 82.0552 15.8832 82.3004C15.8832 82.5424 15.7904 82.7512 15.6048 82.9268C15.4225 83.0992 15.2021 83.1854 14.9436 83.1854ZM20.6299 92.1541C19.8907 92.1541 19.2544 91.9867 18.7208 91.652C18.1905 91.3139 17.7828 90.8482 17.4978 90.255C17.2127 89.6617 17.0702 88.9822 17.0702 88.2166C17.0702 87.4411 17.216 86.7566 17.5077 86.1634C17.7994 85.5668 18.2103 85.1011 18.7406 84.7663C19.271 84.4316 19.8957 84.2642 20.6149 84.2642C21.195 84.2642 21.712 84.3719 22.1661 84.5874C22.6201 84.7995 22.9864 85.0978 23.2648 85.4822C23.5465 85.8667 23.7139 86.3158 23.7669 86.8295H22.3202C22.2406 86.4716 22.0584 86.1634 21.7733 85.9048C21.4916 85.6463 21.1138 85.517 20.6398 85.517C20.2255 85.517 19.8626 85.6264 19.551 85.8452C19.2428 86.0606 19.0025 86.3688 18.8301 86.7699C18.6578 87.1676 18.5716 87.6383 18.5716 88.1818C18.5716 88.7386 18.6561 89.2192 18.8252 89.6236C18.9942 90.0279 19.2328 90.3411 19.5411 90.5632C19.8526 90.7853 20.2189 90.8963 20.6398 90.8963C20.9215 90.8963 21.1767 90.8449 21.4054 90.7422C21.6374 90.6361 21.8313 90.4853 21.9871 90.2898C22.1462 90.0942 22.2572 89.8589 22.3202 89.5838H23.7669C23.7139 90.0777 23.5531 90.5185 23.2847 90.9062C23.0162 91.294 22.6566 91.599 22.2058 91.821C21.7584 92.0431 21.2331 92.1541 20.6299 92.1541ZM28.3818 92.1541C27.6294 92.1541 26.9815 91.9934 26.4379 91.6719C25.8976 91.3471 25.48 90.8913 25.1851 90.3047C24.8934 89.7147 24.7476 89.0237 24.7476 88.2315C24.7476 87.4493 24.8934 86.7599 25.1851 86.1634C25.48 85.5668 25.891 85.1011 26.418 84.7663C26.9483 84.4316 27.5681 84.2642 28.2774 84.2642C28.7083 84.2642 29.1259 84.3355 29.5302 84.478C29.9346 84.6205 30.2975 84.8442 30.619 85.1491C30.9405 85.4541 31.1941 85.8501 31.3797 86.3374C31.5653 86.8213 31.6581 87.4096 31.6581 88.1023V88.6293H25.5878V87.5156H30.2014C30.2014 87.1245 30.1218 86.7782 29.9628 86.4766C29.8037 86.1716 29.5799 85.9313 29.2916 85.7557C29.0066 85.58 28.6718 85.4922 28.2873 85.4922C27.8697 85.4922 27.5051 85.5949 27.1936 85.8004C26.8853 86.0026 26.6467 86.2678 26.4777 86.5959C26.3119 86.9207 26.2291 87.2737 26.2291 87.6548V88.5249C26.2291 89.0353 26.3186 89.4695 26.4976 89.8274C26.6798 90.1854 26.9334 90.4588 27.2582 90.6477C27.583 90.8333 27.9625 90.9261 28.3967 90.9261C28.6784 90.9261 28.9353 90.8864 29.1673 90.8068C29.3993 90.724 29.5998 90.6013 29.7689 90.4389C29.9379 90.2765 30.0672 90.076 30.1566 89.8374L31.5636 90.0909C31.4509 90.5052 31.2487 90.8681 30.9571 91.1797C30.6687 91.4879 30.3058 91.7282 29.8683 91.9006C29.4341 92.0696 28.9386 92.1541 28.3818 92.1541ZM34.3191 81.8182V82.7727C34.3191 83.0545 34.2661 83.3511 34.16 83.6626C34.0573 83.9709 33.9114 84.2675 33.7225 84.5526C33.5336 84.8376 33.3115 85.0829 33.0563 85.2884L32.3205 84.7614C32.5161 84.4763 32.6851 84.1731 32.8276 83.8516C32.9734 83.5301 33.0464 83.1754 33.0464 82.7876V81.8182H34.3191ZM40.2477 86.228L38.9004 86.4666C38.844 86.2943 38.7546 86.1302 38.6319 85.9744C38.5126 85.8187 38.3502 85.6911 38.1447 85.5916C37.9392 85.4922 37.6824 85.4425 37.3741 85.4425C36.9532 85.4425 36.6019 85.5369 36.3201 85.7259C36.0384 85.9115 35.8975 86.1518 35.8975 86.4467C35.8975 86.7019 35.992 86.9074 36.1809 87.0632C36.3699 87.219 36.6748 87.3466 37.0957 87.446L38.3088 87.7244C39.0114 87.8868 39.5351 88.1371 39.8798 88.4751C40.2245 88.8132 40.3968 89.2524 40.3968 89.7926C40.3968 90.25 40.2643 90.6577 39.9991 91.0156C39.7373 91.3703 39.371 91.6487 38.9004 91.8509C38.4331 92.053 37.8912 92.1541 37.2747 92.1541C36.4196 92.1541 35.7219 91.9718 35.1816 91.6072C34.6414 91.2393 34.31 90.7173 34.1873 90.0412L35.6241 89.8224C35.7136 90.197 35.8975 90.4804 36.176 90.6726C36.4544 90.8615 36.8173 90.956 37.2647 90.956C37.752 90.956 38.1414 90.8549 38.4331 90.6527C38.7247 90.4472 38.8706 90.197 38.8706 89.902C38.8706 89.6634 38.7811 89.4628 38.6021 89.3004C38.4264 89.138 38.1563 89.0154 37.7917 88.9325L36.4991 88.6491C35.7865 88.4867 35.2595 88.2282 34.9181 87.8736C34.5801 87.5189 34.411 87.0698 34.411 86.5263C34.411 86.0755 34.537 85.6811 34.7889 85.343C35.0408 85.005 35.3888 84.7415 35.8329 84.5526C36.277 84.3603 36.7858 84.2642 37.3592 84.2642C38.1845 84.2642 38.8341 84.4432 39.3081 84.8011C39.782 85.1558 40.0952 85.6314 40.2477 86.228ZM45.3236 92V81.8182H46.8102V85.6016H46.8996C46.9858 85.4425 47.1101 85.2585 47.2725 85.0497C47.4349 84.8409 47.6603 84.6586 47.9486 84.5028C48.237 84.3438 48.6182 84.2642 49.0921 84.2642C49.7086 84.2642 50.2588 84.42 50.7427 84.7315C51.2266 85.0431 51.6061 85.4922 51.8812 86.0788C52.1596 86.6655 52.2988 87.3714 52.2988 88.1967C52.2988 89.022 52.1612 89.7296 51.8861 90.3196C51.6111 90.9062 51.2332 91.3587 50.7526 91.6768C50.272 91.9917 49.7235 92.1491 49.107 92.1491C48.643 92.1491 48.2635 92.0713 47.9685 91.9155C47.6769 91.7597 47.4482 91.5774 47.2825 91.3686C47.1167 91.1598 46.9891 90.9742 46.8996 90.8118H46.7754V92H45.3236ZM46.7803 88.1818C46.7803 88.7187 46.8582 89.1894 47.014 89.5938C47.1698 89.9981 47.3951 90.3146 47.6901 90.5433C47.9851 90.7687 48.3464 90.8814 48.7739 90.8814C49.2181 90.8814 49.5893 90.7637 49.8876 90.5284C50.1859 90.2898 50.4112 89.9666 50.5637 89.5589C50.7195 89.1513 50.7974 88.6922 50.7974 88.1818C50.7974 87.678 50.7211 87.2256 50.5687 86.8246C50.4195 86.4235 50.1941 86.107 49.8925 85.875C49.5942 85.643 49.2214 85.527 48.7739 85.527C48.3431 85.527 47.9785 85.638 47.6802 85.8601C47.3852 86.0821 47.1615 86.392 47.009 86.7898C46.8566 87.1875 46.7803 87.6515 46.7803 88.1818ZM55.9243 92.169C55.4404 92.169 55.0029 92.0795 54.6118 91.9006C54.2207 91.7183 53.9108 91.4548 53.6821 91.1101C53.4567 90.7654 53.344 90.3428 53.344 89.8423C53.344 89.4115 53.4269 89.0568 53.5926 88.7784C53.7583 88.5 53.9821 88.2796 54.2638 88.1172C54.5455 87.9548 54.8604 87.8321 55.2084 87.7493C55.5564 87.6664 55.911 87.6035 56.2723 87.5604C56.7297 87.5073 57.1009 87.4643 57.3859 87.4311C57.671 87.3946 57.8781 87.3366 58.0074 87.2571C58.1367 87.1776 58.2013 87.0483 58.2013 86.8693V86.8345C58.2013 86.4003 58.0787 86.0639 57.8334 85.8253C57.5914 85.5866 57.2302 85.4673 56.7496 85.4673C56.2491 85.4673 55.8547 85.5784 55.5663 85.8004C55.2813 86.0192 55.0841 86.2628 54.9747 86.5312L53.5777 86.2131C53.7434 85.7491 53.9854 85.3745 54.3036 85.0895C54.6251 84.8011 54.9946 84.5923 55.4122 84.4631C55.8298 84.3305 56.269 84.2642 56.7297 84.2642C57.0346 84.2642 57.3578 84.3007 57.6992 84.3736C58.0439 84.4432 58.3654 84.5724 58.6636 84.7614C58.9653 84.9503 59.2122 85.2204 59.4044 85.5717C59.5966 85.9197 59.6928 86.3722 59.6928 86.929V92H58.2411V90.956H58.1814C58.0853 91.1482 57.9411 91.3371 57.7489 91.5227C57.5566 91.7083 57.3097 91.8625 57.0081 91.9851C56.7065 92.1077 56.3452 92.169 55.9243 92.169ZM56.2475 90.9759C56.6584 90.9759 57.0098 90.8946 57.3014 90.7322C57.5964 90.5698 57.8201 90.3577 57.9726 90.0959C58.1284 89.8307 58.2063 89.5473 58.2063 89.2457V88.2614C58.1532 88.3144 58.0505 88.3641 57.898 88.4105C57.7489 88.4536 57.5782 88.4917 57.3859 88.5249C57.1937 88.5547 57.0064 88.5829 56.8242 88.6094C56.6419 88.6326 56.4894 88.6525 56.3668 88.669C56.0784 88.7055 55.8149 88.7668 55.5763 88.853C55.341 88.9392 55.152 89.0634 55.0095 89.2259C54.8703 89.3849 54.8007 89.5971 54.8007 89.8622C54.8007 90.2301 54.9366 90.5085 55.2084 90.6974C55.4802 90.883 55.8265 90.9759 56.2475 90.9759ZM62.8932 81.8182V92H61.4067V81.8182H62.8932ZM66.8493 92.169C66.3654 92.169 65.9279 92.0795 65.5368 91.9006C65.1457 91.7183 64.8358 91.4548 64.6071 91.1101C64.3818 90.7654 64.2691 90.3428 64.2691 89.8423C64.2691 89.4115 64.3519 89.0568 64.5177 88.7784C64.6834 88.5 64.9071 88.2796 65.1888 88.1172C65.4705 87.9548 65.7854 87.8321 66.1334 87.7493C66.4814 87.6664 66.8361 87.6035 67.1973 87.5604C67.6547 87.5073 68.0259 87.4643 68.311 87.4311C68.596 87.3946 68.8032 87.3366 68.9324 87.2571C69.0617 87.1776 69.1263 87.0483 69.1263 86.8693V86.8345C69.1263 86.4003 69.0037 86.0639 68.7584 85.8253C68.5165 85.5866 68.1552 85.4673 67.6746 85.4673C67.1741 85.4673 66.7797 85.5784 66.4914 85.8004C66.2063 86.0192 66.0091 86.2628 65.8998 86.5312L64.5027 86.2131C64.6685 85.7491 64.9104 85.3745 65.2286 85.0895C65.5501 84.8011 65.9196 84.5923 66.3373 84.4631C66.7549 84.3305 67.194 84.2642 67.6547 84.2642C67.9597 84.2642 68.2828 84.3007 68.6242 84.3736C68.9689 84.4432 69.2904 84.5724 69.5887 84.7614C69.8903 84.9503 70.1372 85.2204 70.3294 85.5717C70.5217 85.9197 70.6178 86.3722 70.6178 86.929V92H69.1661V90.956H69.1064C69.0103 91.1482 68.8661 91.3371 68.6739 91.5227C68.4817 91.7083 68.2348 91.8625 67.9331 91.9851C67.6315 92.1077 67.2703 92.169 66.8493 92.169ZM67.1725 90.9759C67.5835 90.9759 67.9348 90.8946 68.2265 90.7322C68.5214 90.5698 68.7452 90.3577 68.8976 90.0959C69.0534 89.8307 69.1313 89.5473 69.1313 89.2457V88.2614C69.0783 88.3144 68.9755 88.3641 68.8231 88.4105C68.6739 88.4536 68.5032 88.4917 68.311 88.5249C68.1187 88.5547 67.9315 88.5829 67.7492 88.6094C67.5669 88.6326 67.4144 88.6525 67.2918 88.669C67.0035 88.7055 66.74 88.7668 66.5013 88.853C66.266 88.9392 66.0771 89.0634 65.9346 89.2259C65.7954 89.3849 65.7258 89.5971 65.7258 89.8622C65.7258 90.2301 65.8616 90.5085 66.1334 90.6974C66.4052 90.883 66.7516 90.9759 67.1725 90.9759ZM73.8182 87.4659V92H72.3317V84.3636H73.7586V85.6065H73.853C74.0287 85.2022 74.3038 84.8774 74.6783 84.6321C75.0562 84.3868 75.5318 84.2642 76.1052 84.2642C76.6255 84.2642 77.0813 84.3736 77.4724 84.5923C77.8635 84.8078 78.1667 85.1293 78.3822 85.5568C78.5976 85.9844 78.7053 86.513 78.7053 87.1428V92H77.2188V87.3217C77.2188 86.7682 77.0746 86.3357 76.7863 86.0241C76.4979 85.7093 76.1019 85.5518 75.5981 85.5518C75.2534 85.5518 74.9468 85.6264 74.6783 85.7756C74.4132 85.9247 74.2027 86.1435 74.0469 86.4318C73.8945 86.7169 73.8182 87.0616 73.8182 87.4659ZM83.6495 92.1541C82.9104 92.1541 82.2741 91.9867 81.7405 91.652C81.2101 91.3139 80.8025 90.8482 80.5174 90.255C80.2324 89.6617 80.0899 88.9822 80.0899 88.2166C80.0899 87.4411 80.2357 86.7566 80.5274 86.1634C80.819 85.5668 81.23 85.1011 81.7603 84.7663C82.2906 84.4316 82.9154 84.2642 83.6346 84.2642C84.2146 84.2642 84.7317 84.3719 85.1858 84.5874C85.6398 84.7995 86.0061 85.0978 86.2845 85.4822C86.5662 85.8667 86.7336 86.3158 86.7866 86.8295H85.3399C85.2603 86.4716 85.078 86.1634 84.793 85.9048C84.5113 85.6463 84.1334 85.517 83.6595 85.517C83.2452 85.517 82.8823 85.6264 82.5707 85.8452C82.2625 86.0606 82.0222 86.3688 81.8498 86.7699C81.6775 87.1676 81.5913 87.6383 81.5913 88.1818C81.5913 88.7386 81.6758 89.2192 81.8449 89.6236C82.0139 90.0279 82.2525 90.3411 82.5608 90.5632C82.8723 90.7853 83.2386 90.8963 83.6595 90.8963C83.9412 90.8963 84.1964 90.8449 84.4251 90.7422C84.6571 90.6361 84.851 90.4853 85.0068 90.2898C85.1659 90.0942 85.2769 89.8589 85.3399 89.5838H86.7866C86.7336 90.0777 86.5728 90.5185 86.3044 90.9062C86.0359 91.294 85.6763 91.599 85.2255 91.821C84.7781 92.0431 84.2528 92.1541 83.6495 92.1541ZM91.4015 92.1541C90.6491 92.1541 90.0011 91.9934 89.4576 91.6719C88.9173 91.3471 88.4997 90.8913 88.2047 90.3047C87.9131 89.7147 87.7672 89.0237 87.7672 88.2315C87.7672 87.4493 87.9131 86.7599 88.2047 86.1634C88.4997 85.5668 88.9107 85.1011 89.4377 84.7663C89.968 84.4316 90.5878 84.2642 91.2971 84.2642C91.7279 84.2642 92.1456 84.3355 92.5499 84.478C92.9543 84.6205 93.3172 84.8442 93.6387 85.1491C93.9602 85.4541 94.2137 85.8501 94.3993 86.3374C94.585 86.8213 94.6778 87.4096 94.6778 88.1023V88.6293H88.6074V87.5156H93.2211C93.2211 87.1245 93.1415 86.7782 92.9824 86.4766C92.8234 86.1716 92.5996 85.9313 92.3113 85.7557C92.0262 85.58 91.6915 85.4922 91.307 85.4922C90.8894 85.4922 90.5248 85.5949 90.2133 85.8004C89.905 86.0026 89.6664 86.2678 89.4974 86.5959C89.3316 86.9207 89.2488 87.2737 89.2488 87.6548V88.5249C89.2488 89.0353 89.3383 89.4695 89.5172 89.8274C89.6995 90.1854 89.9531 90.4588 90.2779 90.6477C90.6027 90.8333 90.9822 90.9261 91.4164 90.9261C91.6981 90.9261 91.955 90.8864 92.187 90.8068C92.419 90.724 92.6195 90.6013 92.7885 90.4389C92.9576 90.2765 93.0868 90.076 93.1763 89.8374L94.5833 90.0909C94.4706 90.5052 94.2684 90.8681 93.9768 91.1797C93.6884 91.4879 93.3255 91.7282 92.888 91.9006C92.4538 92.0696 91.9583 92.1541 91.4015 92.1541ZM97.0405 92.0945C96.7687 92.0945 96.535 91.9983 96.3395 91.8061C96.1439 91.6106 96.0462 91.3752 96.0462 91.1001C96.0462 90.8284 96.1439 90.5964 96.3395 90.4041C96.535 90.2086 96.7687 90.1108 97.0405 90.1108C97.3123 90.1108 97.5459 90.2086 97.7415 90.4041C97.937 90.5964 98.0348 90.8284 98.0348 91.1001C98.0348 91.2824 97.9884 91.4498 97.8956 91.6023C97.8061 91.7514 97.6868 91.8707 97.5376 91.9602C97.3885 92.0497 97.2228 92.0945 97.0405 92.0945ZM97.0405 86.5362C96.7687 86.5362 96.535 86.4384 96.3395 86.2429C96.1439 86.0473 96.0462 85.8137 96.0462 85.5419C96.0462 85.2701 96.1439 85.0381 96.3395 84.8459C96.535 84.6503 96.7687 84.5526 97.0405 84.5526C97.3123 84.5526 97.5459 84.6503 97.7415 84.8459C97.937 85.0381 98.0348 85.2701 98.0348 85.5419C98.0348 85.7242 97.9884 85.8916 97.8956 86.044C97.8061 86.1932 97.6868 86.3125 97.5376 86.402C97.3885 86.4915 97.2228 86.5362 97.0405 86.5362ZM103.179 92V90.8864L106.624 87.3168C106.992 86.929 107.296 86.5893 107.534 86.2976C107.776 86.0026 107.957 85.7225 108.076 85.4574C108.195 85.1922 108.255 84.9105 108.255 84.6122C108.255 84.2741 108.176 83.9825 108.016 83.7372C107.857 83.4886 107.64 83.2981 107.365 83.1655C107.09 83.0296 106.78 82.9616 106.436 82.9616C106.071 82.9616 105.753 83.0362 105.481 83.1854C105.209 83.3345 105 83.545 104.855 83.8168C104.709 84.0885 104.636 84.4067 104.636 84.7713H103.169C103.169 84.1515 103.312 83.6096 103.597 83.1456C103.882 82.6816 104.273 82.322 104.77 82.0668C105.267 81.8082 105.832 81.679 106.465 81.679C107.105 81.679 107.668 81.8066 108.156 82.0618C108.646 82.3137 109.029 82.6584 109.304 83.0959C109.579 83.5301 109.717 84.0206 109.717 84.5675C109.717 84.9453 109.645 85.3149 109.503 85.6761C109.364 86.0374 109.12 86.4401 108.772 86.8842C108.424 87.325 107.94 87.8603 107.32 88.4901L105.297 90.608V90.6825H109.881V92H103.179ZM115.077 92V81.8182H118.806C119.529 81.8182 120.127 81.9375 120.601 82.1761C121.075 82.4115 121.429 82.7313 121.665 83.1357C121.9 83.5367 122.018 83.9891 122.018 84.4929C122.018 84.9171 121.94 85.2751 121.784 85.5668C121.628 85.8551 121.419 86.0871 121.158 86.2628C120.899 86.4351 120.614 86.5611 120.302 86.6406V86.7401C120.641 86.7566 120.97 86.866 121.292 87.0682C121.617 87.267 121.885 87.5504 122.097 87.9183C122.309 88.2862 122.415 88.7337 122.415 89.2607C122.415 89.781 122.293 90.2483 122.048 90.6626C121.806 91.0736 121.431 91.4001 120.924 91.642C120.417 91.8807 119.769 92 118.98 92H115.077ZM116.614 90.6825H118.831C119.567 90.6825 120.094 90.54 120.412 90.255C120.73 89.9699 120.889 89.6136 120.889 89.1861C120.889 88.8646 120.808 88.5696 120.646 88.3011C120.483 88.0327 120.251 87.8189 119.949 87.6598C119.651 87.5007 119.297 87.4212 118.886 87.4212H116.614V90.6825ZM116.614 86.223H118.672C119.016 86.223 119.326 86.1567 119.601 86.0241C119.88 85.8916 120.1 85.706 120.263 85.4673C120.428 85.2254 120.511 84.9403 120.511 84.6122C120.511 84.1913 120.364 83.8383 120.069 83.5533C119.774 83.2682 119.321 83.1257 118.712 83.1257H116.614V86.223ZM123.469 83.1406V81.8182H131.349V83.1406H128.172V92H126.641V83.1406H123.469ZM140.844 85.1293H139.293C139.233 84.7978 139.122 84.5062 138.96 84.2543C138.797 84.0024 138.598 83.7886 138.363 83.6129C138.128 83.4373 137.864 83.3047 137.573 83.2152C137.284 83.1257 136.978 83.081 136.653 83.081C136.066 83.081 135.541 83.2285 135.077 83.5234C134.616 83.8184 134.251 84.2509 133.983 84.821C133.718 85.3911 133.585 86.0871 133.585 86.9091C133.585 87.7377 133.718 88.437 133.983 89.0071C134.251 89.5772 134.618 90.008 135.082 90.2997C135.546 90.5914 136.068 90.7372 136.648 90.7372C136.969 90.7372 137.274 90.6941 137.563 90.608C137.854 90.5185 138.118 90.3875 138.353 90.2152C138.588 90.0429 138.787 89.8324 138.95 89.5838C139.115 89.3319 139.23 89.0436 139.293 88.7188L140.844 88.7237C140.761 89.2242 140.6 89.6849 140.362 90.1058C140.126 90.5234 139.823 90.8847 139.452 91.1896C139.084 91.4912 138.663 91.7249 138.189 91.8906C137.715 92.0563 137.198 92.1392 136.638 92.1392C135.756 92.1392 134.971 91.9304 134.281 91.5128C133.592 91.0919 133.048 90.4903 132.651 89.7081C132.256 88.9259 132.059 87.9929 132.059 86.9091C132.059 85.822 132.258 84.889 132.656 84.1101C133.053 83.3279 133.597 82.728 134.286 82.3104C134.976 81.8894 135.76 81.679 136.638 81.679C137.178 81.679 137.682 81.7569 138.149 81.9126C138.62 82.0651 139.042 82.2905 139.417 82.5888C139.791 82.8838 140.101 83.245 140.347 83.6726C140.592 84.0968 140.758 84.5824 140.844 85.1293Z" fill="#888888"/>
<path d="M588.577 92V81.8182H592.306C593.028 81.8182 593.627 81.9375 594.101 82.1761C594.575 82.4115 594.929 82.7313 595.165 83.1357C595.4 83.5367 595.518 83.9891 595.518 84.4929C595.518 84.9171 595.44 85.2751 595.284 85.5668C595.128 85.8551 594.919 86.0871 594.658 86.2628C594.399 86.4351 594.114 86.5611 593.802 86.6406V86.7401C594.14 86.7566 594.47 86.866 594.792 87.0682C595.117 87.267 595.385 87.5504 595.597 87.9183C595.809 88.2862 595.915 88.7337 595.915 89.2607C595.915 89.781 595.793 90.2483 595.547 90.6626C595.305 91.0736 594.931 91.4001 594.424 91.642C593.917 91.8807 593.269 92 592.48 92H588.577ZM590.113 90.6825H592.331C593.067 90.6825 593.594 90.54 593.912 90.255C594.23 89.9699 594.389 89.6136 594.389 89.1861C594.389 88.8646 594.308 88.5696 594.145 88.3011C593.983 88.0327 593.751 87.8189 593.449 87.6598C593.151 87.5007 592.796 87.4212 592.385 87.4212H590.113V90.6825ZM590.113 86.223H592.172C592.516 86.223 592.826 86.1567 593.101 86.0241C593.38 85.8916 593.6 85.706 593.763 85.4673C593.928 85.2254 594.011 84.9403 594.011 84.6122C594.011 84.1913 593.864 83.8383 593.569 83.5533C593.274 83.2682 592.821 83.1257 592.211 83.1257H590.113V86.223ZM600.569 92.1541C599.853 92.1541 599.228 91.9901 598.694 91.6619C598.161 91.3338 597.747 90.8748 597.452 90.2848C597.157 89.6948 597.009 89.0054 597.009 88.2166C597.009 87.4245 597.157 86.7318 597.452 86.1385C597.747 85.5452 598.161 85.0845 598.694 84.7564C599.228 84.4283 599.853 84.2642 600.569 84.2642C601.285 84.2642 601.909 84.4283 602.443 84.7564C602.977 85.0845 603.391 85.5452 603.686 86.1385C603.981 86.7318 604.128 87.4245 604.128 88.2166C604.128 89.0054 603.981 89.6948 603.686 90.2848C603.391 90.8748 602.977 91.3338 602.443 91.6619C601.909 91.9901 601.285 92.1541 600.569 92.1541ZM600.574 90.9062C601.038 90.9062 601.422 90.7836 601.727 90.5384C602.032 90.2931 602.257 89.9666 602.403 89.5589C602.552 89.1513 602.627 88.7022 602.627 88.2116C602.627 87.7244 602.552 87.277 602.403 86.8693C602.257 86.4583 602.032 86.1286 601.727 85.88C601.422 85.6314 601.038 85.5071 600.574 85.5071C600.106 85.5071 599.719 85.6314 599.41 85.88C599.105 86.1286 598.878 86.4583 598.729 86.8693C598.583 87.277 598.51 87.7244 598.51 88.2116C598.51 88.7022 598.583 89.1513 598.729 89.5589C598.878 89.9666 599.105 90.2931 599.41 90.5384C599.719 90.7836 600.106 90.9062 600.574 90.9062ZM605.641 92V81.8182H607.127V85.6016H607.217C607.303 85.4425 607.427 85.2585 607.59 85.0497C607.752 84.8409 607.978 84.6586 608.266 84.5028C608.554 84.3438 608.935 84.2642 609.409 84.2642C610.026 84.2642 610.576 84.42 611.06 84.7315C611.544 85.0431 611.923 85.4922 612.198 86.0788C612.477 86.6655 612.616 87.3714 612.616 88.1967C612.616 89.022 612.479 89.7296 612.203 90.3196C611.928 90.9062 611.551 91.3587 611.07 91.6768C610.589 91.9917 610.041 92.1491 609.424 92.1491C608.96 92.1491 608.581 92.0713 608.286 91.9155C607.994 91.7597 607.765 91.5774 607.6 91.3686C607.434 91.1598 607.306 90.9742 607.217 90.8118H607.093V92H605.641ZM607.098 88.1818C607.098 88.7187 607.176 89.1894 607.331 89.5938C607.487 89.9981 607.712 90.3146 608.007 90.5433C608.302 90.7687 608.664 90.8814 609.091 90.8814C609.535 90.8814 609.907 90.7637 610.205 90.5284C610.503 90.2898 610.729 89.9666 610.881 89.5589C611.037 89.1513 611.115 88.6922 611.115 88.1818C611.115 87.678 611.038 87.2256 610.886 86.8246C610.737 86.4235 610.511 86.107 610.21 85.875C609.912 85.643 609.539 85.527 609.091 85.527C608.66 85.527 608.296 85.638 607.997 85.8601C607.703 86.0821 607.479 86.392 607.326 86.7898C607.174 87.1875 607.098 87.6515 607.098 88.1818ZM615.297 81.8182V82.7727C615.297 83.0545 615.244 83.3511 615.138 83.6626C615.035 83.9709 614.889 84.2675 614.7 84.5526C614.511 84.8376 614.289 85.0829 614.034 85.2884L613.298 84.7614C613.494 84.4763 613.663 84.1731 613.806 83.8516C613.951 83.5301 614.024 83.1754 614.024 82.7876V81.8182H615.297ZM621.226 86.228L619.878 86.4666C619.822 86.2943 619.732 86.1302 619.61 85.9744C619.491 85.8187 619.328 85.6911 619.123 85.5916C618.917 85.4922 618.66 85.4425 618.352 85.4425C617.931 85.4425 617.58 85.5369 617.298 85.7259C617.016 85.9115 616.875 86.1518 616.875 86.4467C616.875 86.7019 616.97 86.9074 617.159 87.0632C617.348 87.219 617.653 87.3466 618.074 87.446L619.287 87.7244C619.989 87.8868 620.513 88.1371 620.858 88.4751C621.202 88.8132 621.375 89.2524 621.375 89.7926C621.375 90.25 621.242 90.6577 620.977 91.0156C620.715 91.3703 620.349 91.6487 619.878 91.8509C619.411 92.053 618.869 92.1541 618.253 92.1541C617.397 92.1541 616.7 91.9718 616.16 91.6072C615.619 91.2393 615.288 90.7173 615.165 90.0412L616.602 89.8224C616.692 90.197 616.875 90.4804 617.154 90.6726C617.432 90.8615 617.795 90.956 618.243 90.956C618.73 90.956 619.119 90.8549 619.411 90.6527C619.703 90.4472 619.848 90.197 619.848 89.902C619.848 89.6634 619.759 89.4628 619.58 89.3004C619.404 89.138 619.134 89.0154 618.77 88.9325L617.477 88.6491C616.764 88.4867 616.237 88.2282 615.896 87.8736C615.558 87.5189 615.389 87.0698 615.389 86.5263C615.389 86.0755 615.515 85.6811 615.767 85.343C616.019 85.005 616.367 84.7415 616.811 84.5526C617.255 84.3603 617.764 84.2642 618.337 84.2642C619.162 84.2642 619.812 84.4432 620.286 84.8011C620.76 85.1558 621.073 85.6314 621.226 86.228ZM626.302 92V81.8182H627.788V85.6016H627.878C627.964 85.4425 628.088 85.2585 628.25 85.0497C628.413 84.8409 628.638 84.6586 628.927 84.5028C629.215 84.3438 629.596 84.2642 630.07 84.2642C630.687 84.2642 631.237 84.42 631.721 84.7315C632.204 85.0431 632.584 85.4922 632.859 86.0788C633.137 86.6655 633.277 87.3714 633.277 88.1967C633.277 89.022 633.139 89.7296 632.864 90.3196C632.589 90.9062 632.211 91.3587 631.731 91.6768C631.25 91.9917 630.701 92.1491 630.085 92.1491C629.621 92.1491 629.241 92.0713 628.946 91.9155C628.655 91.7597 628.426 91.5774 628.26 91.3686C628.095 91.1598 627.967 90.9742 627.878 90.8118H627.753V92H626.302ZM627.758 88.1818C627.758 88.7187 627.836 89.1894 627.992 89.5938C628.148 89.9981 628.373 90.3146 628.668 90.5433C628.963 90.7687 629.324 90.8814 629.752 90.8814C630.196 90.8814 630.567 90.7637 630.865 90.5284C631.164 90.2898 631.389 89.9666 631.542 89.5589C631.697 89.1513 631.775 88.6922 631.775 88.1818C631.775 87.678 631.699 87.2256 631.547 86.8246C631.397 86.4235 631.172 86.107 630.87 85.875C630.572 85.643 630.199 85.527 629.752 85.527C629.321 85.527 628.956 85.638 628.658 85.8601C628.363 86.0821 628.139 86.392 627.987 86.7898C627.834 87.1875 627.758 87.6515 627.758 88.1818ZM636.902 92.169C636.418 92.169 635.981 92.0795 635.59 91.9006C635.199 91.7183 634.889 91.4548 634.66 91.1101C634.435 90.7654 634.322 90.3428 634.322 89.8423C634.322 89.4115 634.405 89.0568 634.571 88.7784C634.736 88.5 634.96 88.2796 635.242 88.1172C635.523 87.9548 635.838 87.8321 636.186 87.7493C636.534 87.6664 636.889 87.6035 637.25 87.5604C637.708 87.5073 638.079 87.4643 638.364 87.4311C638.649 87.3946 638.856 87.3366 638.985 87.2571C639.115 87.1776 639.179 87.0483 639.179 86.8693V86.8345C639.179 86.4003 639.057 86.0639 638.811 85.8253C638.569 85.5866 638.208 85.4673 637.728 85.4673C637.227 85.4673 636.833 85.5784 636.544 85.8004C636.259 86.0192 636.062 86.2628 635.953 86.5312L634.556 86.2131C634.721 85.7491 634.963 85.3745 635.281 85.0895C635.603 84.8011 635.973 84.5923 636.39 84.4631C636.808 84.3305 637.247 84.2642 637.708 84.2642C638.013 84.2642 638.336 84.3007 638.677 84.3736C639.022 84.4432 639.343 84.5724 639.642 84.7614C639.943 84.9503 640.19 85.2204 640.382 85.5717C640.575 85.9197 640.671 86.3722 640.671 86.929V92H639.219V90.956H639.159C639.063 91.1482 638.919 91.3371 638.727 91.5227C638.535 91.7083 638.288 91.8625 637.986 91.9851C637.684 92.1077 637.323 92.169 636.902 92.169ZM637.225 90.9759C637.636 90.9759 637.988 90.8946 638.279 90.7322C638.574 90.5698 638.798 90.3577 638.951 90.0959C639.106 89.8307 639.184 89.5473 639.184 89.2457V88.2614C639.131 88.3144 639.028 88.3641 638.876 88.4105C638.727 88.4536 638.556 88.4917 638.364 88.5249C638.172 88.5547 637.984 88.5829 637.802 88.6094C637.62 88.6326 637.467 88.6525 637.345 88.669C637.056 88.7055 636.793 88.7668 636.554 88.853C636.319 88.9392 636.13 89.0634 635.987 89.2259C635.848 89.3849 635.779 89.5971 635.779 89.8622C635.779 90.2301 635.915 90.5085 636.186 90.6974C636.458 90.883 636.804 90.9759 637.225 90.9759ZM643.871 81.8182V92H642.385V81.8182H643.871ZM647.827 92.169C647.343 92.169 646.906 92.0795 646.515 91.9006C646.124 91.7183 645.814 91.4548 645.585 91.1101C645.36 90.7654 645.247 90.3428 645.247 89.8423C645.247 89.4115 645.33 89.0568 645.496 88.7784C645.661 88.5 645.885 88.2796 646.167 88.1172C646.448 87.9548 646.763 87.8321 647.111 87.7493C647.459 87.6664 647.814 87.6035 648.175 87.5604C648.633 87.5073 649.004 87.4643 649.289 87.4311C649.574 87.3946 649.781 87.3366 649.91 87.2571C650.04 87.1776 650.104 87.0483 650.104 86.8693V86.8345C650.104 86.4003 649.982 86.0639 649.736 85.8253C649.494 85.5866 649.133 85.4673 648.653 85.4673C648.152 85.4673 647.758 85.5784 647.469 85.8004C647.184 86.0192 646.987 86.2628 646.878 86.5312L645.481 86.2131C645.646 85.7491 645.888 85.3745 646.207 85.0895C646.528 84.8011 646.898 84.5923 647.315 84.4631C647.733 84.3305 648.172 84.2642 648.633 84.2642C648.938 84.2642 649.261 84.3007 649.602 84.3736C649.947 84.4432 650.268 84.5724 650.567 84.7614C650.868 84.9503 651.115 85.2204 651.307 85.5717C651.5 85.9197 651.596 86.3722 651.596 86.929V92H650.144V90.956H650.084C649.988 91.1482 649.844 91.3371 649.652 91.5227C649.46 91.7083 649.213 91.8625 648.911 91.9851C648.609 92.1077 648.248 92.169 647.827 92.169ZM648.15 90.9759C648.561 90.9759 648.913 90.8946 649.204 90.7322C649.499 90.5698 649.723 90.3577 649.876 90.0959C650.031 89.8307 650.109 89.5473 650.109 89.2457V88.2614C650.056 88.3144 649.953 88.3641 649.801 88.4105C649.652 88.4536 649.481 88.4917 649.289 88.5249C649.097 88.5547 648.909 88.5829 648.727 88.6094C648.545 88.6326 648.392 88.6525 648.27 88.669C647.981 88.7055 647.718 88.7668 647.479 88.853C647.244 88.9392 647.055 89.0634 646.912 89.2259C646.773 89.3849 646.704 89.5971 646.704 89.8622C646.704 90.2301 646.84 90.5085 647.111 90.6974C647.383 90.883 647.729 90.9759 648.15 90.9759ZM654.796 87.4659V92H653.31V84.3636H654.736V85.6065H654.831C655.007 85.2022 655.282 84.8774 655.656 84.6321C656.034 84.3868 656.51 84.2642 657.083 84.2642C657.603 84.2642 658.059 84.3736 658.45 84.5923C658.841 84.8078 659.145 85.1293 659.36 85.5568C659.576 85.9844 659.683 86.513 659.683 87.1428V92H658.197V87.3217C658.197 86.7682 658.053 86.3357 657.764 86.0241C657.476 85.7093 657.08 85.5518 656.576 85.5518C656.231 85.5518 655.925 85.6264 655.656 85.7756C655.391 85.9247 655.181 86.1435 655.025 86.4318C654.872 86.7169 654.796 87.0616 654.796 87.4659ZM664.627 92.1541C663.888 92.1541 663.252 91.9867 662.718 91.652C662.188 91.3139 661.78 90.8482 661.495 90.255C661.21 89.6617 661.068 88.9822 661.068 88.2166C661.068 87.4411 661.214 86.7566 661.505 86.1634C661.797 85.5668 662.208 85.1011 662.738 84.7663C663.269 84.4316 663.893 84.2642 664.613 84.2642C665.193 84.2642 665.71 84.3719 666.164 84.5874C666.618 84.7995 666.984 85.0978 667.262 85.4822C667.544 85.8667 667.711 86.3158 667.765 86.8295H666.318C666.238 86.4716 666.056 86.1634 665.771 85.9048C665.489 85.6463 665.111 85.517 664.637 85.517C664.223 85.517 663.86 85.6264 663.549 85.8452C663.24 86.0606 663 86.3688 662.828 86.7699C662.655 87.1676 662.569 87.6383 662.569 88.1818C662.569 88.7386 662.654 89.2192 662.823 89.6236C662.992 90.0279 663.23 90.3411 663.539 90.5632C663.85 90.7853 664.216 90.8963 664.637 90.8963C664.919 90.8963 665.174 90.8449 665.403 90.7422C665.635 90.6361 665.829 90.4853 665.985 90.2898C666.144 90.0942 666.255 89.8589 666.318 89.5838H667.765C667.711 90.0777 667.551 90.5185 667.282 90.9062C667.014 91.294 666.654 91.599 666.203 91.821C665.756 92.0431 665.231 92.1541 664.627 92.1541ZM672.379 92.1541C671.627 92.1541 670.979 91.9934 670.435 91.6719C669.895 91.3471 669.478 90.8913 669.183 90.3047C668.891 89.7147 668.745 89.0237 668.745 88.2315C668.745 87.4493 668.891 86.7599 669.183 86.1634C669.478 85.5668 669.889 85.1011 670.416 84.7663C670.946 84.4316 671.566 84.2642 672.275 84.2642C672.706 84.2642 673.123 84.3355 673.528 84.478C673.932 84.6205 674.295 84.8442 674.617 85.1491C674.938 85.4541 675.192 85.8501 675.377 86.3374C675.563 86.8213 675.656 87.4096 675.656 88.1023V88.6293H669.585V87.5156H674.199C674.199 87.1245 674.119 86.7782 673.96 86.4766C673.801 86.1716 673.578 85.9313 673.289 85.7557C673.004 85.58 672.669 85.4922 672.285 85.4922C671.867 85.4922 671.503 85.5949 671.191 85.8004C670.883 86.0026 670.644 86.2678 670.475 86.5959C670.31 86.9207 670.227 87.2737 670.227 87.6548V88.5249C670.227 89.0353 670.316 89.4695 670.495 89.8274C670.677 90.1854 670.931 90.4588 671.256 90.6477C671.581 90.8333 671.96 90.9261 672.394 90.9261C672.676 90.9261 672.933 90.8864 673.165 90.8068C673.397 90.724 673.597 90.6013 673.766 90.4389C673.935 90.2765 674.065 90.076 674.154 89.8374L675.561 90.0909C675.449 90.5052 675.246 90.8681 674.955 91.1797C674.666 91.4879 674.303 91.7282 673.866 91.9006C673.432 92.0696 672.936 92.1541 672.379 92.1541ZM678.018 92.0945C677.747 92.0945 677.513 91.9983 677.317 91.8061C677.122 91.6106 677.024 91.3752 677.024 91.1001C677.024 90.8284 677.122 90.5964 677.317 90.4041C677.513 90.2086 677.747 90.1108 678.018 90.1108C678.29 90.1108 678.524 90.2086 678.719 90.4041C678.915 90.5964 679.013 90.8284 679.013 91.1001C679.013 91.2824 678.966 91.4498 678.874 91.6023C678.784 91.7514 678.665 91.8707 678.516 91.9602C678.366 92.0497 678.201 92.0945 678.018 92.0945ZM678.018 86.5362C677.747 86.5362 677.513 86.4384 677.317 86.2429C677.122 86.0473 677.024 85.8137 677.024 85.5419C677.024 85.2701 677.122 85.0381 677.317 84.8459C677.513 84.6503 677.747 84.5526 678.018 84.5526C678.29 84.5526 678.524 84.6503 678.719 84.8459C678.915 85.0381 679.013 85.2701 679.013 85.5419C679.013 85.7242 678.966 85.8916 678.874 86.044C678.784 86.1932 678.665 86.3125 678.516 86.402C678.366 86.4915 678.201 86.5362 678.018 86.5362ZM684.157 92V90.8864L687.602 87.3168C687.97 86.929 688.274 86.5893 688.512 86.2976C688.754 86.0026 688.935 85.7225 689.054 85.4574C689.173 85.1922 689.233 84.9105 689.233 84.6122C689.233 84.2741 689.153 83.9825 688.994 83.7372C688.835 83.4886 688.618 83.2981 688.343 83.1655C688.068 83.0296 687.758 82.9616 687.413 82.9616C687.049 82.9616 686.731 83.0362 686.459 83.1854C686.187 83.3345 685.978 83.545 685.832 83.8168C685.687 84.0885 685.614 84.4067 685.614 84.7713H684.147C684.147 84.1515 684.29 83.6096 684.575 83.1456C684.86 82.6816 685.251 82.322 685.748 82.0668C686.245 81.8082 686.81 81.679 687.443 81.679C688.083 81.679 688.646 81.8066 689.134 82.0618C689.624 82.3137 690.007 82.6584 690.282 83.0959C690.557 83.5301 690.695 84.0206 690.695 84.5675C690.695 84.9453 690.623 85.3149 690.481 85.6761C690.342 86.0374 690.098 86.4401 689.75 86.8842C689.402 87.325 688.918 87.8603 688.298 88.4901L686.275 90.608V90.6825H690.859V92H684.157ZM696.055 92V81.8182H699.784C700.506 81.8182 701.105 81.9375 701.579 82.1761C702.053 82.4115 702.407 82.7313 702.643 83.1357C702.878 83.5367 702.996 83.9891 702.996 84.4929C702.996 84.9171 702.918 85.2751 702.762 85.5668C702.606 85.8551 702.397 86.0871 702.136 86.2628C701.877 86.4351 701.592 86.5611 701.28 86.6406V86.7401C701.618 86.7566 701.948 86.866 702.27 87.0682C702.595 87.267 702.863 87.5504 703.075 87.9183C703.287 88.2862 703.393 88.7337 703.393 89.2607C703.393 89.781 703.271 90.2483 703.025 90.6626C702.783 91.0736 702.409 91.4001 701.902 91.642C701.395 91.8807 700.747 92 699.958 92H696.055ZM697.591 90.6825H699.809C700.545 90.6825 701.072 90.54 701.39 90.255C701.708 89.9699 701.867 89.6136 701.867 89.1861C701.867 88.8646 701.786 88.5696 701.623 88.3011C701.461 88.0327 701.229 87.8189 700.927 87.6598C700.629 87.5007 700.274 87.4212 699.863 87.4212H697.591V90.6825ZM697.591 86.223H699.65C699.994 86.223 700.304 86.1567 700.579 86.0241C700.858 85.8916 701.078 85.706 701.241 85.4673C701.406 85.2254 701.489 84.9403 701.489 84.6122C701.489 84.1913 701.342 83.8383 701.047 83.5533C700.752 83.2682 700.299 83.1257 699.689 83.1257H697.591V86.223ZM704.447 83.1406V81.8182H712.327V83.1406H709.15V92H707.619V83.1406H704.447ZM721.822 85.1293H720.271C720.211 84.7978 720.1 84.5062 719.937 84.2543C719.775 84.0024 719.576 83.7886 719.341 83.6129C719.106 83.4373 718.842 83.3047 718.55 83.2152C718.262 83.1257 717.955 83.081 717.631 83.081C717.044 83.081 716.519 83.2285 716.055 83.5234C715.594 83.8184 715.229 84.2509 714.961 84.821C714.696 85.3911 714.563 86.0871 714.563 86.9091C714.563 87.7377 714.696 88.437 714.961 89.0071C715.229 89.5772 715.596 90.008 716.06 90.2997C716.524 90.5914 717.046 90.7372 717.626 90.7372C717.947 90.7372 718.252 90.6941 718.54 90.608C718.832 90.5185 719.096 90.3875 719.331 90.2152C719.566 90.0429 719.765 89.8324 719.928 89.5838C720.093 89.3319 720.208 89.0436 720.271 88.7188L721.822 88.7237C721.739 89.2242 721.578 89.6849 721.339 90.1058C721.104 90.5234 720.801 90.8847 720.43 91.1896C720.062 91.4912 719.641 91.7249 719.167 91.8906C718.693 92.0563 718.176 92.1392 717.616 92.1392C716.734 92.1392 715.949 91.9304 715.259 91.5128C714.57 91.0919 714.026 90.4903 713.629 89.7081C713.234 88.9259 713.037 87.9929 713.037 86.9091C713.037 85.822 713.236 84.889 713.634 84.1101C714.031 83.3279 714.575 82.728 715.264 82.3104C715.954 81.8894 716.737 81.679 717.616 81.679C718.156 81.679 718.66 81.7569 719.127 81.9126C719.598 82.0651 720.02 82.2905 720.395 82.5888C720.769 82.8838 721.079 83.245 721.325 83.6726C721.57 84.0968 721.736 84.5824 721.822 85.1293Z" fill="#888888"/>
</svg>
