<svg width="722" height="130" viewBox="0 0 722 130" fill="none" xmlns="http://www.w3.org/2000/svg">
<path d="M37 66H687" stroke="#888888" stroke-width="2"/>
<circle cx="37" cy="66" r="32" fill="#DBF0FF" stroke="#0D99FF" stroke-width="2"/>
<circle opacity="0.2" cx="103" cy="66" r="32" fill="#DBF0FF" stroke="#0D99FF" stroke-width="2"/>
<circle cx="687" cy="66" r="32" fill="#FFF8DF" stroke="#FFA629" stroke-width="2"/>
<circle cx="621" cy="66" r="32" fill="#FFF8DF" stroke="#FFA629" stroke-width="2"/>
<path d="M2.39962 125H0.76894L4.433 114.818H6.20786L9.87192 125H8.24124L5.36269 116.668H5.28315L2.39962 125ZM2.67306 121.013H7.96283V122.305H2.67306V121.013ZM12.4435 114.818V125H10.957V114.818H12.4435ZM14.1773 125V117.364H15.6638V125H14.1773ZM14.928 116.185C14.6695 116.185 14.4474 116.099 14.2618 115.927C14.0795 115.751 13.9884 115.542 13.9884 115.3C13.9884 115.055 14.0795 114.846 14.2618 114.674C14.4474 114.498 14.6695 114.411 14.928 114.411C15.1865 114.411 15.4069 114.498 15.5892 114.674C15.7748 114.846 15.8676 115.055 15.8676 115.3C15.8676 115.542 15.7748 115.751 15.5892 115.927C15.4069 116.099 15.1865 116.185 14.928 116.185ZM20.6142 125.154C19.8751 125.154 19.2388 124.987 18.7051 124.652C18.1748 124.314 17.7672 123.848 17.4821 123.255C17.1971 122.662 17.0546 121.982 17.0546 121.217C17.0546 120.441 17.2004 119.757 17.4921 119.163C17.7837 118.567 18.1947 118.101 18.725 117.766C19.2553 117.432 19.8801 117.264 20.5993 117.264C21.1793 117.264 21.6964 117.372 22.1505 117.587C22.6045 117.799 22.9708 118.098 23.2492 118.482C23.5309 118.867 23.6983 119.316 23.7513 119.83H22.3046C22.225 119.472 22.0427 119.163 21.7577 118.905C21.476 118.646 21.0981 118.517 20.6242 118.517C20.2099 118.517 19.8469 118.626 19.5354 118.845C19.2272 119.061 18.9869 119.369 18.8145 119.77C18.6422 120.168 18.556 120.638 18.556 121.182C18.556 121.739 18.6405 122.219 18.8095 122.624C18.9786 123.028 19.2172 123.341 19.5255 123.563C19.837 123.785 20.2032 123.896 20.6242 123.896C20.9059 123.896 21.1611 123.845 21.3898 123.742C21.6218 123.636 21.8157 123.485 21.9715 123.29C22.1306 123.094 22.2416 122.859 22.3046 122.584H23.7513C23.6983 123.078 23.5375 123.518 23.2691 123.906C23.0006 124.294 22.641 124.599 22.1902 124.821C21.7428 125.043 21.2174 125.154 20.6142 125.154ZM28.3662 125.154C27.6138 125.154 26.9658 124.993 26.4223 124.672C25.882 124.347 25.4644 123.891 25.1694 123.305C24.8778 122.715 24.7319 122.024 24.7319 121.232C24.7319 120.449 24.8778 119.76 25.1694 119.163C25.4644 118.567 25.8754 118.101 26.4024 117.766C26.9327 117.432 27.5525 117.264 28.2618 117.264C28.6926 117.264 29.1102 117.335 29.5146 117.478C29.919 117.621 30.2819 117.844 30.6034 118.149C30.9249 118.454 31.1784 118.85 31.364 119.337C31.5496 119.821 31.6424 120.41 31.6424 121.102V121.629H25.5721V120.516H30.1858C30.1858 120.125 30.1062 119.778 29.9471 119.477C29.788 119.172 29.5643 118.931 29.276 118.756C28.9909 118.58 28.6562 118.492 28.2717 118.492C27.8541 118.492 27.4895 118.595 27.178 118.8C26.8697 119.003 26.6311 119.268 26.462 119.596C26.2963 119.921 26.2135 120.274 26.2135 120.655V121.525C26.2135 122.035 26.303 122.469 26.4819 122.827C26.6642 123.185 26.9178 123.459 27.2426 123.648C27.5674 123.833 27.9469 123.926 28.3811 123.926C28.6628 123.926 28.9197 123.886 29.1517 123.807C29.3837 123.724 29.5842 123.601 29.7532 123.439C29.9223 123.277 30.0515 123.076 30.141 122.837L31.548 123.091C31.4353 123.505 31.2331 123.868 30.9414 124.18C30.6531 124.488 30.2902 124.728 29.8527 124.901C29.4185 125.07 28.923 125.154 28.3662 125.154ZM34.3035 114.818V115.773C34.3035 116.054 34.2504 116.351 34.1444 116.663C34.0416 116.971 33.8958 117.268 33.7069 117.553C33.518 117.838 33.2959 118.083 33.0407 118.288L32.3049 117.761C32.5004 117.476 32.6695 117.173 32.812 116.852C32.9578 116.53 33.0307 116.175 33.0307 115.788V114.818H34.3035ZM40.2321 119.228L38.8848 119.467C38.8284 119.294 38.7389 119.13 38.6163 118.974C38.497 118.819 38.3346 118.691 38.1291 118.592C37.9236 118.492 37.6667 118.442 37.3585 118.442C36.9376 118.442 36.5862 118.537 36.3045 118.726C36.0228 118.911 35.8819 119.152 35.8819 119.447C35.8819 119.702 35.9764 119.907 36.1653 120.063C36.3542 120.219 36.6591 120.347 37.0801 120.446L38.2931 120.724C38.9958 120.887 39.5195 121.137 39.8642 121.475C40.2089 121.813 40.3812 122.252 40.3812 122.793C40.3812 123.25 40.2486 123.658 39.9835 124.016C39.7216 124.37 39.3554 124.649 38.8848 124.851C38.4174 125.053 37.8755 125.154 37.2591 125.154C36.4039 125.154 35.7063 124.972 35.166 124.607C34.6258 124.239 34.2943 123.717 34.1717 123.041L35.6085 122.822C35.698 123.197 35.8819 123.48 36.1603 123.673C36.4387 123.862 36.8017 123.956 37.2491 123.956C37.7363 123.956 38.1258 123.855 38.4174 123.653C38.7091 123.447 38.8549 123.197 38.8549 122.902C38.8549 122.663 38.7654 122.463 38.5865 122.3C38.4108 122.138 38.1407 122.015 37.7761 121.933L36.4835 121.649C35.7709 121.487 35.2439 121.228 34.9025 120.874C34.5645 120.519 34.3954 120.07 34.3954 119.526C34.3954 119.076 34.5214 118.681 34.7733 118.343C35.0252 118.005 35.3732 117.741 35.8173 117.553C36.2614 117.36 36.7702 117.264 37.3436 117.264C38.1689 117.264 38.8185 117.443 39.2924 117.801C39.7664 118.156 40.0796 118.631 40.2321 119.228ZM45.308 125V114.818H46.7945V118.602H46.884C46.9702 118.442 47.0945 118.259 47.2569 118.05C47.4193 117.841 47.6447 117.659 47.933 117.503C48.2214 117.344 48.6025 117.264 49.0765 117.264C49.693 117.264 50.2432 117.42 50.7271 117.732C51.211 118.043 51.5905 118.492 51.8656 119.079C52.144 119.665 52.2832 120.371 52.2832 121.197C52.2832 122.022 52.1456 122.73 51.8705 123.32C51.5954 123.906 51.2176 124.359 50.737 124.677C50.2564 124.992 49.7079 125.149 49.0914 125.149C48.6274 125.149 48.2479 125.071 47.9529 124.915C47.6612 124.76 47.4325 124.577 47.2668 124.369C47.1011 124.16 46.9735 123.974 46.884 123.812H46.7597V125H45.308ZM46.7647 121.182C46.7647 121.719 46.8426 122.189 46.9984 122.594C47.1541 122.998 47.3795 123.315 47.6745 123.543C47.9695 123.769 48.3308 123.881 48.7583 123.881C49.2024 123.881 49.5736 123.764 49.8719 123.528C50.1702 123.29 50.3956 122.967 50.5481 122.559C50.7039 122.151 50.7817 121.692 50.7817 121.182C50.7817 120.678 50.7055 120.226 50.5531 119.825C50.4039 119.424 50.1785 119.107 49.8769 118.875C49.5786 118.643 49.2058 118.527 48.7583 118.527C48.3274 118.527 47.9629 118.638 47.6646 118.86C47.3696 119.082 47.1459 119.392 46.9934 119.79C46.8409 120.187 46.7647 120.652 46.7647 121.182ZM55.9087 125.169C55.4248 125.169 54.9873 125.08 54.5962 124.901C54.2051 124.718 53.8952 124.455 53.6665 124.11C53.4411 123.765 53.3284 123.343 53.3284 122.842C53.3284 122.411 53.4113 122.057 53.577 121.778C53.7427 121.5 53.9664 121.28 54.2482 121.117C54.5299 120.955 54.8448 120.832 55.1928 120.749C55.5408 120.666 55.8954 120.603 56.2567 120.56C56.7141 120.507 57.0853 120.464 57.3703 120.431C57.6554 120.395 57.8625 120.337 57.9918 120.257C58.121 120.178 58.1857 120.048 58.1857 119.869V119.835C58.1857 119.4 58.063 119.064 57.8178 118.825C57.5758 118.587 57.2145 118.467 56.734 118.467C56.2335 118.467 55.8391 118.578 55.5507 118.8C55.2657 119.019 55.0685 119.263 54.9591 119.531L53.5621 119.213C53.7278 118.749 53.9698 118.375 54.2879 118.089C54.6094 117.801 54.979 117.592 55.3966 117.463C55.8142 117.33 56.2534 117.264 56.7141 117.264C57.019 117.264 57.3422 117.301 57.6835 117.374C58.0282 117.443 58.3497 117.572 58.648 117.761C58.9496 117.95 59.1966 118.22 59.3888 118.572C59.581 118.92 59.6771 119.372 59.6771 119.929V125H58.2254V123.956H58.1658C58.0697 124.148 57.9255 124.337 57.7332 124.523C57.541 124.708 57.2941 124.862 56.9925 124.985C56.6909 125.108 56.3296 125.169 55.9087 125.169ZM56.2318 123.976C56.6428 123.976 56.9941 123.895 57.2858 123.732C57.5808 123.57 57.8045 123.358 57.957 123.096C58.1127 122.831 58.1906 122.547 58.1906 122.246V121.261C58.1376 121.314 58.0349 121.364 57.8824 121.411C57.7332 121.454 57.5626 121.492 57.3703 121.525C57.1781 121.555 56.9908 121.583 56.8085 121.609C56.6262 121.633 56.4738 121.652 56.3511 121.669C56.0628 121.705 55.7993 121.767 55.5607 121.853C55.3253 121.939 55.1364 122.063 54.9939 122.226C54.8547 122.385 54.7851 122.597 54.7851 122.862C54.7851 123.23 54.921 123.509 55.1928 123.697C55.4645 123.883 55.8109 123.976 56.2318 123.976ZM62.8776 114.818V125H61.3911V114.818H62.8776ZM66.8337 125.169C66.3498 125.169 65.9123 125.08 65.5212 124.901C65.1301 124.718 64.8202 124.455 64.5915 124.11C64.3661 123.765 64.2535 123.343 64.2535 122.842C64.2535 122.411 64.3363 122.057 64.502 121.778C64.6678 121.5 64.8915 121.28 65.1732 121.117C65.4549 120.955 65.7698 120.832 66.1178 120.749C66.4658 120.666 66.8205 120.603 67.1817 120.56C67.6391 120.507 68.0103 120.464 68.2954 120.431C68.5804 120.395 68.7875 120.337 68.9168 120.257C69.0461 120.178 69.1107 120.048 69.1107 119.869V119.835C69.1107 119.4 68.9881 119.064 68.7428 118.825C68.5008 118.587 68.1396 118.467 67.659 118.467C67.1585 118.467 66.7641 118.578 66.4758 118.8C66.1907 119.019 65.9935 119.263 65.8841 119.531L64.4871 119.213C64.6528 118.749 64.8948 118.375 65.213 118.089C65.5345 117.801 65.904 117.592 66.3216 117.463C66.7392 117.33 67.1784 117.264 67.6391 117.264C67.944 117.264 68.2672 117.301 68.6086 117.374C68.9533 117.443 69.2748 117.572 69.5731 117.761C69.8747 117.95 70.1216 118.22 70.3138 118.572C70.5061 118.92 70.6022 119.372 70.6022 119.929V125H69.1505V123.956H69.0908C68.9947 124.148 68.8505 124.337 68.6583 124.523C68.466 124.708 68.2191 124.862 67.9175 124.985C67.6159 125.108 67.2546 125.169 66.8337 125.169ZM67.1569 123.976C67.5678 123.976 67.9192 123.895 68.2108 123.732C68.5058 123.57 68.7295 123.358 68.882 123.096C69.0378 122.831 69.1157 122.547 69.1157 122.246V121.261C69.0626 121.314 68.9599 121.364 68.8074 121.411C68.6583 121.454 68.4876 121.492 68.2954 121.525C68.1031 121.555 67.9159 121.583 67.7336 121.609C67.5513 121.633 67.3988 121.652 67.2762 121.669C66.9878 121.705 66.7243 121.767 66.4857 121.853C66.2504 121.939 66.0615 122.063 65.9189 122.226C65.7797 122.385 65.7101 122.597 65.7101 122.862C65.7101 123.23 65.846 123.509 66.1178 123.697C66.3896 123.883 66.7359 123.976 67.1569 123.976ZM73.8026 120.466V125H72.3161V117.364H73.743V118.607H73.8374C74.0131 118.202 74.2882 117.877 74.6627 117.632C75.0405 117.387 75.5162 117.264 76.0895 117.264C76.6099 117.264 77.0656 117.374 77.4567 117.592C77.8478 117.808 78.1511 118.129 78.3665 118.557C78.582 118.984 78.6897 119.513 78.6897 120.143V125H77.2032V120.322C77.2032 119.768 77.059 119.336 76.7707 119.024C76.4823 118.709 76.0862 118.552 75.5824 118.552C75.2377 118.552 74.9312 118.626 74.6627 118.776C74.3975 118.925 74.1871 119.143 74.0313 119.432C73.8788 119.717 73.8026 120.062 73.8026 120.466ZM83.6339 125.154C82.8948 125.154 82.2584 124.987 81.7248 124.652C81.1945 124.314 80.7869 123.848 80.5018 123.255C80.2168 122.662 80.0743 121.982 80.0743 121.217C80.0743 120.441 80.2201 119.757 80.5118 119.163C80.8034 118.567 81.2144 118.101 81.7447 117.766C82.275 117.432 82.8998 117.264 83.619 117.264C84.199 117.264 84.7161 117.372 85.1701 117.587C85.6242 117.799 85.9905 118.098 86.2689 118.482C86.5506 118.867 86.718 119.316 86.771 119.83H85.3243C85.2447 119.472 85.0624 119.163 84.7774 118.905C84.4957 118.646 84.1178 118.517 83.6439 118.517C83.2296 118.517 82.8666 118.626 82.5551 118.845C82.2468 119.061 82.0065 119.369 81.8342 119.77C81.6619 120.168 81.5757 120.638 81.5757 121.182C81.5757 121.739 81.6602 122.219 81.8292 122.624C81.9983 123.028 82.2369 123.341 82.5451 123.563C82.8567 123.785 83.2229 123.896 83.6439 123.896C83.9256 123.896 84.1808 123.845 84.4095 123.742C84.6415 123.636 84.8354 123.485 84.9912 123.29C85.1503 123.094 85.2613 122.859 85.3243 122.584H86.771C86.718 123.078 86.5572 123.518 86.2887 123.906C86.0203 124.294 85.6607 124.599 85.2099 124.821C84.7625 125.043 84.2371 125.154 83.6339 125.154ZM91.3859 125.154C90.6335 125.154 89.9855 124.993 89.442 124.672C88.9017 124.347 88.4841 123.891 88.1891 123.305C87.8975 122.715 87.7516 122.024 87.7516 121.232C87.7516 120.449 87.8975 119.76 88.1891 119.163C88.4841 118.567 88.8951 118.101 89.4221 117.766C89.9524 117.432 90.5722 117.264 91.2814 117.264C91.7123 117.264 92.1299 117.335 92.5343 117.478C92.9386 117.621 93.3016 117.844 93.6231 118.149C93.9446 118.454 94.1981 118.85 94.3837 119.337C94.5693 119.821 94.6621 120.41 94.6621 121.102V121.629H88.5918V120.516H93.2055C93.2055 120.125 93.1259 119.778 92.9668 119.477C92.8077 119.172 92.584 118.931 92.2957 118.756C92.0106 118.58 91.6759 118.492 91.2914 118.492C90.8738 118.492 90.5092 118.595 90.1976 118.8C89.8894 119.003 89.6508 119.268 89.4817 119.596C89.316 119.921 89.2332 120.274 89.2332 120.655V121.525C89.2332 122.035 89.3226 122.469 89.5016 122.827C89.6839 123.185 89.9375 123.459 90.2623 123.648C90.5871 123.833 90.9666 123.926 91.4008 123.926C91.6825 123.926 91.9394 123.886 92.1714 123.807C92.4034 123.724 92.6039 123.601 92.7729 123.439C92.942 123.277 93.0712 123.076 93.1607 122.837L94.5677 123.091C94.455 123.505 94.2528 123.868 93.9611 124.18C93.6728 124.488 93.3099 124.728 92.8724 124.901C92.4382 125.07 91.9427 125.154 91.3859 125.154ZM97.0249 125.094C96.7531 125.094 96.5194 124.998 96.3239 124.806C96.1283 124.611 96.0305 124.375 96.0305 124.1C96.0305 123.828 96.1283 123.596 96.3239 123.404C96.5194 123.209 96.7531 123.111 97.0249 123.111C97.2966 123.111 97.5303 123.209 97.7259 123.404C97.9214 123.596 98.0192 123.828 98.0192 124.1C98.0192 124.282 97.9728 124.45 97.88 124.602C97.7905 124.751 97.6712 124.871 97.522 124.96C97.3729 125.05 97.2072 125.094 97.0249 125.094ZM97.0249 119.536C96.7531 119.536 96.5194 119.438 96.3239 119.243C96.1283 119.047 96.0305 118.814 96.0305 118.542C96.0305 118.27 96.1283 118.038 96.3239 117.846C96.5194 117.65 96.7531 117.553 97.0249 117.553C97.2966 117.553 97.5303 117.65 97.7259 117.846C97.9214 118.038 98.0192 118.27 98.0192 118.542C98.0192 118.724 97.9728 118.892 97.88 119.044C97.7905 119.193 97.6712 119.312 97.522 119.402C97.3729 119.491 97.2072 119.536 97.0249 119.536ZM107.026 114.818V125H105.485V116.359H105.426L102.989 117.95V116.479L105.53 114.818H107.026ZM113.093 125V114.818H116.822C117.544 114.818 118.142 114.937 118.616 115.176C119.09 115.411 119.445 115.731 119.68 116.136C119.916 116.537 120.033 116.989 120.033 117.493C120.033 117.917 119.955 118.275 119.8 118.567C119.644 118.855 119.435 119.087 119.173 119.263C118.915 119.435 118.63 119.561 118.318 119.641V119.74C118.656 119.757 118.986 119.866 119.307 120.068C119.632 120.267 119.901 120.55 120.113 120.918C120.325 121.286 120.431 121.734 120.431 122.261C120.431 122.781 120.308 123.248 120.063 123.663C119.821 124.074 119.447 124.4 118.94 124.642C118.432 124.881 117.784 125 116.996 125H113.093ZM114.629 123.683H116.847C117.582 123.683 118.109 123.54 118.427 123.255C118.746 122.97 118.905 122.614 118.905 122.186C118.905 121.865 118.824 121.57 118.661 121.301C118.499 121.033 118.267 120.819 117.965 120.66C117.667 120.501 117.312 120.421 116.901 120.421H114.629V123.683ZM114.629 119.223H116.687C117.032 119.223 117.342 119.157 117.617 119.024C117.896 118.892 118.116 118.706 118.278 118.467C118.444 118.225 118.527 117.94 118.527 117.612C118.527 117.191 118.379 116.838 118.084 116.553C117.789 116.268 117.337 116.126 116.727 116.126H114.629V119.223ZM121.485 116.141V114.818H129.365V116.141H126.188V125H124.657V116.141H121.485ZM138.859 118.129H137.308C137.249 117.798 137.138 117.506 136.975 117.254C136.813 117.002 136.614 116.789 136.379 116.613C136.143 116.437 135.88 116.305 135.588 116.215C135.3 116.126 134.993 116.081 134.668 116.081C134.082 116.081 133.556 116.228 133.092 116.523C132.632 116.818 132.267 117.251 131.999 117.821C131.733 118.391 131.601 119.087 131.601 119.909C131.601 120.738 131.733 121.437 131.999 122.007C132.267 122.577 132.633 123.008 133.097 123.3C133.561 123.591 134.083 123.737 134.663 123.737C134.985 123.737 135.29 123.694 135.578 123.608C135.87 123.518 136.133 123.388 136.369 123.215C136.604 123.043 136.803 122.832 136.965 122.584C137.131 122.332 137.245 122.044 137.308 121.719L138.859 121.724C138.777 122.224 138.616 122.685 138.377 123.106C138.142 123.523 137.839 123.885 137.467 124.19C137.099 124.491 136.679 124.725 136.205 124.891C135.731 125.056 135.214 125.139 134.653 125.139C133.772 125.139 132.986 124.93 132.297 124.513C131.608 124.092 131.064 123.49 130.666 122.708C130.272 121.926 130.075 120.993 130.075 119.909C130.075 118.822 130.273 117.889 130.671 117.11C131.069 116.328 131.613 115.728 132.302 115.31C132.991 114.889 133.775 114.679 134.653 114.679C135.194 114.679 135.698 114.757 136.165 114.913C136.635 115.065 137.058 115.29 137.433 115.589C137.807 115.884 138.117 116.245 138.362 116.673C138.608 117.097 138.773 117.582 138.859 118.129Z" fill="#888888"/>
<path d="M37.9519 10.2628V11.5554H33.4377V10.2628H37.9519ZM43.5101 5.81818V16H41.969V7.35938H41.9093L39.4732 8.95028V7.47869L42.0137 5.81818H43.5101ZM49.5767 16V5.81818H53.3054C54.0279 5.81818 54.6262 5.9375 55.1001 6.17614C55.5741 6.41146 55.9287 6.7313 56.164 7.13565C56.3994 7.53669 56.517 7.98911 56.517 8.4929C56.517 8.91714 56.4391 9.27509 56.2834 9.56676C56.1276 9.85511 55.9188 10.0871 55.6569 10.2628C55.3984 10.4351 55.1134 10.5611 54.8018 10.6406V10.7401C55.1399 10.7566 55.4697 10.866 55.7912 11.0682C56.116 11.267 56.3845 11.5504 56.5966 11.9183C56.8087 12.2862 56.9148 12.7337 56.9148 13.2607C56.9148 13.781 56.7921 14.2483 56.5469 14.6626C56.3049 15.0736 55.9304 15.4001 55.4233 15.642C54.9162 15.8807 54.2682 16 53.4794 16H49.5767ZM51.1129 14.6825H53.3302C54.066 14.6825 54.593 14.54 54.9112 14.255C55.2294 13.9699 55.3885 13.6136 55.3885 13.1861C55.3885 12.8646 55.3073 12.5696 55.1449 12.3011C54.9825 12.0327 54.7505 11.8189 54.4488 11.6598C54.1506 11.5007 53.7959 11.4212 53.3849 11.4212H51.1129V14.6825ZM51.1129 10.223H53.1711C53.5158 10.223 53.8257 10.1567 54.1008 10.0241C54.3792 9.89157 54.5997 9.70597 54.7621 9.46733C54.9278 9.22538 55.0106 8.94034 55.0106 8.61222C55.0106 8.19129 54.8631 7.8383 54.5682 7.55327C54.2732 7.26823 53.8208 7.12571 53.2109 7.12571H51.1129V10.223ZM57.9687 7.14062V5.81818H65.8487V7.14062H62.6718V16H61.1406V7.14062H57.9687ZM75.3432 9.12926H73.792C73.7324 8.79782 73.6213 8.50615 73.4589 8.25426C73.2965 8.00237 73.0977 7.78859 72.8623 7.61293C72.627 7.43726 72.3635 7.30469 72.0719 7.2152C71.7835 7.12571 71.4769 7.08097 71.1521 7.08097C70.5655 7.08097 70.0401 7.22846 69.5761 7.52344C69.1154 7.81842 68.7508 8.25095 68.4824 8.82102C68.2172 9.3911 68.0846 10.0871 68.0846 10.9091C68.0846 11.7377 68.2172 12.437 68.4824 13.0071C68.7508 13.5772 69.1171 14.008 69.5811 14.2997C70.0451 14.5914 70.5671 14.7372 71.1471 14.7372C71.4686 14.7372 71.7736 14.6941 72.0619 14.608C72.3536 14.5185 72.6171 14.3875 72.8524 14.2152C73.0877 14.0429 73.2866 13.8324 73.449 13.5838C73.6147 13.3319 73.7291 13.0436 73.792 12.7188L75.3432 12.7237C75.2603 13.2242 75.0996 13.6849 74.8609 14.1058C74.6256 14.5234 74.3223 14.8847 73.9511 15.1896C73.5832 15.4912 73.1623 15.7249 72.6883 15.8906C72.2144 16.0563 71.6973 16.1392 71.1372 16.1392C70.2556 16.1392 69.4701 15.9304 68.7807 15.5128C68.0913 15.0919 67.5477 14.4903 67.15 13.7081C66.7556 12.9259 66.5584 11.9929 66.5584 10.9091C66.5584 9.82197 66.7572 8.88897 67.1549 8.11008C67.5527 7.32789 68.0962 6.72798 68.7856 6.31037C69.475 5.88944 70.2589 5.67898 71.1372 5.67898C71.6774 5.67898 72.1812 5.75687 72.6486 5.91264C73.1192 6.0651 73.5418 6.29048 73.9163 6.58878C74.2908 6.88376 74.6007 7.24503 74.846 7.67258C75.0913 8.09683 75.257 8.58239 75.3432 9.12926ZM85.9575 10.228L84.6102 10.4666C84.5538 10.2943 84.4643 10.1302 84.3417 9.97443C84.2224 9.81865 84.06 9.69105 83.8545 9.59162C83.649 9.49219 83.3921 9.44247 83.0839 9.44247C82.663 9.44247 82.3116 9.53693 82.0299 9.72585C81.7482 9.91146 81.6073 10.1518 81.6073 10.4467C81.6073 10.7019 81.7018 10.9074 81.8907 11.0632C82.0796 11.219 82.3846 11.3466 82.8055 11.446L84.0185 11.7244C84.7212 11.8868 85.2449 12.1371 85.5896 12.4751C85.9343 12.8132 86.1066 13.2524 86.1066 13.7926C86.1066 14.25 85.974 14.6577 85.7089 15.0156C85.4471 15.3703 85.0808 15.6487 84.6102 15.8509C84.1428 16.053 83.6009 16.1541 82.9845 16.1541C82.1293 16.1541 81.4317 15.9718 80.8914 15.6072C80.3512 15.2393 80.0197 14.7173 79.8971 14.0412L81.3339 13.8224C81.4234 14.197 81.6073 14.4804 81.8857 14.6726C82.1641 14.8615 82.5271 14.956 82.9745 14.956C83.4617 14.956 83.8512 14.8549 84.1428 14.6527C84.4345 14.4472 84.5803 14.197 84.5803 13.902C84.5803 13.6634 84.4908 13.4628 84.3119 13.3004C84.1362 13.138 83.8661 13.0154 83.5015 12.9325L82.2089 12.6491C81.4963 12.4867 80.9693 12.2282 80.6279 11.8736C80.2899 11.5189 80.1208 11.0698 80.1208 10.5263C80.1208 10.0755 80.2468 9.68111 80.4987 9.34304C80.7506 9.00497 81.0986 8.74148 81.5427 8.55256C81.9868 8.36032 82.4956 8.2642 83.069 8.2642C83.8943 8.2642 84.5439 8.44318 85.0178 8.80114C85.4918 9.15578 85.805 9.63139 85.9575 10.228ZM87.475 18.8636V8.36364H88.9267V9.60156H89.051C89.1372 9.44247 89.2615 9.25852 89.4239 9.04972C89.5863 8.84091 89.8117 8.65862 90.1 8.50284C90.3884 8.34375 90.7695 8.2642 91.2435 8.2642C91.86 8.2642 92.4102 8.41998 92.8941 8.73153C93.378 9.04309 93.7575 9.49219 94.0326 10.0788C94.311 10.6655 94.4502 11.3714 94.4502 12.1967C94.4502 13.022 94.3126 13.7296 94.0375 14.3196C93.7624 14.9062 93.3846 15.3587 92.904 15.6768C92.4234 15.9917 91.8749 16.1491 91.2584 16.1491C90.7944 16.1491 90.4149 16.0713 90.1199 15.9155C89.8282 15.7597 89.5996 15.5774 89.4338 15.3686C89.2681 15.1598 89.1405 14.9742 89.051 14.8118H88.9615V18.8636H87.475ZM88.9317 12.1818C88.9317 12.7187 89.0096 13.1894 89.1654 13.5938C89.3211 13.9981 89.5465 14.3146 89.8415 14.5433C90.1365 14.7687 90.4978 14.8814 90.9253 14.8814C91.3694 14.8814 91.7407 14.7637 92.0389 14.5284C92.3372 14.2898 92.5626 13.9666 92.7151 13.5589C92.8709 13.1513 92.9488 12.6922 92.9488 12.1818C92.9488 11.678 92.8725 11.2256 92.7201 10.8246C92.5709 10.4235 92.3455 10.107 92.0439 9.875C91.7456 9.64299 91.3728 9.52699 90.9253 9.52699C90.4944 9.52699 90.1299 9.63802 89.8316 9.86009C89.5366 10.0821 89.3129 10.392 89.1604 10.7898C89.0079 11.1875 88.9317 11.6515 88.9317 12.1818ZM97.3362 5.81818V16H95.8497V5.81818H97.3362ZM99.07 16V8.36364H100.556V16H99.07ZM99.8207 7.18537C99.5622 7.18537 99.3401 7.09919 99.1545 6.92685C98.9722 6.75118 98.8811 6.54238 98.8811 6.30043C98.8811 6.05516 98.9722 5.84635 99.1545 5.67401C99.3401 5.49834 99.5622 5.41051 99.8207 5.41051C100.079 5.41051 100.3 5.49834 100.482 5.67401C100.668 5.84635 100.76 6.05516 100.76 6.30043C100.76 6.54238 100.668 6.75118 100.482 6.92685C100.3 7.09919 100.079 7.18537 99.8207 7.18537ZM105.507 16.1541C104.768 16.1541 104.131 15.9867 103.598 15.652C103.068 15.3139 102.66 14.8482 102.375 14.255C102.09 13.6617 101.947 12.9822 101.947 12.2166C101.947 11.4411 102.093 10.7566 102.385 10.1634C102.676 9.56676 103.087 9.10109 103.618 8.76633C104.148 8.43158 104.773 8.2642 105.492 8.2642C106.072 8.2642 106.589 8.37192 107.043 8.58736C107.497 8.79948 107.863 9.09777 108.142 9.48224C108.424 9.86671 108.591 10.3158 108.644 10.8295H107.197C107.118 10.4716 106.935 10.1634 106.65 9.90483C106.369 9.64631 105.991 9.51705 105.517 9.51705C105.103 9.51705 104.74 9.62642 104.428 9.84517C104.12 10.0606 103.88 10.3688 103.707 10.7699C103.535 11.1676 103.449 11.6383 103.449 12.1818C103.449 12.7386 103.533 13.2192 103.702 13.6236C103.871 14.0279 104.11 14.3411 104.418 14.5632C104.73 14.7853 105.096 14.8963 105.517 14.8963C105.799 14.8963 106.054 14.8449 106.282 14.7422C106.515 14.6361 106.708 14.4853 106.864 14.2898C107.023 14.0942 107.134 13.8589 107.197 13.5838H108.644C108.591 14.0777 108.43 14.5185 108.162 14.9062C107.893 15.294 107.534 15.599 107.083 15.821C106.635 16.0431 106.11 16.1541 105.507 16.1541ZM113.259 16.1541C112.506 16.1541 111.859 15.9934 111.315 15.6719C110.775 15.3471 110.357 14.8913 110.062 14.3047C109.77 13.7147 109.625 13.0237 109.625 12.2315C109.625 11.4493 109.77 10.7599 110.062 10.1634C110.357 9.56676 110.768 9.10109 111.295 8.76633C111.825 8.43158 112.445 8.2642 113.154 8.2642C113.585 8.2642 114.003 8.33546 114.407 8.47798C114.812 8.6205 115.175 8.84422 115.496 9.14915C115.818 9.45407 116.071 9.85014 116.257 10.3374C116.442 10.8213 116.535 11.4096 116.535 12.1023V12.6293H110.465V11.5156H115.078C115.078 11.1245 114.999 10.7782 114.84 10.4766C114.681 10.1716 114.457 9.93134 114.169 9.75568C113.884 9.58002 113.549 9.49219 113.164 9.49219C112.747 9.49219 112.382 9.59493 112.071 9.80043C111.762 10.0026 111.524 10.2678 111.355 10.5959C111.189 10.9207 111.106 11.2737 111.106 11.6548V12.5249C111.106 13.0353 111.196 13.4695 111.375 13.8274C111.557 14.1854 111.81 14.4588 112.135 14.6477C112.46 14.8333 112.84 14.9261 113.274 14.9261C113.555 14.9261 113.812 14.8864 114.044 14.8068C114.276 14.724 114.477 14.6013 114.646 14.4389C114.815 14.2765 114.944 14.076 115.034 13.8374L116.441 14.0909C116.328 14.5052 116.126 14.8681 115.834 15.1797C115.546 15.4879 115.183 15.7282 114.745 15.9006C114.311 16.0696 113.816 16.1541 113.259 16.1541ZM124.992 8.36364V9.55682H120.676V8.36364H124.992ZM121.86 16V7.47869C121.86 7.00142 121.964 6.60535 122.173 6.29048C122.382 5.9723 122.658 5.73532 123.003 5.57955C123.348 5.42045 123.722 5.34091 124.127 5.34091C124.425 5.34091 124.68 5.36577 124.892 5.41548C125.104 5.46188 125.262 5.50497 125.365 5.54474L125.017 6.74787C124.947 6.72798 124.858 6.70478 124.748 6.67827C124.639 6.64844 124.506 6.63352 124.35 6.63352C123.989 6.63352 123.731 6.72301 123.575 6.90199C123.422 7.08097 123.346 7.33949 123.346 7.67756V16H121.86ZM129.175 16.1541C128.459 16.1541 127.835 15.9901 127.301 15.6619C126.767 15.3338 126.353 14.8748 126.058 14.2848C125.763 13.6948 125.616 13.0054 125.616 12.2166C125.616 11.4245 125.763 10.7318 126.058 10.1385C126.353 9.54522 126.767 9.08452 127.301 8.75639C127.835 8.42827 128.459 8.2642 129.175 8.2642C129.891 8.2642 130.516 8.42827 131.05 8.75639C131.583 9.08452 131.998 9.54522 132.293 10.1385C132.588 10.7318 132.735 11.4245 132.735 12.2166C132.735 13.0054 132.588 13.6948 132.293 14.2848C131.998 14.8748 131.583 15.3338 131.05 15.6619C130.516 15.9901 129.891 16.1541 129.175 16.1541ZM129.18 14.9062C129.644 14.9062 130.029 14.7836 130.334 14.5384C130.639 14.2931 130.864 13.9666 131.01 13.5589C131.159 13.1513 131.234 12.7022 131.234 12.2116C131.234 11.7244 131.159 11.277 131.01 10.8693C130.864 10.4583 130.639 10.1286 130.334 9.87997C130.029 9.63139 129.644 9.5071 129.18 9.5071C128.713 9.5071 128.325 9.63139 128.017 9.87997C127.712 10.1286 127.485 10.4583 127.336 10.8693C127.19 11.277 127.117 11.7244 127.117 12.2116C127.117 12.7022 127.19 13.1513 127.336 13.5589C127.485 13.9666 127.712 14.2931 128.017 14.5384C128.325 14.7836 128.713 14.9062 129.18 14.9062ZM134.128 16V8.36364H135.565V9.5767H135.645C135.784 9.16572 136.029 8.84257 136.38 8.60724C136.735 8.36861 137.136 8.24929 137.584 8.24929C137.676 8.24929 137.786 8.2526 137.912 8.25923C138.041 8.26586 138.142 8.27415 138.215 8.28409V9.70597C138.155 9.68939 138.049 9.67116 137.897 9.65128C137.744 9.62808 137.592 9.61648 137.439 9.61648C137.088 9.61648 136.775 9.69105 136.5 9.8402C136.228 9.98603 136.013 10.1899 135.853 10.4517C135.694 10.7102 135.615 11.0052 135.615 11.3366V16H134.128ZM143.654 16H142.023L145.687 5.81818H147.462L151.126 16H149.495L146.617 7.66761H146.537L143.654 16ZM143.927 12.0128H149.217V13.3054H143.927V12.0128ZM153.698 5.81818V16H152.211V5.81818H153.698ZM155.431 16V8.36364H156.918V16H155.431ZM156.182 7.18537C155.924 7.18537 155.702 7.09919 155.516 6.92685C155.334 6.75118 155.243 6.54238 155.243 6.30043C155.243 6.05516 155.334 5.84635 155.516 5.67401C155.702 5.49834 155.924 5.41051 156.182 5.41051C156.441 5.41051 156.661 5.49834 156.843 5.67401C157.029 5.84635 157.122 6.05516 157.122 6.30043C157.122 6.54238 157.029 6.75118 156.843 6.92685C156.661 7.09919 156.441 7.18537 156.182 7.18537ZM161.868 16.1541C161.129 16.1541 160.493 15.9867 159.959 15.652C159.429 15.3139 159.021 14.8482 158.736 14.255C158.451 13.6617 158.309 12.9822 158.309 12.2166C158.309 11.4411 158.455 10.7566 158.746 10.1634C159.038 9.56676 159.449 9.10109 159.979 8.76633C160.51 8.43158 161.134 8.2642 161.853 8.2642C162.434 8.2642 162.951 8.37192 163.405 8.58736C163.859 8.79948 164.225 9.09777 164.503 9.48224C164.785 9.86671 164.952 10.3158 165.005 10.8295H163.559C163.479 10.4716 163.297 10.1634 163.012 9.90483C162.73 9.64631 162.352 9.51705 161.878 9.51705C161.464 9.51705 161.101 9.62642 160.79 9.84517C160.481 10.0606 160.241 10.3688 160.069 10.7699C159.896 11.1676 159.81 11.6383 159.81 12.1818C159.81 12.7386 159.895 13.2192 160.064 13.6236C160.233 14.0279 160.471 14.3411 160.78 14.5632C161.091 14.7853 161.457 14.8963 161.878 14.8963C162.16 14.8963 162.415 14.8449 162.644 14.7422C162.876 14.6361 163.07 14.4853 163.226 14.2898C163.385 14.0942 163.496 13.8589 163.559 13.5838H165.005C164.952 14.0777 164.792 14.5185 164.523 14.9062C164.255 15.294 163.895 15.599 163.444 15.821C162.997 16.0431 162.472 16.1541 161.868 16.1541ZM169.62 16.1541C168.868 16.1541 168.22 15.9934 167.676 15.6719C167.136 15.3471 166.719 14.8913 166.424 14.3047C166.132 13.7147 165.986 13.0237 165.986 12.2315C165.986 11.4493 166.132 10.7599 166.424 10.1634C166.719 9.56676 167.13 9.10109 167.657 8.76633C168.187 8.43158 168.807 8.2642 169.516 8.2642C169.947 8.2642 170.364 8.33546 170.769 8.47798C171.173 8.6205 171.536 8.84422 171.858 9.14915C172.179 9.45407 172.433 9.85014 172.618 10.3374C172.804 10.8213 172.897 11.4096 172.897 12.1023V12.6293H166.826V11.5156H171.44C171.44 11.1245 171.36 10.7782 171.201 10.4766C171.042 10.1716 170.819 9.93134 170.53 9.75568C170.245 9.58002 169.91 9.49219 169.526 9.49219C169.108 9.49219 168.744 9.59493 168.432 9.80043C168.124 10.0026 167.885 10.2678 167.716 10.5959C167.551 10.9207 167.468 11.2737 167.468 11.6548V12.5249C167.468 13.0353 167.557 13.4695 167.736 13.8274C167.918 14.1854 168.172 14.4588 168.497 14.6477C168.822 14.8333 169.201 14.9261 169.635 14.9261C169.917 14.9261 170.174 14.8864 170.406 14.8068C170.638 14.724 170.838 14.6013 171.007 14.4389C171.176 14.2765 171.306 14.076 171.395 13.8374L172.802 14.0909C172.689 14.5052 172.487 14.8681 172.196 15.1797C171.907 15.4879 171.544 15.7282 171.107 15.9006C170.673 16.0696 170.177 16.1541 169.62 16.1541Z" fill="#888888"/>
<path d="M587.577 125V114.818H591.306C592.028 114.818 592.627 114.937 593.101 115.176C593.575 115.411 593.929 115.731 594.165 116.136C594.4 116.537 594.518 116.989 594.518 117.493C594.518 117.917 594.44 118.275 594.284 118.567C594.128 118.855 593.919 119.087 593.658 119.263C593.399 119.435 593.114 119.561 592.802 119.641V119.74C593.14 119.757 593.47 119.866 593.792 120.068C594.117 120.267 594.385 120.55 594.597 120.918C594.809 121.286 594.915 121.734 594.915 122.261C594.915 122.781 594.793 123.248 594.547 123.663C594.305 124.074 593.931 124.4 593.424 124.642C592.917 124.881 592.269 125 591.48 125H587.577ZM589.113 123.683H591.331C592.067 123.683 592.594 123.54 592.912 123.255C593.23 122.97 593.389 122.614 593.389 122.186C593.389 121.865 593.308 121.57 593.145 121.301C592.983 121.033 592.751 120.819 592.449 120.66C592.151 120.501 591.796 120.421 591.385 120.421H589.113V123.683ZM589.113 119.223H591.172C591.516 119.223 591.826 119.157 592.101 119.024C592.38 118.892 592.6 118.706 592.763 118.467C592.928 118.225 593.011 117.94 593.011 117.612C593.011 117.191 592.864 116.838 592.569 116.553C592.274 116.268 591.821 116.126 591.211 116.126H589.113V119.223ZM599.569 125.154C598.853 125.154 598.228 124.99 597.694 124.662C597.161 124.334 596.747 123.875 596.452 123.285C596.157 122.695 596.009 122.005 596.009 121.217C596.009 120.424 596.157 119.732 596.452 119.138C596.747 118.545 597.161 118.085 597.694 117.756C598.228 117.428 598.853 117.264 599.569 117.264C600.285 117.264 600.909 117.428 601.443 117.756C601.977 118.085 602.391 118.545 602.686 119.138C602.981 119.732 603.128 120.424 603.128 121.217C603.128 122.005 602.981 122.695 602.686 123.285C602.391 123.875 601.977 124.334 601.443 124.662C600.909 124.99 600.285 125.154 599.569 125.154ZM599.574 123.906C600.038 123.906 600.422 123.784 600.727 123.538C601.032 123.293 601.257 122.967 601.403 122.559C601.552 122.151 601.627 121.702 601.627 121.212C601.627 120.724 601.552 120.277 601.403 119.869C601.257 119.458 601.032 119.129 600.727 118.88C600.422 118.631 600.038 118.507 599.574 118.507C599.106 118.507 598.719 118.631 598.41 118.88C598.105 119.129 597.878 119.458 597.729 119.869C597.583 120.277 597.51 120.724 597.51 121.212C597.51 121.702 597.583 122.151 597.729 122.559C597.878 122.967 598.105 123.293 598.41 123.538C598.719 123.784 599.106 123.906 599.574 123.906ZM604.641 125V114.818H606.127V118.602H606.217C606.303 118.442 606.427 118.259 606.59 118.05C606.752 117.841 606.978 117.659 607.266 117.503C607.554 117.344 607.935 117.264 608.409 117.264C609.026 117.264 609.576 117.42 610.06 117.732C610.544 118.043 610.923 118.492 611.198 119.079C611.477 119.665 611.616 120.371 611.616 121.197C611.616 122.022 611.479 122.73 611.203 123.32C610.928 123.906 610.551 124.359 610.07 124.677C609.589 124.992 609.041 125.149 608.424 125.149C607.96 125.149 607.581 125.071 607.286 124.915C606.994 124.76 606.765 124.577 606.6 124.369C606.434 124.16 606.306 123.974 606.217 123.812H606.093V125H604.641ZM606.098 121.182C606.098 121.719 606.176 122.189 606.331 122.594C606.487 122.998 606.712 123.315 607.007 123.543C607.302 123.769 607.664 123.881 608.091 123.881C608.535 123.881 608.907 123.764 609.205 123.528C609.503 123.29 609.729 122.967 609.881 122.559C610.037 122.151 610.115 121.692 610.115 121.182C610.115 120.678 610.038 120.226 609.886 119.825C609.737 119.424 609.511 119.107 609.21 118.875C608.912 118.643 608.539 118.527 608.091 118.527C607.66 118.527 607.296 118.638 606.997 118.86C606.703 119.082 606.479 119.392 606.326 119.79C606.174 120.187 606.098 120.652 606.098 121.182ZM614.297 114.818V115.773C614.297 116.054 614.244 116.351 614.138 116.663C614.035 116.971 613.889 117.268 613.7 117.553C613.511 117.838 613.289 118.083 613.034 118.288L612.298 117.761C612.494 117.476 612.663 117.173 612.806 116.852C612.951 116.53 613.024 116.175 613.024 115.788V114.818H614.297ZM620.226 119.228L618.878 119.467C618.822 119.294 618.732 119.13 618.61 118.974C618.491 118.819 618.328 118.691 618.123 118.592C617.917 118.492 617.66 118.442 617.352 118.442C616.931 118.442 616.58 118.537 616.298 118.726C616.016 118.911 615.875 119.152 615.875 119.447C615.875 119.702 615.97 119.907 616.159 120.063C616.348 120.219 616.653 120.347 617.074 120.446L618.287 120.724C618.989 120.887 619.513 121.137 619.858 121.475C620.202 121.813 620.375 122.252 620.375 122.793C620.375 123.25 620.242 123.658 619.977 124.016C619.715 124.37 619.349 124.649 618.878 124.851C618.411 125.053 617.869 125.154 617.253 125.154C616.397 125.154 615.7 124.972 615.16 124.607C614.619 124.239 614.288 123.717 614.165 123.041L615.602 122.822C615.692 123.197 615.875 123.48 616.154 123.673C616.432 123.862 616.795 123.956 617.243 123.956C617.73 123.956 618.119 123.855 618.411 123.653C618.703 123.447 618.848 123.197 618.848 122.902C618.848 122.663 618.759 122.463 618.58 122.3C618.404 122.138 618.134 122.015 617.77 121.933L616.477 121.649C615.764 121.487 615.237 121.228 614.896 120.874C614.558 120.519 614.389 120.07 614.389 119.526C614.389 119.076 614.515 118.681 614.767 118.343C615.019 118.005 615.367 117.741 615.811 117.553C616.255 117.36 616.764 117.264 617.337 117.264C618.162 117.264 618.812 117.443 619.286 117.801C619.76 118.156 620.073 118.631 620.226 119.228ZM625.302 125V114.818H626.788V118.602H626.878C626.964 118.442 627.088 118.259 627.25 118.05C627.413 117.841 627.638 117.659 627.927 117.503C628.215 117.344 628.596 117.264 629.07 117.264C629.687 117.264 630.237 117.42 630.721 117.732C631.204 118.043 631.584 118.492 631.859 119.079C632.137 119.665 632.277 120.371 632.277 121.197C632.277 122.022 632.139 122.73 631.864 123.32C631.589 123.906 631.211 124.359 630.731 124.677C630.25 124.992 629.701 125.149 629.085 125.149C628.621 125.149 628.241 125.071 627.946 124.915C627.655 124.76 627.426 124.577 627.26 124.369C627.095 124.16 626.967 123.974 626.878 123.812H626.753V125H625.302ZM626.758 121.182C626.758 121.719 626.836 122.189 626.992 122.594C627.148 122.998 627.373 123.315 627.668 123.543C627.963 123.769 628.324 123.881 628.752 123.881C629.196 123.881 629.567 123.764 629.865 123.528C630.164 123.29 630.389 122.967 630.542 122.559C630.697 122.151 630.775 121.692 630.775 121.182C630.775 120.678 630.699 120.226 630.547 119.825C630.397 119.424 630.172 119.107 629.87 118.875C629.572 118.643 629.199 118.527 628.752 118.527C628.321 118.527 627.956 118.638 627.658 118.86C627.363 119.082 627.139 119.392 626.987 119.79C626.834 120.187 626.758 120.652 626.758 121.182ZM635.902 125.169C635.418 125.169 634.981 125.08 634.59 124.901C634.199 124.718 633.889 124.455 633.66 124.11C633.435 123.765 633.322 123.343 633.322 122.842C633.322 122.411 633.405 122.057 633.571 121.778C633.736 121.5 633.96 121.28 634.242 121.117C634.523 120.955 634.838 120.832 635.186 120.749C635.534 120.666 635.889 120.603 636.25 120.56C636.708 120.507 637.079 120.464 637.364 120.431C637.649 120.395 637.856 120.337 637.985 120.257C638.115 120.178 638.179 120.048 638.179 119.869V119.835C638.179 119.4 638.057 119.064 637.811 118.825C637.569 118.587 637.208 118.467 636.728 118.467C636.227 118.467 635.833 118.578 635.544 118.8C635.259 119.019 635.062 119.263 634.953 119.531L633.556 119.213C633.721 118.749 633.963 118.375 634.281 118.089C634.603 117.801 634.973 117.592 635.39 117.463C635.808 117.33 636.247 117.264 636.708 117.264C637.013 117.264 637.336 117.301 637.677 117.374C638.022 117.443 638.343 117.572 638.642 117.761C638.943 117.95 639.19 118.22 639.382 118.572C639.575 118.92 639.671 119.372 639.671 119.929V125H638.219V123.956H638.159C638.063 124.148 637.919 124.337 637.727 124.523C637.535 124.708 637.288 124.862 636.986 124.985C636.684 125.108 636.323 125.169 635.902 125.169ZM636.225 123.976C636.636 123.976 636.988 123.895 637.279 123.732C637.574 123.57 637.798 123.358 637.951 123.096C638.106 122.831 638.184 122.547 638.184 122.246V121.261C638.131 121.314 638.028 121.364 637.876 121.411C637.727 121.454 637.556 121.492 637.364 121.525C637.172 121.555 636.984 121.583 636.802 121.609C636.62 121.633 636.467 121.652 636.345 121.669C636.056 121.705 635.793 121.767 635.554 121.853C635.319 121.939 635.13 122.063 634.987 122.226C634.848 122.385 634.779 122.597 634.779 122.862C634.779 123.23 634.915 123.509 635.186 123.697C635.458 123.883 635.804 123.976 636.225 123.976ZM642.871 114.818V125H641.385V114.818H642.871ZM646.827 125.169C646.343 125.169 645.906 125.08 645.515 124.901C645.124 124.718 644.814 124.455 644.585 124.11C644.36 123.765 644.247 123.343 644.247 122.842C644.247 122.411 644.33 122.057 644.496 121.778C644.661 121.5 644.885 121.28 645.167 121.117C645.448 120.955 645.763 120.832 646.111 120.749C646.459 120.666 646.814 120.603 647.175 120.56C647.633 120.507 648.004 120.464 648.289 120.431C648.574 120.395 648.781 120.337 648.91 120.257C649.04 120.178 649.104 120.048 649.104 119.869V119.835C649.104 119.4 648.982 119.064 648.736 118.825C648.494 118.587 648.133 118.467 647.653 118.467C647.152 118.467 646.758 118.578 646.469 118.8C646.184 119.019 645.987 119.263 645.878 119.531L644.481 119.213C644.646 118.749 644.888 118.375 645.207 118.089C645.528 117.801 645.898 117.592 646.315 117.463C646.733 117.33 647.172 117.264 647.633 117.264C647.938 117.264 648.261 117.301 648.602 117.374C648.947 117.443 649.268 117.572 649.567 117.761C649.868 117.95 650.115 118.22 650.307 118.572C650.5 118.92 650.596 119.372 650.596 119.929V125H649.144V123.956H649.084C648.988 124.148 648.844 124.337 648.652 124.523C648.46 124.708 648.213 124.862 647.911 124.985C647.609 125.108 647.248 125.169 646.827 125.169ZM647.15 123.976C647.561 123.976 647.913 123.895 648.204 123.732C648.499 123.57 648.723 123.358 648.876 123.096C649.031 122.831 649.109 122.547 649.109 122.246V121.261C649.056 121.314 648.953 121.364 648.801 121.411C648.652 121.454 648.481 121.492 648.289 121.525C648.097 121.555 647.909 121.583 647.727 121.609C647.545 121.633 647.392 121.652 647.27 121.669C646.981 121.705 646.718 121.767 646.479 121.853C646.244 121.939 646.055 122.063 645.912 122.226C645.773 122.385 645.704 122.597 645.704 122.862C645.704 123.23 645.84 123.509 646.111 123.697C646.383 123.883 646.729 123.976 647.15 123.976ZM653.796 120.466V125H652.31V117.364H653.736V118.607H653.831C654.007 118.202 654.282 117.877 654.656 117.632C655.034 117.387 655.51 117.264 656.083 117.264C656.603 117.264 657.059 117.374 657.45 117.592C657.841 117.808 658.145 118.129 658.36 118.557C658.576 118.984 658.683 119.513 658.683 120.143V125H657.197V120.322C657.197 119.768 657.053 119.336 656.764 119.024C656.476 118.709 656.08 118.552 655.576 118.552C655.231 118.552 654.925 118.626 654.656 118.776C654.391 118.925 654.181 119.143 654.025 119.432C653.872 119.717 653.796 120.062 653.796 120.466ZM663.627 125.154C662.888 125.154 662.252 124.987 661.718 124.652C661.188 124.314 660.78 123.848 660.495 123.255C660.21 122.662 660.068 121.982 660.068 121.217C660.068 120.441 660.214 119.757 660.505 119.163C660.797 118.567 661.208 118.101 661.738 117.766C662.269 117.432 662.893 117.264 663.613 117.264C664.193 117.264 664.71 117.372 665.164 117.587C665.618 117.799 665.984 118.098 666.262 118.482C666.544 118.867 666.711 119.316 666.765 119.83H665.318C665.238 119.472 665.056 119.163 664.771 118.905C664.489 118.646 664.111 118.517 663.637 118.517C663.223 118.517 662.86 118.626 662.549 118.845C662.24 119.061 662 119.369 661.828 119.77C661.655 120.168 661.569 120.638 661.569 121.182C661.569 121.739 661.654 122.219 661.823 122.624C661.992 123.028 662.23 123.341 662.539 123.563C662.85 123.785 663.216 123.896 663.637 123.896C663.919 123.896 664.174 123.845 664.403 123.742C664.635 123.636 664.829 123.485 664.985 123.29C665.144 123.094 665.255 122.859 665.318 122.584H666.765C666.711 123.078 666.551 123.518 666.282 123.906C666.014 124.294 665.654 124.599 665.203 124.821C664.756 125.043 664.231 125.154 663.627 125.154ZM671.379 125.154C670.627 125.154 669.979 124.993 669.435 124.672C668.895 124.347 668.478 123.891 668.183 123.305C667.891 122.715 667.745 122.024 667.745 121.232C667.745 120.449 667.891 119.76 668.183 119.163C668.478 118.567 668.889 118.101 669.416 117.766C669.946 117.432 670.566 117.264 671.275 117.264C671.706 117.264 672.123 117.335 672.528 117.478C672.932 117.621 673.295 117.844 673.617 118.149C673.938 118.454 674.192 118.85 674.377 119.337C674.563 119.821 674.656 120.41 674.656 121.102V121.629H668.585V120.516H673.199C673.199 120.125 673.119 119.778 672.96 119.477C672.801 119.172 672.578 118.931 672.289 118.756C672.004 118.58 671.669 118.492 671.285 118.492C670.867 118.492 670.503 118.595 670.191 118.8C669.883 119.003 669.644 119.268 669.475 119.596C669.31 119.921 669.227 120.274 669.227 120.655V121.525C669.227 122.035 669.316 122.469 669.495 122.827C669.677 123.185 669.931 123.459 670.256 123.648C670.581 123.833 670.96 123.926 671.394 123.926C671.676 123.926 671.933 123.886 672.165 123.807C672.397 123.724 672.597 123.601 672.766 123.439C672.935 123.277 673.065 123.076 673.154 122.837L674.561 123.091C674.449 123.505 674.246 123.868 673.955 124.18C673.666 124.488 673.303 124.728 672.866 124.901C672.432 125.07 671.936 125.154 671.379 125.154ZM677.018 125.094C676.747 125.094 676.513 124.998 676.317 124.806C676.122 124.611 676.024 124.375 676.024 124.1C676.024 123.828 676.122 123.596 676.317 123.404C676.513 123.209 676.747 123.111 677.018 123.111C677.29 123.111 677.524 123.209 677.719 123.404C677.915 123.596 678.013 123.828 678.013 124.1C678.013 124.282 677.966 124.45 677.874 124.602C677.784 124.751 677.665 124.871 677.516 124.96C677.366 125.05 677.201 125.094 677.018 125.094ZM677.018 119.536C676.747 119.536 676.513 119.438 676.317 119.243C676.122 119.047 676.024 118.814 676.024 118.542C676.024 118.27 676.122 118.038 676.317 117.846C676.513 117.65 676.747 117.553 677.018 117.553C677.29 117.553 677.524 117.65 677.719 117.846C677.915 118.038 678.013 118.27 678.013 118.542C678.013 118.724 677.966 118.892 677.874 119.044C677.784 119.193 677.665 119.312 677.516 119.402C677.366 119.491 677.201 119.536 677.018 119.536ZM683.157 125V123.886L686.602 120.317C686.97 119.929 687.274 119.589 687.512 119.298C687.754 119.003 687.935 118.723 688.054 118.457C688.173 118.192 688.233 117.911 688.233 117.612C688.233 117.274 688.153 116.982 687.994 116.737C687.835 116.489 687.618 116.298 687.343 116.165C687.068 116.03 686.758 115.962 686.413 115.962C686.049 115.962 685.731 116.036 685.459 116.185C685.187 116.335 684.978 116.545 684.832 116.817C684.687 117.089 684.614 117.407 684.614 117.771H683.147C683.147 117.152 683.29 116.61 683.575 116.146C683.86 115.682 684.251 115.322 684.748 115.067C685.245 114.808 685.81 114.679 686.443 114.679C687.083 114.679 687.646 114.807 688.134 115.062C688.624 115.314 689.007 115.658 689.282 116.096C689.557 116.53 689.695 117.021 689.695 117.567C689.695 117.945 689.623 118.315 689.481 118.676C689.342 119.037 689.098 119.44 688.75 119.884C688.402 120.325 687.918 120.86 687.298 121.49L685.275 123.608V123.683H689.859V125H683.157ZM695.055 125V114.818H698.784C699.506 114.818 700.105 114.937 700.579 115.176C701.053 115.411 701.407 115.731 701.643 116.136C701.878 116.537 701.996 116.989 701.996 117.493C701.996 117.917 701.918 118.275 701.762 118.567C701.606 118.855 701.397 119.087 701.136 119.263C700.877 119.435 700.592 119.561 700.28 119.641V119.74C700.618 119.757 700.948 119.866 701.27 120.068C701.595 120.267 701.863 120.55 702.075 120.918C702.287 121.286 702.393 121.734 702.393 122.261C702.393 122.781 702.271 123.248 702.025 123.663C701.783 124.074 701.409 124.4 700.902 124.642C700.395 124.881 699.747 125 698.958 125H695.055ZM696.591 123.683H698.809C699.545 123.683 700.072 123.54 700.39 123.255C700.708 122.97 700.867 122.614 700.867 122.186C700.867 121.865 700.786 121.57 700.623 121.301C700.461 121.033 700.229 120.819 699.927 120.66C699.629 120.501 699.274 120.421 698.863 120.421H696.591V123.683ZM696.591 119.223H698.65C698.994 119.223 699.304 119.157 699.579 119.024C699.858 118.892 700.078 118.706 700.241 118.467C700.406 118.225 700.489 117.94 700.489 117.612C700.489 117.191 700.342 116.838 700.047 116.553C699.752 116.268 699.299 116.126 698.689 116.126H696.591V119.223ZM703.447 116.141V114.818H711.327V116.141H708.15V125H706.619V116.141H703.447ZM720.822 118.129H719.271C719.211 117.798 719.1 117.506 718.937 117.254C718.775 117.002 718.576 116.789 718.341 116.613C718.106 116.437 717.842 116.305 717.55 116.215C717.262 116.126 716.955 116.081 716.631 116.081C716.044 116.081 715.519 116.228 715.055 116.523C714.594 116.818 714.229 117.251 713.961 117.821C713.696 118.391 713.563 119.087 713.563 119.909C713.563 120.738 713.696 121.437 713.961 122.007C714.229 122.577 714.596 123.008 715.06 123.3C715.524 123.591 716.046 123.737 716.626 123.737C716.947 123.737 717.252 123.694 717.54 123.608C717.832 123.518 718.096 123.388 718.331 123.215C718.566 123.043 718.765 122.832 718.928 122.584C719.093 122.332 719.208 122.044 719.271 121.719L720.822 121.724C720.739 122.224 720.578 122.685 720.339 123.106C720.104 123.523 719.801 123.885 719.43 124.19C719.062 124.491 718.641 124.725 718.167 124.891C717.693 125.056 717.176 125.139 716.616 125.139C715.734 125.139 714.949 124.93 714.259 124.513C713.57 124.092 713.026 123.49 712.629 122.708C712.234 121.926 712.037 120.993 712.037 119.909C712.037 118.822 712.236 117.889 712.634 117.11C713.031 116.328 713.575 115.728 714.264 115.31C714.954 114.889 715.737 114.679 716.616 114.679C717.156 114.679 717.66 114.757 718.127 114.913C718.598 115.065 719.02 115.29 719.395 115.589C719.769 115.884 720.079 116.245 720.325 116.673C720.57 117.097 720.736 117.582 720.822 118.129Z" fill="#888888"/>
<path d="M103 22V33.5" stroke="#888888" stroke-width="2"/>
</svg>
