<svg width="723" height="129" viewBox="0 0 723 129" fill="none" xmlns="http://www.w3.org/2000/svg">
<path d="M38 65H688" stroke="#888888" stroke-width="2"/>
<circle cx="38" cy="65" r="32" fill="#DBF0FF" stroke="#0D99FF" stroke-width="2"/>
<circle cx="104" cy="65" r="32" fill="#DBF0FF" stroke="#0D99FF" stroke-width="2"/>
<circle cx="170" cy="65" r="32" fill="#DCF3E7" stroke="#14AE5C" stroke-width="2"/>
<circle cx="688" cy="65" r="32" fill="#FFF8DF" stroke="#FFA629" stroke-width="2"/>
<circle cx="622" cy="65" r="32" fill="#FFF8DF" stroke="#FFA629" stroke-width="2"/>
<path d="M2.1965 124H0.565815L4.22988 113.818H6.00474L9.6688 124H8.03812L5.15957 115.668H5.08002L2.1965 124ZM2.46993 120.013H7.75971V121.305H2.46993V120.013ZM12.2403 113.818V124H10.7538V113.818H12.2403ZM13.9742 124V116.364H15.4607V124H13.9742ZM14.7249 115.185C14.4663 115.185 14.2443 115.099 14.0587 114.927C13.8764 114.751 13.7852 114.542 13.7852 114.3C13.7852 114.055 13.8764 113.846 14.0587 113.674C14.2443 113.498 14.4663 113.411 14.7249 113.411C14.9834 113.411 15.2038 113.498 15.3861 113.674C15.5717 113.846 15.6645 114.055 15.6645 114.3C15.6645 114.542 15.5717 114.751 15.3861 114.927C15.2038 115.099 14.9834 115.185 14.7249 115.185ZM20.4111 124.154C19.672 124.154 19.0356 123.987 18.502 123.652C17.9717 123.314 17.564 122.848 17.279 122.255C16.994 121.662 16.8514 120.982 16.8514 120.217C16.8514 119.441 16.9973 118.757 17.2889 118.163C17.5806 117.567 17.9916 117.101 18.5219 116.766C19.0522 116.432 19.677 116.264 20.3962 116.264C20.9762 116.264 21.4933 116.372 21.9473 116.587C22.4014 116.799 22.7676 117.098 23.046 117.482C23.3278 117.867 23.4951 118.316 23.5482 118.83H22.1014C22.0219 118.472 21.8396 118.163 21.5546 117.905C21.2728 117.646 20.895 117.517 20.421 117.517C20.0067 117.517 19.6438 117.626 19.3323 117.845C19.024 118.061 18.7837 118.369 18.6114 118.77C18.439 119.168 18.3529 119.638 18.3529 120.182C18.3529 120.739 18.4374 121.219 18.6064 121.624C18.7755 122.028 19.0141 122.341 19.3223 122.563C19.6339 122.785 20.0001 122.896 20.421 122.896C20.7028 122.896 20.958 122.845 21.1867 122.742C21.4187 122.636 21.6126 122.485 21.7683 122.29C21.9274 122.094 22.0385 121.859 22.1014 121.584H23.5482C23.4951 122.078 23.3344 122.518 23.0659 122.906C22.7975 123.294 22.4379 123.599 21.9871 123.821C21.5397 124.043 21.0143 124.154 20.4111 124.154ZM28.163 124.154C27.4107 124.154 26.7627 123.993 26.2191 123.672C25.6789 123.347 25.2613 122.891 24.9663 122.305C24.6746 121.715 24.5288 121.024 24.5288 120.232C24.5288 119.449 24.6746 118.76 24.9663 118.163C25.2613 117.567 25.6723 117.101 26.1993 116.766C26.7296 116.432 27.3494 116.264 28.0586 116.264C28.4895 116.264 28.9071 116.335 29.3115 116.478C29.7158 116.621 30.0788 116.844 30.4003 117.149C30.7218 117.454 30.9753 117.85 31.1609 118.337C31.3465 118.821 31.4393 119.41 31.4393 120.102V120.629H25.369V119.516H29.9826C29.9826 119.125 29.9031 118.778 29.744 118.477C29.5849 118.172 29.3612 117.931 29.0728 117.756C28.7878 117.58 28.453 117.492 28.0686 117.492C27.651 117.492 27.2864 117.595 26.9748 117.8C26.6666 118.003 26.428 118.268 26.2589 118.596C26.0932 118.921 26.0103 119.274 26.0103 119.655V120.525C26.0103 121.035 26.0998 121.469 26.2788 121.827C26.4611 122.185 26.7146 122.459 27.0395 122.648C27.3643 122.833 27.7438 122.926 28.178 122.926C28.4597 122.926 28.7165 122.886 28.9485 122.807C29.1806 122.724 29.3811 122.601 29.5501 122.439C29.7191 122.277 29.8484 122.076 29.9379 121.837L31.3449 122.091C31.2322 122.505 31.03 122.868 30.7383 123.18C30.45 123.488 30.087 123.728 29.6495 123.901C29.2154 124.07 28.7199 124.154 28.163 124.154ZM34.1003 113.818V114.773C34.1003 115.054 34.0473 115.351 33.9412 115.663C33.8385 115.971 33.6927 116.268 33.5037 116.553C33.3148 116.838 33.0928 117.083 32.8376 117.288L32.1018 116.761C32.2973 116.476 32.4663 116.173 32.6089 115.852C32.7547 115.53 32.8276 115.175 32.8276 114.788V113.818H34.1003ZM40.0289 118.228L38.6816 118.467C38.6253 118.294 38.5358 118.13 38.4132 117.974C38.2939 117.819 38.1315 117.691 37.926 117.592C37.7205 117.492 37.4636 117.442 37.1554 117.442C36.7344 117.442 36.3831 117.537 36.1014 117.726C35.8197 117.911 35.6788 118.152 35.6788 118.447C35.6788 118.702 35.7733 118.907 35.9622 119.063C36.1511 119.219 36.456 119.347 36.877 119.446L38.09 119.724C38.7927 119.887 39.3163 120.137 39.661 120.475C40.0057 120.813 40.1781 121.252 40.1781 121.793C40.1781 122.25 40.0455 122.658 39.7804 123.016C39.5185 123.37 39.1523 123.649 38.6816 123.851C38.2143 124.053 37.6724 124.154 37.0559 124.154C36.2008 124.154 35.5031 123.972 34.9629 123.607C34.4226 123.239 34.0912 122.717 33.9686 122.041L35.4054 121.822C35.4949 122.197 35.6788 122.48 35.9572 122.673C36.2356 122.862 36.5985 122.956 37.046 122.956C37.5332 122.956 37.9226 122.855 38.2143 122.653C38.506 122.447 38.6518 122.197 38.6518 121.902C38.6518 121.663 38.5623 121.463 38.3833 121.3C38.2077 121.138 37.9376 121.015 37.573 120.933L36.2804 120.649C35.5678 120.487 35.0408 120.228 34.6994 119.874C34.3613 119.519 34.1923 119.07 34.1923 118.526C34.1923 118.076 34.3182 117.681 34.5701 117.343C34.822 117.005 35.17 116.741 35.6142 116.553C36.0583 116.36 36.5671 116.264 37.1404 116.264C37.9657 116.264 38.6154 116.443 39.0893 116.801C39.5633 117.156 39.8765 117.631 40.0289 118.228ZM45.1049 124V113.818H46.5914V117.602H46.6809C46.7671 117.442 46.8914 117.259 47.0538 117.05C47.2162 116.841 47.4415 116.659 47.7299 116.503C48.0183 116.344 48.3994 116.264 48.8734 116.264C49.4898 116.264 50.04 116.42 50.5239 116.732C51.0078 117.043 51.3873 117.492 51.6624 118.079C51.9408 118.665 52.08 119.371 52.08 120.197C52.08 121.022 51.9425 121.73 51.6674 122.32C51.3923 122.906 51.0145 123.359 50.5339 123.677C50.0533 123.992 49.5048 124.149 48.8883 124.149C48.4243 124.149 48.0448 124.071 47.7498 123.915C47.4581 123.76 47.2294 123.577 47.0637 123.369C46.898 123.16 46.7704 122.974 46.6809 122.812H46.5566V124H45.1049ZM46.5616 120.182C46.5616 120.719 46.6395 121.189 46.7952 121.594C46.951 121.998 47.1764 122.315 47.4714 122.543C47.7664 122.769 48.1276 122.881 48.5552 122.881C48.9993 122.881 49.3705 122.764 49.6688 122.528C49.9671 122.29 50.1925 121.967 50.345 121.559C50.5007 121.151 50.5786 120.692 50.5786 120.182C50.5786 119.678 50.5024 119.226 50.3499 118.825C50.2008 118.424 49.9754 118.107 49.6738 117.875C49.3755 117.643 49.0026 117.527 48.5552 117.527C48.1243 117.527 47.7597 117.638 47.4614 117.86C47.1665 118.082 46.9427 118.392 46.7903 118.79C46.6378 119.187 46.5616 119.652 46.5616 120.182ZM55.7056 124.169C55.2216 124.169 54.7841 124.08 54.3931 123.901C54.002 123.718 53.6921 123.455 53.4634 123.11C53.238 122.765 53.1253 122.343 53.1253 121.842C53.1253 121.411 53.2082 121.057 53.3739 120.778C53.5396 120.5 53.7633 120.28 54.045 120.117C54.3268 119.955 54.6416 119.832 54.9896 119.749C55.3377 119.666 55.6923 119.603 56.0536 119.56C56.5109 119.507 56.8822 119.464 57.1672 119.431C57.4522 119.395 57.6594 119.337 57.7886 119.257C57.9179 119.178 57.9825 119.048 57.9825 118.869V118.835C57.9825 118.4 57.8599 118.064 57.6146 117.825C57.3727 117.587 57.0114 117.467 56.5308 117.467C56.0304 117.467 55.6359 117.578 55.3476 117.8C55.0626 118.019 54.8654 118.263 54.756 118.531L53.359 118.213C53.5247 117.749 53.7666 117.375 54.0848 117.089C54.4063 116.801 54.7759 116.592 55.1935 116.463C55.6111 116.33 56.0502 116.264 56.5109 116.264C56.8159 116.264 57.139 116.301 57.4804 116.374C57.8251 116.443 58.1466 116.572 58.4449 116.761C58.7465 116.95 58.9934 117.22 59.1857 117.572C59.3779 117.92 59.474 118.372 59.474 118.929V124H58.0223V122.956H57.9627C57.8665 123.148 57.7224 123.337 57.5301 123.523C57.3379 123.708 57.091 123.862 56.7894 123.985C56.4877 124.108 56.1265 124.169 55.7056 124.169ZM56.0287 122.976C56.4397 122.976 56.791 122.895 57.0827 122.732C57.3777 122.57 57.6014 122.358 57.7538 122.096C57.9096 121.831 57.9875 121.547 57.9875 121.246V120.261C57.9345 120.314 57.8317 120.364 57.6793 120.411C57.5301 120.454 57.3594 120.492 57.1672 120.525C56.975 120.555 56.7877 120.583 56.6054 120.609C56.4231 120.633 56.2707 120.652 56.148 120.669C55.8597 120.705 55.5962 120.767 55.3575 120.853C55.1222 120.939 54.9333 121.063 54.7908 121.226C54.6516 121.385 54.582 121.597 54.582 121.862C54.582 122.23 54.7179 122.509 54.9896 122.697C55.2614 122.883 55.6078 122.976 56.0287 122.976ZM62.6745 113.818V124H61.188V113.818H62.6745ZM66.6306 124.169C66.1467 124.169 65.7092 124.08 65.3181 123.901C64.927 123.718 64.6171 123.455 64.3884 123.11C64.163 122.765 64.0503 122.343 64.0503 121.842C64.0503 121.411 64.1332 121.057 64.2989 120.778C64.4646 120.5 64.6883 120.28 64.9701 120.117C65.2518 119.955 65.5667 119.832 65.9147 119.749C66.2627 119.666 66.6173 119.603 66.9786 119.56C67.436 119.507 67.8072 119.464 68.0922 119.431C68.3773 119.395 68.5844 119.337 68.7137 119.257C68.8429 119.178 68.9076 119.048 68.9076 118.869V118.835C68.9076 118.4 68.7849 118.064 68.5397 117.825C68.2977 117.587 67.9365 117.467 67.4559 117.467C66.9554 117.467 66.561 117.578 66.2726 117.8C65.9876 118.019 65.7904 118.263 65.681 118.531L64.284 118.213C64.4497 117.749 64.6917 117.375 65.0098 117.089C65.3313 116.801 65.7009 116.592 66.1185 116.463C66.5361 116.33 66.9753 116.264 67.436 116.264C67.7409 116.264 68.0641 116.301 68.4054 116.374C68.7501 116.443 69.0716 116.572 69.3699 116.761C69.6715 116.95 69.9185 117.22 70.1107 117.572C70.3029 117.92 70.399 118.372 70.399 118.929V124H68.9473V122.956H68.8877C68.7916 123.148 68.6474 123.337 68.4552 123.523C68.2629 123.708 68.016 123.862 67.7144 123.985C67.4128 124.108 67.0515 124.169 66.6306 124.169ZM66.9537 122.976C67.3647 122.976 67.716 122.895 68.0077 122.732C68.3027 122.57 68.5264 122.358 68.6789 122.096C68.8347 121.831 68.9125 121.547 68.9125 121.246V120.261C68.8595 120.314 68.7568 120.364 68.6043 120.411C68.4552 120.454 68.2845 120.492 68.0922 120.525C67.9 120.555 67.7127 120.583 67.5304 120.609C67.3482 120.633 67.1957 120.652 67.0731 120.669C66.7847 120.705 66.5212 120.767 66.2826 120.853C66.0473 120.939 65.8583 121.063 65.7158 121.226C65.5766 121.385 65.507 121.597 65.507 121.862C65.507 122.23 65.6429 122.509 65.9147 122.697C66.1865 122.883 66.5328 122.976 66.9537 122.976ZM73.5995 119.466V124H72.113V116.364H73.5398V117.607H73.6343C73.81 117.202 74.085 116.877 74.4596 116.632C74.8374 116.387 75.313 116.264 75.8864 116.264C76.4068 116.264 76.8625 116.374 77.2536 116.592C77.6447 116.808 77.948 117.129 78.1634 117.557C78.3788 117.984 78.4866 118.513 78.4866 119.143V124H77.0001V119.322C77.0001 118.768 76.8559 118.336 76.5675 118.024C76.2792 117.709 75.8831 117.552 75.3793 117.552C75.0346 117.552 74.728 117.626 74.4596 117.776C74.1944 117.925 73.984 118.143 73.8282 118.432C73.6757 118.717 73.5995 119.062 73.5995 119.466ZM83.4308 124.154C82.6917 124.154 82.0553 123.987 81.5217 123.652C80.9914 123.314 80.5837 122.848 80.2987 122.255C80.0137 121.662 79.8711 120.982 79.8711 120.217C79.8711 119.441 80.017 118.757 80.3086 118.163C80.6003 117.567 81.0113 117.101 81.5416 116.766C82.0719 116.432 82.6967 116.264 83.4159 116.264C83.9959 116.264 84.5129 116.372 84.967 116.587C85.4211 116.799 85.7873 117.098 86.0657 117.482C86.3475 117.867 86.5148 118.316 86.5679 118.83H85.1211C85.0416 118.472 84.8593 118.163 84.5743 117.905C84.2925 117.646 83.9147 117.517 83.4407 117.517C83.0264 117.517 82.6635 117.626 82.352 117.845C82.0437 118.061 81.8034 118.369 81.6311 118.77C81.4587 119.168 81.3726 119.638 81.3726 120.182C81.3726 120.739 81.4571 121.219 81.6261 121.624C81.7951 122.028 82.0338 122.341 82.342 122.563C82.6536 122.785 83.0198 122.896 83.4407 122.896C83.7225 122.896 83.9777 122.845 84.2064 122.742C84.4384 122.636 84.6323 122.485 84.788 122.29C84.9471 122.094 85.0582 121.859 85.1211 121.584H86.5679C86.5148 122.078 86.3541 122.518 86.0856 122.906C85.8172 123.294 85.4575 123.599 85.0068 123.821C84.5593 124.043 84.034 124.154 83.4308 124.154ZM91.1827 124.154C90.4304 124.154 89.7824 123.993 89.2388 123.672C88.6986 123.347 88.281 122.891 87.986 122.305C87.6943 121.715 87.5485 121.024 87.5485 120.232C87.5485 119.449 87.6943 118.76 87.986 118.163C88.281 117.567 88.692 117.101 89.2189 116.766C89.7493 116.432 90.369 116.264 91.0783 116.264C91.5092 116.264 91.9268 116.335 92.3312 116.478C92.7355 116.621 93.0984 116.844 93.4199 117.149C93.7414 117.454 93.995 117.85 94.1806 118.337C94.3662 118.821 94.459 119.41 94.459 120.102V120.629H88.3887V119.516H93.0023C93.0023 119.125 92.9228 118.778 92.7637 118.477C92.6046 118.172 92.3809 117.931 92.0925 117.756C91.8075 117.58 91.4727 117.492 91.0883 117.492C90.6707 117.492 90.3061 117.595 89.9945 117.8C89.6863 118.003 89.4476 118.268 89.2786 118.596C89.1129 118.921 89.03 119.274 89.03 119.655V120.525C89.03 121.035 89.1195 121.469 89.2985 121.827C89.4808 122.185 89.7343 122.459 90.0591 122.648C90.384 122.833 90.7635 122.926 91.1976 122.926C91.4794 122.926 91.7362 122.886 91.9682 122.807C92.2002 122.724 92.4008 122.601 92.5698 122.439C92.7388 122.277 92.8681 122.076 92.9576 121.837L94.3645 122.091C94.2519 122.505 94.0497 122.868 93.758 123.18C93.4697 123.488 93.1067 123.728 92.6692 123.901C92.235 124.07 91.7395 124.154 91.1827 124.154ZM96.8217 124.094C96.55 124.094 96.3163 123.998 96.1207 123.806C95.9252 123.611 95.8274 123.375 95.8274 123.1C95.8274 122.828 95.9252 122.596 96.1207 122.404C96.3163 122.209 96.55 122.111 96.8217 122.111C97.0935 122.111 97.3272 122.209 97.5227 122.404C97.7183 122.596 97.8161 122.828 97.8161 123.1C97.8161 123.282 97.7697 123.45 97.6768 123.602C97.5874 123.751 97.468 123.871 97.3189 123.96C97.1697 124.05 97.004 124.094 96.8217 124.094ZM96.8217 118.536C96.55 118.536 96.3163 118.438 96.1207 118.243C95.9252 118.047 95.8274 117.814 95.8274 117.542C95.8274 117.27 95.9252 117.038 96.1207 116.846C96.3163 116.65 96.55 116.553 96.8217 116.553C97.0935 116.553 97.3272 116.65 97.5227 116.846C97.7183 117.038 97.8161 117.27 97.8161 117.542C97.8161 117.724 97.7697 117.892 97.6768 118.044C97.5874 118.193 97.468 118.312 97.3189 118.402C97.1697 118.491 97.004 118.536 96.8217 118.536ZM106.505 124.139C105.822 124.139 105.212 124.022 104.676 123.786C104.142 123.551 103.719 123.224 103.408 122.807C103.1 122.386 102.934 121.899 102.911 121.345H104.472C104.492 121.647 104.593 121.909 104.775 122.131C104.961 122.349 105.203 122.518 105.501 122.638C105.799 122.757 106.131 122.817 106.495 122.817C106.896 122.817 107.251 122.747 107.559 122.608C107.871 122.469 108.114 122.275 108.29 122.026C108.466 121.774 108.553 121.484 108.553 121.156C108.553 120.815 108.466 120.515 108.29 120.256C108.118 119.995 107.864 119.789 107.529 119.64C107.198 119.491 106.797 119.416 106.326 119.416H105.466V118.163H106.326C106.704 118.163 107.035 118.095 107.32 117.96C107.609 117.824 107.834 117.635 107.997 117.393C108.159 117.147 108.24 116.861 108.24 116.533C108.24 116.218 108.169 115.944 108.026 115.712C107.887 115.477 107.688 115.293 107.43 115.161C107.175 115.028 106.873 114.962 106.525 114.962C106.194 114.962 105.884 115.023 105.595 115.146C105.31 115.265 105.078 115.437 104.899 115.663C104.72 115.885 104.624 116.152 104.611 116.463H103.124C103.141 115.913 103.303 115.429 103.612 115.011C103.923 114.594 104.334 114.267 104.845 114.032C105.355 113.797 105.922 113.679 106.545 113.679C107.198 113.679 107.761 113.807 108.235 114.062C108.712 114.314 109.08 114.65 109.339 115.071C109.601 115.492 109.73 115.953 109.727 116.453C109.73 117.023 109.571 117.507 109.249 117.905C108.931 118.303 108.507 118.569 107.977 118.705V118.785C108.653 118.888 109.177 119.156 109.548 119.59C109.922 120.024 110.108 120.563 110.105 121.206C110.108 121.766 109.952 122.268 109.637 122.712C109.326 123.156 108.9 123.506 108.36 123.761C107.819 124.013 107.201 124.139 106.505 124.139ZM115.296 124V113.818H119.025C119.747 113.818 120.346 113.937 120.82 114.176C121.293 114.411 121.648 114.731 121.883 115.136C122.119 115.537 122.236 115.989 122.236 116.493C122.236 116.917 122.159 117.275 122.003 117.567C121.847 117.855 121.638 118.087 121.376 118.263C121.118 118.435 120.833 118.561 120.521 118.641V118.74C120.859 118.757 121.189 118.866 121.511 119.068C121.835 119.267 122.104 119.55 122.316 119.918C122.528 120.286 122.634 120.734 122.634 121.261C122.634 121.781 122.512 122.248 122.266 122.663C122.024 123.074 121.65 123.4 121.143 123.642C120.636 123.881 119.988 124 119.199 124H115.296ZM116.832 122.683H119.05C119.785 122.683 120.312 122.54 120.631 122.255C120.949 121.97 121.108 121.614 121.108 121.186C121.108 120.865 121.027 120.57 120.864 120.301C120.702 120.033 120.47 119.819 120.168 119.66C119.87 119.501 119.515 119.421 119.104 119.421H116.832V122.683ZM116.832 118.223H118.891C119.235 118.223 119.545 118.157 119.82 118.024C120.099 117.892 120.319 117.706 120.481 117.467C120.647 117.225 120.73 116.94 120.73 116.612C120.73 116.191 120.583 115.838 120.288 115.553C119.993 115.268 119.54 115.126 118.93 115.126H116.832V118.223ZM123.688 115.141V113.818H131.568V115.141H128.391V124H126.86V115.141H123.688ZM141.063 117.129H139.511C139.452 116.798 139.341 116.506 139.178 116.254C139.016 116.002 138.817 115.789 138.582 115.613C138.346 115.437 138.083 115.305 137.791 115.215C137.503 115.126 137.196 115.081 136.872 115.081C136.285 115.081 135.76 115.228 135.296 115.523C134.835 115.818 134.47 116.251 134.202 116.821C133.937 117.391 133.804 118.087 133.804 118.909C133.804 119.738 133.937 120.437 134.202 121.007C134.47 121.577 134.836 122.008 135.3 122.3C135.764 122.591 136.287 122.737 136.867 122.737C137.188 122.737 137.493 122.694 137.781 122.608C138.073 122.518 138.336 122.388 138.572 122.215C138.807 122.043 139.006 121.832 139.168 121.584C139.334 121.332 139.448 121.044 139.511 120.719L141.063 120.724C140.98 121.224 140.819 121.685 140.58 122.106C140.345 122.523 140.042 122.885 139.671 123.19C139.303 123.491 138.882 123.725 138.408 123.891C137.934 124.056 137.417 124.139 136.857 124.139C135.975 124.139 135.189 123.93 134.5 123.513C133.811 123.092 133.267 122.49 132.869 121.708C132.475 120.926 132.278 119.993 132.278 118.909C132.278 117.822 132.477 116.889 132.874 116.11C133.272 115.328 133.816 114.728 134.505 114.31C135.194 113.889 135.978 113.679 136.857 113.679C137.397 113.679 137.901 113.757 138.368 113.913C138.839 114.065 139.261 114.29 139.636 114.589C140.01 114.884 140.32 115.245 140.565 115.673C140.811 116.097 140.976 116.582 141.063 117.129Z" fill="#888888"/>
<path d="M102.024 14.2898V7.56818H103.361V14.2898H102.024ZM99.334 11.5952V10.2628H106.056V11.5952H99.334ZM111.932 5.81818V16H110.391V7.35938H110.331L107.895 8.95028V7.47869L110.436 5.81818H111.932ZM117.999 16V5.81818H121.727C122.45 5.81818 123.048 5.9375 123.522 6.17614C123.996 6.41146 124.351 6.7313 124.586 7.13565C124.821 7.53669 124.939 7.98911 124.939 8.4929C124.939 8.91714 124.861 9.27509 124.705 9.56676C124.549 9.85511 124.341 10.0871 124.079 10.2628C123.82 10.4351 123.535 10.5611 123.224 10.6406V10.7401C123.562 10.7566 123.892 10.866 124.213 11.0682C124.538 11.267 124.806 11.5504 125.018 11.9183C125.231 12.2862 125.337 12.7337 125.337 13.2607C125.337 13.781 125.214 14.2483 124.969 14.6626C124.727 15.0736 124.352 15.4001 123.845 15.642C123.338 15.8807 122.69 16 121.901 16H117.999ZM119.535 14.6825H121.752C122.488 14.6825 123.015 14.54 123.333 14.255C123.651 13.9699 123.81 13.6136 123.81 13.1861C123.81 12.8646 123.729 12.5696 123.567 12.3011C123.404 12.0327 123.172 11.8189 122.871 11.6598C122.572 11.5007 122.218 11.4212 121.807 11.4212H119.535V14.6825ZM119.535 10.223H121.593C121.938 10.223 122.248 10.1567 122.523 10.0241C122.801 9.89157 123.022 9.70597 123.184 9.46733C123.35 9.22538 123.433 8.94034 123.433 8.61222C123.433 8.19129 123.285 7.8383 122.99 7.55327C122.695 7.26823 122.243 7.12571 121.633 7.12571H119.535V10.223ZM126.391 7.14062V5.81818H134.271V7.14062H131.094V16H129.562V7.14062H126.391ZM143.765 9.12926H142.214C142.154 8.79782 142.043 8.50615 141.881 8.25426C141.718 8.00237 141.52 7.78859 141.284 7.61293C141.049 7.43726 140.785 7.30469 140.494 7.2152C140.205 7.12571 139.899 7.08097 139.574 7.08097C138.987 7.08097 138.462 7.22846 137.998 7.52344C137.537 7.81842 137.173 8.25095 136.904 8.82102C136.639 9.3911 136.507 10.0871 136.507 10.9091C136.507 11.7377 136.639 12.437 136.904 13.0071C137.173 13.5772 137.539 14.008 138.003 14.2997C138.467 14.5914 138.989 14.7372 139.569 14.7372C139.891 14.7372 140.195 14.6941 140.484 14.608C140.775 14.5185 141.039 14.3875 141.274 14.2152C141.51 14.0429 141.708 13.8324 141.871 13.5838C142.037 13.3319 142.151 13.0436 142.214 12.7188L143.765 12.7237C143.682 13.2242 143.521 13.6849 143.283 14.1058C143.047 14.5234 142.744 14.8847 142.373 15.1896C142.005 15.4912 141.584 15.7249 141.11 15.8906C140.636 16.0563 140.119 16.1392 139.559 16.1392C138.677 16.1392 137.892 15.9304 137.203 15.5128C136.513 15.0919 135.97 14.4903 135.572 13.7081C135.177 12.9259 134.98 11.9929 134.98 10.9091C134.98 9.82197 135.179 8.88897 135.577 8.11008C135.975 7.32789 136.518 6.72798 137.208 6.31037C137.897 5.88944 138.681 5.67898 139.559 5.67898C140.099 5.67898 140.603 5.75687 141.07 5.91264C141.541 6.0651 141.964 6.29048 142.338 6.58878C142.713 6.88376 143.023 7.24503 143.268 7.67258C143.513 8.09683 143.679 8.58239 143.765 9.12926ZM154.379 10.228L153.032 10.4666C152.976 10.2943 152.886 10.1302 152.764 9.97443C152.644 9.81865 152.482 9.69105 152.276 9.59162C152.071 9.49219 151.814 9.44247 151.506 9.44247C151.085 9.44247 150.734 9.53693 150.452 9.72585C150.17 9.91146 150.029 10.1518 150.029 10.4467C150.029 10.7019 150.124 10.9074 150.313 11.0632C150.502 11.219 150.806 11.3466 151.227 11.446L152.44 11.7244C153.143 11.8868 153.667 12.1371 154.011 12.4751C154.356 12.8132 154.528 13.2524 154.528 13.7926C154.528 14.25 154.396 14.6577 154.131 15.0156C153.869 15.3703 153.503 15.6487 153.032 15.8509C152.565 16.053 152.023 16.1541 151.406 16.1541C150.551 16.1541 149.854 15.9718 149.313 15.6072C148.773 15.2393 148.442 14.7173 148.319 14.0412L149.756 13.8224C149.845 14.197 150.029 14.4804 150.308 14.6726C150.586 14.8615 150.949 14.956 151.396 14.956C151.884 14.956 152.273 14.8549 152.565 14.6527C152.856 14.4472 153.002 14.197 153.002 13.902C153.002 13.6634 152.913 13.4628 152.734 13.3004C152.558 13.138 152.288 13.0154 151.923 12.9325L150.631 12.6491C149.918 12.4867 149.391 12.2282 149.05 11.8736C148.712 11.5189 148.543 11.0698 148.543 10.5263C148.543 10.0755 148.669 9.68111 148.921 9.34304C149.172 9.00497 149.52 8.74148 149.965 8.55256C150.409 8.36032 150.917 8.2642 151.491 8.2642C152.316 8.2642 152.966 8.44318 153.44 8.80114C153.914 9.15578 154.227 9.63139 154.379 10.228ZM155.897 18.8636V8.36364H157.349V9.60156H157.473C157.559 9.44247 157.683 9.25852 157.846 9.04972C158.008 8.84091 158.234 8.65862 158.522 8.50284C158.81 8.34375 159.191 8.2642 159.665 8.2642C160.282 8.2642 160.832 8.41998 161.316 8.73153C161.8 9.04309 162.179 9.49219 162.454 10.0788C162.733 10.6655 162.872 11.3714 162.872 12.1967C162.872 13.022 162.734 13.7296 162.459 14.3196C162.184 14.9062 161.806 15.3587 161.326 15.6768C160.845 15.9917 160.297 16.1491 159.68 16.1491C159.216 16.1491 158.837 16.0713 158.542 15.9155C158.25 15.7597 158.021 15.5774 157.856 15.3686C157.69 15.1598 157.562 14.9742 157.473 14.8118H157.383V18.8636H155.897ZM157.354 12.1818C157.354 12.7187 157.431 13.1894 157.587 13.5938C157.743 13.9981 157.968 14.3146 158.263 14.5433C158.558 14.7687 158.92 14.8814 159.347 14.8814C159.791 14.8814 160.163 14.7637 160.461 14.5284C160.759 14.2898 160.984 13.9666 161.137 13.5589C161.293 13.1513 161.371 12.6922 161.371 12.1818C161.371 11.678 161.294 11.2256 161.142 10.8246C160.993 10.4235 160.767 10.107 160.466 9.875C160.168 9.64299 159.795 9.52699 159.347 9.52699C158.916 9.52699 158.552 9.63802 158.253 9.86009C157.958 10.0821 157.735 10.392 157.582 10.7898C157.43 11.1875 157.354 11.6515 157.354 12.1818ZM165.758 5.81818V16H164.272V5.81818H165.758ZM167.492 16V8.36364H168.978V16H167.492ZM168.243 7.18537C167.984 7.18537 167.762 7.09919 167.576 6.92685C167.394 6.75118 167.303 6.54238 167.303 6.30043C167.303 6.05516 167.394 5.84635 167.576 5.67401C167.762 5.49834 167.984 5.41051 168.243 5.41051C168.501 5.41051 168.721 5.49834 168.904 5.67401C169.089 5.84635 169.182 6.05516 169.182 6.30043C169.182 6.54238 169.089 6.75118 168.904 6.92685C168.721 7.09919 168.501 7.18537 168.243 7.18537ZM173.929 16.1541C173.19 16.1541 172.553 15.9867 172.02 15.652C171.489 15.3139 171.082 14.8482 170.797 14.255C170.512 13.6617 170.369 12.9822 170.369 12.2166C170.369 11.4411 170.515 10.7566 170.807 10.1634C171.098 9.56676 171.509 9.10109 172.04 8.76633C172.57 8.43158 173.195 8.2642 173.914 8.2642C174.494 8.2642 175.011 8.37192 175.465 8.58736C175.919 8.79948 176.285 9.09777 176.564 9.48224C176.845 9.86671 177.013 10.3158 177.066 10.8295H175.619C175.54 10.4716 175.357 10.1634 175.072 9.90483C174.791 9.64631 174.413 9.51705 173.939 9.51705C173.524 9.51705 173.162 9.62642 172.85 9.84517C172.542 10.0606 172.301 10.3688 172.129 10.7699C171.957 11.1676 171.871 11.6383 171.871 12.1818C171.871 12.7386 171.955 13.2192 172.124 13.6236C172.293 14.0279 172.532 14.3411 172.84 14.5632C173.152 14.7853 173.518 14.8963 173.939 14.8963C174.22 14.8963 174.476 14.8449 174.704 14.7422C174.936 14.6361 175.13 14.4853 175.286 14.2898C175.445 14.0942 175.556 13.8589 175.619 13.5838H177.066C177.013 14.0777 176.852 14.5185 176.584 14.9062C176.315 15.294 175.956 15.599 175.505 15.821C175.057 16.0431 174.532 16.1541 173.929 16.1541ZM181.681 16.1541C180.928 16.1541 180.28 15.9934 179.737 15.6719C179.197 15.3471 178.779 14.8913 178.484 14.3047C178.192 13.7147 178.047 13.0237 178.047 12.2315C178.047 11.4493 178.192 10.7599 178.484 10.1634C178.779 9.56676 179.19 9.10109 179.717 8.76633C180.247 8.43158 180.867 8.2642 181.576 8.2642C182.007 8.2642 182.425 8.33546 182.829 8.47798C183.234 8.6205 183.596 8.84422 183.918 9.14915C184.239 9.45407 184.493 9.85014 184.679 10.3374C184.864 10.8213 184.957 11.4096 184.957 12.1023V12.6293H178.887V11.5156H183.5C183.5 11.1245 183.421 10.7782 183.262 10.4766C183.103 10.1716 182.879 9.93134 182.591 9.75568C182.305 9.58002 181.971 9.49219 181.586 9.49219C181.169 9.49219 180.804 9.59493 180.493 9.80043C180.184 10.0026 179.946 10.2678 179.777 10.5959C179.611 10.9207 179.528 11.2737 179.528 11.6548V12.5249C179.528 13.0353 179.618 13.4695 179.797 13.8274C179.979 14.1854 180.232 14.4588 180.557 14.6477C180.882 14.8333 181.261 14.9261 181.696 14.9261C181.977 14.9261 182.234 14.8864 182.466 14.8068C182.698 14.724 182.899 14.6013 183.068 14.4389C183.237 14.2765 183.366 14.076 183.456 13.8374L184.863 14.0909C184.75 14.5052 184.548 14.8681 184.256 15.1797C183.968 15.4879 183.605 15.7282 183.167 15.9006C182.733 16.0696 182.238 16.1541 181.681 16.1541ZM193.414 8.36364V9.55682H189.098V8.36364H193.414ZM190.282 16V7.47869C190.282 7.00142 190.386 6.60535 190.595 6.29048C190.804 5.9723 191.08 5.73532 191.425 5.57955C191.77 5.42045 192.144 5.34091 192.549 5.34091C192.847 5.34091 193.102 5.36577 193.314 5.41548C193.526 5.46188 193.684 5.50497 193.787 5.54474L193.439 6.74787C193.369 6.72798 193.279 6.70478 193.17 6.67827C193.061 6.64844 192.928 6.63352 192.772 6.63352C192.411 6.63352 192.153 6.72301 191.997 6.90199C191.844 7.08097 191.768 7.33949 191.768 7.67756V16H190.282ZM197.597 16.1541C196.881 16.1541 196.257 15.9901 195.723 15.6619C195.189 15.3338 194.775 14.8748 194.48 14.2848C194.185 13.6948 194.038 13.0054 194.038 12.2166C194.038 11.4245 194.185 10.7318 194.48 10.1385C194.775 9.54522 195.189 9.08452 195.723 8.75639C196.257 8.42827 196.881 8.2642 197.597 8.2642C198.313 8.2642 198.938 8.42827 199.472 8.75639C200.005 9.08452 200.419 9.54522 200.714 10.1385C201.009 10.7318 201.157 11.4245 201.157 12.2166C201.157 13.0054 201.009 13.6948 200.714 14.2848C200.419 14.8748 200.005 15.3338 199.472 15.6619C198.938 15.9901 198.313 16.1541 197.597 16.1541ZM197.602 14.9062C198.066 14.9062 198.451 14.7836 198.756 14.5384C199.061 14.2931 199.286 13.9666 199.432 13.5589C199.581 13.1513 199.655 12.7022 199.655 12.2116C199.655 11.7244 199.581 11.277 199.432 10.8693C199.286 10.4583 199.061 10.1286 198.756 9.87997C198.451 9.63139 198.066 9.5071 197.602 9.5071C197.135 9.5071 196.747 9.63139 196.439 9.87997C196.134 10.1286 195.907 10.4583 195.758 10.8693C195.612 11.277 195.539 11.7244 195.539 12.2116C195.539 12.7022 195.612 13.1513 195.758 13.5589C195.907 13.9666 196.134 14.2931 196.439 14.5384C196.747 14.7836 197.135 14.9062 197.602 14.9062ZM202.55 16V8.36364H203.987V9.5767H204.066C204.206 9.16572 204.451 8.84257 204.802 8.60724C205.157 8.36861 205.558 8.24929 206.005 8.24929C206.098 8.24929 206.208 8.2526 206.334 8.25923C206.463 8.26586 206.564 8.27415 206.637 8.28409V9.70597C206.577 9.68939 206.471 9.67116 206.319 9.65128C206.166 9.62808 206.014 9.61648 205.861 9.61648C205.51 9.61648 205.197 9.69105 204.922 9.8402C204.65 9.98603 204.434 10.1899 204.275 10.4517C204.116 10.7102 204.037 11.0052 204.037 11.3366V16H202.55ZM212.076 16H210.445L214.109 5.81818H215.884L219.548 16H217.917L215.039 7.66761H214.959L212.076 16ZM212.349 12.0128H217.639V13.3054H212.349V12.0128ZM222.12 5.81818V16H220.633V5.81818H222.12ZM223.853 16V8.36364H225.34V16H223.853ZM224.604 7.18537C224.346 7.18537 224.123 7.09919 223.938 6.92685C223.756 6.75118 223.664 6.54238 223.664 6.30043C223.664 6.05516 223.756 5.84635 223.938 5.67401C224.123 5.49834 224.346 5.41051 224.604 5.41051C224.863 5.41051 225.083 5.49834 225.265 5.67401C225.451 5.84635 225.544 6.05516 225.544 6.30043C225.544 6.54238 225.451 6.75118 225.265 6.92685C225.083 7.09919 224.863 7.18537 224.604 7.18537ZM230.29 16.1541C229.551 16.1541 228.915 15.9867 228.381 15.652C227.851 15.3139 227.443 14.8482 227.158 14.255C226.873 13.6617 226.731 12.9822 226.731 12.2166C226.731 11.4411 226.876 10.7566 227.168 10.1634C227.46 9.56676 227.871 9.10109 228.401 8.76633C228.931 8.43158 229.556 8.2642 230.275 8.2642C230.855 8.2642 231.372 8.37192 231.827 8.58736C232.281 8.79948 232.647 9.09777 232.925 9.48224C233.207 9.86671 233.374 10.3158 233.427 10.8295H231.981C231.901 10.4716 231.719 10.1634 231.434 9.90483C231.152 9.64631 230.774 9.51705 230.3 9.51705C229.886 9.51705 229.523 9.62642 229.211 9.84517C228.903 10.0606 228.663 10.3688 228.491 10.7699C228.318 11.1676 228.232 11.6383 228.232 12.1818C228.232 12.7386 228.317 13.2192 228.486 13.6236C228.655 14.0279 228.893 14.3411 229.202 14.5632C229.513 14.7853 229.879 14.8963 230.3 14.8963C230.582 14.8963 230.837 14.8449 231.066 14.7422C231.298 14.6361 231.492 14.4853 231.648 14.2898C231.807 14.0942 231.918 13.8589 231.981 13.5838H233.427C233.374 14.0777 233.214 14.5185 232.945 14.9062C232.677 15.294 232.317 15.599 231.866 15.821C231.419 16.0431 230.894 16.1541 230.29 16.1541ZM238.042 16.1541C237.29 16.1541 236.642 15.9934 236.098 15.6719C235.558 15.3471 235.14 14.8913 234.845 14.3047C234.554 13.7147 234.408 13.0237 234.408 12.2315C234.408 11.4493 234.554 10.7599 234.845 10.1634C235.14 9.56676 235.551 9.10109 236.078 8.76633C236.609 8.43158 237.229 8.2642 237.938 8.2642C238.369 8.2642 238.786 8.33546 239.191 8.47798C239.595 8.6205 239.958 8.84422 240.279 9.14915C240.601 9.45407 240.854 9.85014 241.04 10.3374C241.226 10.8213 241.319 11.4096 241.319 12.1023V12.6293H235.248V11.5156H239.862C239.862 11.1245 239.782 10.7782 239.623 10.4766C239.464 10.1716 239.24 9.93134 238.952 9.75568C238.667 9.58002 238.332 9.49219 237.948 9.49219C237.53 9.49219 237.166 9.59493 236.854 9.80043C236.546 10.0026 236.307 10.2678 236.138 10.5959C235.972 10.9207 235.89 11.2737 235.89 11.6548V12.5249C235.89 13.0353 235.979 13.4695 236.158 13.8274C236.34 14.1854 236.594 14.4588 236.919 14.6477C237.243 14.8333 237.623 14.9261 238.057 14.9261C238.339 14.9261 238.596 14.8864 238.828 14.8068C239.06 14.724 239.26 14.6013 239.429 14.4389C239.598 14.2765 239.728 14.076 239.817 13.8374L241.224 14.0909C241.111 14.5052 240.909 14.8681 240.618 15.1797C240.329 15.4879 239.966 15.7282 239.529 15.9006C239.095 16.0696 238.599 16.1541 238.042 16.1541Z" fill="#888888"/>
<path d="M588.577 124V113.818H592.306C593.028 113.818 593.627 113.937 594.101 114.176C594.575 114.411 594.929 114.731 595.165 115.136C595.4 115.537 595.518 115.989 595.518 116.493C595.518 116.917 595.44 117.275 595.284 117.567C595.128 117.855 594.919 118.087 594.658 118.263C594.399 118.435 594.114 118.561 593.802 118.641V118.74C594.14 118.757 594.47 118.866 594.792 119.068C595.117 119.267 595.385 119.55 595.597 119.918C595.809 120.286 595.915 120.734 595.915 121.261C595.915 121.781 595.793 122.248 595.547 122.663C595.305 123.074 594.931 123.4 594.424 123.642C593.917 123.881 593.269 124 592.48 124H588.577ZM590.113 122.683H592.331C593.067 122.683 593.594 122.54 593.912 122.255C594.23 121.97 594.389 121.614 594.389 121.186C594.389 120.865 594.308 120.57 594.145 120.301C593.983 120.033 593.751 119.819 593.449 119.66C593.151 119.501 592.796 119.421 592.385 119.421H590.113V122.683ZM590.113 118.223H592.172C592.516 118.223 592.826 118.157 593.101 118.024C593.38 117.892 593.6 117.706 593.763 117.467C593.928 117.225 594.011 116.94 594.011 116.612C594.011 116.191 593.864 115.838 593.569 115.553C593.274 115.268 592.821 115.126 592.211 115.126H590.113V118.223ZM600.569 124.154C599.853 124.154 599.228 123.99 598.694 123.662C598.161 123.334 597.747 122.875 597.452 122.285C597.157 121.695 597.009 121.005 597.009 120.217C597.009 119.424 597.157 118.732 597.452 118.138C597.747 117.545 598.161 117.085 598.694 116.756C599.228 116.428 599.853 116.264 600.569 116.264C601.285 116.264 601.909 116.428 602.443 116.756C602.977 117.085 603.391 117.545 603.686 118.138C603.981 118.732 604.128 119.424 604.128 120.217C604.128 121.005 603.981 121.695 603.686 122.285C603.391 122.875 602.977 123.334 602.443 123.662C601.909 123.99 601.285 124.154 600.569 124.154ZM600.574 122.906C601.038 122.906 601.422 122.784 601.727 122.538C602.032 122.293 602.257 121.967 602.403 121.559C602.552 121.151 602.627 120.702 602.627 120.212C602.627 119.724 602.552 119.277 602.403 118.869C602.257 118.458 602.032 118.129 601.727 117.88C601.422 117.631 601.038 117.507 600.574 117.507C600.106 117.507 599.719 117.631 599.41 117.88C599.105 118.129 598.878 118.458 598.729 118.869C598.583 119.277 598.51 119.724 598.51 120.212C598.51 120.702 598.583 121.151 598.729 121.559C598.878 121.967 599.105 122.293 599.41 122.538C599.719 122.784 600.106 122.906 600.574 122.906ZM605.641 124V113.818H607.127V117.602H607.217C607.303 117.442 607.427 117.259 607.59 117.05C607.752 116.841 607.978 116.659 608.266 116.503C608.554 116.344 608.935 116.264 609.409 116.264C610.026 116.264 610.576 116.42 611.06 116.732C611.544 117.043 611.923 117.492 612.198 118.079C612.477 118.665 612.616 119.371 612.616 120.197C612.616 121.022 612.479 121.73 612.203 122.32C611.928 122.906 611.551 123.359 611.07 123.677C610.589 123.992 610.041 124.149 609.424 124.149C608.96 124.149 608.581 124.071 608.286 123.915C607.994 123.76 607.765 123.577 607.6 123.369C607.434 123.16 607.306 122.974 607.217 122.812H607.093V124H605.641ZM607.098 120.182C607.098 120.719 607.176 121.189 607.331 121.594C607.487 121.998 607.712 122.315 608.007 122.543C608.302 122.769 608.664 122.881 609.091 122.881C609.535 122.881 609.907 122.764 610.205 122.528C610.503 122.29 610.729 121.967 610.881 121.559C611.037 121.151 611.115 120.692 611.115 120.182C611.115 119.678 611.038 119.226 610.886 118.825C610.737 118.424 610.511 118.107 610.21 117.875C609.912 117.643 609.539 117.527 609.091 117.527C608.66 117.527 608.296 117.638 607.997 117.86C607.703 118.082 607.479 118.392 607.326 118.79C607.174 119.187 607.098 119.652 607.098 120.182ZM615.297 113.818V114.773C615.297 115.054 615.244 115.351 615.138 115.663C615.035 115.971 614.889 116.268 614.7 116.553C614.511 116.838 614.289 117.083 614.034 117.288L613.298 116.761C613.494 116.476 613.663 116.173 613.806 115.852C613.951 115.53 614.024 115.175 614.024 114.788V113.818H615.297ZM621.226 118.228L619.878 118.467C619.822 118.294 619.732 118.13 619.61 117.974C619.491 117.819 619.328 117.691 619.123 117.592C618.917 117.492 618.66 117.442 618.352 117.442C617.931 117.442 617.58 117.537 617.298 117.726C617.016 117.911 616.875 118.152 616.875 118.447C616.875 118.702 616.97 118.907 617.159 119.063C617.348 119.219 617.653 119.347 618.074 119.446L619.287 119.724C619.989 119.887 620.513 120.137 620.858 120.475C621.202 120.813 621.375 121.252 621.375 121.793C621.375 122.25 621.242 122.658 620.977 123.016C620.715 123.37 620.349 123.649 619.878 123.851C619.411 124.053 618.869 124.154 618.253 124.154C617.397 124.154 616.7 123.972 616.16 123.607C615.619 123.239 615.288 122.717 615.165 122.041L616.602 121.822C616.692 122.197 616.875 122.48 617.154 122.673C617.432 122.862 617.795 122.956 618.243 122.956C618.73 122.956 619.119 122.855 619.411 122.653C619.703 122.447 619.848 122.197 619.848 121.902C619.848 121.663 619.759 121.463 619.58 121.3C619.404 121.138 619.134 121.015 618.77 120.933L617.477 120.649C616.764 120.487 616.237 120.228 615.896 119.874C615.558 119.519 615.389 119.07 615.389 118.526C615.389 118.076 615.515 117.681 615.767 117.343C616.019 117.005 616.367 116.741 616.811 116.553C617.255 116.36 617.764 116.264 618.337 116.264C619.162 116.264 619.812 116.443 620.286 116.801C620.76 117.156 621.073 117.631 621.226 118.228ZM626.302 124V113.818H627.788V117.602H627.878C627.964 117.442 628.088 117.259 628.25 117.05C628.413 116.841 628.638 116.659 628.927 116.503C629.215 116.344 629.596 116.264 630.07 116.264C630.687 116.264 631.237 116.42 631.721 116.732C632.204 117.043 632.584 117.492 632.859 118.079C633.137 118.665 633.277 119.371 633.277 120.197C633.277 121.022 633.139 121.73 632.864 122.32C632.589 122.906 632.211 123.359 631.731 123.677C631.25 123.992 630.701 124.149 630.085 124.149C629.621 124.149 629.241 124.071 628.946 123.915C628.655 123.76 628.426 123.577 628.26 123.369C628.095 123.16 627.967 122.974 627.878 122.812H627.753V124H626.302ZM627.758 120.182C627.758 120.719 627.836 121.189 627.992 121.594C628.148 121.998 628.373 122.315 628.668 122.543C628.963 122.769 629.324 122.881 629.752 122.881C630.196 122.881 630.567 122.764 630.865 122.528C631.164 122.29 631.389 121.967 631.542 121.559C631.697 121.151 631.775 120.692 631.775 120.182C631.775 119.678 631.699 119.226 631.547 118.825C631.397 118.424 631.172 118.107 630.87 117.875C630.572 117.643 630.199 117.527 629.752 117.527C629.321 117.527 628.956 117.638 628.658 117.86C628.363 118.082 628.139 118.392 627.987 118.79C627.834 119.187 627.758 119.652 627.758 120.182ZM636.902 124.169C636.418 124.169 635.981 124.08 635.59 123.901C635.199 123.718 634.889 123.455 634.66 123.11C634.435 122.765 634.322 122.343 634.322 121.842C634.322 121.411 634.405 121.057 634.571 120.778C634.736 120.5 634.96 120.28 635.242 120.117C635.523 119.955 635.838 119.832 636.186 119.749C636.534 119.666 636.889 119.603 637.25 119.56C637.708 119.507 638.079 119.464 638.364 119.431C638.649 119.395 638.856 119.337 638.985 119.257C639.115 119.178 639.179 119.048 639.179 118.869V118.835C639.179 118.4 639.057 118.064 638.811 117.825C638.569 117.587 638.208 117.467 637.728 117.467C637.227 117.467 636.833 117.578 636.544 117.8C636.259 118.019 636.062 118.263 635.953 118.531L634.556 118.213C634.721 117.749 634.963 117.375 635.281 117.089C635.603 116.801 635.973 116.592 636.39 116.463C636.808 116.33 637.247 116.264 637.708 116.264C638.013 116.264 638.336 116.301 638.677 116.374C639.022 116.443 639.343 116.572 639.642 116.761C639.943 116.95 640.19 117.22 640.382 117.572C640.575 117.92 640.671 118.372 640.671 118.929V124H639.219V122.956H639.159C639.063 123.148 638.919 123.337 638.727 123.523C638.535 123.708 638.288 123.862 637.986 123.985C637.684 124.108 637.323 124.169 636.902 124.169ZM637.225 122.976C637.636 122.976 637.988 122.895 638.279 122.732C638.574 122.57 638.798 122.358 638.951 122.096C639.106 121.831 639.184 121.547 639.184 121.246V120.261C639.131 120.314 639.028 120.364 638.876 120.411C638.727 120.454 638.556 120.492 638.364 120.525C638.172 120.555 637.984 120.583 637.802 120.609C637.62 120.633 637.467 120.652 637.345 120.669C637.056 120.705 636.793 120.767 636.554 120.853C636.319 120.939 636.13 121.063 635.987 121.226C635.848 121.385 635.779 121.597 635.779 121.862C635.779 122.23 635.915 122.509 636.186 122.697C636.458 122.883 636.804 122.976 637.225 122.976ZM643.871 113.818V124H642.385V113.818H643.871ZM647.827 124.169C647.343 124.169 646.906 124.08 646.515 123.901C646.124 123.718 645.814 123.455 645.585 123.11C645.36 122.765 645.247 122.343 645.247 121.842C645.247 121.411 645.33 121.057 645.496 120.778C645.661 120.5 645.885 120.28 646.167 120.117C646.448 119.955 646.763 119.832 647.111 119.749C647.459 119.666 647.814 119.603 648.175 119.56C648.633 119.507 649.004 119.464 649.289 119.431C649.574 119.395 649.781 119.337 649.91 119.257C650.04 119.178 650.104 119.048 650.104 118.869V118.835C650.104 118.4 649.982 118.064 649.736 117.825C649.494 117.587 649.133 117.467 648.653 117.467C648.152 117.467 647.758 117.578 647.469 117.8C647.184 118.019 646.987 118.263 646.878 118.531L645.481 118.213C645.646 117.749 645.888 117.375 646.207 117.089C646.528 116.801 646.898 116.592 647.315 116.463C647.733 116.33 648.172 116.264 648.633 116.264C648.938 116.264 649.261 116.301 649.602 116.374C649.947 116.443 650.268 116.572 650.567 116.761C650.868 116.95 651.115 117.22 651.307 117.572C651.5 117.92 651.596 118.372 651.596 118.929V124H650.144V122.956H650.084C649.988 123.148 649.844 123.337 649.652 123.523C649.46 123.708 649.213 123.862 648.911 123.985C648.609 124.108 648.248 124.169 647.827 124.169ZM648.15 122.976C648.561 122.976 648.913 122.895 649.204 122.732C649.499 122.57 649.723 122.358 649.876 122.096C650.031 121.831 650.109 121.547 650.109 121.246V120.261C650.056 120.314 649.953 120.364 649.801 120.411C649.652 120.454 649.481 120.492 649.289 120.525C649.097 120.555 648.909 120.583 648.727 120.609C648.545 120.633 648.392 120.652 648.27 120.669C647.981 120.705 647.718 120.767 647.479 120.853C647.244 120.939 647.055 121.063 646.912 121.226C646.773 121.385 646.704 121.597 646.704 121.862C646.704 122.23 646.84 122.509 647.111 122.697C647.383 122.883 647.729 122.976 648.15 122.976ZM654.796 119.466V124H653.31V116.364H654.736V117.607H654.831C655.007 117.202 655.282 116.877 655.656 116.632C656.034 116.387 656.51 116.264 657.083 116.264C657.603 116.264 658.059 116.374 658.45 116.592C658.841 116.808 659.145 117.129 659.36 117.557C659.576 117.984 659.683 118.513 659.683 119.143V124H658.197V119.322C658.197 118.768 658.053 118.336 657.764 118.024C657.476 117.709 657.08 117.552 656.576 117.552C656.231 117.552 655.925 117.626 655.656 117.776C655.391 117.925 655.181 118.143 655.025 118.432C654.872 118.717 654.796 119.062 654.796 119.466ZM664.627 124.154C663.888 124.154 663.252 123.987 662.718 123.652C662.188 123.314 661.78 122.848 661.495 122.255C661.21 121.662 661.068 120.982 661.068 120.217C661.068 119.441 661.214 118.757 661.505 118.163C661.797 117.567 662.208 117.101 662.738 116.766C663.269 116.432 663.893 116.264 664.613 116.264C665.193 116.264 665.71 116.372 666.164 116.587C666.618 116.799 666.984 117.098 667.262 117.482C667.544 117.867 667.711 118.316 667.765 118.83H666.318C666.238 118.472 666.056 118.163 665.771 117.905C665.489 117.646 665.111 117.517 664.637 117.517C664.223 117.517 663.86 117.626 663.549 117.845C663.24 118.061 663 118.369 662.828 118.77C662.655 119.168 662.569 119.638 662.569 120.182C662.569 120.739 662.654 121.219 662.823 121.624C662.992 122.028 663.23 122.341 663.539 122.563C663.85 122.785 664.216 122.896 664.637 122.896C664.919 122.896 665.174 122.845 665.403 122.742C665.635 122.636 665.829 122.485 665.985 122.29C666.144 122.094 666.255 121.859 666.318 121.584H667.765C667.711 122.078 667.551 122.518 667.282 122.906C667.014 123.294 666.654 123.599 666.203 123.821C665.756 124.043 665.231 124.154 664.627 124.154ZM672.379 124.154C671.627 124.154 670.979 123.993 670.435 123.672C669.895 123.347 669.478 122.891 669.183 122.305C668.891 121.715 668.745 121.024 668.745 120.232C668.745 119.449 668.891 118.76 669.183 118.163C669.478 117.567 669.889 117.101 670.416 116.766C670.946 116.432 671.566 116.264 672.275 116.264C672.706 116.264 673.123 116.335 673.528 116.478C673.932 116.621 674.295 116.844 674.617 117.149C674.938 117.454 675.192 117.85 675.377 118.337C675.563 118.821 675.656 119.41 675.656 120.102V120.629H669.585V119.516H674.199C674.199 119.125 674.119 118.778 673.96 118.477C673.801 118.172 673.578 117.931 673.289 117.756C673.004 117.58 672.669 117.492 672.285 117.492C671.867 117.492 671.503 117.595 671.191 117.8C670.883 118.003 670.644 118.268 670.475 118.596C670.31 118.921 670.227 119.274 670.227 119.655V120.525C670.227 121.035 670.316 121.469 670.495 121.827C670.677 122.185 670.931 122.459 671.256 122.648C671.581 122.833 671.96 122.926 672.394 122.926C672.676 122.926 672.933 122.886 673.165 122.807C673.397 122.724 673.597 122.601 673.766 122.439C673.935 122.277 674.065 122.076 674.154 121.837L675.561 122.091C675.449 122.505 675.246 122.868 674.955 123.18C674.666 123.488 674.303 123.728 673.866 123.901C673.432 124.07 672.936 124.154 672.379 124.154ZM678.018 124.094C677.747 124.094 677.513 123.998 677.317 123.806C677.122 123.611 677.024 123.375 677.024 123.1C677.024 122.828 677.122 122.596 677.317 122.404C677.513 122.209 677.747 122.111 678.018 122.111C678.29 122.111 678.524 122.209 678.719 122.404C678.915 122.596 679.013 122.828 679.013 123.1C679.013 123.282 678.966 123.45 678.874 123.602C678.784 123.751 678.665 123.871 678.516 123.96C678.366 124.05 678.201 124.094 678.018 124.094ZM678.018 118.536C677.747 118.536 677.513 118.438 677.317 118.243C677.122 118.047 677.024 117.814 677.024 117.542C677.024 117.27 677.122 117.038 677.317 116.846C677.513 116.65 677.747 116.553 678.018 116.553C678.29 116.553 678.524 116.65 678.719 116.846C678.915 117.038 679.013 117.27 679.013 117.542C679.013 117.724 678.966 117.892 678.874 118.044C678.784 118.193 678.665 118.312 678.516 118.402C678.366 118.491 678.201 118.536 678.018 118.536ZM684.157 124V122.886L687.602 119.317C687.97 118.929 688.274 118.589 688.512 118.298C688.754 118.003 688.935 117.723 689.054 117.457C689.173 117.192 689.233 116.911 689.233 116.612C689.233 116.274 689.153 115.982 688.994 115.737C688.835 115.489 688.618 115.298 688.343 115.165C688.068 115.03 687.758 114.962 687.413 114.962C687.049 114.962 686.731 115.036 686.459 115.185C686.187 115.335 685.978 115.545 685.832 115.817C685.687 116.089 685.614 116.407 685.614 116.771H684.147C684.147 116.152 684.29 115.61 684.575 115.146C684.86 114.682 685.251 114.322 685.748 114.067C686.245 113.808 686.81 113.679 687.443 113.679C688.083 113.679 688.646 113.807 689.134 114.062C689.624 114.314 690.007 114.658 690.282 115.096C690.557 115.53 690.695 116.021 690.695 116.567C690.695 116.945 690.623 117.315 690.481 117.676C690.342 118.037 690.098 118.44 689.75 118.884C689.402 119.325 688.918 119.86 688.298 120.49L686.275 122.608V122.683H690.859V124H684.157ZM696.055 124V113.818H699.784C700.506 113.818 701.105 113.937 701.579 114.176C702.053 114.411 702.407 114.731 702.643 115.136C702.878 115.537 702.996 115.989 702.996 116.493C702.996 116.917 702.918 117.275 702.762 117.567C702.606 117.855 702.397 118.087 702.136 118.263C701.877 118.435 701.592 118.561 701.28 118.641V118.74C701.618 118.757 701.948 118.866 702.27 119.068C702.595 119.267 702.863 119.55 703.075 119.918C703.287 120.286 703.393 120.734 703.393 121.261C703.393 121.781 703.271 122.248 703.025 122.663C702.783 123.074 702.409 123.4 701.902 123.642C701.395 123.881 700.747 124 699.958 124H696.055ZM697.591 122.683H699.809C700.545 122.683 701.072 122.54 701.39 122.255C701.708 121.97 701.867 121.614 701.867 121.186C701.867 120.865 701.786 120.57 701.623 120.301C701.461 120.033 701.229 119.819 700.927 119.66C700.629 119.501 700.274 119.421 699.863 119.421H697.591V122.683ZM697.591 118.223H699.65C699.994 118.223 700.304 118.157 700.579 118.024C700.858 117.892 701.078 117.706 701.241 117.467C701.406 117.225 701.489 116.94 701.489 116.612C701.489 116.191 701.342 115.838 701.047 115.553C700.752 115.268 700.299 115.126 699.689 115.126H697.591V118.223ZM704.447 115.141V113.818H712.327V115.141H709.15V124H707.619V115.141H704.447ZM721.822 117.129H720.271C720.211 116.798 720.1 116.506 719.937 116.254C719.775 116.002 719.576 115.789 719.341 115.613C719.106 115.437 718.842 115.305 718.55 115.215C718.262 115.126 717.955 115.081 717.631 115.081C717.044 115.081 716.519 115.228 716.055 115.523C715.594 115.818 715.229 116.251 714.961 116.821C714.696 117.391 714.563 118.087 714.563 118.909C714.563 119.738 714.696 120.437 714.961 121.007C715.229 121.577 715.596 122.008 716.06 122.3C716.524 122.591 717.046 122.737 717.626 122.737C717.947 122.737 718.252 122.694 718.54 122.608C718.832 122.518 719.096 122.388 719.331 122.215C719.566 122.043 719.765 121.832 719.928 121.584C720.093 121.332 720.208 121.044 720.271 120.719L721.822 120.724C721.739 121.224 721.578 121.685 721.339 122.106C721.104 122.523 720.801 122.885 720.43 123.19C720.062 123.491 719.641 123.725 719.167 123.891C718.693 124.056 718.176 124.139 717.616 124.139C716.734 124.139 715.949 123.93 715.259 123.513C714.57 123.092 714.026 122.49 713.629 121.708C713.234 120.926 713.037 119.993 713.037 118.909C713.037 117.822 713.236 116.889 713.634 116.11C714.031 115.328 714.575 114.728 715.264 114.31C715.954 113.889 716.737 113.679 717.616 113.679C718.156 113.679 718.66 113.757 719.127 113.913C719.598 114.065 720.02 114.29 720.395 114.589C720.769 114.884 721.079 115.245 721.325 115.673C721.57 116.097 721.736 116.582 721.822 117.129Z" fill="#888888"/>
<path d="M170 21V32.5" stroke="#888888" stroke-width="2"/>
</svg>
