<svg width="627" height="151" viewBox="0 0 627 151" fill="none" xmlns="http://www.w3.org/2000/svg">
<rect x="11" y="11" width="106" height="79" rx="5" fill="#FDE4DE"/>
<path d="M31.8299 45.832H35.6219C36.5819 45.832 37.3339 46.0933 37.8779 46.616C38.4219 47.1387 38.6939 47.8373 38.6939 48.712C38.6939 49.384 38.5285 49.912 38.1979 50.296C37.8779 50.68 37.4619 50.952 36.9499 51.112V51.16C37.5792 51.3093 38.0965 51.592 38.5019 52.008C38.9072 52.4133 39.1099 53.0053 39.1099 53.784C39.1099 54.232 39.0352 54.6533 38.8859 55.048C38.7365 55.4427 38.5232 55.784 38.2459 56.072C37.9792 56.36 37.6592 56.5893 37.2859 56.76C36.9232 56.92 36.5285 57 36.1019 57H31.8299V45.832ZM35.7019 55.832C36.3205 55.832 36.8059 55.6933 37.1579 55.416C37.5099 55.1387 37.6859 54.712 37.6859 54.136V53.48C37.6859 52.9147 37.5099 52.4933 37.1579 52.216C36.8059 51.928 36.3205 51.784 35.7019 51.784H33.1739V55.832H35.7019ZM35.4779 50.68C36.0432 50.68 36.4859 50.5573 36.8059 50.312C37.1259 50.056 37.2859 49.672 37.2859 49.16V48.536C37.2859 48.024 37.1259 47.64 36.8059 47.384C36.4859 47.128 36.0432 47 35.4779 47H33.1739V50.68H35.4779ZM47.9356 57C47.4343 57 47.077 56.872 46.8636 56.616C46.6503 56.36 46.517 56.04 46.4636 55.656H46.3836C46.2023 56.136 45.909 56.5147 45.5036 56.792C45.109 57.0587 44.5756 57.192 43.9036 57.192C43.0396 57.192 42.3516 56.968 41.8396 56.52C41.3276 56.072 41.0716 55.4587 41.0716 54.68C41.0716 53.912 41.349 53.32 41.9036 52.904C42.469 52.488 43.3756 52.28 44.6236 52.28H46.3836V51.464C46.3836 50.856 46.213 50.4027 45.8716 50.104C45.5303 49.7947 45.045 49.64 44.4156 49.64C43.861 49.64 43.4076 49.752 43.0556 49.976C42.7036 50.1893 42.421 50.4827 42.2076 50.856L41.3436 50.216C41.4503 50.0027 41.5943 49.7947 41.7756 49.592C41.957 49.3893 42.181 49.2133 42.4476 49.064C42.7143 48.904 43.0183 48.7813 43.3596 48.696C43.701 48.6 44.0796 48.552 44.4956 48.552C45.4663 48.552 46.2343 48.7973 46.7996 49.288C47.3756 49.7787 47.6636 50.4613 47.6636 51.336V55.88H48.8156V57H47.9356ZM44.1276 56.12C44.4583 56.12 44.757 56.0827 45.0236 56.008C45.301 55.9227 45.541 55.816 45.7436 55.688C45.9463 55.5493 46.101 55.3893 46.2076 55.208C46.325 55.016 46.3836 54.8133 46.3836 54.6V53.24H44.6236C43.8556 53.24 43.2956 53.3467 42.9436 53.56C42.5916 53.7733 42.4156 54.0827 42.4156 54.488V54.824C42.4156 55.2507 42.565 55.576 42.8636 55.8C43.173 56.0133 43.5943 56.12 44.1276 56.12ZM56.4094 55.656H56.3454C55.812 56.68 54.964 57.192 53.8014 57.192C52.788 57.192 51.9934 56.8133 51.4174 56.056C50.852 55.2987 50.5694 54.2373 50.5694 52.872C50.5694 51.5067 50.852 50.4453 51.4174 49.688C51.9934 48.9307 52.788 48.552 53.8014 48.552C54.964 48.552 55.812 49.064 56.3454 50.088H56.4094V45.16H57.6894V57H56.4094V55.656ZM54.2974 56.056C54.5854 56.056 54.8574 56.0187 55.1134 55.944C55.3694 55.8693 55.5934 55.7627 55.7854 55.624C55.9774 55.4747 56.1267 55.2987 56.2334 55.096C56.3507 54.8827 56.4094 54.6373 56.4094 54.36V51.384C56.4094 51.1067 56.3507 50.8667 56.2334 50.664C56.1267 50.4507 55.9774 50.2747 55.7854 50.136C55.5934 49.9867 55.3694 49.8747 55.1134 49.8C54.8574 49.7253 54.5854 49.688 54.2974 49.688C53.5507 49.688 52.9694 49.9173 52.5534 50.376C52.148 50.824 51.9454 51.4213 51.9454 52.168V53.576C51.9454 54.3227 52.148 54.9253 52.5534 55.384C52.9694 55.832 53.5507 56.056 54.2974 56.056ZM77.7729 57.944C77.7729 58.776 77.4262 59.3893 76.7329 59.784C76.0395 60.1893 74.9995 60.392 73.6129 60.392C72.2795 60.392 71.3195 60.216 70.7329 59.864C70.1569 59.512 69.8689 59.0053 69.8689 58.344C69.8689 57.896 69.9862 57.5493 70.2209 57.304C70.4555 57.0587 70.7862 56.8773 71.2129 56.76V56.568C70.9782 56.4507 70.7969 56.3013 70.6689 56.12C70.5409 55.9387 70.4769 55.7093 70.4769 55.432C70.4769 55.0053 70.6155 54.6853 70.8929 54.472C71.1809 54.2587 71.5382 54.0987 71.9649 53.992V53.928C71.4529 53.704 71.0529 53.3733 70.7649 52.936C70.4875 52.4987 70.3489 51.9867 70.3489 51.4C70.3489 50.984 70.4235 50.6 70.5729 50.248C70.7222 49.896 70.9355 49.5973 71.2129 49.352C71.5009 49.096 71.8422 48.8987 72.2369 48.76C72.6315 48.6213 73.0689 48.552 73.5489 48.552C74.1675 48.552 74.7115 48.664 75.1809 48.888V48.744C75.1809 48.424 75.2555 48.1573 75.4049 47.944C75.5542 47.7307 75.8102 47.624 76.1729 47.624H77.6929V48.744H75.8369V49.304C76.1355 49.56 76.3649 49.864 76.5249 50.216C76.6849 50.568 76.7649 50.9627 76.7649 51.4C76.7649 51.816 76.6849 52.2 76.5249 52.552C76.3755 52.904 76.1622 53.208 75.8849 53.464C75.6075 53.7093 75.2662 53.9013 74.8609 54.04C74.4662 54.1787 74.0289 54.248 73.5489 54.248C73.4102 54.248 73.2769 54.2427 73.1489 54.232C73.0209 54.2213 72.8929 54.2053 72.7649 54.184C72.6369 54.2053 72.5035 54.2427 72.3649 54.296C72.2262 54.3387 72.0982 54.4027 71.9809 54.488C71.8635 54.5627 71.7675 54.6533 71.6929 54.76C71.6182 54.8667 71.5809 54.9893 71.5809 55.128C71.5809 55.3733 71.7035 55.5387 71.9489 55.624C72.1942 55.6987 72.5142 55.736 72.9089 55.736H74.7329C75.7995 55.736 76.5729 55.9387 77.0529 56.344C77.5329 56.7387 77.7729 57.272 77.7729 57.944ZM76.5729 58.008C76.5729 57.6773 76.4395 57.4107 76.1729 57.208C75.9062 57.016 75.4422 56.92 74.7809 56.92H71.9169C71.3622 57.144 71.0849 57.5173 71.0849 58.04C71.0849 58.4027 71.2289 58.712 71.5169 58.968C71.8049 59.2347 72.2849 59.368 72.9569 59.368H74.2049C74.9515 59.368 75.5329 59.2507 75.9489 59.016C76.3649 58.792 76.5729 58.456 76.5729 58.008ZM73.5489 53.256C74.1889 53.256 74.6582 53.1067 74.9569 52.808C75.2662 52.5093 75.4209 52.1147 75.4209 51.624V51.16C75.4209 50.6693 75.2662 50.28 74.9569 49.992C74.6582 49.6933 74.1889 49.544 73.5489 49.544C72.9089 49.544 72.4395 49.6933 72.1409 49.992C71.8422 50.28 71.6929 50.6693 71.6929 51.16V51.624C71.6929 52.1147 71.8422 52.5093 72.1409 52.808C72.4395 53.1067 72.9089 53.256 73.5489 53.256ZM85.1426 55.656H85.0786C84.9933 55.8587 84.8866 56.056 84.7586 56.248C84.6306 56.4293 84.4706 56.5893 84.2786 56.728C84.0973 56.8667 83.8786 56.9787 83.6226 57.064C83.3666 57.1493 83.068 57.192 82.7266 57.192C81.8626 57.192 81.1693 56.92 80.6466 56.376C80.124 55.8213 79.8626 55.0427 79.8626 54.04V48.744H81.1426V53.816C81.1426 54.5733 81.308 55.1387 81.6386 55.512C81.9693 55.8747 82.4546 56.056 83.0946 56.056C83.3506 56.056 83.6013 56.024 83.8466 55.96C84.092 55.896 84.3106 55.8 84.5026 55.672C84.6946 55.544 84.8493 55.384 84.9666 55.192C85.084 54.9893 85.1426 54.7493 85.1426 54.472V48.744H86.4226V57H85.1426V55.656ZM95.4564 48.744H96.7364L92.6404 58.808C92.5444 59.0427 92.4377 59.2453 92.3204 59.416C92.203 59.5973 92.0644 59.7413 91.9044 59.848C91.7444 59.9653 91.5524 60.0507 91.3284 60.104C91.1044 60.168 90.8377 60.2 90.5284 60.2H89.3124V59.112H91.2324L92.1604 56.84L88.8324 48.744H90.1444L91.5364 52.2L92.7684 55.336H92.8324L94.0644 52.2L95.4564 48.744Z" fill="black"/>
<rect x="11" y="11" width="106" height="79" rx="5" stroke="#FF0000" stroke-width="2"/>
<path d="M206.957 33.2071C207.348 32.8166 207.348 32.1834 206.957 31.7929L200.593 25.4289C200.203 25.0384 199.569 25.0384 199.179 25.4289C198.788 25.8195 198.788 26.4526 199.179 26.8431L204.836 32.5L199.179 38.1569C198.788 38.5474 198.788 39.1805 199.179 39.5711C199.569 39.9616 200.203 39.9616 200.593 39.5711L206.957 33.2071ZM120 33.5H206.25V31.5H120V33.5Z" fill="#888888"/>
<path d="M123.043 69.2071C122.652 68.8166 122.652 68.1834 123.043 67.7929L129.407 61.4289C129.797 61.0384 130.431 61.0384 130.821 61.4289C131.212 61.8195 131.212 62.4526 130.821 62.8431L125.164 68.5L130.821 74.1569C131.212 74.5474 131.212 75.1805 130.821 75.5711C130.431 75.9616 129.797 75.9616 129.407 75.5711L123.043 69.2071ZM210 69.5H123.75V67.5H210V69.5Z" fill="#888888"/>
<rect x="213" y="11" width="144" height="79" rx="5" fill="#DCF3E7"/>
<path d="M233.754 45.832H236.874C238.24 45.832 239.258 46.3013 239.93 47.24C240.602 48.1787 240.938 49.5707 240.938 51.416C240.938 53.2613 240.602 54.6533 239.93 55.592C239.258 56.5307 238.24 57 236.874 57H233.754V45.832ZM236.81 55.832C237.706 55.832 238.378 55.5227 238.826 54.904C239.285 54.2853 239.514 53.4107 239.514 52.28V50.552C239.514 49.4213 239.285 48.5467 238.826 47.928C238.378 47.3093 237.706 47 236.81 47H235.098V55.832H236.81ZM246.772 57.192C246.175 57.192 245.636 57.0907 245.156 56.888C244.687 56.6853 244.281 56.3973 243.94 56.024C243.609 55.64 243.353 55.1867 243.172 54.664C242.991 54.1307 242.9 53.5387 242.9 52.888C242.9 52.2267 242.991 51.6293 243.172 51.096C243.364 50.5627 243.625 50.1093 243.956 49.736C244.287 49.352 244.681 49.0587 245.14 48.856C245.609 48.6533 246.127 48.552 246.692 48.552C247.247 48.552 247.748 48.6533 248.196 48.856C248.655 49.0587 249.044 49.3413 249.364 49.704C249.684 50.056 249.929 50.4773 250.1 50.968C250.271 51.4587 250.356 51.9973 250.356 52.584V53.192H244.244V53.576C244.244 53.9387 244.303 54.2747 244.42 54.584C244.537 54.8933 244.703 55.16 244.916 55.384C245.14 55.608 245.407 55.784 245.716 55.912C246.036 56.0293 246.388 56.088 246.772 56.088C247.327 56.088 247.807 55.96 248.212 55.704C248.617 55.448 248.927 55.096 249.14 54.648L250.084 55.288C249.839 55.8427 249.428 56.3013 248.852 56.664C248.287 57.016 247.593 57.192 246.772 57.192ZM246.692 49.608C246.34 49.608 246.015 49.672 245.716 49.8C245.417 49.928 245.156 50.104 244.932 50.328C244.719 50.552 244.548 50.8187 244.42 51.128C244.303 51.4267 244.244 51.7573 244.244 52.12V52.232H248.98V52.056C248.98 51.6933 248.921 51.3627 248.804 51.064C248.697 50.7653 248.543 50.5093 248.34 50.296C248.148 50.072 247.908 49.9013 247.62 49.784C247.343 49.6667 247.033 49.608 246.692 49.608ZM256.318 57.192C255.454 57.192 254.707 57.048 254.078 56.76C253.459 56.4613 252.931 56.0667 252.494 55.576L253.358 54.824C253.753 55.24 254.185 55.56 254.654 55.784C255.123 56.008 255.689 56.12 256.35 56.12C256.99 56.12 257.513 56.008 257.918 55.784C258.334 55.5493 258.542 55.1867 258.542 54.696C258.542 54.4827 258.499 54.3067 258.414 54.168C258.339 54.0187 258.233 53.9013 258.094 53.816C257.955 53.7307 257.801 53.6667 257.63 53.624C257.459 53.5707 257.278 53.528 257.086 53.496L255.79 53.304C255.502 53.2613 255.187 53.2027 254.846 53.128C254.515 53.0533 254.211 52.936 253.934 52.776C253.657 52.6053 253.422 52.3813 253.23 52.104C253.049 51.8267 252.958 51.464 252.958 51.016C252.958 50.6 253.038 50.2427 253.198 49.944C253.369 49.6347 253.603 49.3787 253.902 49.176C254.201 48.9627 254.553 48.808 254.958 48.712C255.363 48.6053 255.806 48.552 256.286 48.552C257.033 48.552 257.678 48.6693 258.222 48.904C258.777 49.1387 259.251 49.464 259.646 49.88L258.814 50.664C258.718 50.5467 258.595 50.4293 258.446 50.312C258.307 50.184 258.131 50.072 257.918 49.976C257.715 49.8693 257.475 49.784 257.198 49.72C256.921 49.656 256.601 49.624 256.238 49.624C255.587 49.624 255.086 49.736 254.734 49.96C254.393 50.184 254.222 50.5093 254.222 50.936C254.222 51.1493 254.259 51.3307 254.334 51.48C254.419 51.6187 254.531 51.7307 254.67 51.816C254.809 51.9013 254.963 51.9707 255.134 52.024C255.315 52.0667 255.497 52.104 255.678 52.136L256.974 52.328C257.273 52.3707 257.587 52.4293 257.918 52.504C258.249 52.5787 258.553 52.7013 258.83 52.872C259.107 53.032 259.337 53.2507 259.518 53.528C259.71 53.8053 259.806 54.168 259.806 54.616C259.806 55.4373 259.486 56.072 258.846 56.52C258.217 56.968 257.374 57.192 256.318 57.192ZM266.216 57C265.586 57 265.122 56.824 264.824 56.472C264.536 56.12 264.392 55.6667 264.392 55.112V49.832H261.64V48.744H263.688C263.965 48.744 264.157 48.6907 264.264 48.584C264.381 48.4667 264.44 48.2693 264.44 47.992V45.832H265.672V48.744H269.432V49.832H265.672V55.912H269.432V57H266.216ZM275.921 46.92C275.548 46.92 275.287 46.8453 275.137 46.696C274.988 46.536 274.913 46.3387 274.913 46.104V45.848C274.913 45.6133 274.988 45.4213 275.137 45.272C275.287 45.112 275.548 45.032 275.921 45.032C276.295 45.032 276.556 45.112 276.705 45.272C276.855 45.4213 276.929 45.6133 276.929 45.848V46.104C276.929 46.3387 276.855 46.536 276.705 46.696C276.556 46.8453 276.295 46.92 275.921 46.92ZM272.305 55.912H275.281V49.832H272.305V48.744H276.561V55.912H279.345V57H272.305V55.912ZM281.771 57V48.744H283.051V50.088H283.115C283.2 49.8853 283.307 49.6933 283.435 49.512C283.563 49.32 283.718 49.1547 283.899 49.016C284.091 48.8773 284.315 48.7653 284.571 48.68C284.827 48.5947 285.126 48.552 285.467 48.552C286.331 48.552 287.024 48.8293 287.547 49.384C288.07 49.928 288.331 50.7013 288.331 51.704V57H287.051V51.928C287.051 51.1707 286.886 50.6107 286.555 50.248C286.224 49.8747 285.739 49.688 285.099 49.688C284.843 49.688 284.592 49.72 284.347 49.784C284.102 49.848 283.883 49.944 283.691 50.072C283.499 50.2 283.344 50.3653 283.227 50.568C283.11 50.7707 283.051 51.0053 283.051 51.272V57H281.771ZM297.717 57C297.216 57 296.858 56.872 296.645 56.616C296.432 56.36 296.298 56.04 296.245 55.656H296.165C295.984 56.136 295.69 56.5147 295.285 56.792C294.89 57.0587 294.357 57.192 293.685 57.192C292.821 57.192 292.133 56.968 291.621 56.52C291.109 56.072 290.853 55.4587 290.853 54.68C290.853 53.912 291.13 53.32 291.685 52.904C292.25 52.488 293.157 52.28 294.405 52.28H296.165V51.464C296.165 50.856 295.994 50.4027 295.653 50.104C295.312 49.7947 294.826 49.64 294.197 49.64C293.642 49.64 293.189 49.752 292.837 49.976C292.485 50.1893 292.202 50.4827 291.989 50.856L291.125 50.216C291.232 50.0027 291.376 49.7947 291.557 49.592C291.738 49.3893 291.962 49.2133 292.229 49.064C292.496 48.904 292.8 48.7813 293.141 48.696C293.482 48.6 293.861 48.552 294.277 48.552C295.248 48.552 296.016 48.7973 296.581 49.288C297.157 49.7787 297.445 50.4613 297.445 51.336V55.88H298.597V57H297.717ZM293.909 56.12C294.24 56.12 294.538 56.0827 294.805 56.008C295.082 55.9227 295.322 55.816 295.525 55.688C295.728 55.5493 295.882 55.3893 295.989 55.208C296.106 55.016 296.165 54.8133 296.165 54.6V53.24H294.405C293.637 53.24 293.077 53.3467 292.725 53.56C292.373 53.7733 292.197 54.0827 292.197 54.488V54.824C292.197 55.2507 292.346 55.576 292.645 55.8C292.954 56.0133 293.376 56.12 293.909 56.12ZM304.591 57C303.961 57 303.497 56.824 303.199 56.472C302.911 56.12 302.767 55.6667 302.767 55.112V49.832H300.015V48.744H302.063C302.34 48.744 302.532 48.6907 302.639 48.584C302.756 48.4667 302.815 48.2693 302.815 47.992V45.832H304.047V48.744H307.807V49.832H304.047V55.912H307.807V57H304.591ZM314.296 46.92C313.923 46.92 313.662 46.8453 313.512 46.696C313.363 46.536 313.288 46.3387 313.288 46.104V45.848C313.288 45.6133 313.363 45.4213 313.512 45.272C313.662 45.112 313.923 45.032 314.296 45.032C314.67 45.032 314.931 45.112 315.08 45.272C315.23 45.4213 315.304 45.6133 315.304 45.848V46.104C315.304 46.3387 315.23 46.536 315.08 46.696C314.931 46.8453 314.67 46.92 314.296 46.92ZM310.68 55.912H313.656V49.832H310.68V48.744H314.936V55.912H317.72V57H310.68V55.912ZM323.378 57.192C322.802 57.192 322.279 57.0907 321.81 56.888C321.351 56.6853 320.957 56.3973 320.626 56.024C320.306 55.64 320.061 55.1867 319.89 54.664C319.719 54.1307 319.634 53.5333 319.634 52.872C319.634 52.2213 319.719 51.6293 319.89 51.096C320.061 50.5627 320.306 50.1093 320.626 49.736C320.957 49.352 321.351 49.0587 321.81 48.856C322.279 48.6533 322.802 48.552 323.378 48.552C323.954 48.552 324.471 48.6533 324.93 48.856C325.399 49.0587 325.794 49.352 326.114 49.736C326.445 50.1093 326.695 50.5627 326.866 51.096C327.037 51.6293 327.122 52.2213 327.122 52.872C327.122 53.5333 327.037 54.1307 326.866 54.664C326.695 55.1867 326.445 55.64 326.114 56.024C325.794 56.3973 325.399 56.6853 324.93 56.888C324.471 57.0907 323.954 57.192 323.378 57.192ZM323.378 56.088C324.093 56.088 324.669 55.8747 325.106 55.448C325.543 55.0213 325.762 54.36 325.762 53.464V52.28C325.762 51.384 325.543 50.7227 325.106 50.296C324.669 49.8693 324.093 49.656 323.378 49.656C322.663 49.656 322.087 49.8693 321.65 50.296C321.213 50.7227 320.994 51.384 320.994 52.28V53.464C320.994 54.36 321.213 55.0213 321.65 55.448C322.087 55.8747 322.663 56.088 323.378 56.088ZM329.74 57V48.744H331.02V50.088H331.084C331.169 49.8853 331.276 49.6933 331.404 49.512C331.532 49.32 331.687 49.1547 331.868 49.016C332.06 48.8773 332.284 48.7653 332.54 48.68C332.796 48.5947 333.095 48.552 333.436 48.552C334.3 48.552 334.993 48.8293 335.516 49.384C336.039 49.928 336.3 50.7013 336.3 51.704V57H335.02V51.928C335.02 51.1707 334.855 50.6107 334.524 50.248C334.193 49.8747 333.708 49.688 333.068 49.688C332.812 49.688 332.561 49.72 332.316 49.784C332.071 49.848 331.852 49.944 331.66 50.072C331.468 50.2 331.313 50.3653 331.196 50.568C331.079 50.7707 331.02 51.0053 331.02 51.272V57H329.74Z" fill="black"/>
<rect x="213" y="11" width="144" height="79" rx="5" stroke="#14AE5C" stroke-width="2"/>
<path d="M446.957 33.2071C447.348 32.8166 447.348 32.1834 446.957 31.7929L440.593 25.4289C440.203 25.0384 439.569 25.0384 439.179 25.4289C438.788 25.8195 438.788 26.4526 439.179 26.8431L444.836 32.5L439.179 38.1569C438.788 38.5474 438.788 39.1805 439.179 39.5711C439.569 39.9616 440.203 39.9616 440.593 39.5711L446.957 33.2071ZM360 33.5H446.25V31.5H360V33.5Z" fill="#888888"/>
<path d="M363.043 69.2071C362.652 68.8166 362.652 68.1834 363.043 67.7929L369.407 61.4289C369.797 61.0384 370.431 61.0384 370.821 61.4289C371.212 61.8195 371.212 62.4526 370.821 62.8431L365.164 68.5L370.821 74.1569C371.212 74.5474 371.212 75.1805 370.821 75.5711C370.431 75.9616 369.797 75.9616 369.407 75.5711L363.043 69.2071ZM450 69.5H363.75V67.5H450V69.5Z" fill="#888888"/>
<rect x="453" y="11" width="163" height="79" rx="5" fill="#E5E5E5"/>
<path d="M473.581 57V45.832H477.645C478.679 45.832 479.469 46.1147 480.013 46.68C480.557 47.2453 480.829 48.0347 480.829 49.048C480.829 50.0613 480.557 50.8507 480.013 51.416C479.469 51.9813 478.679 52.264 477.645 52.264H474.925V57H473.581ZM474.925 51.096H477.613C478.178 51.096 478.615 50.9573 478.925 50.68C479.245 50.392 479.405 49.9867 479.405 49.464V48.632C479.405 48.1093 479.245 47.7093 478.925 47.432C478.615 47.144 478.178 47 477.613 47H474.925V51.096ZM486.678 57.192C486.081 57.192 485.542 57.0907 485.062 56.888C484.593 56.6853 484.188 56.3973 483.846 56.024C483.516 55.64 483.26 55.1867 483.078 54.664C482.897 54.1307 482.806 53.5387 482.806 52.888C482.806 52.2267 482.897 51.6293 483.078 51.096C483.27 50.5627 483.532 50.1093 483.862 49.736C484.193 49.352 484.588 49.0587 485.046 48.856C485.516 48.6533 486.033 48.552 486.598 48.552C487.153 48.552 487.654 48.6533 488.102 48.856C488.561 49.0587 488.95 49.3413 489.27 49.704C489.59 50.056 489.836 50.4773 490.006 50.968C490.177 51.4587 490.262 51.9973 490.262 52.584V53.192H484.15V53.576C484.15 53.9387 484.209 54.2747 484.326 54.584C484.444 54.8933 484.609 55.16 484.822 55.384C485.046 55.608 485.313 55.784 485.622 55.912C485.942 56.0293 486.294 56.088 486.678 56.088C487.233 56.088 487.713 55.96 488.118 55.704C488.524 55.448 488.833 55.096 489.046 54.648L489.99 55.288C489.745 55.8427 489.334 56.3013 488.758 56.664C488.193 57.016 487.5 57.192 486.678 57.192ZM486.598 49.608C486.246 49.608 485.921 49.672 485.622 49.8C485.324 49.928 485.062 50.104 484.838 50.328C484.625 50.552 484.454 50.8187 484.326 51.128C484.209 51.4267 484.15 51.7573 484.15 52.12V52.232H488.886V52.056C488.886 51.6933 488.828 51.3627 488.71 51.064C488.604 50.7653 488.449 50.5093 488.246 50.296C488.054 50.072 487.814 49.9013 487.526 49.784C487.249 49.6667 486.94 49.608 486.598 49.608ZM496.272 57.192C495.675 57.192 495.136 57.0907 494.656 56.888C494.187 56.6853 493.781 56.3973 493.44 56.024C493.109 55.64 492.853 55.1867 492.672 54.664C492.491 54.1307 492.4 53.5387 492.4 52.888C492.4 52.2267 492.491 51.6293 492.672 51.096C492.864 50.5627 493.125 50.1093 493.456 49.736C493.787 49.352 494.181 49.0587 494.64 48.856C495.109 48.6533 495.627 48.552 496.192 48.552C496.747 48.552 497.248 48.6533 497.696 48.856C498.155 49.0587 498.544 49.3413 498.864 49.704C499.184 50.056 499.429 50.4773 499.6 50.968C499.771 51.4587 499.856 51.9973 499.856 52.584V53.192H493.744V53.576C493.744 53.9387 493.803 54.2747 493.92 54.584C494.037 54.8933 494.203 55.16 494.416 55.384C494.64 55.608 494.907 55.784 495.216 55.912C495.536 56.0293 495.888 56.088 496.272 56.088C496.827 56.088 497.307 55.96 497.712 55.704C498.117 55.448 498.427 55.096 498.64 54.648L499.584 55.288C499.339 55.8427 498.928 56.3013 498.352 56.664C497.787 57.016 497.093 57.192 496.272 57.192ZM496.192 49.608C495.84 49.608 495.515 49.672 495.216 49.8C494.917 49.928 494.656 50.104 494.432 50.328C494.219 50.552 494.048 50.8187 493.92 51.128C493.803 51.4267 493.744 51.7573 493.744 52.12V52.232H498.48V52.056C498.48 51.6933 498.421 51.3627 498.304 51.064C498.197 50.7653 498.043 50.5093 497.84 50.296C497.648 50.072 497.408 49.9013 497.12 49.784C496.843 49.6667 496.533 49.608 496.192 49.608ZM502.154 55.912H504.57V49.832H502.154V48.744H505.85V50.824H505.93C506.101 50.1733 506.421 49.6667 506.89 49.304C507.37 48.9307 507.978 48.744 508.714 48.744H509.866V50.024H508.314C507.578 50.024 506.981 50.2373 506.522 50.664C506.074 51.0907 505.85 51.6507 505.85 52.344V55.912H509.05V57H502.154V55.912ZM524.909 57.192C524.333 57.192 523.811 57.0907 523.341 56.888C522.883 56.6853 522.488 56.3973 522.157 56.024C521.837 55.64 521.592 55.1867 521.421 54.664C521.251 54.1307 521.165 53.5333 521.165 52.872C521.165 52.2213 521.251 51.6293 521.421 51.096C521.592 50.5627 521.837 50.1093 522.157 49.736C522.488 49.352 522.883 49.0587 523.341 48.856C523.811 48.6533 524.333 48.552 524.909 48.552C525.485 48.552 526.003 48.6533 526.461 48.856C526.931 49.0587 527.325 49.352 527.645 49.736C527.976 50.1093 528.227 50.5627 528.397 51.096C528.568 51.6293 528.653 52.2213 528.653 52.872C528.653 53.5333 528.568 54.1307 528.397 54.664C528.227 55.1867 527.976 55.64 527.645 56.024C527.325 56.3973 526.931 56.6853 526.461 56.888C526.003 57.0907 525.485 57.192 524.909 57.192ZM524.909 56.088C525.624 56.088 526.2 55.8747 526.637 55.448C527.075 55.0213 527.293 54.36 527.293 53.464V52.28C527.293 51.384 527.075 50.7227 526.637 50.296C526.2 49.8693 525.624 49.656 524.909 49.656C524.195 49.656 523.619 49.8693 523.181 50.296C522.744 50.7227 522.525 51.384 522.525 52.28V53.464C522.525 54.36 522.744 55.0213 523.181 55.448C523.619 55.8747 524.195 56.088 524.909 56.088ZM531.031 55.912H533.815V49.832H530.871V48.744H533.815V47.048C533.815 46.4933 533.959 46.04 534.247 45.688C534.546 45.336 535.01 45.16 535.639 45.16H538.407V46.248H535.095V48.744H538.407V49.832H535.095V55.912H538.039V57H531.031V55.912ZM550.411 48.744H551.691V50.088H551.755C552.288 49.064 553.136 48.552 554.299 48.552C555.312 48.552 556.101 48.9307 556.667 49.688C557.243 50.4453 557.531 51.5067 557.531 52.872C557.531 54.2373 557.243 55.2987 556.667 56.056C556.101 56.8133 555.312 57.192 554.299 57.192C553.136 57.192 552.288 56.68 551.755 55.656H551.691V60.2H550.411V48.744ZM553.803 56.056C554.549 56.056 555.125 55.832 555.531 55.384C555.947 54.9253 556.155 54.3227 556.155 53.576V52.168C556.155 51.4213 555.947 50.824 555.531 50.376C555.125 49.9173 554.549 49.688 553.803 49.688C553.515 49.688 553.243 49.7253 552.987 49.8C552.731 49.8747 552.507 49.9867 552.315 50.136C552.123 50.2747 551.968 50.4507 551.851 50.664C551.744 50.8667 551.691 51.1067 551.691 51.384V54.36C551.691 54.6373 551.744 54.8827 551.851 55.096C551.968 55.2987 552.123 55.4747 552.315 55.624C552.507 55.7627 552.731 55.8693 552.987 55.944C553.243 56.0187 553.515 56.056 553.803 56.056ZM563.428 57.192C562.831 57.192 562.292 57.0907 561.812 56.888C561.343 56.6853 560.938 56.3973 560.596 56.024C560.266 55.64 560.01 55.1867 559.828 54.664C559.647 54.1307 559.556 53.5387 559.556 52.888C559.556 52.2267 559.647 51.6293 559.828 51.096C560.02 50.5627 560.282 50.1093 560.612 49.736C560.943 49.352 561.338 49.0587 561.796 48.856C562.266 48.6533 562.783 48.552 563.348 48.552C563.903 48.552 564.404 48.6533 564.852 48.856C565.311 49.0587 565.7 49.3413 566.02 49.704C566.34 50.056 566.586 50.4773 566.756 50.968C566.927 51.4587 567.012 51.9973 567.012 52.584V53.192H560.9V53.576C560.9 53.9387 560.959 54.2747 561.076 54.584C561.194 54.8933 561.359 55.16 561.572 55.384C561.796 55.608 562.063 55.784 562.372 55.912C562.692 56.0293 563.044 56.088 563.428 56.088C563.983 56.088 564.463 55.96 564.868 55.704C565.274 55.448 565.583 55.096 565.796 54.648L566.74 55.288C566.495 55.8427 566.084 56.3013 565.508 56.664C564.943 57.016 564.25 57.192 563.428 57.192ZM563.348 49.608C562.996 49.608 562.671 49.672 562.372 49.8C562.074 49.928 561.812 50.104 561.588 50.328C561.375 50.552 561.204 50.8187 561.076 51.128C560.959 51.4267 560.9 51.7573 560.9 52.12V52.232H565.636V52.056C565.636 51.6933 565.578 51.3627 565.46 51.064C565.354 50.7653 565.199 50.5093 564.996 50.296C564.804 50.072 564.564 49.9013 564.276 49.784C563.999 49.6667 563.69 49.608 563.348 49.608ZM573.022 57.192C572.425 57.192 571.886 57.0907 571.406 56.888C570.937 56.6853 570.531 56.3973 570.19 56.024C569.859 55.64 569.603 55.1867 569.422 54.664C569.241 54.1307 569.15 53.5387 569.15 52.888C569.15 52.2267 569.241 51.6293 569.422 51.096C569.614 50.5627 569.875 50.1093 570.206 49.736C570.537 49.352 570.931 49.0587 571.39 48.856C571.859 48.6533 572.377 48.552 572.942 48.552C573.497 48.552 573.998 48.6533 574.446 48.856C574.905 49.0587 575.294 49.3413 575.614 49.704C575.934 50.056 576.179 50.4773 576.35 50.968C576.521 51.4587 576.606 51.9973 576.606 52.584V53.192H570.494V53.576C570.494 53.9387 570.553 54.2747 570.67 54.584C570.787 54.8933 570.953 55.16 571.166 55.384C571.39 55.608 571.657 55.784 571.966 55.912C572.286 56.0293 572.638 56.088 573.022 56.088C573.577 56.088 574.057 55.96 574.462 55.704C574.867 55.448 575.177 55.096 575.39 54.648L576.334 55.288C576.089 55.8427 575.678 56.3013 575.102 56.664C574.537 57.016 573.843 57.192 573.022 57.192ZM572.942 49.608C572.59 49.608 572.265 49.672 571.966 49.8C571.667 49.928 571.406 50.104 571.182 50.328C570.969 50.552 570.798 50.8187 570.67 51.128C570.553 51.4267 570.494 51.7573 570.494 52.12V52.232H575.23V52.056C575.23 51.6933 575.171 51.3627 575.054 51.064C574.947 50.7653 574.793 50.5093 574.59 50.296C574.398 50.072 574.158 49.9013 573.87 49.784C573.593 49.6667 573.283 49.608 572.942 49.608ZM578.904 55.912H581.32V49.832H578.904V48.744H582.6V50.824H582.68C582.851 50.1733 583.171 49.6667 583.64 49.304C584.12 48.9307 584.728 48.744 585.464 48.744H586.616V50.024H585.064C584.328 50.024 583.731 50.2373 583.272 50.664C582.824 51.0907 582.6 51.6507 582.6 52.344V55.912H585.8V57H578.904V55.912ZM592.162 57.192C591.298 57.192 590.551 57.048 589.922 56.76C589.303 56.4613 588.775 56.0667 588.338 55.576L589.202 54.824C589.596 55.24 590.028 55.56 590.498 55.784C590.967 56.008 591.532 56.12 592.194 56.12C592.834 56.12 593.356 56.008 593.762 55.784C594.178 55.5493 594.386 55.1867 594.386 54.696C594.386 54.4827 594.343 54.3067 594.258 54.168C594.183 54.0187 594.076 53.9013 593.938 53.816C593.799 53.7307 593.644 53.6667 593.474 53.624C593.303 53.5707 593.122 53.528 592.93 53.496L591.634 53.304C591.346 53.2613 591.031 53.2027 590.69 53.128C590.359 53.0533 590.055 52.936 589.778 52.776C589.5 52.6053 589.266 52.3813 589.074 52.104C588.892 51.8267 588.802 51.464 588.802 51.016C588.802 50.6 588.882 50.2427 589.042 49.944C589.212 49.6347 589.447 49.3787 589.746 49.176C590.044 48.9627 590.396 48.808 590.802 48.712C591.207 48.6053 591.65 48.552 592.13 48.552C592.876 48.552 593.522 48.6693 594.066 48.904C594.62 49.1387 595.095 49.464 595.49 49.88L594.658 50.664C594.562 50.5467 594.439 50.4293 594.29 50.312C594.151 50.184 593.975 50.072 593.762 49.976C593.559 49.8693 593.319 49.784 593.042 49.72C592.764 49.656 592.444 49.624 592.082 49.624C591.431 49.624 590.93 49.736 590.578 49.96C590.236 50.184 590.066 50.5093 590.066 50.936C590.066 51.1493 590.103 51.3307 590.178 51.48C590.263 51.6187 590.375 51.7307 590.514 51.816C590.652 51.9013 590.807 51.9707 590.978 52.024C591.159 52.0667 591.34 52.104 591.522 52.136L592.818 52.328C593.116 52.3707 593.431 52.4293 593.762 52.504C594.092 52.5787 594.396 52.7013 594.674 52.872C594.951 53.032 595.18 53.2507 595.362 53.528C595.554 53.8053 595.65 54.168 595.65 54.616C595.65 55.4373 595.33 56.072 594.69 56.52C594.06 56.968 593.218 57.192 592.162 57.192Z" fill="black"/>
<rect x="453" y="11" width="163" height="79" rx="5" stroke="black" stroke-width="2"/>
<rect x="141" y="21" width="48" height="22" rx="6" fill="white" fill-opacity="0.9"/>
<path d="M146.877 35V34.343H148.677V29.276H148.614L147.03 30.752L146.589 30.275L148.254 28.718H149.433V34.343H151.089V35H146.877ZM154.209 35.108C153.825 35.108 153.495 35.036 153.219 34.892C152.943 34.742 152.715 34.529 152.535 34.253C152.355 33.977 152.223 33.638 152.139 33.236C152.055 32.834 152.013 32.375 152.013 31.859C152.013 31.349 152.055 30.893 152.139 30.491C152.223 30.083 152.355 29.741 152.535 29.465C152.715 29.189 152.943 28.979 153.219 28.835C153.495 28.685 153.825 28.61 154.209 28.61C154.593 28.61 154.923 28.685 155.199 28.835C155.475 28.979 155.703 29.189 155.883 29.465C156.063 29.741 156.195 30.083 156.279 30.491C156.363 30.893 156.405 31.349 156.405 31.859C156.405 32.375 156.363 32.834 156.279 33.236C156.195 33.638 156.063 33.977 155.883 34.253C155.703 34.529 155.475 34.742 155.199 34.892C154.923 35.036 154.593 35.108 154.209 35.108ZM154.209 34.451C154.461 34.451 154.677 34.403 154.857 34.307C155.037 34.205 155.181 34.064 155.289 33.884C155.403 33.704 155.487 33.488 155.541 33.236C155.595 32.978 155.622 32.69 155.622 32.372V31.346C155.622 31.034 155.595 30.749 155.541 30.491C155.487 30.233 155.403 30.014 155.289 29.834C155.181 29.654 155.037 29.516 154.857 29.42C154.677 29.318 154.461 29.267 154.209 29.267C153.957 29.267 153.741 29.318 153.561 29.42C153.381 29.516 153.234 29.654 153.12 29.834C153.012 30.014 152.931 30.233 152.877 30.491C152.823 30.749 152.796 31.034 152.796 31.346V32.372C152.796 32.69 152.823 32.978 152.877 33.236C152.931 33.488 153.012 33.704 153.12 33.884C153.234 34.064 153.381 34.205 153.561 34.307C153.741 34.403 153.957 34.451 154.209 34.451ZM154.209 32.39C153.999 32.39 153.852 32.348 153.768 32.264C153.69 32.18 153.651 32.078 153.651 31.958V31.76C153.651 31.64 153.69 31.538 153.768 31.454C153.852 31.37 153.999 31.328 154.209 31.328C154.419 31.328 154.563 31.37 154.641 31.454C154.725 31.538 154.767 31.64 154.767 31.76V31.958C154.767 32.078 154.725 32.18 154.641 32.264C154.563 32.348 154.419 32.39 154.209 32.39ZM159.605 35.108C159.221 35.108 158.891 35.036 158.615 34.892C158.339 34.742 158.111 34.529 157.931 34.253C157.751 33.977 157.619 33.638 157.535 33.236C157.451 32.834 157.409 32.375 157.409 31.859C157.409 31.349 157.451 30.893 157.535 30.491C157.619 30.083 157.751 29.741 157.931 29.465C158.111 29.189 158.339 28.979 158.615 28.835C158.891 28.685 159.221 28.61 159.605 28.61C159.989 28.61 160.319 28.685 160.595 28.835C160.871 28.979 161.099 29.189 161.279 29.465C161.459 29.741 161.591 30.083 161.675 30.491C161.759 30.893 161.801 31.349 161.801 31.859C161.801 32.375 161.759 32.834 161.675 33.236C161.591 33.638 161.459 33.977 161.279 34.253C161.099 34.529 160.871 34.742 160.595 34.892C160.319 35.036 159.989 35.108 159.605 35.108ZM159.605 34.451C159.857 34.451 160.073 34.403 160.253 34.307C160.433 34.205 160.577 34.064 160.685 33.884C160.799 33.704 160.883 33.488 160.937 33.236C160.991 32.978 161.018 32.69 161.018 32.372V31.346C161.018 31.034 160.991 30.749 160.937 30.491C160.883 30.233 160.799 30.014 160.685 29.834C160.577 29.654 160.433 29.516 160.253 29.42C160.073 29.318 159.857 29.267 159.605 29.267C159.353 29.267 159.137 29.318 158.957 29.42C158.777 29.516 158.63 29.654 158.516 29.834C158.408 30.014 158.327 30.233 158.273 30.491C158.219 30.749 158.192 31.034 158.192 31.346V32.372C158.192 32.69 158.219 32.978 158.273 33.236C158.327 33.488 158.408 33.704 158.516 33.884C158.63 34.064 158.777 34.205 158.957 34.307C159.137 34.403 159.353 34.451 159.605 34.451ZM159.605 32.39C159.395 32.39 159.248 32.348 159.164 32.264C159.086 32.18 159.047 32.078 159.047 31.958V31.76C159.047 31.64 159.086 31.538 159.164 31.454C159.248 31.37 159.395 31.328 159.605 31.328C159.815 31.328 159.959 31.37 160.037 31.454C160.121 31.538 160.163 31.64 160.163 31.76V31.958C160.163 32.078 160.121 32.18 160.037 32.264C159.959 32.348 159.815 32.39 159.605 32.39ZM165.002 35.108C164.618 35.108 164.288 35.036 164.012 34.892C163.736 34.742 163.508 34.529 163.328 34.253C163.148 33.977 163.016 33.638 162.932 33.236C162.848 32.834 162.806 32.375 162.806 31.859C162.806 31.349 162.848 30.893 162.932 30.491C163.016 30.083 163.148 29.741 163.328 29.465C163.508 29.189 163.736 28.979 164.012 28.835C164.288 28.685 164.618 28.61 165.002 28.61C165.386 28.61 165.716 28.685 165.992 28.835C166.268 28.979 166.496 29.189 166.676 29.465C166.856 29.741 166.988 30.083 167.072 30.491C167.156 30.893 167.198 31.349 167.198 31.859C167.198 32.375 167.156 32.834 167.072 33.236C166.988 33.638 166.856 33.977 166.676 34.253C166.496 34.529 166.268 34.742 165.992 34.892C165.716 35.036 165.386 35.108 165.002 35.108ZM165.002 34.451C165.254 34.451 165.47 34.403 165.65 34.307C165.83 34.205 165.974 34.064 166.082 33.884C166.196 33.704 166.28 33.488 166.334 33.236C166.388 32.978 166.415 32.69 166.415 32.372V31.346C166.415 31.034 166.388 30.749 166.334 30.491C166.28 30.233 166.196 30.014 166.082 29.834C165.974 29.654 165.83 29.516 165.65 29.42C165.47 29.318 165.254 29.267 165.002 29.267C164.75 29.267 164.534 29.318 164.354 29.42C164.174 29.516 164.027 29.654 163.913 29.834C163.805 30.014 163.724 30.233 163.67 30.491C163.616 30.749 163.589 31.034 163.589 31.346V32.372C163.589 32.69 163.616 32.978 163.67 33.236C163.724 33.488 163.805 33.704 163.913 33.884C164.027 34.064 164.174 34.205 164.354 34.307C164.534 34.403 164.75 34.451 165.002 34.451ZM165.002 32.39C164.792 32.39 164.645 32.348 164.561 32.264C164.483 32.18 164.444 32.078 164.444 31.958V31.76C164.444 31.64 164.483 31.538 164.561 31.454C164.645 31.37 164.792 31.328 165.002 31.328C165.212 31.328 165.356 31.37 165.434 31.454C165.518 31.538 165.56 31.64 165.56 31.76V31.958C165.56 32.078 165.518 32.18 165.434 32.264C165.356 32.348 165.212 32.39 165.002 32.39ZM173.581 35V30.356H174.247V30.896H174.283C174.355 30.716 174.457 30.563 174.589 30.437C174.721 30.311 174.916 30.248 175.174 30.248C175.444 30.248 175.645 30.317 175.777 30.455C175.909 30.587 175.99 30.761 176.02 30.977H176.047C176.131 30.767 176.251 30.593 176.407 30.455C176.563 30.317 176.779 30.248 177.055 30.248C177.433 30.248 177.685 30.38 177.811 30.644C177.943 30.908 178.009 31.286 178.009 31.778V35H177.343V31.895C177.343 31.499 177.301 31.226 177.217 31.076C177.139 30.92 176.992 30.842 176.776 30.842C176.584 30.842 176.428 30.905 176.308 31.031C176.188 31.151 176.128 31.337 176.128 31.589V35H175.462V31.895C175.462 31.499 175.42 31.226 175.336 31.076C175.258 30.92 175.114 30.842 174.904 30.842C174.712 30.842 174.553 30.905 174.427 31.031C174.307 31.151 174.247 31.337 174.247 31.589V35H173.581ZM181.245 35.108C180.759 35.108 180.339 35.027 179.985 34.865C179.637 34.697 179.34 34.475 179.094 34.199L179.58 33.776C179.802 34.01 180.045 34.19 180.309 34.316C180.573 34.442 180.891 34.505 181.263 34.505C181.623 34.505 181.917 34.442 182.145 34.316C182.379 34.184 182.496 33.98 182.496 33.704C182.496 33.584 182.472 33.485 182.424 33.407C182.382 33.323 182.322 33.257 182.244 33.209C182.166 33.161 182.079 33.125 181.983 33.101C181.887 33.071 181.785 33.047 181.677 33.029L180.948 32.921C180.786 32.897 180.609 32.864 180.417 32.822C180.231 32.78 180.06 32.714 179.904 32.624C179.748 32.528 179.616 32.402 179.508 32.246C179.406 32.09 179.355 31.886 179.355 31.634C179.355 31.4 179.4 31.199 179.49 31.031C179.586 30.857 179.718 30.713 179.886 30.599C180.054 30.479 180.252 30.392 180.48 30.338C180.708 30.278 180.957 30.248 181.227 30.248C181.647 30.248 182.01 30.314 182.316 30.446C182.628 30.578 182.895 30.761 183.117 30.995L182.649 31.436C182.595 31.37 182.526 31.304 182.442 31.238C182.364 31.166 182.265 31.103 182.145 31.049C182.031 30.989 181.896 30.941 181.74 30.905C181.584 30.869 181.404 30.851 181.2 30.851C180.834 30.851 180.552 30.914 180.354 31.04C180.162 31.166 180.066 31.349 180.066 31.589C180.066 31.709 180.087 31.811 180.129 31.895C180.177 31.973 180.24 32.036 180.318 32.084C180.396 32.132 180.483 32.171 180.579 32.201C180.681 32.225 180.783 32.246 180.885 32.264L181.614 32.372C181.782 32.396 181.959 32.429 182.145 32.471C182.331 32.513 182.502 32.582 182.658 32.678C182.814 32.768 182.943 32.891 183.045 33.047C183.153 33.203 183.207 33.407 183.207 33.659C183.207 34.121 183.027 34.478 182.667 34.73C182.313 34.982 181.839 35.108 181.245 35.108Z" fill="black"/>
<rect x="383" y="21" width="43" height="22" rx="6" fill="white" fill-opacity="0.9"/>
<path d="M392.82 29.375H390.012L389.832 31.778H389.895C390.051 31.568 390.225 31.403 390.417 31.283C390.609 31.157 390.873 31.094 391.209 31.094C391.485 31.094 391.737 31.139 391.965 31.229C392.199 31.313 392.4 31.439 392.568 31.607C392.736 31.775 392.868 31.979 392.964 32.219C393.06 32.453 393.108 32.723 393.108 33.029C393.108 33.335 393.06 33.617 392.964 33.875C392.868 34.127 392.727 34.346 392.541 34.532C392.355 34.712 392.13 34.853 391.866 34.955C391.602 35.057 391.302 35.108 390.966 35.108C390.702 35.108 390.465 35.078 390.255 35.018C390.051 34.958 389.868 34.877 389.706 34.775C389.55 34.673 389.412 34.559 389.292 34.433C389.172 34.307 389.064 34.175 388.968 34.037L389.535 33.605C389.619 33.731 389.703 33.845 389.787 33.947C389.877 34.049 389.979 34.139 390.093 34.217C390.207 34.289 390.336 34.346 390.48 34.388C390.624 34.43 390.792 34.451 390.984 34.451C391.416 34.451 391.746 34.334 391.974 34.1C392.208 33.866 392.325 33.542 392.325 33.128V33.056C392.325 32.642 392.208 32.318 391.974 32.084C391.74 31.85 391.404 31.733 390.966 31.733C390.666 31.733 390.432 31.784 390.264 31.886C390.102 31.988 389.952 32.114 389.814 32.264L389.175 32.174L389.4 28.718H392.82V29.375ZM396.407 35.108C396.023 35.108 395.693 35.036 395.417 34.892C395.141 34.742 394.913 34.529 394.733 34.253C394.553 33.977 394.421 33.638 394.337 33.236C394.253 32.834 394.211 32.375 394.211 31.859C394.211 31.349 394.253 30.893 394.337 30.491C394.421 30.083 394.553 29.741 394.733 29.465C394.913 29.189 395.141 28.979 395.417 28.835C395.693 28.685 396.023 28.61 396.407 28.61C396.791 28.61 397.121 28.685 397.397 28.835C397.673 28.979 397.901 29.189 398.081 29.465C398.261 29.741 398.393 30.083 398.477 30.491C398.561 30.893 398.603 31.349 398.603 31.859C398.603 32.375 398.561 32.834 398.477 33.236C398.393 33.638 398.261 33.977 398.081 34.253C397.901 34.529 397.673 34.742 397.397 34.892C397.121 35.036 396.791 35.108 396.407 35.108ZM396.407 34.451C396.659 34.451 396.875 34.403 397.055 34.307C397.235 34.205 397.379 34.064 397.487 33.884C397.601 33.704 397.685 33.488 397.739 33.236C397.793 32.978 397.82 32.69 397.82 32.372V31.346C397.82 31.034 397.793 30.749 397.739 30.491C397.685 30.233 397.601 30.014 397.487 29.834C397.379 29.654 397.235 29.516 397.055 29.42C396.875 29.318 396.659 29.267 396.407 29.267C396.155 29.267 395.939 29.318 395.759 29.42C395.579 29.516 395.432 29.654 395.318 29.834C395.21 30.014 395.129 30.233 395.075 30.491C395.021 30.749 394.994 31.034 394.994 31.346V32.372C394.994 32.69 395.021 32.978 395.075 33.236C395.129 33.488 395.21 33.704 395.318 33.884C395.432 34.064 395.579 34.205 395.759 34.307C395.939 34.403 396.155 34.451 396.407 34.451ZM396.407 32.39C396.197 32.39 396.05 32.348 395.966 32.264C395.888 32.18 395.849 32.078 395.849 31.958V31.76C395.849 31.64 395.888 31.538 395.966 31.454C396.05 31.37 396.197 31.328 396.407 31.328C396.617 31.328 396.761 31.37 396.839 31.454C396.923 31.538 396.965 31.64 396.965 31.76V31.958C396.965 32.078 396.923 32.18 396.839 32.264C396.761 32.348 396.617 32.39 396.407 32.39ZM401.804 35.108C401.42 35.108 401.09 35.036 400.814 34.892C400.538 34.742 400.31 34.529 400.13 34.253C399.95 33.977 399.818 33.638 399.734 33.236C399.65 32.834 399.608 32.375 399.608 31.859C399.608 31.349 399.65 30.893 399.734 30.491C399.818 30.083 399.95 29.741 400.13 29.465C400.31 29.189 400.538 28.979 400.814 28.835C401.09 28.685 401.42 28.61 401.804 28.61C402.188 28.61 402.518 28.685 402.794 28.835C403.07 28.979 403.298 29.189 403.478 29.465C403.658 29.741 403.79 30.083 403.874 30.491C403.958 30.893 404 31.349 404 31.859C404 32.375 403.958 32.834 403.874 33.236C403.79 33.638 403.658 33.977 403.478 34.253C403.298 34.529 403.07 34.742 402.794 34.892C402.518 35.036 402.188 35.108 401.804 35.108ZM401.804 34.451C402.056 34.451 402.272 34.403 402.452 34.307C402.632 34.205 402.776 34.064 402.884 33.884C402.998 33.704 403.082 33.488 403.136 33.236C403.19 32.978 403.217 32.69 403.217 32.372V31.346C403.217 31.034 403.19 30.749 403.136 30.491C403.082 30.233 402.998 30.014 402.884 29.834C402.776 29.654 402.632 29.516 402.452 29.42C402.272 29.318 402.056 29.267 401.804 29.267C401.552 29.267 401.336 29.318 401.156 29.42C400.976 29.516 400.829 29.654 400.715 29.834C400.607 30.014 400.526 30.233 400.472 30.491C400.418 30.749 400.391 31.034 400.391 31.346V32.372C400.391 32.69 400.418 32.978 400.472 33.236C400.526 33.488 400.607 33.704 400.715 33.884C400.829 34.064 400.976 34.205 401.156 34.307C401.336 34.403 401.552 34.451 401.804 34.451ZM401.804 32.39C401.594 32.39 401.447 32.348 401.363 32.264C401.285 32.18 401.246 32.078 401.246 31.958V31.76C401.246 31.64 401.285 31.538 401.363 31.454C401.447 31.37 401.594 31.328 401.804 31.328C402.014 31.328 402.158 31.37 402.236 31.454C402.32 31.538 402.362 31.64 402.362 31.76V31.958C402.362 32.078 402.32 32.18 402.236 32.264C402.158 32.348 402.014 32.39 401.804 32.39ZM410.382 35V30.356H411.048V30.896H411.084C411.156 30.716 411.258 30.563 411.39 30.437C411.522 30.311 411.717 30.248 411.975 30.248C412.245 30.248 412.446 30.317 412.578 30.455C412.71 30.587 412.791 30.761 412.821 30.977H412.848C412.932 30.767 413.052 30.593 413.208 30.455C413.364 30.317 413.58 30.248 413.856 30.248C414.234 30.248 414.486 30.38 414.612 30.644C414.744 30.908 414.81 31.286 414.81 31.778V35H414.144V31.895C414.144 31.499 414.102 31.226 414.018 31.076C413.94 30.92 413.793 30.842 413.577 30.842C413.385 30.842 413.229 30.905 413.109 31.031C412.989 31.151 412.929 31.337 412.929 31.589V35H412.263V31.895C412.263 31.499 412.221 31.226 412.137 31.076C412.059 30.92 411.915 30.842 411.705 30.842C411.513 30.842 411.354 30.905 411.228 31.031C411.108 31.151 411.048 31.337 411.048 31.589V35H410.382ZM418.047 35.108C417.561 35.108 417.141 35.027 416.787 34.865C416.439 34.697 416.142 34.475 415.896 34.199L416.382 33.776C416.604 34.01 416.847 34.19 417.111 34.316C417.375 34.442 417.693 34.505 418.065 34.505C418.425 34.505 418.719 34.442 418.947 34.316C419.181 34.184 419.298 33.98 419.298 33.704C419.298 33.584 419.274 33.485 419.226 33.407C419.184 33.323 419.124 33.257 419.046 33.209C418.968 33.161 418.881 33.125 418.785 33.101C418.689 33.071 418.587 33.047 418.479 33.029L417.75 32.921C417.588 32.897 417.411 32.864 417.219 32.822C417.033 32.78 416.862 32.714 416.706 32.624C416.55 32.528 416.418 32.402 416.31 32.246C416.208 32.09 416.157 31.886 416.157 31.634C416.157 31.4 416.202 31.199 416.292 31.031C416.388 30.857 416.52 30.713 416.688 30.599C416.856 30.479 417.054 30.392 417.282 30.338C417.51 30.278 417.759 30.248 418.029 30.248C418.449 30.248 418.812 30.314 419.118 30.446C419.43 30.578 419.697 30.761 419.919 30.995L419.451 31.436C419.397 31.37 419.328 31.304 419.244 31.238C419.166 31.166 419.067 31.103 418.947 31.049C418.833 30.989 418.698 30.941 418.542 30.905C418.386 30.869 418.206 30.851 418.002 30.851C417.636 30.851 417.354 30.914 417.156 31.04C416.964 31.166 416.868 31.349 416.868 31.589C416.868 31.709 416.889 31.811 416.931 31.895C416.979 31.973 417.042 32.036 417.12 32.084C417.198 32.132 417.285 32.171 417.381 32.201C417.483 32.225 417.585 32.246 417.687 32.264L418.416 32.372C418.584 32.396 418.761 32.429 418.947 32.471C419.133 32.513 419.304 32.582 419.46 32.678C419.616 32.768 419.745 32.891 419.847 33.047C419.955 33.203 420.009 33.407 420.009 33.659C420.009 34.121 419.829 34.478 419.469 34.73C419.115 34.982 418.641 35.108 418.047 35.108Z" fill="black"/>
<rect x="383" y="57" width="48" height="22" rx="6" fill="white" fill-opacity="0.9"/>
<path d="M388.877 71V70.343H390.677V65.276H390.614L389.03 66.752L388.589 66.275L390.254 64.718H391.433V70.343H393.089V71H388.877ZM398.018 65.375H395.21L395.03 67.778H395.093C395.249 67.568 395.423 67.403 395.615 67.283C395.807 67.157 396.071 67.094 396.407 67.094C396.683 67.094 396.935 67.139 397.163 67.229C397.397 67.313 397.598 67.439 397.766 67.607C397.934 67.775 398.066 67.979 398.162 68.219C398.258 68.453 398.306 68.723 398.306 69.029C398.306 69.335 398.258 69.617 398.162 69.875C398.066 70.127 397.925 70.346 397.739 70.532C397.553 70.712 397.328 70.853 397.064 70.955C396.8 71.057 396.5 71.108 396.164 71.108C395.9 71.108 395.663 71.078 395.453 71.018C395.249 70.958 395.066 70.877 394.904 70.775C394.748 70.673 394.61 70.559 394.49 70.433C394.37 70.307 394.262 70.175 394.166 70.037L394.733 69.605C394.817 69.731 394.901 69.845 394.985 69.947C395.075 70.049 395.177 70.139 395.291 70.217C395.405 70.289 395.534 70.346 395.678 70.388C395.822 70.43 395.99 70.451 396.182 70.451C396.614 70.451 396.944 70.334 397.172 70.1C397.406 69.866 397.523 69.542 397.523 69.128V69.056C397.523 68.642 397.406 68.318 397.172 68.084C396.938 67.85 396.602 67.733 396.164 67.733C395.864 67.733 395.63 67.784 395.462 67.886C395.3 67.988 395.15 68.114 395.012 68.264L394.373 68.174L394.598 64.718H398.018V65.375ZM401.605 71.108C401.221 71.108 400.891 71.036 400.615 70.892C400.339 70.742 400.111 70.529 399.931 70.253C399.751 69.977 399.619 69.638 399.535 69.236C399.451 68.834 399.409 68.375 399.409 67.859C399.409 67.349 399.451 66.893 399.535 66.491C399.619 66.083 399.751 65.741 399.931 65.465C400.111 65.189 400.339 64.979 400.615 64.835C400.891 64.685 401.221 64.61 401.605 64.61C401.989 64.61 402.319 64.685 402.595 64.835C402.871 64.979 403.099 65.189 403.279 65.465C403.459 65.741 403.591 66.083 403.675 66.491C403.759 66.893 403.801 67.349 403.801 67.859C403.801 68.375 403.759 68.834 403.675 69.236C403.591 69.638 403.459 69.977 403.279 70.253C403.099 70.529 402.871 70.742 402.595 70.892C402.319 71.036 401.989 71.108 401.605 71.108ZM401.605 70.451C401.857 70.451 402.073 70.403 402.253 70.307C402.433 70.205 402.577 70.064 402.685 69.884C402.799 69.704 402.883 69.488 402.937 69.236C402.991 68.978 403.018 68.69 403.018 68.372V67.346C403.018 67.034 402.991 66.749 402.937 66.491C402.883 66.233 402.799 66.014 402.685 65.834C402.577 65.654 402.433 65.516 402.253 65.42C402.073 65.318 401.857 65.267 401.605 65.267C401.353 65.267 401.137 65.318 400.957 65.42C400.777 65.516 400.63 65.654 400.516 65.834C400.408 66.014 400.327 66.233 400.273 66.491C400.219 66.749 400.192 67.034 400.192 67.346V68.372C400.192 68.69 400.219 68.978 400.273 69.236C400.327 69.488 400.408 69.704 400.516 69.884C400.63 70.064 400.777 70.205 400.957 70.307C401.137 70.403 401.353 70.451 401.605 70.451ZM401.605 68.39C401.395 68.39 401.248 68.348 401.164 68.264C401.086 68.18 401.047 68.078 401.047 67.958V67.76C401.047 67.64 401.086 67.538 401.164 67.454C401.248 67.37 401.395 67.328 401.605 67.328C401.815 67.328 401.959 67.37 402.037 67.454C402.121 67.538 402.163 67.64 402.163 67.76V67.958C402.163 68.078 402.121 68.18 402.037 68.264C401.959 68.348 401.815 68.39 401.605 68.39ZM407.002 71.108C406.618 71.108 406.288 71.036 406.012 70.892C405.736 70.742 405.508 70.529 405.328 70.253C405.148 69.977 405.016 69.638 404.932 69.236C404.848 68.834 404.806 68.375 404.806 67.859C404.806 67.349 404.848 66.893 404.932 66.491C405.016 66.083 405.148 65.741 405.328 65.465C405.508 65.189 405.736 64.979 406.012 64.835C406.288 64.685 406.618 64.61 407.002 64.61C407.386 64.61 407.716 64.685 407.992 64.835C408.268 64.979 408.496 65.189 408.676 65.465C408.856 65.741 408.988 66.083 409.072 66.491C409.156 66.893 409.198 67.349 409.198 67.859C409.198 68.375 409.156 68.834 409.072 69.236C408.988 69.638 408.856 69.977 408.676 70.253C408.496 70.529 408.268 70.742 407.992 70.892C407.716 71.036 407.386 71.108 407.002 71.108ZM407.002 70.451C407.254 70.451 407.47 70.403 407.65 70.307C407.83 70.205 407.974 70.064 408.082 69.884C408.196 69.704 408.28 69.488 408.334 69.236C408.388 68.978 408.415 68.69 408.415 68.372V67.346C408.415 67.034 408.388 66.749 408.334 66.491C408.28 66.233 408.196 66.014 408.082 65.834C407.974 65.654 407.83 65.516 407.65 65.42C407.47 65.318 407.254 65.267 407.002 65.267C406.75 65.267 406.534 65.318 406.354 65.42C406.174 65.516 406.027 65.654 405.913 65.834C405.805 66.014 405.724 66.233 405.67 66.491C405.616 66.749 405.589 67.034 405.589 67.346V68.372C405.589 68.69 405.616 68.978 405.67 69.236C405.724 69.488 405.805 69.704 405.913 69.884C406.027 70.064 406.174 70.205 406.354 70.307C406.534 70.403 406.75 70.451 407.002 70.451ZM407.002 68.39C406.792 68.39 406.645 68.348 406.561 68.264C406.483 68.18 406.444 68.078 406.444 67.958V67.76C406.444 67.64 406.483 67.538 406.561 67.454C406.645 67.37 406.792 67.328 407.002 67.328C407.212 67.328 407.356 67.37 407.434 67.454C407.518 67.538 407.56 67.64 407.56 67.76V67.958C407.56 68.078 407.518 68.18 407.434 68.264C407.356 68.348 407.212 68.39 407.002 68.39ZM415.581 71V66.356H416.247V66.896H416.283C416.355 66.716 416.457 66.563 416.589 66.437C416.721 66.311 416.916 66.248 417.174 66.248C417.444 66.248 417.645 66.317 417.777 66.455C417.909 66.587 417.99 66.761 418.02 66.977H418.047C418.131 66.767 418.251 66.593 418.407 66.455C418.563 66.317 418.779 66.248 419.055 66.248C419.433 66.248 419.685 66.38 419.811 66.644C419.943 66.908 420.009 67.286 420.009 67.778V71H419.343V67.895C419.343 67.499 419.301 67.226 419.217 67.076C419.139 66.92 418.992 66.842 418.776 66.842C418.584 66.842 418.428 66.905 418.308 67.031C418.188 67.151 418.128 67.337 418.128 67.589V71H417.462V67.895C417.462 67.499 417.42 67.226 417.336 67.076C417.258 66.92 417.114 66.842 416.904 66.842C416.712 66.842 416.553 66.905 416.427 67.031C416.307 67.151 416.247 67.337 416.247 67.589V71H415.581ZM423.245 71.108C422.759 71.108 422.339 71.027 421.985 70.865C421.637 70.697 421.34 70.475 421.094 70.199L421.58 69.776C421.802 70.01 422.045 70.19 422.309 70.316C422.573 70.442 422.891 70.505 423.263 70.505C423.623 70.505 423.917 70.442 424.145 70.316C424.379 70.184 424.496 69.98 424.496 69.704C424.496 69.584 424.472 69.485 424.424 69.407C424.382 69.323 424.322 69.257 424.244 69.209C424.166 69.161 424.079 69.125 423.983 69.101C423.887 69.071 423.785 69.047 423.677 69.029L422.948 68.921C422.786 68.897 422.609 68.864 422.417 68.822C422.231 68.78 422.06 68.714 421.904 68.624C421.748 68.528 421.616 68.402 421.508 68.246C421.406 68.09 421.355 67.886 421.355 67.634C421.355 67.4 421.4 67.199 421.49 67.031C421.586 66.857 421.718 66.713 421.886 66.599C422.054 66.479 422.252 66.392 422.48 66.338C422.708 66.278 422.957 66.248 423.227 66.248C423.647 66.248 424.01 66.314 424.316 66.446C424.628 66.578 424.895 66.761 425.117 66.995L424.649 67.436C424.595 67.37 424.526 67.304 424.442 67.238C424.364 67.166 424.265 67.103 424.145 67.049C424.031 66.989 423.896 66.941 423.74 66.905C423.584 66.869 423.404 66.851 423.2 66.851C422.834 66.851 422.552 66.914 422.354 67.04C422.162 67.166 422.066 67.349 422.066 67.589C422.066 67.709 422.087 67.811 422.129 67.895C422.177 67.973 422.24 68.036 422.318 68.084C422.396 68.132 422.483 68.171 422.579 68.201C422.681 68.225 422.783 68.246 422.885 68.264L423.614 68.372C423.782 68.396 423.959 68.429 424.145 68.471C424.331 68.513 424.502 68.582 424.658 68.678C424.814 68.768 424.943 68.891 425.045 69.047C425.153 69.203 425.207 69.407 425.207 69.659C425.207 70.121 425.027 70.478 424.667 70.73C424.313 70.982 423.839 71.108 423.245 71.108Z" fill="black"/>
<rect x="141" y="57" width="48" height="22" rx="6" fill="white" fill-opacity="0.9"/>
<path d="M150.945 71H146.751V70.226L148.848 68.336C149.154 68.06 149.406 67.778 149.604 67.49C149.802 67.196 149.901 66.887 149.901 66.563V66.455C149.901 66.077 149.802 65.786 149.604 65.582C149.406 65.372 149.112 65.267 148.722 65.267C148.338 65.267 148.041 65.366 147.831 65.564C147.627 65.756 147.474 66.014 147.372 66.338L146.697 66.086C146.757 65.9 146.838 65.72 146.94 65.546C147.048 65.366 147.183 65.207 147.345 65.069C147.507 64.931 147.702 64.82 147.93 64.736C148.164 64.652 148.434 64.61 148.74 64.61C149.052 64.61 149.328 64.655 149.568 64.745C149.814 64.835 150.018 64.961 150.18 65.123C150.348 65.285 150.474 65.477 150.558 65.699C150.648 65.921 150.693 66.164 150.693 66.428C150.693 66.668 150.657 66.893 150.585 67.103C150.519 67.313 150.423 67.514 150.297 67.706C150.177 67.898 150.03 68.087 149.856 68.273C149.688 68.453 149.499 68.633 149.289 68.813L147.534 70.343H150.945V71ZM154.209 71.108C153.825 71.108 153.495 71.036 153.219 70.892C152.943 70.742 152.715 70.529 152.535 70.253C152.355 69.977 152.223 69.638 152.139 69.236C152.055 68.834 152.013 68.375 152.013 67.859C152.013 67.349 152.055 66.893 152.139 66.491C152.223 66.083 152.355 65.741 152.535 65.465C152.715 65.189 152.943 64.979 153.219 64.835C153.495 64.685 153.825 64.61 154.209 64.61C154.593 64.61 154.923 64.685 155.199 64.835C155.475 64.979 155.703 65.189 155.883 65.465C156.063 65.741 156.195 66.083 156.279 66.491C156.363 66.893 156.405 67.349 156.405 67.859C156.405 68.375 156.363 68.834 156.279 69.236C156.195 69.638 156.063 69.977 155.883 70.253C155.703 70.529 155.475 70.742 155.199 70.892C154.923 71.036 154.593 71.108 154.209 71.108ZM154.209 70.451C154.461 70.451 154.677 70.403 154.857 70.307C155.037 70.205 155.181 70.064 155.289 69.884C155.403 69.704 155.487 69.488 155.541 69.236C155.595 68.978 155.622 68.69 155.622 68.372V67.346C155.622 67.034 155.595 66.749 155.541 66.491C155.487 66.233 155.403 66.014 155.289 65.834C155.181 65.654 155.037 65.516 154.857 65.42C154.677 65.318 154.461 65.267 154.209 65.267C153.957 65.267 153.741 65.318 153.561 65.42C153.381 65.516 153.234 65.654 153.12 65.834C153.012 66.014 152.931 66.233 152.877 66.491C152.823 66.749 152.796 67.034 152.796 67.346V68.372C152.796 68.69 152.823 68.978 152.877 69.236C152.931 69.488 153.012 69.704 153.12 69.884C153.234 70.064 153.381 70.205 153.561 70.307C153.741 70.403 153.957 70.451 154.209 70.451ZM154.209 68.39C153.999 68.39 153.852 68.348 153.768 68.264C153.69 68.18 153.651 68.078 153.651 67.958V67.76C153.651 67.64 153.69 67.538 153.768 67.454C153.852 67.37 153.999 67.328 154.209 67.328C154.419 67.328 154.563 67.37 154.641 67.454C154.725 67.538 154.767 67.64 154.767 67.76V67.958C154.767 68.078 154.725 68.18 154.641 68.264C154.563 68.348 154.419 68.39 154.209 68.39ZM159.605 71.108C159.221 71.108 158.891 71.036 158.615 70.892C158.339 70.742 158.111 70.529 157.931 70.253C157.751 69.977 157.619 69.638 157.535 69.236C157.451 68.834 157.409 68.375 157.409 67.859C157.409 67.349 157.451 66.893 157.535 66.491C157.619 66.083 157.751 65.741 157.931 65.465C158.111 65.189 158.339 64.979 158.615 64.835C158.891 64.685 159.221 64.61 159.605 64.61C159.989 64.61 160.319 64.685 160.595 64.835C160.871 64.979 161.099 65.189 161.279 65.465C161.459 65.741 161.591 66.083 161.675 66.491C161.759 66.893 161.801 67.349 161.801 67.859C161.801 68.375 161.759 68.834 161.675 69.236C161.591 69.638 161.459 69.977 161.279 70.253C161.099 70.529 160.871 70.742 160.595 70.892C160.319 71.036 159.989 71.108 159.605 71.108ZM159.605 70.451C159.857 70.451 160.073 70.403 160.253 70.307C160.433 70.205 160.577 70.064 160.685 69.884C160.799 69.704 160.883 69.488 160.937 69.236C160.991 68.978 161.018 68.69 161.018 68.372V67.346C161.018 67.034 160.991 66.749 160.937 66.491C160.883 66.233 160.799 66.014 160.685 65.834C160.577 65.654 160.433 65.516 160.253 65.42C160.073 65.318 159.857 65.267 159.605 65.267C159.353 65.267 159.137 65.318 158.957 65.42C158.777 65.516 158.63 65.654 158.516 65.834C158.408 66.014 158.327 66.233 158.273 66.491C158.219 66.749 158.192 67.034 158.192 67.346V68.372C158.192 68.69 158.219 68.978 158.273 69.236C158.327 69.488 158.408 69.704 158.516 69.884C158.63 70.064 158.777 70.205 158.957 70.307C159.137 70.403 159.353 70.451 159.605 70.451ZM159.605 68.39C159.395 68.39 159.248 68.348 159.164 68.264C159.086 68.18 159.047 68.078 159.047 67.958V67.76C159.047 67.64 159.086 67.538 159.164 67.454C159.248 67.37 159.395 67.328 159.605 67.328C159.815 67.328 159.959 67.37 160.037 67.454C160.121 67.538 160.163 67.64 160.163 67.76V67.958C160.163 68.078 160.121 68.18 160.037 68.264C159.959 68.348 159.815 68.39 159.605 68.39ZM165.002 71.108C164.618 71.108 164.288 71.036 164.012 70.892C163.736 70.742 163.508 70.529 163.328 70.253C163.148 69.977 163.016 69.638 162.932 69.236C162.848 68.834 162.806 68.375 162.806 67.859C162.806 67.349 162.848 66.893 162.932 66.491C163.016 66.083 163.148 65.741 163.328 65.465C163.508 65.189 163.736 64.979 164.012 64.835C164.288 64.685 164.618 64.61 165.002 64.61C165.386 64.61 165.716 64.685 165.992 64.835C166.268 64.979 166.496 65.189 166.676 65.465C166.856 65.741 166.988 66.083 167.072 66.491C167.156 66.893 167.198 67.349 167.198 67.859C167.198 68.375 167.156 68.834 167.072 69.236C166.988 69.638 166.856 69.977 166.676 70.253C166.496 70.529 166.268 70.742 165.992 70.892C165.716 71.036 165.386 71.108 165.002 71.108ZM165.002 70.451C165.254 70.451 165.47 70.403 165.65 70.307C165.83 70.205 165.974 70.064 166.082 69.884C166.196 69.704 166.28 69.488 166.334 69.236C166.388 68.978 166.415 68.69 166.415 68.372V67.346C166.415 67.034 166.388 66.749 166.334 66.491C166.28 66.233 166.196 66.014 166.082 65.834C165.974 65.654 165.83 65.516 165.65 65.42C165.47 65.318 165.254 65.267 165.002 65.267C164.75 65.267 164.534 65.318 164.354 65.42C164.174 65.516 164.027 65.654 163.913 65.834C163.805 66.014 163.724 66.233 163.67 66.491C163.616 66.749 163.589 67.034 163.589 67.346V68.372C163.589 68.69 163.616 68.978 163.67 69.236C163.724 69.488 163.805 69.704 163.913 69.884C164.027 70.064 164.174 70.205 164.354 70.307C164.534 70.403 164.75 70.451 165.002 70.451ZM165.002 68.39C164.792 68.39 164.645 68.348 164.561 68.264C164.483 68.18 164.444 68.078 164.444 67.958V67.76C164.444 67.64 164.483 67.538 164.561 67.454C164.645 67.37 164.792 67.328 165.002 67.328C165.212 67.328 165.356 67.37 165.434 67.454C165.518 67.538 165.56 67.64 165.56 67.76V67.958C165.56 68.078 165.518 68.18 165.434 68.264C165.356 68.348 165.212 68.39 165.002 68.39ZM173.581 71V66.356H174.247V66.896H174.283C174.355 66.716 174.457 66.563 174.589 66.437C174.721 66.311 174.916 66.248 175.174 66.248C175.444 66.248 175.645 66.317 175.777 66.455C175.909 66.587 175.99 66.761 176.02 66.977H176.047C176.131 66.767 176.251 66.593 176.407 66.455C176.563 66.317 176.779 66.248 177.055 66.248C177.433 66.248 177.685 66.38 177.811 66.644C177.943 66.908 178.009 67.286 178.009 67.778V71H177.343V67.895C177.343 67.499 177.301 67.226 177.217 67.076C177.139 66.92 176.992 66.842 176.776 66.842C176.584 66.842 176.428 66.905 176.308 67.031C176.188 67.151 176.128 67.337 176.128 67.589V71H175.462V67.895C175.462 67.499 175.42 67.226 175.336 67.076C175.258 66.92 175.114 66.842 174.904 66.842C174.712 66.842 174.553 66.905 174.427 67.031C174.307 67.151 174.247 67.337 174.247 67.589V71H173.581ZM181.245 71.108C180.759 71.108 180.339 71.027 179.985 70.865C179.637 70.697 179.34 70.475 179.094 70.199L179.58 69.776C179.802 70.01 180.045 70.19 180.309 70.316C180.573 70.442 180.891 70.505 181.263 70.505C181.623 70.505 181.917 70.442 182.145 70.316C182.379 70.184 182.496 69.98 182.496 69.704C182.496 69.584 182.472 69.485 182.424 69.407C182.382 69.323 182.322 69.257 182.244 69.209C182.166 69.161 182.079 69.125 181.983 69.101C181.887 69.071 181.785 69.047 181.677 69.029L180.948 68.921C180.786 68.897 180.609 68.864 180.417 68.822C180.231 68.78 180.06 68.714 179.904 68.624C179.748 68.528 179.616 68.402 179.508 68.246C179.406 68.09 179.355 67.886 179.355 67.634C179.355 67.4 179.4 67.199 179.49 67.031C179.586 66.857 179.718 66.713 179.886 66.599C180.054 66.479 180.252 66.392 180.48 66.338C180.708 66.278 180.957 66.248 181.227 66.248C181.647 66.248 182.01 66.314 182.316 66.446C182.628 66.578 182.895 66.761 183.117 66.995L182.649 67.436C182.595 67.37 182.526 67.304 182.442 67.238C182.364 67.166 182.265 67.103 182.145 67.049C182.031 66.989 181.896 66.941 181.74 66.905C181.584 66.869 181.404 66.851 181.2 66.851C180.834 66.851 180.552 66.914 180.354 67.04C180.162 67.166 180.066 67.349 180.066 67.589C180.066 67.709 180.087 67.811 180.129 67.895C180.177 67.973 180.24 68.036 180.318 68.084C180.396 68.132 180.483 68.171 180.579 68.201C180.681 68.225 180.783 68.246 180.885 68.264L181.614 68.372C181.782 68.396 181.959 68.429 182.145 68.471C182.331 68.513 182.502 68.582 182.658 68.678C182.814 68.768 182.943 68.891 183.045 69.047C183.153 69.203 183.207 69.407 183.207 69.659C183.207 70.121 183.027 70.478 182.667 70.73C182.313 70.982 181.839 71.108 181.245 71.108Z" fill="black"/>
<path d="M228.906 117H227.275L230.939 106.818H232.714L236.378 117H234.747L231.869 108.668H231.789L228.906 117ZM229.179 113.013H234.469V114.305H229.179V113.013ZM240.199 117.149C239.582 117.149 239.032 116.992 238.548 116.677C238.068 116.359 237.69 115.906 237.415 115.32C237.143 114.73 237.007 114.022 237.007 113.197C237.007 112.371 237.144 111.665 237.42 111.079C237.698 110.492 238.079 110.043 238.563 109.732C239.047 109.42 239.595 109.264 240.209 109.264C240.683 109.264 241.064 109.344 241.352 109.503C241.644 109.659 241.869 109.841 242.028 110.05C242.191 110.259 242.317 110.442 242.406 110.602H242.496V106.818H243.982V117H242.53V115.812H242.406C242.317 115.974 242.187 116.16 242.018 116.369C241.853 116.577 241.624 116.76 241.332 116.915C241.041 117.071 240.663 117.149 240.199 117.149ZM240.527 115.881C240.954 115.881 241.316 115.769 241.611 115.543C241.909 115.315 242.134 114.998 242.287 114.594C242.443 114.189 242.52 113.719 242.52 113.182C242.52 112.652 242.444 112.187 242.292 111.79C242.139 111.392 241.916 111.082 241.621 110.86C241.326 110.638 240.961 110.527 240.527 110.527C240.079 110.527 239.706 110.643 239.408 110.875C239.11 111.107 238.885 111.424 238.732 111.825C238.583 112.226 238.508 112.678 238.508 113.182C238.508 113.692 238.585 114.151 238.737 114.559C238.889 114.967 239.115 115.29 239.413 115.528C239.715 115.764 240.086 115.881 240.527 115.881ZM248.696 117.149C248.08 117.149 247.53 116.992 247.046 116.677C246.565 116.359 246.187 115.906 245.912 115.32C245.64 114.73 245.505 114.022 245.505 113.197C245.505 112.371 245.642 111.665 245.917 111.079C246.196 110.492 246.577 110.043 247.061 109.732C247.545 109.42 248.093 109.264 248.706 109.264C249.18 109.264 249.561 109.344 249.85 109.503C250.141 109.659 250.367 109.841 250.526 110.05C250.688 110.259 250.814 110.442 250.904 110.602H250.993V106.818H252.48V117H251.028V115.812H250.904C250.814 115.974 250.685 116.16 250.516 116.369C250.35 116.577 250.122 116.76 249.83 116.915C249.538 117.071 249.16 117.149 248.696 117.149ZM249.024 115.881C249.452 115.881 249.813 115.769 250.108 115.543C250.407 115.315 250.632 114.998 250.784 114.594C250.94 114.189 251.018 113.719 251.018 113.182C251.018 112.652 250.942 112.187 250.789 111.79C250.637 111.392 250.413 111.082 250.118 110.86C249.823 110.638 249.459 110.527 249.024 110.527C248.577 110.527 248.204 110.643 247.906 110.875C247.608 111.107 247.382 111.424 247.23 111.825C247.081 112.226 247.006 112.678 247.006 113.182C247.006 113.692 247.082 114.151 247.235 114.559C247.387 114.967 247.613 115.29 247.911 115.528C248.212 115.764 248.584 115.881 249.024 115.881ZM260.058 111.228L258.71 111.467C258.654 111.294 258.565 111.13 258.442 110.974C258.323 110.819 258.16 110.691 257.955 110.592C257.749 110.492 257.492 110.442 257.184 110.442C256.763 110.442 256.412 110.537 256.13 110.726C255.848 110.911 255.707 111.152 255.707 111.447C255.707 111.702 255.802 111.907 255.991 112.063C256.18 112.219 256.485 112.347 256.906 112.446L258.119 112.724C258.821 112.887 259.345 113.137 259.69 113.475C260.034 113.813 260.207 114.252 260.207 114.793C260.207 115.25 260.074 115.658 259.809 116.016C259.547 116.37 259.181 116.649 258.71 116.851C258.243 117.053 257.701 117.154 257.085 117.154C256.23 117.154 255.532 116.972 254.992 116.607C254.451 116.239 254.12 115.717 253.997 115.041L255.434 114.822C255.524 115.197 255.707 115.48 255.986 115.673C256.264 115.862 256.627 115.956 257.075 115.956C257.562 115.956 257.951 115.855 258.243 115.653C258.535 115.447 258.681 115.197 258.681 114.902C258.681 114.663 258.591 114.463 258.412 114.3C258.236 114.138 257.966 114.015 257.602 113.933L256.309 113.649C255.596 113.487 255.069 113.228 254.728 112.874C254.39 112.519 254.221 112.07 254.221 111.526C254.221 111.076 254.347 110.681 254.599 110.343C254.851 110.005 255.199 109.741 255.643 109.553C256.087 109.36 256.596 109.264 257.169 109.264C257.994 109.264 258.644 109.443 259.118 109.801C259.592 110.156 259.905 110.631 260.058 111.228ZM267.873 117.149C267.256 117.149 266.706 116.992 266.222 116.677C265.742 116.359 265.364 115.906 265.089 115.32C264.817 114.73 264.681 114.022 264.681 113.197C264.681 112.371 264.819 111.665 265.094 111.079C265.372 110.492 265.753 110.043 266.237 109.732C266.721 109.42 267.27 109.264 267.883 109.264C268.357 109.264 268.738 109.344 269.026 109.503C269.318 109.659 269.543 109.841 269.702 110.05C269.865 110.259 269.991 110.442 270.08 110.602H270.17V106.818H271.656V117H270.205V115.812H270.08C269.991 115.974 269.862 116.16 269.693 116.369C269.527 116.577 269.298 116.76 269.006 116.915C268.715 117.071 268.337 117.149 267.873 117.149ZM268.201 115.881C268.629 115.881 268.99 115.769 269.285 115.543C269.583 115.315 269.809 114.998 269.961 114.594C270.117 114.189 270.195 113.719 270.195 113.182C270.195 112.652 270.118 112.187 269.966 111.79C269.814 111.392 269.59 111.082 269.295 110.86C269 110.638 268.635 110.527 268.201 110.527C267.754 110.527 267.381 110.643 267.082 110.875C266.784 111.107 266.559 111.424 266.406 111.825C266.257 112.226 266.183 112.678 266.183 113.182C266.183 113.692 266.259 114.151 266.411 114.559C266.564 114.967 266.789 115.29 267.087 115.528C267.389 115.764 267.76 115.881 268.201 115.881ZM276.803 117.154C276.051 117.154 275.403 116.993 274.859 116.672C274.319 116.347 273.901 115.891 273.606 115.305C273.315 114.715 273.169 114.024 273.169 113.232C273.169 112.449 273.315 111.76 273.606 111.163C273.901 110.567 274.312 110.101 274.839 109.766C275.37 109.432 275.989 109.264 276.699 109.264C277.13 109.264 277.547 109.335 277.952 109.478C278.356 109.621 278.719 109.844 279.04 110.149C279.362 110.454 279.615 110.85 279.801 111.337C279.987 111.821 280.079 112.41 280.079 113.102V113.629H274.009V112.516H278.623C278.623 112.125 278.543 111.778 278.384 111.477C278.225 111.172 278.001 110.931 277.713 110.756C277.428 110.58 277.093 110.492 276.709 110.492C276.291 110.492 275.926 110.595 275.615 110.8C275.307 111.003 275.068 111.268 274.899 111.596C274.733 111.921 274.65 112.274 274.65 112.655V113.525C274.65 114.035 274.74 114.469 274.919 114.827C275.101 115.185 275.355 115.459 275.68 115.648C276.004 115.833 276.384 115.926 276.818 115.926C277.1 115.926 277.357 115.886 277.589 115.807C277.821 115.724 278.021 115.601 278.19 115.439C278.359 115.277 278.489 115.076 278.578 114.837L279.985 115.091C279.872 115.505 279.67 115.868 279.378 116.18C279.09 116.488 278.727 116.728 278.29 116.901C277.855 117.07 277.36 117.154 276.803 117.154ZM282.949 106.818V117H281.463V106.818H282.949ZM286.905 117.169C286.421 117.169 285.984 117.08 285.593 116.901C285.202 116.718 284.892 116.455 284.663 116.11C284.438 115.765 284.325 115.343 284.325 114.842C284.325 114.411 284.408 114.057 284.574 113.778C284.739 113.5 284.963 113.28 285.245 113.117C285.527 112.955 285.841 112.832 286.189 112.749C286.537 112.666 286.892 112.603 287.253 112.56C287.711 112.507 288.082 112.464 288.367 112.431C288.652 112.395 288.859 112.337 288.988 112.257C289.118 112.178 289.182 112.048 289.182 111.869V111.835C289.182 111.4 289.06 111.064 288.814 110.825C288.573 110.587 288.211 110.467 287.731 110.467C287.23 110.467 286.836 110.578 286.547 110.8C286.262 111.019 286.065 111.263 285.956 111.531L284.559 111.213C284.725 110.749 284.966 110.375 285.285 110.089C285.606 109.801 285.976 109.592 286.393 109.463C286.811 109.33 287.25 109.264 287.711 109.264C288.016 109.264 288.339 109.301 288.68 109.374C289.025 109.443 289.346 109.572 289.645 109.761C289.946 109.95 290.193 110.22 290.385 110.572C290.578 110.92 290.674 111.372 290.674 111.929V117H289.222V115.956H289.162C289.066 116.148 288.922 116.337 288.73 116.523C288.538 116.708 288.291 116.862 287.989 116.985C287.688 117.108 287.326 117.169 286.905 117.169ZM287.229 115.976C287.64 115.976 287.991 115.895 288.283 115.732C288.577 115.57 288.801 115.358 288.954 115.096C289.109 114.831 289.187 114.547 289.187 114.246V113.261C289.134 113.314 289.032 113.364 288.879 113.411C288.73 113.454 288.559 113.492 288.367 113.525C288.175 113.555 287.988 113.583 287.805 113.609C287.623 113.633 287.47 113.652 287.348 113.669C287.059 113.705 286.796 113.767 286.557 113.853C286.322 113.939 286.133 114.063 285.991 114.226C285.851 114.385 285.782 114.597 285.782 114.862C285.782 115.23 285.918 115.509 286.189 115.697C286.461 115.883 286.808 115.976 287.229 115.976ZM293.054 119.864C292.832 119.864 292.63 119.845 292.447 119.809C292.265 119.776 292.129 119.739 292.04 119.7L292.398 118.482C292.67 118.554 292.911 118.586 293.124 118.576C293.336 118.566 293.523 118.487 293.685 118.337C293.851 118.188 293.997 117.945 294.123 117.607L294.307 117.099L291.513 109.364H293.104L295.038 115.29H295.117L297.051 109.364H298.647L295.5 118.019C295.354 118.417 295.169 118.753 294.943 119.028C294.718 119.307 294.449 119.516 294.138 119.655C293.826 119.794 293.465 119.864 293.054 119.864ZM306.742 117.139C306.059 117.139 305.449 117.022 304.912 116.786C304.379 116.551 303.956 116.224 303.645 115.807C303.336 115.386 303.171 114.899 303.147 114.345H304.709C304.728 114.647 304.83 114.909 305.012 115.131C305.197 115.349 305.439 115.518 305.738 115.638C306.036 115.757 306.367 115.817 306.732 115.817C307.133 115.817 307.488 115.747 307.796 115.608C308.107 115.469 308.351 115.275 308.527 115.026C308.702 114.774 308.79 114.484 308.79 114.156C308.79 113.815 308.702 113.515 308.527 113.256C308.354 112.995 308.101 112.789 307.766 112.64C307.435 112.491 307.034 112.416 306.563 112.416H305.703V111.163H306.563C306.941 111.163 307.272 111.095 307.557 110.96C307.846 110.824 308.071 110.635 308.233 110.393C308.396 110.147 308.477 109.861 308.477 109.533C308.477 109.218 308.406 108.944 308.263 108.712C308.124 108.477 307.925 108.293 307.667 108.161C307.411 108.028 307.11 107.962 306.762 107.962C306.43 107.962 306.121 108.023 305.832 108.146C305.547 108.265 305.315 108.437 305.136 108.663C304.957 108.885 304.861 109.152 304.848 109.463H303.361C303.378 108.913 303.54 108.429 303.848 108.011C304.16 107.594 304.571 107.267 305.081 107.032C305.592 106.797 306.159 106.679 306.782 106.679C307.435 106.679 307.998 106.807 308.472 107.062C308.949 107.314 309.317 107.65 309.576 108.071C309.838 108.492 309.967 108.953 309.964 109.453C309.967 110.023 309.808 110.507 309.486 110.905C309.168 111.303 308.744 111.569 308.214 111.705V111.785C308.89 111.888 309.413 112.156 309.785 112.59C310.159 113.024 310.345 113.563 310.341 114.206C310.345 114.766 310.189 115.268 309.874 115.712C309.563 116.156 309.137 116.506 308.596 116.761C308.056 117.013 307.438 117.139 306.742 117.139ZM313.148 109.364L314.833 112.337L316.533 109.364H318.159L315.778 113.182L318.179 117H316.553L314.833 114.146L313.118 117H311.487L313.864 113.182L311.517 109.364H313.148ZM326.423 109.364V110.557H322.252V109.364H326.423ZM323.371 107.534H324.857V114.758C324.857 115.046 324.9 115.263 324.986 115.409C325.073 115.552 325.184 115.649 325.319 115.702C325.459 115.752 325.61 115.777 325.772 115.777C325.891 115.777 325.996 115.769 326.085 115.752C326.175 115.736 326.244 115.722 326.294 115.712L326.562 116.94C326.476 116.973 326.354 117.007 326.194 117.04C326.035 117.076 325.837 117.096 325.598 117.099C325.207 117.106 324.842 117.036 324.504 116.891C324.166 116.745 323.893 116.519 323.684 116.214C323.475 115.91 323.371 115.527 323.371 115.066V107.534ZM329.452 112.466V117H327.966V106.818H329.432V110.607H329.527C329.706 110.196 329.979 109.869 330.347 109.627C330.715 109.385 331.195 109.264 331.789 109.264C332.312 109.264 332.77 109.372 333.161 109.587C333.555 109.803 333.86 110.124 334.076 110.552C334.294 110.976 334.404 111.506 334.404 112.143V117H332.917V112.322C332.917 111.762 332.773 111.327 332.485 111.019C332.196 110.708 331.795 110.552 331.282 110.552C330.93 110.552 330.615 110.626 330.337 110.776C330.062 110.925 329.845 111.143 329.686 111.432C329.53 111.717 329.452 112.062 329.452 112.466ZM339.413 117.154C338.66 117.154 338.012 116.993 337.469 116.672C336.929 116.347 336.511 115.891 336.216 115.305C335.924 114.715 335.778 114.024 335.778 113.232C335.778 112.449 335.924 111.76 336.216 111.163C336.511 110.567 336.922 110.101 337.449 109.766C337.979 109.432 338.599 109.264 339.308 109.264C339.739 109.264 340.157 109.335 340.561 109.478C340.965 109.621 341.328 109.844 341.65 110.149C341.971 110.454 342.225 110.85 342.411 111.337C342.596 111.821 342.689 112.41 342.689 113.102V113.629H336.619V112.516H341.232C341.232 112.125 341.153 111.778 340.994 111.477C340.835 111.172 340.611 110.931 340.322 110.756C340.037 110.58 339.703 110.492 339.318 110.492C338.901 110.492 338.536 110.595 338.224 110.8C337.916 111.003 337.678 111.268 337.509 111.596C337.343 111.921 337.26 112.274 337.26 112.655V113.525C337.26 114.035 337.349 114.469 337.528 114.827C337.711 115.185 337.964 115.459 338.289 115.648C338.614 115.833 338.993 115.926 339.428 115.926C339.709 115.926 339.966 115.886 340.198 115.807C340.43 115.724 340.631 115.601 340.8 115.439C340.969 115.277 341.098 115.076 341.188 114.837L342.594 115.091C342.482 115.505 342.28 115.868 341.988 116.18C341.7 116.488 341.337 116.728 340.899 116.901C340.465 117.07 339.969 117.154 339.413 117.154ZM228.99 138.169C228.506 138.169 228.069 138.08 227.678 137.901C227.287 137.718 226.977 137.455 226.748 137.11C226.523 136.765 226.41 136.343 226.41 135.842C226.41 135.411 226.493 135.057 226.659 134.778C226.824 134.5 227.048 134.28 227.33 134.117C227.611 133.955 227.926 133.832 228.274 133.749C228.622 133.666 228.977 133.603 229.338 133.56C229.796 133.507 230.167 133.464 230.452 133.431C230.737 133.395 230.944 133.337 231.073 133.257C231.203 133.178 231.267 133.048 231.267 132.869V132.835C231.267 132.4 231.145 132.064 230.899 131.825C230.657 131.587 230.296 131.467 229.815 131.467C229.315 131.467 228.921 131.578 228.632 131.8C228.347 132.019 228.15 132.263 228.041 132.531L226.644 132.213C226.809 131.749 227.051 131.375 227.369 131.089C227.691 130.801 228.061 130.592 228.478 130.463C228.896 130.33 229.335 130.264 229.796 130.264C230.101 130.264 230.424 130.301 230.765 130.374C231.11 130.443 231.431 130.572 231.73 130.761C232.031 130.95 232.278 131.22 232.47 131.572C232.663 131.92 232.759 132.372 232.759 132.929V138H231.307V136.956H231.247C231.151 137.148 231.007 137.337 230.815 137.523C230.623 137.708 230.376 137.862 230.074 137.985C229.772 138.108 229.411 138.169 228.99 138.169ZM229.313 136.976C229.724 136.976 230.076 136.895 230.367 136.732C230.662 136.57 230.886 136.358 231.039 136.096C231.194 135.831 231.272 135.547 231.272 135.246V134.261C231.219 134.314 231.116 134.364 230.964 134.411C230.815 134.454 230.644 134.492 230.452 134.525C230.26 134.555 230.072 134.583 229.89 134.609C229.708 134.633 229.555 134.652 229.433 134.669C229.144 134.705 228.881 134.767 228.642 134.853C228.407 134.939 228.218 135.063 228.075 135.226C227.936 135.385 227.867 135.597 227.867 135.862C227.867 136.23 228.003 136.509 228.274 136.697C228.546 136.883 228.892 136.976 229.313 136.976ZM240.732 130.364L237.963 138H236.372L233.598 130.364H235.193L237.127 136.24H237.207L239.136 130.364H240.732ZM244.894 138.154C244.142 138.154 243.494 137.993 242.95 137.672C242.41 137.347 241.993 136.891 241.698 136.305C241.406 135.715 241.26 135.024 241.26 134.232C241.26 133.449 241.406 132.76 241.698 132.163C241.993 131.567 242.404 131.101 242.931 130.766C243.461 130.432 244.081 130.264 244.79 130.264C245.221 130.264 245.638 130.335 246.043 130.478C246.447 130.621 246.81 130.844 247.132 131.149C247.453 131.454 247.707 131.85 247.892 132.337C248.078 132.821 248.171 133.41 248.171 134.102V134.629H242.1V133.516H246.714C246.714 133.125 246.634 132.778 246.475 132.477C246.316 132.172 246.092 131.931 245.804 131.756C245.519 131.58 245.184 131.492 244.8 131.492C244.382 131.492 244.018 131.595 243.706 131.8C243.398 132.003 243.159 132.268 242.99 132.596C242.824 132.921 242.742 133.274 242.742 133.655V134.525C242.742 135.035 242.831 135.469 243.01 135.827C243.192 136.185 243.446 136.459 243.771 136.648C244.096 136.833 244.475 136.926 244.909 136.926C245.191 136.926 245.448 136.886 245.68 136.807C245.912 136.724 246.112 136.601 246.281 136.439C246.45 136.277 246.58 136.076 246.669 135.837L248.076 136.091C247.963 136.505 247.761 136.868 247.47 137.18C247.181 137.488 246.818 137.728 246.381 137.901C245.947 138.07 245.451 138.154 244.894 138.154ZM249.554 138V130.364H250.991V131.577H251.07C251.209 131.166 251.455 130.843 251.806 130.607C252.161 130.369 252.562 130.249 253.009 130.249C253.102 130.249 253.211 130.253 253.337 130.259C253.467 130.266 253.568 130.274 253.641 130.284V131.706C253.581 131.689 253.475 131.671 253.322 131.651C253.17 131.628 253.017 131.616 252.865 131.616C252.514 131.616 252.2 131.691 251.925 131.84C251.654 131.986 251.438 132.19 251.279 132.452C251.12 132.71 251.04 133.005 251.04 133.337V138H249.554ZM256.815 138.169C256.331 138.169 255.893 138.08 255.502 137.901C255.111 137.718 254.801 137.455 254.573 137.11C254.347 136.765 254.235 136.343 254.235 135.842C254.235 135.411 254.317 135.057 254.483 134.778C254.649 134.5 254.873 134.28 255.154 134.117C255.436 133.955 255.751 133.832 256.099 133.749C256.447 133.666 256.802 133.603 257.163 133.56C257.62 133.507 257.991 133.464 258.277 133.431C258.562 133.395 258.769 133.337 258.898 133.257C259.027 133.178 259.092 133.048 259.092 132.869V132.835C259.092 132.4 258.969 132.064 258.724 131.825C258.482 131.587 258.121 131.467 257.64 131.467C257.14 131.467 256.745 131.578 256.457 131.8C256.172 132.019 255.975 132.263 255.865 132.531L254.468 132.213C254.634 131.749 254.876 131.375 255.194 131.089C255.516 130.801 255.885 130.592 256.303 130.463C256.72 130.33 257.16 130.264 257.62 130.264C257.925 130.264 258.248 130.301 258.59 130.374C258.934 130.443 259.256 130.572 259.554 130.761C259.856 130.95 260.103 131.22 260.295 131.572C260.487 131.92 260.583 132.372 260.583 132.929V138H259.132V136.956H259.072C258.976 137.148 258.832 137.337 258.639 137.523C258.447 137.708 258.2 137.862 257.899 137.985C257.597 138.108 257.236 138.169 256.815 138.169ZM257.138 136.976C257.549 136.976 257.9 136.895 258.192 136.732C258.487 136.57 258.711 136.358 258.863 136.096C259.019 135.831 259.097 135.547 259.097 135.246V134.261C259.044 134.314 258.941 134.364 258.789 134.411C258.639 134.454 258.469 134.492 258.277 134.525C258.084 134.555 257.897 134.583 257.715 134.609C257.532 134.633 257.38 134.652 257.257 134.669C256.969 134.705 256.706 134.767 256.467 134.853C256.232 134.939 256.043 135.063 255.9 135.226C255.761 135.385 255.691 135.597 255.691 135.862C255.691 136.23 255.827 136.509 256.099 136.697C256.371 136.883 256.717 136.976 257.138 136.976ZM265.499 141.023C264.892 141.023 264.37 140.943 263.933 140.784C263.499 140.625 263.144 140.415 262.869 140.153C262.594 139.891 262.388 139.604 262.253 139.293L263.53 138.766C263.62 138.911 263.739 139.066 263.888 139.228C264.041 139.394 264.246 139.535 264.505 139.651C264.767 139.767 265.103 139.825 265.514 139.825C266.077 139.825 266.543 139.687 266.911 139.412C267.279 139.14 267.463 138.706 267.463 138.109V136.608H267.368C267.279 136.77 267.15 136.951 266.981 137.15C266.815 137.349 266.586 137.521 266.294 137.667C266.003 137.813 265.623 137.886 265.156 137.886C264.553 137.886 264.009 137.745 263.525 137.463C263.045 137.178 262.664 136.759 262.382 136.205C262.103 135.648 261.964 134.964 261.964 134.152C261.964 133.34 262.102 132.644 262.377 132.064C262.655 131.484 263.036 131.04 263.52 130.732C264.004 130.42 264.553 130.264 265.166 130.264C265.64 130.264 266.023 130.344 266.314 130.503C266.606 130.659 266.833 130.841 266.995 131.05C267.161 131.259 267.289 131.442 267.378 131.602H267.488V130.364H268.944V138.169C268.944 138.825 268.792 139.364 268.487 139.785C268.182 140.206 267.769 140.517 267.249 140.719C266.732 140.922 266.149 141.023 265.499 141.023ZM265.484 136.653C265.912 136.653 266.273 136.553 266.568 136.354C266.866 136.152 267.092 135.864 267.244 135.489C267.4 135.112 267.478 134.659 267.478 134.132C267.478 133.618 267.401 133.166 267.249 132.775C267.097 132.384 266.873 132.079 266.578 131.86C266.283 131.638 265.918 131.527 265.484 131.527C265.037 131.527 264.664 131.643 264.365 131.875C264.067 132.104 263.842 132.415 263.689 132.81C263.54 133.204 263.466 133.645 263.466 134.132C263.466 134.633 263.542 135.072 263.694 135.45C263.847 135.827 264.072 136.122 264.37 136.335C264.672 136.547 265.043 136.653 265.484 136.653ZM273.963 138.154C273.211 138.154 272.563 137.993 272.019 137.672C271.479 137.347 271.061 136.891 270.766 136.305C270.475 135.715 270.329 135.024 270.329 134.232C270.329 133.449 270.475 132.76 270.766 132.163C271.061 131.567 271.472 131.101 271.999 130.766C272.53 130.432 273.149 130.264 273.859 130.264C274.29 130.264 274.707 130.335 275.112 130.478C275.516 130.621 275.879 130.844 276.2 131.149C276.522 131.454 276.775 131.85 276.961 132.337C277.147 132.821 277.239 133.41 277.239 134.102V134.629H271.169V133.516H275.783C275.783 133.125 275.703 132.778 275.544 132.477C275.385 132.172 275.161 131.931 274.873 131.756C274.588 131.58 274.253 131.492 273.869 131.492C273.451 131.492 273.086 131.595 272.775 131.8C272.467 132.003 272.228 132.268 272.059 132.596C271.893 132.921 271.81 133.274 271.81 133.655V134.525C271.81 135.035 271.9 135.469 272.079 135.827C272.261 136.185 272.515 136.459 272.84 136.648C273.164 136.833 273.544 136.926 273.978 136.926C274.26 136.926 274.517 136.886 274.749 136.807C274.981 136.724 275.181 136.601 275.35 136.439C275.519 136.277 275.648 136.076 275.738 135.837L277.145 136.091C277.032 136.505 276.83 136.868 276.538 137.18C276.25 137.488 275.887 137.728 275.45 137.901C275.015 138.07 274.52 138.154 273.963 138.154ZM283.548 133.466V138H282.062V127.818H283.528V131.607H283.623C283.802 131.196 284.075 130.869 284.443 130.627C284.811 130.385 285.292 130.264 285.885 130.264C286.409 130.264 286.866 130.372 287.257 130.587C287.652 130.803 287.956 131.124 288.172 131.552C288.391 131.976 288.5 132.506 288.5 133.143V138H287.013V133.322C287.013 132.762 286.869 132.327 286.581 132.019C286.293 131.708 285.892 131.552 285.378 131.552C285.027 131.552 284.712 131.626 284.433 131.776C284.158 131.925 283.941 132.143 283.782 132.432C283.626 132.717 283.548 133.062 283.548 133.466ZM293.434 138.154C292.718 138.154 292.094 137.99 291.56 137.662C291.026 137.334 290.612 136.875 290.317 136.285C290.022 135.695 289.875 135.005 289.875 134.217C289.875 133.424 290.022 132.732 290.317 132.138C290.612 131.545 291.026 131.085 291.56 130.756C292.094 130.428 292.718 130.264 293.434 130.264C294.15 130.264 294.775 130.428 295.309 130.756C295.842 131.085 296.256 131.545 296.551 132.138C296.846 132.732 296.994 133.424 296.994 134.217C296.994 135.005 296.846 135.695 296.551 136.285C296.256 136.875 295.842 137.334 295.309 137.662C294.775 137.99 294.15 138.154 293.434 138.154ZM293.439 136.906C293.903 136.906 294.288 136.784 294.593 136.538C294.898 136.293 295.123 135.967 295.269 135.559C295.418 135.151 295.493 134.702 295.493 134.212C295.493 133.724 295.418 133.277 295.269 132.869C295.123 132.458 294.898 132.129 294.593 131.88C294.288 131.631 293.903 131.507 293.439 131.507C292.972 131.507 292.584 131.631 292.276 131.88C291.971 132.129 291.744 132.458 291.595 132.869C291.449 133.277 291.376 133.724 291.376 134.212C291.376 134.702 291.449 135.151 291.595 135.559C291.744 135.967 291.971 136.293 292.276 136.538C292.584 136.784 292.972 136.906 293.439 136.906ZM298.387 140.864V130.364H299.839V131.602H299.963C300.049 131.442 300.174 131.259 300.336 131.05C300.498 130.841 300.724 130.659 301.012 130.503C301.301 130.344 301.682 130.264 302.156 130.264C302.772 130.264 303.322 130.42 303.806 130.732C304.29 131.043 304.67 131.492 304.945 132.079C305.223 132.665 305.362 133.371 305.362 134.197C305.362 135.022 305.225 135.73 304.95 136.32C304.675 136.906 304.297 137.359 303.816 137.677C303.336 137.992 302.787 138.149 302.171 138.149C301.707 138.149 301.327 138.071 301.032 137.915C300.74 137.76 300.512 137.577 300.346 137.369C300.18 137.16 300.053 136.974 299.963 136.812H299.874V140.864H298.387ZM299.844 134.182C299.844 134.719 299.922 135.189 300.078 135.594C300.233 135.998 300.459 136.315 300.754 136.543C301.049 136.769 301.41 136.881 301.837 136.881C302.282 136.881 302.653 136.764 302.951 136.528C303.249 136.29 303.475 135.967 303.627 135.559C303.783 135.151 303.861 134.692 303.861 134.182C303.861 133.678 303.785 133.226 303.632 132.825C303.483 132.424 303.258 132.107 302.956 131.875C302.658 131.643 302.285 131.527 301.837 131.527C301.407 131.527 301.042 131.638 300.744 131.86C300.449 132.082 300.225 132.392 300.073 132.79C299.92 133.187 299.844 133.652 299.844 134.182ZM313.06 138.149C312.443 138.149 311.893 137.992 311.409 137.677C310.928 137.359 310.551 136.906 310.275 136.32C310.004 135.73 309.868 135.022 309.868 134.197C309.868 133.371 310.005 132.665 310.28 132.079C310.559 131.492 310.94 131.043 311.424 130.732C311.908 130.42 312.456 130.264 313.07 130.264C313.543 130.264 313.925 130.344 314.213 130.503C314.505 130.659 314.73 130.841 314.889 131.05C315.052 131.259 315.177 131.442 315.267 131.602H315.356V127.818H316.843V138H315.391V136.812H315.267C315.177 136.974 315.048 137.16 314.879 137.369C314.713 137.577 314.485 137.76 314.193 137.915C313.901 138.071 313.524 138.149 313.06 138.149ZM313.388 136.881C313.815 136.881 314.177 136.769 314.472 136.543C314.77 136.315 314.995 135.998 315.148 135.594C315.303 135.189 315.381 134.719 315.381 134.182C315.381 133.652 315.305 133.187 315.153 132.79C315 132.392 314.776 132.082 314.481 131.86C314.186 131.638 313.822 131.527 313.388 131.527C312.94 131.527 312.567 131.643 312.269 131.875C311.971 132.107 311.745 132.424 311.593 132.825C311.444 133.226 311.369 133.678 311.369 134.182C311.369 134.692 311.445 135.151 311.598 135.559C311.75 135.967 311.976 136.29 312.274 136.528C312.576 136.764 312.947 136.881 313.388 136.881ZM321.99 138.154C321.237 138.154 320.589 137.993 320.046 137.672C319.506 137.347 319.088 136.891 318.793 136.305C318.501 135.715 318.356 135.024 318.356 134.232C318.356 133.449 318.501 132.76 318.793 132.163C319.088 131.567 319.499 131.101 320.026 130.766C320.556 130.432 321.176 130.264 321.885 130.264C322.316 130.264 322.734 130.335 323.138 130.478C323.543 130.621 323.905 130.844 324.227 131.149C324.548 131.454 324.802 131.85 324.988 132.337C325.173 132.821 325.266 133.41 325.266 134.102V134.629H319.196V133.516H323.809C323.809 133.125 323.73 132.778 323.571 132.477C323.412 132.172 323.188 131.931 322.9 131.756C322.615 131.58 322.28 131.492 321.895 131.492C321.478 131.492 321.113 131.595 320.802 131.8C320.493 132.003 320.255 132.268 320.086 132.596C319.92 132.921 319.837 133.274 319.837 133.655V134.525C319.837 135.035 319.927 135.469 320.106 135.827C320.288 136.185 320.541 136.459 320.866 136.648C321.191 136.833 321.571 136.926 322.005 136.926C322.286 136.926 322.543 136.886 322.775 136.807C323.007 136.724 323.208 136.601 323.377 136.439C323.546 136.277 323.675 136.076 323.765 135.837L325.172 136.091C325.059 136.505 324.857 136.868 324.565 137.18C324.277 137.488 323.914 137.728 323.476 137.901C323.042 138.07 322.547 138.154 321.99 138.154ZM328.136 127.818V138H326.649V127.818H328.136ZM332.092 138.169C331.608 138.169 331.171 138.08 330.78 137.901C330.388 137.718 330.079 137.455 329.85 137.11C329.624 136.765 329.512 136.343 329.512 135.842C329.512 135.411 329.595 135.057 329.76 134.778C329.926 134.5 330.15 134.28 330.432 134.117C330.713 133.955 331.028 133.832 331.376 133.749C331.724 133.666 332.079 133.603 332.44 133.56C332.897 133.507 333.269 133.464 333.554 133.431C333.839 133.395 334.046 133.337 334.175 133.257C334.304 133.178 334.369 133.048 334.369 132.869V132.835C334.369 132.4 334.246 132.064 334.001 131.825C333.759 131.587 333.398 131.467 332.917 131.467C332.417 131.467 332.022 131.578 331.734 131.8C331.449 132.019 331.252 132.263 331.142 132.531L329.745 132.213C329.911 131.749 330.153 131.375 330.471 131.089C330.793 130.801 331.162 130.592 331.58 130.463C331.998 130.33 332.437 130.264 332.897 130.264C333.202 130.264 333.525 130.301 333.867 130.374C334.212 130.443 334.533 130.572 334.831 130.761C335.133 130.95 335.38 131.22 335.572 131.572C335.764 131.92 335.86 132.372 335.86 132.929V138H334.409V136.956H334.349C334.253 137.148 334.109 137.337 333.917 137.523C333.724 137.708 333.477 137.862 333.176 137.985C332.874 138.108 332.513 138.169 332.092 138.169ZM332.415 136.976C332.826 136.976 333.177 136.895 333.469 136.732C333.764 136.57 333.988 136.358 334.14 136.096C334.296 135.831 334.374 135.547 334.374 135.246V134.261C334.321 134.314 334.218 134.364 334.066 134.411C333.917 134.454 333.746 134.492 333.554 134.525C333.361 134.555 333.174 134.583 332.992 134.609C332.81 134.633 332.657 134.652 332.534 134.669C332.246 134.705 331.983 134.767 331.744 134.853C331.509 134.939 331.32 135.063 331.177 135.226C331.038 135.385 330.968 135.597 330.968 135.862C330.968 136.23 331.104 136.509 331.376 136.697C331.648 136.883 331.994 136.976 332.415 136.976ZM338.241 140.864C338.019 140.864 337.816 140.845 337.634 140.809C337.452 140.776 337.316 140.739 337.226 140.7L337.584 139.482C337.856 139.554 338.098 139.586 338.31 139.576C338.522 139.566 338.71 139.487 338.872 139.337C339.038 139.188 339.184 138.945 339.31 138.607L339.493 138.099L336.699 130.364H338.29L340.224 136.29H340.304L342.238 130.364H343.834L340.687 139.019C340.541 139.417 340.355 139.753 340.13 140.028C339.904 140.307 339.636 140.516 339.324 140.655C339.013 140.794 338.652 140.864 338.241 140.864Z" fill="#888888"/>
</svg>
